<svg xmlns="http://www.w3.org/2000/svg" viewBox="0 0 215.714 352.143" height="375.619" width="230.095"><path d="M19.286 0h177.143a19.244 19.244 0 0119.285 19.286v313.571a19.244 19.244 0 01-19.285 19.286H19.286A19.244 19.244 0 010 332.857V19.286A19.244 19.244 0 0119.286 0z" style="isolation:auto;mix-blend-mode:normal;solid-color:#000;solid-opacity:1" color="#000" overflow="visible" fill="#dadada" fill-rule="evenodd"/><path d="M17.954 17.983H197.76v311.632H17.954z" style="isolation:auto;mix-blend-mode:normal;solid-color:#000;solid-opacity:1" color="#000" overflow="visible" fill="#fff" fill-rule="evenodd"/><g style="line-height:125%;-inkscape-font-specification:'roboto, Normal';text-align:start" font-weight="400" font-size="11.852" font-family="roboto" letter-spacing="0" word-spacing="0" fill="#4d4d4d"><path d="M30.712 30.684q0 1.221-.388 2.107-.388.88-1.088 1.377l1.505 1.18-.758.701-1.777-1.412q-.417.104-.88.104-.995 0-1.765-.486-.77-.492-1.198-1.395-.422-.908-.434-2.1v-.608q0-1.215.423-2.147.422-.932 1.192-1.424.776-.497 1.77-.497 1.02 0 1.79.491.775.492 1.191 1.418.417.92.417 2.153v.538zM29.6 30.14q0-1.487-.596-2.291-.59-.81-1.69-.81-1.048 0-1.655.804-.602.798-.62 2.222v.62q0 1.446.602 2.28.608.833 1.684.833 1.077 0 1.667-.781.59-.788.608-2.252v-.625zM36.123 34.006q-.625.735-1.835.735-1 0-1.527-.579-.521-.584-.527-1.724v-4.074h1.07v4.045q0 1.424 1.158 1.424 1.227 0 1.632-.915v-4.554h1.07v6.261h-1.018l-.023-.619zM41.383 34.741q-1.273 0-2.071-.833-.8-.84-.8-2.24v-.197q0-.931.354-1.66.359-.735.995-1.146.643-.417 1.39-.417 1.22 0 1.897.804.677.805.677 2.304v.445h-4.241q.023.926.538 1.5.52.566 1.32.566.566 0 .96-.231.393-.232.688-.614l.654.51q-.787 1.21-2.36 1.21zm-.133-5.613q-.648 0-1.088.474-.44.469-.544 1.32h3.137v-.081q-.046-.816-.44-1.262-.394-.451-1.065-.451zM51.644 32.964q0-.434-.33-.67-.324-.244-1.14-.418-.81-.173-1.29-.416-.475-.243-.707-.579-.225-.336-.225-.799 0-.77.648-1.302.654-.532 1.666-.532 1.065 0 1.725.55.666.55.666 1.406H51.58q0-.44-.376-.758-.37-.318-.938-.318-.584 0-.914.254-.33.255-.33.666 0 .387.307.584.307.197 1.105.376.805.18 1.302.429.498.248.735.602.243.347.243.85 0 .84-.67 1.349-.672.503-1.743.503-.752 0-1.33-.266-.58-.266-.91-.74-.323-.481-.323-1.037h1.07q.029.538.428.857.405.312 1.065.312.608 0 .972-.243.37-.249.37-.66zM53.826 31.437q0-.92.358-1.655.365-.735 1.007-1.135.648-.399 1.476-.399 1.279 0 2.066.885.793.886.793 2.356v.075q0 .914-.353 1.643-.347.724-1.001 1.129-.649.405-1.493.405-1.274 0-2.066-.885-.787-.886-.787-2.344v-.075zm1.076.127q0 1.042.48 1.672.486.631 1.297.631.816 0 1.296-.636.48-.643.48-1.794 0-1.03-.492-1.667-.486-.642-1.296-.642-.793 0-1.279.63-.486.631-.486 1.806zM64.734 34.006q-.625.735-1.834.735-1.001 0-1.528-.579-.52-.584-.527-1.724v-4.074h1.07v4.045q0 1.424 1.158 1.424 1.227 0 1.632-.915v-4.554h1.07v6.261h-1.018l-.023-.619zM68.467 29.122q.712-.874 1.852-.874 1.985 0 2.002 2.24v4.137h-1.07v-4.143q-.007-.677-.313-1.001-.301-.324-.943-.324-.521 0-.915.277-.393.278-.613.73v4.461h-1.07v-8.889h1.07v3.386zM77.79 34.625q-.093-.185-.15-.66-.747.776-1.783.776-.926 0-1.522-.52-.59-.527-.59-1.332 0-.978.74-1.516.747-.544 2.095-.544h1.042v-.492q0-.561-.336-.891-.335-.336-.99-.336-.572 0-.96.29-.388.289-.388.7h-1.076q0-.469.33-.903.336-.44.903-.694.573-.255 1.255-.255 1.083 0 1.696.544.614.538.637 1.487v2.882q0 .862.22 1.372v.092H77.79zm-1.777-.816q.504 0 .955-.26.452-.26.654-.677v-1.285h-.84q-1.967 0-1.967 1.152 0 .503.336.787.336.283.862.283zM81.546 34.625h-1.07v-6.261h1.07v6.261zm-1.158-7.922q0-.26.157-.44.162-.18.474-.18.313 0 .475.18.162.18.162.44t-.162.434q-.162.173-.475.173-.312 0-.474-.173-.157-.174-.157-.434zM84.705 26.847v1.517h1.17v.827h-1.17v3.883q0 .377.157.568.156.185.532.185.185 0 .51-.07v.868q-.423.116-.822.116-.718 0-1.083-.434-.364-.434-.364-1.233v-3.883h-1.14v-.827h1.14v-1.516h1.07zM89.717 34.741q-1.273 0-2.072-.833-.798-.84-.798-2.24v-.197q0-.931.353-1.66.358-.735.995-1.146.642-.417 1.389-.417 1.221 0 1.898.804.677.805.677 2.304v.445h-4.242q.023.926.538 1.5.521.566 1.32.566.567 0 .96-.231.394-.232.69-.614l.653.51q-.787 1.21-2.36 1.21zm-.133-5.613q-.648 0-1.088.474-.44.469-.544 1.32h3.137v-.081q-.047-.816-.44-1.262-.394-.451-1.065-.451zM94.399 33.751h3.663v.874h-4.971v-.787l3.455-4.589h-3.403v-.885h4.745v.758l-3.49 4.63zM104.277 33.173l1.551-4.81h1.094l-2.245 6.262h-.816l-2.269-6.261h1.094l1.591 4.809zM107.576 31.437q0-.92.359-1.655.364-.735 1.007-1.135.648-.399 1.475-.399 1.28 0 2.066.885.793.886.793 2.356v.075q0 .914-.353 1.643-.347.724-1 1.129-.649.405-1.494.405-1.273 0-2.066-.885-.787-.886-.787-2.344v-.075zm1.076.127q0 1.042.48 1.672.487.631 1.297.631.816 0 1.296-.636.48-.643.48-1.794 0-1.03-.491-1.667-.486-.642-1.297-.642-.792 0-1.278.63-.487.631-.487 1.806zM118.485 34.006q-.625.735-1.835.735-1.001 0-1.528-.579-.52-.584-.526-1.724v-4.074h1.07v4.045q0 1.424 1.158 1.424 1.227 0 1.632-.915v-4.554h1.07v6.261h-1.018l-.023-.619zM124.793 32.964q0-.434-.33-.67-.324-.244-1.14-.418-.81-.173-1.29-.416-.475-.243-.707-.579-.226-.336-.226-.799 0-.77.649-1.302.654-.532 1.666-.532 1.065 0 1.725.55.665.55.665 1.406h-1.076q0-.44-.376-.758-.37-.318-.938-.318-.584 0-.914.254-.33.255-.33.666 0 .387.307.584.306.197 1.105.376.805.18 1.302.429.498.248.735.602.243.347.243.85 0 .84-.671 1.349-.671.503-1.742.503-.752 0-1.331-.266t-.909-.74q-.324-.481-.324-1.037h1.07q.03.538.43.857.404.312 1.064.312.608 0 .972-.243.37-.249.37-.66zM132.71 33.867q.572 0 1-.347.429-.347.475-.868h1.013q-.03.538-.37 1.024-.342.486-.915.776-.567.29-1.204.29-1.279 0-2.037-.852-.752-.856-.752-2.338v-.179q0-.914.336-1.626.335-.712.96-1.106.631-.393 1.488-.393 1.053 0 1.747.63.7.632.747 1.639h-1.013q-.046-.608-.463-.996-.41-.393-1.018-.393-.816 0-1.268.59-.445.584-.445 1.696v.202q0 1.082.445 1.667.446.584 1.273.584zM136.118 31.437q0-.92.359-1.655.364-.735 1.007-1.135.648-.399 1.475-.399 1.28 0 2.066.885.793.886.793 2.356v.075q0 .914-.353 1.643-.347.724-1.001 1.129-.648.405-1.493.405-1.273 0-2.066-.885-.787-.886-.787-2.344v-.075zm1.076.127q0 1.042.48 1.672.487.631 1.297.631.816 0 1.296-.636.48-.643.48-1.794 0-1.03-.491-1.667-.486-.642-1.297-.642-.792 0-1.279.63-.486.631-.486 1.806zM144.168 28.364l.029.694q.688-.81 1.857-.81 1.314 0 1.789 1.007.312-.451.81-.73.503-.277 1.186-.277 2.06 0 2.095 2.182v4.195h-1.07v-4.132q0-.671-.307-1-.307-.336-1.03-.336-.596 0-.99.358-.394.353-.457.955v4.155h-1.077v-4.103q0-1.365-1.336-1.365-1.054 0-1.441.897v4.571h-1.071v-6.261h1.013zM154.561 28.364l.03.694q.688-.81 1.857-.81 1.314 0 1.788 1.007.313-.451.81-.73.504-.277 1.187-.277 2.06 0 2.095 2.182v4.195h-1.071v-4.132q0-.671-.307-1-.306-.336-1.03-.336-.596 0-.99.358-.393.353-.457.955v4.155h-1.076v-4.103q0-1.365-1.337-1.365-1.053 0-1.44.897v4.571h-1.071v-6.261h1.012zM167.814 34.625q-.093-.185-.15-.66-.747.776-1.783.776-.926 0-1.522-.52-.59-.527-.59-1.332 0-.978.74-1.516.747-.544 2.095-.544h1.042v-.492q0-.561-.336-.891-.335-.336-.99-.336-.572 0-.96.29-.388.289-.388.7h-1.076q0-.469.33-.903.335-.44.903-.694.573-.255 1.255-.255 1.083 0 1.696.544.613.538.637 1.487v2.882q0 .862.22 1.372v.092h-1.123zm-1.777-.816q.504 0 .955-.26.451-.26.654-.677v-1.285h-.84q-1.967 0-1.967 1.152 0 .503.336.787.336.283.862.283zM171.42 28.364l.034.787q.717-.903 1.875-.903 1.985 0 2.002 2.24v4.137h-1.07v-4.143q-.006-.677-.313-1.001-.3-.324-.943-.324-.521 0-.915.277-.393.278-.613.73v4.461h-1.07v-6.261h1.012zM176.697 31.442q0-1.44.683-2.314.683-.88 1.788-.88 1.1 0 1.742.752v-3.264h1.07v8.89h-.983l-.052-.672q-.643.787-1.788.787-1.088 0-1.777-.891-.683-.891-.683-2.327v-.08zm1.07.122q0 1.065.44 1.667.44.601 1.216.601 1.018 0 1.487-.914v-2.876q-.48-.885-1.476-.885-.787 0-1.227.607-.44.608-.44 1.8zM186.246 34.741q-1.273 0-2.072-.833-.799-.84-.799-2.24v-.197q0-.931.353-1.66.36-.735.996-1.146.642-.417 1.389-.417 1.22 0 1.898.804.677.805.677 2.304v.445h-4.242q.023.926.538 1.5.521.566 1.32.566.567 0 .96-.231.394-.232.689-.614l.654.51q-.787 1.21-2.361 1.21zm-.133-5.613q-.649 0-1.088.474-.44.469-.544 1.32h3.136v-.081q-.046-.816-.44-1.262-.393-.451-1.064-.451zM192.947 29.324q-.243-.04-.526-.04-1.054 0-1.43.897v4.444h-1.07v-6.261h1.041l.018.723q.526-.839 1.493-.839.312 0 .474.081v.995zM26.62 48.682q.573 0 1.002-.347.428-.347.474-.868h1.013q-.029.538-.37 1.024-.342.486-.915.776-.567.289-1.204.289-1.279 0-2.037-.85-.752-.857-.752-2.339v-.18q0-.913.336-1.625.335-.712.96-1.106.631-.393 1.488-.393 1.053 0 1.747.63.7.631.747 1.638h-1.013q-.046-.607-.463-.995-.41-.393-1.018-.393-.816 0-1.268.59-.445.584-.445 1.695v.203q0 1.082.445 1.667.446.584 1.273.584zM32.911 49.556q-1.273 0-2.072-.833-.798-.84-.798-2.24v-.197q0-.931.353-1.66.358-.736.995-1.146.642-.417 1.389-.417 1.221 0 1.898.804.677.805.677 2.304v.445h-4.242q.023.926.538 1.499.521.567 1.32.567.567 0 .96-.231.394-.232.69-.614l.653.51q-.787 1.209-2.361 1.209zm-.133-5.613q-.648 0-1.088.474-.44.469-.544 1.32h3.137v-.081q-.047-.816-.44-1.262-.394-.451-1.065-.451zM38.038 41.662v1.517h1.17v.827h-1.17v3.883q0 .376.157.567.156.186.532.186.185 0 .51-.07v.868q-.423.116-.822.116-.718 0-1.083-.434-.364-.434-.364-1.233v-3.883h-1.14v-.827h1.14v-1.517h1.07zM41.904 41.662v1.517h1.17v.827h-1.17v3.883q0 .376.156.567.157.186.533.186.185 0 .51-.07v.868q-.423.116-.823.116-.717 0-1.082-.434-.364-.434-.364-1.233v-3.883h-1.14v-.827h1.14v-1.517h1.07zM46.916 49.556q-1.273 0-2.072-.833-.799-.84-.799-2.24v-.197q0-.931.353-1.66.36-.736.996-1.146.642-.417 1.389-.417 1.22 0 1.898.804.677.805.677 2.304v.445h-4.242q.023.926.538 1.499.521.567 1.32.567.567 0 .96-.231.394-.232.689-.614l.654.51q-.787 1.209-2.361 1.209zm-.133-5.613q-.649 0-1.088.474-.44.469-.544 1.32h3.136v-.081q-.046-.816-.44-1.262-.393-.451-1.064-.451zM57.176 47.78q0-.435-.33-.672-.324-.243-1.14-.417-.81-.173-1.29-.416-.475-.243-.706-.579-.226-.336-.226-.799 0-.77.648-1.302.654-.532 1.667-.532 1.065 0 1.724.55.666.55.666 1.406h-1.076q0-.44-.377-.758-.37-.318-.937-.318-.585 0-.914.254-.33.255-.33.666 0 .387.306.584.307.197 1.106.376.804.18 1.302.429.498.248.735.601.243.348.243.851 0 .84-.671 1.349-.672.503-1.742.503-.753 0-1.331-.266-.58-.266-.909-.74-.324-.481-.324-1.037h1.07q.03.538.429.857.405.312 1.065.312.607 0 .972-.243.37-.249.37-.66zM62.24 49.556q-1.273 0-2.072-.833-.798-.84-.798-2.24v-.197q0-.931.353-1.66.358-.736.995-1.146.642-.417 1.389-.417 1.22 0 1.898.804.677.805.677 2.304v.445H60.44q.023.926.538 1.499.521.567 1.32.567.567 0 .96-.231.394-.232.69-.614l.653.51q-.787 1.209-2.361 1.209zm-.133-5.613q-.648 0-1.088.474-.44.469-.544 1.32h3.137v-.081q-.047-.816-.44-1.262-.394-.451-1.065-.451zM66.922 43.179l.029.694q.688-.81 1.857-.81 1.314 0 1.788 1.007.313-.452.81-.73.504-.277 1.187-.277 2.06 0 2.095 2.182v4.195h-1.07v-4.132q0-.671-.307-1-.307-.337-1.03-.337-.597 0-.99.36-.394.352-.457.954v4.155h-1.077v-4.103q0-1.366-1.336-1.366-1.054 0-1.441.897v4.572h-1.071V43.18h1.013zM80.174 49.44q-.092-.185-.15-.66-.747.776-1.783.776-.926 0-1.522-.52-.59-.527-.59-1.332 0-.978.74-1.516.747-.544 2.096-.544h1.041v-.492q0-.561-.335-.891-.336-.336-.99-.336-.573 0-.96.29-.388.289-.388.7h-1.077q0-.469.33-.903.336-.44.903-.694.573-.255 1.256-.255 1.082 0 1.695.544.614.538.637 1.487v2.882q0 .862.22 1.372v.092h-1.123zm-1.776-.816q.503 0 .954-.26.452-.26.654-.677v-1.285h-.839q-1.967 0-1.967 1.152 0 .503.335.787.336.283.863.283zM83.93 49.44h-1.07V43.18h1.07v6.261zm-1.157-7.922q0-.26.156-.44.162-.18.474-.18.313 0 .475.18.162.18.162.44t-.162.434q-.162.173-.475.173-.312 0-.474-.173-.156-.174-.156-.434zM86.65 43.179l.035.787q.717-.903 1.875-.903 1.985 0 2.002 2.24v4.137h-1.07v-4.143q-.007-.677-.313-1.001-.301-.325-.943-.325-.521 0-.915.278-.393.278-.613.73v4.461h-1.07V43.18h1.012zM94.787 49.556q-1.274 0-2.072-.833-.799-.84-.799-2.24v-.197q0-.931.353-1.66.359-.736.996-1.146.642-.417 1.388-.417 1.222 0 1.899.804.677.805.677 2.304v.445h-4.242q.023.926.538 1.499.52.567 1.32.567.567 0 .96-.231.394-.232.689-.614l.654.51q-.787 1.209-2.361 1.209zm-.134-5.613q-.648 0-1.088.474-.44.469-.544 1.32h3.137v-.081q-.046-.816-.44-1.262-.393-.451-1.065-.451zM102.657 47.068q.012-.69.156-1.088.145-.4.59-.886l.759-.781q.486-.55.486-1.18 0-.608-.319-.95-.318-.347-.925-.347-.59 0-.95.313-.358.312-.358.839h-1.071q.012-.938.666-1.51.66-.58 1.713-.58 1.093 0 1.7.59.614.585.614 1.61 0 1.012-.937 1.996l-.63.625q-.423.469-.423 1.349h-1.071zm-.046 1.834q0-.26.156-.434.162-.18.474-.18.313 0 .475.18.162.174.162.434t-.162.434q-.162.168-.475.168-.312 0-.474-.168-.156-.174-.156-.434z"/></g><path d="M25.025 68.49H63.41v34.85H25.025z" style="isolation:auto;mix-blend-mode:normal;solid-color:#000;solid-opacity:1" color="#000" overflow="visible" fill="#ececec" fill-rule="evenodd"/><path d="M41.252 102.071c-3.125-.498-6.123-1.752-7.888-3.298-5.414-4.742-6.61-11.652-3.068-17.714 1.28-2.192 3.362-3.717 6.004-4.4l1.262-.326.042-.876c.051-1.05.24-1.065.62-.048.148.4.348.755.443.791.094.036.54.034.988-.004l.816-.07v-.901c0-.936.336-2.044.62-2.044.107 0 .161.389.162 1.171.001 1.454.21 1.91.993 2.18.312.107.638.169.725.137.097-.035.188-.704.237-1.737.09-1.92.328-2.94 1.037-4.444.38-.804.532-1.01.633-.851.216.343.153.988-.231 2.337-.248.871-.39 1.793-.445 2.897l-.081 1.619.685-.094c.378-.052.841-.195 1.03-.32.335-.219.342-.26.244-1.435-.073-.876-.057-1.183.057-1.113.285.176.722 1.192.722 1.677 0 .716.192.815 1.58.815 1.152 0 1.258-.025 1.518-.355.36-.458.45-.447.45.055 0 .385.068.433 1.08.77 2.37.79 4.942 2.826 6.13 4.853 2.28 3.885 2.257 9.377-.056 14.083-1.256 2.554-3.186 4.38-5.758 5.447-2.815 1.167-7.445 1.693-10.55 1.198z" fill="#4c9447"/><path d="M42.246 102.19c-1.894-.201-4.78-1.053-6.52-1.925-2.486-1.245-4.672-3.487-6.025-6.179-1.691-3.364-1.859-7.386-.454-10.894 1.39-3.472 3.578-5.566 6.753-6.465 1.424-.403 1.69-.377 2.032.202.277.47 1.624 1.646 1.884 1.646.316 0 .08.263-.45.502-.611.276-1.609 1.295-1.733 1.77-.095.362-.037.356.512-.056.806-.603 1.691-.968 2.536-1.045.906-.082 1.087.11.557.59-.148.134-.344.538-.434.899-.166.656-.082 1.74.134 1.74.063 0 .194-.328.29-.73.21-.874.87-1.664 1.707-2.042.586-.264.588-.264 1.223.073.745.395 1.534 1.266 1.756 1.94.087.261.225.475.308.475.226 0 .051-1.7-.23-2.246-.293-.566-.202-.734.395-.734.848 0 1.918.422 2.716 1.072.761.62.779.626.779.275 0-.508-1.002-1.545-1.932-2-.42-.206-.765-.397-.765-.424 0-.028.463-.265 1.03-.527.94-.435 1.6-.996 2.022-1.719.337-.577 3.648 1.051 5.41 2.661 1.775 1.622 2.987 4.033 3.398 6.759.371 2.465.168 4.745-.654 7.328-1.598 5.024-4.79 7.713-10.332 8.707-1.497.268-4.816.463-5.913.347zm2.016-24.715c-.05-.429-.018-.732.088-.833.238-.226 1.42-.49 1.562-.349.292.292-.916 1.856-1.434 1.856-.075 0-.172-.303-.216-.674zm-4.003.314c-.53-.182-1.49-1.037-1.49-1.325 0-.246 1.138-.4 1.613-.219.264.102.738 1.456.566 1.622-.067.065-.377.03-.69-.078zm2.086-.534c-.691-.713-.597-.991.214-.635.484.213.604.369.607.784.003.45-.293.397-.821-.149zm4.23.056c0-.169.093-.528.206-.799l.206-.492h1.205c1.273 0 1.515.103 1.109.471-.327.295-1.7.92-2.273 1.035-.397.08-.453.053-.453-.215z" fill="#ea0101"/><g style="line-height:125%;-inkscape-font-specification:'roboto, Normal';text-align:start" font-weight="400" font-size="11.25" font-family="roboto" letter-spacing="0" word-spacing="0" fill="#727272"><path style="-inkscape-font-specification:roboto" d="M73.528 71.955h-2.57v7.13h-1.05v-7.13h-2.565v-.868h6.185v.868zM73.748 76.058q0-.873.34-1.57.347-.698.956-1.077.616-.38 1.401-.38 1.214 0 1.961.841.753.84.753 2.236v.071q0 .868-.335 1.56-.33.687-.95 1.071-.616.385-1.418.385-1.208 0-1.96-.84-.748-.84-.748-2.225v-.072zm1.022.121q0 .989.456 1.588.461.599 1.23.599.775 0 1.23-.605.457-.61.457-1.703 0-.977-.467-1.582-.462-.61-1.23-.61-.753 0-1.215.6-.461.598-.461 1.713zM81.389 73.142l.028.659q.653-.77 1.763-.77 1.247 0 1.697.956.297-.428.77-.692.477-.263 1.125-.263 1.956 0 1.989 2.07v3.983h-1.016v-3.922q0-.637-.291-.95-.292-.319-.978-.319-.566 0-.94.34-.373.336-.434.907v3.944h-1.021V75.19q0-1.296-1.27-1.296-.999 0-1.367.852v4.34h-1.016v-5.944h.961zM93.968 79.085q-.088-.176-.142-.626-.71.736-1.692.736-.88 0-1.445-.494-.56-.5-.56-1.264 0-.928.703-1.44.708-.515 1.988-.515h.99v-.467q0-.533-.32-.846-.318-.319-.939-.319-.544 0-.912.275-.368.274-.368.664H90.25q0-.444.313-.856.318-.418.857-.66.543-.241 1.192-.241 1.027 0 1.61.516.581.51.603 1.412v2.735q0 .819.21 1.302v.088h-1.067zm-1.686-.774q.478 0 .906-.248.429-.247.621-.642V76.2h-.796q-1.868 0-1.868 1.093 0 .478.319.747.318.27.818.27zM97.808 71.702v1.44h1.11v.785h-1.11v3.686q0 .357.148.538.149.176.506.176.176 0 .483-.066v.824q-.4.11-.78.11-.681 0-1.027-.412-.346-.412-.346-1.17v-3.686H95.71v-.785h1.082v-1.44h1.016zM102.565 79.195q-1.208 0-1.966-.791-.758-.797-.758-2.126v-.187q0-.884.335-1.576.34-.698.944-1.088.61-.395 1.319-.395 1.159 0 1.802.763.642.764.642 2.186v.423h-4.026q.022.88.51 1.423.495.539 1.253.539.538 0 .912-.22t.654-.582l.62.483q-.747 1.148-2.24 1.148zm-.126-5.328q-.615 0-1.033.45-.417.445-.516 1.252h2.977v-.076q-.044-.775-.417-1.198-.374-.428-1.011-.428zM109.514 77.509q0-.412-.313-.638-.308-.23-1.082-.395-.77-.165-1.225-.396-.45-.23-.67-.549-.215-.319-.215-.758 0-.73.616-1.236.62-.505 1.582-.505 1.01 0 1.637.521.631.522.631 1.335h-1.021q0-.417-.357-.72-.352-.301-.89-.301-.555 0-.868.241-.313.242-.313.632 0 .368.29.555.292.187 1.05.357.764.17 1.236.406.472.237.698.572.23.33.23.807 0 .797-.637 1.28-.637.478-1.653.478-.714 0-1.264-.253-.55-.252-.862-.703-.308-.456-.308-.983h1.016q.028.51.407.813.384.297 1.01.297.577 0 .923-.231.352-.236.352-.626z"/></g><g style="line-height:125%;-inkscape-font-specification:'roboto, Normal';text-align:start" font-weight="300" font-size="11.25" font-family="roboto" letter-spacing="0" word-spacing="0" fill="#bfbfbf" text-anchor="end"><path style="-inkscape-font-specification:'roboto Light';text-align:end" d="M148.119 74.397h.681q.566 0 .989-.198.423-.203.642-.55.226-.35.226-.807 0-.769-.434-1.203-.434-.434-1.247-.434-.77 0-1.264.456-.489.45-.489 1.192h-.659q0-.62.313-1.131.313-.517.868-.797.555-.28 1.23-.28 1.088 0 1.715.593.626.593.626 1.626 0 .577-.368 1.066-.363.483-1 .725.747.209 1.132.72.384.505.384 1.208 0 1.027-.67 1.654-.67.626-1.79.626-.715 0-1.314-.286-.593-.286-.923-.796-.324-.517-.324-1.198h.66q0 .764.532 1.247.533.478 1.368.478.852 0 1.324-.434.478-.44.478-1.269 0-.802-.516-1.225-.511-.423-1.511-.423h-.66v-.56zM152.942 78.357q0-.192.12-.324.127-.137.347-.137.22 0 .346.137.126.132.126.324 0 .193-.126.319-.127.12-.346.12-.22 0-.346-.12-.121-.126-.121-.319zM156.023 74.655l.39-3.9h4v.61h-3.434l-.28 2.702q.643-.44 1.505-.44 1.082 0 1.725.704.643.703.643 1.873 0 1.263-.626 1.961-.627.698-1.764.698-1.043 0-1.692-.583-.648-.582-.741-1.631h.632q.093.818.554 1.241.462.418 1.247.418.857 0 1.291-.544.44-.544.44-1.549 0-.879-.49-1.434-.488-.554-1.334-.554-.467 0-.813.12-.346.116-.73.456l-.523-.148zM166.642 75.419q0 1.691-.621 2.57-.62.874-1.83.874-1.186 0-1.817-.857-.632-.863-.649-2.505v-1.434q0-1.686.627-2.554.626-.868 1.829-.868 1.186 0 1.813.84.626.835.648 2.467v1.467zm-.66-1.434q0-1.373-.45-2.077-.445-.703-1.351-.703-.89 0-1.34.687-.451.687-.462 2.027v1.57q0 1.369.461 2.094.467.725 1.352.725.879 0 1.33-.709.455-.708.46-2.076v-1.538zM171.794 75.66h-2.301v.094q0 1.214.593 1.878.599.665 1.686.665.643 0 1.203-.187l.055.588q-.637.165-1.263.165-1.368 0-2.153-.808-.78-.807-.797-2.246v-.149h-1.055v-.489h1.055v-.9h-1.055v-.495h1.055q0-1.483.786-2.307.785-.824 2.153-.824.544 0 1.274.17l-.055.599q-.615-.192-1.214-.192-1.087 0-1.68.653-.588.649-.588 1.901h2.301v.494h-2.301v.901h2.301v.49zM174.31 79.44h-.599l3.34-8.685h.594l-3.335 8.685zM180.82 74.781l-1.126 1.11v2.862h-.676v-7.998h.676v4.312l4.097-4.312h.852l-3.351 3.56 3.609 4.438h-.824l-3.257-3.972zM185.566 75.726q0-1.395.615-2.208.62-.819 1.68-.819 1.215 0 1.847.967l.032-.857h.616v5.823q0 1.148-.643 1.818-.643.67-1.741.67-.621 0-1.187-.28-.56-.274-.884-.736l.368-.395q.697.857 1.659.857.824 0 1.285-.49.462-.483.478-1.345v-.747q-.632.879-1.84.879-1.033 0-1.66-.824-.625-.824-.625-2.225v-.088zm.664.115q0 1.138.456 1.797.456.653 1.286.653 1.214 0 1.72-1.087V74.44q-.232-.572-.666-.868-.434-.302-1.043-.302-.83 0-1.291.653-.462.649-.462 1.917z"/></g><path d="M71.005 86.925h119.92c.989 0 1.785.797 1.785 1.786v12.591c0 .99-.796 1.786-1.786 1.786H71.004c-.989 0-1.785-.797-1.785-1.786v-12.59c0-.99.796-1.787 1.786-1.787z" style="isolation:auto;mix-blend-mode:normal;solid-color:#000;solid-opacity:1" color="#000" overflow="visible" fill="#dcdcdc" fill-rule="evenodd"/><g style="line-height:125%;-inkscape-font-specification:'roboto, Normal';text-align:start" font-weight="400" font-size="9.253" font-family="roboto" letter-spacing="0" word-spacing="0" fill="#666"><path d="M80.867 95.429q0 .953-.303 1.645-.303.686-.85 1.075l1.175.922-.592.546-1.387-1.102q-.325.081-.687.081-.777 0-1.378-.38-.6-.383-.935-1.088-.33-.71-.339-1.64v-.475q0-.949.33-1.676t.93-1.111q.606-.389 1.383-.389.796 0 1.397.384.605.384.93 1.107.326.718.326 1.68v.421zm-.868-.425q0-1.16-.465-1.789-.461-.633-1.32-.633-.817 0-1.292.629-.47.623-.483 1.735v.483q0 1.13.47 1.78.474.65 1.314.65.84 0 1.302-.61.46-.614.474-1.757v-.488zM85.091 98.022q-.488.574-1.432.574-.782 0-1.193-.452-.407-.456-.411-1.346v-3.18h.836v3.157q0 1.112.903 1.112.958 0 1.275-.714v-3.556h.835v4.889h-.795l-.018-.484zM90.188 98.506q-.073-.145-.118-.515-.583.605-1.391.605-.723 0-1.189-.406-.46-.412-.46-1.04 0-.763.578-1.183.583-.425 1.635-.425h.814v-.384q0-.438-.262-.696-.262-.262-.773-.262-.447 0-.75.226t-.303.547h-.84q0-.366.257-.705.262-.344.705-.542.448-.2.98-.2.846 0 1.325.426.479.42.497 1.16v2.25q0 .674.171 1.072v.072h-.876zm-1.387-.637q.393 0 .745-.203.353-.204.51-.53v-1.002h-.654q-1.537 0-1.537.899 0 .393.262.614.262.222.674.222zM93.003 93.617l.027.615q.56-.705 1.464-.705 1.55 0 1.563 1.748v3.23h-.836v-3.234q-.005-.529-.244-.782-.235-.253-.736-.253-.407 0-.714.217-.308.217-.48.57v3.483h-.835v-4.889h.79zM98.46 92.433v1.184h.913v.646h-.912v3.032q0 .294.122.443.122.144.415.144.145 0 .398-.054v.678q-.33.09-.642.09-.56 0-.845-.339-.284-.338-.284-.962v-3.032h-.89v-.646h.89v-1.184h.836zM101.253 98.506h-.836v-4.889h.836v4.889zm-.904-6.186q0-.203.122-.343.127-.14.37-.14.245 0 .371.14.127.14.127.343 0 .204-.127.34-.126.135-.37.135t-.37-.136q-.123-.135-.123-.339zM103.72 92.433v1.184h.913v.646h-.913v3.032q0 .294.122.443.122.144.416.144.144 0 .397-.054v.678q-.33.09-.641.09-.56 0-.845-.339-.285-.338-.285-.962v-3.032h-.89v-.646h.89v-1.184h.836zM107.633 98.596q-.994 0-1.618-.65-.623-.655-.623-1.749v-.154q0-.727.275-1.296.28-.574.777-.895.502-.325 1.085-.325.953 0 1.482.628.528.628.528 1.798v.348h-3.311q.018.723.42 1.17.406.443 1.03.443.443 0 .75-.18.307-.181.538-.48l.51.398q-.614.944-1.843.944zm-.104-4.382q-.506 0-.85.37-.343.366-.424 1.03h2.449v-.063q-.037-.637-.344-.985-.307-.352-.831-.352zm.406-2.648h1.013l-1.211 1.328h-.674l.872-1.328z"/></g><path d="M178.266 93.176h9.821l-4.91 4.91z" style="isolation:auto;mix-blend-mode:normal;solid-color:#000;solid-opacity:1" color="#000" overflow="visible" fill="#fff" fill-rule="evenodd"/><path d="M25.025 114.854H63.41v34.85H25.025z" style="isolation:auto;mix-blend-mode:normal;solid-color:#000;solid-opacity:1" color="#000" overflow="visible" fill="#ececec" fill-rule="evenodd"/><g style="line-height:125%;-inkscape-font-specification:'roboto, Normal';text-align:start" font-weight="400" font-size="11.25" font-family="roboto" letter-spacing="0" word-spacing="0" fill="#727272"><path style="-inkscape-font-specification:roboto" d="M73.885 122.911q-.148 1.27-.939 1.961-.785.687-2.093.687-1.417 0-2.274-1.016-.851-1.016-.851-2.72v-.768q0-1.115.395-1.961.401-.846 1.132-1.297.73-.456 1.692-.456 1.274 0 2.043.714.769.71.895 1.967h-1.06q-.137-.956-.599-1.384-.455-.429-1.28-.429-1.01 0-1.587.747-.571.747-.571 2.126v.775q0 1.302.544 2.07.543.77 1.521.77.88 0 1.346-.396.472-.4.626-1.39h1.06zM78.83 125.45q-.089-.176-.144-.627-.708.736-1.691.736-.88 0-1.445-.494-.56-.5-.56-1.264 0-.928.703-1.439.708-.516 1.988-.516h.989v-.467q0-.533-.319-.846-.318-.319-.939-.319-.544 0-.912.275t-.368.665H75.11q0-.445.313-.857.32-.418.857-.66.544-.241 1.192-.241 1.028 0 1.61.516.582.511.604 1.412v2.736q0 .818.209 1.301v.088h-1.066zm-1.687-.775q.478 0 .906-.247.429-.248.62-.643v-1.22h-.796q-1.867 0-1.867 1.094 0 .477.318.747.319.269.819.269zM84.163 120.418q-.23-.039-.5-.039-1 0-1.357.851v4.22H81.29v-5.944h.989l.016.686q.5-.796 1.418-.796.296 0 .45.077v.944zM84.712 122.423q0-.874.341-1.572.346-.697.956-1.076.615-.38 1.4-.38 1.215 0 1.962.841.752.84.752 2.236v.071q0 .868-.335 1.56-.33.687-.95 1.072-.615.384-1.417.384-1.209 0-1.962-.84-.747-.84-.747-2.225v-.071zm1.022.12q0 .99.456 1.588.461.599 1.23.599.775 0 1.231-.605.456-.61.456-1.702 0-.978-.467-1.582-.461-.61-1.23-.61-.753 0-1.214.599-.462.598-.462 1.713zM92.776 118.066v1.44h1.11v.785h-1.11v3.686q0 .357.149.538.148.176.505.176.176 0 .483-.066v.824q-.4.11-.78.11-.68 0-1.027-.412-.346-.412-.346-1.17v-3.686h-1.082v-.785h1.082v-1.44h1.016zM96.446 118.066v1.44h1.11v.785h-1.11v3.686q0 .357.148.538.148.176.505.176.176 0 .484-.066v.824q-.401.11-.78.11-.681 0-1.027-.412-.346-.412-.346-1.17v-3.686h-1.083v-.785h1.083v-1.44h1.016zM101.203 125.56q-1.209 0-1.967-.792-.758-.796-.758-2.126v-.187q0-.884.335-1.576.34-.698.945-1.088.61-.395 1.319-.395 1.159 0 1.801.763.643.764.643 2.187v.423h-4.026q.022.879.51 1.422.495.539 1.253.539.538 0 .912-.22.373-.22.653-.582l.621.483q-.747 1.148-2.241 1.148zm-.126-5.33q-.616 0-1.033.451-.418.445-.517 1.253h2.978v-.077q-.044-.775-.418-1.198-.373-.428-1.01-.428zM108.152 123.873q0-.412-.313-.637-.308-.231-1.083-.396-.769-.165-1.225-.395-.45-.231-.67-.55-.214-.318-.214-.758 0-.73.615-1.236.621-.505 1.582-.505 1.011 0 1.637.522.632.522.632 1.334h-1.022q0-.417-.357-.72-.351-.301-.89-.301-.554 0-.868.241-.313.242-.313.632 0 .368.291.555.292.187 1.05.357.763.17 1.236.407.472.236.697.57.231.33.231.808 0 .797-.637 1.28-.637.478-1.654.478-.714 0-1.263-.253-.55-.252-.863-.703-.307-.456-.307-.983h1.016q.028.51.407.813.384.297 1.01.297.577 0 .923-.231.352-.236.352-.626z"/></g><g style="line-height:125%;-inkscape-font-specification:'roboto, Normal';text-align:start" font-weight="300" font-size="11.25" font-family="roboto" letter-spacing="0" word-spacing="0" fill="#bfbfbf" text-anchor="end"><path style="-inkscape-font-specification:'roboto Light';text-align:end" d="M148.119 120.761h.681q.566 0 .989-.198.423-.203.642-.55.226-.35.226-.807 0-.769-.434-1.203-.434-.434-1.247-.434-.77 0-1.264.456-.489.45-.489 1.192h-.659q0-.62.313-1.131.313-.517.868-.797.555-.28 1.23-.28 1.088 0 1.715.593.626.594.626 1.626 0 .577-.368 1.066-.363.483-1 .725.747.209 1.132.72.384.505.384 1.208 0 1.027-.67 1.654-.67.626-1.79.626-.715 0-1.314-.286-.593-.285-.923-.796-.324-.517-.324-1.198h.66q0 .764.532 1.247.533.478 1.368.478.852 0 1.324-.434.478-.44.478-1.269 0-.802-.516-1.225-.511-.423-1.511-.423h-.66v-.56zM152.942 124.722q0-.193.12-.325.127-.137.347-.137.22 0 .346.137.126.132.126.325 0 .192-.126.318-.127.121-.346.121-.22 0-.346-.12-.121-.127-.121-.32zM160.588 125.117h-5.01v-.505l2.742-3.11q.68-.785.944-1.296.264-.51.264-.994 0-.758-.445-1.198-.445-.445-1.225-.445-.807 0-1.307.517-.495.516-.495 1.34h-.653q0-.676.302-1.23.307-.555.868-.868.566-.319 1.285-.319 1.099 0 1.714.577.62.577.62 1.571 0 .56-.35 1.225-.347.665-1.226 1.659l-2.23 2.521h4.202v.555zM166.642 121.783q0 1.692-.621 2.57-.62.874-1.83.874-1.186 0-1.817-.857-.632-.862-.649-2.505v-1.434q0-1.686.627-2.554.626-.868 1.829-.868 1.186 0 1.813.84.626.836.648 2.467v1.467zm-.66-1.434q0-1.373-.45-2.076-.445-.704-1.351-.704-.89 0-1.34.687-.451.687-.462 2.027v1.571q0 1.368.461 2.093.467.725 1.352.725.879 0 1.33-.709.455-.708.46-2.076v-1.538zM171.794 122.024h-2.301v.094q0 1.214.593 1.878.599.665 1.686.665.643 0 1.203-.187l.055.588q-.637.165-1.263.165-1.368 0-2.153-.808-.78-.807-.797-2.246v-.149h-1.055v-.488h1.055v-.901h-1.055v-.495h1.055q0-1.483.786-2.307.785-.824 2.153-.824.544 0 1.274.17l-.055.6q-.615-.193-1.214-.193-1.087 0-1.68.654-.588.648-.588 1.9h2.301v.495h-2.301v.9h2.301v.49zM174.31 125.804h-.599l3.34-8.685h.594l-3.335 8.685zM180.82 121.146l-1.126 1.11v2.861h-.676v-7.998h.676v4.312l4.097-4.312h.852l-3.351 3.56 3.609 4.438h-.824l-3.257-3.971zM185.566 122.09q0-1.395.615-2.208.62-.818 1.68-.818 1.215 0 1.847.966l.032-.857h.616v5.823q0 1.148-.643 1.818-.643.67-1.741.67-.621 0-1.187-.28-.56-.274-.884-.736l.368-.395q.697.857 1.659.857.824 0 1.285-.49.462-.482.478-1.345v-.747q-.632.879-1.84.879-1.033 0-1.66-.824-.625-.824-.625-2.225v-.088zm.664.116q0 1.137.456 1.796.456.654 1.286.654 1.214 0 1.72-1.088v-2.763q-.232-.571-.666-.868-.434-.302-1.043-.302-.83 0-1.291.654-.462.648-.462 1.917z"/></g><path d="M71.005 133.29h119.92c.989 0 1.785.796 1.785 1.785v12.591c0 .99-.796 1.786-1.786 1.786H71.004c-.989 0-1.785-.796-1.785-1.786v-12.59c0-.99.796-1.786 1.786-1.786z" style="isolation:auto;mix-blend-mode:normal;solid-color:#000;solid-opacity:1" color="#000" overflow="visible" fill="#a5a5a5" fill-rule="evenodd"/><g style="line-height:125%;-inkscape-font-specification:'roboto, Normal';text-align:start" font-weight="400" font-size="9.253" font-family="roboto" letter-spacing="0" word-spacing="0" fill="#fff"><path d="M79.936 144.87h-4.31v-.6l2.277-2.531q.506-.574.695-.93.195-.362.195-.746 0-.515-.312-.845-.312-.33-.831-.33-.624 0-.972.357-.343.352-.343.985h-.836q0-.908.583-1.469.587-.56 1.568-.56.917 0 1.45.484.533.479.533 1.278 0 .972-1.238 2.314l-1.762 1.91h3.303v.683zM84.576 142.606l-.524.547v1.717h-.836v-6.94h.836v4.198l.447-.538 1.523-1.609h1.017l-1.903 2.043 2.124 2.846h-.98l-1.704-2.264zM87.621 142.385q0-1.143.529-1.816.529-.678 1.4-.678.895 0 1.397.633l.04-.543h.764v4.772q0 .948-.565 1.495-.56.547-1.509.547-.528 0-1.034-.226t-.773-.619l.434-.502q.537.665 1.315.665.61 0 .948-.344.344-.343.344-.967v-.42q-.502.578-1.37.578-.858 0-1.39-.69-.53-.692-.53-1.885zm.84.095q0 .827.34 1.301.339.47.949.47.79 0 1.16-.718V141.3q-.383-.7-1.151-.7-.61 0-.954.474-.343.474-.343 1.405zM99.432 142.48q0 1.116-.51 1.798-.511.682-1.383.682-.89 0-1.4-.564v2.354h-.837v-6.769h.764l.04.543q.511-.633 1.42-.633.88 0 1.391.664.515.664.515 1.848v.077zm-.836-.095q0-.827-.352-1.306-.353-.479-.967-.479-.76 0-1.139.674v2.336q.375.668 1.148.668.6 0 .953-.474.357-.48.357-1.419zM100.268 142.38q0-.718.28-1.292.285-.573.786-.885.506-.312 1.152-.312.999 0 1.613.691.62.692.62 1.84v.058q0 .714-.276 1.283-.271.565-.782.881-.506.316-1.166.316-.994 0-1.613-.69-.614-.692-.614-1.83v-.06zm.84.1q0 .813.375 1.306.38.492 1.012.492.638 0 1.013-.497.375-.501.375-1.4 0-.805-.384-1.302-.38-.501-1.013-.501-.619 0-.998.492-.38.493-.38 1.41zM108.785 144.387q-.488.573-1.432.573-.782 0-1.193-.451-.407-.457-.411-1.347v-3.18h.836v3.158q0 1.111.903 1.111.958 0 1.274-.714v-3.556h.836v4.89h-.795l-.018-.484zM113.226 140.731q-.19-.031-.41-.031-.823 0-1.117.7v3.47h-.836v-4.889h.814l.013.565q.411-.655 1.166-.655.244 0 .37.063v.777zM119.48 138.287v.71h-.154q-.976.017-1.554.578-.579.56-.669 1.577.52-.597 1.419-.597.858 0 1.369.606.515.605.515 1.563 0 1.017-.556 1.627-.551.61-1.482.61-.944 0-1.532-.723-.587-.728-.587-1.871v-.32q0-1.817.773-2.775.777-.962 2.308-.985h.15zm-1.098 2.964q-.43 0-.791.258-.361.257-.502.646v.307q0 .813.366 1.31.366.497.913.497.565 0 .886-.415.325-.416.325-1.09 0-.677-.33-1.093-.325-.42-.867-.42zM121.508 144.432q0-.217.127-.362.13-.144.388-.144t.389.144q.135.145.135.362 0 .208-.135.348-.131.14-.389.14-.257 0-.388-.14-.127-.14-.127-.348zM127.373 142.66h.913v.683h-.913v1.527h-.84v-1.527h-2.996v-.493l2.946-4.558h.89v4.369zm-2.887 0h2.047v-3.225l-.1.18-1.947 3.046zM133.174 142.064q0 1.469-.501 2.183-.502.713-1.568.713-1.053 0-1.559-.695-.506-.7-.524-2.088v-1.116q0-1.45.502-2.155.501-.705 1.572-.705 1.062 0 1.563.682.502.678.515 2.097v1.084zm-.835-1.143q0-1.062-.299-1.545-.298-.488-.944-.488-.642 0-.935.483-.294.484-.303 1.487v1.337q0 1.067.307 1.577.312.506.94.506.62 0 .917-.479.303-.479.317-1.509v-1.369zM137.544 142.426h-1.735q.018.88.424 1.355.407.475 1.152.475.525 0 .985-.154l.09.723q-.541.135-1.084.135-1.12 0-1.766-.66-.642-.663-.669-1.874h-.804v-.56h.804v-.62h-.804v-.564h.804q.045-1.184.687-1.83.646-.65 1.744-.65.479 0 1.089.14l-.09.731q-.493-.158-.99-.158-.741 0-1.143.46-.398.457-.425 1.307h1.73v.564h-1.734v.62h1.735v.56z"/></g><path d="M178.266 139.54h9.821l-4.91 4.91z" style="isolation:auto;mix-blend-mode:normal;solid-color:#000;solid-opacity:1" color="#000" overflow="visible" fill="#fff" fill-rule="evenodd"/><path d="M49.73 117.66zm-.434.044a.166.166 0 010 0zm5.35.83zm.72.097zm4.134 1.064zm-10.367 4.602c.153.39.16.878.033 1.358.135-.48.128-.948-.033-1.358zm-4.44 1.607c-.194-.006-.345.012-.433.053-.194.091-.927.805-2.054 1.997-1.044 1.106-2.753 2.984-2.79 3.068-.014.03.21.31.498.621.566.613.986 1.192.98 1.35-.002.054-.023.097-.046.097-.023-.001-.268-.176-.545-.39-.484-.373-1.252-.9-1.416-.97-.055-.023-.203.102-.485.413-1.242 1.365-5.194 6.016-5.198 6.116-.001.03.128.217.288.414.382.47.633.815.703.964.116.245-.09.185-.525-.152-.542-.422-.836-.62-.922-.624-.072-.003-.918 1.03-2.082 2.541-1.704 2.211-2.879 3.988-3.297 4.984-.169.4-.238.83-.177 1.098.055.24.317.54.538.616.683.233 1.934-.265 4.396-1.75.464-.28.846-.541.847-.58.002-.065-.45-.82-.687-1.145-.122-.167-.126-.212-.022-.247.082-.028.668.43 1.028.803.265.275.297.268.994-.193 1.542-1.02 5.95-4.117 6.29-4.418.099-.088.094-.102-.182-.564-.156-.26-.392-.637-.525-.836-.133-.2-.241-.386-.24-.415.008-.204.584.21 1.261.903.326.333.387.376.475.326.18-.103 3.368-2.5 4.393-3.302 1.785-1.398 2.295-1.82 2.298-1.9.003-.08-.6-1.097-.875-1.477-.061-.084-.11-.184-.108-.224.007-.21.386.055 1.18.824l.45.435.362-.293c.664-.54 1.375-1.19 1.457-1.333.313-.554-.124-2.556-.815-3.733-.092-.157-.152-.306-.135-.332.012-.017.09-.077.194-.15l-.22.146-.656-.707-.656-.708.065-.08c-.046.052-.082.088-.093.088-.011 0-.176-.105-.366-.232a6.595 6.595 0 00-2.245-.972 4.705 4.705 0 00-.903-.13zm4.071.629a8.596 8.596 0 01-.303.418l.027-.034a4.1 4.1 0 00.276-.384zm3.025 1.259a2.635 2.635 0 00-1.04.175c.566-.206 1.118-.234 1.604-.07a2.087 2.087 0 00-.564-.105zm4.372 2.723l.001.002a2.781 2.781 0 00-.001-.002zm1.473.268zm-.78.293a.944.944 0 00.386.061c-.12.002-.26-.02-.386-.061zm.466.056l-.02.002a.7.7 0 00.02-.002zm-.031.003a.864.864 0 01-.046.002c.015 0 .031 0 .046-.002z" fill="#e58428"/><path d="M56.697 131.01c-.12-.066-.362-.289-.536-.495l-.317-.374-.22.203c-.244.227-.394.25-.678.101-.216-.112-.436-.406-.598-.798l-.123-.298-.152.1c-.408.268-.894-.057-.998-.666-.08-.47-.305-.747-.722-.886-.724-.243-1.568-.072-2.414.488l-.393.26-.656-.707-.656-.708.254-.313c.706-.869.947-1.848.645-2.62-.116-.298-.252-.408-.687-.557-.407-.139-.596-.255-.692-.424a.584.584 0 01.026-.653l.111-.144-.282-.143c-.545-.274-.843-.617-.83-.954.005-.13.06-.22.227-.375l.221-.205-.353-.344c-.399-.39-.558-.693-.545-1.039.012-.31.106-.418.389-.447.193-.02.229-.04.218-.127a10.924 10.924 0 01-.024-.565c-.015-.563.082-.831.395-1.093.193-.162.242-.178.514-.166.364.015.653.15 1.058.492.274.233.301.244.39.17.123-.104.575-.091.721.02.059.044.152.186.206.314l.1.234.256-.015c.231-.014.27 0 .41.151.145.157.28.582.306.962.006.085.061.159.155.208.198.104.273.334.32.975.097 1.353-.196 3.318-.673 4.516-.05.125-.081.238-.069.251.033.036.582-.67.904-1.162.759-1.164.929-1.816.715-2.745-.124-.54-.039-.922.253-1.135a.466.466 0 01.55-.015c.21.132.26.156.281.135.012-.01.057-.23.101-.487.086-.5.237-.914.4-1.094.344-.38.866-.472 1.16-.205.162.146.262.143.268-.01.006-.158.327-.714.537-.93.682-.7 1.59-.605 1.727.18.013.08.04.146.058.147.018.001.2-.076.406-.17.45-.207.912-.225 1.192-.047.416.264.463.839.122 1.454-.23.413-.238.443-.125.447a.983.983 0 01.283.116c.564.316.482 1.093-.173 1.641-.22.184-.821.47-.977.463-.143-.005-.152.107-.02.255.25.283.13.806-.261 1.126-.213.174-.61.293-1.15.344-.26.024-.482.053-.494.064-.022.02-.002.072.114.29.101.191.08.386-.057.548-.233.275-.62.331-1.15.167-.752-.234-1.252-.197-2.084.156-.604.255-1.997 1.096-1.932 1.166.01.011.16-.022.333-.074.896-.272 1.825-.392 3.022-.39.931.001 1.869.106 2.16.24a.55.55 0 01.24.23c.057.129.111.159.403.22.666.137.91.359.849.768l-.036.236.249.138c.136.076.273.188.303.25.083.171.051.566-.056.675-.087.09-.08.11.135.407.308.425.424.729.412 1.081-.014.408-.2.637-.643.791-.173.06-.327.068-.682.032a10.924 10.924 0 01-.561-.067c-.086-.017-.11.018-.143.208-.024.134-.082.257-.14.296-.15.101-.546.066-.797-.07zm.715-2.586c.007-.204-.935-.878-1.705-1.22-.224-.1-.631-.25-.904-.335-.45-.139-.592-.157-1.517-.196-.716-.03-1.051-.024-1.127.018-.09.05-.035.063.338.078 1.519.063 3.1.61 4.34 1.5.373.268.568.32.575.155zm-6.916-4.493c.077-1.104-.047-1.955-.426-2.912-.305-.771-.83-1.6-1.019-1.608-.157-.006-.13.154.094.53.527.886.984 2.145 1.113 3.065.036.253.067.79.069 1.191.004.942.095.798.17-.266zm3.106-.227c1.157-1.01 2.842-2.588 2.939-2.753.135-.232-.074-.137-.518.236-.776.65-3.266 3.027-3.676 3.509l-.172.202.161-.115c.089-.064.658-.549 1.266-1.079z" fill="#31ac40"/><path d="M25.025 159.858H63.41v34.85H25.025z" style="isolation:auto;mix-blend-mode:normal;solid-color:#000;solid-opacity:1" color="#000" overflow="visible" fill="#ececec" fill-rule="evenodd"/><g style="line-height:125%;-inkscape-font-specification:'roboto, Normal';text-align:start" font-weight="400" font-size="11.25" font-family="roboto" letter-spacing="0" word-spacing="0" fill="#727272"><path style="-inkscape-font-specification:roboto" d="M73.885 167.915q-.148 1.269-.939 1.96-.786.687-2.093.687-1.417 0-2.274-1.016-.851-1.016-.851-2.719v-.769q0-1.115.395-1.961.401-.846 1.132-1.296.73-.456 1.692-.456 1.274 0 2.043.714.769.708.895 1.966h-1.06q-.137-.956-.599-1.384-.456-.428-1.28-.428-1.01 0-1.587.747-.571.747-.571 2.125v.775q0 1.302.544 2.07.543.77 1.521.77.879 0 1.346-.396.472-.4.626-1.39h1.06zM74.89 167.426q0-.874.341-1.571.346-.698.956-1.077.615-.379 1.4-.379 1.215 0 1.962.84.752.841.752 2.236v.072q0 .868-.335 1.56-.33.686-.95 1.07-.615.385-1.417.385-1.209 0-1.961-.84-.747-.84-.747-2.225v-.071zm1.022.12q0 .99.456 1.588.462.599 1.23.599.775 0 1.231-.604.456-.61.456-1.703 0-.978-.467-1.582-.461-.61-1.23-.61-.753 0-1.214.599-.462.599-.462 1.714zM82.537 164.509l.033.747q.681-.857 1.78-.857 1.884 0 1.9 2.126v3.928h-1.016v-3.934q-.005-.642-.296-.95-.286-.308-.896-.308-.494 0-.868.264-.373.264-.582.692v4.236h-1.016v-5.944h.961zM90.178 169.733q.544 0 .95-.33.407-.33.45-.824h.962q-.027.511-.351.973-.325.461-.868.736-.539.274-1.143.274-1.214 0-1.934-.807-.714-.813-.714-2.22v-.17q0-.868.319-1.543.319-.676.912-1.05.599-.373 1.412-.373 1 0 1.659.599.664.599.708 1.554h-.961q-.044-.576-.44-.944-.39-.374-.966-.374-.775 0-1.203.56-.423.555-.423 1.61v.192q0 1.027.423 1.582.423.555 1.208.555zM93.414 167.426q0-.874.34-1.571.346-.698.956-1.077.615-.379 1.4-.379 1.215 0 1.962.84.752.841.752 2.236v.072q0 .868-.335 1.56-.33.686-.95 1.07-.615.385-1.417.385-1.209 0-1.961-.84-.747-.84-.747-2.225v-.071zm1.021.12q0 .99.456 1.588.462.599 1.23.599.775 0 1.231-.604.456-.61.456-1.703 0-.978-.467-1.582-.461-.61-1.23-.61-.753 0-1.214.599-.462.599-.462 1.714zM101.055 164.509l.027.66q.654-.77 1.763-.77 1.247 0 1.698.956.296-.429.769-.692.478-.264 1.126-.264 1.955 0 1.988 2.071v3.983h-1.016v-3.923q0-.637-.291-.95-.291-.319-.978-.319-.566 0-.94.341-.373.335-.433.906v3.945h-1.022v-3.895q0-1.297-1.269-1.297-1 0-1.368.852v4.34h-1.016v-5.944h.962zM114.996 167.547q0 1.362-.626 2.191-.626.824-1.68.824-1.127 0-1.742-.796l-.05.687h-.934v-8.438h1.017v3.148q.615-.764 1.697-.764t1.697.819q.621.818.621 2.24v.089zm-1.016-.116q0-1.038-.401-1.604-.401-.566-1.154-.566-1.005 0-1.444.934v2.571q.467.934 1.455.934.731 0 1.137-.566.407-.566.407-1.703zM119.144 165.42q-.231-.038-.5-.038-1 0-1.357.852v4.218h-1.016v-5.943h.988l.017.687q.5-.797 1.417-.797.297 0 .45.077v.945zM122.428 170.562q-1.208 0-1.966-.79-.758-.797-.758-2.126v-.187q0-.885.335-1.577.34-.697.945-1.087.61-.396 1.318-.396 1.16 0 1.802.764.643.763.643 2.186v.423h-4.027q.022.879.51 1.423.495.538 1.253.538.539 0 .912-.22.374-.22.654-.582l.62.483q-.746 1.148-2.24 1.148zm-.126-5.328q-.615 0-1.033.45-.417.445-.516 1.253h2.977v-.077q-.044-.775-.417-1.198-.374-.428-1.01-.428z"/></g><g style="line-height:125%;-inkscape-font-specification:'roboto, Normal';text-align:end" font-weight="300" font-size="11.25" font-family="roboto" letter-spacing="0" word-spacing="0" text-anchor="end" fill="#bfbfbf"><path style="-inkscape-font-specification:'roboto Light';text-align:end" d="M144.02 170.12h-.658v-7.207l-2.176.808v-.615l2.725-1.011h.11v8.025zM147.245 169.725q0-.192.121-.324.127-.138.346-.138.22 0 .346.138.127.132.127.324t-.127.318q-.126.121-.346.121-.22 0-.346-.12-.12-.127-.12-.32zM151.343 165.764h.681q.566 0 .99-.198.422-.203.642-.549.225-.351.225-.807 0-.77-.434-1.203-.434-.434-1.247-.434-.769 0-1.263.456-.49.45-.49 1.192h-.658q0-.621.313-1.132.313-.516.868-.796.555-.28 1.23-.28 1.088 0 1.714.593.626.593.626 1.626 0 .576-.368 1.065-.362.484-1 .725.748.21 1.132.72.385.505.385 1.209 0 1.027-.67 1.653-.67.626-1.791.626-.714 0-1.313-.285-.593-.286-.923-.797-.324-.516-.324-1.198h.66q0 .764.532 1.247.533.478 1.368.478.851 0 1.324-.434.477-.44.477-1.269 0-.802-.516-1.225-.51-.422-1.51-.422h-.66v-.56zM160.945 166.786q0 1.692-.62 2.57-.621.874-1.83.874-1.186 0-1.818-.857-.632-.862-.648-2.505v-1.433q0-1.687.626-2.555.626-.868 1.83-.868 1.186 0 1.812.84.626.836.648 2.467v1.467zm-.659-1.434q0-1.373-.45-2.076-.445-.703-1.352-.703-.89 0-1.34.686-.45.687-.461 2.027v1.571q0 1.368.461 2.093.467.725 1.351.725.88 0 1.33-.708.456-.709.461-2.077v-1.538zM166.098 167.028h-2.302v.093q0 1.214.594 1.879.598.664 1.686.664.643 0 1.203-.186l.055.587q-.637.165-1.264.165-1.367 0-2.153-.807-.78-.808-.796-2.247v-.148h-1.055v-.49h1.055v-.9h-1.055v-.494h1.055q0-1.484.785-2.308.786-.824 2.153-.824.544 0 1.275.17l-.055.6q-.615-.193-1.214-.193-1.088 0-1.68.654-.589.648-.589 1.9h2.302v.495h-2.302v.9h2.302v.49zM168.614 170.807h-.599l3.34-8.685h.593l-3.334 8.685zM173.997 166.863v3.257h-.676v-7.998h2.725q1.247 0 1.967.637.725.638.725 1.753 0 1.126-.698 1.741-.692.61-2.01.61h-2.033zm0-.571h2.05q.982 0 1.499-.467.516-.467.516-1.302 0-.83-.516-1.319-.511-.494-1.456-.505h-2.093v3.593zM182.22 169.675q.687 0 1.148-.384.467-.39.506-1.005h.632q-.028.543-.341.994-.313.445-.835.697-.516.253-1.11.253-1.17 0-1.856-.813-.681-.813-.681-2.186v-.198q0-.879.307-1.554.308-.676.879-1.044.577-.368 1.346-.368.978 0 1.61.582.637.582.68 1.533h-.631q-.044-.698-.506-1.126-.455-.429-1.153-.429-.89 0-1.384.643-.49.643-.49 1.802v.192q0 1.137.49 1.774.494.637 1.39.637zM188.126 170.23q-.759 0-1.374-.373-.61-.374-.95-1.039-.34-.67-.34-1.5v-.235q0-.857.329-1.544.335-.687.928-1.077.594-.395 1.286-.395 1.082 0 1.714.741.637.736.637 2.016v.368h-4.241v.127q0 1.01.577 1.686.582.67 1.461.67.527 0 .928-.192.407-.192.736-.615l.412.313q-.725 1.05-2.103 1.05zm-.121-5.603q-.742 0-1.253.544-.505.544-.615 1.461h3.565v-.071q-.027-.857-.489-1.396-.461-.538-1.208-.538z"/></g><path d="M71.005 178.293h119.92c.988 0 1.785.796 1.785 1.786v12.59c0 .99-.797 1.786-1.786 1.786H71.004c-.989 0-1.785-.796-1.785-1.785v-12.591c0-.99.796-1.786 1.786-1.786z" style="isolation:auto;mix-blend-mode:normal;solid-color:#000;solid-opacity:1" color="#000" overflow="visible" fill="#dcdcdc" fill-rule="evenodd"/><g style="line-height:125%;-inkscape-font-specification:'roboto, Normal';text-align:start" font-weight="400" font-size="9.253" font-family="roboto" letter-spacing="0" word-spacing="0" fill="#666"><path d="M80.867 186.796q0 .954-.303 1.645-.303.687-.85 1.075l1.175.922-.592.547-1.387-1.103q-.325.082-.687.082-.777 0-1.378-.38-.6-.384-.935-1.089-.33-.71-.339-1.64v-.474q0-.95.33-1.677.33-.727.93-1.111.606-.389 1.383-.389.796 0 1.396.384.606.384.931 1.107.326.719.326 1.681v.42zm-.868-.424q0-1.161-.465-1.79-.461-.632-1.32-.632-.817 0-1.292.628-.47.623-.483 1.735v.483q0 1.13.47 1.78.474.651 1.314.651.84 0 1.302-.61.46-.614.474-1.757v-.488zM85.091 189.39q-.488.574-1.432.574-.782 0-1.193-.452-.407-.456-.411-1.347v-3.18h.836v3.158q0 1.111.903 1.111.958 0 1.275-.714v-3.555h.835v4.888h-.795l-.018-.483zM90.188 189.873q-.073-.144-.118-.515-.583.606-1.391.606-.723 0-1.189-.407-.46-.411-.46-1.04 0-.763.578-1.183.583-.425 1.635-.425h.814v-.384q0-.438-.262-.695-.262-.263-.773-.263-.447 0-.75.226t-.303.547h-.84q0-.366.257-.705.262-.343.705-.542.448-.199.98-.199.846 0 1.325.425.478.42.497 1.161v2.25q0 .673.171 1.071v.072h-.876zm-1.387-.637q.393 0 .745-.203.353-.203.51-.529v-1.003h-.654q-1.537 0-1.537.9 0 .392.262.614.262.221.674.221zM93.003 184.985l.027.614q.56-.705 1.464-.705 1.55 0 1.563 1.749v3.23h-.836v-3.235q-.005-.528-.244-.781-.235-.253-.736-.253-.407 0-.714.216-.308.217-.48.57v3.483h-.835v-4.888h.79zM98.46 183.8v1.185h.913v.646h-.912v3.031q0 .294.122.443.122.145.415.145.145 0 .398-.054v.677q-.33.09-.642.09-.56 0-.845-.338-.284-.339-.284-.962v-3.032h-.89v-.646h.89V183.8h.836zM101.253 189.873h-.836v-4.888h.836v4.888zm-.904-6.185q0-.203.122-.344.127-.14.37-.14.245 0 .371.14.127.14.127.344 0 .203-.127.339-.126.135-.37.135t-.37-.135q-.123-.136-.123-.34zM103.72 183.8v1.185h.913v.646h-.913v3.031q0 .294.122.443.122.145.416.145.144 0 .397-.054v.677q-.33.09-.641.09-.56 0-.845-.338-.285-.339-.285-.962v-3.032h-.89v-.646h.89V183.8h.836zM107.633 189.964q-.994 0-1.618-.65-.623-.656-.623-1.75v-.153q0-.728.275-1.297.28-.574.777-.894.502-.326 1.085-.326.953 0 1.482.628.528.628.528 1.799v.347h-3.311q.018.723.42 1.17.406.443 1.03.443.443 0 .75-.18.307-.181.538-.48l.51.398q-.614.945-1.843.945zm-.104-4.383q-.506 0-.85.37-.343.366-.424 1.03h2.449v-.063q-.037-.637-.344-.985-.307-.352-.831-.352zm.406-2.648h1.012l-1.21 1.329h-.674l.872-1.329z"/></g><path d="M178.266 184.543h9.821l-4.91 4.91z" style="isolation:auto;mix-blend-mode:normal;solid-color:#000;solid-opacity:1" color="#000" overflow="visible" fill="#fff" fill-rule="evenodd"/><path d="M25.025 206.222H63.41v34.85H25.025z" style="isolation:auto;mix-blend-mode:normal;solid-color:#000;solid-opacity:1" color="#000" overflow="visible" fill="#ececec" fill-rule="evenodd"/><g style="line-height:125%;-inkscape-font-specification:'roboto, Normal';text-align:start" font-weight="400" font-size="11.25" font-family="roboto" letter-spacing="0" word-spacing="0" fill="#727272"><path style="-inkscape-font-specification:roboto" d="M70.956 217.09h3.79v.863h-4.85v-7.998h1.06v7.136zM79.47 217.953q-.087-.176-.142-.626-.709.736-1.692.736-.879 0-1.445-.494-.56-.5-.56-1.264 0-.928.703-1.439.709-.516 1.989-.516h.988v-.467q0-.533-.318-.846-.319-.319-.94-.319-.543 0-.911.275-.368.274-.368.664h-1.022q0-.444.313-.856.319-.418.857-.66.544-.241 1.192-.241 1.027 0 1.61.516.582.51.604 1.412v2.735q0 .819.208 1.302v.088h-1.065zm-1.686-.774q.478 0 .907-.248.428-.247.62-.642v-1.22h-.796q-1.868 0-1.868 1.093 0 .478.319.747.319.27.818.27zM83.036 217.953H82.02v-5.943h1.016v5.943zm-1.099-7.52q0-.247.149-.417.153-.17.45-.17.297 0 .45.17.154.17.154.417 0 .247-.154.412-.153.165-.45.165-.297 0-.45-.165-.149-.165-.149-.412zM86.035 210.57v1.44h1.11v.785h-1.11v3.686q0 .357.148.538.149.176.506.176.176 0 .483-.066v.824q-.4.11-.78.11-.681 0-1.027-.412-.346-.412-.346-1.17v-3.686h-1.082v-.785h1.082v-1.44h1.016zM91.995 217.365q-.593.698-1.741.698-.95 0-1.45-.55-.495-.554-.5-1.636v-3.867h1.016v3.84q0 1.35 1.099 1.35 1.164 0 1.549-.867v-4.323h1.016v5.943h-.967l-.022-.588zM96.988 218.063q-1.208 0-1.966-.791-.758-.797-.758-2.126v-.187q0-.884.335-1.576.34-.698.945-1.088.61-.395 1.318-.395 1.16 0 1.802.763.643.764.643 2.186v.423H95.28q.022.88.511 1.423.494.539 1.252.539.539 0 .912-.22.374-.22.654-.582l.62.483q-.746 1.148-2.24 1.148zm-.126-5.328q-.615 0-1.033.45-.417.445-.516 1.252h2.977v-.076q-.044-.775-.417-1.198-.374-.428-1.01-.428z"/></g><g style="line-height:125%;-inkscape-font-specification:'roboto, Normal';text-align:start" font-weight="300" font-size="11.25" font-family="roboto" letter-spacing="0" word-spacing="0" fill="#bfbfbf" text-anchor="end"><path style="-inkscape-font-specification:'roboto Light';text-align:end" d="M144.444 216.485h-.66v-7.208l-2.175.808v-.615l2.725-1.011h.11v8.026zM147.668 216.089q0-.192.121-.324.127-.137.346-.137.22 0 .346.137.127.132.127.324t-.127.319q-.126.12-.346.12-.22 0-.346-.12-.12-.127-.12-.319zM153.365 216.485h-.66v-7.208l-2.175.808v-.615l2.725-1.011h.11v8.026zM156.99 212.387l.39-3.9h4v.61h-3.434l-.28 2.702q.643-.44 1.505-.44 1.082 0 1.725.704.643.703.643 1.873 0 1.263-.627 1.96-.626.698-1.763.698-1.044 0-1.692-.582-.648-.582-.741-1.631h.631q.094.818.555 1.241.462.418 1.247.418.857 0 1.291-.544.44-.544.44-1.55 0-.878-.49-1.433-.488-.555-1.334-.555-.467 0-.813.121-.346.115-.73.456l-.523-.148zM166.52 213.392h-2.3v.093q0 1.214.593 1.879.598.665 1.686.665.643 0 1.203-.187l.055.588q-.637.164-1.264.164-1.367 0-2.153-.807-.78-.808-.796-2.247v-.148h-1.055v-.489h1.055v-.9h-1.055v-.495h1.055q0-1.483.785-2.307.786-.824 2.153-.824.544 0 1.275.17l-.055.599q-.615-.193-1.214-.193-1.088 0-1.681.654-.588.648-.588 1.9h2.302v.495h-2.302v.901h2.302v.489zM169.037 217.171h-.599l3.34-8.685h.593l-3.334 8.685zM174.42 213.227v3.257h-.676v-7.998h2.725q1.247 0 1.967.638.725.637.725 1.752 0 1.126-.698 1.741-.692.61-2.01.61h-2.033zm0-.571h2.049q.983 0 1.5-.467.516-.467.516-1.302 0-.83-.516-1.318-.511-.495-1.456-.506h-2.093v3.593zM182.643 216.04q.687 0 1.148-.385.467-.39.506-1.005h.631q-.027.544-.34.994-.313.445-.835.698-.516.252-1.11.252-1.17 0-1.856-.813-.681-.813-.681-2.186v-.198q0-.879.307-1.554.308-.676.879-1.044.577-.368 1.346-.368.978 0 1.61.582.637.583.68 1.533h-.631q-.044-.698-.506-1.126-.456-.429-1.153-.429-.89 0-1.384.643-.49.643-.49 1.802v.192q0 1.137.49 1.774.494.638 1.39.638zM188.548 216.594q-.758 0-1.373-.373-.61-.374-.95-1.038-.34-.67-.34-1.5v-.236q0-.857.329-1.544.335-.686.928-1.076.594-.396 1.286-.396 1.082 0 1.714.742.637.736.637 2.016v.368h-4.241v.126q0 1.01.577 1.686.582.67 1.461.67.527 0 .928-.192.407-.192.736-.615l.412.313q-.725 1.05-2.104 1.05zm-.12-5.603q-.742 0-1.253.544-.505.544-.615 1.461h3.565v-.071q-.027-.857-.489-1.395-.461-.539-1.208-.539z"/></g><path d="M71.005 224.657h119.92c.988 0 1.785.797 1.785 1.786v12.59c0 .99-.797 1.787-1.786 1.787H71.004c-.989 0-1.785-.797-1.785-1.786v-12.591c0-.99.796-1.786 1.786-1.786z" style="isolation:auto;mix-blend-mode:normal;solid-color:#000;solid-opacity:1" color="#000" overflow="visible" fill="#a5a5a5" fill-rule="evenodd"/><g style="line-height:125%;-inkscape-font-specification:'roboto, Normal';text-align:start" font-weight="400" font-size="9.253" font-family="roboto" letter-spacing="0" word-spacing="0" fill="#fff"><path d="M78.373 236.238h-.84v-5.571l-1.686.619v-.76l2.394-.899h.132v6.61zM87.341 233.847q0 1.116-.51 1.799-.51.682-1.383.682-.89 0-1.4-.565v2.354h-.836v-6.768h.763l.04.542q.511-.633 1.42-.633.88 0 1.391.665.515.664.515 1.848v.076zm-.836-.095q0-.826-.352-1.305-.352-.48-.967-.48-.759 0-1.139.674v2.336q.375.669 1.148.669.601 0 .953-.475.357-.479.357-1.419zM89.307 236.238h-.836v-4.89h.836v4.89zm-.904-6.186q0-.203.122-.343.127-.14.37-.14.245 0 .371.14.127.14.127.343t-.127.339q-.126.135-.37.135t-.371-.135q-.122-.136-.122-.339zM92.668 236.328q-.994 0-1.617-.65-.624-.656-.624-1.75v-.153q0-.727.276-1.297.28-.573.777-.894.501-.326 1.084-.326.954 0 1.482.628.529.629.529 1.799v.348h-3.312q.018.723.42 1.17.407.443 1.03.443.443 0 .75-.181.308-.18.538-.479l.51.398q-.614.944-1.843.944zm-.104-4.383q-.506 0-.85.37-.342.367-.424 1.03h2.45v-.062q-.037-.638-.344-.985-.308-.353-.832-.353zm.475-1.32h-.719l-1.165-1.327h1.007l.877 1.328zM97.498 235.646q.448 0 .782-.271.334-.272.37-.678h.791q-.022.42-.289.8-.267.38-.714.605-.443.226-.94.226-.998 0-1.59-.664-.588-.669-.588-1.826v-.14q0-.714.263-1.27.262-.555.75-.862.492-.308 1.16-.308.823 0 1.365.493.547.492.583 1.279h-.79q-.037-.475-.362-.778-.32-.307-.795-.307-.637 0-.99.461-.348.456-.348 1.324v.158q0 .845.348 1.301.348.457.994.457zM102.41 236.328q-.994 0-1.618-.65-.623-.656-.623-1.75v-.153q0-.727.275-1.297.28-.573.777-.894.502-.326 1.085-.326.953 0 1.482.628.528.629.528 1.799v.348h-3.312q.019.723.42 1.17.407.443 1.03.443.444 0 .75-.181.308-.18.538-.479l.511.398q-.614.944-1.843.944zm-.104-4.383q-.506 0-.85.37-.343.367-.424 1.03h2.448v-.062q-.036-.638-.343-.985-.307-.353-.831-.353zM111.704 233.847q0 1.116-.51 1.799-.511.682-1.383.682-.89 0-1.401-.565v2.354h-.836v-6.768h.764l.04.542q.51-.633 1.419-.633.881 0 1.392.665.515.664.515 1.848v.076zm-.836-.095q0-.826-.353-1.305-.352-.48-.967-.48-.759 0-1.138.674v2.336q.375.669 1.147.669.601 0 .954-.475.357-.479.357-1.419zM112.54 233.748q0-.718.28-1.292.284-.574.786-.886.506-.312 1.152-.312.999 0 1.613.692.619.691.619 1.839v.058q0 .714-.276 1.284-.27.564-.781.88-.506.317-1.166.317-.994 0-1.613-.691-.614-.692-.614-1.83v-.059zm.84.1q0 .813.375 1.305.38.493 1.012.493.637 0 1.012-.497.375-.502.375-1.401 0-.804-.384-1.301-.38-.502-1.012-.502-.619 0-.999.493-.38.492-.38 1.41zM121.056 235.754q-.488.574-1.432.574-.782 0-1.193-.452-.406-.456-.41-1.346v-3.181h.835v3.158q0 1.112.904 1.112.958 0 1.274-.714v-3.556h.836v4.889h-.795l-.019-.484zM125.498 232.099q-.19-.032-.411-.032-.823 0-1.116.7v3.47h-.836v-4.888h.813l.014.565q.41-.656 1.165-.656.244 0 .37.064v.777zM131.218 236.238h-.84v-5.571l-1.686.619v-.76l2.395-.899h.131v6.61zM133.78 235.8q0-.218.126-.362.131-.145.389-.145.257 0 .388.145.136.144.136.361 0 .208-.136.348-.13.14-.388.14t-.389-.14q-.126-.14-.126-.348zM138.863 236.238h-.84v-5.571l-1.686.619v-.76l2.395-.899h.13v6.61zM141.705 232.94l.334-3.281h3.37v.773h-2.66l-.2 1.793q.484-.284 1.099-.284.899 0 1.427.596.53.592.53 1.604 0 1.017-.552 1.604-.547.583-1.532.583-.872 0-1.423-.484-.551-.483-.628-1.337h.79q.077.565.403.854.325.285.858.285.583 0 .913-.398.334-.398.334-1.098 0-.66-.361-1.057-.357-.402-.954-.402-.546 0-.858.24l-.221.18-.67-.172zM149.815 233.793h-1.735q.018.881.425 1.356.406.474 1.152.474.524 0 .985-.154l.09.723q-.542.136-1.084.136-1.12 0-1.767-.66-.641-.664-.668-1.875h-.805v-.56h.805v-.62h-.805v-.564h.805q.045-1.184.686-1.83.647-.65 1.744-.65.48 0 1.09.14l-.091.732q-.493-.159-.99-.159-.74 0-1.143.461-.397.457-.424 1.306h1.73v.565h-1.735v.619h1.735v.56z"/></g><path d="M178.266 230.907h9.821l-4.91 4.911z" style="isolation:auto;mix-blend-mode:normal;solid-color:#000;solid-opacity:1" color="#000" overflow="visible" fill="#fff" fill-rule="evenodd"/><path d="M36.65 192.91c-2.837 1.612-5.914 1.489-7.964.188a4.366 4.366 0 01-.44-.308l-.13-.103a5.122 5.122 0 01-.384-.35 4.643 4.643 0 01-.399-.46 2.68 2.68 0 01-.193-.27 3.724 3.724 0 01-.252-.413 4.455 4.455 0 01-.282-.632 6.652 6.652 0 01-.332-1.407 6.67 6.67 0 01.193-2.563c.531-2.007 1.938-3.817 3.827-4.9a46.512 46.512 0 0017.28-17.103 8.315 8.315 0 013.682-3.334c.223-.103.453-.194.683-.274a7.116 7.116 0 012.005-.385c.176-.007.356-.009.535 0 .55.02 1.1.11 1.646.276.118.038.24.076.358.12.032.014.066.027.096.041a4.71 4.71 0 011.212.696 4.569 4.569 0 01.558.517c.084.09.164.181.241.278 1.651 2.034 1.936 5.442.137 8.536a59.363 59.363 0 01-22.076 21.85" fill="#479706"/><path d="M36.65 192.91c-2.837 1.612-5.914 1.489-7.964.188a4.366 4.366 0 01-.44-.308l-.13-.103a5.122 5.122 0 01-.384-.35 4.643 4.643 0 01-.399-.46 2.68 2.68 0 01-.193-.27 3.724 3.724 0 01-.252-.413 4.455 4.455 0 01-.282-.632 6.652 6.652 0 01-.332-1.407 6.67 6.67 0 01.193-2.563c.531-2.007 1.938-3.817 3.827-4.9a46.512 46.512 0 0017.28-17.103 8.315 8.315 0 013.682-3.334c.223-.103.453-.194.683-.274a7.116 7.116 0 012.005-.385c.176-.007.356-.009.535 0 .55.02 1.1.11 1.646.276.118.038.24.076.358.12.032.014.066.027.096.041a4.71 4.71 0 011.212.696 4.569 4.569 0 01.558.517c.084.09.164.181.241.278 1.651 2.034 1.936 5.442.137 8.536a59.363 59.363 0 01-22.076 21.85" fill="#479706"/><path d="M35.114 191.357c-2.032 1.265-4.111 1.666-5.778 1.367a5.02 5.02 0 01-.978-.277 4.005 4.005 0 01-1.025-.57 2.766 2.766 0 01-.273-.225 2.85 2.85 0 01-.342-.364 3.553 3.553 0 01-.675-1.296c-.012-.04-.022-.081-.03-.122a4.155 4.155 0 01-.104-.495 5.785 5.785 0 01.022-1.875c.032-.22.082-.443.142-.66.557-2.07 2.082-4.06 4.068-5.303a54.916 54.916 0 0017.28-17.102c.993-1.548 2.44-2.806 4.018-3.534.221-.105.45-.199.68-.28a6.858 6.858 0 011.998-.407c.176-.01.35-.01.526 0 .433.018.86.085 1.276.209.116.033.231.074.34.121a3.558 3.558 0 011.532 1.185c.056.072.104.146.155.222a3.99 3.99 0 01.405.81c.684 1.793.39 4.31-1.16 6.747a70.157 70.157 0 01-22.077 21.85" fill="#4da306"/><path d="M35.114 191.357c-2.032 1.265-4.111 1.666-5.778 1.367a5.02 5.02 0 01-.978-.277 4.005 4.005 0 01-1.025-.57 2.766 2.766 0 01-.273-.225 2.85 2.85 0 01-.342-.364 3.553 3.553 0 01-.675-1.296c-.012-.04-.022-.081-.03-.122a4.155 4.155 0 01-.104-.495 5.785 5.785 0 01.022-1.875c.032-.22.082-.443.142-.66.557-2.07 2.082-4.06 4.068-5.303a54.916 54.916 0 0017.28-17.102c.993-1.548 2.44-2.806 4.018-3.534.221-.105.45-.199.68-.28a6.858 6.858 0 011.998-.407c.176-.01.35-.01.526 0 .433.018.86.085 1.276.209.116.033.231.074.34.121a3.558 3.558 0 011.532 1.185c.056.072.104.146.155.222a3.99 3.99 0 01.405.81c.684 1.793.39 4.31-1.16 6.747a70.157 70.157 0 01-22.077 21.85" fill="#4da306"/><path d="M39.901 185.436a88.052 88.052 0 01-10.565 7.288l-.65.374a4.367 4.367 0 01-.44-.308c.129-.072.268-.151.41-.236 2.313-1.325 6.442-3.876 10.95-7.504 5.69-4.578 13.048-11.765 17.396-20.954.332-.703.649-1.42.944-2.145.01-.023.019-.047.03-.07.13.113.254.235.373.365-.036.085-.07.17-.106.253-.09.216-.18.427-.274.64-4.304 9.833-12.099 17.495-18.068 22.297" fill="#50a806"/><path d="M38.218 184.023a88.695 88.695 0 01-5.407 4.016 84.194 84.194 0 01-5.671 3.568c-.028.013-.055.03-.08.045a2.85 2.85 0 01-.342-.364l.17-.094a86.093 86.093 0 008.052-5.262 87.062 87.062 0 002.982-2.292c4.045-3.256 8.939-7.833 12.99-13.516 2.013-2.82 3.821-5.913 5.213-9.252.049-.11.091-.217.134-.328.154.059.3.128.438.211a7.469 7.469 0 01-.118.278c-1.077 2.593-2.402 5.038-3.882 7.324-4.316 6.682-9.928 12.004-14.48 15.666" fill="#50a806"/><path d="M36.531 182.613a87.98 87.98 0 01-10.172 7.057l-.347.2a4.155 4.155 0 01-.103-.495c.117-.073.24-.142.365-.22a86.982 86.982 0 009.963-6.926c5.827-4.69 13.404-12.117 17.707-21.633.06-.124.116-.255.173-.382.176-.01.35-.01.526 0-.052.129-.109.256-.164.382-4.328 9.699-12.034 17.26-17.948 22.017" fill="#50a806"/><path d="M34.846 181.202a88.613 88.613 0 01-8.526 6.056c-.131.083-.264.162-.389.242.032-.22.082-.443.142-.66l.394-.248a87.697 87.697 0 008.085-5.775c5.395-4.342 12.298-11.037 16.704-19.562.063-.118.123-.236.183-.354.221-.105.45-.199.68-.28a8.637 8.637 0 01-.18.36c-4.433 8.84-11.55 15.76-17.093 20.22" fill="#50a806"/><path d="M36.702 216.03c-1.972 1.701-4.494 4.917-5.946 5.917-.449.309-.797.406-.993.179a1.163 1.163 0 01-.145-.218c-.134-.259-.248-.64-.31-1.121-.278-2.058.347-5.89 4.006-9.264 2.412-2.224 5.49-2.23 6.456-1.367.038.032.073.067.105.102.83.963-.592 3.548-3.173 5.773M48.99 210.77c-.83.961.592 3.546 3.174 5.772 2.583 2.226 6.109 7.055 6.938 6.093.829-.962 1.25-6.176-3.55-10.601-2.508-2.311-5.733-2.227-6.562-1.265" fill="#92d125"/><path d="M58.818 224.183c0 7.728-5.972 14.065-13.55 14.646a15.325 15.325 0 01-2.004.017h-.002c-7.708-.45-13.819-6.842-13.819-14.663a14.774 14.774 0 01.324-3.078 14.704 14.704 0 0110.004-10.95 14.653 14.653 0 014.359-.658c1.85 0 3.623.342 5.255.968 4.638 1.776 8.144 5.838 9.144 10.804a15.03 15.03 0 01.289 2.914" fill="#69bc1b"/><path d="M45.245 228.595c0 5.661-.5 10.25-1.115 10.25-.616 0-1.115-4.589-1.115-10.25 0-5.66.499-10.249 1.115-10.249s1.115 4.589 1.115 10.25" fill="#b0e874"/><path d="M41.142 225.868c-1.679-1.678-2.891-3.187-2.709-3.37.183-.183 1.692 1.03 3.37 2.709 1.68 1.679 2.892 3.187 2.71 3.37-.183.183-1.692-1.03-3.371-2.709M40.742 231.984c-1.68-1.679-2.892-3.188-2.71-3.37.183-.183 1.692 1.03 3.371 2.709 1.679 1.678 2.891 3.187 2.709 3.37-.183.183-1.692-1.03-3.37-2.709" fill="#b0e874"/><path d="M47.283 225.868c1.68-1.678 2.892-3.187 2.71-3.37-.183-.183-1.692 1.03-3.371 2.709s-2.892 3.187-2.709 3.37c.183.183 1.692-1.03 3.37-2.709M47.684 231.984c1.679-1.679 2.892-3.188 2.709-3.37-.183-.183-1.692 1.03-3.37 2.709-1.68 1.678-2.892 3.187-2.71 3.37.183.183 1.692-1.03 3.371-2.709" fill="#b0e874"/><path d="M43.262 238.846c-.227.02-20.223 1.715-17.65-15.449.498-3.322 1.89-3.755 3.695-2.61.15.095.304.2.46.318.318.24.65.523.989.842 4.68 4.402 10.966 15.757 12.506 16.899M45.245 238.845s20.238 1.814 17.65-15.447c-1.8-12.01-15.297 13.714-17.65 15.447" fill="#92d125"/><path d="M25.32 249.23h38.385v34.85H25.319z" style="isolation:auto;mix-blend-mode:normal;solid-color:#000;solid-opacity:1" color="#000" overflow="visible" fill="#ececec" fill-rule="evenodd"/><g style="line-height:125%;-inkscape-font-specification:'roboto, Normal';text-align:start" font-weight="400" font-size="11.25" font-family="roboto" letter-spacing="0" word-spacing="0" fill="#727272"><path style="-inkscape-font-specification:roboto" d="M74.449 256.084q0 1.176-.395 2.055-.396.873-1.121 1.334-.725.462-1.692.462-.945 0-1.675-.462-.731-.466-1.137-1.323-.401-.863-.412-1.994v-.577q0-1.154.4-2.038.402-.885 1.132-1.351.736-.473 1.681-.473.961 0 1.692.467.736.461 1.132 1.346.395.879.395 2.049v.505zm-1.05-.516q0-1.423-.57-2.181-.572-.764-1.599-.764-1 0-1.576.764-.572.758-.588 2.11v.587q0 1.379.577 2.17.582.785 1.598.785 1.022 0 1.582-.741.56-.747.577-2.137v-.593zM76.976 259.825H75.96v-5.944h1.016v5.944zm-1.099-7.52q0-.247.149-.418.153-.17.45-.17.297 0 .45.17.154.17.154.418 0 .247-.154.412-.153.165-.45.165-.297 0-.45-.165-.149-.165-.149-.412zM78.355 256.804q0-1.39.642-2.208.643-.824 1.703-.824 1.088 0 1.698.769l.049-.66h.928v5.801q0 1.154-.686 1.818-.681.665-1.835.665-.643 0-1.258-.275-.615-.274-.94-.752l.528-.61q.654.808 1.599.808.741 0 1.153-.418.418-.417.418-1.175v-.511q-.61.703-1.665.703-1.043 0-1.692-.84-.642-.841-.642-2.291zm1.021.115q0 1.005.412 1.582.412.571 1.154.571.961 0 1.412-.873v-2.714q-.467-.851-1.401-.851-.742 0-1.16.577-.417.577-.417 1.708zM85.864 253.881l.033.747q.681-.856 1.78-.856 1.884 0 1.9 2.125v3.928h-1.016v-3.933q-.005-.643-.297-.95-.285-.308-.895-.308-.494 0-.868.264-.373.263-.582.692v4.235h-1.016v-5.944h.96zM90.852 256.798q0-.873.34-1.57.346-.698.956-1.077.615-.38 1.4-.38 1.215 0 1.962.841.752.84.752 2.236v.071q0 .868-.335 1.56-.33.687-.95 1.071-.615.385-1.417.385-1.209 0-1.961-.84-.747-.841-.747-2.225v-.072zm1.021.121q0 .989.456 1.588.462.598 1.23.598.775 0 1.231-.604.456-.61.456-1.703 0-.978-.467-1.582-.461-.61-1.23-.61-.753 0-1.214.6-.462.598-.462 1.713zM98.498 253.881l.033.747q.681-.856 1.78-.856 1.884 0 1.9 2.125v3.928h-1.016v-3.933q-.006-.643-.296-.95-.286-.308-.896-.308-.494 0-.868.264-.373.263-.582.692v4.235h-1.016v-5.944h.961zM107.216 258.248q0-.412-.313-.637-.308-.23-1.083-.395-.769-.165-1.224-.396-.45-.23-.67-.55-.215-.318-.215-.757 0-.73.615-1.236.621-.505 1.582-.505 1.011 0 1.637.521.632.522.632 1.335h-1.022q0-.417-.357-.72-.351-.301-.89-.301-.554 0-.868.241-.313.242-.313.632 0 .368.291.555.292.186 1.05.357.763.17 1.236.406.472.236.697.572.231.33.231.807 0 .797-.637 1.28-.637.478-1.654.478-.714 0-1.263-.253-.55-.253-.863-.703-.307-.456-.307-.983h1.016q.028.51.407.813.384.296 1.01.296.577 0 .923-.23.352-.237.352-.627zM115.22 254.793q-.231-.038-.5-.038-1 0-1.357.851v4.219h-1.017v-5.944h.99l.016.687q.5-.797 1.417-.797.297 0 .45.077v.945zM115.769 256.798q0-.873.34-1.57.346-.698.956-1.077.615-.38 1.4-.38 1.215 0 1.962.841.752.84.752 2.236v.071q0 .868-.335 1.56-.33.687-.95 1.071-.615.385-1.417.385-1.209 0-1.961-.84-.747-.841-.747-2.225v-.072zm1.021.121q0 .989.456 1.588.462.598 1.23.598.775 0 1.231-.604.456-.61.456-1.703 0-.978-.467-1.582-.461-.61-1.23-.61-.753 0-1.214.6-.462.598-.462 1.713zM126.123 259.237q-.593.698-1.741.698-.95 0-1.45-.55-.495-.554-.5-1.636v-3.868h1.016v3.84q0 1.351 1.099 1.351 1.164 0 1.549-.867v-4.324h1.016v5.944h-.967l-.022-.588zM128.408 256.804q0-1.39.643-2.208.643-.824 1.703-.824 1.088 0 1.697.769l.05-.66h.928v5.801q0 1.154-.687 1.818-.68.665-1.834.665-.643 0-1.258-.275-.615-.274-.94-.752l.528-.61q.654.808 1.598.808.742 0 1.154-.418.417-.417.417-1.175v-.511q-.61.703-1.664.703-1.044 0-1.692-.84-.643-.841-.643-2.291zm1.022.115q0 1.005.412 1.582.412.571 1.154.571.961 0 1.411-.873v-2.714q-.467-.851-1.4-.851-.742 0-1.16.577-.417.577-.417 1.708zM137.423 259.935q-1.209 0-1.967-.791-.758-.797-.758-2.126v-.187q0-.884.335-1.576.34-.698.945-1.088.61-.395 1.318-.395 1.16 0 1.802.763.643.764.643 2.186v.423h-4.027q.022.88.511 1.423.495.538 1.253.538.538 0 .911-.22.374-.22.654-.582l.62.484q-.746 1.148-2.24 1.148zm-.127-5.328q-.615 0-1.032.45-.418.445-.517 1.252h2.978v-.077q-.044-.774-.418-1.197-.373-.428-1.01-.428zM144.372 258.248q0-.412-.314-.637-.307-.23-1.082-.395-.769-.165-1.225-.396-.45-.23-.67-.55-.214-.318-.214-.757 0-.73.615-1.236.62-.505 1.582-.505 1.01 0 1.637.521.632.522.632 1.335h-1.022q0-.417-.357-.72-.352-.301-.89-.301-.555 0-.868.241-.313.242-.313.632 0 .368.291.555.291.186 1.05.357.763.17 1.235.406.473.236.698.572.23.33.23.807 0 .797-.636 1.28-.638.478-1.654.478-.714 0-1.263-.253-.55-.253-.863-.703-.307-.456-.307-.983h1.016q.027.51.406.813.385.296 1.011.296.577 0 .923-.23.352-.237.352-.627z"/></g><g style="line-height:125%;-inkscape-font-specification:'roboto, Normal';text-align:end" font-weight="300" font-size="11.25" font-family="roboto" letter-spacing="0" word-spacing="0" text-anchor="end" fill="#bfbfbf"><path style="-inkscape-font-specification:'roboto Light';text-align:end" d="M163.152 255.137h.68q.566 0 .99-.198.422-.203.642-.55.225-.35.225-.807 0-.769-.434-1.203-.434-.434-1.247-.434-.769 0-1.263.456-.489.45-.489 1.192h-.66q0-.62.314-1.131.313-.517.868-.797.555-.28 1.23-.28 1.088 0 1.714.593.627.593.627 1.626 0 .577-.369 1.066-.362.483-1 .725.748.209 1.132.72.385.505.385 1.208 0 1.027-.67 1.653-.67.627-1.791.627-.714 0-1.313-.286-.593-.286-.923-.796-.324-.517-.324-1.198h.66q0 .764.532 1.247.533.478 1.368.478.851 0 1.324-.434.478-.44.478-1.269 0-.802-.517-1.225-.51-.423-1.51-.423h-.66v-.56zM171.666 256.4h-2.302v.094q0 1.214.594 1.878.598.665 1.686.665.643 0 1.203-.187l.055.588q-.637.165-1.264.165-1.367 0-2.153-.808-.78-.807-.796-2.247v-.148h-1.055v-.489h1.055v-.9h-1.055v-.495h1.055q0-1.483.785-2.307.786-.824 2.153-.824.544 0 1.275.17l-.055.599q-.615-.192-1.214-.192-1.088 0-1.681.653-.588.649-.588 1.901h2.302v.494h-2.302v.901h2.302v.49zM174.182 260.18h-.599l3.34-8.685h.593l-3.334 8.684zM180.691 255.521l-1.126 1.11v2.862h-.676v-7.998h.676v4.312l4.098-4.312h.851l-3.35 3.56 3.609 4.438h-.824l-3.258-3.972zM185.437 256.466q0-1.395.616-2.208.62-.819 1.68-.819 1.214 0 1.846.967l.033-.857h.615v5.823q0 1.148-.642 1.818-.643.67-1.742.67-.62 0-1.186-.28-.56-.274-.885-.736l.368-.395q.698.857 1.66.857.823 0 1.285-.49.461-.483.478-1.345v-.747q-.632.879-1.84.879-1.033 0-1.66-.824-.626-.824-.626-2.225v-.088zm.665.115q0 1.137.456 1.797.456.653 1.285.653 1.214 0 1.72-1.087v-2.763q-.231-.572-.665-.868-.434-.302-1.044-.302-.83 0-1.29.653-.462.649-.462 1.917z"/></g><path d="M71.299 267.665h119.92c.989 0 1.785.797 1.785 1.786v12.591c0 .99-.796 1.786-1.785 1.786H71.299c-.99 0-1.786-.797-1.786-1.786v-12.59c0-.99.797-1.787 1.786-1.787z" style="isolation:auto;mix-blend-mode:normal;solid-color:#000;solid-opacity:1" color="#000" overflow="visible" fill="#dcdcdc" fill-rule="evenodd"/><g style="line-height:125%;-inkscape-font-specification:'roboto, Normal';text-align:start" font-weight="400" font-size="9.253" font-family="roboto" letter-spacing="0" word-spacing="0" fill="#666"><path d="M81.161 276.169q0 .953-.303 1.645-.302.686-.85 1.075l1.176.922-.592.546-1.387-1.102q-.326.081-.687.081-.777 0-1.378-.38-.601-.383-.935-1.088-.33-.71-.34-1.64v-.475q0-.949.33-1.676t.931-1.112q.606-.388 1.383-.388.795 0 1.396.384.605.384.93 1.107.326.718.326 1.68v.42zm-.867-.425q0-1.161-.466-1.789-.46-.633-1.32-.633-.817 0-1.291.628-.47.624-.484 1.735v.484q0 1.13.47 1.78.475.65 1.315.65t1.301-.61q.461-.614.475-1.757v-.488zM85.386 278.762q-.488.574-1.433.574-.781 0-1.192-.452-.407-.456-.412-1.346v-3.18h.836v3.157q0 1.112.904 1.112.958 0 1.274-.714v-3.556h.836v4.889h-.795l-.018-.484zM90.482 279.246q-.072-.145-.117-.515-.583.605-1.392.605-.723 0-1.188-.406-.461-.412-.461-1.04 0-.763.578-1.183.583-.425 1.636-.425h.813v-.384q0-.438-.262-.696-.262-.262-.772-.262-.448 0-.75.226-.303.226-.303.547h-.84q0-.366.257-.705.262-.344.705-.542.447-.2.98-.2.845 0 1.324.425.479.42.497 1.162v2.25q0 .673.172 1.07v.073h-.877zm-1.387-.637q.393 0 .746-.204.352-.203.51-.528v-1.003h-.655q-1.536 0-1.536.899 0 .393.262.614.262.222.673.222zM93.297 274.357l.027.615q.56-.705 1.464-.705 1.55 0 1.563 1.748v3.23h-.835v-3.234q-.005-.529-.244-.782-.235-.253-.737-.253-.407 0-.714.217t-.479.57v3.483h-.836v-4.889h.791zM98.755 273.173v1.184h.913v.646h-.913v3.032q0 .294.122.443.122.144.416.144.144 0 .397-.054v.678q-.33.09-.641.09-.56 0-.845-.339-.285-.338-.285-.962v-3.032h-.89v-.646h.89v-1.184h.836zM101.547 279.246h-.835v-4.889h.835v4.889zm-.903-6.186q0-.203.122-.343.126-.14.37-.14t.37.14q.127.14.127.343 0 .204-.126.34-.127.135-.37.135-.245 0-.371-.136-.122-.135-.122-.339zM104.014 273.173v1.184h.913v.646h-.913v3.032q0 .294.122.443.122.144.416.144.145 0 .398-.054v.678q-.33.09-.642.09-.56 0-.845-.339-.284-.338-.284-.962v-3.032h-.89v-.646h.89v-1.184h.835zM107.927 279.336q-.994 0-1.617-.65-.624-.656-.624-1.749v-.154q0-.727.276-1.296.28-.574.777-.895.501-.325 1.084-.325.954 0 1.482.628.529.628.529 1.798v.348h-3.312q.018.723.42 1.17.407.443 1.03.443.443 0 .75-.18.308-.181.538-.48l.51.398q-.614.944-1.843.944zm-.104-4.382q-.506 0-.85.37-.343.366-.424 1.03h2.449v-.063q-.036-.637-.343-.985-.308-.353-.832-.353zm.407-2.648h1.012l-1.21 1.328h-.674l.872-1.328z"/></g><path d="M178.56 273.916h9.822l-4.91 4.91z" style="isolation:auto;mix-blend-mode:normal;solid-color:#000;solid-opacity:1" color="#000" overflow="visible" fill="#fff" fill-rule="evenodd"/><g><path d="M44.411 256.811a56.43 56.43 0 01-.077 3.122c-.017.3-.034.605-.055.922-.01.17-.023.342-.036.516H43.22s-.027-.14-.069-.394a46.336 46.336 0 01-.476-3.837c-.207-2.582-.203-5.713.726-7.446.023-.049.05-.095.077-.14 0 0 .91 1.886.933 7.257" fill="#3d8205"/><path d="M43.554 261.178l-.143-.071-.01-.004-.25-.126-1.593-.797s.073-.394.05-1.105c-.044-1.331-.432-3.767-2.3-6.786 0 0 1.722-1.163 3.367 4.851a42.102 42.102 0 01.801 3.608l.013.065c.02.12.044.241.065.365" fill="#479706"/><path d="M45.396 260.334s-.525-3.43 2.66-8.11c0 0-2.833-1.463-4.675 9.05l2.015-.94z" fill="#479706"/><path d="M52.174 271.346c0 .1-.002.201-.006.302-.002.134-.01.27-.021.402a8.16 8.16 0 01-.143 1.059 9.197 9.197 0 01-.937 2.614 10.117 10.117 0 01-2.851 3.272 9.88 9.88 0 01-2.132 1.231 8.45 8.45 0 01-.675.25 6.909 6.909 0 01-1.386.304l-.113.01-.17.013a4.1 4.1 0 01-.23.006h-.11c-.033-.002-.066-.002-.1-.002l-.063-.004c-3.384-.166-8.457-3.761-8.457-9.457a8.67 8.67 0 012.535-6.137c1.096-1.1 2.543-1.597 3.553-2.842.767-.946.486-2.174.486-2.174s-.14-.992.177-1.105a.232.232 0 01.077-.013c.357 0 1 .686 1.43 1.197.157.187.285.348.363.449l.065.086.012.017s.002-.005.01-.01c.061-.07.433-.479.846-.881.385-.375.809-.744 1.056-.83a.276.276 0 01.111-.015c.332.04.099 1.105.099 1.105s-.281 1.228.486 2.174c1.01 1.245 2.457 1.742 3.554 2.842a8.685 8.685 0 012.507 5.447c.008.113.017.226.021.342.004.115.006.23.006.348" fill="#873052"/><path d="M43.477 280.81s-.337-.145-.892-.472a14.452 14.452 0 01-2.158-1.567c-.83-.731-1.722-1.697-2.43-2.905a9.71 9.71 0 01-.88-1.967 9.454 9.454 0 01-.418-2.19l-.017-.562c-.003-.187.012-.373.017-.56l.005-.139c.002-.06.009-.095.013-.144l.029-.27c.026-.183.059-.376.098-.557a7.328 7.328 0 01.79-2.017c.692-1.225 1.599-2.174 2.399-2.93.803-.758 1.527-1.322 1.982-1.77.228-.222.396-.41.476-.56.083-.15.068-.249.073-.247-.005-.002.019.096-.053.257-.07.16-.22.37-.437.607-.434.477-1.11 1.1-1.872 1.884-.38.394-.777.832-1.166 1.317-.39.486-.758 1.03-1.08 1.62a7.343 7.343 0 00-.717 1.925 7.863 7.863 0 00-.087.512l-.027.271c-.003.042-.011.099-.01.128l-.005.134c-.003.179-.016.358-.012.537l.02.536c.085 1.433.541 2.826 1.2 4.002.656 1.182 1.49 2.153 2.271 2.912a15.852 15.852 0 002.04 1.675c.527.362.848.54.848.54" fill="#b54774"/><path d="M44.123 280.81s-.307-.162-.796-.522a12.54 12.54 0 01-1.864-1.689 11.66 11.66 0 01-1.961-2.983c-.27-.6-.5-1.243-.66-1.917a11.49 11.49 0 01-.299-2.074l-.011-.526.015-.526.004-.13c.002-.056.007-.09.01-.135l.023-.256c.017-.172.047-.351.072-.524a8.5 8.5 0 01.606-1.945c.543-1.207 1.288-2.194 1.969-2.978.68-.79 1.307-1.384 1.692-1.846.193-.23.333-.42.396-.568a.573.573 0 00.051-.175l.006-.063v.063a.578.578 0 01-.035.183c-.052.155-.172.367-.354.61-.36.49-.935 1.138-1.57 1.948-.632.811-1.32 1.802-1.817 2.973a8.74 8.74 0 00-.545 1.866c-.022.164-.048.32-.064.49l-.02.256c-.003.04-.01.092-.01.122l-.002.127-.011.507.014.508c.058 1.355.378 2.691.877 3.862a12.53 12.53 0 001.807 2.976c.65.795 1.271 1.393 1.731 1.78.459.392.746.586.746.586" fill="#b54774"/><path d="M44.052 280.81s-.057-.053-.161-.16a7.514 7.514 0 01-.424-.482c-.084-.11-.177-.232-.28-.364l-.309-.444-.328-.52-.33-.6-.326-.668-.304-.737-.276-.795c-.09-.273-.157-.56-.238-.847-.084-.287-.128-.588-.196-.888-.07-.3-.105-.61-.147-.92l-.062-.468c-.015-.157-.023-.315-.034-.474l-.033-.475a4.893 4.893 0 01-.019-.477l.005-.954c.005-.322.03-.627.06-.948a12.03 12.03 0 01.336-1.817c.302-1.16.758-2.186 1.2-3.026.441-.842.875-1.502 1.126-1.99.126-.242.215-.439.252-.581.017-.071.03-.126.03-.164l.005-.058.001.058c.003.038-.004.095-.014.169-.024.147-.089.358-.2.612-.222.508-.59 1.207-.983 2.06-.196.428-.392.897-.577 1.4a14.566 14.566 0 00-.482 1.61c-.135.566-.231 1.16-.291 1.766-.026.296-.05.615-.051.92l.002.934a4.68 4.68 0 00.015.466l.028.465c.01.155.016.31.03.463l.058.458c.065.61.176 1.203.299 1.773.072.283.134.564.21.834.081.27.162.532.24.788l.268.734.283.673.291.606.285.537.272.46a12.671 12.671 0 00.624.897c.093.115.145.174.145.174" fill="#b54774"/><path d="M43.783 280.958l-.065-.203c-.037-.134-.105-.328-.164-.582-.057-.253-.145-.558-.212-.914s-.167-.755-.226-1.197c-.063-.442-.152-.918-.203-1.427-.052-.509-.117-1.045-.163-1.601l-.1-1.718c-.03-.585-.022-1.18-.034-1.775l-.005-.891c.005-.304.019-.592.027-.886.01-.291.02-.58.034-.867l.07-.85c.035-.56.108-1.095.172-1.602.057-.509.148-.984.216-1.425.151-.879.316-1.603.402-2.113l.062-.341.03-.253.025-.213-.002.213-.003.258c-.009.101-.02.217-.03.346-.023.26-.062.573-.104.932l-.142 1.205-.071.689c-.027.238-.054.483-.072.736-.042.507-.09 1.04-.115 1.591l-.048.84-.02.866c-.005.29-.017.59-.019.877l.012.886c.008.59-.006 1.182.02 1.763l.063 1.708.105 1.594c.012.254.043.499.065.737l.066.688c.018.222.045.433.071.633l.07.57c.039.36.102.667.138.924.042.256.083.455.106.593l.044.209M43.873 280.81s.321-.178.848-.54c.529-.36 1.255-.918 2.04-1.675.78-.759 1.615-1.73 2.272-2.912.658-1.176 1.115-2.57 1.2-4.002l.019-.536c.004-.18-.009-.358-.012-.537l-.004-.134c0-.03-.008-.086-.01-.128l-.028-.271a7.863 7.863 0 00-.087-.512 7.343 7.343 0 00-.718-1.925c-.321-.59-.689-1.134-1.078-1.62-.39-.485-.787-.923-1.166-1.317-.763-.784-1.438-1.407-1.873-1.884-.217-.237-.368-.447-.437-.607-.072-.161-.048-.259-.053-.257.005-.002-.01.097.073.247.08.15.248.338.476.56.455.448 1.179 1.012 1.983 1.77.8.756 1.706 1.705 2.399 2.93.347.608.627 1.29.79 2.017.038.18.071.374.097.556l.029.271c.004.05.011.083.013.144l.005.14c.005.186.02.372.017.56l-.017.56a9.454 9.454 0 01-.417 2.191 9.71 9.71 0 01-.881 1.967c-.707 1.208-1.6 2.174-2.43 2.905a14.452 14.452 0 01-2.158 1.567c-.555.327-.892.472-.892.472" fill="#b54774"/><path d="M43.227 280.81s.287-.194.746-.585c.46-.388 1.082-.986 1.732-1.781a12.53 12.53 0 001.806-2.976c.499-1.17.819-2.507.877-3.862l.015-.508-.012-.507-.003-.127c0-.03-.006-.082-.008-.122l-.02-.256c-.017-.17-.043-.326-.065-.49a8.74 8.74 0 00-.545-1.866c-.496-1.171-1.185-2.162-1.816-2.973-.636-.81-1.21-1.458-1.571-1.947-.182-.244-.301-.456-.353-.611a.578.578 0 01-.036-.183v-.063l.006.063c0 .041.022.1.051.175.063.147.203.339.396.568.385.462 1.013 1.056 1.692 1.846.681.784 1.426 1.771 1.97 2.978a8.5 8.5 0 01.605 1.945c.025.173.055.352.072.524l.023.256c.003.045.008.079.01.134l.004.131.015.526-.011.526a11.49 11.49 0 01-.299 2.074c-.16.674-.39 1.317-.66 1.917a11.66 11.66 0 01-1.961 2.983 12.54 12.54 0 01-1.864 1.69c-.49.359-.796.521-.796.521" fill="#b54774"/><path d="M43.298 280.81s.053-.06.145-.174c.091-.116.217-.292.375-.516l.249-.38.272-.461.285-.537.291-.606c.09-.216.186-.44.284-.673l.268-.734.24-.788c.075-.27.138-.551.21-.834.122-.57.233-1.164.299-1.773l.057-.458c.014-.153.02-.308.03-.463l.028-.465c.01-.155.02-.31.015-.466l.002-.934a11.619 11.619 0 00-.05-.92c-.06-.606-.157-1.2-.292-1.767a14.566 14.566 0 00-.482-1.61c-.185-.502-.38-.971-.577-1.399-.393-.853-.76-1.552-.982-2.06a2.712 2.712 0 01-.201-.612c-.01-.074-.017-.13-.014-.17l.001-.057.005.058c0 .038.013.093.03.164.037.142.126.339.252.582.252.487.685 1.147 1.126 1.99.442.839.899 1.864 1.2 3.025.15.58.274 1.189.336 1.817.03.32.055.626.06.948l.005.954c.003.159-.007.318-.02.477l-.032.475c-.011.159-.019.317-.034.474l-.062.468c-.042.31-.077.62-.147.92-.067.3-.112.601-.196.888-.08.288-.148.574-.237.847l-.277.795-.304.737-.325.669-.33.598-.33.521-.309.444-.279.364a7.514 7.514 0 01-.423.483c-.104.106-.162.16-.162.16" fill="#b54774"/><path d="M43.4 281.077l.07-.204c.038-.135.103-.33.17-.582.061-.254.158-.556.226-.913l.116-.567c.041-.199.089-.407.118-.63l.11-.687c.034-.238.086-.481.107-.737l.176-1.597.105-1.716c.027-.292.024-.587.027-.883l.008-.891.016-.891c0-.291-.014-.593-.02-.885l-.045-.864c-.023-.286-.04-.568-.068-.845a33.833 33.833 0 00-.43-3.016c-.168-.878-.322-1.611-.413-2.128a5.271 5.271 0 01-.072-.606l.002-.216.02.214c.014.068.03.153.048.252l.082.339c.126.506.353 1.22.567 2.094.106.437.22.912.311 1.42.1.508.183 1.047.252 1.607.035.28.06.566.09.855.024.29.045.585.06.882.01.295.024.586.028.891l-.009.9-.016.9c-.005.3-.005.597-.034.892l-.143 1.731c-.07.56-.158 1.098-.233 1.608-.078.51-.201.985-.291 1.426-.088.442-.224.835-.319 1.187-.097.353-.217.65-.298.9-.085.248-.177.434-.227.564-.06.128-.09.196-.09.196" fill="#b54774"/><path d="M59.611 277.38a7.437 7.437 0 11-14.874 0 7.437 7.437 0 0114.874 0" fill="#fffae9"/><path d="M59.611 277.38a7.437 7.437 0 11-14.874 0 7.437 7.437 0 0114.874 0z" fill="none" stroke="#873052" stroke-miterlimit="10" stroke-width=".20964"/><path d="M52.174 284.104a6.731 6.731 0 01-6.724-6.724 6.731 6.731 0 016.724-6.723 6.73 6.73 0 016.723 6.723 6.73 6.73 0 01-6.723 6.724" fill="#fffae9"/><path d="M52.174 284.104a6.731 6.731 0 01-6.724-6.724 6.731 6.731 0 016.724-6.723 6.73 6.73 0 016.723 6.723 6.73 6.73 0 01-6.723 6.724z" fill="none" stroke="#e0bcca" stroke-width=".41928" stroke-miterlimit="10"/><path d="M52.174 283.763a6.39 6.39 0 01-6.383-6.383 6.39 6.39 0 016.383-6.383 6.39 6.39 0 016.383 6.383 6.39 6.39 0 01-6.383 6.383" fill="#fffae9"/><path d="M52.174 283.763a6.39 6.39 0 01-6.383-6.383 6.39 6.39 0 016.383-6.383 6.39 6.39 0 016.383 6.383 6.39 6.39 0 01-6.383 6.383z" fill="none" stroke="#873052" stroke-miterlimit="10" stroke-width=".20964"/><path d="M52.174 282.71a5.336 5.336 0 01-5.33-5.33c0-2.938 2.391-5.33 5.33-5.33a5.336 5.336 0 015.33 5.33 5.336 5.336 0 01-5.33 5.33" fill="#fffae9"/><path d="M52.174 282.71a5.336 5.336 0 01-5.33-5.33c0-2.938 2.391-5.33 5.33-5.33a5.336 5.336 0 015.33 5.33 5.336 5.336 0 01-5.33 5.33z" fill="none" stroke="#873052" stroke-miterlimit="10" stroke-width=".20964"/><path d="M52.174 281.655a4.28 4.28 0 01-4.276-4.275 4.28 4.28 0 014.276-4.275 4.28 4.28 0 014.275 4.275 4.28 4.28 0 01-4.275 4.275" fill="#fffae9"/><path d="M52.174 281.655a4.28 4.28 0 01-4.276-4.275 4.28 4.28 0 014.276-4.275 4.28 4.28 0 014.275 4.275 4.28 4.28 0 01-4.275 4.275z" fill="none" stroke="#873052" stroke-miterlimit="10" stroke-width=".20964"/><path d="M52.174 280.602a3.225 3.225 0 01-3.222-3.222 3.225 3.225 0 013.222-3.221 3.225 3.225 0 013.222 3.221 3.226 3.226 0 01-3.222 3.222" fill="#fffae9"/><path d="M52.174 280.602a3.225 3.225 0 01-3.222-3.222 3.225 3.225 0 013.222-3.221 3.225 3.225 0 013.222 3.221 3.226 3.226 0 01-3.222 3.222z" fill="none" stroke="#873052" stroke-miterlimit="10" stroke-width=".20964"/><path d="M52.174 279.374c-1.1 0-1.994-.895-1.994-1.994 0-1.1.894-1.994 1.994-1.994s1.994.895 1.994 1.994c0 1.1-.894 1.994-1.994 1.994" fill="#fffae9"/><path d="M52.174 279.374c-1.1 0-1.994-.895-1.994-1.994 0-1.1.894-1.994 1.994-1.994s1.994.895 1.994 1.994c0 1.1-.894 1.994-1.994 1.994z" fill="none" stroke="#873052" stroke-miterlimit="10" stroke-width=".20964"/><path d="M52.174 283.112a5.739 5.739 0 01-5.732-5.732 5.739 5.739 0 015.732-5.732 5.739 5.739 0 015.732 5.732 5.738 5.738 0 01-5.732 5.732z" fill="none" stroke="#e0bcca" stroke-width=".41928" stroke-miterlimit="10"/></g><path d="M59.876 297.694h95.357a4.276 4.276 0 014.286 4.286v14.286a4.276 4.276 0 01-4.286 4.286H59.876a4.276 4.276 0 01-4.286-4.286V301.98a4.276 4.276 0 014.286-4.286z" style="isolation:auto;mix-blend-mode:normal;solid-color:#000;solid-opacity:1" color="#000" overflow="visible" fill="#82ac28" fill-rule="evenodd"/><g style="line-height:125%;-inkscape-font-specification:'roboto, Normal';text-align:start" font-weight="700" font-size="11.962" font-family="roboto" letter-spacing="0" word-spacing="0" fill="#fff"><path style="-inkscape-font-specification:'roboto Bold'" d="M85.673 311.3l1.928-6.396h1.95l-2.96 8.505h-1.829l-2.95-8.505h1.946l1.915 6.396zM94.715 311.656h-3.072l-.584 1.753h-1.863l3.165-8.505h1.624l3.184 8.505h-1.864l-.59-1.753zm-2.599-1.419h2.126l-1.069-3.183-1.057 3.183zM99.727 312.001h3.72v1.408h-5.472v-8.505h1.752v7.097zM106.31 313.409h-1.753v-8.505h1.753v8.505zM107.928 313.409v-8.505h2.616q1.122 0 2.004.508.888.503 1.384 1.437.497.929.497 2.115v.391q0 1.186-.491 2.109-.485.923-1.373 1.43-.887.509-2.003.515h-2.634zm1.752-7.085V312h.847q1.028 0 1.571-.672.543-.671.555-1.921v-.45q0-1.297-.537-1.963-.538-.671-1.572-.671h-.864zM120.824 309.723h-3.364v2.278h3.949v1.408h-5.701v-8.505h5.689v1.42h-3.937v2.026h3.364v1.373zM125.585 310.296h-1.396v3.113h-1.752v-8.505h3.16q1.507 0 2.324.672.818.672.818 1.898 0 .87-.38 1.455-.373.578-1.139.923l1.84 3.475v.082h-1.88l-1.595-3.113zm-1.396-1.42h1.413q.66 0 1.023-.333.362-.339.362-.928 0-.602-.345-.947-.339-.344-1.045-.344h-1.408v2.552z"/></g></svg>