<svg xmlns="http://www.w3.org/2000/svg" width="230.095" height="375.619" viewBox="0 0 215.71428 352.14285"><g transform="translate(436.662 -387.882)"><rect ry="19.286" y="387.882" x="-436.662" height="352.143" width="215.714" style="isolation:auto;mix-blend-mode:normal" color="#000" overflow="visible" fill="#dadada" fill-rule="evenodd"/><path style="isolation:auto;mix-blend-mode:normal" color="#000" overflow="visible" fill="#fff" fill-rule="evenodd" d="M-418.708 405.865h179.807v311.632h-179.807z"/><text style="line-height:125%;-inkscape-font-specification:'roboto, Normal';text-align:start" x="-413.363" y="422.507" font-weight="400" font-size="11.852" font-family="roboto" letter-spacing="0" word-spacing="0" fill="#4d4d4d"><tspan x="-413.363" y="422.507">Que souhaitez vous commander </tspan><tspan x="-413.363" y="437.322">cette semaine ?</tspan></text><path style="isolation:auto;mix-blend-mode:normal" color="#000" overflow="visible" fill="#ececec" fill-rule="evenodd" d="M-411.637 456.372h38.386v34.85h-38.386z"/><path d="M-395.41 489.953c-3.125-.498-6.123-1.752-7.888-3.298-5.414-4.742-6.61-11.652-3.068-17.714 1.281-2.192 3.362-3.717 6.005-4.4l1.26-.326.043-.876c.051-1.05.24-1.065.62-.048.149.4.348.755.443.791.095.036.54.034.988-.004l.817-.07v-.901c0-.936.335-2.044.618-2.044.109 0 .163.389.163 1.171.001 1.454.21 1.91.993 2.18.312.107.639.169.725.137.097-.035.188-.704.237-1.737.09-1.92.328-2.94 1.038-4.444.379-.804.532-1.01.632-.851.217.343.153.988-.231 2.337-.248.871-.39 1.793-.445 2.897l-.081 1.62.686-.095c.377-.052.84-.195 1.03-.32.334-.219.341-.26.243-1.435-.073-.876-.057-1.183.057-1.113.285.176.722 1.192.722 1.677 0 .716.192.815 1.58.815 1.152 0 1.258-.025 1.518-.355.36-.458.451-.447.451.055 0 .385.067.433 1.079.77 2.37.79 4.942 2.826 6.13 4.853 2.28 3.885 2.257 9.377-.056 14.083-1.256 2.554-3.186 4.38-5.758 5.447-2.814 1.168-7.445 1.693-10.55 1.198z" fill="#4c9447"/><path d="M-394.416 490.072c-1.894-.201-4.78-1.053-6.52-1.925-2.486-1.245-4.671-3.487-6.025-6.179-1.69-3.364-1.858-7.386-.454-10.894 1.39-3.472 3.578-5.566 6.753-6.465 1.425-.403 1.69-.377 2.032.202.277.47 1.624 1.646 1.885 1.646.315 0 .08.263-.45.502-.612.276-1.61 1.295-1.734 1.77-.094.362-.037.356.512-.056.806-.603 1.691-.968 2.536-1.045.906-.082 1.088.11.557.59-.148.134-.343.538-.434.899-.166.656-.082 1.74.134 1.74.063 0 .194-.328.29-.73.21-.874.87-1.664 1.708-2.042.586-.264.587-.264 1.222.073.746.395 1.534 1.266 1.756 1.94.087.261.225.475.308.475.226 0 .051-1.7-.23-2.246-.293-.566-.202-.734.395-.734.848 0 1.918.422 2.716 1.072.762.62.78.626.78.275 0-.508-1.003-1.545-1.933-2-.42-.206-.765-.397-.765-.424 0-.028.463-.265 1.03-.527.94-.435 1.6-.996 2.022-1.719.337-.577 3.649 1.051 5.41 2.661 1.775 1.622 2.987 4.033 3.398 6.759.371 2.465.168 4.745-.654 7.328-1.598 5.024-4.79 7.713-10.332 8.707-1.497.268-4.816.463-5.913.347zm2.016-24.715c-.05-.429-.018-.732.088-.833.238-.226 1.42-.49 1.562-.349.292.292-.916 1.856-1.434 1.856-.075 0-.172-.303-.216-.674zm-4.003.314c-.53-.182-1.49-1.037-1.49-1.325 0-.246 1.138-.4 1.613-.219.264.102.738 1.456.567 1.622-.067.065-.378.03-.69-.078zm2.086-.534c-.691-.713-.597-.991.214-.635.484.213.605.369.608.784.003.45-.293.397-.822-.149zm4.23.056c0-.169.093-.528.206-.799l.206-.492h1.205c1.273 0 1.515.103 1.109.471-.327.295-1.699.92-2.273 1.035-.397.08-.453.053-.453-.215z" fill="#ea0101"/><text style="line-height:125%;-inkscape-font-specification:'roboto, Normal';text-align:start" x="-369.588" y="466.967" font-weight="400" font-size="14.655" font-family="roboto" letter-spacing="0" word-spacing="0" fill="#727272"><tspan x="-369.588" y="466.967" style="-inkscape-font-specification:roboto" font-size="11.25">Tomates</tspan></text><text style="line-height:125%;-inkscape-font-specification:'roboto, Normal';text-align:start" x="-245.449" y="466.635" font-weight="400" font-size="14.655" font-family="roboto" letter-spacing="0" word-spacing="0" fill="#bfbfbf"><tspan x="-245.449" y="466.635" style="-inkscape-font-specification:'roboto Light';text-align:end" font-weight="300" font-size="11.25" text-anchor="end">3.50€/Kg</tspan></text><rect style="isolation:auto;mix-blend-mode:normal" width="123.491" height="16.162" x="-367.443" y="474.808" ry="1.786" color="#000" overflow="visible" fill="#dcdcdc" fill-rule="evenodd"/><text style="line-height:125%;-inkscape-font-specification:'roboto, Normal';text-align:start" x="-361.583" y="486.388" font-weight="400" font-size="9.253" font-family="roboto" letter-spacing="0" word-spacing="0" fill="#666"><tspan x="-361.583" y="486.388">Quantité</tspan></text><path style="isolation:auto;mix-blend-mode:normal" d="M-258.396 481.058h9.822l-4.911 4.91z" color="#000" overflow="visible" fill="#fff" fill-rule="evenodd"/><path style="isolation:auto;mix-blend-mode:normal" color="#000" overflow="visible" fill="#ececec" fill-rule="evenodd" d="M-411.637 502.736h38.386v34.85h-38.386z"/><text style="line-height:125%;-inkscape-font-specification:'roboto, Normal';text-align:start" x="-369.588" y="513.331" font-weight="400" font-size="14.655" font-family="roboto" letter-spacing="0" word-spacing="0" fill="#727272"><tspan x="-369.588" y="513.331" style="-inkscape-font-specification:roboto" font-size="11.25">Carottes</tspan></text><text style="line-height:125%;-inkscape-font-specification:'roboto, Normal';text-align:start" x="-245.449" y="512.999" font-weight="400" font-size="14.655" font-family="roboto" letter-spacing="0" word-spacing="0" fill="#bfbfbf"><tspan x="-245.449" y="512.999" style="-inkscape-font-specification:'roboto Light';text-align:end" font-weight="300" font-size="11.25" text-anchor="end">3.20€/Kg</tspan></text><rect style="isolation:auto;mix-blend-mode:normal" width="123.491" height="16.162" x="-367.443" y="521.172" ry="1.786" color="#000" overflow="visible" fill="#a5a5a5" fill-rule="evenodd"/><text style="line-height:125%;-inkscape-font-specification:'roboto, Normal';text-align:start" x="-361.583" y="532.752" font-weight="400" font-size="9.253" font-family="roboto" letter-spacing="0" word-spacing="0" fill="#fff"><tspan x="-361.583" y="532.752">2 kg pour 6.40€</tspan></text><path style="isolation:auto;mix-blend-mode:normal" d="M-258.396 527.422h9.822l-4.911 4.91z" color="#000" overflow="visible" fill="#fff" fill-rule="evenodd"/><path d="M-386.931 505.542zm-.435.044a.166.166 0 0 1 0 0zm5.35.83zm.72.097zm4.134 1.064zm-10.367 4.602c.153.39.16.878.033 1.358.135-.48.128-.948-.033-1.358zm-4.44 1.607c-.193-.006-.344.012-.432.053-.195.091-.928.805-2.055 1.997-1.044 1.106-2.753 2.984-2.79 3.068-.014.03.21.31.498.621.566.613.986 1.192.98 1.35-.002.054-.023.097-.046.097-.023-.001-.268-.176-.544-.39-.485-.373-1.253-.9-1.417-.97-.055-.023-.203.102-.485.413-1.242 1.365-5.194 6.016-5.198 6.116-.001.03.129.217.288.414.382.47.633.815.703.964.116.245-.09.185-.525-.152-.542-.422-.836-.62-.922-.624-.072-.003-.918 1.03-2.082 2.541-1.703 2.211-2.879 3.988-3.297 4.984-.169.4-.238.83-.177 1.098.056.24.317.54.538.616.684.233 1.934-.265 4.396-1.75.465-.28.846-.541.847-.58.003-.065-.45-.82-.687-1.145-.122-.167-.126-.212-.022-.247.082-.028.669.43 1.028.803.265.275.297.268.994-.193 1.542-1.02 5.95-4.117 6.29-4.418.099-.088.094-.102-.182-.564-.156-.26-.392-.637-.525-.836-.133-.2-.24-.386-.24-.415.008-.204.584.21 1.262.903.325.333.387.376.474.326.18-.103 3.368-2.5 4.393-3.302 1.785-1.398 2.295-1.82 2.298-1.9.003-.08-.599-1.097-.875-1.477-.061-.084-.11-.184-.108-.224.008-.21.387.055 1.18.824l.45.435.362-.293c.664-.539 1.376-1.19 1.457-1.333.313-.554-.124-2.556-.815-3.733-.091-.157-.152-.306-.135-.332.012-.017.09-.077.194-.15l-.22.146-.656-.707-.656-.708.065-.08c-.046.052-.081.088-.093.088-.011 0-.176-.105-.366-.232a6.595 6.595 0 0 0-2.245-.972 4.705 4.705 0 0 0-.903-.13zm4.072.629a8.596 8.596 0 0 1-.304.418l.027-.034a4.1 4.1 0 0 0 .277-.384zm3.025 1.259a2.635 2.635 0 0 0-1.04.175c.565-.206 1.117-.233 1.604-.07a2.087 2.087 0 0 0-.564-.105zm4.371 2.723l.001.002a2.781 2.781 0 0 0-.001-.002zm1.473.268zm-.78.293a.944.944 0 0 0 .386.061c-.12.002-.26-.02-.386-.061zm.466.056l-.02.002a.7.7 0 0 0 .02-.002zm-.031.003a.864.864 0 0 1-.046.002c.015 0 .031 0 .046-.002z" fill="#e58428"/><path d="M-379.965 518.891c-.12-.065-.362-.287-.536-.494l-.317-.374-.22.203c-.244.227-.394.25-.678.101-.216-.112-.436-.406-.598-.798l-.123-.298-.152.1c-.407.268-.894-.057-.998-.666-.08-.47-.305-.747-.721-.886-.725-.243-1.568-.072-2.414.488l-.394.26-.656-.707-.656-.708.254-.313c.706-.869.947-1.848.645-2.62-.116-.298-.252-.408-.686-.557-.407-.139-.597-.255-.693-.424a.584.584 0 0 1 .027-.653l.11-.144-.282-.143c-.544-.274-.843-.617-.83-.954.005-.13.06-.22.227-.375l.222-.205-.353-.344c-.4-.39-.559-.693-.546-1.039.012-.31.106-.418.39-.447.192-.02.228-.04.217-.127a10.924 10.924 0 0 1-.024-.565c-.014-.563.083-.831.395-1.093.193-.162.242-.177.514-.166.364.015.653.15 1.058.492.274.233.301.244.39.17.124-.104.576-.091.721.02.06.044.152.186.207.314l.099.234.256-.015c.231-.014.27 0 .41.151.145.157.28.582.307.962.005.085.06.159.154.208.198.104.273.334.32.975.097 1.353-.196 3.318-.673 4.516-.05.125-.08.238-.069.251.034.036.582-.67.904-1.162.759-1.164.929-1.816.715-2.745-.124-.54-.039-.922.253-1.135a.466.466 0 0 1 .55-.015c.21.132.26.156.282.135.011-.01.057-.23.1-.487.086-.5.237-.914.4-1.094.344-.38.866-.472 1.161-.205.16.146.262.143.267-.01.007-.158.327-.714.537-.93.683-.7 1.59-.605 1.727.18.014.08.04.146.058.147.018.001.2-.076.406-.17.45-.207.912-.225 1.192-.047.416.264.464.839.122 1.454-.229.413-.237.443-.125.447a.983.983 0 0 1 .283.116c.564.316.483 1.093-.173 1.641-.22.184-.82.47-.977.463-.143-.005-.152.107-.02.256.25.282.13.805-.26 1.125-.214.174-.612.293-1.15.344-.26.024-.483.053-.494.064-.023.02-.002.072.114.29.1.191.08.386-.057.548-.234.275-.621.331-1.15.167-.753-.234-1.253-.197-2.085.156-.604.255-1.996 1.096-1.932 1.166.01.011.16-.022.333-.074.896-.272 1.825-.392 3.023-.39.93.001 1.868.106 2.159.24a.55.55 0 0 1 .24.23c.057.129.112.159.404.22.665.137.91.359.848.768l-.036.236.249.138c.137.076.273.188.303.25.084.171.051.566-.055.675-.088.09-.081.11.134.407.308.425.424.729.412 1.081-.014.408-.2.637-.643.791-.173.06-.326.068-.682.032a10.924 10.924 0 0 1-.56-.067c-.087-.017-.11.018-.144.208-.024.134-.082.257-.14.296-.15.101-.546.066-.797-.07zm.715-2.585c.007-.204-.935-.878-1.705-1.22-.224-.1-.631-.25-.904-.335-.45-.139-.592-.157-1.516-.196-.717-.03-1.052-.024-1.127.018-.09.05-.035.063.337.078 1.519.063 3.101.61 4.34 1.5.373.268.568.32.575.155zm-6.915-4.493c.076-1.104-.048-1.955-.426-2.912-.305-.771-.831-1.6-1.02-1.608-.157-.006-.129.154.094.53.527.886.984 2.145 1.113 3.065.036.253.067.79.069 1.191.004.942.095.798.17-.266zm3.105-.227c1.157-1.01 2.842-2.588 2.939-2.753.135-.232-.074-.137-.518.236-.776.65-3.266 3.027-3.676 3.509l-.172.202.161-.115c.09-.064.659-.549 1.266-1.079z" fill="#31ac40"/><path style="isolation:auto;mix-blend-mode:normal" color="#000" overflow="visible" fill="#ececec" fill-rule="evenodd" d="M-411.637 547.74h38.386v34.85h-38.386z"/><text style="line-height:125%;-inkscape-font-specification:'roboto, Normal';text-align:start" x="-369.588" y="558.335" font-weight="400" font-size="14.655" font-family="roboto" letter-spacing="0" word-spacing="0" fill="#727272"><tspan x="-369.588" y="558.335" style="-inkscape-font-specification:roboto" font-size="11.25">Concombre</tspan></text><text style="line-height:125%;-inkscape-font-specification:'roboto, Normal';text-align:end" x="-245.872" y="558.002" font-weight="400" font-size="14.655" font-family="roboto" letter-spacing="0" word-spacing="0" text-anchor="end" fill="#bfbfbf"><tspan x="-245.872" y="558.002" style="-inkscape-font-specification:'roboto Light';text-align:end" font-weight="300" font-size="11.25">1.30€/Pce</tspan></text><rect style="isolation:auto;mix-blend-mode:normal" width="123.491" height="16.162" x="-367.443" y="566.175" ry="1.786" color="#000" overflow="visible" fill="#dcdcdc" fill-rule="evenodd"/><text style="line-height:125%;-inkscape-font-specification:'roboto, Normal';text-align:start" x="-361.583" y="577.755" font-weight="400" font-size="9.253" font-family="roboto" letter-spacing="0" word-spacing="0" fill="#666"><tspan x="-361.583" y="577.755">Quantité</tspan></text><path style="isolation:auto;mix-blend-mode:normal" d="M-258.396 572.425h9.822l-4.911 4.91z" color="#000" overflow="visible" fill="#fff" fill-rule="evenodd"/><path style="isolation:auto;mix-blend-mode:normal" color="#000" overflow="visible" fill="#ececec" fill-rule="evenodd" d="M-411.637 594.104h38.386v34.85h-38.386z"/><text style="line-height:125%;-inkscape-font-specification:'roboto, Normal';text-align:start" x="-367.694" y="605.835" font-weight="400" font-size="14.655" font-family="roboto" letter-spacing="0" word-spacing="0" fill="#727272"><tspan x="-367.694" y="605.835" style="-inkscape-font-specification:roboto" font-size="11.25">Laitue</tspan></text><text style="line-height:125%;-inkscape-font-specification:'roboto, Normal';text-align:start" x="-245.449" y="604.367" font-weight="400" font-size="14.655" font-family="roboto" letter-spacing="0" word-spacing="0" fill="#bfbfbf"><tspan x="-245.449" y="604.367" style="-inkscape-font-specification:'roboto Light';text-align:end" font-weight="300" font-size="11.25" text-anchor="end">1.15€/Pce</tspan></text><rect style="isolation:auto;mix-blend-mode:normal" width="123.491" height="16.162" x="-367.443" y="612.539" ry="1.786" color="#000" overflow="visible" fill="#a5a5a5" fill-rule="evenodd"/><text style="line-height:125%;-inkscape-font-specification:'roboto, Normal';text-align:start" x="-361.583" y="624.12" font-weight="400" font-size="9.253" font-family="roboto" letter-spacing="0" word-spacing="0" fill="#fff"><tspan x="-361.583" y="624.12">1 pièce pour 1.15€</tspan></text><path style="isolation:auto;mix-blend-mode:normal" d="M-258.396 618.79h9.822l-4.911 4.91z" color="#000" overflow="visible" fill="#fff" fill-rule="evenodd"/><path d="M-400.011 580.792c-2.837 1.612-5.915 1.489-7.965.188a4.366 4.366 0 0 1-.44-.308l-.13-.103a5.122 5.122 0 0 1-.383-.35 4.643 4.643 0 0 1-.4-.46 2.68 2.68 0 0 1-.193-.27 3.724 3.724 0 0 1-.252-.413 4.455 4.455 0 0 1-.281-.632 6.652 6.652 0 0 1-.332-1.407 6.67 6.67 0 0 1 .192-2.563c.532-2.007 1.938-3.817 3.827-4.9a46.512 46.512 0 0 0 17.28-17.103 8.315 8.315 0 0 1 3.682-3.334c.224-.103.453-.194.684-.274a7.116 7.116 0 0 1 2.004-.385c.176-.007.357-.009.536 0 .549.02 1.1.11 1.645.276.118.038.24.076.358.12.032.014.067.027.096.041a4.71 4.71 0 0 1 1.212.696 4.569 4.569 0 0 1 .558.517c.084.09.164.181.242.278 1.65 2.034 1.935 5.442.136 8.536a59.363 59.363 0 0 1-22.076 21.85" fill="#479706"/><path d="M-400.011 580.792c-2.837 1.612-5.915 1.489-7.965.188a4.366 4.366 0 0 1-.44-.308l-.13-.103a5.122 5.122 0 0 1-.383-.35 4.643 4.643 0 0 1-.4-.46 2.68 2.68 0 0 1-.193-.27 3.724 3.724 0 0 1-.252-.413 4.455 4.455 0 0 1-.281-.632 6.652 6.652 0 0 1-.332-1.407 6.67 6.67 0 0 1 .192-2.563c.532-2.007 1.938-3.817 3.827-4.9a46.512 46.512 0 0 0 17.28-17.103 8.315 8.315 0 0 1 3.682-3.334c.224-.103.453-.194.684-.274a7.116 7.116 0 0 1 2.004-.385c.176-.007.357-.009.536 0 .549.02 1.1.11 1.645.276.118.038.24.076.358.12.032.014.067.027.096.041a4.71 4.71 0 0 1 1.212.696 4.569 4.569 0 0 1 .558.517c.084.09.164.181.242.278 1.65 2.034 1.935 5.442.136 8.536a59.363 59.363 0 0 1-22.076 21.85" fill="#479706"/><path d="M-401.548 579.24c-2.032 1.264-4.11 1.665-5.778 1.366a5.02 5.02 0 0 1-.978-.277 4.005 4.005 0 0 1-1.025-.57 2.766 2.766 0 0 1-.273-.225c-.041-.039-.082-.077-.12-.116a3.553 3.553 0 0 1-.897-1.544c-.012-.04-.021-.081-.03-.122a4.155 4.155 0 0 1-.104-.495 5.785 5.785 0 0 1 .022-1.875c.032-.22.082-.443.142-.66.557-2.07 2.082-4.06 4.068-5.303a54.916 54.916 0 0 0 17.28-17.102c.993-1.548 2.44-2.806 4.018-3.534.221-.105.45-.199.68-.28a6.858 6.858 0 0 1 1.998-.407c.176-.01.35-.01.526 0 .433.018.86.085 1.276.209.117.033.232.074.34.121a3.558 3.558 0 0 1 1.532 1.185c.056.072.104.146.155.222a3.99 3.99 0 0 1 .405.81c.684 1.793.39 4.31-1.16 6.747a70.157 70.157 0 0 1-22.077 21.85" fill="#4da306"/><path d="M-401.548 579.24c-2.032 1.264-4.11 1.665-5.778 1.366a5.02 5.02 0 0 1-.978-.277 4.005 4.005 0 0 1-1.025-.57 2.766 2.766 0 0 1-.273-.225c-.041-.039-.082-.077-.12-.116a3.553 3.553 0 0 1-.897-1.544c-.012-.04-.021-.081-.03-.122a4.155 4.155 0 0 1-.104-.495 5.785 5.785 0 0 1 .022-1.875c.032-.22.082-.443.142-.66.557-2.07 2.082-4.06 4.068-5.303a54.916 54.916 0 0 0 17.28-17.102c.993-1.548 2.44-2.806 4.018-3.534.221-.105.45-.199.68-.28a6.858 6.858 0 0 1 1.998-.407c.176-.01.35-.01.526 0 .433.018.86.085 1.276.209.117.033.232.074.34.121a3.558 3.558 0 0 1 1.532 1.185c.056.072.104.146.155.222a3.99 3.99 0 0 1 .405.81c.684 1.793.39 4.31-1.16 6.747a70.157 70.157 0 0 1-22.077 21.85" fill="#4da306"/><path d="M-396.76 573.318a88.052 88.052 0 0 1-10.566 7.288l-.65.374a4.367 4.367 0 0 1-.44-.308c.13-.072.268-.151.41-.236 2.313-1.325 6.443-3.876 10.95-7.504 5.69-4.578 13.049-11.765 17.396-20.954.332-.703.65-1.42.944-2.145.011-.023.019-.047.03-.07.13.113.254.235.373.365l-.105.253c-.09.216-.182.427-.275.64-4.304 9.833-12.098 17.495-18.068 22.297" fill="#50a806"/><path d="M-398.444 571.905a88.695 88.695 0 0 1-5.406 4.016 84.194 84.194 0 0 1-5.672 3.568c-.028.013-.055.03-.08.045-.041-.039-.082-.077-.12-.116a2.85 2.85 0 0 1-.222-.248l.17-.094a86.093 86.093 0 0 0 8.052-5.262 87.062 87.062 0 0 0 2.982-2.292c4.045-3.256 8.939-7.833 12.99-13.516 2.013-2.82 3.821-5.913 5.213-9.252.05-.11.092-.217.134-.328.154.059.3.128.438.211a7.469 7.469 0 0 1-.118.278c-1.077 2.593-2.402 5.039-3.882 7.324-4.316 6.682-9.928 12.004-14.48 15.666" fill="#50a806"/><path d="M-400.13 570.495a87.98 87.98 0 0 1-10.173 7.057l-.347.2a4.155 4.155 0 0 1-.103-.495c.117-.073.24-.142.366-.22a86.982 86.982 0 0 0 9.962-6.926c5.827-4.69 13.404-12.117 17.707-21.633.06-.124.116-.255.173-.382.176-.01.35-.01.526 0-.052.129-.108.256-.164.382-4.328 9.699-12.033 17.26-17.948 22.017" fill="#50a806"/><path d="M-401.816 569.084a88.613 88.613 0 0 1-8.526 6.056c-.131.083-.264.162-.389.242.033-.22.082-.443.142-.66l.394-.248a87.697 87.697 0 0 0 8.085-5.775c5.396-4.342 12.298-11.037 16.704-19.562.063-.118.123-.236.183-.354.221-.105.45-.199.68-.28a8.637 8.637 0 0 1-.18.36c-4.432 8.84-11.55 15.76-17.093 20.22" fill="#50a806"/><path d="M-399.96 603.913c-1.972 1.7-4.493 4.916-5.946 5.916-.449.309-.797.406-.992.179a1.163 1.163 0 0 1-.146-.218c-.134-.259-.247-.64-.31-1.121-.278-2.058.348-5.89 4.007-9.264 2.411-2.224 5.49-2.23 6.456-1.367.037.032.072.067.104.102.83.963-.592 3.548-3.173 5.773M-387.672 598.651c-.83.962.592 3.547 3.175 5.773 2.582 2.226 6.108 7.055 6.937 6.093.83-.962 1.25-6.176-3.55-10.601-2.508-2.311-5.733-2.227-6.562-1.265" fill="#92d125"/><path d="M-377.844 612.065c0 7.728-5.971 14.065-13.55 14.646a15.325 15.325 0 0 1-2.004.017h-.002c-7.707-.45-13.819-6.842-13.819-14.663a14.774 14.774 0 0 1 .324-3.078 14.704 14.704 0 0 1 10.004-10.95 14.653 14.653 0 0 1 4.359-.658c1.85 0 3.623.342 5.255.968 4.638 1.776 8.145 5.838 9.145 10.804a15.03 15.03 0 0 1 .288 2.914" fill="#69bc1b"/><path d="M-391.417 616.477c0 5.661-.499 10.25-1.115 10.25s-1.115-4.589-1.115-10.25c0-5.66.5-10.249 1.115-10.249.616 0 1.115 4.589 1.115 10.25" fill="#b0e874"/><path d="M-395.52 613.75c-1.679-1.678-2.891-3.187-2.709-3.37.183-.183 1.692 1.03 3.37 2.709 1.68 1.679 2.892 3.187 2.71 3.37-.183.183-1.692-1.03-3.37-2.709M-395.92 619.866c-1.68-1.679-2.892-3.188-2.71-3.37.183-.183 1.692 1.03 3.371 2.709 1.679 1.678 2.892 3.187 2.709 3.37-.183.183-1.692-1.03-3.37-2.709" fill="#b0e874"/><path d="M-389.378 613.75c1.678-1.678 2.891-3.187 2.709-3.37-.183-.183-1.692 1.03-3.371 2.709s-2.892 3.187-2.709 3.37c.183.183 1.692-1.03 3.37-2.709M-388.978 619.866c1.679-1.679 2.892-3.188 2.71-3.37-.183-.183-1.693 1.03-3.371 2.709-1.679 1.678-2.892 3.187-2.71 3.37.184.183 1.692-1.03 3.371-2.709" fill="#b0e874"/><path d="M-393.4 626.728c-.227.02-20.223 1.715-17.649-15.449.497-3.322 1.89-3.755 3.694-2.61.151.095.304.2.46.318.319.24.65.523.99.842 4.679 4.402 10.965 15.757 12.505 16.899M-391.417 626.727s20.238 1.814 17.65-15.447c-1.8-12.01-15.297 13.714-17.65 15.447" fill="#92d125"/><path style="isolation:auto;mix-blend-mode:normal" color="#000" overflow="visible" fill="#ececec" fill-rule="evenodd" d="M-411.343 637.112h38.386v34.85h-38.386z"/><text style="line-height:125%;-inkscape-font-specification:'roboto, Normal';text-align:start" x="-369.293" y="647.707" font-weight="400" font-size="14.655" font-family="roboto" letter-spacing="0" word-spacing="0" fill="#727272"><tspan x="-369.293" y="647.707" style="-inkscape-font-specification:roboto" font-size="11.25">Oignons rouges</tspan></text><text style="line-height:125%;-inkscape-font-specification:'roboto, Normal';text-align:end" x="-245.578" y="647.375" font-weight="400" font-size="14.655" font-family="roboto" letter-spacing="0" word-spacing="0" text-anchor="end" fill="#bfbfbf"><tspan x="-245.578" y="647.375" style="-inkscape-font-specification:'roboto Light';text-align:end" font-weight="300" font-size="11.25">3€/Kg</tspan></text><rect style="isolation:auto;mix-blend-mode:normal" width="123.491" height="16.162" x="-367.149" y="655.547" ry="1.786" color="#000" overflow="visible" fill="#dcdcdc" fill-rule="evenodd"/><text style="line-height:125%;-inkscape-font-specification:'roboto, Normal';text-align:start" x="-361.289" y="667.128" font-weight="400" font-size="9.253" font-family="roboto" letter-spacing="0" word-spacing="0" fill="#666"><tspan x="-361.289" y="667.128">Quantité</tspan></text><path style="isolation:auto;mix-blend-mode:normal" d="M-258.101 661.798h9.821l-4.91 4.91z" color="#000" overflow="visible" fill="#fff" fill-rule="evenodd"/><g><path d="M-392.25 644.693a56.43 56.43 0 0 1-.078 3.122c-.017.3-.034.605-.055.922-.01.17-.023.342-.035.516h-1.023s-.028-.14-.07-.394a46.336 46.336 0 0 1-.476-3.837c-.207-2.582-.203-5.713.726-7.446.023-.049.05-.095.077-.14 0 0 .91 1.886.933 7.257" fill="#3d8205"/><path d="M-393.108 649.06l-.143-.071-.01-.004-.25-.126-1.593-.797s.074-.394.05-1.105c-.044-1.331-.431-3.767-2.3-6.786 0 0 1.722-1.163 3.368 4.851a42.102 42.102 0 0 1 .8 3.608l.013.065c.02.12.044.241.065.365" fill="#479706"/><path d="M-391.266 648.216s-.525-3.43 2.66-8.11c0 0-2.833-1.463-4.675 9.05l2.015-.94z" fill="#479706"/><path d="M-384.488 659.228c0 .1-.002.201-.006.302a8.16 8.16 0 0 1-.164 1.461 9.197 9.197 0 0 1-.937 2.614 10.117 10.117 0 0 1-2.851 3.272 9.88 9.88 0 0 1-2.132 1.231 8.45 8.45 0 0 1-.675.25 6.909 6.909 0 0 1-1.386.304l-.113.01-.17.013a4.1 4.1 0 0 1-.23.006h-.11c-.033-.002-.066-.002-.1-.002l-.063-.004c-3.383-.166-8.457-3.761-8.457-9.457a8.67 8.67 0 0 1 2.535-6.137c1.096-1.1 2.543-1.597 3.553-2.842.768-.946.487-2.174.487-2.174s-.14-.992.176-1.105a.232.232 0 0 1 .078-.013c.356 0 1 .686 1.43 1.197.156.187.284.348.362.449l.065.086.013.017s.001-.005.01-.01c.06-.07.432-.479.845-.881.385-.375.809-.744 1.056-.83a.276.276 0 0 1 .111-.015c.332.04.099 1.105.099 1.105s-.28 1.228.486 2.174c1.01 1.245 2.457 1.742 3.554 2.842a8.685 8.685 0 0 1 2.507 5.447c.009.113.017.226.021.342.004.115.006.23.006.348" fill="#873052"/><path d="M-393.185 668.692s-.337-.145-.892-.472a14.452 14.452 0 0 1-2.158-1.567c-.83-.731-1.722-1.697-2.43-2.905a9.71 9.71 0 0 1-.88-1.967 9.454 9.454 0 0 1-.418-2.19l-.016-.562c-.003-.187.011-.373.016-.56l.005-.139c.002-.06.01-.095.013-.144l.029-.27c.026-.183.059-.376.098-.557a7.328 7.328 0 0 1 .79-2.017c.692-1.225 1.6-2.174 2.399-2.93.803-.758 1.527-1.322 1.982-1.77.228-.222.396-.41.476-.56.083-.15.068-.249.073-.247-.005-.002.02.096-.052.257-.07.16-.22.37-.438.607-.434.477-1.11 1.1-1.872 1.884-.38.394-.777.832-1.166 1.317-.39.486-.757 1.03-1.08 1.62a7.343 7.343 0 0 0-.716 1.925 7.863 7.863 0 0 0-.088.512l-.027.271c-.003.042-.011.099-.01.129l-.004.133c-.004.179-.017.358-.012.537l.018.536c.086 1.433.542 2.826 1.2 4.002.658 1.182 1.492 2.153 2.272 2.912a15.852 15.852 0 0 0 2.04 1.675c.527.362.848.54.848.54" fill="#b54774"/><path d="M-392.54 668.692s-.305-.162-.795-.522a12.54 12.54 0 0 1-1.863-1.688 11.66 11.66 0 0 1-1.962-2.984c-.27-.6-.5-1.243-.66-1.917a11.49 11.49 0 0 1-.298-2.074l-.012-.526.015-.526.004-.13c.002-.056.007-.09.01-.135l.023-.256c.017-.172.047-.351.072-.524a8.5 8.5 0 0 1 .606-1.945c.544-1.207 1.288-2.194 1.969-2.978.68-.79 1.308-1.384 1.693-1.846.193-.23.332-.42.395-.568a.573.573 0 0 0 .051-.175l.007-.063v.063a.578.578 0 0 1-.036.183c-.052.155-.172.367-.353.61-.361.49-.935 1.138-1.571 1.948-.632.811-1.32 1.802-1.817 2.973a8.74 8.74 0 0 0-.544 1.866c-.023.164-.049.32-.065.49l-.02.256c-.003.04-.009.092-.009.122l-.003.127-.011.507.014.508c.058 1.355.378 2.691.877 3.862a12.53 12.53 0 0 0 1.807 2.976c.65.795 1.271 1.393 1.732 1.78.458.392.745.586.745.586" fill="#b54774"/><path d="M-392.61 668.692s-.057-.053-.161-.16a7.514 7.514 0 0 1-.424-.482l-.279-.364-.31-.444-.328-.52-.33-.6-.326-.668-.303-.737-.277-.795c-.09-.273-.157-.56-.238-.847-.083-.287-.128-.588-.195-.888-.071-.3-.106-.61-.148-.92-.02-.156-.04-.312-.062-.468-.015-.157-.022-.315-.034-.474l-.032-.475a4.893 4.893 0 0 1-.02-.477l.005-.954c.005-.322.03-.627.06-.948a12.03 12.03 0 0 1 .336-1.817c.302-1.16.759-2.186 1.2-3.026.442-.842.875-1.502 1.126-1.99.126-.242.216-.439.252-.581.017-.071.03-.126.03-.164l.005-.058.001.058c.004.038-.004.095-.013.169-.025.147-.09.358-.201.612-.222.508-.59 1.207-.983 2.06-.196.428-.392.897-.576 1.4a14.566 14.566 0 0 0-.483 1.61c-.135.566-.231 1.16-.291 1.766-.026.296-.05.615-.05.92l.001.934a4.68 4.68 0 0 0 .015.466l.028.465c.01.155.016.31.03.463l.058.458c.065.61.176 1.203.299 1.773.072.283.134.564.21.834l.24.788.268.734.283.673.291.606.285.537.272.46.25.38c.157.225.283.401.375.517.092.115.144.174.144.174" fill="#b54774"/><path d="M-392.879 668.84l-.065-.203c-.036-.134-.105-.328-.164-.582-.057-.253-.145-.558-.212-.914s-.166-.755-.226-1.197c-.063-.442-.152-.918-.203-1.427-.052-.509-.117-1.045-.162-1.601l-.1-1.718c-.031-.585-.022-1.18-.035-1.775l-.005-.891c.005-.304.019-.592.027-.886.01-.291.02-.58.034-.867l.07-.85c.035-.56.109-1.095.172-1.602.057-.509.148-.984.216-1.425.151-.879.316-1.603.402-2.113l.063-.341.03-.253.024-.213-.002.213-.003.258-.03.346c-.023.26-.062.573-.104.932l-.142 1.205-.071.689c-.026.238-.054.483-.072.736-.042.507-.09 1.04-.115 1.591l-.047.84-.02.866c-.006.29-.018.59-.02.877l.012.886c.008.59-.006 1.183.02 1.763l.063 1.708.106 1.594c.012.254.042.499.064.737l.066.689c.018.221.045.432.071.632l.07.57c.039.36.102.667.139.924.041.256.082.455.106.593l.043.209M-392.789 668.692s.321-.178.848-.54c.529-.36 1.255-.918 2.04-1.675.78-.759 1.615-1.73 2.272-2.912.658-1.176 1.115-2.57 1.2-4.002l.019-.536c.004-.18-.009-.358-.012-.537l-.004-.133c0-.03-.008-.087-.01-.129l-.028-.271a7.863 7.863 0 0 0-.087-.512 7.343 7.343 0 0 0-.717-1.925c-.322-.59-.69-1.134-1.08-1.62-.389-.485-.786-.923-1.165-1.317-.763-.784-1.438-1.407-1.872-1.884-.218-.237-.368-.447-.438-.607-.072-.161-.047-.259-.053-.257.005-.002-.01.097.073.247.08.15.249.338.477.56.455.448 1.178 1.012 1.982 1.77.8.756 1.706 1.705 2.4 2.93.346.608.626 1.29.789 2.017.039.18.072.374.098.556l.028.271c.005.05.011.083.013.144l.006.14c.004.186.02.372.016.56l-.017.56a9.454 9.454 0 0 1-.417 2.191 9.71 9.71 0 0 1-.881 1.967c-.707 1.208-1.6 2.174-2.43 2.905a14.452 14.452 0 0 1-2.158 1.567c-.554.327-.892.472-.892.472" fill="#b54774"/><path d="M-393.434 668.692s.286-.194.745-.585c.46-.388 1.082-.986 1.732-1.781a12.53 12.53 0 0 0 1.806-2.976c.499-1.17.82-2.507.877-3.862l.015-.508-.011-.507-.004-.127c0-.03-.005-.082-.008-.122l-.02-.256c-.017-.17-.043-.326-.065-.49a8.74 8.74 0 0 0-.545-1.866c-.496-1.171-1.184-2.162-1.816-2.973-.636-.81-1.21-1.458-1.571-1.947-.182-.244-.301-.456-.353-.611a.578.578 0 0 1-.036-.183v-.063l.006.063c0 .041.022.1.051.175.063.147.203.339.396.568.385.462 1.013 1.056 1.693 1.846.68.784 1.425 1.771 1.969 2.978a8.5 8.5 0 0 1 .605 1.945c.025.173.055.352.072.524l.023.256c.003.045.008.079.01.134l.005.131.014.526-.011.526a11.49 11.49 0 0 1-.298 2.074c-.16.674-.391 1.317-.66 1.917a11.66 11.66 0 0 1-1.962 2.984 12.54 12.54 0 0 1-1.864 1.688c-.49.36-.795.522-.795.522" fill="#b54774"/><path d="M-393.364 668.692s.053-.06.145-.174c.092-.116.217-.292.375-.516l.25-.38c.083-.143.174-.297.272-.461l.284-.537.291-.606.284-.673.268-.734.24-.788c.075-.27.138-.55.21-.834.123-.57.233-1.163.299-1.773l.057-.458c.014-.153.02-.308.03-.463l.028-.465c.01-.155.02-.31.015-.466l.002-.933a11.619 11.619 0 0 0-.05-.92c-.06-.607-.156-1.201-.292-1.768a14.566 14.566 0 0 0-.482-1.61c-.185-.502-.38-.971-.576-1.399-.394-.853-.762-1.552-.983-2.06a2.712 2.712 0 0 1-.201-.612c-.01-.074-.017-.13-.014-.17l.001-.057.005.058c0 .038.014.093.03.164.037.142.126.339.253.582.25.487.684 1.147 1.125 1.99.442.839.899 1.864 1.2 3.025.15.58.274 1.189.336 1.817.03.32.055.626.06.948l.005.954c.004.159-.007.318-.019.477l-.032.475c-.012.159-.02.317-.035.474l-.062.468c-.041.31-.076.62-.147.92-.067.3-.112.601-.195.888-.081.288-.149.574-.238.847l-.277.795-.304.737-.325.669-.33.598-.33.521-.308.444-.28.364a7.514 7.514 0 0 1-.423.483c-.104.106-.162.16-.162.16" fill="#b54774"/><path d="M-393.262 668.959l.07-.204c.039-.135.104-.33.17-.582.062-.254.158-.556.226-.913l.116-.567c.041-.199.089-.407.119-.63l.108-.687c.035-.238.088-.481.109-.737l.175-1.597.105-1.716c.027-.292.024-.587.027-.883l.009-.891.015-.891c0-.291-.014-.593-.02-.885l-.045-.864c-.023-.286-.04-.568-.068-.845a33.833 33.833 0 0 0-.43-3.016c-.168-.878-.321-1.611-.413-2.128a5.271 5.271 0 0 1-.072-.606l.002-.216.02.214.049.252.081.339c.126.506.353 1.22.568 2.094.106.437.218.912.31 1.42.1.508.184 1.047.252 1.607.035.28.06.566.09.855.024.29.045.585.061.882.009.295.024.586.027.891l-.008.9-.016.9c-.006.3-.006.597-.035.892l-.142 1.731c-.072.56-.159 1.098-.234 1.608-.078.51-.2.985-.29 1.426-.089.442-.225.835-.32 1.187-.097.353-.217.65-.298.9-.085.248-.177.434-.227.564-.06.128-.09.196-.09.196" fill="#b54774"/><path d="M-377.05 665.262a7.437 7.437 0 1 1-14.875 0 7.437 7.437 0 0 1 14.874 0" fill="#fffae9"/><path d="M-377.05 665.262a7.437 7.437 0 1 1-14.875 0 7.437 7.437 0 0 1 14.874 0z" fill="none" stroke="#873052" stroke-miterlimit="10" stroke-width=".20964"/><path d="M-384.488 671.986a6.731 6.731 0 0 1-6.723-6.724 6.731 6.731 0 0 1 6.723-6.723 6.73 6.73 0 0 1 6.723 6.723 6.73 6.73 0 0 1-6.723 6.724" fill="#fffae9"/><path d="M-384.488 671.986a6.731 6.731 0 0 1-6.723-6.724 6.731 6.731 0 0 1 6.723-6.723 6.73 6.73 0 0 1 6.723 6.723 6.73 6.73 0 0 1-6.723 6.724z" fill="none" stroke="#e0bcca" stroke-width=".41928" stroke-miterlimit="10"/><path d="M-384.488 671.645a6.39 6.39 0 0 1-6.383-6.383 6.39 6.39 0 0 1 6.383-6.383 6.39 6.39 0 0 1 6.383 6.383 6.39 6.39 0 0 1-6.383 6.383" fill="#fffae9"/><path d="M-384.488 671.645a6.39 6.39 0 0 1-6.383-6.383 6.39 6.39 0 0 1 6.383-6.383 6.39 6.39 0 0 1 6.383 6.383 6.39 6.39 0 0 1-6.383 6.383z" fill="none" stroke="#873052" stroke-miterlimit="10" stroke-width=".20964"/><path d="M-384.488 670.592a5.336 5.336 0 0 1-5.33-5.33c0-2.938 2.391-5.33 5.33-5.33a5.336 5.336 0 0 1 5.33 5.33 5.336 5.336 0 0 1-5.33 5.33" fill="#fffae9"/><path d="M-384.488 670.592a5.336 5.336 0 0 1-5.33-5.33c0-2.938 2.391-5.33 5.33-5.33a5.336 5.336 0 0 1 5.33 5.33 5.336 5.336 0 0 1-5.33 5.33z" fill="none" stroke="#873052" stroke-miterlimit="10" stroke-width=".20964"/><path d="M-384.488 669.537a4.28 4.28 0 0 1-4.275-4.275 4.28 4.28 0 0 1 4.275-4.275 4.28 4.28 0 0 1 4.276 4.275 4.28 4.28 0 0 1-4.276 4.275" fill="#fffae9"/><path d="M-384.488 669.537a4.28 4.28 0 0 1-4.275-4.275 4.28 4.28 0 0 1 4.275-4.275 4.28 4.28 0 0 1 4.276 4.275 4.28 4.28 0 0 1-4.276 4.275z" fill="none" stroke="#873052" stroke-miterlimit="10" stroke-width=".20964"/><path d="M-384.488 668.484a3.225 3.225 0 0 1-3.222-3.222 3.225 3.225 0 0 1 3.222-3.221 3.225 3.225 0 0 1 3.222 3.221 3.226 3.226 0 0 1-3.222 3.222" fill="#fffae9"/><path d="M-384.488 668.484a3.225 3.225 0 0 1-3.222-3.222 3.225 3.225 0 0 1 3.222-3.221 3.225 3.225 0 0 1 3.222 3.221 3.226 3.226 0 0 1-3.222 3.222z" fill="none" stroke="#873052" stroke-miterlimit="10" stroke-width=".20964"/><path d="M-384.488 667.256c-1.1 0-1.994-.895-1.994-1.994 0-1.1.895-1.994 1.994-1.994 1.1 0 1.994.895 1.994 1.994 0 1.1-.894 1.994-1.994 1.994" fill="#fffae9"/><path d="M-384.488 667.256c-1.1 0-1.994-.895-1.994-1.994 0-1.1.895-1.994 1.994-1.994 1.1 0 1.994.895 1.994 1.994 0 1.1-.894 1.994-1.994 1.994z" fill="none" stroke="#873052" stroke-miterlimit="10" stroke-width=".20964"/><path d="M-384.488 670.994a5.739 5.739 0 0 1-5.732-5.732 5.739 5.739 0 0 1 5.732-5.732 5.739 5.739 0 0 1 5.732 5.732 5.738 5.738 0 0 1-5.732 5.732z" fill="none" stroke="#e0bcca" stroke-width=".41928" stroke-miterlimit="10"/></g><rect ry="4.286" y="685.576" x="-381.071" height="22.857" width="103.929" style="isolation:auto;mix-blend-mode:normal" color="#000" overflow="visible" fill="#82ac28" fill-rule="evenodd"/><text y="701.291" x="-354.89" style="line-height:125%;-inkscape-font-specification:'roboto, Normal';text-align:start" font-weight="400" font-size="11.962" font-family="roboto" letter-spacing="0" word-spacing="0" fill="#fff"><tspan style="-inkscape-font-specification:'roboto Bold'" y="701.291" x="-354.89" font-weight="700">VALIDER</tspan></text></g></svg>