<svg xmlns="http://www.w3.org/2000/svg" viewBox="0 0 297.04955 307.32263" height="327.811" width="316.853"><path d="M0 0h225.264v271.628H0z" style="isolation:auto;mix-blend-mode:normal" color="#000" overflow="visible" fill="#fff" fill-rule="evenodd"/><path d="M11.287 18.322h26.071v26.071H11.287zM11.287 53.53h26.071V79.6H11.287zM11.287 88.738h26.071v26.072H11.287zM11.287 123.946h26.071v26.072H11.287zM11.287 159.155h26.071v26.071H11.287zM11.287 194.363h26.071v26.071H11.287zM11.287 229.571h26.071v26.072H11.287zM42.001 18.59h100.94v15.203H42.001zM42.001 53.645h100.94v15.203H42.001zM42.001 88.7h100.94v15.203H42.001zM42.001 123.755h100.94v15.204H42.001zM42.001 158.81h100.94v15.204H42.001zM42.001 193.866h100.94v15.203H42.001zM42.001 228.921h100.94v15.204H42.001zM149.817 18.768h60.979V33.97h-60.979zM149.817 53.823h60.979v15.204h-60.979zM149.817 88.879h60.979v15.203h-60.979zM149.817 123.934h60.979v15.203h-60.979zM149.817 158.99h60.979v15.203h-60.979zM149.817 194.045h60.979v15.203h-60.979zM149.817 229.1h60.979v15.203h-60.979z" style="isolation:auto;mix-blend-mode:normal" color="#000" overflow="visible" fill="#e3e3e3" fill-rule="evenodd"/><g fill="#69bc1b"><path d="M295.68 156.561l-26.144-22.975a4.012 4.012 0 0 0-2.92-.996 4.035 4.035 0 0 0-2.768 1.365L169.024 241.88l-33.716-44.627a4.02 4.02 0 0 0-2.658-1.558 3.976 3.976 0 0 0-2.985.776l-27.77 20.978a4.03 4.03 0 0 0-.787 5.646l62.43 82.63a4.035 4.035 0 0 0 3.068 1.598h.147a4.029 4.029 0 0 0 3.03-1.37l126.262-143.704a4.027 4.027 0 0 0-.365-5.688z"/></g></svg>