<svg xmlns="http://www.w3.org/2000/svg" viewBox="0 0 217.985 255.703" height="272.749" width="232.517"><g color="#000" fill-rule="evenodd"><path d="M13.934 16.296h204.051v239.407H13.935z" style="isolation:auto;mix-blend-mode:normal" overflow="visible" fill="#fff"/><path d="M7.016 6.975h204.05v239.406H7.016z" style="isolation:auto;mix-blend-mode:normal" overflow="visible" fill="#fff"/><path d="M0 0h204.05v239.406H0z" style="isolation:auto;mix-blend-mode:normal" overflow="visible" fill="#fff"/><path d="M8.081 9.091h43.437v13.132H8.08zM150.008 33.84h43.436v13.132h-43.436z" style="isolation:auto;mix-blend-mode:normal" overflow="visible" fill="#69bc1b"/><path d="M8.839 59.6h184.353V72.73H8.839z" style="isolation:auto;mix-blend-mode:normal" overflow="visible" fill="#404040"/><path d="M8.839 78.118h184.353V91.25H8.839zM8.839 96.638h184.353v13.132H8.839zM8.839 115.158h184.353v13.131H8.839zM8.839 133.677h184.353v13.132H8.839zM8.839 152.197h184.353v13.132H8.839zM8.839 170.716h184.353v13.132H8.839z" style="isolation:auto;mix-blend-mode:normal" overflow="visible" fill="#e3e3e3"/><path d="M140.159 188.898h53.538v13.132h-53.538z" style="isolation:auto;mix-blend-mode:normal" overflow="visible" fill="#404040"/></g></svg>