<svg xmlns="http://www.w3.org/2000/svg" viewBox="0 0 190.22236 259.49237" height="276.792" width="202.904"><g fill="#fff" stroke="none" color="#000" fill-rule="evenodd"><g fill="silver"><path d="M190.222 0v80.67h-53.299V0zM190.222 86.432v80.67h-53.299v-80.67zM190.222 172.863v80.67h-53.299v-80.67zM130.638 0v80.67h-53.3V0zM130.638 86.432v80.67h-53.3v-80.67zM130.638 172.863v80.67h-53.3v-80.67zM71.053 0v80.67h-53.3V0zM71.053 86.432v80.67h-53.3v-80.67zM71.053 172.863v80.67h-53.3v-80.67z" style="isolation:auto;mix-blend-mode:normal" overflow="visible"/></g><g fill="#dfdfdf"><path d="M181.346 2.98v80.67h-53.3V2.98zM181.346 89.412v80.67h-53.3v-80.67zM181.346 175.843v80.67h-53.3v-80.67zM121.76 2.98v80.67H68.462V2.98zM121.76 89.412v80.67H68.462v-80.67zM121.76 175.843v80.67H68.462v-80.67zM62.176 2.98v80.67H8.877V2.98zM62.176 89.412v80.67H8.877v-80.67zM62.176 175.843v80.67H8.877v-80.67z" style="isolation:auto;mix-blend-mode:normal" overflow="visible"/></g><path d="M172.469 5.96v80.67h-53.3V5.96zM172.469 92.392v80.67h-53.3v-80.67zM172.469 178.823v80.67h-53.3v-80.67zM112.884 5.96v80.67h-53.3V5.96zM112.884 92.392v80.67h-53.3v-80.67zM112.884 178.823v80.67h-53.3v-80.67zM53.3 5.96v80.67H0V5.96zM53.3 92.392v80.67H0v-80.67zM53.3 178.823v80.67H0v-80.67z" style="isolation:auto;mix-blend-mode:normal" overflow="visible"/></g></svg>