<svg xmlns="http://www.w3.org/2000/svg" width="232.517" height="272.749" viewBox="0 0 217.98513 255.70265"><g color="#000" fill-rule="evenodd"><path style="isolation:auto;mix-blend-mode:normal" overflow="visible" fill="#fff" d="M13.935 16.297h204.05v239.406H13.936z"/><path style="isolation:auto;mix-blend-mode:normal" overflow="visible" fill="#fff" d="M7.016 6.975h204.05V246.38H7.017z"/><path style="isolation:auto;mix-blend-mode:normal" overflow="visible" fill="#fff" d="M0 0h204.051v239.406H.001z"/><path style="isolation:auto;mix-blend-mode:normal" overflow="visible" fill="#69bc1b" d="M8.081 9.091h43.437v13.132H8.081zM150.007 33.84h43.437v13.132h-43.437z"/><path style="isolation:auto;mix-blend-mode:normal" overflow="visible" fill="#404040" d="M8.84 59.599h184.352v13.132H8.84z"/><path style="isolation:auto;mix-blend-mode:normal" overflow="visible" fill="#e3e3e3" d="M8.84 78.118h184.352V91.25H8.84zM8.84 96.638h184.352v13.132H8.84zM8.84 115.158h184.352v13.132H8.84zM8.84 133.677h184.352v13.132H8.84zM8.84 152.196h184.352v13.132H8.84zM8.84 170.716h184.352v13.132H8.84z"/><path style="isolation:auto;mix-blend-mode:normal" overflow="visible" fill="#404040" d="M140.158 188.898h53.538v13.132h-53.538z"/></g></svg>