<svg xmlns="http://www.w3.org/2000/svg" width="316.853" height="327.811" viewBox="0 0 297.04955 307.32263"><path style="isolation:auto;mix-blend-mode:normal" color="#000" overflow="visible" fill="#fff" fill-rule="evenodd" d="M0 0h225.263v271.627H0z"/><path style="isolation:auto;mix-blend-mode:normal" color="#000" overflow="visible" fill="#e3e3e3" fill-rule="evenodd" d="M11.287 18.321H37.36v26.072H11.287zM11.287 53.53H37.36V79.6H11.287zM11.287 88.738H37.36v26.072H11.287zM11.287 123.946H37.36v26.072H11.287zM11.287 159.155H37.36v26.071H11.287zM11.287 194.363H37.36v26.071H11.287zM11.287 229.572H37.36v26.071H11.287zM42.001 18.59h100.94v15.202H42.002zM42.001 53.645h100.94v15.203H42.002zM42.001 88.7h100.94v15.203H42.002zM42.001 123.755h100.94v15.203H42.002zM42.001 158.81h100.94v15.204H42.002zM42.001 193.866h100.94v15.203H42.002zM42.001 228.921h100.94v15.203H42.002zM149.817 18.768h60.979V33.97h-60.979zM149.817 53.824h60.979v15.203h-60.979zM149.817 88.878h60.979v15.203h-60.979zM149.817 123.934h60.979v15.203h-60.979zM149.817 158.99h60.979v15.203h-60.979zM149.817 194.045h60.979v15.203h-60.979zM149.817 229.1h60.979v15.203h-60.979z"/><g fill="#69bc1b"><path d="M295.68 156.561l-26.144-22.975a4.012 4.012 0 0 0-2.92-.996 4.035 4.035 0 0 0-2.768 1.365L169.024 241.88l-33.716-44.627a4.02 4.02 0 0 0-2.658-1.558 3.976 3.976 0 0 0-2.985.776l-27.77 20.978a4.03 4.03 0 0 0-.787 5.646l62.43 82.63a4.035 4.035 0 0 0 3.068 1.598h.147a4.029 4.029 0 0 0 3.03-1.37l126.262-143.704a4.027 4.027 0 0 0-.365-5.688z"/></g></svg>