<?xml version="1.0" encoding="UTF-8" standalone="no"?>
<!-- Created with Inkscape (http://www.inkscape.org/) -->

<svg
   xmlns:dc="http://purl.org/dc/elements/1.1/"
   xmlns:cc="http://creativecommons.org/ns#"
   xmlns:rdf="http://www.w3.org/1999/02/22-rdf-syntax-ns#"
   xmlns:svg="http://www.w3.org/2000/svg"
   xmlns="http://www.w3.org/2000/svg"
   xmlns:sodipodi="http://sodipodi.sourceforge.net/DTD/sodipodi-0.dtd"
   xmlns:inkscape="http://www.inkscape.org/namespaces/inkscape"
   width="103.30526mm"
   height="103.37273mm"
   viewBox="0 0 366.04226 366.28134"
   id="svg24017"
   version="1.1"
   inkscape:version="0.91 r13725"
   sodipodi:docname="avance_13.svg">
  <defs
     id="defs24019" />
  <sodipodi:namedview
     id="base"
     pagecolor="#ffffff"
     bordercolor="#666666"
     borderopacity="1.0"
     inkscape:pageopacity="0.0"
     inkscape:pageshadow="2"
     inkscape:zoom="0.35"
     inkscape:cx="-320.5503"
     inkscape:cy="326.18818"
     inkscape:document-units="px"
     inkscape:current-layer="layer1"
     showgrid="false"
     fit-margin-top="0"
     fit-margin-left="0"
     fit-margin-right="0"
     fit-margin-bottom="0"
     inkscape:window-width="1855"
     inkscape:window-height="1056"
     inkscape:window-x="1431"
     inkscape:window-y="24"
     inkscape:window-maximized="1" />
  <metadata
     id="metadata24022">
    <rdf:RDF>
      <cc:Work
         rdf:about="">
        <dc:format>image/svg+xml</dc:format>
        <dc:type
           rdf:resource="http://purl.org/dc/dcmitype/StillImage" />
        <dc:title></dc:title>
      </cc:Work>
    </rdf:RDF>
  </metadata>
  <g
     inkscape:label="Layer 1"
     inkscape:groupmode="layer"
     id="layer1"
     transform="translate(-208.40744,-492.26904)">
    <g
       style="display:inline;opacity:1"
       id="g23968"
       transform="matrix(6.1042493,0,0,6.1042493,196.19894,480.06054)">
      <path
         id="path23924"
         d="M 23.5,13.1 C 25,9.2 35.7,2 35.7,2 c 0,0 3.4,12.9 2,16.7 -1.4,3.9 -5.7,5.7 -9.6,4.2 -4,-1.6 -6,-6 -4.6,-9.8"
         inkscape:connector-curvature="0"
         style="fill:#8cc63e" />
      <path
         id="path23926"
         d="M 17.2,20.8 C 15.4,17.1 18,4.3 18,4.3 c 0,0 11.4,6.7 13.1,10.5 1.7,3.7 0,8.1 -3.9,9.8 -3.8,1.6 -8.3,-0.1 -10,-3.8"
         inkscape:connector-curvature="0"
         style="fill:#64892f" />
      <path
         id="path23928"
         d="M 20.7,17.2 C 17,15.5 4.3,18 4.3,18 c 0,0 6.7,11.5 10.4,13.3 3.7,1.7 8.1,0 9.7,-3.9 1.7,-3.9 0,-8.5 -3.7,-10.2"
         inkscape:connector-curvature="0"
         style="fill:#8cc63e" />
      <path
         id="path23930"
         d="M 13,23.6 C 9.2,25.1 2,35.9 2,35.9 c 0,0 12.8,3.4 16.7,2 3.8,-1.4 5.7,-5.8 4.1,-9.7 -1.6,-4 -5.9,-6 -9.8,-4.6"
         inkscape:connector-curvature="0"
         style="fill:#64892f" />
      <path
         id="path23932"
         d="M 51.5,16.7 C 63,28.3 64.3,53.4 58.9,58.9 53.4,64.4 28.5,63 16.9,51.4 8.4,42.9 12.4,30 21.2,21.1 30.1,12.2 43,8.2 51.5,16.7"
         inkscape:connector-curvature="0"
         style="fill:#ff483b;fill-opacity:1" />
      <g
         id="g23934"
         style="fill:#fff0f0">
        <path
           id="path23936"
           d="m 40.7,15.7 c -0.5,0 -1,0.2 -1.3,0.6 -0.5,0.8 -0.1,2 1.1,2.8 0.6,0.4 1.2,0.6 1.7,0.6 0.5,0 1,-0.2 1.2,-0.6 0.5,-0.8 0.1,-2 -1.1,-2.8 -0.4,-0.4 -1,-0.6 -1.6,-0.6"
           inkscape:connector-curvature="0" />
        <path
           id="path23938"
           d="m 44.4,33.2 c -0.3,0 -0.6,0.1 -0.9,0.3 -0.7,0.6 -0.5,1.9 0.3,3 0.6,0.7 1.4,1.1 2,1.1 0.3,0 0.6,-0.1 0.9,-0.3 0.7,-0.6 0.5,-1.9 -0.3,-3 -0.6,-0.7 -1.4,-1.1 -2,-1.1"
           inkscape:connector-curvature="0" />
        <path
           id="path23940"
           d="m 35.8,24.6 c -0.3,0 -0.6,0.1 -0.9,0.3 -0.7,0.6 -0.6,1.9 0.3,3 0.6,0.7 1.4,1.1 2,1.1 0.3,0 0.6,-0.1 0.9,-0.3 0.7,-0.6 0.6,-1.9 -0.3,-3 -0.6,-0.7 -1.4,-1.1 -2,-1.1"
           inkscape:connector-curvature="0" />
        <path
           id="path23942"
           d="m 50.5,25.6 c -0.2,0 -0.4,0 -0.6,0.1 -0.8,0.4 -0.9,1.8 -0.3,3 0.5,0.9 1.3,1.5 2.1,1.5 0.2,0 0.4,0 0.6,-0.1 0.8,-0.4 0.9,-1.8 0.3,-3 -0.5,-0.9 -1.4,-1.5 -2.1,-1.5"
           inkscape:connector-curvature="0" />
        <path
           id="path23944"
           d="m 55.1,38.8 c -0.1,0 -0.2,0 -0.3,0 -0.9,0.2 -1.4,1.5 -1,2.8 0.3,1.2 1.1,2 2,2 0.1,0 0.2,0 0.3,0 0.9,-0.2 1.4,-1.5 1,-2.8 -0.4,-1.2 -1.2,-2 -2,-2"
           inkscape:connector-curvature="0" />
        <path
           id="path23946"
           d="m 53.9,51.2 c -0.3,0 -0.7,0.1 -0.9,0.3 -0.7,0.6 -0.5,2 0.4,3 0.6,0.7 1.4,1 2,1 0.3,0 0.7,-0.1 0.9,-0.3 0.7,-0.6 0.5,-2 -0.4,-3 -0.6,-0.6 -1.3,-1 -2,-1"
           inkscape:connector-curvature="0" />
        <path
           id="path23948"
           d="m 31.7,49.7 c -0.5,0 -1,0.2 -1.3,0.6 -0.5,0.8 0,2 1.1,2.8 0.6,0.4 1.2,0.6 1.7,0.6 0.5,0 1,-0.2 1.3,-0.6 0.5,-0.8 0,-2 -1.1,-2.8 -0.5,-0.4 -1.1,-0.6 -1.7,-0.6"
           inkscape:connector-curvature="0" />
        <path
           id="path23950"
           d="m 20.2,46.4 c -0.6,0 -1,0.2 -1.3,0.6 -0.5,0.8 0,2 1.1,2.8 0.6,0.4 1.2,0.6 1.7,0.6 0.5,0 1,-0.2 1.3,-0.6 0.5,-0.8 0,-2 -1.1,-2.8 -0.6,-0.4 -1.2,-0.6 -1.7,-0.6"
           inkscape:connector-curvature="0" />
        <path
           id="path23952"
           d="m 41.6,54.5 c -0.8,0 -1.4,0.3 -1.7,0.9 -0.3,0.9 0.4,2 1.7,2.5 0.4,0.2 0.9,0.3 1.3,0.3 0.8,0 1.4,-0.3 1.7,-0.9 0.3,-0.9 -0.4,-2 -1.7,-2.5 -0.4,-0.2 -0.9,-0.3 -1.3,-0.3"
           inkscape:connector-curvature="0" />
        <path
           id="path23954"
           d="m 43.9,44.5 c -0.6,0 -1.1,0.2 -1.4,0.7 -0.5,0.8 0.1,2 1.3,2.7 0.5,0.3 1.1,0.5 1.6,0.5 0.6,0 1.1,-0.2 1.4,-0.7 0.5,-0.8 -0.1,-2 -1.3,-2.7 -0.6,-0.3 -1.1,-0.5 -1.6,-0.5"
           inkscape:connector-curvature="0" />
        <path
           id="path23956"
           d="m 33.2,37.4 c -0.5,0 -0.9,0.2 -1.1,0.5 -0.6,0.7 -0.2,2 0.8,2.9 0.6,0.5 1.3,0.7 1.9,0.7 0.5,0 0.9,-0.2 1.1,-0.5 0.6,-0.7 0.2,-2 -0.8,-2.9 -0.6,-0.4 -1.3,-0.7 -1.9,-0.7"
           inkscape:connector-curvature="0" />
        <path
           id="path23958"
           d="m 24.5,23.9 c -0.4,0 -0.7,0.1 -1,0.4 -0.7,0.7 -0.4,2 0.5,2.9 0.6,0.6 1.3,0.9 2,0.9 0.4,0 0.7,-0.1 1,-0.4 0.7,-0.7 0.4,-2 -0.5,-2.9 -0.6,-0.6 -1.3,-0.9 -2,-0.9"
           inkscape:connector-curvature="0" />
        <path
           id="path23960"
           d="m 21.7,34.7 c -0.5,0 -0.9,0.2 -1.2,0.5 -0.6,0.7 -0.2,2 0.9,2.9 0.6,0.5 1.3,0.7 1.8,0.7 0.5,0 0.9,-0.2 1.2,-0.5 0.6,-0.7 0.2,-2 -0.9,-2.9 -0.6,-0.4 -1.3,-0.7 -1.8,-0.7"
           inkscape:connector-curvature="0" />
      </g>
    </g>
  </g>
</svg>
