<svg xmlns="http://www.w3.org/2000/svg" width="202.904" height="276.792" viewBox="0 0 190.22236 259.49237"><g fill="#fff" stroke="none" color="#000" fill-rule="evenodd"><g fill="silver"><path style="isolation:auto;mix-blend-mode:normal" overflow="visible" d="M190.221 0v80.67h-53.298V0zM190.221 86.433v80.67h-53.298v-80.67zM190.221 172.862v80.67h-53.298v-80.67zM130.64 0v80.67h-53.3V0zM130.64 86.433v80.67h-53.3v-80.67zM130.64 172.862v80.67h-53.3v-80.67zM71.053 0v80.67H17.754V0zM71.053 86.433v80.67H17.754v-80.67zM71.053 172.862v80.67H17.754v-80.67z"/></g><g fill="#dfdfdf"><path style="isolation:auto;mix-blend-mode:normal" overflow="visible" d="M181.345 2.98v80.67h-53.299V2.98zM181.345 89.413v80.67h-53.299v-80.67zM181.345 175.843v80.669h-53.299v-80.67zM121.762 2.98v80.67H68.464V2.98zM121.762 89.413v80.67H68.464v-80.67zM121.762 175.843v80.669H68.464v-80.67zM62.176 2.98v80.67H8.878V2.98zM62.176 89.413v80.67H8.878v-80.67zM62.176 175.843v80.669H8.878v-80.67z"/></g><path style="isolation:auto;mix-blend-mode:normal" overflow="visible" d="M172.468 5.96v80.67h-53.299V5.96zM172.468 92.393v80.67h-53.299v-80.67zM172.468 178.822v80.67h-53.299v-80.67zM112.885 5.96v80.67H59.587V5.96zM112.885 92.393v80.67H59.587v-80.67zM112.885 178.822v80.67H59.587v-80.67zM53.299 5.96v80.67H0V5.96zM53.299 92.393v80.67H0v-80.67zM53.299 178.822v80.67H0v-80.67z"/></g></svg>