<svg xmlns="http://www.w3.org/2000/svg" width="205.056" height="184.087" viewBox="0 0 192.23982 172.58117"><path style="isolation:auto;mix-blend-mode:normal" d="M96.26 17.463l95.688 51.602h.013v.006l.279.15h-.28v103.36H0V69.065h.571L96.26 17.464z" color="#000" overflow="visible" fill="#bfbfbf" fill-rule="evenodd"/><g fill="#69bc1b"><path d="M190.224 18.563L169.986.778a3.105 3.105 0 0 0-2.26-.77 3.123 3.123 0 0 0-2.143 1.056L92.18 84.609l-26.1-34.546a3.112 3.112 0 0 0-2.058-1.206 3.078 3.078 0 0 0-2.31.6l-21.498 16.24a3.12 3.12 0 0 0-.608 4.37l48.327 63.964a3.124 3.124 0 0 0 2.375 1.237h.114c.895 0 1.75-.384 2.345-1.06l97.74-111.242a3.118 3.118 0 0 0-.283-4.403z"/></g><path d="M191.96 69.065V172.58H0V69.065l95.98 51.758 95.98-51.758z" style="isolation:auto;mix-blend-mode:normal" color="#000" overflow="visible" fill="#fff" fill-rule="evenodd"/></svg>