<?xml version="1.0" encoding="UTF-8" standalone="no"?>
<!-- Created with Inkscape (http://www.inkscape.org/) -->

<svg
   xmlns:dc="http://purl.org/dc/elements/1.1/"
   xmlns:cc="http://creativecommons.org/ns#"
   xmlns:rdf="http://www.w3.org/1999/02/22-rdf-syntax-ns#"
   xmlns:svg="http://www.w3.org/2000/svg"
   xmlns="http://www.w3.org/2000/svg"
   xmlns:sodipodi="http://sodipodi.sourceforge.net/DTD/sodipodi-0.dtd"
   xmlns:inkscape="http://www.inkscape.org/namespaces/inkscape"
   width="68.239662mm"
   height="47.693085mm"
   viewBox="0 0 241.79408 168.99124"
   id="svg16644"
   version="1.1"
   inkscape:version="0.91 r13725"
   sodipodi:docname="avance_07.svg">
  <defs
     id="defs16646" />
  <sodipodi:namedview
     id="base"
     pagecolor="#ffffff"
     bordercolor="#666666"
     borderopacity="1.0"
     inkscape:pageopacity="0.0"
     inkscape:pageshadow="2"
     inkscape:zoom="0.35"
     inkscape:cx="143.03994"
     inkscape:cy="370.2099"
     inkscape:document-units="px"
     inkscape:current-layer="layer1"
     showgrid="false"
     fit-margin-top="0"
     fit-margin-left="0"
     fit-margin-right="0"
     fit-margin-bottom="0"
     inkscape:window-width="1855"
     inkscape:window-height="1056"
     inkscape:window-x="1431"
     inkscape:window-y="24"
     inkscape:window-maximized="1" />
  <metadata
     id="metadata16649">
    <rdf:RDF>
      <cc:Work
         rdf:about="">
        <dc:format>image/svg+xml</dc:format>
        <dc:type
           rdf:resource="http://purl.org/dc/dcmitype/StillImage" />
        <dc:title></dc:title>
      </cc:Work>
    </rdf:RDF>
  </metadata>
  <g
     inkscape:label="Layer 1"
     inkscape:groupmode="layer"
     id="layer1"
     transform="translate(255.1828,-733.58086)">
    <g
       style="font-style:normal;font-variant:normal;font-weight:normal;font-stretch:normal;font-size:105.78314972px;line-height:125%;font-family:roboto;-inkscape-font-specification:'roboto, Normal';text-align:start;letter-spacing:0px;word-spacing:0px;writing-mode:lr-tb;text-anchor:start;display:inline;opacity:1;fill:#ff898a;fill-opacity:1;stroke:none;stroke-width:1px;stroke-linecap:butt;stroke-linejoin:miter;stroke-opacity:1"
       id="text10521"
       transform="translate(1450.162,-1550.4193)">
      <path
         style="display:inline;opacity:1;fill:#ff898a;fill-opacity:1"
         d="m -1593.5713,2284.0009 c -2.6255,-0.01 -5.2145,0.082 -7.7442,0.2773 -12.312,0.9484 -22.8989,3.138 -32.4277,6.707 -2.7329,1.0236 -5.4141,1.8524 -5.959,1.8418 -0.5449,-0.011 -2.5468,-1.2066 -4.4492,-2.6562 -7.2181,-5.4997 -12.1847,-7.1878 -15.6641,-5.3262 -2.6833,1.4357 -3.116,3.1441 -3.373,13.3223 l -0.2344,9.3125 -4.9043,4.8496 c -7.9343,7.846 -12.8103,14.7972 -17.0996,24.3789 l -2.1621,4.8301 -4.7559,0.8965 c -2.616,0.4935 -5.6474,1.0419 -6.7363,1.2187 -2.6108,0.4237 -5.0411,2.5361 -5.7168,4.9688 -0.2996,1.0787 -0.5469,7.4694 -0.5469,14.2011 0,16.6203 0.092,16.7926 10.6153,19.127 3.353,0.7438 6.4235,1.6795 6.8242,2.0801 0.4006,0.4007 1.5299,2.5722 2.5098,4.8261 4.7853,11.0077 12.5462,20.9035 23.8222,30.375 l 2.5332,2.1289 2.3887,12.8848 c 1.3135,7.0863 2.3887,13.3393 2.3887,13.8965 0,1.2878 1.9345,3.7671 3.4004,4.3594 0.6182,0.2498 5.3814,0.4696 10.5859,0.4882 13.7964,0.049 14.75,-0.5998 14.75,-10.0293 0,-2.6263 0.2243,-4.9129 0.498,-5.082 0.2737,-0.1692 3.4464,0.2826 7.0508,1.0039 3.6044,0.7213 8.8786,1.5645 11.7207,1.8731 11.1896,1.2151 27.2639,0.4024 37.1289,-1.877 3.2013,-0.7397 3.5001,-0.7315 4.125,0.1231 0.4062,0.5556 0.6739,2.5586 0.6739,5.0468 0,3.5929 0.1658,4.319 1.2832,5.6192 l 1.2832,1.4941 10.6562,0.1621 c 11.7742,0.1809 13.2497,-0.1196 14.3496,-2.9316 0.3202,-0.8188 1.3374,-6.3984 2.2617,-12.3985 0.9244,-6 1.8346,-11.1813 2.0215,-11.5156 0.1869,-0.3344 2.3755,-2.1028 4.8633,-3.9297 5.8269,-4.2788 14.3877,-12.9199 18.1777,-18.3457 7.6383,-10.9349 10.4517,-18.3868 13.0567,-34.5898 l 0.4277,-2.6602 4.4805,-0.1562 4.4785,-0.1563 2.1719,2.0938 c 1.1946,1.1516 2.8914,2.4496 3.7695,2.8847 3.0323,1.5033 10.9082,2.6398 10.9082,1.5743 0,-0.2258 -2.1164,-1.0537 -4.7051,-1.8418 -5.2238,-1.5902 -7.3667,-2.9435 -6.8398,-4.3164 0.2715,-0.7077 1.1007,-0.8795 4.2129,-0.8848 4.2842,-0.01 8.2305,-1.4498 10.3437,-3.7832 6.6698,-7.3653 3.5868,-19.2233 -5.7168,-21.9863 -3.5087,-1.0418 -4.3808,-1.0394 -7.9726,0.017 -2.1578,0.6348 -3.526,1.5045 -5.3965,3.4336 -3.1347,3.2328 -4.3062,6.8029 -4.0547,12.3575 l 0.1738,3.8457 -2.8242,-0.074 c -1.5538,-0.042 -2.9558,-0.2057 -3.1152,-0.3652 -0.1595,-0.1595 -0.6355,-2.2759 -1.0567,-4.7031 -4.7486,-27.3639 -29.4918,-52.6106 -62.0351,-63.2969 -10.995,-3.6104 -23.0679,-5.5493 -34.4453,-5.5918 l 0,0 z m -25.0371,9.8984 23.8144,0.1387 23.8125,0.1386 0,3.9903 0,3.9922 -23.8125,0.1386 -23.8144,0.1368 0,-4.2676 0,-4.2676 z m 32.7949,35.7656 c 3.65,0 7.6437,0.5341 11.9824,1.6016 l -2.2207,13.9453 c -2.6859,-1.0675 -5.5623,-1.6016 -8.627,-1.6016 -4.7519,0 -8.3847,1.0845 -10.8984,3.2539 -2.5137,2.135 -3.9937,5.4579 -4.4414,9.9688 l 15.9609,0 0,8.2129 -16.1152,0 0,6.3027 16.1152,0 0,8.2637 -16.1152,0 c 0.1722,4.5454 1.3934,7.9029 3.666,10.0723 2.3072,2.1694 6.0948,3.2539 11.3633,3.2539 3.409,0 6.4403,-0.5158 9.0918,-1.5489 l 2.2207,13.8946 c -4.5798,1.033 -9.1075,1.5488 -13.584,1.5488 -9.2973,0 -16.7177,-2.4096 -22.2617,-7.2305 -5.5095,-4.8208 -8.4023,-11.4849 -8.6777,-19.9902 l -8.5235,0 0,-8.2637 8.5235,0 0,-6.3027 -8.5235,0 0,-8.2129 8.6778,0 c 0.6542,-8.5398 3.8568,-15.2019 9.6074,-19.9883 5.7506,-4.7864 13.3442,-7.1797 22.7793,-7.1797 z m -72.9727,4.1563 c 2.8909,0 4.3249,1.8077 4.0098,5.0547 -0.2038,2.0999 -3.2766,3.8809 -5.3399,3.0937 -1.8049,-0.6887 -2.6601,-1.9681 -2.6601,-3.9746 0,-2.6397 1.4666,-4.1738 3.9902,-4.1738 z m 181.6328,8.5879 c 5.1279,0.026 8.6185,3.1057 9.0176,8.08 0.2576,3.2117 -1.0982,5.7383 -3.9844,7.4239 -1.7675,1.0323 -7.4784,1.5795 -11.4531,1.0976 -2.5814,-0.313 -3.2162,-1.5298 -3.1875,-6.1152 0.04,-6.4121 3.021,-10.0505 8.5606,-10.4512 0.356,-0.026 0.705,-0.037 1.0468,-0.035 z"
         id="path10476"
         inkscape:connector-curvature="0" />
    </g>
  </g>
</svg>
