<?xml version="1.0" encoding="UTF-8" standalone="no"?>
<!-- Created with Inkscape (http://www.inkscape.org/) -->

<svg
   xmlns:dc="http://purl.org/dc/elements/1.1/"
   xmlns:cc="http://creativecommons.org/ns#"
   xmlns:rdf="http://www.w3.org/1999/02/22-rdf-syntax-ns#"
   xmlns:svg="http://www.w3.org/2000/svg"
   xmlns="http://www.w3.org/2000/svg"
   xmlns:sodipodi="http://sodipodi.sourceforge.net/DTD/sodipodi-0.dtd"
   xmlns:inkscape="http://www.inkscape.org/namespaces/inkscape"
   width="78.719788mm"
   height="52.295361mm"
   viewBox="0 0 278.92838 185.29852"
   id="svg17325"
   version="1.1"
   inkscape:version="0.91 r13725"
   sodipodi:docname="avance_08.svg">
  <defs
     id="defs17327" />
  <sodipodi:namedview
     id="base"
     pagecolor="#ffffff"
     bordercolor="#666666"
     borderopacity="1.0"
     inkscape:pageopacity="0.0"
     inkscape:pageshadow="2"
     inkscape:zoom="0.35"
     inkscape:cx="15.892796"
     inkscape:cy="315.5064"
     inkscape:document-units="px"
     inkscape:current-layer="layer1"
     showgrid="false"
     fit-margin-top="0"
     fit-margin-left="0"
     fit-margin-right="0"
     fit-margin-bottom="0"
     inkscape:window-width="1855"
     inkscape:window-height="1056"
     inkscape:window-x="1431"
     inkscape:window-y="24"
     inkscape:window-maximized="1" />
  <metadata
     id="metadata17330">
    <rdf:RDF>
      <cc:Work
         rdf:about="">
        <dc:format>image/svg+xml</dc:format>
        <dc:type
           rdf:resource="http://purl.org/dc/dcmitype/StillImage" />
        <dc:title></dc:title>
      </cc:Work>
    </rdf:RDF>
  </metadata>
  <g
     inkscape:label="Layer 1"
     inkscape:groupmode="layer"
     id="layer1"
     transform="translate(128.03565,-662.57008)">
    <g
       style="display:inline;opacity:1"
       id="g11807"
       transform="translate(1898.3751,-2006.6058)">
      <g
         style="display:inline;opacity:1"
         transform="matrix(0.86232743,-0.52744278,-0.52744278,-0.86232743,-2324.4736,3519.1338)"
         id="g8075-7-0-4">
        <g
           transform="translate(741.92734,505.55396)"
           id="g934-6-6-0">
          <path
             inkscape:connector-curvature="0"
             id="path936-4-6-9"
             style="fill:#92d125;fill-opacity:1;fill-rule:nonzero;stroke:none"
             d="M 0,0 -0.011,0.19 C 0.02,0.16 0.05,0.14 0.09,0.12 0.06,0.08 0.04,0.03 0,0 M -1.2,5.99 C -1.21,6.05 -1.24,6.1 -1.25,6.16 -1.221,6.14 -1.181,6.12 -1.15,6.1 -1.171,6.07 -1.181,6.03 -1.2,5.99 m -2.191,5.69 c -0.019,0.06 -0.059,0.11 -0.08,0.17 0.04,-0.02 0.08,-0.03 0.111,-0.04 -0.01,-0.04 -0.021,-0.09 -0.031,-0.13 m -3.089,5.26 c -0.041,0.04 -0.071,0.1 -0.111,0.15 0.04,-0.01 0.08,-0.01 0.12,-0.01 -0.009,-0.05 -0.009,-0.1 -0.009,-0.14 m -4.06,4.8 c 0.05,0.01 0.09,0.02 0.13,0.01 0.01,-0.05 0.019,-0.08 0.01,-0.14 -0.04,0.05 -0.08,0.1 -0.14,0.13 m -33.61,10.23 c 0.04,-0.03 0.089,-0.04 0.139,-0.07 -0.069,-0.02 -0.13,-0.03 -0.199,-0.05 0.029,0.04 0.039,0.08 0.06,0.12 m 6.07,0.72 c 0.05,-0.03 0.09,-0.06 0.12,-0.09 l -0.2,-0.01 c 0.04,0.03 0.05,0.07 0.08,0.1 m 6.12,-0.28 c 0.029,-0.04 0.06,-0.07 0.09,-0.1 -0.061,0 -0.12,0.02 -0.181,0.02 0.03,0.03 0.061,0.06 0.091,0.08 m 5.98,-1.28 c 0.009,-0.05 0.049,-0.09 0.07,-0.12 -0.05,0.01 -0.111,0.04 -0.181,0.05 0.04,0.03 0.07,0.05 0.111,0.07 m 5.679,-2.25 c 0.021,-0.04 0.04,-0.08 0.061,-0.12 -0.061,0.03 -0.111,0.05 -0.17,0.08 0.04,0.01 0.069,0.02 0.109,0.04 m 5.24,-3.15 c 0.01,-0.05 0.031,-0.1 0.04,-0.15 -0.059,0.04 -0.11,0.08 -0.16,0.12 0.031,0 0.09,0.02 0.12,0.03 m -35,4.41 c 0.021,0.03 0.021,0.08 0.04,0.12 0.05,-0.02 0.09,-0.04 0.151,-0.05 -0.07,-0.03 -0.13,-0.04 -0.191,-0.07 m -5.479,-2.65 c 0,0.04 0.01,0.07 0.019,0.11 0.041,-0.01 0.081,-0.01 0.121,-0.02 -0.05,-0.03 -0.09,-0.07 -0.14,-0.09 m -4.981,-3.55 c 0,0.04 -0.009,0.09 0,0.13 0.05,0 0.1,0.01 0.151,0.01 -0.051,-0.05 -0.101,-0.09 -0.151,-0.14 m -4.339,-4.28 c 0,0.04 -0.01,0.08 -0.021,0.12 0.051,0 0.101,0.01 0.151,0.02 -0.041,-0.05 -0.081,-0.09 -0.13,-0.14 m -3.561,-4.96 c -0.01,0.04 -0.029,0.08 -0.039,0.13 0.05,0 0.09,0.03 0.14,0.04 -0.04,-0.05 -0.061,-0.11 -0.101,-0.17 m -2.71,-5.46 c -0.019,0.04 -0.04,0.07 -0.05,0.11 0.04,0.02 0.071,0.05 0.12,0.07 -0.019,-0.06 -0.049,-0.11 -0.07,-0.18 M -72.91,3.41 c -0.011,0.03 -0.04,0.06 -0.061,0.1 0.04,0.02 0.061,0.05 0.101,0.07 -0.011,-0.06 -0.021,-0.12 -0.04,-0.17 m -0.66,-12.08 c 0.04,0.04 0.059,0.08 0.09,0.12 l 0.02,-0.19 c -0.03,0.02 -0.07,0.04 -0.11,0.07 m -0.111,6.02 c -0.029,0.03 -0.059,0.05 -0.09,0.09 0.031,0.03 0.071,0.08 0.1,0.11 -0.01,-0.07 0,-0.13 -0.01,-0.2 M 8.46,-3.72 c 0.04,0.18 0.08,0.36 0.1,0.54 0.019,0.22 0,0.43 -0.01,0.65 0,0.07 0.01,0.11 0.01,0.11 l -0.01,0 C 8.439,-1.07 7.779,0.13 6.76,0.93 7.47,1.85 7.85,3 7.75,4.25 7.609,5.89 6.64,7.27 5.29,8 c 0.55,1.02 0.75,2.23 0.43,3.44 -0.401,1.6 -1.58,2.8 -3.031,3.3 0.38,1.1 0.371,2.32 -0.139,3.46 -0.66,1.52 -2.03,2.5 -3.54,2.76 0.2,1.14 -0.01,2.35 -0.7,3.39 -0.901,1.38 -2.411,2.13 -3.951,2.14 0,1.15 -0.41,2.31 -1.25,3.23 -1.12,1.21 -2.719,1.7 -4.25,1.46 -0.179,1.13 -0.769,2.21 -1.75,2.97 -1.309,1.02 -2.969,1.25 -4.429,0.75 -0.38,1.09 -1.13,2.06 -2.231,2.65 -1.449,0.79 -3.13,0.73 -4.489,0.01 -0.551,1.01 -1.45,1.84 -2.641,2.24 -1.549,0.54 -3.2,0.2 -4.42,-0.73 -0.33,0.43 -0.74,0.81 -1.2,1.11 -0.519,0.33 -1.12,0.57 -1.769,0.68 -1.62,0.26 -3.201,-0.33 -4.241,-1.45 -0.849,0.78 -1.979,1.27 -3.229,1.27 -1.65,-0.01 -3.101,-0.85 -3.95,-2.13 -0.96,0.64 -2.151,0.93 -3.391,0.72 -1.619,-0.26 -2.92,-1.34 -3.55,-2.75 -1.049,0.47 -2.269,0.57 -3.45,0.16 -1.559,-0.53 -2.659,-1.8 -3.05,-3.29 -1.12,0.28 -2.349,0.18 -3.439,-0.41 -1.45,-0.79 -2.33,-2.22 -2.46,-3.75 -1.16,0.1 -2.351,-0.21 -3.33,-0.97 -1.3,-1.02 -1.92,-2.58 -1.811,-4.1 -1.16,-0.1 -2.279,-0.59 -3.13,-1.51 -1.109,-1.22 -1.469,-2.85 -1.109,-4.35 -1.12,-0.28 -2.15,-0.95 -2.83,-1.99 -0.91,-1.39 -0.99,-3.06 -0.381,-4.48 -1.059,-0.46 -1.97,-1.29 -2.46,-2.43 -0.67,-1.52 -0.489,-3.18 0.351,-4.47 -0.97,-0.63 -1.731,-1.6 -2.04,-2.81 -0.401,-1.59 0.059,-3.21 1.09,-4.35 -0.85,-0.78 -1.441,-1.87 -1.541,-3.11 -0.139,-1.64 0.581,-3.16 1.791,-4.11 -0.72,-0.91 -1.121,-2.07 -1.02,-3.31 0.069,-0.89 0.399,-1.68 0.88,-2.36 0.29,-1.93 12.55,-9.2 14.01,-17.26 4.95,-27.28 8.79,-79.53 23.75,-95.809 2.219,-2.431 4.689,-4.061 7.45,-4.681 l 0.889,-0.17 c 0.63,-0.09 1.291,-0.14 1.97,-0.13 0.261,0 0.521,0.02 0.79,0.04 0.83,0.07 1.641,0.22 2.431,0.46 1.79,0.53 3.47,1.47 5.04,2.79 17.1,14.3 21.119,72 24.609,104.21 1.05,9.67 10.201,13.37 7.891,21.95" />
        </g>
        <g
           transform="translate(717.88734,375.67406)"
           id="g938-3-4-1">
          <path
             inkscape:connector-curvature="0"
             id="path940-0-6-9"
             style="fill:#69bc1b;fill-opacity:1;fill-rule:nonzero;stroke:none"
             d="M 0,0 C -1.57,-1.32 -3.25,-2.26 -5.04,-2.79 -5.83,-3.03 -6.641,-3.18 -7.471,-3.25 -7.74,-3.271 -8,-3.29 -8.261,-3.29 -8.94,-3.3 -9.601,-3.25 -10.23,-3.16 l -0.89,0.17 c -2.761,0.62 -5.231,2.25 -7.45,4.68 2.299,6.39 5.66,17.34 4.179,22.93 -2.17,8.17 -7.519,10.24 -9.899,19.06 0.34,-0.57 6.1,-10.3 8.89,-8.78 2.879,1.57 -9.18,22.5 -6.481,36.43 0,0 6.051,-24.93 10.171,-16.98 0,0 1.76,8.68 3.449,19.15 1.5,9.28 2.941,19.97 3.051,27.28 0,0 2.21,-39.45 0.489,-49.13 0,0 3.061,2.01 6.311,4.86 3.25,2.86 6.71,6.55 7.519,9.96 C 9.04,65.86 7.729,55.97 -4.03,43.18 c -2.08,-2.25 0.3,-11.84 0.3,-11.84 0,0 10.679,13.49 13.639,11.14 0,0 -12.43,-15.73 -12.699,-18.59 C -3.011,21.61 -0.881,6.229 0,0" />
        </g>
      </g>
      <g
         style="display:inline;opacity:1"
         transform="matrix(0.41060178,-0.46720117,-0.46720117,-0.41060178,-2123.3841,3152.4592)"
         id="g8151-06-5-3">
        <g
           transform="translate(719.88734,96.964159)"
           id="g1290-4-3-2">
          <path
             inkscape:connector-curvature="0"
             id="path1292-6-3-1"
             style="fill:#005913;fill-opacity:1;fill-rule:nonzero;stroke:none"
             d="M 0,0 C -0.82,-0.061 -1.65,-0.11 -2.511,-0.13 -2.86,-0.15 -3.21,-0.16 -3.57,-0.16 c -0.34,-0.01 -0.68,-0.01 -1.021,-0.01 -54.5,0 -41.25,68.03 -28.26,105.18 5.951,17.02 4.17,42.17 3.701,62.56 -0.35,15.61 7.179,26.61 10.73,30.9 1.079,1.31 1.789,2 1.789,2 3.681,2.08 8.7,4.03 14.12,4.09 0.271,0.01 0.54,0.01 0.811,0 0.04,0.01 0.069,0.01 0.109,0 0.53,-0.01 1.061,-0.05 1.591,-0.1 4.069,-0.41 8.279,-1.99 12.239,-5.46 l 0.011,0 c 2.04,-1.79 4.01,-4.07 5.869,-6.94 C 29.239,174.85 18.1,152.02 22.75,120.31 27.909,85.13 55.09,4.189 0,0" />
        </g>
        <g
           transform="translate(719.88734,96.964159)"
           id="g1294-2-8-5">
          <path
             inkscape:connector-curvature="0"
             id="path1296-5-3-9"
             style="fill:#006b17;fill-opacity:1;fill-rule:nonzero;stroke:none"
             d="m 0,0 c -0.801,-0.1 -1.641,-0.15 -2.511,-0.16 -0.13,-0.01 -0.269,-0.01 -0.409,-0.01 -0.221,0 -0.44,0 -0.65,0.01 -33.96,0.849 -25.58,68.25 -17.35,105.17 3.789,17.02 2.649,42.17 2.359,62.56 -0.2,13.85 3.55,24.06 5.97,29.19 1.151,2.42 2,3.71 2,3.71 2.131,1.9 4.981,3.69 8.08,4.03 0.271,0.04 0.54,0.06 0.811,0.06 0.04,0.01 0.069,0.01 0.109,0 0.53,0.02 1.061,-0.01 1.591,-0.1 2.72,-0.43 5.54,-2.15 8.17,-5.981 1.18,-1.699 2.309,-3.819 3.38,-6.419 7.08,-17.21 -0.01,-40.04 2.95,-71.75 C 17.779,85.13 35.109,4.18 0,0" />
        </g>
        <g
           transform="translate(732.13734,295.96416)"
           id="g1298-86-7-9">
          <path
             inkscape:connector-curvature="0"
             id="path1300-2-9-1"
             style="fill:#479706;fill-opacity:1;fill-rule:nonzero;stroke:none"
             d="m 0,0 -0.011,0 c -0.71,-0.061 -2.159,-0.26 -4.069,-0.521 -2.86,-0.389 -6.75,-0.909 -10.681,-1.29 -3.58,-0.339 -7.189,-0.559 -10.08,-0.429 -2.989,0.12 -5.199,0.61 -5.829,1.71 -0.29,0.48 -0.261,1.08 0.149,1.82 0,0 3,8.13 7.741,15.63 4.759,7.5 4.63,13.37 3.5,15.87 -0.47,1.05 1.759,1.59 4.519,1.88 3.811,0.38 8.611,0.26 8.611,0.26 0,0 -2.13,-14.14 0.75,-17.76 C -2.521,13.55 4.199,0.33 0,0" />
        </g>
      </g>
      <g
         style="display:inline;opacity:1"
         id="g8244-6-4"
         transform="matrix(0.52682753,0.42336726,0.42336726,-0.52682753,-2278.1705,2774.2374)">
        <g
           transform="translate(511.15684,542.50416)"
           id="g882-4-8">
          <path
             inkscape:connector-curvature="0"
             id="path884-8-0"
             style="fill:#3d8205;fill-opacity:1;fill-rule:nonzero;stroke:none"
             d="m 0,0 c -0.12,-4.41 -0.34,-9.13 -0.67,-14.17 -0.059,-1.05 -0.14,-2.11 -0.22,-3.2 l -6.339,0 c 0,0 -0.161,0.88 -0.431,2.44 -0.5,2.95 -1.35,8.36 -2.1,15 -0.32,2.75 -0.61,5.71 -0.86,8.8 -0.71,8.94 -1.03,18.92 -0.17,27.87 l 9.46,0 C -0.51,30.16 0.11,21.65 0.14,10.9 0.16,7.49 0.12,3.86 0,0" />
        </g>
        <g
           transform="translate(505.99674,526.32396)"
           id="g886-0-4">
          <path
             inkscape:connector-curvature="0"
             id="path888-8-2"
             style="fill:#479706;fill-opacity:1;fill-rule:nonzero;stroke:none"
             d="m 0,0 -0.89,0.45 -1.61,0.8 -9.88,4.95 c 0,0 0.58,3.1 0.22,8.59 -0.529,8.17 -3.14,21.66 -12.85,38.13 l 6.68,0 C -14.59,49.37 -9.97,41.57 -5.46,25.05 -4.74,22.39 -4,19.51 -3.279,16.38 -2.33,12.25 -1.399,7.7 -0.479,2.69 -0.33,1.81 -0.16,0.91 0,0" />
        </g>
        <g
           transform="translate(517.41565,531.56816)"
           id="g890-1-9">
          <path
             inkscape:connector-curvature="0"
             id="path892-0-6"
             style="fill:#479706;fill-opacity:1;fill-rule:nonzero;stroke:none"
             d="m 0,0 -6.928,-3.236 -5.563,-2.598 c 0.064,0.347 0.118,0.692 0.183,1.039 0.129,0.758 0.271,1.505 0.412,2.241 1.807,9.808 3.766,17.828 5.78,24.388 4.579,14.972 9.418,22.322 13.445,25.841 l 7.437,0 C -3.052,19.995 0,0 0,0" />
        </g>
        <g
           transform="translate(534.86684,523.03396)"
           id="g894-2-1">
          <path
             inkscape:connector-curvature="0"
             id="path896-29-0"
             style="fill:#f58042;fill-opacity:1;fill-rule:nonzero;stroke:none"
             d="m 0,0 c 0,-5.35 -0.82,-17.44 -2.07,-32.41 -0.24,-2.76 -0.48,-5.62 -0.75,-8.56 -1.52,-17.19 -3.47,-36.88 -5.38,-54.14 -0.23,-2.21 -0.48,-4.4 -0.72,-6.53 -2.29,-20.01 -4.4,-35.51 -5.519,-37.819 -5.771,-11.901 -9.481,-13.531 -14.431,-13.531 -4.95,0 -8.66,1.63 -14.43,13.531 -0.66,1.359 -1.66,7.219 -2.83,15.879 -0.2,1.55 -0.42,3.18 -0.63,4.89 -3.33,25.96 -7.719,69.98 -9.79,97.35 -0.25,3.19 -0.46,6.15 -0.63,8.82 -0.36,5.53 -0.56,9.86 -0.56,12.52 0,10.98 8.83,15.89 16.71,18.08 2.78,0.78 5.44,1.21 7.56,1.46 0.47,0.05 0.91,0.1 1.321,0.13 2.009,0.19 3.279,0.19 3.279,0.19 0,0 0.92,0 2.431,-0.11 0.769,-0.06 1.689,-0.15 2.729,-0.28 1.87,-0.23 4.1,-0.62 6.43,-1.23 C -9.26,16.12 0,11.25 0,0" />
        </g>
        <g
           transform="translate(477.68904,510.51836)"
           id="g898-7-4">
          <path
             inkscape:connector-curvature="0"
             id="path900-5-2"
             style="fill:#e26c39;fill-opacity:1;fill-rule:nonzero;stroke:none"
             d="m 0,0 c 0,0 9.79,2.586 23.187,0 0,0 -20.63,-4.245 -22.562,-8.829 L 0,0 Z" />
        </g>
        <g
           transform="translate(481.90004,465.29566)"
           id="g902-6-2">
          <path
             inkscape:connector-curvature="0"
             id="path904-4-2"
             style="fill:#e26c39;fill-opacity:1;fill-rule:nonzero;stroke:none"
             d="m 0,0 c 0,0 9.79,2.586 23.186,0 0,0 -20.63,-4.245 -22.56,-8.829 L 0,0 Z" />
        </g>
        <g
           transform="translate(502.68714,403.25416)"
           id="g906-63-0">
          <path
             inkscape:connector-curvature="0"
             id="path908-7-5"
             style="fill:#e26c39;fill-opacity:1;fill-rule:nonzero;stroke:none"
             d="m 0,0 c 0,0 -7.561,-1.54 -13.95,-3.8 -0.2,1.55 -0.42,3.18 -0.63,4.89 C -10.681,1.27 -5.67,1.1 0,0" />
        </g>
        <g
           transform="translate(532.80924,490.62676)"
           id="g910-9-5">
          <path
             inkscape:connector-curvature="0"
             id="path912-74-2"
             style="fill:#e26c39;fill-opacity:1;fill-rule:nonzero;stroke:none"
             d="m 0,0 c 0,0 -9.79,2.586 -23.186,0 0,0 20.63,-4.245 22.56,-8.829 L 0,0 Z" />
        </g>
        <g
           transform="translate(526.67154,427.92846)"
           id="g914-9-9">
          <path
             inkscape:connector-curvature="0"
             id="path916-17-0"
             style="fill:#e26c39;fill-opacity:1;fill-rule:nonzero;stroke:none"
             d="m 0,0 c -0.238,-2.218 -0.487,-4.404 -0.725,-6.538 -6.441,3.324 -18.987,5.899 -18.987,5.899 C -11.106,1.029 -3.983,0.554 0,0" />
        </g>
      </g>
      <g
         style="display:inline;opacity:1"
         transform="matrix(0.38152957,0.29561692,0.29561692,-0.38152957,-2081.278,2742.2147)"
         id="g8494-7-2">
        <g
           transform="translate(273.27406,78.271536)"
           id="g1110-4-8">
          <path
             inkscape:connector-curvature="0"
             id="path1112-0-3"
             style="fill:#591832;fill-opacity:1;fill-rule:nonzero;stroke:none"
             d="m 0,0 c -7.44,-7.01 -16.72,-11.439 -28.27,-12.46 -37.02,-3.26 -56.76,22.12 -56.76,49.311 0,34.689 22.54,41.779 44.1,80.289 13.04,23.3 17.1,45.95 18.01,62.171 0.83,14.599 -0.89,24 -0.89,24 l 50.5,0 0,-0.101 c 0,-7.74 0.29,-16.72 0.65,-26.55 C 29.47,118.94 34.27,32.25 0,0" />
        </g>
        <g
           transform="translate(308.33366,251.08204)"
           id="g1114-3-8">
          <path
             inkscape:connector-curvature="0"
             id="path1116-2-0"
             style="fill:#479706;fill-opacity:1;fill-rule:nonzero;stroke:none"
             d="M 0,0 C 0,0 -3.18,1.3 -7.72,3.85 -16.01,8.51 -28.83,17.359 -35.06,30.119 -40.26,19.46 -50.06,11.54 -57.98,6.5 -64.74,2.199 -70.12,0 -70.12,0 c 6.49,31.5 12.89,36.369 20.25,39.5 0.62,0.26 1.46,0.619 2.44,1.029 0,0 13.53,4.111 5.69,27.2 l 6.68,0.89 4.03,0.54 c 0,0 -8.21,-20.599 10.78,-29.659 4.26,-2.04 8.34,-3.931 11.81,-9 0.03,-0.03 0.05,-0.07 0.07,-0.101 C -4.73,25.05 -1.78,16.18 0,0" />
        </g>
      </g>
      <g
         style="display:inline;opacity:1"
         id="g8217-0-0-4"
         transform="matrix(0.69096147,-0.18928651,-0.18928651,-0.69096147,-2175.2697,3165.5013)">
        <g
           transform="translate(611.86684,499.33426)"
           id="g850-5-8-9">
          <path
             inkscape:connector-curvature="0"
             id="path852-6-5-1"
             style="fill:#479706;fill-opacity:1;fill-rule:nonzero;stroke:none"
             d="m 0,0 -3.42,2.45 c 0,0 4.74,7.07 -1.21,7.33 -4.47,0.2 -7.13,-9.77 -3.53,-15.72 0.81,-1.33 1.94,-2.47 3.431,-3.24 0.709,-0.36 1.5,-0.65 2.379,-0.83 l -3.58,-0.03 -6.23,-0.06 -6.98,-0.06 -7.08,-0.06 -0.61,-0.01 c 0,0 0.38,0.07 0.99,0.32 0.76,0.31 1.88,0.89 3.02,1.96 0,0.01 0,0.01 0.01,0.01 1.5,1.42 3.05,3.68 3.89,7.25 1.09,4.67 3.13,9.99 6.76,12.93 2.02,1.64 4.54,2.54 7.66,2.17 C 10.05,12.69 4.5,-0.27 0,0" />
        </g>
        <g
           transform="translate(614.19694,433.26396)"
           id="g854-6-1-0">
          <path
             inkscape:connector-curvature="0"
             id="path856-4-6-7"
             style="fill:#ff483b;fill-opacity:1;fill-rule:nonzero;stroke:none"
             d="m 0,0 c 0,-20.18 -5.66,-38.05 -14.36,-49.02 -0.04,-0.06 -0.09,-0.11 -0.13,-0.16 -2.52,-3.15 -5.29,-5.719 -8.25,-7.6 -3.69,-2.36 -7.68,-3.64 -11.84,-3.64 -19.09,0 -31.86,27.16 -34.57,60.42 -2.72,33.3 3.62,60.41 34.57,60.41 3.27,0 6.44,-0.79 9.44,-2.28 l 0.01,0 c 1.25,-0.62 2.47,-1.36 3.66,-2.22 2.37,-1.69 4.61,-3.83 6.67,-6.36 0.11,-0.12 0.21,-0.25 0.31,-0.38 C -5.72,38.22 0,20.27 0,0" />
        </g>
        <g
           transform="translate(585.03674,433.79956)"
           id="g858-0-6-5">
          <path
             inkscape:connector-curvature="0"
             id="path860-0-2-8"
             style="fill:#ff483b;fill-opacity:1;fill-rule:nonzero;stroke:none"
             d="M 0,0 C 0,-33.369 15.479,-60.417 34.575,-60.417 53.671,-60.417 64.963,-38.906 69.15,0 72.721,33.176 65.63,60.417 34.575,60.417 15.479,60.417 0,33.367 0,0" />
        </g>
        <g
           transform="translate(623.14714,433.26396)"
           id="g862-4-1-7">
          <path
             inkscape:connector-curvature="0"
             id="path864-6-9-0"
             style="fill:#ff6340;fill-opacity:1;fill-rule:nonzero;stroke:none"
             d="m 0,0 c 0,-25.71 -6.28,-47.67 -15.12,-56.399 -2.59,-2.551 -5.39,-3.971 -8.32,-4.011 -0.06,-0.01 -0.11,-0.01 -0.17,-0.01 -2.84,0 -5.56,1.28 -8.08,3.64 -9.05,8.43 -15.52,30.67 -15.52,56.78 0,25.29 -0.79,46.8 9.71,55.85 0.12,0.1 0.25,0.21 0.38,0.31 0.92,0.75 1.92,1.41 3.019,1.96 0,0.01 0,0.01 0.011,0.01 l 0.01,0 c 2.83,1.45 6.28,2.24 10.47,2.28 l 0.17,0 c 1.419,0.01 2.75,-0.08 4,-0.28 2.169,-0.32 4.089,-0.93 5.799,-1.81 C -0.01,51.36 0,27.78 0,0" />
        </g>
      </g>
      <g
         style="display:inline;opacity:1"
         id="g8244-6-4-3"
         transform="matrix(0.52682753,0.42336726,0.42336726,-0.52682753,-2273.0829,2786.1538)">
        <g
           transform="translate(511.15684,542.50416)"
           id="g882-4-8-8">
          <path
             inkscape:connector-curvature="0"
             id="path884-8-0-0"
             style="fill:#3d8205;fill-opacity:1;fill-rule:nonzero;stroke:none"
             d="m 0,0 c -0.12,-4.41 -0.34,-9.13 -0.67,-14.17 -0.059,-1.05 -0.14,-2.11 -0.22,-3.2 l -6.339,0 c 0,0 -0.161,0.88 -0.431,2.44 -0.5,2.95 -1.35,8.36 -2.1,15 -0.32,2.75 -0.61,5.71 -0.86,8.8 -0.71,8.94 -1.03,18.92 -0.17,27.87 l 9.46,0 C -0.51,30.16 0.11,21.65 0.14,10.9 0.16,7.49 0.12,3.86 0,0" />
        </g>
        <g
           transform="translate(505.99674,526.32396)"
           id="g886-0-4-4">
          <path
             inkscape:connector-curvature="0"
             id="path888-8-2-7"
             style="fill:#479706;fill-opacity:1;fill-rule:nonzero;stroke:none"
             d="m 0,0 -0.89,0.45 -1.61,0.8 -9.88,4.95 c 0,0 0.58,3.1 0.22,8.59 -0.529,8.17 -3.14,21.66 -12.85,38.13 l 6.68,0 C -14.59,49.37 -9.97,41.57 -5.46,25.05 -4.74,22.39 -4,19.51 -3.279,16.38 -2.33,12.25 -1.399,7.7 -0.479,2.69 -0.33,1.81 -0.16,0.91 0,0" />
        </g>
        <g
           transform="translate(517.41565,531.56816)"
           id="g890-1-9-6">
          <path
             inkscape:connector-curvature="0"
             id="path892-0-6-8"
             style="fill:#479706;fill-opacity:1;fill-rule:nonzero;stroke:none"
             d="m 0,0 -6.928,-3.236 -5.563,-2.598 c 0.064,0.347 0.118,0.692 0.183,1.039 0.129,0.758 0.271,1.505 0.412,2.241 1.807,9.808 3.766,17.828 5.78,24.388 4.579,14.972 9.418,22.322 13.445,25.841 l 7.437,0 C -3.052,19.995 0,0 0,0" />
        </g>
        <g
           transform="translate(534.86684,523.03396)"
           id="g894-2-1-9">
          <path
             inkscape:connector-curvature="0"
             id="path896-29-0-0"
             style="fill:#f58042;fill-opacity:1;fill-rule:nonzero;stroke:none"
             d="m 0,0 c 0,-5.35 -0.82,-17.44 -2.07,-32.41 -0.24,-2.76 -0.48,-5.62 -0.75,-8.56 -1.52,-17.19 -3.47,-36.88 -5.38,-54.14 -0.23,-2.21 -0.48,-4.4 -0.72,-6.53 -2.29,-20.01 -4.4,-35.51 -5.519,-37.819 -5.771,-11.901 -9.481,-13.531 -14.431,-13.531 -4.95,0 -8.66,1.63 -14.43,13.531 -0.66,1.359 -1.66,7.219 -2.83,15.879 -0.2,1.55 -0.42,3.18 -0.63,4.89 -3.33,25.96 -7.719,69.98 -9.79,97.35 -0.25,3.19 -0.46,6.15 -0.63,8.82 -0.36,5.53 -0.56,9.86 -0.56,12.52 0,10.98 8.83,15.89 16.71,18.08 2.78,0.78 5.44,1.21 7.56,1.46 0.47,0.05 0.91,0.1 1.321,0.13 2.009,0.19 3.279,0.19 3.279,0.19 0,0 0.92,0 2.431,-0.11 0.769,-0.06 1.689,-0.15 2.729,-0.28 1.87,-0.23 4.1,-0.62 6.43,-1.23 C -9.26,16.12 0,11.25 0,0" />
        </g>
        <g
           transform="translate(477.68904,510.51836)"
           id="g898-7-4-6">
          <path
             inkscape:connector-curvature="0"
             id="path900-5-2-8"
             style="fill:#e26c39;fill-opacity:1;fill-rule:nonzero;stroke:none"
             d="m 0,0 c 0,0 9.79,2.586 23.187,0 0,0 -20.63,-4.245 -22.562,-8.829 L 0,0 Z" />
        </g>
        <g
           transform="translate(481.90004,465.29566)"
           id="g902-6-2-7">
          <path
             inkscape:connector-curvature="0"
             id="path904-4-2-9"
             style="fill:#e26c39;fill-opacity:1;fill-rule:nonzero;stroke:none"
             d="m 0,0 c 0,0 9.79,2.586 23.186,0 0,0 -20.63,-4.245 -22.56,-8.829 L 0,0 Z" />
        </g>
        <g
           transform="translate(502.68714,403.25416)"
           id="g906-63-0-0">
          <path
             inkscape:connector-curvature="0"
             id="path908-7-5-3"
             style="fill:#e26c39;fill-opacity:1;fill-rule:nonzero;stroke:none"
             d="m 0,0 c 0,0 -7.561,-1.54 -13.95,-3.8 -0.2,1.55 -0.42,3.18 -0.63,4.89 C -10.681,1.27 -5.67,1.1 0,0" />
        </g>
        <g
           transform="translate(532.80924,490.62676)"
           id="g910-9-5-3">
          <path
             inkscape:connector-curvature="0"
             id="path912-74-2-3"
             style="fill:#e26c39;fill-opacity:1;fill-rule:nonzero;stroke:none"
             d="m 0,0 c 0,0 -9.79,2.586 -23.186,0 0,0 20.63,-4.245 22.56,-8.829 L 0,0 Z" />
        </g>
        <g
           transform="translate(526.67154,427.92846)"
           id="g914-9-9-7">
          <path
             inkscape:connector-curvature="0"
             id="path916-17-0-3"
             style="fill:#e26c39;fill-opacity:1;fill-rule:nonzero;stroke:none"
             d="m 0,0 c -0.238,-2.218 -0.487,-4.404 -0.725,-6.538 -6.441,3.324 -18.987,5.899 -18.987,5.899 C -11.106,1.029 -3.983,0.554 0,0" />
        </g>
      </g>
      <path
         sodipodi:nodetypes="ccccc"
         inkscape:connector-curvature="0"
         id="rect11484"
         d="m -1998.0818,2754.9744 218.698,0 -20,99.5 -178.698,0 z"
         style="color:#000000;clip-rule:nonzero;display:inline;overflow:visible;visibility:visible;opacity:1;isolation:auto;mix-blend-mode:normal;color-interpolation:sRGB;color-interpolation-filters:linearRGB;solid-color:#000000;solid-opacity:1;fill:#ffffff;fill-opacity:1;fill-rule:evenodd;stroke:none;stroke-width:2;stroke-linecap:butt;stroke-linejoin:miter;stroke-miterlimit:4;stroke-dasharray:none;stroke-dashoffset:0;stroke-opacity:1;color-rendering:auto;image-rendering:auto;shape-rendering:auto;text-rendering:auto;enable-background:accumulate" />
      <text
         sodipodi:linespacing="125%"
         id="text10943"
         y="2833.9067"
         x="-1958.993"
         style="font-style:normal;font-variant:normal;font-weight:normal;font-stretch:normal;font-size:79.64858246px;line-height:125%;font-family:roboto;-inkscape-font-specification:'roboto, Normal';text-align:start;letter-spacing:0px;word-spacing:0px;writing-mode:lr-tb;text-anchor:start;display:inline;opacity:1;fill:#92d125;fill-opacity:1;stroke:none;stroke-width:1px;stroke-linecap:butt;stroke-linejoin:miter;stroke-opacity:1"
         xml:space="preserve"><tspan
           style="font-style:normal;font-variant:normal;font-weight:900;font-stretch:normal;font-family:roboto;-inkscape-font-specification:'roboto Heavy';fill:#92d125;fill-opacity:1"
           y="2833.9067"
           x="-1958.993"
           id="tspan10945"
           sodipodi:role="line">10€</tspan></text>
    </g>
  </g>
</svg>
