<svg xmlns="http://www.w3.org/2000/svg" viewBox="0 0 484.90819 196.0656" height="209.137" width="517.235"><path d="M106.894 150.95a3.786 3.786 0 1 0 0 7.572 3.786 3.786 0 0 0 0-7.571zm0 10.744a1.605 1.605 0 1 0 0 3.21 1.605 1.605 0 0 0 0-3.21zm11.41-1.563l9.19 9.192a25.102 25.102 0 0 0 4.282-10.334h-13c-.14.39-.297.771-.473 1.142zm-7.157 6.49v12.998a25.116 25.116 0 0 0 10.332-4.283l-9.191-9.191a12.57 12.57 0 0 1-1.141.475zm7.155-17.28c.176.372.335.752.475 1.143h12.999a25.108 25.108 0 0 0-4.283-10.333l-9.19 9.19zM101.5 143.33a12.57 12.57 0 0 1 1.141-.476v-12.998c-3.8.645-7.312 2.14-10.332 4.282l9.19 9.192zm-9.191 32.007a25.108 25.108 0 0 0 10.333 4.283V166.62c-.39-.14-.771-.299-1.143-.475l-9.19 9.19zm21.543-20.6a1.605 1.605 0 1 0 3.21 0 1.605 1.605 0 0 0-3.21 0zm-13.917 0a1.605 1.605 0 1 0-3.21 0 1.605 1.605 0 0 0 3.21 0zm21.544-20.6a25.109 25.109 0 0 0-10.332-4.282v12.998c.39.14.77.3 1.141.475l9.191-9.19zm-14.585 13.642a1.605 1.605 0 1 0-.001-3.21 1.605 1.605 0 0 0 0 3.21zm0-34.37c-22.826 0-41.33 18.503-41.33 41.329 0 22.825 18.504 41.329 41.33 41.329 22.825 0 41.329-18.505 41.329-41.33s-18.504-41.329-41.33-41.329zm0 70.85c-16.304 0-29.521-13.217-29.521-29.52 0-16.305 13.217-29.522 29.52-29.522 16.305 0 29.52 13.217 29.52 29.521.001 16.303-13.215 29.52-29.52 29.52zM95.01 158.988H82.012a25.1 25.1 0 0 0 4.282 10.333l9.192-9.191a12.486 12.486 0 0 1-.476-1.142zm.474-9.648l-9.19-9.191a25.102 25.102 0 0 0-4.283 10.334h13c.14-.39.298-.772.473-1.143zm309.569 1.61a3.786 3.786 0 1 0 0 7.572 3.786 3.786 0 0 0 0-7.572zm4.252 15.67v12.998a25.1 25.1 0 0 0 10.333-4.283l-9.19-9.191c-.372.176-.753.336-1.143.475zm10.332-32.484a25.098 25.098 0 0 0-10.332-4.282v12.998c.39.14.77.3 1.14.476l9.192-9.192zm-3.176 25.994l9.19 9.191a25.093 25.093 0 0 0 4.284-10.333h-13c-.138.39-.298.77-.474 1.142zm67.694-30.893c-1.467-3.94-6.76-2.498-8.348-5.01 9.094-13.059-1.339-37.323-.418-36.187-3.43-5.346-11.181-8.215-17.28-10.9-8.53-3.752-17.783-7.878-27.05-11.019-5.095-1.727-9.794-2.296-15.029-4.008-6.003-1.963-11.384-4.747-11.797-4.747l.444.406c-.4-.285-.531-.407-.444-.406-47.596-45.996-66.57-51.671-85.047-56.031C318.733 1.229 296.48 0 296.48 0S99.072.063 42.679.063c-3.307.758-6.836 2.968-9.35 4.612-4.863 3.18-5.486 9.079-7.681 15.027-4.539 12.3-16.325 44.636-16.363 106.53-.002 1.51-4.496.208-5.344 1.67C-9 150.213 13.16 160.626 23.978 160.627c6.178 0 38.737 5.01 38.737 5.01h1.914a43.514 43.514 0 0 1-1.245-10.353c0-23.977 19.436-43.413 43.413-43.413 23.976 0 43.413 19.436 43.413 43.413 0 3.568-.434 7.034-1.245 10.353h214.304a43.14 43.14 0 0 1-1.337-10.687c0-23.792 19.287-43.08 43.079-43.08s43.08 19.288 43.08 43.08c0 3.689-.466 7.27-1.337 10.687h12.69s5.686-2.822 7.013-4.676c1.266-1.767 1.006-3.597 3.006-4.675 8.977-4.84 15.352-4.823 15.361-19.035.001-2.62.433-6.384-.669-8.014zM354.738 49.293c-1.4 2.127-4.278 1.323-4.342 16.363-21.704-.222-64.451-.668-64.451-.668s-.127-50.882-.323-51.763l-.012.002c.004-.02.008-.019.012-.002 9.33-1.558 26.843-2.223 39.06.67 31.748 9.21 43.445 28.77 50.312 37.14-3.284-.05-17.872-2.304-20.256-1.742zm44.92 94.035a12.8 12.8 0 0 1 1.142-.475v-12.998a25.098 25.098 0 0 0-10.333 4.282l9.19 9.19zm16.804 6.013c.176.37.333.752.473 1.143h13a25.095 25.095 0 0 0-4.283-10.334l-9.19 9.19zm-11.41-35.934c-22.825 0-41.328 18.504-41.328 41.33 0 22.825 18.503 41.329 41.329 41.329 22.825 0 41.329-18.505 41.329-41.33s-18.504-41.329-41.33-41.329zm0 70.85c-16.303 0-29.52-13.216-29.52-29.52 0-16.304 13.217-29.52 29.52-29.52 16.305 0 29.522 13.216 29.522 29.52 0 16.303-13.217 29.52-29.521 29.52zm0-22.563a1.605 1.605 0 1 0 .001 3.21 1.605 1.605 0 0 0 0-3.21zm-6.958-6.958a1.605 1.605 0 1 0-3.21 0 1.605 1.605 0 0 0 3.21 0zm-4.45-5.394l-9.191-9.191a25.1 25.1 0 0 0-4.283 10.333h12.999c.14-.39.3-.771.475-1.142zm18.367 5.394a1.605 1.605 0 1 0 3.21 0 1.605 1.605 0 0 0-3.21 0zm-6.958-6.958a1.605 1.605 0 1 0-.001-3.21 1.605 1.605 0 0 0 0 3.21zm-14.586 27.557a25.109 25.109 0 0 0 10.333 4.283V166.62c-.39-.14-.77-.3-1.142-.475l-9.19 9.19zm2.703-16.346h-13a25.102 25.102 0 0 0 4.282 10.334l9.192-9.192a12.421 12.421 0 0 1-.474-1.142z" overflow="visible" fill="#404040"/><g color="#000" fill-rule="evenodd"><path d="M40.963 77.276v26.305h16.97V77.276z" style="isolation:auto;mix-blend-mode:normal" overflow="visible" fill="#f58042"/><path d="M57.867 77.276v26.305h16.97V77.276z" style="isolation:auto;mix-blend-mode:normal" overflow="visible" fill="#92d125"/><path d="M74.77 77.276v26.305h16.97V77.276z" style="isolation:auto;mix-blend-mode:normal" overflow="visible" fill="#ff483b"/><path d="M99.69 77.276v26.305h16.969V77.276z" style="isolation:auto;mix-blend-mode:normal" overflow="visible" fill="#f58042"/><path d="M116.593 77.276v26.305h16.97V77.276z" style="isolation:auto;mix-blend-mode:normal" overflow="visible" fill="#92d125"/><path d="M133.497 77.276v26.305h16.97V77.276z" style="isolation:auto;mix-blend-mode:normal" overflow="visible" fill="#ff483b"/><g><path d="M158.415 77.276v26.305h16.97V77.276z" style="isolation:auto;mix-blend-mode:normal" overflow="visible" fill="#f58042"/><path d="M175.32 77.276v26.305h16.97V77.276z" style="isolation:auto;mix-blend-mode:normal" overflow="visible" fill="#92d125"/><path d="M192.224 77.276v26.305h16.97V77.276z" style="isolation:auto;mix-blend-mode:normal" overflow="visible" fill="#ff483b"/></g><g><path d="M217.142 77.276v26.305h16.97V77.276z" style="isolation:auto;mix-blend-mode:normal" overflow="visible" fill="#f58042"/><path d="M234.046 77.276v26.305h16.97V77.276z" style="isolation:auto;mix-blend-mode:normal" overflow="visible" fill="#92d125"/><path d="M250.95 77.276v26.305h16.97V77.276z" style="isolation:auto;mix-blend-mode:normal" overflow="visible" fill="#ff483b"/></g></g><g color="#000" fill-rule="evenodd"><path d="M40.963 46.739v26.305h16.97V46.739z" style="isolation:auto;mix-blend-mode:normal" overflow="visible" fill="#f58042"/><path d="M57.867 46.739v26.305h16.97V46.739z" style="isolation:auto;mix-blend-mode:normal" overflow="visible" fill="#92d125"/><path d="M74.77 46.739v26.305h16.97V46.739z" style="isolation:auto;mix-blend-mode:normal" overflow="visible" fill="#ff483b"/><path d="M99.69 46.739v26.305h16.969V46.739z" style="isolation:auto;mix-blend-mode:normal" overflow="visible" fill="#f58042"/><path d="M116.593 46.739v26.305h16.97V46.739z" style="isolation:auto;mix-blend-mode:normal" overflow="visible" fill="#92d125"/><path d="M133.497 46.739v26.305h16.97V46.739z" style="isolation:auto;mix-blend-mode:normal" overflow="visible" fill="#ff483b"/><g><path d="M158.415 46.739v26.305h16.97V46.739z" style="isolation:auto;mix-blend-mode:normal" overflow="visible" fill="#f58042"/><path d="M175.32 46.739v26.305h16.97V46.739z" style="isolation:auto;mix-blend-mode:normal" overflow="visible" fill="#92d125"/><path d="M192.224 46.739v26.305h16.97V46.739z" style="isolation:auto;mix-blend-mode:normal" overflow="visible" fill="#ff483b"/></g><g><path d="M217.142 46.739v26.305h16.97V46.739z" style="isolation:auto;mix-blend-mode:normal" overflow="visible" fill="#f58042"/><path d="M234.046 46.739v26.305h16.97V46.739z" style="isolation:auto;mix-blend-mode:normal" overflow="visible" fill="#92d125"/><path d="M250.95 46.739v26.305h16.97V46.739z" style="isolation:auto;mix-blend-mode:normal" overflow="visible" fill="#ff483b"/></g></g><g color="#000" fill-rule="evenodd"><path d="M40.963 16.201v26.305h16.97V16.201z" style="isolation:auto;mix-blend-mode:normal" overflow="visible" fill="#f58042"/><path d="M57.867 16.201v26.305h16.97V16.201z" style="isolation:auto;mix-blend-mode:normal" overflow="visible" fill="#92d125"/><path d="M74.77 16.201v26.305h16.97V16.201z" style="isolation:auto;mix-blend-mode:normal" overflow="visible" fill="#ff483b"/><path d="M99.69 16.201v26.305h16.969V16.201z" style="isolation:auto;mix-blend-mode:normal" overflow="visible" fill="#f58042"/><path d="M116.593 16.201v26.305h16.97V16.201z" style="isolation:auto;mix-blend-mode:normal" overflow="visible" fill="#92d125"/><path d="M133.497 16.201v26.305h16.97V16.201z" style="isolation:auto;mix-blend-mode:normal" overflow="visible" fill="#ff483b"/><g><path d="M158.415 16.201v26.305h16.97V16.201z" style="isolation:auto;mix-blend-mode:normal" overflow="visible" fill="#f58042"/><path d="M175.32 16.201v26.305h16.97V16.201z" style="isolation:auto;mix-blend-mode:normal" overflow="visible" fill="#92d125"/><path d="M192.224 16.201v26.305h16.97V16.201z" style="isolation:auto;mix-blend-mode:normal" overflow="visible" fill="#ff483b"/></g><g><path d="M217.142 16.201v26.305h16.97V16.201z" style="isolation:auto;mix-blend-mode:normal" overflow="visible" fill="#f58042"/><path d="M234.046 16.201v26.305h16.97V16.201z" style="isolation:auto;mix-blend-mode:normal" overflow="visible" fill="#92d125"/><path d="M250.95 16.201v26.305h16.97V16.201z" style="isolation:auto;mix-blend-mode:normal" overflow="visible" fill="#ff483b"/></g></g></svg>