<svg xmlns="http://www.w3.org/2000/svg" width="217.654" height="255.367" viewBox="0 0 204.05081 239.40615"><g color="#000" fill-rule="evenodd"><path style="isolation:auto;mix-blend-mode:normal" overflow="visible" fill="#fff" d="M0 0h204.051v239.406H.001z"/><path style="isolation:auto;mix-blend-mode:normal" overflow="visible" fill="#e3e3e3" d="M8.081 9.091h43.437v13.132H8.081zM150.007 33.84h43.437v13.132h-43.437zM8.84 59.599h184.352v13.132H8.84zM25.624 78.118h167.567V91.25H25.624zM25.624 96.638h167.567v13.132H25.624zM25.624 115.158h167.567v13.132H25.624zM25.624 133.677h167.567v13.132H25.624zM25.624 152.196h167.567v13.132H25.624zM25.624 170.716h167.567v13.132H25.624zM140.158 188.898h53.538v13.132h-53.538zM22.053 78.118H8.55V91.25h13.504zM22.053 96.638H8.55v13.132h13.504zM22.053 115.158H8.55v13.132h13.504zM22.053 133.677H8.55v13.132h13.504zM22.053 152.196H8.55v13.132h13.504zM22.053 170.716H8.55v13.132h13.504z"/></g><g fill="#69bc1b"><path d="M24.786 78.915l-1.991-1.75a.306.306 0 0 0-.434.027l-7.224 8.223-2.569-3.4a.306.306 0 0 0-.43-.06l-2.116 1.598a.307.307 0 0 0-.06.43l4.757 6.296a.307.307 0 0 0 .233.122h.012a.307.307 0 0 0 .23-.105l9.62-10.948a.307.307 0 0 0-.028-.433z"/></g><g fill="#69bc1b"><path d="M24.786 97.01l-1.991-1.75a.306.306 0 0 0-.434.027l-7.224 8.223-2.569-3.4a.306.306 0 0 0-.43-.06l-2.116 1.599a.307.307 0 0 0-.06.43l4.757 6.295a.307.307 0 0 0 .233.122h.012a.307.307 0 0 0 .23-.104l9.62-10.949a.307.307 0 0 0-.028-.433z"/></g><g fill="#69bc1b"><path d="M24.786 115.105l-1.991-1.75a.306.306 0 0 0-.434.028l-7.224 8.222-2.569-3.4a.306.306 0 0 0-.43-.06l-2.116 1.599a.307.307 0 0 0-.06.43l4.757 6.296a.307.307 0 0 0 .233.121h.012a.307.307 0 0 0 .23-.104l9.62-10.949a.307.307 0 0 0-.028-.433z"/></g><g fill="#69bc1b"><path d="M24.786 133.2l-1.991-1.75a.306.306 0 0 0-.434.028l-7.224 8.223-2.569-3.4a.306.306 0 0 0-.43-.06l-2.116 1.598a.307.307 0 0 0-.06.43l4.757 6.296a.307.307 0 0 0 .233.122h.012a.307.307 0 0 0 .23-.105l9.62-10.948a.307.307 0 0 0-.028-.434z"/></g></svg>