<svg xmlns="http://www.w3.org/2000/svg" viewBox="0 0 366.042 366.281" height="390.7" width="390.445"><path d="M131.241 67.757C140.398 43.951 205.713 0 205.713 0s20.755 78.745 12.209 101.941c-8.546 23.807-34.795 34.794-58.601 25.638-24.417-9.767-36.626-36.626-28.08-59.822" fill="#8cc63e"/><path d="M92.785 114.76C81.797 92.174 97.668 14.04 97.668 14.04s69.588 40.898 79.966 64.094c10.377 22.586 0 49.445-23.807 59.822-23.196 9.767-50.665-.61-61.042-23.196" fill="#64892f"/><path d="M114.15 92.785C91.563 82.407 14.04 97.668 14.04 97.668s40.898 70.199 63.484 81.187c22.586 10.377 49.444 0 59.211-23.807 10.377-23.807 0-51.886-22.586-62.263" fill="#8cc63e"/><path d="M67.147 131.852C43.95 141.008 0 206.934 0 206.934s78.134 20.754 101.941 12.209c23.196-8.546 34.794-35.405 25.027-59.212-9.766-24.417-36.015-36.625-59.821-28.08" fill="#64892f"/><path d="M302.16 89.732c70.2 70.81 78.135 224.026 45.172 257.6-33.574 33.573-185.57 25.027-256.379-45.782-51.886-51.886-27.469-130.631 26.249-184.959 54.327-54.328 133.072-78.745 184.958-26.859" fill="#ff483b"/><g fill="#fff0f0"><path d="M236.234 83.628c-3.052 0-6.104 1.221-7.935 3.663-3.052 4.883-.61 12.208 6.715 17.092 3.662 2.441 7.325 3.662 10.377 3.662 3.052 0 6.104-1.22 7.325-3.662 3.052-4.884.61-12.209-6.715-17.092-2.441-2.442-6.104-3.663-9.767-3.663M258.82 190.453c-1.831 0-3.662.61-5.494 1.83-4.273 3.663-3.052 11.599 1.832 18.314 3.662 4.273 8.546 6.714 12.208 6.714 1.831 0 3.663-.61 5.494-1.831 4.273-3.663 3.052-11.598-1.831-18.313-3.663-4.273-8.546-6.714-12.209-6.714M206.324 137.956c-1.832 0-3.663.61-5.494 1.831-4.273 3.663-3.663 11.598 1.831 18.313 3.663 4.273 8.546 6.715 12.209 6.715 1.83 0 3.662-.61 5.493-1.832 4.273-3.662 3.663-11.598-1.83-18.312-3.663-4.273-8.547-6.715-12.21-6.715M296.056 144.06c-1.22 0-2.442 0-3.662.61-4.884 2.442-5.494 10.988-1.832 18.313 3.052 5.494 7.936 9.157 12.82 9.157 1.22 0 2.44 0 3.662-.61 4.883-2.442 5.494-10.988 1.831-18.313-3.052-5.494-8.546-9.157-12.819-9.157M324.136 224.636h-1.832c-5.493 1.221-8.546 9.157-6.104 17.092 1.831 7.325 6.715 12.209 12.209 12.209h1.83c5.495-1.221 8.547-9.157 6.105-17.092-2.442-7.325-7.325-12.209-12.208-12.209M316.81 300.33c-1.83 0-4.272.61-5.493 1.83-4.273 3.663-3.052 12.209 2.441 18.313 3.663 4.273 8.546 6.104 12.209 6.104 1.831 0 4.273-.61 5.494-1.83 4.273-3.663 3.052-12.21-2.442-18.314-3.663-3.662-7.935-6.104-12.208-6.104M181.296 291.173c-3.052 0-6.104 1.22-7.935 3.662-3.052 4.884 0 12.209 6.714 17.092 3.663 2.442 7.325 3.663 10.378 3.663 3.052 0 6.104-1.221 7.935-3.663 3.052-4.883 0-12.208-6.715-17.092a16.576 16.576 0 0 0-10.377-3.662M111.097 271.029c-3.662 0-6.104 1.22-7.935 3.662-3.052 4.884 0 12.209 6.714 17.092 3.663 2.442 7.326 3.663 10.378 3.663 3.052 0 6.104-1.221 7.935-3.663 3.052-4.883 0-12.208-6.714-17.092-3.663-2.441-7.326-3.662-10.378-3.662M241.728 320.473c-4.883 0-8.546 1.831-10.377 5.494-1.831 5.494 2.442 12.208 10.377 15.26 2.442 1.221 5.494 1.832 7.936 1.832 4.883 0 8.546-1.831 10.377-5.494 1.831-5.494-2.442-12.209-10.377-15.26-2.442-1.221-5.494-1.832-7.936-1.832M255.768 259.43c-3.663 0-6.715 1.221-8.546 4.274-3.052 4.883.61 12.208 7.936 16.481 3.052 1.831 6.714 3.052 9.766 3.052 3.663 0 6.715-1.22 8.546-4.273 3.052-4.883-.61-12.208-7.935-16.481-3.663-1.832-6.715-3.052-9.767-3.052M190.453 216.09c-3.053 0-5.494 1.221-6.715 3.053-3.663 4.273-1.22 12.208 4.883 17.702 3.663 3.052 7.936 4.273 11.598 4.273 3.053 0 5.494-1.221 6.715-3.052 3.663-4.273 1.22-12.209-4.883-17.703-3.663-2.441-7.936-4.273-11.598-4.273M137.346 133.683c-2.442 0-4.273.61-6.105 2.442-4.273 4.273-2.441 12.208 3.052 17.702 3.663 3.663 7.936 5.494 12.209 5.494 2.442 0 4.273-.61 6.104-2.442 4.273-4.273 2.442-12.208-3.052-17.702-3.662-3.663-7.935-5.494-12.208-5.494M120.254 199.609c-3.052 0-5.494 1.22-7.325 3.052-3.663 4.273-1.221 12.209 5.493 17.702 3.663 3.053 7.936 4.273 10.988 4.273 3.052 0 5.494-1.22 7.325-3.052 3.663-4.273 1.221-12.208-5.494-17.702-3.662-2.442-7.935-4.273-10.987-4.273"/></g></svg>