<svg xmlns="http://www.w3.org/2000/svg" viewBox="0 0 241.794 168.991" height="180.257" width="257.914"><path d="M111.774 0a95.99 95.99 0 0 0-7.745.278c-12.312.948-22.899 3.138-32.427 6.707-2.733 1.024-5.414 1.852-5.96 1.842-.544-.011-2.546-1.207-4.449-2.656C53.975.67 49.01-1.017 45.53.844c-2.683 1.436-3.116 3.145-3.373 13.323l-.234 9.312-4.904 4.85c-7.935 7.846-12.81 14.797-17.1 24.379l-2.162 4.83-4.756.896c-2.616.494-5.647 1.042-6.736 1.219-2.611.424-5.041 2.536-5.717 4.969C.247 65.7 0 72.092 0 78.822 0 95.444.092 95.617 10.615 97.95c3.353.744 6.424 1.68 6.825 2.08.4.4 1.53 2.572 2.51 4.826 4.785 11.008 12.546 20.904 23.822 30.375l2.533 2.129 2.388 12.885c1.314 7.086 2.39 13.34 2.39 13.896 0 1.288 1.934 3.767 3.4 4.36.618.25 5.38.47 10.585.488 13.797.049 14.75-.6 14.75-10.03 0-2.626.225-4.912.498-5.081.274-.17 3.447.282 7.051 1.004 3.605.72 8.879 1.564 11.72 1.873 11.19 1.215 27.265.402 37.13-1.877 3.201-.74 3.5-.732 4.125.123.406.555.674 2.558.674 5.047 0 3.592.165 4.319 1.283 5.619l1.283 1.494 10.656.162c11.774.18 13.25-.12 14.35-2.932.32-.818 1.337-6.398 2.262-12.398.924-6 1.834-11.181 2.021-11.516.187-.334 2.376-2.103 4.863-3.93 5.827-4.278 14.388-12.92 18.178-18.345 7.638-10.935 10.452-18.387 13.057-34.59l.428-2.66 4.48-.156 4.479-.157 2.171 2.094c1.195 1.152 2.892 2.45 3.77 2.885 3.032 1.503 10.908 2.64 10.908 1.574 0-.226-2.116-1.054-4.705-1.842-5.224-1.59-7.367-2.943-6.84-4.316.272-.708 1.1-.88 4.213-.885 4.284-.01 8.23-1.45 10.344-3.783 6.67-7.365 3.587-19.223-5.717-21.986-3.509-1.042-4.38-1.04-7.973.017-2.157.634-3.526 1.504-5.396 3.433-3.135 3.233-4.306 6.803-4.055 12.358l.174 3.845-2.824-.074c-1.554-.042-2.956-.205-3.115-.365-.16-.16-.636-2.276-1.057-4.703-4.749-27.364-29.492-52.61-62.035-63.297-10.995-3.61-23.068-5.55-34.445-5.592zM86.736 9.9l23.815.138 23.812.138V18.16l-23.812.139-23.815.136V9.9zm32.795 35.765c3.65 0 7.644.534 11.983 1.601l-2.221 13.946c-2.686-1.068-5.562-1.602-8.627-1.602-4.752 0-8.385 1.085-10.898 3.254-2.514 2.135-3.994 5.458-4.442 9.969h15.961v8.213h-16.115v6.302h16.115v8.264h-16.115c.172 4.545 1.393 7.903 3.666 10.072 2.307 2.17 6.095 3.254 11.363 3.254 3.41 0 6.44-.516 9.092-1.549l2.22 13.895c-4.58 1.033-9.107 1.549-13.583 1.549-9.298 0-16.718-2.41-22.262-7.23-5.51-4.822-8.402-11.486-8.678-19.991h-8.523v-8.264h8.523v-6.302h-8.523v-8.213h8.678c.654-8.54 3.856-15.202 9.607-19.989 5.75-4.786 13.344-7.18 22.78-7.18zM46.56 49.82c2.89 0 4.325 1.808 4.01 5.055-.204 2.1-3.277 3.88-5.34 3.093-1.805-.688-2.66-1.968-2.66-3.974 0-2.64 1.466-4.174 3.99-4.174zm181.632 8.588c5.128.026 8.619 3.106 9.018 8.08.258 3.212-1.098 5.738-3.984 7.424-1.768 1.032-7.479 1.58-11.453 1.097-2.582-.313-3.217-1.53-3.188-6.115.04-6.412 3.021-10.05 8.56-10.451.357-.026.706-.037 1.047-.035z" font-weight="400" font-size="105.783" font-family="roboto" letter-spacing="0" word-spacing="0" fill="#ff898a"/></svg>