<svg xmlns="http://www.w3.org/2000/svg" viewBox="0 0 192.23982 155.11779" height="165.459" width="205.056"><path d="M96.26 0l95.688 51.601h.013v.007l.279.15h-.28v103.36H0V51.602h.571L96.26 0z" style="isolation:auto;mix-blend-mode:normal" color="#000" overflow="visible" fill="#bfbfbf" fill-rule="evenodd"/><path d="M11.181 6.8h168.36v103.717H11.18z" style="isolation:auto;mix-blend-mode:normal" color="#000" overflow="visible" fill="#ff6e2e" fill-rule="evenodd"/><g style="line-height:125%;-inkscape-font-specification:'roboto, Normal';text-align:start" font-weight="900" font-size="49.826" font-family="roboto" letter-spacing="0" word-spacing="0" fill="#fff" text-anchor="middle"><path style="-inkscape-font-specification:'roboto Heavy';text-align:center" d="M33.989 27.514q-.095 2.053-1.108 3.634-1.013 1.567-2.85 2.431-1.824.865-4.175.865-3.877 0-6.106-2.526t-2.229-7.133v-.973q0-2.89 1-5.052 1.013-2.175 2.904-3.35 1.892-1.189 4.377-1.189 3.58 0 5.755 1.891 2.175 1.878 2.472 5.188h-4.728q-.054-1.797-.905-2.58-.851-.784-2.594-.784-1.77 0-2.593 1.324-.824 1.324-.865 4.228v1.392q0 3.147.784 4.498.797 1.351 2.728 1.351 1.635 0 2.5-.77.864-.77.918-2.445h4.715zM35.448 26.73q0-2.188.85-3.89.852-1.716 2.446-2.634 1.594-.92 3.742-.92 3.283 0 5.174 2.04 1.891 2.027 1.891 5.526v.162q0 3.418-1.905 5.43-1.891 2-5.133 2-3.12 0-5.012-1.864-1.891-1.878-2.04-5.08l-.013-.77zm4.552.284q0 2.026.635 2.972.635.946 1.878.946 2.431 0 2.486-3.742v-.46q0-3.93-2.513-3.93-2.283 0-2.472 3.39l-.014.824zM55.887 19.557l.148 1.716q1.554-1.986 4.175-1.986 2.769 0 3.742 2.202 1.486-2.202 4.295-2.202 4.445 0 4.566 5.376v9.51h-4.566v-9.226q0-1.121-.378-1.634-.378-.514-1.378-.514-1.35 0-2.013 1.203l.014.189v9.983h-4.566v-9.2q0-1.148-.365-1.661-.365-.514-1.391-.514-1.31 0-2 1.203v10.172h-4.552V19.557h4.269zM79.716 19.557l.149 1.716q1.554-1.986 4.174-1.986 2.77 0 3.742 2.202 1.486-2.202 4.296-2.202 4.445 0 4.566 5.376v9.51h-4.566v-9.226q0-1.121-.378-1.634-.378-.514-1.378-.514-1.351 0-2.013 1.203l.014.189v9.983h-4.566v-9.2q0-1.148-.365-1.661-.365-.514-1.392-.514-1.31 0-1.999 1.203v10.172h-4.552V19.557h4.268zM107.477 34.174q-.243-.446-.432-1.31-1.256 1.58-3.512 1.58-2.067 0-3.513-1.243-1.445-1.256-1.445-3.147 0-2.378 1.756-3.594 1.756-1.216 5.106-1.216h1.405v-.77q0-2.012-1.742-2.012-1.621 0-1.621 1.594h-4.553q0-2.121 1.797-3.445 1.81-1.324 4.606-1.324 2.797 0 4.418 1.364 1.62 1.365 1.661 3.742v6.471q.027 2.013.622 3.08v.23h-4.553zm-2.85-2.972q.85 0 1.405-.365.567-.365.81-.824v-2.337h-1.324q-2.377 0-2.377 2.134 0 .622.419 1.014.418.378 1.067.378zM118.122 19.557l.149 1.716q1.513-1.986 4.174-1.986 2.283 0 3.404 1.364 1.135 1.365 1.176 4.107v9.416h-4.566v-9.227q0-1.108-.446-1.62-.446-.528-1.621-.528-1.338 0-1.986 1.054v10.32h-4.553V19.558h4.27zM128.983 26.757q0-3.471 1.5-5.47 1.5-2 4.188-2 1.959 0 3.296 1.54v-7.403h4.566v20.75h-4.093l-.23-1.567q-1.405 1.837-3.566 1.837-2.608 0-4.134-2-1.527-1.999-1.527-5.687zm4.553.284q0 3.89 2.27 3.89 1.512 0 2.16-1.27v-5.565q-.62-1.297-2.134-1.297-2.107 0-2.283 3.404l-.013.838zM152.192 34.444q-3.364 0-5.444-2-2.08-2.012-2.08-5.227v-.379q0-2.242.823-3.958.838-1.715 2.432-2.647 1.594-.946 3.782-.946 3.08 0 4.864 1.918 1.783 1.905 1.783 5.323v1.77H149.3q.243 1.229 1.067 1.931.824.703 2.135.703 2.16 0 3.377-1.513l2.08 2.458q-.851 1.176-2.418 1.878-1.554.689-3.35.689zm-.514-11.645q-1.999 0-2.377 2.648h4.593v-.351q.027-1.094-.554-1.689-.58-.608-1.662-.608zM165.566 30.661h6.66v3.513H159.81v-2.54l6.484-8.565h-6.2v-3.512h11.982v2.459l-6.511 8.645zM28.383 51.043h-2.567v6.944h-4.742V38.318h7.74q3.5 0 5.472 1.554 1.972 1.553 1.972 4.39 0 2.053-.837 3.404-.824 1.351-2.594 2.189l4.107 7.93v.202h-5.08l-3.471-6.944zm-2.567-3.66h2.999q1.35 0 2.026-.703.69-.716.69-1.986t-.69-1.986q-.689-.729-2.026-.729h-3v5.404zM47.146 57.987q-.243-.446-.432-1.31-1.256 1.58-3.512 1.58-2.067 0-3.512-1.243-1.446-1.256-1.446-3.147 0-2.378 1.756-3.594 1.756-1.215 5.107-1.215h1.405v-.77q0-2.013-1.743-2.013-1.621 0-1.621 1.594h-4.553q0-2.121 1.797-3.445 1.81-1.324 4.607-1.324 2.796 0 4.417 1.365 1.621 1.364 1.662 3.742v6.47q.027 2.013.62 3.08v.23h-4.552zm-2.85-2.972q.851 0 1.405-.365.567-.364.81-.824V51.49h-1.323q-2.378 0-2.378 2.135 0 .621.419 1.013.419.378 1.067.378zM67.18 50.787q0 3.404-1.54 5.444-1.526 2.026-4.134 2.026-2.012 0-3.31-1.472v6.822h-4.552V43.37H57.9l.135 1.351q1.31-1.62 3.444-1.62 2.702 0 4.202 1.999 1.5 1.985 1.5 5.47v.217zm-4.552-.284q0-3.89-2.27-3.89-1.62 0-2.161 1.161v5.755q.594 1.216 2.188 1.216 2.175 0 2.243-3.756v-.486zM73.975 57.987H69.41V43.37h4.566v14.617zM69.14 39.601q0-.972.702-1.594.703-.621 1.824-.621t1.824.621q.702.622.702 1.594 0 .973-.702 1.594-.703.622-1.824.622t-1.824-.622q-.702-.62-.702-1.594zM76.218 50.57q0-3.471 1.5-5.47 1.499-2 4.187-2 1.959 0 3.296 1.54v-7.403h4.566v20.75h-4.093l-.23-1.567q-1.405 1.837-3.566 1.837-2.607 0-4.134-2-1.526-1.998-1.526-5.686zm4.552.284q0 3.89 2.27 3.89 1.513 0 2.161-1.269V47.91q-.621-1.296-2.134-1.296-2.108 0-2.283 3.404l-.014.837zM99.426 58.257q-3.364 0-5.444-2-2.08-2.012-2.08-5.227v-.378q0-2.243.824-3.958.837-1.716 2.431-2.648 1.594-.946 3.783-.946 3.08 0 4.863 1.919 1.783 1.904 1.783 5.322v1.77h-9.051q.243 1.229 1.067 1.931.824.703 2.135.703 2.161 0 3.377-1.513l2.08 2.459q-.85 1.175-2.418 1.877-1.553.69-3.35.69zm-.513-11.644q-2 0-2.378 2.647h4.593v-.35q.027-1.095-.554-1.69-.58-.607-1.661-.607zM111.733 43.37l.148 1.716q1.554-1.986 4.174-1.986 2.77 0 3.742 2.202 1.486-2.202 4.296-2.202 4.445 0 4.566 5.377v9.51h-4.566V48.76q0-1.12-.378-1.634-.378-.513-1.378-.513-1.35 0-2.013 1.202l.014.189v9.983h-4.566v-9.2q0-1.148-.365-1.661-.365-.513-1.391-.513-1.31 0-2 1.202v10.172h-4.552V43.37h4.269zM138.332 58.257q-3.364 0-5.444-2-2.08-2.012-2.08-5.227v-.378q0-2.243.823-3.958.838-1.716 2.432-2.648 1.594-.946 3.782-.946 3.08 0 4.864 1.919 1.783 1.904 1.783 5.322v1.77h-9.051q.243 1.229 1.067 1.931.824.703 2.134.703 2.162 0 3.378-1.513l2.08 2.459q-.851 1.175-2.418 1.877-1.554.69-3.35.69zm-.514-11.644q-1.999 0-2.377 2.647h4.593v-.35q.027-1.095-.554-1.69-.581-.607-1.662-.607zM150.517 43.37l.148 1.716q1.513-1.986 4.175-1.986 2.283 0 3.404 1.365 1.135 1.364 1.175 4.106v9.416h-4.566V48.76q0-1.107-.446-1.62-.446-.527-1.62-.527-1.338 0-1.987 1.053v10.321h-4.552V43.37h4.269zM167.254 39.737v3.633h2.405v3.162h-2.405v6.686q0 .824.297 1.149.298.324 1.176.324.675 0 1.134-.081v3.255q-1.229.392-2.566.392-2.35 0-3.472-1.107-1.121-1.108-1.121-3.364v-7.254h-1.864V43.37h1.864v-3.633h4.552z"/></g><path style="isolation:auto;mix-blend-mode:normal" d="M191.96 51.602v103.515H0V51.602l95.98 51.758 95.98-51.758z" color="#000" overflow="visible" fill="#fff" fill-rule="evenodd"/></svg>