<svg xmlns="http://www.w3.org/2000/svg" width="297.524" height="197.652" viewBox="0 0 278.92838 185.29852"><path d="M75.07 22.68l-.109-.157c.043.01.079.01.124.007-.005.05.004.104-.014.15m-4.195-4.532c-.04-.046-.092-.074-.132-.12.035.002.08-.002.118-.001-.003.037.01.077.014.121m-4.89-3.75c-.048-.042-.109-.065-.159-.105.045-.004.085-.016.117-.024.013.04.03.088.042.128m-5.438-2.906c-.057-.013-.114-.05-.175-.071a.492.492 0 0 0 .109-.055c.018.048.045.091.066.126m-6.033-1.998c.038-.035.067-.065.107-.077.035.038.059.059.082.115-.06-.022-.121-.044-.189-.038m-34.378 8.906c.05.004.097-.013.156-.013-.049.053-.096.094-.145.148.004-.05-.008-.09-.011-.135m4.854-3.823a.63.63 0 0 1 .151.015l-.167.114c.019-.047.006-.087.016-.129m5.425-2.986c.046.019.089.028.13.038-.052.033-.113.047-.166.079a.659.659 0 0 1 .036-.117m5.832-2.05c.034.038.09.051.124.066-.049.018-.117.024-.183.052a.647.647 0 0 1 .06-.119m6.083-1.055l.116.072c-.069.006-.122.015-.189.02a.485.485 0 0 0 .073-.092m6.18-.047c.035.038.08.07.114.108a2.495 2.495 0 0 1-.202-.02c.027-.015.067-.064.088-.088M16.005 23.094c.002-.037-.025-.08-.03-.124.054-.01.1-.013.157-.037-.044.063-.09.103-.127.161m-3.327 5.175c-.022-.034-.029-.065-.042-.104.04-.013.075-.035.115-.047-.027.052-.04.108-.073.151m-2.423 5.689c-.021-.035-.055-.073-.069-.112.043-.027.081-.062.125-.088-.017.07-.04.13-.056.2m-1.484 5.98a.464.464 0 0 0-.082-.093c.044-.027.082-.062.12-.097-.01.065-.023.12-.038.19m-.455 6.155c-.03-.03-.067-.054-.102-.092.043-.026.062-.073.1-.108-.009.064.005.127.002.2m.543 6.137c-.038-.024-.072-.039-.101-.068.024-.039.035-.08.066-.124.016.062.016.12.035.192m1.54 5.966c-.025-.02-.065-.03-.105-.054.024-.038.027-.075.05-.114.023.058.046.115.056.168m5.802 10.765c.014-.056.009-.1.014-.151l.118.153c-.036-.001-.082.003-.132-.002m-3.27-5.133c-.042-.01-.078-.012-.126-.03.011-.042.02-.106.028-.147.029.065.069.112.097.177m71.397-42.402a5.171 5.171 0 0 0-.199-.518c-.1-.2-.226-.37-.351-.555a.505.505 0 0 1-.05-.1l-.008.005a4.786 4.786 0 0 0-3.31-1.945 4.81 4.81 0 0 0-.898-3.385 4.773 4.773 0 0 0-4.1-1.936c-.063-1.17-.529-2.319-1.443-3.193a4.745 4.745 0 0 0-4.354-1.247 4.719 4.719 0 0 0-1.945-2.91 4.764 4.764 0 0 0-4.508-.514 4.695 4.695 0 0 0-2.392-2.554 4.793 4.793 0 0 0-4.536.239A4.828 4.828 0 0 0 53.453.687c-1.604-.453-3.242-.032-4.435.983A4.721 4.721 0 0 0 45.942.03a4.75 4.75 0 0 0-4.215 1.69C40.825.98 39.667.54 38.406.612a4.782 4.782 0 0 0-3.876 2.36c-1.008-.581-2.221-.823-3.46-.54-1.62.352-2.864 1.516-3.426 2.962a4.936 4.936 0 0 0-1.62-.325c-.622-.01-1.266.1-1.884.347a4.814 4.814 0 0 0-2.892 3.487 4.812 4.812 0 0 0-3.455.608 4.813 4.813 0 0 0-2.283 3.92 4.718 4.718 0 0 0-3.303 1.168c-1.26 1.078-1.812 2.696-1.611 4.244a4.707 4.707 0 0 0-3.06 1.682 4.779 4.779 0 0 0-.894 4.445c-1.114.35-2.121 1.084-2.75 2.168a4.774 4.774 0 0 0-.143 4.53 4.79 4.79 0 0 0-2.36 2.594 4.822 4.822 0 0 0 .6 4.49c-.947.699-1.653 1.711-1.902 2.954a4.831 4.831 0 0 0 1.338 4.336 4.775 4.775 0 0 0-1.39 3.208 4.78 4.78 0 0 0 2.034 4.064c-.67.956-1.019 2.152-.84 3.393a4.734 4.734 0 0 0 2.66 3.67 4.804 4.804 0 0 0-.277 3.499 4.805 4.805 0 0 0 3.235 3.176 4.797 4.797 0 0 0 .311 3.495 4.764 4.764 0 0 0 3.712 2.6 4.75 4.75 0 0 0 .867 3.392c.529.73 1.23 1.238 2.003 1.57 1.268 1.512 15.675 1.315 21.185 7.495 18.657 20.913 49.528 63.945 71.014 70.092 3.196.926 6.186 1.029 8.894.107l.856-.322c.59-.255 1.187-.56 1.767-.927.225-.138.439-.292.66-.451a11.855 11.855 0 0 0 1.854-1.68c1.264-1.4 2.217-3.097 2.875-5.064 7.203-21.35-19.765-73.226-33.744-102.843-4.195-8.892 1.744-16.91-4.773-23.09" fill="#92d125"/><path d="M122.845 147.36c-.658 1.966-1.611 3.662-2.875 5.064a11.855 11.855 0 0 1-1.854 1.678c-.22.16-.435.314-.66.452-.58.366-1.176.672-1.766.926l-.858.323c-2.707.922-5.697.819-8.892-.106-1.388-6.723-4.265-17.938-8.49-21.978-6.181-5.9-11.886-4.864-18.59-11.214.594.312 10.693 5.664 12.297 2.882 1.654-2.873-19.784-14.56-24.804-27.996 0 0 18.368 18.306 17.727 9.277 0 0-3.06-8.413-7.126-18.332-3.601-8.794-7.997-18.772-11.758-25.134 0 0 22.713 32.853 26.335 42.108 0 0 1.58-3.348 2.879-7.52 1.294-4.18 2.331-9.187 1.23-12.554.263.562 4.348 9.782.954 27.014-.607 3.037 6.504 10.051 6.504 10.051s2.094-17.265 5.886-16.8c0 0-2.422 20.12-1.146 22.729 1.012 2.083 10.961 14.223 15.007 19.13" fill="#69bc1b"/><path d="M153.312 107.137c-.308.409-.626.817-.97 1.227-.134.171-.273.339-.421.507-.135.163-.275.322-.415.481-22.378 25.463-48.72-8.661-60.744-29.984-5.508-9.769-17.99-19.263-27.708-27.416-7.437-6.246-9.485-14.28-10.03-17.7-.17-1.043-.2-1.658-.2-1.658.539-2.574 1.689-5.72 3.886-8.276a6.82 6.82 0 0 1 .333-.379.125.125 0 0 1 .045-.05c.222-.244.459-.476.7-.703 1.862-1.733 4.33-3.051 7.576-3.476l.005-.006c1.674-.218 3.548-.202 5.652.108 12.606 1.871 18.699 16.45 35.423 27.297 18.555 12.035 67.53 32.57 46.868 60.028" fill="#005913"/><path d="M153.312 107.137c-.282.416-.604.829-.956 1.24a8.617 8.617 0 0 1-.435.495c-14.34 15.517-42.39-16.074-56.26-35.078-6.396-8.759-18.614-18.553-28.26-26.79-6.552-5.593-9.782-11.537-11.185-14.774-.659-1.531-.913-2.458-.913-2.458-.012-1.776.322-3.842 1.435-5.43.093-.143.194-.276.305-.403a.125.125 0 0 1 .045-.05c.208-.257.44-.493.7-.703 1.318-1.094 3.28-1.706 6.149-1.361 1.278.146 2.732.489 4.387 1.056 10.947 3.759 18.702 16.445 34.733 28.083 17.782 12.913 62.718 38.054 50.255 56.173" fill="#006b17"/><path d="M65.369 19.704l-.005.006c-.263.356-.765 1.115-1.427 2.115-.993 1.496-2.347 3.526-3.783 5.52-1.312 1.811-2.69 3.588-3.938 4.885-1.284 1.347-2.42 2.178-3.193 2.021-.343-.061-.612-.321-.789-.817 0 0-2.566-4.74-4.124-10.034-1.55-5.303-4.345-7.653-5.977-8.152-.684-.211-.02-1.474.977-2.883 1.387-1.936 3.414-4.13 3.414-4.13s5.732 6.802 8.606 6.942c2.873.142 11.809 2.43 10.239 4.527" fill="#479706"/><path d="M247.21 35.662a251.588 251.588 0 0 1-6.352 7.182c-.475.528-.967 1.052-1.47 1.593l-3.34-2.684s.288-.532.806-1.468a189.254 189.254 0 0 1 5.244-8.791 171.312 171.312 0 0 1 3.273-5c3.41-5.011 7.467-10.404 11.71-14.755l4.983 4.005c-2.354 3.813-5.63 8.56-10.165 14.235a199.295 199.295 0 0 1-4.689 5.683" fill="#3d8205"/><path d="M237.642 42.002l-.279-.614-.51-1.103-3.109-6.79s1.618-1.388 3.753-4.433c3.18-4.528 7.516-12.74 9.373-25.528l3.52 2.828c.467 3.454-.401 9.519-5.02 20.131a158.163 158.163 0 0 1-2.521 5.491 214.416 214.416 0 0 1-4.32 8.398c-.295.527-.586 1.073-.887 1.62" fill="#479706"/><path d="M245.878 44.074l-5.02-1.229-4.03-.986c.18-.156.354-.315.535-.47.39-.345.78-.678 1.166-1.006 5.105-4.402 9.532-7.798 13.37-10.401 8.751-5.95 14.412-7.773 18.024-7.922l3.918 3.149c-21.106 7.039-27.963 18.865-27.963 18.865" fill="#479706"/><path d="M251.458 55.958c-2.265 2.818-7.815 8.84-14.812 16.198-1.295 1.352-2.632 2.758-4.019 4.192a1749.588 1749.588 0 0 1-25.755 26.245c-1.057 1.067-2.116 2.115-3.144 3.135-9.678 9.573-17.352 16.845-18.919 17.588-8.079 3.826-10.723 3.114-13.331 1.019-2.608-2.096-3.872-4.525-1.874-13.238.228-.995 2.182-4.506 5.232-9.564.55-.9 1.125-1.853 1.738-2.843 9.237-15.086 25.561-40.135 36.058-55.431a411.254 411.254 0 0 1 3.402-4.913c2.151-3.066 3.88-5.432 5.005-6.833 4.649-5.785 11.38-4.633 16.458-2.45 1.795.765 3.378 1.665 4.601 2.43.269.173.522.333.75.491 1.14.75 1.809 1.289 1.809 1.289s.485.389 1.234 1.087c.38.357.826.794 1.32 1.303a33.58 33.58 0 0 1 2.866 3.37c3.328 4.512 6.144 10.998 1.381 16.925" fill="#f58042"/><path d="M216.037 38.344s6.252 2.783 12.215 9.817c0 0-12.665-6.498-15.624-4.9l3.409-4.917zM199.11 63.952s6.252 2.782 12.214 9.816c0 0-12.665-6.498-15.623-4.9l3.408-4.916zM183.794 105.437s-4.635-2.39-8.958-3.904c.551-.9 1.125-1.853 1.739-2.843a41.845 41.845 0 0 1 7.22 6.747M236.654 72.16s-4.063-5.507-12.215-9.816c0 0 9.071 10.97 8.147 14.202l4.068-4.386zM206.876 102.593c-1.064 1.067-2.12 2.113-3.15 3.137-1.986-4.478-7.505-11.146-7.505-11.146 5.24 2.764 8.791 6.03 10.655 8.009" fill="#e26c39"/><g><path d="M72.533 123.96c-4.91.475-9.76-.578-14.469-3.603-15.088-9.7-15.117-25.219-7.078-35.593 10.254-13.235 20.95-9.276 40.56-17.596 11.863-5.034 20.108-12.476 25.25-18.396 4.632-5.324 6.755-9.42 6.755-9.42l19.267 14.93-.03.038c-2.287 2.953-4.831 6.465-7.6 10.322-16.25 22.651-40.046 57.145-62.655 59.318" fill="#591832"/><path d="M136.995 68.392s-.829-1.436-1.807-3.75c-1.785-4.23-4.06-11.395-2.665-18.105-5.135 2.53-11.216 2.654-15.727 2.235-3.85-.357-6.554-1.108-6.554-1.108 11.788-10.1 15.67-10.066 19.403-9.085.314.084.74.196 1.235.33 0 0 6.378 2.43 10.212-8.696l2.812 1.635 1.697.985s-9.222 5.432-4.655 14.503c1.022 2.037 2.02 3.965 1.845 6.925.003.02-.001.041-.003.059-.192 3.117-1.689 7.373-5.793 14.072" fill="#479706"/></g><g><path d="M179.4 35.487l-2.827-1.046s1.937-5.782-2.223-4.836c-3.127.708-3.077 8.1.536 11.53.812.766 1.808 1.34 2.984 1.59.558.114 1.16.165 1.801.123l-2.468.698-4.293 1.221-4.812 1.363-4.88 1.381-.42.123s.25-.12.624-.409a7.081 7.081 0 0 0 1.715-1.926c-.002-.007-.002-.007.005-.009.768-1.265 1.411-3.12 1.316-5.745-.131-3.434.272-7.496 2.223-10.214 1.086-1.516 2.656-2.615 4.882-2.95 10.38-1.565 8.998 8.44 5.837 9.106" fill="#479706"/><path d="M193.516 80.698c3.82 13.943 3.292 27.362-.643 36.589-.016.049-.041.093-.06.135-1.144 2.653-2.572 4.953-4.261 6.813-2.103 2.329-4.618 3.969-7.492 4.756-13.19 3.613-27.155-12.736-35.324-35.204-8.182-22.494-8.933-42.427 12.452-48.285 2.26-.619 4.6-.673 6.954-.211l.007-.002c.981.191 1.964.472 2.95.84 1.957.72 3.91 1.775 5.812 3.133.099.062.192.133.286.204 8.133 5.906 15.483 17.226 19.32 31.232" fill="#ff483b"/><path d="M173.266 85.847c6.317 23.057 22.132 38.816 35.327 35.201 13.194-3.614 16.925-20.615 12.453-48.29-3.812-23.6-13.868-41.08-35.326-35.201-13.194 3.614-18.77 25.235-12.454 48.29" fill="#ff483b"/><path d="M199.7 79.003c4.867 17.765 4.685 34.127.229 41.832-1.307 2.253-2.973 3.764-4.99 4.346a.695.695 0 0 1-.115.04c-1.963.537-4.084.167-6.272-.986-7.85-4.112-16.53-18.254-21.472-36.295-4.787-17.475-9.404-32.188-3.862-40.429.064-.091.133-.192.204-.286a11.7 11.7 0 0 1 1.715-1.925c-.002-.007-.002-.007.006-.01l.006-.001c1.681-1.538 3.916-2.737 6.803-3.558l.118-.032a17.367 17.367 0 0 1 2.817-.563c1.559-.19 3.001-.132 4.35.153 10.735 2.228 15.205 18.52 20.464 37.714" fill="#ff6340"/></g><g><path d="M252.298 47.579a251.588 251.588 0 0 1-6.352 7.181c-.476.529-.967 1.053-1.47 1.593l-3.34-2.684s.287-.531.805-1.468a189.254 189.254 0 0 1 5.245-8.791 171.312 171.312 0 0 1 3.272-5c3.411-5.01 7.468-10.404 11.71-14.755l4.984 4.005c-2.354 3.814-5.63 8.56-10.166 14.236a199.295 199.295 0 0 1-4.688 5.683" fill="#3d8205"/><path d="M242.73 53.918l-.28-.613-.509-1.104-3.11-6.79s1.619-1.388 3.754-4.433c3.18-4.528 7.515-12.74 9.373-25.528l3.519 2.828c.467 3.454-.4 9.52-5.019 20.132a158.163 158.163 0 0 1-2.522 5.49 214.416 214.416 0 0 1-4.32 8.398c-.294.527-.586 1.073-.887 1.62" fill="#479706"/><path d="M250.965 55.99l-5.02-1.228-4.03-.987c.18-.155.355-.314.536-.47.389-.344.78-.678 1.166-1.006 5.104-4.402 9.532-7.798 13.37-10.401 8.75-5.95 14.412-7.773 18.023-7.922l3.918 3.149c-21.105 7.039-27.963 18.865-27.963 18.865" fill="#479706"/><path d="M256.546 67.874c-2.265 2.819-7.816 8.841-14.812 16.198-1.295 1.353-2.632 2.758-4.02 4.193a1749.588 1749.588 0 0 1-25.755 26.244c-1.056 1.067-2.115 2.115-3.143 3.136-9.678 9.572-17.352 16.844-18.92 17.587-8.078 3.827-10.723 3.115-13.33 1.02-2.608-2.097-3.873-4.526-1.874-13.239.228-.995 2.182-4.506 5.232-9.563.55-.902 1.125-1.853 1.738-2.843 9.236-15.086 25.56-40.136 36.057-55.432a411.254 411.254 0 0 1 3.402-4.913c2.152-3.066 3.88-5.432 5.006-6.833 4.648-5.784 11.38-4.633 16.458-2.45 1.794.766 3.378 1.665 4.6 2.431.27.173.522.333.752.49 1.138.751 1.807 1.289 1.807 1.289s.485.39 1.235 1.087c.38.357.826.794 1.319 1.303a33.58 33.58 0 0 1 2.867 3.37c3.327 4.512 6.144 10.999 1.38 16.925" fill="#f58042"/><path d="M221.124 50.26s6.253 2.783 12.216 9.817c0 0-12.666-6.497-15.624-4.9l3.408-4.916zM204.197 75.868s6.252 2.782 12.215 9.816c0 0-12.666-6.497-15.623-4.9l3.408-4.916zM188.882 117.354s-4.635-2.39-8.958-3.904c.55-.901 1.125-1.853 1.738-2.843a41.845 41.845 0 0 1 7.22 6.747M241.742 84.076s-4.063-5.507-12.215-9.816c0 0 9.071 10.97 8.147 14.203l4.068-4.387zM211.964 114.509c-1.065 1.068-2.121 2.114-3.15 3.137-1.986-4.478-7.506-11.146-7.506-11.146 5.24 2.765 8.792 6.03 10.656 8.009" fill="#e26c39"/></g><path d="M28.329 85.799h218.698l-20 99.5H48.329z" style="isolation:auto;mix-blend-mode:normal" color="#000" overflow="visible" fill="#fff" fill-rule="evenodd"/><text y="2833.907" x="-1958.993" style="line-height:125%;-inkscape-font-specification:'roboto, Normal';text-align:start" font-weight="400" font-size="79.649" font-family="roboto" letter-spacing="0" word-spacing="0" fill="#92d125" transform="translate(2026.41 -2669.176)"><tspan style="-inkscape-font-specification:'roboto Heavy'" y="2833.907" x="-1958.993" font-weight="900">10€</tspan></text></svg>