<svg xmlns="http://www.w3.org/2000/svg" viewBox="0 0 299.286 126.33" height="134.752" width="319.238"><path d="M0 0h290.714v97.857H0z" style="isolation:auto;mix-blend-mode:normal" color="#000" overflow="visible" fill="#fff" fill-rule="evenodd"/><path d="M272.012 95.52l27.274 30.81-65.66-31.82z" fill="#fff" fill-rule="evenodd"/><g style="line-height:125%;-inkscape-font-specification:'roboto, Normal';text-align:start" font-weight="900" font-size="16.904" font-family="roboto" letter-spacing="0" word-spacing="0" fill="#404040"><path style="-inkscape-font-specification:'roboto Heavy'" d="M8.089 29.171V17.154h4.317q2.319 0 3.524.85 1.213.85 1.213 2.468 0 .932-.429 1.593-.43.66-1.263.973.941.248 1.445.925.503.677.503 1.65 0 1.767-1.122 2.658-1.115.884-3.31.9H8.089zm2.897-5.11v2.882h1.898q.784 0 1.205-.355.421-.364.421-1.016 0-1.502-1.494-1.51h-2.03zm0-1.897h1.51q.95-.01 1.354-.347.404-.338.404-.999 0-.76-.437-1.09-.437-.338-1.411-.338h-1.42v2.774zM18.505 24.623q0-1.337.52-2.377.52-1.048 1.494-1.61.974-.56 2.286-.56 2.006 0 3.162 1.246 1.155 1.238 1.155 3.375v.1q0 2.088-1.164 3.317-1.155 1.222-3.136 1.222-1.907 0-3.062-1.139-1.156-1.147-1.247-3.103l-.008-.47zm2.782.174q0 1.238.388 1.815.388.578 1.147.578 1.486 0 1.519-2.286v-.28q0-2.403-1.536-2.403-1.395 0-1.51 2.072l-.008.504zM30.919 20.24l.09 1.049q.925-1.214 2.551-1.214 1.395 0 2.08.834.693.834.718 2.51v5.752h-2.79v-5.637q0-.677-.272-.99-.272-.323-.99-.323-.818 0-1.214.644v6.306h-2.781v-8.93h2.608zM40.898 20.24v9.236q-.008 1.585-.908 2.444-.9.858-2.51.858-.693 0-1.312-.14v-2.105q.479.074.784.074 1.156 0 1.156-1.147v-9.22h2.79zm-2.996-2.302q0-.595.429-.974.429-.38 1.114-.38t1.114.38q.43.38.43.974t-.43.974q-.429.38-1.114.38t-1.114-.38q-.43-.38-.43-.974zM42.111 24.623q0-1.337.52-2.377.52-1.048 1.494-1.61.974-.56 2.286-.56 2.006 0 3.162 1.246 1.155 1.238 1.155 3.375v.1q0 2.088-1.164 3.317-1.155 1.222-3.136 1.222-1.907 0-3.062-1.139-1.156-1.147-1.247-3.103l-.008-.47zm2.782.174q0 1.238.388 1.815.387.578 1.147.578 1.485 0 1.519-2.286v-.28q0-2.403-1.536-2.403-1.395 0-1.51 2.072l-.008.504zM57.29 28.205q-.883 1.131-2.386 1.131-1.469 0-2.228-.85-.751-.858-.751-2.46V20.24h2.781v5.803q0 1.147 1.115 1.147.957 0 1.362-.685V20.24h2.798v8.931h-2.609l-.082-.966zM66.914 22.758l-.916-.066q-1.313 0-1.684.825v5.654h-2.782v-8.93h2.608l.091 1.147q.702-1.313 1.956-1.313.446 0 .776.1l-.05 2.583zM77.058 17.154h2.889v8.245q0 1.147-.537 2.047-.528.9-1.486 1.395-.949.495-2.12.495-1.965 0-3.055-.99t-1.09-2.807h2.906q0 .826.28 1.197.29.372.958.372.603 0 .925-.446.33-.454.33-1.263v-8.245zM85.972 29.336q-2.055 0-3.326-1.221-1.272-1.23-1.272-3.195v-.23q0-1.37.504-2.42.512-1.047 1.486-1.617.974-.578 2.31-.578 1.883 0 2.972 1.172 1.09 1.164 1.09 3.252v1.082h-5.53q.148.75.652 1.18.503.43 1.304.43 1.32 0 2.063-.925l1.271 1.502q-.52.718-1.477 1.147-.95.421-2.047.421zm-.314-7.115q-1.221 0-1.452 1.618h2.806v-.215q.016-.668-.339-1.031-.355-.372-1.015-.372zM95.893 29.171q-.149-.272-.264-.8-.768.965-2.146.965-1.263 0-2.146-.76-.883-.767-.883-1.922 0-1.453 1.073-2.196 1.073-.743 3.12-.743h.858v-.47q0-1.23-1.065-1.23-.99 0-.99.974h-2.782q0-1.296 1.098-2.105 1.106-.809 2.815-.809 1.708 0 2.699.834.99.834 1.015 2.286v3.954q.016 1.23.38 1.882v.14h-2.782zm-1.742-1.816q.52 0 .859-.223.346-.222.495-.503V25.2h-.809q-1.453 0-1.453 1.304 0 .38.256.62.256.23.652.23zM102.397 20.24l.09 1.049q.925-1.214 2.551-1.214 1.395 0 2.08.834.693.834.718 2.51v5.752h-2.79v-5.637q0-.677-.272-.99-.272-.323-.99-.323-.818 0-1.214.644v6.306H99.79v-8.93h2.608zM113.738 29.171V17.154h3.87q1.594 0 2.865.726 1.27.718 1.98 2.039.719 1.312.727 2.946v.553q0 1.65-.702 2.963-.693 1.304-1.964 2.047-1.263.735-2.823.743h-3.953zm2.897-9.78v7.552h1.007q1.246 0 1.915-.884.668-.891.668-2.64v-.52q0-1.742-.668-2.626-.669-.883-1.948-.883h-.974zM134.092 17.154v7.865q0 1.338-.57 2.32-.57.974-1.634 1.485-1.065.512-2.518.512-2.195 0-3.458-1.139-1.263-1.139-1.288-3.12v-7.923h2.914v7.98q.05 1.974 1.832 1.974.9 0 1.362-.496.462-.495.462-1.61v-7.848h2.898zM138.788 25.094v4.077h-2.897V17.154h4.795q1.379 0 2.435.511 1.065.504 1.643 1.445.586.932.586 2.12 0 1.759-1.263 2.815-1.255 1.049-3.45 1.049h-1.849zm0-2.237h1.898q.842 0 1.28-.421.445-.421.445-1.189 0-.841-.454-1.345-.453-.503-1.238-.512h-1.931v3.467zM157.062 23.41q0 1.758-.652 3.112-.652 1.353-1.857 2.088-1.197.726-2.732.726-1.535 0-2.724-.701-1.189-.71-1.857-2.023-.66-1.312-.693-3.012v-.677q0-1.766.643-3.112.652-1.353 1.857-2.088 1.214-.735 2.757-.735 1.527 0 2.724.727 1.197.726 1.857 2.071.669 1.338.677 3.07v.554zm-2.947-.504q0-1.79-.602-2.715-.594-.933-1.709-.933-2.179 0-2.303 3.269l-.008.883q0 1.766.586 2.715.586.95 1.742.95 1.098 0 1.692-.933.594-.933.603-2.683v-.553zM168.609 29.171h-2.88l-4.26-7.478v7.478h-2.897V17.154h2.897l4.251 7.477v-7.477h2.889V29.17zM179.66 19.39h-3.606v9.781h-2.897v-9.78h-3.541v-2.237h10.045v2.236zM179.628 32.407l-1.403-.66.28-.562q.578-1.073.603-2.047v-2.063h2.228l-.008 1.79q-.008.95-.487 1.932-.478.982-1.213 1.61zM18.125 50.3h-2.88l-4.26-7.477V50.3H8.09V38.283h2.897l4.25 7.478v-7.478h2.89v12.018zM21.402 38.96l-.272 3.409H19.42v-4.746h1.981v1.337zM21.344 45.753q0-1.337.52-2.377.52-1.048 1.494-1.61.974-.56 2.287-.56 2.005 0 3.16 1.245 1.156 1.239 1.156 3.376v.1q0 2.087-1.163 3.317-1.156 1.222-3.137 1.222-1.906 0-3.062-1.14-1.155-1.146-1.246-3.103l-.008-.47zm2.782.173q0 1.238.388 1.816.388.578 1.147.578 1.486 0 1.519-2.286v-.281q0-2.402-1.535-2.402-1.395 0-1.51 2.072l-.009.503zM36.523 49.335q-.883 1.13-2.385 1.13-1.47 0-2.229-.85-.75-.858-.75-2.459V41.37h2.78v5.803q0 1.147 1.115 1.147.957 0 1.362-.685V41.37h2.798v8.93h-2.608l-.083-.965zM49.036 45.91q0 2.195-.908 3.376-.908 1.18-2.559 1.18-1.361 0-2.195-1.081l-.116.916h-2.492V37.623h2.781v4.465q.776-.883 2.006-.883 1.667 0 2.575 1.197.908 1.197.908 3.367v.14zm-2.79-.174q0-1.287-.346-1.832-.339-.553-1.049-.553-.94 0-1.304.718v3.55q.355.71 1.32.71.983 0 1.247-.958.132-.47.132-1.635zM53.188 50.3h-2.79V37.624h2.79V50.3zM57.843 50.3h-2.79v-8.93h2.79v8.93zm-2.955-11.233q0-.594.43-.974.428-.38 1.113-.38t1.115.38q.429.38.429.974 0 .595-.43.974-.429.38-1.114.38t-1.114-.38q-.429-.38-.429-.974zM63.885 50.466q-2.056 0-3.327-1.222-1.27-1.23-1.27-3.194v-.231q0-1.37.503-2.418.511-1.049 1.485-1.618.974-.578 2.311-.578 1.882 0 2.972 1.172 1.09 1.164 1.09 3.252v1.081h-5.53q.148.752.651 1.18.504.43 1.304.43 1.321 0 2.064-.925l1.271 1.503q-.52.718-1.477 1.147-.95.42-2.047.42zm-.314-7.115q-1.222 0-1.453 1.618h2.807v-.215q.016-.668-.339-1.031-.355-.372-1.015-.372zM72.056 48.155h4.069V50.3H68.54v-1.552l3.962-5.233h-3.789V41.37h7.321v1.502l-3.978 5.283zM90.008 45.902q0 2.08-.941 3.326-.933 1.238-2.526 1.238-1.23 0-2.022-.9v4.168h-2.781V41.37h2.6l.082.826q.8-.99 2.105-.99 1.65 0 2.567 1.22.916 1.214.916 3.343v.133zm-2.782-.174q0-2.377-1.386-2.377-.99 0-1.32.71v3.516q.362.743 1.336.743 1.33 0 1.37-2.295v-.297zM96.256 50.3q-.148-.272-.264-.8-.768.966-2.146.966-1.263 0-2.146-.76-.883-.767-.883-1.923 0-1.452 1.073-2.195 1.073-.743 3.12-.743h.858v-.47q0-1.23-1.065-1.23-.99 0-.99.974h-2.782q0-1.296 1.098-2.105 1.106-.809 2.815-.809 1.708 0 2.699.834.99.833 1.015 2.286v3.954q.016 1.23.38 1.882v.14h-2.782zm-1.741-1.815q.52 0 .858-.223.347-.223.495-.503V46.33h-.809q-1.452 0-1.452 1.304 0 .38.255.619.256.23.653.23zM104.881 47.792q0-.355-.371-.57-.372-.214-1.411-.446-1.04-.23-1.717-.602-.677-.38-1.032-.916-.355-.537-.355-1.23 0-1.23 1.015-2.022 1.016-.8 2.658-.8 1.766 0 2.84.8 1.072.8 1.072 2.104h-2.79q0-1.073-1.13-1.073-.438 0-.735.248-.297.24-.297.603 0 .371.363.602.363.231 1.156.38.8.148 1.403.355 2.014.693 2.014 2.484 0 1.222-1.09 1.99-1.08.767-2.806.767-1.147 0-2.047-.413-.9-.412-1.403-1.122-.504-.71-.504-1.494h2.6q.017.619.413.908.396.28 1.015.28.57 0 .85-.23.29-.232.29-.603zM112.73 45.745q0-2.13.925-3.335t2.55-1.205q1.37 0 2.196 1.123l.198-.958h2.41v12.364h-2.79v-4.176q-.8.908-2.03.908-1.585 0-2.526-1.222-.932-1.23-.932-3.5zm2.782.173q0 2.402 1.387 2.402.957 0 1.32-.726V44.06q-.346-.71-1.304-.71-1.295 0-1.394 2.072l-.008.495zM127.91 49.335q-.884 1.13-2.386 1.13-1.47 0-2.228-.85-.752-.858-.752-2.459V41.37h2.782v5.803q0 1.147 1.114 1.147.958 0 1.362-.685V41.37h2.798v8.93h-2.608l-.082-.965zM136.452 50.466q-2.055 0-3.326-1.222-1.271-1.23-1.271-3.194v-.231q0-1.37.503-2.418.512-1.049 1.486-1.618.974-.578 2.311-.578 1.882 0 2.971 1.172 1.09 1.164 1.09 3.252v1.081h-5.53q.148.752.652 1.18.503.43 1.304.43 1.32 0 2.063-.925l1.272 1.503q-.52.718-1.478 1.147-.95.42-2.047.42zm-.313-7.115q-1.222 0-1.453 1.618h2.806v-.215q.017-.668-.338-1.031-.355-.372-1.015-.372zM149.13 46.991l1.411-5.62h2.93l-2.913 8.93h-2.84l-2.913-8.93h2.938l1.387 5.62zM153.835 45.753q0-1.337.52-2.377.52-1.048 1.494-1.61.974-.56 2.286-.56 2.006 0 3.161 1.245 1.156 1.239 1.156 3.376v.1q0 2.087-1.164 3.317-1.156 1.222-3.137 1.222-1.906 0-3.062-1.14-1.155-1.146-1.246-3.103l-.008-.47zm2.781.173q0 1.238.388 1.816.388.578 1.147.578 1.486 0 1.52-2.286v-.281q0-2.402-1.536-2.402-1.395 0-1.51 2.072l-.008.503zM169.013 49.335q-.883 1.13-2.385 1.13-1.47 0-2.228-.85-.752-.858-.752-2.459V41.37h2.782v5.803q0 1.147 1.114 1.147.958 0 1.362-.685V41.37h2.798v8.93h-2.608l-.082-.965zM177.911 47.792q0-.355-.371-.57-.372-.214-1.412-.446-1.04-.23-1.717-.602-.676-.38-1.031-.916-.355-.537-.355-1.23 0-1.23 1.015-2.022 1.015-.8 2.658-.8 1.766 0 2.84.8 1.072.8 1.072 2.104h-2.79q0-1.073-1.13-1.073-.438 0-.735.248-.297.24-.297.603 0 .371.363.602.363.231 1.156.38.8.148 1.403.355 2.014.693 2.014 2.484 0 1.222-1.09 1.99-1.081.767-2.806.767-1.147 0-2.047-.413-.9-.412-1.403-1.122-.504-.71-.504-1.494h2.6q.017.619.413.908.396.28 1.015.28.57 0 .85-.23.29-.232.29-.603zM191.142 50.3q-.149-.272-.264-.8-.768.966-2.146.966-1.263 0-2.146-.76-.883-.767-.883-1.923 0-1.452 1.073-2.195 1.073-.743 3.12-.743h.858v-.47q0-1.23-1.065-1.23-.99 0-.99.974h-2.782q0-1.296 1.098-2.105 1.106-.809 2.815-.809 1.708 0 2.699.834.99.833 1.015 2.286v3.954q.016 1.23.38 1.882v.14h-2.782zm-1.742-1.815q.52 0 .859-.223.346-.223.495-.503V46.33h-.809q-1.453 0-1.453 1.304 0 .38.256.619.256.23.652.23zM198.52 46.991l1.412-5.62h2.93l-2.913 8.93h-2.84l-2.913-8.93h2.938l1.387 5.62zM207.93 50.466q-2.055 0-3.326-1.222-1.271-1.23-1.271-3.194v-.231q0-1.37.503-2.418.512-1.049 1.486-1.618.974-.578 2.311-.578 1.882 0 2.971 1.172 1.09 1.164 1.09 3.252v1.081h-5.53q.148.752.652 1.18.503.43 1.304.43 1.32 0 2.064-.925l1.27 1.503q-.52.718-1.477 1.147-.949.42-2.047.42zm-.313-7.115q-1.222 0-1.453 1.618h2.806v-.215q.017-.668-.338-1.031-.355-.372-1.015-.372zM216.102 48.155h4.069V50.3h-7.586v-1.552l3.962-5.233h-3.788V41.37h7.32v1.502l-3.977 5.283zM230.356 46.058h-1.568v4.243h-2.897V38.283h4.729q2.138 0 3.343.95 1.205.949 1.205 2.682 0 1.255-.512 2.08-.503.825-1.585 1.337l2.51 4.845v.124h-3.104l-2.121-4.243zm-1.568-2.236h1.832q.825 0 1.238-.43.421-.437.421-1.213t-.421-1.213q-.42-.446-1.238-.446h-1.832v3.302zM236.918 50.3V38.284h3.87q1.594 0 2.865.727 1.27.718 1.98 2.038.719 1.313.727 2.947v.553q0 1.65-.702 2.963-.693 1.304-1.964 2.047-1.263.735-2.823.743h-3.953zm2.897-9.78v7.552h1.007q1.246 0 1.915-.883.668-.891.668-2.641v-.52q0-1.742-.668-2.625-.669-.883-1.948-.883h-.974zM252.344 47.032l2.394-8.749h3.235l-4.044 12.018h-3.17l-4.011-12.018h3.21l2.386 8.75zM7.61 66.9q0-2.122.916-3.344.916-1.221 2.559-1.221 1.197 0 2.014.94v-4.522h2.79V71.43h-2.501l-.14-.958q-.859 1.123-2.18 1.123-1.593 0-2.525-1.222-.933-1.221-.933-3.475zm2.782.173q0 2.377 1.386 2.377.925 0 1.32-.776v-3.4q-.379-.793-1.303-.793-1.288 0-1.395 2.08l-.008.512zM22.5 71.43q-.149-.272-.264-.8-.768.966-2.146.966-1.263 0-2.146-.76-.883-.767-.883-1.923 0-1.452 1.073-2.195 1.073-.743 3.12-.743h.858v-.47q0-1.23-1.065-1.23-.99 0-.99.973h-2.782q0-1.295 1.098-2.104 1.106-.81 2.815-.81 1.708 0 2.699.835.99.833 1.015 2.286v3.953q.016 1.23.38 1.882v.14H22.5zm-1.742-1.815q.52 0 .859-.223.346-.223.495-.504v-1.427h-.809q-1.452 0-1.452 1.304 0 .38.255.619.256.23.652.23zM29.004 62.5l.09 1.048q.925-1.213 2.551-1.213 1.395 0 2.08.834.694.833.718 2.509v5.753h-2.79v-5.638q0-.677-.272-.99-.272-.322-.99-.322-.817 0-1.214.644v6.306h-2.781V62.5h2.608zM40.667 68.921q0-.354-.372-.57-.371-.214-1.411-.445-1.04-.23-1.717-.602-.677-.38-1.032-.916-.355-.537-.355-1.23 0-1.23 1.016-2.022 1.015-.801 2.657-.801 1.767 0 2.84.8 1.073.801 1.073 2.105h-2.79q0-1.073-1.13-1.073-.438 0-.736.248-.297.24-.297.602 0 .372.364.603.363.231 1.155.38.8.148 1.403.355 2.014.693 2.014 2.484 0 1.221-1.09 1.989-1.08.768-2.806.768-1.147 0-2.047-.413-.9-.413-1.403-1.123t-.503-1.493h2.6q.016.619.412.907.397.281 1.016.281.57 0 .85-.231.289-.231.289-.603zM57.207 71.43h-8.386v-1.815l3.863-4.061q1.428-1.626 1.428-2.584 0-.775-.338-1.18-.339-.404-.983-.404-.635 0-1.031.544-.396.537-.396 1.346h-2.79q0-1.106.553-2.039.553-.94 1.535-1.47.982-.527 2.196-.527 1.947 0 2.996.9 1.056.899 1.056 2.583 0 .71-.264 1.386-.264.669-.825 1.412-.553.734-1.791 1.973l-1.552 1.79h4.73v2.147zM61.392 63.457q.891-1.122 2.278-1.122 1.477 0 2.229.875.75.875.767 2.583v5.638h-2.79v-5.572q0-.71-.289-1.04-.288-.338-.982-.338-.858 0-1.213.545v6.405H58.61V58.753h2.782v4.704zM80.73 67.031q0 2.08-.94 3.327-.933 1.238-2.526 1.238-1.23 0-2.022-.9v4.168H72.46V62.5h2.6l.083.825q.8-.99 2.105-.99 1.65 0 2.566 1.221.917 1.214.917 3.343v.132zm-2.78-.173q0-2.377-1.388-2.377-.99 0-1.32.71v3.516q.363.743 1.337.743 1.329 0 1.37-2.295v-.297zM81.597 66.883q0-1.337.52-2.377.52-1.049 1.494-1.61.974-.561 2.287-.561 2.005 0 3.16 1.246 1.156 1.238 1.156 3.376v.099q0 2.088-1.163 3.318-1.156 1.222-3.137 1.222-1.907 0-3.062-1.14-1.156-1.147-1.246-3.103l-.008-.47zm2.782.173q0 1.238.388 1.816.388.578 1.147.578 1.486 0 1.519-2.287v-.28q0-2.402-1.535-2.402-1.395 0-1.51 2.072l-.009.503zM96.776 70.465q-.883 1.13-2.385 1.13-1.47 0-2.229-.85-.75-.858-.75-2.46V62.5h2.78v5.802q0 1.148 1.115 1.148.957 0 1.362-.685V62.5h2.798v8.93h-2.608l-.083-.965zM106.4 65.017l-.916-.066q-1.312 0-1.684.826v5.654h-2.781V62.5h2.608l.09 1.147q.702-1.312 1.957-1.312.445 0 .776.099l-.05 2.583zM117.031 65.017l-.916-.066q-1.313 0-1.684.826v5.654h-2.782V62.5h2.609l.09 1.147q.702-1.312 1.957-1.312.445 0 .775.099l-.049 2.583zM122.19 71.596q-2.056 0-3.327-1.222-1.27-1.23-1.27-3.194v-.231q0-1.37.503-2.419.511-1.048 1.485-1.617.974-.578 2.311-.578 1.882 0 2.972 1.172 1.09 1.164 1.09 3.252v1.081h-5.53q.148.751.651 1.18.504.43 1.304.43 1.321 0 2.064-.925l1.271 1.502q-.52.719-1.477 1.148-.95.42-2.047.42zm-.314-7.115q-1.222 0-1.453 1.618h2.807v-.215q.016-.669-.339-1.032-.355-.371-1.015-.371zm-.033-5.737h2.938l-2.294 2.592h-2.27l1.626-2.592zM130.856 69.45q.586 0 .908-.314.322-.322.314-.891h2.608q0 1.469-1.057 2.41-1.048.94-2.707.94-1.948 0-3.07-1.22-1.123-1.222-1.123-3.385v-.116q0-1.353.495-2.385.504-1.04 1.445-1.593.94-.561 2.228-.561 1.742 0 2.765.966 1.024.965 1.024 2.616h-2.608q0-.693-.339-1.065-.338-.371-.908-.371-1.08 0-1.263 1.378-.057.438-.057 1.205 0 1.346.322 1.866.321.52 1.023.52zM141.182 70.465q-.884 1.13-2.386 1.13-1.469 0-2.228-.85-.751-.858-.751-2.46V62.5h2.781v5.802q0 1.148 1.114 1.148.958 0 1.362-.685V62.5h2.798v8.93h-2.608l-.082-.965zM153.694 67.031q0 2.08-.94 3.327-.933 1.238-2.526 1.238-1.23 0-2.022-.9v4.168h-2.782V62.5h2.6l.083.825q.8-.99 2.104-.99 1.651 0 2.567 1.221.916 1.214.916 3.343v.132zm-2.781-.173q0-2.377-1.387-2.377-.99 0-1.32.71v3.516q.363.743 1.337.743 1.329 0 1.37-2.295v-.297zM159.233 71.596q-2.055 0-3.327-1.222-1.27-1.23-1.27-3.194v-.231q0-1.37.503-2.419.512-1.048 1.486-1.617.973-.578 2.31-.578 1.882 0 2.972 1.172 1.09 1.164 1.09 3.252v1.081h-5.53q.148.751.651 1.18.504.43 1.305.43 1.32 0 2.063-.925l1.271 1.502q-.52.719-1.477 1.148-.95.42-2.047.42zm-.314-7.115q-1.222 0-1.453 1.618h2.807v-.215q.016-.669-.339-1.032-.355-.371-1.015-.371zm.941-3.145h-2.262l-2.327-2.592h2.938l1.651 2.592zM169.525 65.017l-.916-.066q-1.312 0-1.684.826v5.654h-2.781V62.5h2.608l.09 1.147q.702-1.312 1.957-1.312.446 0 .776.099l-.05 2.583zM174.684 71.596q-2.055 0-3.326-1.222-1.272-1.23-1.272-3.194v-.231q0-1.37.504-2.419.512-1.048 1.486-1.617.974-.578 2.31-.578 1.883 0 2.972 1.172 1.09 1.164 1.09 3.252v1.081h-5.53q.148.751.652 1.18.503.43 1.304.43 1.32 0 2.063-.925l1.271 1.502q-.52.719-1.477 1.148-.95.42-2.047.42zm-.314-7.115q-1.221 0-1.452 1.618h2.806v-.215q.016-.669-.339-1.032-.354-.371-1.015-.371zM184.976 65.017l-.916-.066q-1.312 0-1.684.826v5.654h-2.781V62.5h2.608l.09 1.147q.702-1.312 1.957-1.312.446 0 .776.099l-.05 2.583zM193.767 68.12l1.411-5.62h2.93l-2.913 8.93h-2.84l-2.913-8.93h2.938l1.387 5.62zM198.471 66.883q0-1.337.52-2.377.52-1.049 1.494-1.61.974-.561 2.287-.561 2.005 0 3.16 1.246 1.156 1.238 1.156 3.376v.099q0 2.088-1.163 3.318-1.156 1.222-3.137 1.222-1.907 0-3.062-1.14-1.156-1.147-1.246-3.103l-.008-.47zm2.782.173q0 1.238.388 1.816.388.578 1.147.578 1.486 0 1.519-2.287v-.28q0-2.402-1.535-2.402-1.395 0-1.51 2.072l-.009.503zM211.57 60.28v2.22h1.47v1.931h-1.47v4.086q0 .503.182.702.181.198.718.198.413 0 .693-.05v1.989q-.751.24-1.568.24-1.436 0-2.121-.678-.685-.676-.685-2.055v-4.432h-1.14v-1.932h1.14v-2.22h2.781zM219.543 65.017l-.916-.066q-1.312 0-1.684.826v5.654h-2.781V62.5h2.608l.09 1.147q.702-1.312 1.957-1.312.446 0 .776.099l-.05 2.583zM224.702 71.596q-2.055 0-3.326-1.222-1.271-1.23-1.271-3.194v-.231q0-1.37.503-2.419.512-1.048 1.486-1.617.974-.578 2.31-.578 1.883 0 2.972 1.172 1.09 1.164 1.09 3.252v1.081h-5.53q.148.751.652 1.18.503.43 1.304.43 1.32 0 2.063-.925l1.271 1.502q-.52.719-1.477 1.148-.95.42-2.047.42zm-.314-7.115q-1.221 0-1.452 1.618h2.806v-.215q.016-.669-.338-1.032-.355-.371-1.016-.371zM242.11 67.031q0 2.08-.942 3.327-.932 1.238-2.525 1.238-1.23 0-2.022-.9v4.168h-2.782V62.5h2.6l.082.825q.801-.99 2.105-.99 1.65 0 2.567 1.221.916 1.214.916 3.343v.132zm-2.782-.173q0-2.377-1.387-2.377-.99 0-1.32.71v3.516q.363.743 1.337.743 1.328 0 1.37-2.295v-.297zM248.357 71.43q-.148-.272-.264-.8-.767.966-2.146.966-1.263 0-2.146-.76-.883-.767-.883-1.923 0-1.452 1.073-2.195 1.073-.743 3.12-.743h.858v-.47q0-1.23-1.064-1.23-.99 0-.99.973h-2.782q0-1.295 1.098-2.104 1.106-.81 2.814-.81 1.709 0 2.7.835.99.833 1.014 2.286v3.953q.017 1.23.38 1.882v.14h-2.782zm-1.741-1.815q.52 0 .858-.223.347-.223.495-.504v-1.427h-.808q-1.453 0-1.453 1.304 0 .38.256.619.256.23.652.23zM254.861 62.5l.091 1.048q.925-1.213 2.55-1.213 1.396 0 2.08.834.694.833.719 2.509v5.753h-2.79v-5.638q0-.677-.272-.99-.273-.322-.99-.322-.818 0-1.214.644v6.306h-2.782V62.5h2.608zM264.783 71.43h-2.79V62.5h2.79v8.93zm-2.955-11.233q0-.594.429-.974t1.114-.38q.685 0 1.114.38.43.38.43.974t-.43.974q-.429.38-1.114.38t-1.114-.38q-.43-.38-.43-.974zM270.824 71.596q-2.055 0-3.326-1.222-1.271-1.23-1.271-3.194v-.231q0-1.37.503-2.419.512-1.048 1.486-1.617.974-.578 2.311-.578 1.882 0 2.972 1.172 1.089 1.164 1.089 3.252v1.081h-5.53q.149.751.652 1.18.504.43 1.304.43 1.32 0 2.064-.925l1.27 1.502q-.52.719-1.477 1.148-.949.42-2.047.42zm-.313-7.115q-1.222 0-1.453 1.618h2.806v-.215q.017-.669-.338-1.032-.355-.371-1.015-.371zM281.117 65.017l-.916-.066q-1.313 0-1.684.826v5.654h-2.782V62.5h2.609l.09 1.147q.702-1.312 1.957-1.312.445 0 .775.099l-.05 2.583z"/></g></svg>