<svg xmlns="http://www.w3.org/2000/svg" xmlns:xlink="http://www.w3.org/1999/xlink" viewBox="0 0 275.145 336.76" height="359.211" width="293.488"><g transform="translate(1491.858 318.875)"><path d="M-1271.427-77.843c6.123-1.158 15.904-1.085 19.942-2.314 1.248-.38 1.949-.887 1.815-1.592a2.785 2.785 0 0 0-.192-.597c-.284-.637-.83-1.419-1.635-2.253-3.44-3.588-11.549-8.13-23.323-6.308-7.758 1.2-12.358 6.956-12.184 10.052.004.116.017.235.036.348.565 2.99 7.526 4.18 15.54 2.664M-1299.6-62.677c3.037-.119 5.757 6.397 6.076 14.551.318 8.155 4.105 21.957 1.067 22.076-3.037.118-13.43-6.867-14.558-22.455-.59-8.14 4.377-14.054 7.414-14.172" fill="#92d125"/><path d="M-1289.135-24.274c14.471 11.522 35.24 9.787 47.628-3.54a35.51 35.51 0 0 0 3.018-3.727l.004-.003c10.65-15.102 7.791-36.077-6.854-47.737a34.754 34.754 0 0 0-6.247-3.982c-11.405-5.685-25.007-4.68-35.418 2.408a35.073 35.073 0 0 0-7.734 7.18 35.062 35.062 0 0 0-6.021 11.284c-3.59 11.334-1.212 23.955 6.597 33.232a35.976 35.976 0 0 0 2.455 2.627c.81.787 1.67 1.54 2.572 2.258" fill="#69bc1b"/><path d="M-1260.637-43.112c10.6 8.44 19.938 14.346 20.857 13.193.918-1.153-6.93-8.93-17.531-17.37-10.6-8.44-19.938-14.346-20.856-13.192-.918 1.153 6.93 8.93 17.53 17.37" fill="#b0e874"/><path d="M-1259.626-54.861c-.64-5.647-1.658-10.167-2.272-10.098-.615.07-.593 4.704.047 10.35.641 5.647 1.658 10.167 2.273 10.098.614-.07.593-4.703-.048-10.35M-1247.577-46.493c-.64-5.647-1.658-10.168-2.272-10.098-.615.07-.593 4.703.047 10.35.64 5.646 1.66 10.167 2.273 10.097.615-.07.593-4.703-.048-10.35" fill="#b0e874"/><path d="M-1268.782-43.36c-5.647.64-10.28.661-10.35.047-.07-.615 4.451-1.632 10.098-2.273 5.646-.64 10.28-.662 10.35-.047.07.614-4.451 1.632-10.098 2.272M-1257.927-33.493c-5.647.64-10.28.662-10.35.048-.07-.615 4.45-1.632 10.097-2.273 5.646-.64 10.28-.662 10.35-.048.07.615-4.45 1.632-10.097 2.273" fill="#b0e874"/><path d="M-1238.486-31.544c.378-.395 33.362-35.312-2.615-56.081-6.962-4.022-9.85-2.061-10.396 3.026-.047.423-.076.868-.09 1.335-.025.955.011 1.998.102 3.107 1.267 15.326 13.158 44.027 13 48.613M-1241.443-27.83s-26.776 40.602-55.242 10.02c-19.806-21.276 48.49-8.199 55.242-10.02M-1423.342-126.883c-.721 6.19-3.708 15.505-3.739 19.726-.01 1.304.266 2.124.979 2.207.182.022.39.02.626-.005.693-.082 1.602-.37 2.64-.89 4.45-2.212 11.202-8.598 12.975-20.38 1.168-7.763-2.955-13.87-5.96-14.627a2.597 2.597 0 0 0-.344-.07c-3.023-.352-6.234 5.937-7.177 14.04M-1429.416-158.297c-.793 2.936-7.823 3.589-15.702 1.461-7.878-2.128-22.182-2.629-21.39-5.564.793-2.935 10.56-10.77 25.775-7.2 7.946 1.864 12.11 8.369 11.317 11.303" fill="#92d125"/><path d="M-1469.194-159.759c-15.313 10.377-19.85 30.719-10.824 46.517a35.51 35.51 0 0 0 2.657 3.992l.002.004c11.24 14.67 32.113 18.195 47.61 7.693a34.754 34.754 0 0 0 5.664-4.775c8.826-9.19 11.924-22.473 8.263-34.524-.999-3.302-2.51-6.516-4.547-9.523a35.062 35.062 0 0 0-8.975-9.113c-9.749-6.805-22.504-8.3-33.688-3.612-1.097.463-2.178.98-3.24 1.56a34.637 34.637 0 0 0-2.922 1.781" fill="#69bc1b"/><path d="M-1459.711-126.94c-11.217 7.601-19.64 14.753-18.812 15.973.827 1.22 10.59-3.952 21.807-11.553 11.217-7.601 19.639-14.753 18.812-15.973-.827-1.22-10.59 3.952-21.807 11.553" fill="#b0e874"/><path d="M-1448.798-122.471c5.581 1.072 10.199 1.449 10.316.842.117-.608-4.313-1.969-9.893-3.041-5.58-1.072-10.199-1.45-10.317-.842-.116.607 4.313 1.968 9.894 3.04M-1460.378-113.466c5.581 1.072 10.2 1.45 10.316.842.117-.607-4.313-1.968-9.894-3.04-5.58-1.073-10.199-1.45-10.315-.843-.117.608 4.313 1.97 9.893 3.041" fill="#b0e874"/><path d="M-1457.044-134.64c1.072-5.582 2.433-10.01 3.04-9.894.608.117.23 4.736-.841 10.316-1.073 5.58-2.434 10.01-3.042 9.894-.606-.117-.23-4.736.843-10.316M-1469.7-127.222c1.072-5.581 2.434-10.01 3.04-9.894.608.117.23 4.736-.842 10.316-1.071 5.58-2.433 10.01-3.04 9.894-.608-.117-.23-4.735.842-10.316" fill="#b0e874"/><path d="M-1477.359-109.246c.265.478 23.757 42.374 54.31 14.228 5.915-5.446 4.905-8.789.212-10.827-.39-.17-.806-.33-1.248-.483a29.051 29.051 0 0 0-2.996-.83c-15.006-3.36-45.948-.57-50.278-2.088M-1480.02-113.177s-30.77-37.665 6.907-55.717c26.215-12.56-6.633 48.73-6.908 55.717M-1288.516-211.593l.051.068a.17.17 0 0 0-.055-.001c.002-.023-.003-.046.004-.067m1.923 1.928c.019.02.042.03.06.05l-.051.003c0-.016-.006-.034-.009-.053m2.217 1.572c.022.017.05.026.072.043-.02.003-.037.009-.051.013-.007-.018-.015-.039-.02-.056m2.443 1.19c.025.006.051.02.078.03-.017.005-.032.015-.047.025a.35.35 0 0 0-.03-.054m2.69.78c-.016.017-.028.03-.045.036-.016-.016-.027-.025-.039-.05a.194.194 0 0 0 .084.014m15.002-4.491c-.023-.002-.043.007-.07.008.022-.024.042-.043.062-.068 0 .022.006.04.008.06m-2.076 1.764a.278.278 0 0 1-.067-.004l.072-.053c-.008.021-.002.039-.005.057m-2.341 1.406c-.021-.008-.04-.012-.059-.015.023-.015.05-.022.073-.037a.29.29 0 0 1-.014.052m-2.536 1c-.016-.017-.04-.022-.056-.028.021-.009.051-.012.08-.026a.285.285 0 0 1-.024.053m-2.664.566l-.052-.03c.03-.004.054-.009.083-.012a.214.214 0 0 0-.03.042m-2.723.123c-.016-.016-.036-.03-.052-.046.032 0 .06.002.09.005-.012.008-.03.03-.038.04m14.082-6.995c0 .017.012.035.015.055-.024.005-.044.007-.069.018.019-.028.039-.046.054-.073m1.38-2.335c.01.015.014.029.02.046-.017.006-.032.016-.05.022.012-.023.017-.048.03-.068m.974-2.546c.01.014.026.03.032.048-.018.012-.035.028-.054.04.007-.03.016-.057.022-.088m.555-2.66c.01.015.024.028.038.04a.344.344 0 0 0-.051.044c.002-.028.007-.053.013-.084m.099-2.72c.014.013.03.023.046.04-.018.012-.026.033-.042.049.003-.029-.004-.056-.004-.088m-.34-2.696c.016.01.031.016.045.029-.01.017-.014.036-.027.055-.008-.027-.01-.053-.019-.084m-.777-2.603c.011.008.03.012.047.022-.01.017-.01.034-.02.05-.01-.024-.022-.049-.027-.072m-2.735-4.648c-.005.025-.002.045-.003.067l-.055-.066c.016 0 .036-.002.058 0m1.526 2.207c.019.004.035.004.056.011-.004.019-.007.047-.01.066-.013-.029-.032-.049-.046-.077m-30.76 19.863c.03.076.06.153.097.225.047.086.106.16.164.239.017.025.023.043.023.043l.004-.003a2.11 2.11 0 0 0 1.491.803 2.105 2.105 0 0 0 2.29 2.262c.047.514.271 1.013.688 1.383.544.495 1.278.65 1.94.478.13.502.434.952.905 1.25a2.1 2.1 0 0 0 1.995.151c.206.473.583.87 1.096 1.086.674.29 1.42.196 1.994-.18.284.427.722.757 1.261.891a2.12 2.12 0 0 0 1.938-.506c.345.375.83.63 1.382.671a2.094 2.094 0 0 0 1.83-.814 2.109 2.109 0 0 0 3.15-.67 2.108 2.108 0 0 0 2.994-1.181c.229.078.475.118.72.116.274-.005.556-.064.824-.184a2.123 2.123 0 0 0 1.217-1.584 2.122 2.122 0 0 0 1.512-.325c.61-.41.942-1.08.941-1.765a2.08 2.08 0 0 0 1.437-.569 2.104 2.104 0 0 0 .64-1.897 2.107 2.107 0 0 0 1.641-2.765 2.126 2.126 0 0 0 1.175-1 2.105 2.105 0 0 0-.011-2c.455-.248.82-.657.997-1.18.23-.7.076-1.432-.34-1.97.407-.323.701-.78.79-1.332a2.13 2.13 0 0 0-.66-1.889c.346-.38.563-.883.559-1.436a2.107 2.107 0 0 0-.964-1.758c.28-.432.414-.964.314-1.509a2.087 2.087 0 0 0-1.232-1.573 2.118 2.118 0 0 0 .064-1.546 2.119 2.119 0 0 0-1.478-1.346c.123-.5.074-1.05-.195-1.535a2.1 2.1 0 0 0-1.678-1.084 2.095 2.095 0 0 0-.438-1.48 2.09 2.09 0 0 0-.909-.66c-.584-.644-6.928-.32-9.458-2.952-8.567-8.907-22.88-27.358-32.449-29.712-1.423-.355-2.742-.351-3.92.1l-.372.156a5.63 5.63 0 0 0-.764.437 5.227 5.227 0 0 0-1.073.98c-.533.639-.925 1.402-1.182 2.28-2.822 9.526 9.918 31.939 16.567 44.758 1.995 3.85-.49 7.48 2.484 10.096" fill="#92d125"/><path d="M-1311.625-265.742c.257-.877.65-1.64 1.183-2.278a5.227 5.227 0 0 1 1.072-.98 5.62 5.62 0 0 1 .764-.438l.372-.156c1.178-.451 2.497-.455 3.92-.1.723 2.939 2.176 7.833 4.104 9.543 2.82 2.498 5.317 1.948 8.376 4.635-.266-.128-4.805-2.32-5.466-1.067-.681 1.293 8.958 6.09 11.392 11.927 0 0-8.396-7.764-7.964-3.796 0 0 1.487 3.657 3.442 7.96 1.732 3.816 3.834 8.14 5.596 10.88 0 0-10.55-14.1-12.3-18.118 0 0-.64 1.5-1.143 3.36-.502 1.864-.876 4.087-.335 5.553-.125-.244-2.078-4.239-.867-11.888.218-1.348-3.031-4.321-3.031-4.321s-.638 7.642-2.316 7.5c0 0 .735-8.906.13-10.034-.481-.901-5.066-6.086-6.93-8.182" fill="#69bc1b"/><path d="M-1409.577-6.291l.015.083a.17.17 0 0 0-.048-.025c.01-.02.017-.043.033-.058m.837 2.591c.008.026.024.047.031.073-.014-.008-.033-.014-.047-.022.007-.014.01-.032.016-.051m1.26 2.408c.012.025.032.045.045.071-.02-.007-.037-.01-.052-.012l.008-.06m1.636 2.172c.02.016.036.041.056.061-.018-.002-.035 0-.053.002.001-.023-.001-.045-.003-.063m2.042 1.919c-.021.007-.039.013-.057.01-.007-.02-.012-.034-.011-.06.02.02.04.04.068.05m15.404 2.815c-.019-.011-.041-.013-.065-.024l.086-.032c-.011.019-.013.037-.02.056m-2.652.628a.278.278 0 0 1-.057-.033l.088-.015c-.017.015-.019.034-.03.048m-2.725.189c-.015-.017-.03-.028-.045-.04.027-.003.054.003.081 0a.29.29 0 0 1-.036.04m-2.713-.262c-.007-.022-.026-.037-.037-.05.022.002.051.012.083.013a.285.285 0 0 1-.046.037m-2.63-.707l-.033-.05.08.027a.214.214 0 0 0-.046.023m-2.481-1.127c-.007-.022-.02-.043-.026-.065a1.1 1.1 0 0 1 .077.045c-.013.002-.039.014-.051.02m15.722.167c-.007.015-.005.037-.011.055-.023-.006-.042-.013-.07-.014.03-.017.056-.024.081-.04m2.291-1.454c.002.018 0 .032-.003.05-.018-.002-.036 0-.054-.003.02-.015.036-.035.057-.047m2.025-1.826c.002.018.008.04.006.058-.022.002-.043.01-.066.012.02-.025.04-.045.06-.07m1.703-2.116a.204.204 0 0 0 .015.052c-.022.003-.044.01-.066.017.016-.025.032-.044.05-.07m1.324-2.377c.007.017.017.034.024.056-.022.002-.038.017-.06.024.016-.024.022-.051.036-.08m.922-2.556c.01.017.021.03.028.046-.017.011-.03.026-.05.037.006-.027.016-.05.022-.083m.49-2.672c.007.013.021.024.032.041-.016.011-.024.025-.04.036.001-.027.002-.054.008-.077m-.324-5.383c-.015.02-.022.039-.033.058l-.019-.083c.014.007.033.014.052.025m.357 2.66c.014.012.028.02.044.035-.012.015-.027.04-.039.054.001-.031-.006-.057-.005-.089m-36.426 3.716a2.28 2.28 0 0 0-.017.244c.003.099.022.19.037.288.004.03.002.049.002.049h.004a2.11 2.11 0 0 0 .963 1.392 2.105 2.105 0 0 0 1.012 3.056 2.087 2.087 0 0 0-.015 1.544c.26.688.842 1.16 1.51 1.307a2.08 2.08 0 0 0 .239 1.525 2.1 2.1 0 0 0 1.708 1.041 2.07 2.07 0 0 0 .483 1.466c.469.565 1.176.82 1.858.746.059.509.3 1.002.719 1.366a2.12 2.12 0 0 0 1.956.43c.137.491.453.94.926 1.226a2.094 2.094 0 0 0 2 .106 2.109 2.109 0 0 0 3.111.835 2.108 2.108 0 0 0 3.204.308c.168.174.368.321.587.43.247.12.525.196.818.212.731.032 1.401-.31 1.804-.859.416.302.941.462 1.495.398a2.122 2.122 0 0 0 1.64-1.145c.458.235 1 .302 1.539.146a2.104 2.104 0 0 0 1.431-1.399 2.107 2.107 0 0 0 2.719-1.717c.51.067 1.049-.04 1.502-.357a2.105 2.105 0 0 0 .898-1.786 2.112 2.112 0 0 0 1.425-.6c.523-.517.718-1.24.592-1.907a2.128 2.128 0 0 0 1.31-.829 2.13 2.13 0 0 0 .268-1.982c.482-.181.904-.53 1.152-1.026a2.107 2.107 0 0 0-.06-2.003c.446-.258.807-.672.966-1.201a2.087 2.087 0 0 0-.384-1.962c.398-.328.685-.796.76-1.348a2.119 2.119 0 0 0-.704-1.87c.336-.39.542-.902.523-1.456a2.1 2.1 0 0 0-1.002-1.729c.272-.44.39-.974.282-1.517a2.09 2.09 0 0 0-.51-1c-.226-.84-6.026-3.434-7.084-6.929-3.583-11.827-7.948-34.767-15.403-41.212-1.106-.963-2.283-1.559-3.537-1.693l-.403-.03a5.63 5.63 0 0 0-.879.043c-.115.014-.23.036-.347.058a5.227 5.227 0 0 0-1.053.328c-.766.326-1.462.828-2.09 1.493-6.842 7.204-5.679 32.958-5.581 47.398.028 4.336-3.835 6.44-2.374 10.122" fill="#92d125"/><path d="M-1405.557-65.027c.628-.665 1.324-1.167 2.09-1.493a5.227 5.227 0 0 1 1.4-.385c.3-.04.596-.051.879-.043l.403.03c1.254.133 2.43.729 3.537 1.692-.692 2.947-1.622 7.967-.68 10.366 1.377 3.507 3.851 4.15 5.355 7.935-.18-.235-3.227-4.25-4.385-3.434-1.194.842 5.213 9.494 4.728 15.8 0 0-3.95-10.73-5.37-7 0 0-.336 3.933-.55 8.656-.19 4.185-.283 8.992.04 12.235 0 0-2.99-17.356-2.722-21.73 0 0-1.253 1.046-2.546 2.474-1.294 1.432-2.637 3.243-2.822 4.794 0-.274.076-4.72 4.63-10.983.806-1.102-.737-5.227-.737-5.227s-4.04 6.518-5.47 5.628c0 0 4.701-7.6 4.674-8.88-.018-1.02-1.746-7.722-2.454-10.435" fill="#69bc1b"/><path d="M-1437.536-24.962c-.168.15-.34.3-.524.447a5.054 5.054 0 0 1-.226.184c-.072.059-.146.115-.22.172-11.859 9.1-20.334-7.915-23.71-18.167-1.547-4.697-6.133-9.872-9.64-14.23-2.682-3.338-2.88-6.989-2.824-8.515.016-.465.055-.734.055-.734.454-1.067 1.22-2.33 2.39-3.247.057-.048.115-.093.176-.136a5.822 5.822 0 0 1 .387-.262c.954-.59 2.133-.949 3.574-.855l.003-.002c.742.049 1.552.216 2.435.53 5.293 1.888 6.681 8.715 12.987 14.839 6.997 6.793 26.425 19.866 15.137 29.976" fill="#005913"/><path d="M-1437.536-24.962a6.146 6.146 0 0 1-.52.454c-.026.024-.056.047-.087.07-.048.037-.095.074-.143.107-7.53 5.485-16.96-10.58-21.334-19.987-2.017-4.336-6.464-9.618-9.932-14.006-2.356-2.98-3.244-5.828-3.574-7.348a9.3 9.3 0 0 1-.185-1.141c.147-.77.468-1.635 1.086-2.226a1.518 1.518 0 0 1 .19-.167c.112-.093.232-.175.363-.244.663-.36 1.564-.457 2.776-.062.54.172 1.14.445 1.807.832 4.414 2.563 6.683 8.714 12.621 15.12 6.587 7.106 23.874 21.826 16.932 28.598" fill="#006b17"/><path d="M-1468.095-70.307l-.003.002c-.144.132-.426.417-.798.793a77.183 77.183 0 0 1-2.109 2.064c-.722.671-1.47 1.321-2.121 1.776-.67.473-1.233.735-1.554.601-.143-.056-.237-.191-.272-.42 0 0-.704-2.27-.925-4.694-.217-2.427-1.225-3.682-1.888-4.038-.278-.15.117-.64.67-1.163.765-.72 1.83-1.494 1.83-1.494s1.897 3.432 3.128 3.739c1.23.307 4.9 2.061 4.042 2.834" fill="#479706"/><path d="M-1308.454 11.34c-.223.032-.45.06-.685.081-.095.012-.19.021-.289.028a9.523 9.523 0 0 1-.28.02c-14.915.975-12.505-17.88-9.614-28.28 1.324-4.764.387-11.615-.106-17.187-.375-4.266 1.488-7.41 2.384-8.648.271-.378.453-.58.453-.58.97-.635 2.31-1.258 3.792-1.371.074-.008.147-.013.222-.015a5.822 5.822 0 0 1 .467-.003c1.12.04 2.3.397 3.447 1.275h.003c.59.454 1.17 1.042 1.73 1.795 3.351 4.51.711 10.958 2.55 19.553 2.042 9.536 10.928 31.201-4.074 33.333" fill="#005913"/><path d="M-1308.454 11.34c-.217.043-.446.071-.684.09-.035.005-.074.007-.112.01-.06.004-.12.008-.178.009-9.31.375-8.221-18.221-6.63-28.473.733-4.725-.028-11.588-.472-17.163-.303-3.787.54-6.648 1.111-8.095.272-.683.481-1.052.481-1.052.55-.558 1.298-1.099 2.14-1.247a1.518 1.518 0 0 1 .25-.033c.145-.015.29-.016.438-.001.752.07 1.554.49 2.342 1.49.354.445.7 1.005 1.04 1.697 2.246 4.583.714 10.958 2.09 19.584 1.527 9.569 7.718 31.413-1.816 33.185" fill="#006b17"/><path d="M-1308.66-43.34h-.003c-.193.03-.586.11-1.105.216-.775.157-1.83.37-2.9.544-.973.157-1.957.281-2.75.298-.82.02-1.434-.074-1.626-.364-.088-.126-.091-.291.008-.501 0 0 .675-2.279 1.839-4.416 1.168-2.138 1.028-3.742.674-4.406-.148-.279.453-.466 1.203-.595 1.036-.172 2.352-.225 2.352-.225s-.33 3.908.523 4.847c.852.939 2.928 4.437 1.785 4.602" fill="#479706"/><path d="M-1257.747-247.418c-.136.18-.276.36-.428.541-.06.076-.12.15-.186.224-.06.072-.12.142-.182.212-9.868 11.227-21.483-3.819-26.785-13.221-2.429-4.308-7.932-8.494-12.218-12.09-3.279-2.753-4.182-6.296-4.423-7.804a7.385 7.385 0 0 1-.088-.73c.238-1.136.745-2.523 1.714-3.65.047-.058.096-.113.147-.167a5.822 5.822 0 0 1 .328-.332c.822-.764 1.91-1.345 3.341-1.533l.002-.002c.738-.096 1.565-.09 2.492.047 5.56.825 8.246 7.253 15.62 12.037 8.181 5.306 29.777 14.361 20.666 26.468" fill="#005913"/><path d="M-1257.747-247.418a6.146 6.146 0 0 1-.422.547 3.8 3.8 0 0 1-.192.218c-6.323 6.842-18.69-7.087-24.807-15.467-2.82-3.862-8.207-8.18-12.46-11.813-2.89-2.466-4.314-5.087-4.933-6.514-.29-.676-.402-1.084-.402-1.084-.006-.783.142-1.694.633-2.394a1.518 1.518 0 0 1 .154-.2c.092-.113.194-.217.308-.31.581-.483 1.446-.752 2.712-.6.563.064 1.205.215 1.934.465 4.827 1.658 8.247 7.252 15.315 12.383 7.841 5.694 27.655 16.78 22.16 24.77" fill="#006b17"/><path d="M-1296.525-285.97l-.002.002c-.116.157-.337.492-.63.933a77.183 77.183 0 0 1-1.667 2.434c-.579.798-1.187 1.582-1.737 2.154-.566.594-1.067.96-1.408.891-.15-.027-.27-.142-.347-.36 0 0-1.132-2.09-1.819-4.425-.683-2.338-1.916-3.374-2.636-3.594-.3-.093-.009-.65.431-1.271.612-.854 1.506-1.821 1.506-1.821s2.527 2.998 3.794 3.06c1.267.063 5.207 1.072 4.515 1.997" fill="#479706"/><path d="M-1232.22-90.438a74.048 74.048 0 0 1 2.32-.298c.191-.022.38-.042.576-.063l.202 1.132-.42.155a50.897 50.897 0 0 1-4.152 1.284c-1.57.412-3.344.786-4.966.918l-.302-1.688c1.149-.357 2.645-.737 4.562-1.085a54.777 54.777 0 0 1 2.18-.355" fill="#3d8205"/><path d="M-1229.4-89.998l-.049.172-.011.036-.082.278-.567 1.92s-.507-.005-1.378.194c-1.427.327-3.828 1.201-6.557 3.546l-.212-1.192c.512-.78 1.756-1.852 4.562-3.184.514-.245 1.083-.5 1.71-.763.487-.203 1.01-.414 1.571-.63.18-.067.362-.138.55-.207l.463-.17" fill="#479706"/><path d="M-1230.697-91.87l.798 1.134.64.91h-.19c-.14.001-.278 0-.414-.002-1.807-.01-3.301-.105-4.536-.255-2.817-.34-4.282-.97-5.038-1.577l-.237-1.327c5.506 2.299 8.977 1.118 8.977 1.118" fill="#479706"/><path d="M-1226.963-97.267c2.565-.224 5.09 1.276 6.474 3.212l-.002-.01c1.027 1.6 2.424 1.609 3.047 1.563.624-.045.731.275.731.275s.003.075-.06.174c-.067.11-.214.245-.53.338-.563.162-1.752.605-2.234 2.196-.017.08-.034.161-.056.243-.56 2.216-2.274 4.447-4.999 5.304-2.865.9-5.586-.245-6.895-3.426a9.112 9.112 0 0 1-.498-1.593 4.938 4.938 0 0 1-.07-.337 12.633 12.633 0 0 1-.166-1.11 9.79 9.79 0 0 1-.055-1.162c.041-3.376 1.964-5.377 5.313-5.667" fill="#591832"/><path d="M-1380.38-261.474a74.048 74.048 0 0 1 2.32-.299c.192-.022.382-.042.577-.063l.202 1.133-.42.154a50.897 50.897 0 0 1-4.152 1.285c-1.571.412-3.344.785-4.967.918l-.3-1.689c1.147-.356 2.644-.737 4.561-1.085a54.777 54.777 0 0 1 2.179-.354" fill="#3d8205"/><path d="M-1377.559-261.035l-.05.172-.01.036-.083.278-.566 1.92s-.507-.004-1.379.195c-1.426.326-3.827 1.2-6.556 3.545l-.213-1.192c.513-.779 1.757-1.852 4.563-3.183.514-.245 1.083-.5 1.71-.764.487-.202 1.01-.413 1.571-.629.18-.068.362-.138.55-.207l.463-.17" fill="#479706"/><path d="M-1378.857-262.906l.798 1.133.641.91h-.191c-.14.002-.277 0-.413-.001-1.808-.01-3.301-.105-4.536-.256-2.817-.34-4.283-.97-5.039-1.576l-.236-1.327c5.506 2.298 8.976 1.117 8.976 1.117" fill="#479706"/><path d="M-1375.123-268.303c2.565-.225 5.091 1.276 6.475 3.212l-.002-.01c1.027 1.6 2.424 1.609 3.047 1.563.624-.045.73.274.73.274s.004.075-.06.174c-.066.11-.213.246-.53.338-.563.162-1.751.606-2.233 2.196-.017.081-.035.162-.056.243-.56 2.217-2.274 4.448-5 5.305-2.864.9-5.586-.245-6.894-3.426a9.112 9.112 0 0 1-.498-1.594 4.938 4.938 0 0 1-.07-.336c-.014-.059-.025-.121-.036-.183a12.633 12.633 0 0 1-.13-.927 9.79 9.79 0 0 1-.056-1.162c.042-3.376 1.965-5.377 5.313-5.667" fill="#591832"/><g><path d="M-1479.538-102.277c.255.686.515 1.421.779 2.206.062.183.121.364.183.55l-1.065.436s-.086-.134-.24-.38a50.897 50.897 0 0 1-2.128-3.788c-.733-1.449-1.47-3.104-1.941-4.662l1.587-.65c.59 1.048 1.277 2.431 2.02 4.232.262.633.531 1.315.805 2.056" fill="#3d8205"/><path d="M-1479.375-99.427l-.179-.011-.037-.004-.29-.022-1.996-.15s-.102-.497-.48-1.307c-.618-1.326-1.978-3.49-4.844-5.665l1.12-.458c.87.337 2.18 1.328 4.072 3.791.348.452.717.954 1.106 1.511.3.435.616.9.945 1.405.104.16.211.324.319.493l.264.417" fill="#479706"/><path d="M-1477.819-101.089l-.94 1.019-.755.818c-.013-.063-.028-.125-.04-.187-.03-.136-.058-.271-.085-.405-.37-1.769-.592-3.249-.704-4.488-.26-2.826.048-4.39.482-5.257l1.248-.51c-1.09 5.866.794 9.01.794 9.01" fill="#479706"/><path d="M-1471.757-98.572c.759 2.46-.178 5.245-1.78 7.005l.01-.004c-1.35 1.34-1.064 2.707-.888 3.307.175.6-.115.772-.115.772s-.072.02-.183-.022c-.12-.042-.284-.157-.441-.447-.277-.517-.96-1.585-2.617-1.722-.082 0-.165 0-.25-.004-2.284-.08-4.825-1.288-6.236-3.773-1.481-2.612-.934-5.513 1.9-7.46a9.112 9.112 0 0 1 1.454-.822c.1-.05.207-.095.314-.139.055-.027.113-.05.17-.074a12.633 12.633 0 0 1 .88-.322 9.79 9.79 0 0 1 1.125-.299c3.309-.669 5.67.791 6.657 4.004" fill="#591832"/></g><g><path d="M-1465.387-81.375a74.048 74.048 0 0 1 2.32-.299c.192-.022.382-.042.577-.063l.202 1.132s-.149.057-.42.155a50.897 50.897 0 0 1-4.152 1.285c-1.57.411-3.344.785-4.966.917l-.301-1.688c1.148-.356 2.644-.737 4.561-1.085a54.777 54.777 0 0 1 2.18-.354" fill="#3d8205"/><path d="M-1462.566-80.936l-.049.172-.011.036-.082.278-.567 1.92s-.507-.005-1.378.195c-1.427.326-3.828 1.2-6.557 3.545l-.212-1.192c.512-.78 1.756-1.852 4.562-3.183.514-.246 1.083-.5 1.71-.764.488-.202 1.01-.413 1.571-.629.18-.068.362-.138.55-.208.151-.054.306-.112.463-.17" fill="#479706"/><path d="M-1463.863-82.807l.798 1.133.64.91h-.19c-.14.002-.278 0-.414-.001-1.807-.01-3.3-.105-4.536-.256-2.817-.34-4.282-.97-5.038-1.576l-.237-1.327c5.506 2.298 8.977 1.117 8.977 1.117" fill="#479706"/><path d="M-1460.13-88.205c2.566-.224 5.091 1.277 6.475 3.212l-.002-.01c1.027 1.601 2.424 1.61 3.048 1.564.623-.046.73.274.73.274s.004.075-.06.174c-.067.11-.214.246-.53.338-.563.162-1.752.605-2.233 2.196-.018.081-.035.162-.057.243-.559 2.217-2.274 4.448-4.999 5.305-2.865.9-5.586-.246-6.895-3.426a9.112 9.112 0 0 1-.498-1.594 4.938 4.938 0 0 1-.07-.336 12.633 12.633 0 0 1-.166-1.11 9.79 9.79 0 0 1-.055-1.162c.041-3.376 1.964-5.377 5.313-5.668" fill="#591832"/></g><g><path d="M-1329.312-37.136l-.692-1.606s3.206-1.5 1.143-2.87c-1.55-1.031-4.637 1.948-4.632 4.84a3.596 3.596 0 0 0 1.195 2.697l-1.281-.758-2.232-1.316-2.499-1.477-2.534-1.499-.22-.127s.15.056.422.098a4.11 4.11 0 0 0 1.502-.05c.839-.184 1.876-.657 2.942-1.748 1.39-1.429 3.26-2.886 5.183-3.153 1.072-.15 2.162.07 3.194.871 4.813 3.737.054 7.16-1.49 6.098" fill="#479706"/><path d="M-1342.666-13.105C-1347-5.918-1352.851-.769-1358.305 1.27c-.027.013-.055.02-.08.03-1.574.58-3.112.9-4.57.935-1.82.048-3.517-.353-4.998-1.246-6.799-4.098-5.516-16.512.66-28.94 6.18-12.443 14.258-20.737 25.28-14.092 1.165.702 2.124 1.664 2.873 2.838l.003.002c.312.49.588 1.015.827 1.577.482 1.11.82 2.354 1.01 3.697.014.066.021.134.03.202.772 5.782-1.045 13.403-5.396 20.622" fill="#ff483b"/><path d="M-1352.937-19.556c-7.164 11.884-7.458 24.84-.657 28.94 6.801 4.1 15.44-1.137 25.285-14.094 8.394-11.05 11.717-22.273.657-28.94-6.801-4.1-18.121 2.21-25.285 14.094" fill="#ff483b"/><path d="M-1339.479-11.183c-5.52 9.156-12.47 15.629-17.493 16.84-1.47.352-2.772.257-3.824-.358-.024-.01-.041-.02-.063-.033-1.011-.61-1.705-1.65-2.096-3.031-1.413-4.945 1.057-14.255 6.663-23.554 5.429-9.007 9.766-16.837 15.448-17.806l.202-.029c.489-.07.986-.09 1.496-.05.002-.003.002-.003.006 0l.003.002c1.32.09 2.718.55 4.219 1.435l.06.037c.508.3.963.619 1.365.958a7.664 7.664 0 0 1 1.676 1.89c3.36 5.405-1.698 13.805-7.662 23.699" fill="#ff6340"/></g><g><path d="M-1239.112-242.487l-1.247-.461s.854-2.55-.98-2.133c-1.379.312-1.357 3.572.236 5.084a2.732 2.732 0 0 0 2.11.756l-1.088.307-1.893.539-2.122.6-2.152.61-.185.054s.11-.053.275-.18c.206-.158.499-.428.757-.85-.001-.003-.001-.003.002-.003.338-.558.622-1.376.58-2.534-.058-1.514.12-3.305.98-4.504.479-.668 1.172-1.152 2.153-1.3 4.577-.69 3.967 3.721 2.574 4.015" fill="#479706"/><path d="M-1232.888-222.552c1.685 6.148 1.452 12.065-.283 16.134-.008.021-.019.04-.027.06-.505 1.17-1.134 2.183-1.879 3.003-.927 1.027-2.036 1.75-3.303 2.097-5.817 1.594-11.974-5.615-15.576-15.522-3.608-9.92-3.94-18.708 5.49-21.291a6.658 6.658 0 0 1 3.067-.093l.003-.001c.433.084.866.208 1.3.37.864.318 1.725.783 2.563 1.382a1.8 1.8 0 0 1 .127.09c3.585 2.604 6.826 7.595 8.518 13.771" fill="#ff483b"/><path d="M-1241.817-220.281c2.785 10.166 9.759 17.115 15.577 15.521 5.818-1.594 7.463-9.09 5.491-21.293-1.68-10.406-6.115-18.114-15.576-15.522-5.818 1.594-8.277 11.128-5.492 21.294" fill="#ff483b"/><path d="M-1230.16-223.3c2.145 7.834 2.064 15.049.1 18.446-.576.994-1.311 1.66-2.2 1.917-.018.008-.033.012-.051.017-.866.237-1.801.074-2.766-.435-3.46-1.813-7.288-8.049-9.468-16.004-2.11-7.705-4.146-14.192-1.703-17.826.029-.04.059-.085.09-.126a5.16 5.16 0 0 1 .757-.85c-.001-.002-.001-.002.002-.003l.003-.001c.741-.678 1.726-1.207 3-1.569l.052-.014a7.658 7.658 0 0 1 1.242-.249 5.822 5.822 0 0 1 1.917.068c4.734.983 6.705 8.166 9.024 16.63" fill="#ff6340"/></g><g><path d="M-1421.792-72.793c-.049 1.8-.139 3.727-.274 5.785-.024.429-.057.862-.09 1.307h-2.588s-.065-.36-.176-.997a114.33 114.33 0 0 1-.857-6.124 103.49 103.49 0 0 1-.351-3.593c-.29-3.65-.42-7.725-.07-11.38h3.863c.335 2.687.588 6.162.6 10.551.008 1.392-.008 2.875-.057 4.45" fill="#3d8205"/><path d="M-1423.899-66.187l-.363-.184-.658-.327-4.033-2.02s.236-1.266.09-3.508c-.217-3.336-1.283-8.843-5.247-15.568h2.727c1.527 1.45 3.414 4.634 5.255 11.38.294 1.085.596 2.261.89 3.539a129.53 129.53 0 0 1 1.144 5.59c.06.359.13.726.195 1.098" fill="#479706"/><path d="M-1419.237-68.328l-2.828 1.32-2.272 1.062c.027-.142.049-.283.075-.425.053-.31.11-.614.168-.915.738-4.004 1.538-7.279 2.36-9.957 1.87-6.113 3.846-9.114 5.49-10.55h3.036c-7.275 11.3-6.029 19.465-6.029 19.465" fill="#479706"/><path d="M-1412.111-64.844c0 2.184-.335 7.12-.846 13.233-.098 1.127-.196 2.294-.306 3.495a1056.94 1056.94 0 0 1-2.196 22.105c-.094.902-.196 1.796-.294 2.666-.935 8.17-1.797 14.498-2.254 15.441-2.356 4.86-3.87 5.525-5.892 5.525-2.02 0-3.536-.666-5.891-5.525-.27-.555-.678-2.947-1.156-6.483-.082-.633-.171-1.298-.257-1.997-1.36-10.599-3.152-28.572-3.997-39.747a248.442 248.442 0 0 1-.258-3.601c-.147-2.258-.228-4.026-.228-5.112 0-4.483 3.605-6.488 6.822-7.382a20.337 20.337 0 0 1 3.087-.596c.192-.02.372-.04.54-.053.82-.078 1.338-.078 1.338-.078s.376 0 .993.045c.314.025.69.062 1.114.115.764.094 1.674.253 2.625.502 3.275.865 7.056 2.854 7.056 7.447" fill="#f58042"/><path d="M-1435.457-59.734s3.998-1.056 9.467 0c0 0-8.423 1.733-9.211 3.605l-.256-3.605zM-1433.737-41.27s3.997-1.056 9.466 0c0 0-8.423 1.733-9.21 3.605l-.256-3.605zM-1425.25-15.939s-3.087.63-5.696 1.552c-.081-.633-.171-1.299-.257-1.997a25.28 25.28 0 0 1 5.953.445M-1412.951-51.612s-3.998-1.056-9.467 0c0 0 8.423 1.733 9.21 3.605l.257-3.605zM-1415.457-26.013c-.098.906-.2 1.798-.296 2.67-2.63-1.358-7.753-2.41-7.753-2.41 3.514-.68 6.422-.486 8.049-.26" fill="#e26c39"/></g><g><path d="M-1408.243-242.245c-.43-1.402-.86-2.913-1.29-4.536-.093-.337-.18-.68-.27-1.032l1.997-.672s.144.26.395.723c.47.877 1.311 2.492 2.252 4.505a84.28 84.28 0 0 1 1.204 2.682c1.171 2.742 2.33 5.853 3.008 8.765l-2.981 1.003c-.956-1.987-2.054-4.603-3.203-7.988a98.045 98.045 0 0 1-1.112-3.45" fill="#3d8205"/><path d="M-1408.332-247.89l.328.047.593.081 3.638.512s.146 1.039.841 2.73c1.033 2.52 3.286 6.494 8.093 10.655l-2.106.708c-1.555-.722-3.838-2.69-7.01-7.418a77.81 77.81 0 0 1-1.607-2.501c-.737-1.201-1.513-2.537-2.334-4.018-.14-.261-.289-.527-.436-.797" fill="#479706"/><path d="M-1411.374-245.028l1.84-1.754 1.478-1.408c.016.116.036.23.052.346.04.253.074.503.108.75.47 3.283.703 6.018.764 8.299.144 5.204-.602 8.033-1.498 9.569l-2.343.788c2.68-10.612-.401-16.59-.401-16.59" fill="#479706"/><path d="M-1417.779-245.867c-.567-1.686-1.59-5.583-2.784-10.433-.217-.895-.444-1.822-.67-2.777a860.731 860.731 0 0 1-4.045-17.632c-.162-.721-.315-1.438-.466-2.135-1.4-6.548-2.378-11.657-2.27-12.503.557-4.362 1.553-5.27 3.113-5.794 1.56-.525 2.902-.405 5.982 2.734.352.358 1.289 2.1 2.576 4.704.227.467.47.958.717 1.474 3.801 7.828 9.852 21.236 13.406 29.642.417.978.797 1.889 1.134 2.712.7 1.705 1.222 3.048 1.504 3.887 1.164 3.46-1.099 5.943-3.35 7.469-.793.54-1.586.958-2.227 1.261-.143.066-.276.128-.403.182-.613.272-1.013.407-1.013.407s-.29.098-.778.223a19.76 19.76 0 0 1-.89.201 16.52 16.52 0 0 1-2.156.294c-2.752.182-6.187-.37-7.38-3.916" fill="#f58042"/><path d="M-1401.087-255.873s-2.81 1.853-7.307 2.458c0 0 6.052-3.525 6.174-5.174l1.133 2.716zM-1407.208-269.678s-2.811 1.853-7.307 2.458c0 0 6.051-3.525 6.174-5.174l1.133 2.716zM-1420.337-287.026s2.22-1.287 3.994-2.677c.227.468.47.958.717 1.475-1.21.47-2.807.947-4.71 1.202M-1420.566-256.298s3.36-.223 7.307-2.458c0 0-6.952.85-8.046-.39l.739 2.848zM-1425.28-276.707c-.16-.725-.313-1.44-.464-2.138 2.382.365 6.61-.154 6.61-.154-2.536 1.438-4.831 2.044-6.145 2.292" fill="#e26c39"/></g><g><path d="M-1374.824-26.416c-.062 0-.123-.002-.185-.004-4.617-.124-9.195-4.935-8.287-10.695.965-6.126 3.718-10.58 8.287-10.696.062-.003.123-.003.185-.003 4.68 0 7.707 5.096 8.162 10.988.582 7.516-3.483 10.41-8.162 10.41" fill="#d1b264"/><path d="M-1377.381-44.32c0 .24-.177.436-.395.436-.218 0-.394-.195-.394-.436 0-.24.176-.436.394-.436.218 0 .395.195.395.436M-1379.922-38.735c0 .24-.176.436-.394.436-.218 0-.395-.195-.395-.436s.177-.436.395-.436c.218 0 .394.195.394.436M-1375.437-39.731c0 .24-.177.436-.394.436-.218 0-.395-.196-.395-.436 0-.241.177-.436.395-.436.217 0 .394.195.394.436M-1371.339-42.887c0 .24-.176.436-.394.436-.218 0-.395-.196-.395-.436 0-.241.177-.436.395-.436.218 0 .394.195.394.436M-1369.138-37.887c0 .24-.177.436-.394.436-.218 0-.395-.196-.395-.436s.177-.436.395-.436c.217 0 .394.195.394.436M-1376.226-32.63c0 .24-.177.436-.394.436-.218 0-.395-.195-.395-.436 0-.24.177-.436.395-.436.217 0 .394.195.394.436M-1372.377-34.141c0 .24-.177.436-.395.436-.218 0-.394-.196-.394-.436 0-.241.176-.436.394-.436.218 0 .395.195.395.436M-1373.166-28.697c0 .241-.177.436-.395.436-.218 0-.394-.195-.394-.436 0-.24.176-.436.394-.436.218 0 .395.196.395.436" fill="#bc9c53"/></g><g><path d="M-1415.405-157.913a8.32 8.32 0 0 1-.203.097c-5.107 2.37-12.714-.394-14.85-7.173-2.273-7.21-1.687-13.563 3.237-16.17.065-.038.132-.071.2-.105 5.105-2.54 11.177 1.377 14.872 7.56 4.715 7.886 1.85 13.25-3.256 15.791" fill="#d1b264"/><path d="M-1427.915-176.062c.13.262.044.571-.194.69-.238.118-.536 0-.667-.262-.13-.263-.044-.572.194-.69.237-.118.536-.001.667.262M-1427.656-168.588c.13.262.044.571-.194.69-.237.118-.536 0-.667-.262-.13-.263-.044-.572.194-.69s.536-.001.667.262M-1423.302-172.11c.13.262.044.571-.194.69-.238.118-.537 0-.667-.262-.131-.263-.044-.572.193-.69.238-.118.537-.001.668.262M-1420.544-177.78c.13.264.044.573-.194.69-.237.12-.536.002-.667-.26-.13-.263-.044-.572.194-.69.238-.12.537-.002.667.26M-1415.428-173.518c.131.263.044.572-.193.69-.238.119-.537.001-.668-.261-.13-.263-.044-.572.194-.69.238-.119.537-.001.667.261M-1420.308-163.933c.13.263.044.572-.194.69s-.537.001-.667-.262c-.131-.262-.044-.571.193-.69.238-.118.537 0 .668.262M-1416.929-167.671c.131.262.044.571-.193.69-.238.118-.537 0-.668-.262-.13-.263-.044-.572.194-.69s.537-.001.667.262M-1414.834-161.302c.13.263.044.572-.194.69-.238.119-.536.002-.667-.261-.13-.263-.044-.572.194-.69.238-.119.536-.001.667.261" fill="#bc9c53"/></g><g><path d="M-1305.819-292.06a8.32 8.32 0 0 1-.203.097c-5.106 2.37-12.714-.393-14.85-7.173-2.272-7.21-1.686-13.563 3.237-16.17.066-.038.133-.071.2-.104 5.106-2.54 11.177 1.377 14.872 7.559 4.715 7.887 1.85 13.251-3.256 15.791" fill="#d1b264"/><path d="M-1318.329-310.21c.131.264.044.573-.193.69-.238.12-.537.002-.668-.26-.13-.263-.044-.572.194-.69.238-.12.537-.002.667.26M-1318.07-302.735c.132.263.045.571-.193.69-.238.118-.536 0-.667-.262-.131-.263-.044-.572.194-.69.237-.118.536-.001.667.262M-1313.716-306.257c.13.263.044.572-.194.69-.237.118-.536 0-.667-.262-.13-.262-.044-.571.194-.69.238-.118.536 0 .667.262M-1310.957-311.926c.13.263.044.572-.194.69s-.537.001-.667-.262c-.13-.262-.044-.571.194-.69.237-.118.536 0 .667.262M-1305.84-307.664c.13.262.043.571-.195.69-.238.118-.536 0-.667-.262-.13-.263-.044-.572.194-.69s.536-.001.667.262M-1310.722-298.08c.13.263.044.572-.194.69-.237.119-.536.001-.667-.261-.13-.263-.044-.572.194-.69.238-.119.537-.001.667.261M-1307.342-301.818c.13.262.044.571-.194.69-.238.118-.536 0-.667-.262-.13-.263-.044-.572.194-.69s.536-.001.667.262M-1305.247-295.448c.13.262.044.571-.194.69-.238.118-.537 0-.667-.262-.131-.263-.044-.572.193-.69.238-.118.537-.001.668.262" fill="#bc9c53"/></g><g><path d="M-1441.962-262.426c.872 3.184 2.277 5.473 3.719 7.12a16 16 0 0 0 2.315 2.166 18.475 18.475 0 0 0 2.007 1.325c.1.057.192.113.278.159.002.002.005.004.01.003l.006.005c.364.209.589.343.606.43-.006.018-.012.03-.018.044-.012.009-.025.02-.042.03-.288.202-.836.359-1.568.469-.913.142-2.11.218-3.437.238-4.627.08-10.872-.481-12.414-1.154-.826-.36-.599-.541-.062-1.14-.048.004-.093.009-.138.009-1.893.078-3.456-.585-3.497-1.484-.013-.342.2-.672.573-.95-1.687-.031-3.02-.66-3.054-1.486-.015-.357.22-.697.621-.984-1.41-.309-2.4-1.014-2.342-1.752.031-.42.399-.772.97-1.015-1.398-.599-2.294-1.54-2.073-2.277.126-.408.575-.68 1.204-.792-.903-1.007-1.275-2.071-.832-2.626.312-.39.968-.444 1.744-.205-.447-.81-.545-1.557-.172-1.963.466-.504 1.521-.329 2.618.356.035.019.07.043.103.064.001-.076.008-.152.015-.224.043-.47.202-.833.474-1.02.036-.021.071-.043.11-.062.694-.336 1.759.406 2.565 1.699.155-.603.447-1.02.857-1.118.72-.17 1.568.702 2.093 2.047.22-.44.52-.724.876-.762.82-.094 1.644 1.126 1.936 2.79.216-.413.51-.673.85-.71.85-.099 1.697 1.205 1.963 2.947.446-.416 1.012-.63 1.136-.177" fill="#69bc1b"/><path d="M-1445.833-258.35c-1.76.128-3.216-.413-3.31-1.261-.038-.342.152-.684.505-.988-1.687.085-3.058-.448-3.15-1.27-.04-.356.17-.712.551-1.025-1.427-.21-2.467-.845-2.46-1.587.005-.42.347-.797.9-1.08-1.438-.5-2.395-1.377-2.225-2.127.094-.417.523-.718 1.144-.875-.969-.94-1.414-1.978-1.011-2.56.311-.452 1.06-.523 1.95-.267-.403-.703-.498-1.353-.185-1.745.441-.552 1.563-.426 2.743.23-.029-.639.135-1.136.508-1.348.67-.379 1.785.285 2.679 1.519.11-.612.374-1.048.774-1.173.707-.221 1.616.59 2.23 1.897.189-.456.469-.759.821-.824.814-.15 1.72 1.01 2.125 2.65.19-.425.462-.706.8-.768.883-.163 1.877 1.216 2.22 3.08l.02.136c.466-.654.592-.915 1.127-.19 1.525 2.07 4.995 14.735 4.038 16.751-.248.52-3.259-5.61-12.715-6.028-.47-.02-.386-.62-.079-1.147" fill="#5da618"/><path d="M-1424.166-252.943a6.921 6.921 0 0 1 1.849 8.551c-.166.344.11 1.369.643 1.862.53.496.297.668.297.668s-.115.263-.716-.144c-.6-.407-1.659-.453-1.958-.215-.007.003-.007.003-.01.006a6.923 6.923 0 0 1-8.74.086 6.917 6.917 0 0 1-1.12-9.686l.066-.083a6.92 6.92 0 0 1 9.689-1.045" fill="#992956"/></g><g><path d="M-1284.582-297.036c.236 2.714 1.037 4.78 1.964 6.33.508.85 1.052 1.541 1.559 2.101.55.605 1.056 1.052 1.433 1.373.072.061.139.12.202.17.002.002.003.004.008.004l.003.005c.265.224.428.365.429.438a.272.272 0 0 1-.021.034c-.01.005-.024.013-.039.018-.263.12-.731.168-1.342.148-.763-.02-1.745-.135-2.826-.315-3.767-.62-8.754-2-9.906-2.775-.617-.414-.406-.528.118-.934-.039-.004-.076-.007-.113-.014-1.548-.216-2.719-.986-2.618-1.722.04-.28.261-.515.605-.687-1.365-.274-2.354-.982-2.26-1.658.041-.292.282-.533.651-.706-1.1-.46-1.799-1.179-1.642-1.77.088-.336.438-.567.937-.68-1.046-.693-1.633-1.59-1.345-2.155.162-.313.567-.468 1.094-.464-.584-.952-.728-1.87-.286-2.255.31-.271.85-.218 1.446.091-.243-.724-.212-1.345.151-1.618.453-.34 1.283-.043 2.072.676.026.02.051.045.074.067.013-.061.03-.122.046-.18.105-.374.287-.646.536-.757.032-.012.064-.025.098-.035.613-.17 1.368.59 1.831 1.76.215-.467.513-.762.861-.782.61-.03 1.17.803 1.396 1.973.244-.326.529-.512.824-.49.68.045 1.167 1.158 1.158 2.552.237-.303.514-.47.795-.451.705.046 1.2 1.23 1.158 2.684.423-.272.915-.363.949.024" fill="#69bc1b"/><path d="M-1288.328-294.3c-1.448-.157-2.55-.812-2.501-1.514.02-.284.225-.533.556-.727-1.382-.181-2.416-.817-2.369-1.498.02-.295.243-.553.6-.75-1.128-.382-1.878-1.052-1.762-1.653.065-.34.4-.595.89-.743-1.094-.619-1.741-1.472-1.492-2.056.139-.325.531-.506 1.059-.541-.648-.907-.855-1.815-.442-2.228.32-.32.938-.268 1.623.072-.223-.63-.205-1.172.107-1.444.44-.383 1.332-.114 2.193.593.071-.523.278-.902.612-1.019.6-.209 1.407.495 1.95 1.63.18-.48.458-.796.802-.838.607-.075 1.224.718 1.529 1.87.221-.342.493-.547.79-.547.682-.001 1.245 1.075 1.332 2.466.216-.318.479-.506.763-.506.74 0 1.343 1.265 1.345 2.829l-.002.114c.474-.463.615-.656.942.012.932 1.906 1.873 12.7.798 14.196-.278.386-1.815-5.036-9.43-6.776-.378-.086-.221-.56.107-.942" fill="#5da618"/><path d="M-1271.54-286.703a5.71 5.71 0 0 1 .234 7.215c-.185.255-.113 1.127.247 1.606.357.481.142.587.142.587s-.132.196-.56-.223c-.427-.42-1.28-.614-1.557-.465-.007.002-.007.002-.009.004a5.713 5.713 0 0 1-7.108-1.225 5.708 5.708 0 0 1 .525-8.028l.066-.057a5.71 5.71 0 0 1 8.02.586" fill="#992956"/></g><g><path d="M-1240.48-269.438s-.486.722-.307.726c.178.005.754-.878.754-.878l.01.355.03.93c.304-.097.435-.659.452-.729.179.764-.005 1.23-.209 1.498l-.055.063a.987.987 0 0 1-.304.245s-.39.086-.78.043c-.382-.042-.761-.209-.773-.7-.001-.11.01-.214.036-.313.009-.035.018-.073.032-.106.246-.732 1.114-1.134 1.114-1.134" fill="#e1c9cb"/><path d="M-1250.062-245.504l9.488-22.426c.28.128.557.258.824.394 7.01 3.496 9.455 8.775 7.711 12.896-1.624 3.84-5.686 4.406-9.72 5.483-5.259 1.401-6.12 4.577-6.12 4.577l-2.183-.924zM-1252.246-246.428s1.697-3.25-.976-7.58c-2.195-3.554-4.46-6.952-2.835-10.794 1.81-4.279 7.66-6.188 15.481-3.127l-9.487 22.425-2.183-.924z" fill="#c9c3bf"/><path d="M-1249.722-262.12c1.641-3.88 4.742-6.593 8.096-6.078.348.054.7.142 1.052.268.274.135.53.289.768.457 2.85 2.004 3.1 6.203 1.43 10.152-1.625 3.84-3.996 5.42-6.407 6.884-1.995 1.21-4.247 5.37-4.247 5.37l-2.063-.873s1.414-4.515.892-6.788c-.628-2.75-1.145-5.553.48-9.393" fill="#e6e2e0"/></g><g><path d="M-1411.747-304.546c.872-1.993 2.32-3.634 4.497-4.796 6.978-3.724 12.959-.4 15.225 4.925 2.891 6.793-.932 10.06-1.944 19.398-.611 5.65.481 10.423 1.655 13.676 1.054 2.928 2.175 4.625 2.175 4.625l-9.89 4.21-.008-.02c-.645-1.516-1.45-3.25-2.34-5.145-5.228-11.126-13.393-27.701-9.37-36.873" fill="#591832"/><path d="M-1404.21-267.784s.732-.01 1.833.11c2.012.222 5.26.887 7.544 2.866.13-2.52 1.388-4.888 2.52-6.535.964-1.406 1.835-2.285 1.835-2.285 1.354 6.71.507 8.196-.673 9.423l-.392.405s-2.307 1.932 1.152 5.8l-1.234.731-.744.442s-.109-4.718-4.583-4.91c-1.004-.044-1.96-.074-3.062-.778-.009-.003-.016-.01-.023-.014-1.158-.744-2.475-2.235-4.172-5.255" fill="#479706"/></g><g><path d="M-1408.69-91.064a2.216 2.216 0 0 1-.216.198l-.003.003a2.133 2.133 0 0 1-3.448-1.742v-.018l-2.597 2.6-1.255-1.255c-.032-.032-.064-.06-.095-.092-.03-.03-.06-.064-.091-.094l-1.273-1.271 2.58-2.582a2.129 2.129 0 0 1-1.726-3.45c.05-.065.105-.129.164-.188.012-.012.024-.024.036-.033.02-.023.042-.045.063-.066 2.053-2.056 5.493-1.948 7.683.24 2.19 2.188 2.301 5.627.248 7.682-.021.022-.043.044-.066.064l-.004.004z" fill="#e7e0db"/><path d="M-1415.089-95.318l.857-.875s.145-.875-.438-.717c-.533.145-.525.804-.419 1.592M-1412.375-92.607l.874-.857s.875-.146.717.437c-.143.533-.803.526-1.59.42" fill="#c2bfbc"/></g><g><path d="M-1411.315-75.134a2.216 2.216 0 0 1 .071-.284v-.005a2.133 2.133 0 0 1 3.837-.451c.005.005.008.01.01.015l.73-3.6 1.74.352c.044.01.086.016.13.025l.128.027 1.763.358-.726 3.577a2.129 2.129 0 0 1 3.343 1.923 1.851 1.851 0 0 1-.044.296c-.004.03-.01.06-.016.09-.578 2.847-3.506 4.656-6.54 4.04-3.033-.615-5.025-3.421-4.447-6.268.006-.03.012-.061.02-.09l.001-.005z" fill="#e7e0db"/><path d="M-1403.631-75.12l-.231 1.202s.362.81.76.357c.365-.415-.005-.96-.53-1.558M-1407.39-75.882l-.256 1.197s-.649.605-.84.031c-.174-.523.38-.881 1.095-1.228" fill="#c2bfbc"/></g><g><path d="M-1443.764-19.284a2.216 2.216 0 0 1 .071-.284l.001-.005a2.133 2.133 0 0 1 3.837-.451c.005.005.007.01.01.015l.73-3.6 1.74.352c.043.01.086.016.13.025.042.008.085.019.127.028l1.763.357-.725 3.577a2.129 2.129 0 0 1 3.343 1.923 1.851 1.851 0 0 1-.045.296c-.004.03-.01.06-.016.09-.578 2.847-3.505 4.656-6.539 4.04-3.034-.615-5.025-3.421-4.448-6.268l.02-.09.001-.005z" fill="#e7e0db"/><path d="M-1436.08-19.27l-.231 1.202s.362.81.761.357c.364-.415-.006-.96-.53-1.558M-1439.84-20.032l-.255 1.197s-.649.605-.84.032c-.173-.524.38-.882 1.096-1.229" fill="#c2bfbc"/></g><g><path d="M-1482.85-183.93a3.288 3.288 0 0 1 .43-.062h.007a3.165 3.165 0 0 1 3.326 2.566c.169.89-.055 1.77-.552 2.45-.004.01-.01.016-.015.023l5.356-1.019.491 2.587.04.193c.012.062.021.128.033.19l.499 2.623-5.321 1.011a3.16 3.16 0 0 1-.765 5.672 2.747 2.747 0 0 1-.43.105c-.044.011-.09.02-.134.028-4.235.805-8.363-2.2-9.22-6.713-.859-4.513 1.879-8.824 6.114-9.63.043-.007.09-.016.134-.022l.008-.001z" fill="#e7e0db"/><path d="M-1478.556-173.366l-1.78.357s-.91.952-.063 1.245c.774.268 1.315-.547 1.843-1.602M-1479.62-178.959l-1.787.322s-1.195-.552-.514-1.136c.62-.533 1.424.026 2.302.814" fill="#c2bfbc"/></g><g><path d="M-1309.37-277.893c.01-.004.02-.008.028-.013l.007.027c-.01-.005-.023-.011-.035-.014m-1.884-3.812v-.001a.15.15 0 0 0 .01-.064c.008.022.022.04.04.057 0 .001.001.003.004.005a.153.153 0 0 0-.054.003m6.08 7.577a.193.193 0 0 0 .036-.266.19.19 0 0 0 .18-.321.189.189 0 0 0 .174-.076.193.193 0 0 0-.036-.267.186.186 0 0 0 .162-.098.192.192 0 0 0-.072-.259.19.19 0 0 0 .148-.118.192.192 0 0 0-.106-.248.192.192 0 0 0-.008-.37.189.189 0 0 0 .11-.153.193.193 0 0 0-.168-.21.19.19 0 0 0 .09-.166.193.193 0 0 0-.196-.187.188.188 0 0 0 .066-.178.194.194 0 0 0-.218-.158.19.19 0 0 0-.195-.312.193.193 0 0 0 .016-.188.193.193 0 0 0-.252-.095.194.194 0 0 0-.008-.19.195.195 0 0 0-.265-.06.19.19 0 0 0-.033-.186.193.193 0 0 0-.268-.024.197.197 0 0 0-.059-.18.195.195 0 0 0-.27.012.192.192 0 0 0-.082-.17.191.191 0 0 0-.247.03l-.002.001v-.012h.001c.05-.03.084-.08.092-.134a.203.203 0 0 0-.021-.128c.026.01.056.015.085.013a.187.187 0 0 0 .103-.038.194.194 0 0 0 .035-.267.195.195 0 0 0 .183-.052.194.194 0 0 0 0-.27.19.19 0 0 0 .173-.074.194.194 0 0 0-.038-.268.191.191 0 0 0 .164-.097.194.194 0 0 0-.073-.26.192.192 0 0 0 .041-.366.192.192 0 0 0 .131-.136.195.195 0 0 0-.138-.233.192.192 0 0 0 .11-.153.195.195 0 0 0-.168-.21.19.19 0 0 0-.106-.353.195.195 0 0 0 .067-.178.194.194 0 0 0-.219-.158.192.192 0 0 0-.197-.312.19.19 0 0 0 .017-.19.193.193 0 0 0-.252-.094.19.19 0 0 0-.008-.19.197.197 0 0 0-.26-.062.2.2 0 0 0-.038-.184l-.015-.015a.194.194 0 0 0-.251-.01.189.189 0 0 0-.06-.179.194.194 0 0 0-.267.008.192.192 0 0 0-.333-.139.195.195 0 0 0-.354-.076l-.001.003a.186.186 0 0 0-.083-.132.195.195 0 0 0-.302.155s-.002 0-.003.002a.186.186 0 0 0-.084-.148.192.192 0 0 0-.265.045.194.194 0 0 0-.288.14.186.186 0 0 0-.167-.084.193.193 0 0 0-.185.191.188.188 0 0 0-.177-.06.195.195 0 0 0-.159.215.193.193 0 0 0-.311.197.195.195 0 0 0-.284.237.192.192 0 0 0-.185.017.192.192 0 0 0-.061.258.193.193 0 0 0-.222.284.078.078 0 0 0 .015.023.19.19 0 0 0-.179.062.189.189 0 0 0-.048.135.193.193 0 0 0-.223-.108.196.196 0 0 0-.236-.286.195.195 0 0 0-.274-.248.192.192 0 0 0-.037-.183.197.197 0 0 0-.268-.027.189.189 0 0 0-.06-.178.194.194 0 0 0-.266.008.192.192 0 0 0-.333-.139.194.194 0 0 0-.353-.075l-.001.003a.191.191 0 0 0-.083-.132.195.195 0 0 0-.271.053.182.182 0 0 0-.032.1s-.002 0-.003.002a.192.192 0 0 0-.085-.147.19.19 0 0 0-.263.046.194.194 0 0 0-.29.139.187.187 0 0 0-.166-.084.193.193 0 0 0-.186.191.188.188 0 0 0-.177-.06.195.195 0 0 0-.158.215.193.193 0 0 0-.311.197.186.186 0 0 0-.187-.01.192.192 0 0 0-.096.247.197.197 0 0 0-.186.016.191.191 0 0 0-.061.259.193.193 0 0 0-.222.286.063.063 0 0 0 .015.02.088.088 0 0 0-.034-.002.184.184 0 0 0-.145.065.188.188 0 0 0-.047.138c.001.046.02.092.057.127a.19.19 0 0 0-.19.142c-.021.069 0 .146.056.196.004.004.008.009.014.011l.004.002a.192.192 0 0 0-.158.107.194.194 0 0 0 .085.255.192.192 0 0 0-.141.126c-.033.1.02.206.119.242a.19.19 0 0 0-.124.144.193.193 0 0 0 .15.223.192.192 0 0 0-.104.16.195.195 0 0 0 .18.202.19.19 0 0 0-.082.172c.008.104.1.18.205.175a.19.19 0 0 0-.059.18.196.196 0 0 0 .226.149.19.19 0 0 0-.032.186.195.195 0 0 0 .243.116.191.191 0 0 0-.008.19c.05.092.164.127.258.08a.19.19 0 0 0 .017.19c.062.086.18.104.266.047a.192.192 0 0 0 .312.196.192.192 0 0 0 .068.175.194.194 0 0 0 .269-.026c0 .066.03.131.09.168a.194.194 0 0 0 .263-.062.193.193 0 0 0 .111.153c.092.041.197.002.245-.083.003-.003.005-.007.007-.013a.193.193 0 0 0 .133.137c.1.029.205-.03.237-.13a.19.19 0 0 0 .147.118c.106.016.2-.056.219-.16a.19.19 0 0 0 .163.097.194.194 0 0 0 .195-.186c.04.05.103.082.173.074a.193.193 0 0 0 .167-.212.192.192 0 0 0 .183.05.194.194 0 0 0 .138-.232.194.194 0 0 0 .188.025.195.195 0 0 0 .105-.249.192.192 0 0 0 .252-.059l.014-.023a.2.2 0 0 0-.004-.18.2.2 0 0 0 .1.013l.001-.001a.19.19 0 0 0 .146-.257v-.001a.231.231 0 0 0-.024-.045.19.19 0 0 0 .182-.052.19.19 0 0 0-.002-.27c.019.002.038 0 .055-.002a.184.184 0 0 0 .12-.073l.001-.002c.014 0 .027.002.041-.001a.196.196 0 0 0-.032.187.197.197 0 0 0 .244.116.187.187 0 0 0-.007.188c.05.094.162.128.257.082a.191.191 0 0 0 .017.19.193.193 0 0 0 .261.049c-.015.063 0 .13.048.181a.193.193 0 0 0 .27.012.19.19 0 0 0 .067.176.194.194 0 0 0 .27-.026c0 .067.029.131.09.166.016.012.036.016.055.021-.013.006-.027.008-.04.017a.19.19 0 0 0-.083.19c.003.024.01.048.024.07a.218.218 0 0 0-.068-.009.194.194 0 0 0-.14.315.212.212 0 0 0-.08.001v.002a.185.185 0 0 0-.1.058.192.192 0 0 0-.046.152.192.192 0 0 0 .06.117.192.192 0 0 0-.169.083.193.193 0 0 0 .05.265.192.192 0 0 0-.159.106.195.195 0 0 0 .087.256.189.189 0 0 0-.143.125c-.033.1.021.207.119.242a.193.193 0 0 0-.124.144.191.191 0 0 0 .11.21.17.17 0 0 0 .04.014.189.189 0 0 0-.103.16.192.192 0 0 0 .178.201.192.192 0 0 0-.081.172c.008.104.1.18.205.175a.187.187 0 0 0-.058.181.194.194 0 0 0 .225.148.189.189 0 0 0-.002.24c.05.062.135.088.213.062a.195.195 0 0 0-.008.19c.05.092.164.127.257.081a.197.197 0 0 0 .019.19c.06.085.18.104.265.046a.192.192 0 0 0 .312.196.193.193 0 0 0 .07.176c.08.067.2.053.267-.024 0 .064.03.128.09.165.09.054.206.026.263-.062.01.066.048.125.112.154a.195.195 0 0 0 .252-.096.19.19 0 0 0 .132.136c.101.03.205-.029.237-.13.025.061.078.11.149.12a.194.194 0 0 0 .217-.16.193.193 0 0 0 .164.096c.105.001.19-.083.194-.187.04.05.104.083.174.073a.193.193 0 0 0 .168-.21.193.193 0 0 0 .182.05.193.193 0 0 0 .137-.233.192.192 0 0 0 .188.025.194.194 0 0 0 .105-.249.193.193 0 0 0 .19 0 .193.193 0 0 0 .07-.259c.028.009.06.013.087.011a.185.185 0 0 0 .102-.039" fill="#479706"/><path d="M-1308.17-274.73a5.976 5.976 0 0 0-1.612.48c-.148.065-.29.137-.426.214a5.004 5.004 0 0 0-.322.189c-1.99 1.254-2.84 3.304-2.84 3.304l-2.556-1.72s.827-.85 1.432-2.469c.277-.744.323-1.44.291-1.971-.004-.081-.011-.158-.018-.23a4.151 4.151 0 0 0-.163-.8l-.027-.077.001-.001.058-.104.121-.223c.054.084.102.17.144.26a.507.507 0 0 1 .037.075c.01.022.021.043.03.068.022.046.04.094.06.142a1.782 1.782 0 0 1 .045.129 3.347 3.347 0 0 1 .125.493c.01.055.02.111.026.167.195 1.402-.345 2.772-.345 2.772l1.542-2.7.111-.194.03-.053.029-.05.451-.79c.007-.01.013-.019.017-.03l.124-.216v-.002l.091-.158.001-.001.029-.05.03-.057.014-.023.048-.084.048-.083.001-.001.043-.077.077-.136.001-.002.025-.042.001-.001.022-.039h.001l.163-.287v-.002l.023-.038.001-.002.051-.09.094-.165.03-.051.066-.116.001-.001.347-.609 1.209.733.701.426.01.006-.006.007-.586.846-.046.065-.14.202-.013.017-.14.202v.002l-.043.06-.155.222-.05.075-.014.017-.001.003-.133.192-.013.018-.12.175-.058.082v.001l-.162.233-.06.085-.126.183-.001.002-.28.402-.061.089-.023.03-.13.188-.868 1.251c.326-.317.709-.595 1.1-.832h.002c.079-.048.156-.094.235-.137.026-.015.05-.03.075-.043.009-.004.017-.01.025-.013.063-.036.126-.068.19-.1l.001-.001.09-.047h.001c.032-.017.063-.03.094-.045v-.001l.029-.015a2.777 2.777 0 0 1 .148-.068v-.002l.18-.084.022-.008.126-.055.003-.002c.063-.027.126-.054.186-.078l.007-.002v-.001a8.2 8.2 0 0 1 .318-.124h.004c.053-.022.106-.042.156-.06.003 0 .004 0 .005-.002l.164-.056.025-.008a8.983 8.983 0 0 1 .401-.127h.002l.007-.002v.002l.073.804.067.746z" fill="#479706"/><path d="M-1311.727-280.926a.17.17 0 0 0-.056.005c.009-.03.011-.06.005-.09a.19.19 0 0 0 .051.085m6.025 7.582a.194.194 0 0 0 .038-.268c.063.014.132 0 .18-.051a.193.193 0 0 0 0-.27.188.188 0 0 0 .208-.156.195.195 0 0 0-.071-.185.191.191 0 0 0 .09-.357.191.191 0 0 0 .042-.367.194.194 0 0 0 .13-.138.193.193 0 0 0-.139-.231.19.19 0 0 0-.057-.363.194.194 0 0 0 .09-.168.194.194 0 0 0-.196-.186.188.188 0 0 0 .066-.178.194.194 0 0 0-.218-.158.193.193 0 0 0 .042-.185.193.193 0 0 0-.238-.126.191.191 0 0 0-.236-.283.194.194 0 0 0-.007-.19.195.195 0 0 0-.265-.06.191.191 0 0 0-.033-.187.193.193 0 0 0-.268-.023.19.19 0 0 0-.059-.18.194.194 0 0 0-.27.012.192.192 0 0 0-.082-.17.193.193 0 0 0-.249.03v-.012h.001a.194.194 0 0 0 .07-.261.194.194 0 0 0 .189-.026.195.195 0 0 0 .036-.268.189.189 0 0 0 .23-.228.184.184 0 0 0-.049-.092c.05.005.103-.01.143-.042a.156.156 0 0 0 .03-.032.175.175 0 0 0 .035-.083.193.193 0 0 0-.072-.185.194.194 0 0 0 .163-.097.195.195 0 0 0-.072-.261.187.187 0 0 0 .148-.119.192.192 0 0 0-.107-.246.194.194 0 0 0 .132-.138.194.194 0 0 0-.14-.231.192.192 0 0 0 .111-.154.192.192 0 0 0-.169-.21.194.194 0 0 0 .09-.168.193.193 0 0 0-.195-.185.195.195 0 0 0 .067-.178.194.194 0 0 0-.219-.158.194.194 0 0 0 .042-.186.194.194 0 0 0-.238-.126.192.192 0 0 0 .017-.19.193.193 0 0 0-.253-.094.191.191 0 0 0-.008-.189.194.194 0 0 0-.264-.06.193.193 0 0 0-.034-.187l-.015-.015a.196.196 0 0 0-.253-.008.191.191 0 0 0-.059-.18.193.193 0 0 0-.27.013.192.192 0 0 0-.082-.172.192.192 0 0 0-.247.032.193.193 0 0 0-.083-.133.195.195 0 0 0-.27.052l-.002.006a.19.19 0 0 0-.083-.134.195.195 0 0 0-.27.052.194.194 0 0 0-.028.097c-.005.007-.006.014-.01.022a.189.189 0 0 0-.08-.164.193.193 0 0 0-.264.046.193.193 0 0 0-.29.145.19.19 0 0 0-.352.107.189.189 0 0 0-.177-.064.192.192 0 0 0-.157.219.187.187 0 0 0-.185-.04.192.192 0 0 0-.127.233.17.17 0 0 0-.034-.018.2.2 0 0 0-.154.006.202.202 0 0 0-.058.043.191.191 0 0 0-.036.21.187.187 0 0 0-.187.01.194.194 0 0 0-.061.261.193.193 0 0 0-.208.306.19.19 0 0 0-.227.205.192.192 0 0 0-.23-.114.191.191 0 0 0 .019-.19.197.197 0 0 0-.254-.094.191.191 0 0 0-.009-.19.194.194 0 0 0-.263-.059.19.19 0 0 0-.033-.186.194.194 0 0 0-.27-.024.19.19 0 0 0-.058-.18.193.193 0 0 0-.27.013.192.192 0 0 0-.082-.172.192.192 0 0 0-.248.031.193.193 0 0 0-.351-.079l-.004.005a.19.19 0 0 0-.081-.133.195.195 0 0 0-.27.051.194.194 0 0 0-.03.097c-.003.008-.005.016-.01.022a.187.187 0 0 0-.08-.164.194.194 0 0 0-.263.046.226.226 0 0 0-.079-.026.196.196 0 0 0-.21.17.19.19 0 0 0-.167-.088.196.196 0 0 0-.186.196.193.193 0 0 0-.178-.065.194.194 0 0 0-.156.22.187.187 0 0 0-.185-.04.195.195 0 0 0-.127.233.196.196 0 0 0-.187-.011.219.219 0 0 0-.058.043.19.19 0 0 0-.038.206.194.194 0 0 0-.269.224.17.17 0 0 0 .021.048c-.012-.003-.024-.006-.038-.006a.195.195 0 0 0-.146.046.195.195 0 0 0-.024.267.187.187 0 0 0-.177.062.194.194 0 0 0 .008.266.19.19 0 0 0-.164.087.192.192 0 0 0 .045.262.193.193 0 0 0-.072.362.194.194 0 0 0-.024.37.19.19 0 0 0-.12.144c-.019.101.046.2.147.223a.193.193 0 0 0 .076.362.184.184 0 0 0-.077.17.19.19 0 0 0 .197.177.197.197 0 0 0-.052.18.196.196 0 0 0 .222.15.19.19 0 0 0-.028.185.19.19 0 0 0 .24.116.198.198 0 0 0-.004.188.193.193 0 0 0 .252.086.188.188 0 0 0 .022.185c.06.085.177.106.263.05a.19.19 0 0 0 .047.182c.07.075.187.08.265.014a.193.193 0 0 0 .337.152.19.19 0 0 0 .094.162.195.195 0 0 0 .26-.055.195.195 0 0 0 .366.055.187.187 0 0 0 .132.133.19.19 0 0 0 .145-.017.189.189 0 0 0 .09-.107c.001-.001 0-.003.002-.005a.19.19 0 0 0 .148.116.187.187 0 0 0 .2-.105.189.189 0 0 0 .017-.053.193.193 0 0 0 .163.097.192.192 0 0 0 .194-.184h.001a.19.19 0 0 0 .175.07.192.192 0 0 0 .168-.208.189.189 0 0 0 .182.046.18.18 0 0 0 .086-.05l.005.004c.03.09.12.145.215.129a.195.195 0 0 0-.029.186.137.137 0 0 0 .02.034l-.001.001a.195.195 0 0 0 .22.083h.005a.188.188 0 0 0-.006.186c.049.094.163.128.257.082a.19.19 0 0 0 .279.238.198.198 0 0 0 .046.182.194.194 0 0 0 .27.011.189.189 0 0 0 .068.177c.082.066.2.053.269-.026 0 .066.03.131.09.166.01.007.019.011.031.014a.188.188 0 0 0 .23-.075.19.19 0 0 0 .036.086.189.189 0 0 0 .097.13.19.19 0 0 0-.144.125.195.195 0 0 0 .119.242.193.193 0 0 0-.123.143.194.194 0 0 0 .15.225.189.189 0 0 0-.103.159.193.193 0 0 0 .178.202.19.19 0 0 0-.08.17c.007.105.099.18.204.176a.188.188 0 0 0-.058.181l.003.007c.024.099.122.16.222.141a.186.186 0 0 0-.032.186c.037.1.145.149.244.115a.191.191 0 0 0 .249.272.192.192 0 0 0 .283.237.193.193 0 0 0 .313.195.192.192 0 0 0 .068.177c.082.066.2.052.269-.026a.185.185 0 0 0 .09.166c.09.055.205.026.262-.061.01.065.048.125.113.153a.194.194 0 0 0 .252-.097.19.19 0 0 0 .131.137c.102.029.206-.03.237-.129.025.06.08.108.148.119a.196.196 0 0 0 .219-.16.192.192 0 0 0 .163.097c.104 0 .19-.083.193-.187.041.05.105.082.175.072a.195.195 0 0 0 .168-.211.19.19 0 0 0 .319-.182.194.194 0 0 0 .189.024.192.192 0 0 0 .104-.247c.058.03.13.035.19-.001a.195.195 0 0 0 .072-.26.19.19 0 0 0 .186-.026" fill="#69bf22"/></g><g><path d="M-1259.704-275.904c-.004.014-.01.029-.012.043l-.036-.018c.016-.007.033-.015.048-.025m5.953 1.468v.002c.015.027.037.05.062.069a.243.243 0 0 0-.1-.01h-.009a.221.221 0 0 0 .047-.061m-14.003-.346c-.006.15.11.277.26.288a.275.275 0 0 0 .185.497.272.272 0 0 0-.078.262c.033.148.18.237.328.209a.269.269 0 0 0-.043.27c.053.141.21.21.352.16a.274.274 0 0 0-.007.273.277.277 0 0 0 .372.114.277.277 0 0 0 .415.334.272.272 0 0 0 .067.266c.104.107.275.11.386.01a.275.275 0 0 0 .101.252c.12.095.29.075.388-.041 0 .095.044.186.135.239a.28.28 0 0 0 .377-.095.275.275 0 0 0 .525.075c.027.09.094.168.192.193a.278.278 0 0 0 .339-.19.28.28 0 0 0 .216.168.281.281 0 0 0 .313-.236c.05.082.134.137.236.137.15 0 .273-.124.275-.274.06.072.153.117.253.103a.28.28 0 0 0 .238-.309c.07.065.168.097.264.069a.275.275 0 0 0 .196-.3c.002-.003.002-.003.001-.005.006.003.01.009.015.012l-.002.002a.27.27 0 0 0 .062.225c.04.048.096.081.16.096a.293.293 0 0 0-.094.082.27.27 0 0 0-.053.149.28.28 0 0 0 .262.287.281.281 0 0 0-.113.25.28.28 0 0 0 .297.25.274.274 0 0 0-.079.26.28.28 0 0 0 .33.207.275.275 0 0 0-.045.27.28.28 0 0 0 .355.162.277.277 0 0 0 .365.386.277.277 0 0 0 .028.271c.09.123.262.148.385.064a.277.277 0 0 0 .066.265c.106.107.278.11.39.01a.275.275 0 0 0 .485.21.28.28 0 0 0 .135.24.28.28 0 0 0 .377-.094.277.277 0 0 0 .527.074c.026.09.095.168.193.194a.278.278 0 0 0 .339-.19.275.275 0 0 0 .216.167c.15.017.28-.085.31-.228a.29.29 0 0 0 .239.13l.03-.003a.28.28 0 0 0 .246-.268.272.272 0 0 0 .252.1.28.28 0 0 0 .238-.301.277.277 0 0 0 .462-.238.281.281 0 0 0 .413-.32v-.004c.06.04.142.055.222.032a.28.28 0 0 0 .11-.478v-.005a.268.268 0 0 0 .241.045.277.277 0 0 0 .197-.333.28.28 0 0 0 .114-.448.268.268 0 0 0 .247-.106.278.278 0 0 0-.038-.382.27.27 0 0 0 .232-.139.28.28 0 0 0-.09-.374.278.278 0 0 0 .072-.526.28.28 0 0 0 .003-.534.277.277 0 0 0 .154-.219.276.276 0 0 0-.228-.308.278.278 0 0 0-.107-.508.113.113 0 0 0-.039-.005.273.273 0 0 0 .098-.255.273.273 0 0 0-.104-.178.278.278 0 0 0 .327-.146.282.282 0 0 0 .534.005.28.28 0 0 0 .528-.07c.05.079.137.13.237.13a.284.284 0 0 0 .278-.27.272.272 0 0 0 .252.098.28.28 0 0 0 .238-.3.277.277 0 0 0 .462-.238.28.28 0 0 0 .41-.32v-.004c.063.04.145.055.223.032a.281.281 0 0 0 .193-.348.262.262 0 0 0-.08-.128c.002 0 0-.002 0-.004a.276.276 0 0 0 .24.042.275.275 0 0 0 .195-.333.28.28 0 0 0 .116-.448.269.269 0 0 0 .247-.106.278.278 0 0 0-.038-.382.27.27 0 0 0 .232-.139.281.281 0 0 0-.09-.374.279.279 0 0 0 .072-.526.268.268 0 0 0 .184-.197.277.277 0 0 0-.182-.336.284.284 0 0 0 .155-.22.276.276 0 0 0-.228-.308.278.278 0 0 0-.11-.51.09.09 0 0 0-.036-.003.127.127 0 0 0 .035-.034.265.265 0 0 0 .063-.22.272.272 0 0 0-.109-.18.26.26 0 0 0-.193-.056.275.275 0 0 0 .02-.34.272.272 0 0 0-.267-.122.05.05 0 0 0-.025.005l-.006.002a.277.277 0 0 0 .029-.273.28.28 0 0 0-.361-.143.277.277 0 0 0-.007-.273.28.28 0 0 0-.377-.095.274.274 0 0 0-.044-.27.278.278 0 0 0-.385-.043.277.277 0 0 0-.079-.261.281.281 0 0 0-.39.009.273.273 0 0 0-.113-.25.279.279 0 0 0-.384.063.273.273 0 0 0-.144-.232.283.283 0 0 0-.374.111.273.273 0 0 0-.176-.21.282.282 0 0 0-.353.161.276.276 0 0 0-.201-.184.279.279 0 0 0-.33.209.275.275 0 0 0-.224-.158.28.28 0 0 0-.3.25.276.276 0 0 0-.506.162.278.278 0 0 0-.256-.09.28.28 0 0 0-.221.321.278.278 0 0 0-.27-.056.28.28 0 0 0-.176.347.278.278 0 0 0-.272-.02.278.278 0 0 0-.128.367.278.278 0 0 0-.274.019.28.28 0 0 0-.078.381.274.274 0 0 0-.267.054.278.278 0 0 0-.026.389.273.273 0 0 0-.259.09.28.28 0 0 0 .024.388.278.278 0 0 0-.242.122.279.279 0 0 0 .077.382.276.276 0 0 0-.224.155.28.28 0 0 0 .127.367.28.28 0 0 0-.203.184.28.28 0 0 0 .177.347.276.276 0 0 0-.17.333l.013.036c.036.08.11.142.202.162a.289.289 0 0 0-.108.1l.001.002a.273.273 0 0 0 .147.4v.001a.333.333 0 0 0 .074.015.274.274 0 0 0-.111.249.273.273 0 0 0 .297.248.364.364 0 0 0-.049.063.265.265 0 0 0-.03.2l.002.004c-.014.015-.028.027-.038.046a.283.283 0 0 0-.175-.21.284.284 0 0 0-.356.161.27.27 0 0 0-.2-.182.277.277 0 0 0-.33.207.275.275 0 0 0-.225-.158.279.279 0 0 0-.297.242.283.283 0 0 0-.244-.116c-.013.001-.026.002-.036.005a.279.279 0 0 0-.229.28.274.274 0 0 0-.256-.088.28.28 0 0 0-.221.32.27.27 0 0 0-.267-.055c-.029.008-.052.026-.075.042.006-.02.017-.036.02-.06a.275.275 0 0 0-.133-.268.256.256 0 0 0-.1-.038.314.314 0 0 0 .072-.067.28.28 0 0 0-.217-.449.306.306 0 0 0 .073-.087v-.002a.267.267 0 0 0 .029-.164.277.277 0 0 0-.126-.192.277.277 0 0 0-.183-.044.277.277 0 0 0 .065-.262.279.279 0 0 0-.34-.192.277.277 0 0 0 .032-.273.28.28 0 0 0-.363-.143.272.272 0 0 0-.004-.274.28.28 0 0 0-.378-.094.279.279 0 0 0-.043-.27.275.275 0 0 0-.332-.074.246.246 0 0 0-.056.032.272.272 0 0 0-.079-.262.277.277 0 0 0-.388.008.277.277 0 0 0-.113-.249.278.278 0 0 0-.384.063.27.27 0 0 0-.146-.232.28.28 0 0 0-.372.111.273.273 0 0 0-.262-.225.28.28 0 0 0-.267.176.28.28 0 0 0-.201-.185.28.28 0 0 0-.33.207.284.284 0 0 0-.226-.155.278.278 0 0 0-.297.249.277.277 0 0 0-.506.162.278.278 0 0 0-.259-.088.28.28 0 0 0-.222.318.276.276 0 0 0-.266-.055.28.28 0 0 0-.176.348.284.284 0 0 0-.274-.02.281.281 0 0 0-.129.367.273.273 0 0 0-.272.018.278.278 0 0 0-.078.382.277.277 0 0 0-.268.054.28.28 0 0 0-.028.387.279.279 0 0 0-.258.091.28.28 0 0 0 .026.388.272.272 0 0 0-.241.125.278.278 0 0 0 .075.38.279.279 0 0 0-.225.155.278.278 0 0 0 .13.367.277.277 0 0 0-.203.184.28.28 0 0 0 .176.347.279.279 0 0 0-.176.208v.002a.278.278 0 0 0 .22.319.315.315 0 0 0-.093.084.266.266 0 0 0-.051.148" fill="#479706"/><path d="M-1264.306-277.524a8.617 8.617 0 0 0 .971-2.221c.065-.225.119-.449.16-.67a7.215 7.215 0 0 0 .09-.53c.468-3.359-.999-6.203-.999-6.203l4.271-1.217s.168 1.701 1.39 3.874a6.96 6.96 0 0 0 1.901 2.154c.094.071.185.134.27.194l.153.099a5.986 5.986 0 0 0 .88.465l.11.042.001.002.061.16.133.342a3.227 3.227 0 0 1-.421-.084.73.73 0 0 1-.117-.029.683.683 0 0 1-.102-.03c-.072-.018-.14-.043-.212-.067 0-.002-.003-.001-.003-.001a4.825 4.825 0 0 1-.762-.346 3.23 3.23 0 0 1-.288-.169c-1.726-1.089-2.733-2.959-2.733-2.959l1.541 4.21v.002l.111.302.03.082.03.078.45 1.232c.005.017.009.031.018.047l.122.337.001.002.09.247v.002l.03.079.033.086.013.036.048.13v.003l.046.129.001.002.045.118.078.213v.002l.024.066v.002l.022.06v.003l.166.445v.003l.022.06.001.004.05.139.096.257.03.08.065.181v.002l.348.948-1.932.65-1.122.378-.014.004-.003-.012-.386-1.432-.03-.112-.093-.342-.006-.029-.093-.342-.001-.004-.027-.1-.1-.378-.036-.126-.007-.03-.001-.005-.088-.326-.01-.03-.079-.295-.038-.14v-.002l-.106-.394-.039-.144v-.002l-.084-.31v-.001l-.184-.683-.04-.15-.013-.054-.086-.317-.571-2.12a8.878 8.878 0 0 1-.106 1.986l-.002.003c-.02.13-.042.258-.068.385-.008.043-.014.082-.023.123l-.008.04c-.02.103-.042.202-.065.302l-.001.003-.033.142v.002c-.012.05-.025.097-.038.145v.002l-.009.044a4.005 4.005 0 0 1-.062.226v.003c-.024.093-.048.187-.074.276l-.01.032-.058.19v.004c-.029.095-.057.19-.088.278 0 .004-.002.007-.004.01l.001.002c-.053.166-.106.32-.158.464l-.003.006-.08.227c-.003.003-.003.005-.002.007l-.092.232c-.003.012-.009.023-.014.035a12.952 12.952 0 0 1-.233.562c-.002 0-.001.002-.001.002l-.005.008-.002-.001-.954-.667-.884-.62z" fill="#479706"/><path d="M-1254.17-275.681a.246.246 0 0 0 .047-.067.263.263 0 0 0 .095.09.274.274 0 0 0-.142-.023m-13.958-.41a.28.28 0 0 0 .26.29.272.272 0 0 0-.111.246.279.279 0 0 0 .298.25.271.271 0 0 0-.022.375.28.28 0 0 0 .27.094.276.276 0 0 0 .31.431.276.276 0 0 0 .365.386.28.28 0 0 0 .031.274c.09.12.26.148.384.06a.274.274 0 0 0 .453.275.28.28 0 0 0 .102.256.28.28 0 0 0 .387-.044c0 .095.044.187.134.24a.28.28 0 0 0 .377-.095c.014.094.072.18.165.22a.279.279 0 0 0 .36-.146.276.276 0 0 0 .531.004.28.28 0 0 0 .217.167.281.281 0 0 0 .312-.235c.05.081.135.137.237.137.15-.001.273-.125.275-.274.06.074.153.118.253.103a.28.28 0 0 0 .238-.31c.07.065.168.097.264.07a.278.278 0 0 0 .198-.303l.014.01-.002.002a.28.28 0 0 0 .222.32.28.28 0 0 0-.147.231.281.281 0 0 0 .262.29.273.273 0 0 0 .037.466.266.266 0 0 0 .147.031.282.282 0 0 0-.086.196.252.252 0 0 0 .066.179.278.278 0 0 0 .271.093.28.28 0 0 0-.045.27.281.281 0 0 0 .355.163.27.27 0 0 0-.007.273c.072.133.238.18.372.111a.28.28 0 0 0 .029.274.28.28 0 0 0 .384.061.277.277 0 0 0 .066.265c.107.11.278.112.389.01a.28.28 0 0 0 .101.255c.12.092.29.073.385-.043a.281.281 0 0 0 .135.239.28.28 0 0 0 .377-.095.28.28 0 0 0 .167.22.279.279 0 0 0 .36-.146.278.278 0 0 0 .193.196.279.279 0 0 0 .339-.192.275.275 0 0 0 .216.167.28.28 0 0 0 .31-.234c.05.08.137.136.239.136l.03-.002a.282.282 0 0 0 .245-.272c.06.074.153.118.253.103.15-.02.254-.159.236-.31.07.066.167.097.266.07a.277.277 0 0 0 .196-.303c.064.04.144.055.222.032a.28.28 0 0 0 .194-.346c-.001-.004-.004-.005-.004-.007a.274.274 0 0 0 .224.033.28.28 0 0 0 .193-.345.28.28 0 0 0-.08-.122c-.003-.012-.01-.02-.015-.031.068.06.163.09.255.063a.278.278 0 0 0 .194-.333.278.278 0 0 0 .11-.453.275.275 0 0 0 .21-.488.272.272 0 0 0 .236-.136.277.277 0 0 0-.096-.376.27.27 0 0 0 .217-.167.277.277 0 0 0-.14-.357.244.244 0 0 0 .052-.021.289.289 0 0 0 .137-.175.292.292 0 0 0 .006-.104.276.276 0 0 0-.199-.236.27.27 0 0 0 .163-.215.28.28 0 0 0-.23-.31.278.278 0 0 0-.144-.514.275.275 0 0 0-.014-.439.277.277 0 0 0 .34-.148.276.276 0 0 0 .19.196.284.284 0 0 0 .34-.192.275.275 0 0 0 .217.167.28.28 0 0 0 .31-.235c.05.081.135.137.237.137a.28.28 0 0 0 .277-.274c.06.073.151.119.253.103a.279.279 0 0 0 .236-.31c.07.065.167.097.266.07a.277.277 0 0 0 .196-.303.278.278 0 0 0 .414-.313l-.002-.008a.273.273 0 0 0 .222.034.28.28 0 0 0 .195-.346.28.28 0 0 0-.08-.122c-.005-.012-.012-.02-.015-.031.068.06.161.09.255.063a.28.28 0 0 0 .194-.333.326.326 0 0 0 .102-.062.282.282 0 0 0 .009-.391.275.275 0 0 0 .253-.101.282.282 0 0 0-.044-.387.278.278 0 0 0 .236-.136.28.28 0 0 0-.096-.377.27.27 0 0 0 .217-.166.281.281 0 0 0-.14-.357.282.282 0 0 0 .186-.195.315.315 0 0 0 .008-.067c.002-.011 0-.024-.001-.037a.273.273 0 0 0-.191-.234.28.28 0 0 0 .002-.505.244.244 0 0 0-.072-.021c.014-.011.029-.022.042-.037a.281.281 0 0 0 .085-.203.282.282 0 0 0-.272-.276.27.27 0 0 0 .097-.252.28.28 0 0 0-.301-.238.273.273 0 0 0 .056-.262.277.277 0 0 0-.33-.195.278.278 0 0 0-.332-.416.28.28 0 0 0-.385-.37.274.274 0 0 0-.049-.265.278.278 0 0 0-.382-.046.279.279 0 0 0-.469-.253.266.266 0 0 0-.116-.244.275.275 0 0 0-.377.054.284.284 0 0 0-.151-.225.283.283 0 0 0-.372.106.273.273 0 0 0-.177-.203.274.274 0 0 0-.35.156.286.286 0 0 0-.205-.18.278.278 0 0 0-.33.199.27.27 0 0 0-.224-.148.278.278 0 0 0-.299.243.275.275 0 0 0-.244-.117.276.276 0 0 0-.262.28.278.278 0 0 0-.48.23.273.273 0 0 0-.267-.049.282.282 0 0 0-.181.338.28.28 0 0 0-.401.352.27.27 0 0 0-.269.023.275.275 0 0 0-.117.175.272.272 0 0 0 .035.2l.004.005a.273.273 0 0 0-.266.055.27.27 0 0 0-.07.318c.01.024.025.048.043.07a.279.279 0 0 0-.26.089.277.277 0 0 0 .024.384h-.002a.263.263 0 0 0-.12.026.278.278 0 0 0-.047.482.272.272 0 0 0-.219.157.26.26 0 0 0-.026.14l-.008.003a.276.276 0 0 0-.342.118.281.281 0 0 0-.178-.205.198.198 0 0 0-.056-.01v-.003a.281.281 0 0 0-.297.167l-.003.005a.271.271 0 0 0-.2-.18.278.278 0 0 0-.33.207.275.275 0 0 0-.521.086.285.285 0 0 0-.245-.118.28.28 0 0 0-.264.288.273.273 0 0 0-.256-.091.281.281 0 0 0-.222.32.27.27 0 0 0-.266-.055.128.128 0 0 0-.045.022.272.272 0 0 0-.132.324.275.275 0 0 0-.127-.042.273.273 0 0 0-.233-.013.273.273 0 0 0-.005-.274.281.281 0 0 0-.378-.094.278.278 0 0 0-.043-.27.28.28 0 0 0-.387-.043.272.272 0 0 0-.079-.261.279.279 0 0 0-.388.008.274.274 0 0 0-.113-.247.279.279 0 0 0-.384.06.271.271 0 0 0-.146-.231c-.002-.002-.007-.002-.01-.004a.277.277 0 0 0-.362.115.267.267 0 0 0-.175-.208.278.278 0 0 0-.353.16.275.275 0 0 0-.531.023.277.277 0 0 0-.524.092.278.278 0 0 0-.506.164.276.276 0 0 0-.259-.09.281.281 0 0 0-.221.32.267.267 0 0 0-.267-.055.279.279 0 0 0-.177.345.278.278 0 0 0-.273-.017.28.28 0 0 0-.128.367.274.274 0 0 0-.273.018.277.277 0 0 0-.078.38.282.282 0 0 0-.269.054.282.282 0 0 0-.026.39.278.278 0 0 0-.259.088.28.28 0 0 0 .026.388.272.272 0 0 0-.242.124.28.28 0 0 0 .076.383.273.273 0 0 0-.096.52.28.28 0 0 0-.202.186.277.277 0 0 0 .176.345.278.278 0 0 0-.176.21.28.28 0 0 0 .22.32.273.273 0 0 0-.145.23" fill="#69bf22"/></g><g><path d="M-1460.353-69.153s5.64-3.206 11.592 2.087c5.953 5.293 12.384 8.068 12.384 8.068s-3.357 5.23-8.992 2.486c-5.634-2.744-14.984-12.641-14.984-12.641" fill="#479706"/><path d="M-1443.226-56.999a2.064 2.064 0 1 1-.329-4.114 2.064 2.064 0 0 1 .33 4.114M-1447.446-60.04a2.064 2.064 0 1 1-.33-4.113 2.064 2.064 0 0 1 .33 4.114M-1451.67-63.81a2.064 2.064 0 1 1-.329-4.115 2.064 2.064 0 0 1 .33 4.114" fill="#92d125"/><path d="M-1449.289-81.62s6.43.864 7.962 8.681c1.533 7.817 4.97 13.92 4.97 13.92s-5.838 2.13-8.66-3.467c-2.824-5.595-4.272-19.133-4.272-19.133" fill="#69bf22"/><path d="M-1448.815-81.236s3.714 1.178 5.822 8.792c2.108 7.615 5.773 12.705 5.773 12.705s-3.327-6.866-4.108-11.055c-.78-4.19-2.096-8.199-7.487-10.442" fill="#92d125"/></g><g><path d="M-1462.98-256.207s3.107 4.678-1.108 10.135c-4.214 5.458-6.225 11.178-6.225 11.178s-4.718-2.586-2.686-7.616c2.032-5.03 10.02-13.697 10.02-13.697" fill="#479706"/><path d="M-1472.45-240.689a1.786 1.786 0 1 1 3.534-.53 1.786 1.786 0 0 1-3.533.53M-1470.077-244.515a1.786 1.786 0 1 1 3.533-.531 1.786 1.786 0 0 1-3.533.53M-1467.073-248.389a1.786 1.786 0 1 1 3.533-.53 1.786 1.786 0 0 1-3.533.53" fill="#92d125"/><path d="M-1451.552-247.4s-.36 5.605-7.019 7.396c-6.658 1.792-11.722 5.126-11.722 5.126s-2.189-4.914 2.474-7.687c4.663-2.773 16.267-4.834 16.267-4.834" fill="#69bf22"/><path d="M-1451.855-246.967s-.794 3.278-7.243 5.554c-6.45 2.277-10.625 5.746-10.625 5.746s5.73-3.284 9.3-4.21c3.57-.925 6.954-2.3 8.568-7.09" fill="#92d125"/></g><g><path d="M-1315.41-263.647s-.79 4.06-5.822 4.741c-5.032.683-9.044 2.642-9.044 2.642s-1.137-3.795 2.53-5.382c3.667-1.587 12.337-2.001 12.337-2.001" fill="#479706"/><path d="M-1328.4-260.407a1.316 1.316 0 1 1 2.127 1.549 1.316 1.316 0 0 1-2.127-1.55M-1325.177-261.187a1.316 1.316 0 1 1 2.127 1.549 1.316 1.316 0 0 1-2.127-1.549M-1321.599-261.664a1.316 1.316 0 1 1 2.127 1.548 1.316 1.316 0 0 1-2.127-1.548" fill="#92d125"/><path d="M-1313.971-253.12s-3.087 2.753-7.505.249c-4.418-2.504-8.798-3.374-8.798-3.374s1.394-3.709 5.273-2.751c3.879.957 11.03 5.877 11.03 5.877" fill="#69bf22"/><path d="M-1314.354-253.05s-2.111 1.31-6.67-.832c-4.56-2.142-8.543-2.482-8.543-2.482s4.703 1.241 7.053 2.602c2.351 1.362 4.837 2.39 8.16.713" fill="#92d125"/></g><g><path d="M-1370.037 7.48c1.112 1.644 2.354 2.676 3.493 3.335a9.62 9.62 0 0 0 1.738.786c.564.19 1.045.296 1.398.367.068.014.131.027.189.037h.007l.004.001c.248.05.401.082.428.128 0 .011 0 .02-.002.029-.005.007-.01.016-.018.025-.125.17-.406.366-.802.57-.493.258-1.159.532-1.911.8-2.62.939-6.284 1.827-7.292 1.741-.54-.045-.445-.192-.255-.636-.027.01-.052.022-.077.03-1.063.41-2.081.335-2.278-.169-.074-.192-.016-.42.142-.652-.966.309-1.847.209-2.026-.255-.077-.2-.01-.44.164-.68-.863.096-1.563-.114-1.672-.546-.064-.245.078-.516.356-.765-.912-.07-1.604-.434-1.62-.896-.008-.257.195-.499.532-.683-.709-.4-1.126-.934-.98-1.335.101-.283.464-.44.953-.454-.412-.375-.612-.781-.478-1.084.168-.377.803-.482 1.56-.303.023.004.048.01.07.016a1.73 1.73 0 0 1-.034-.13c-.066-.276-.046-.514.073-.673.016-.019.032-.038.05-.056.33-.326 1.08-.11 1.79.471-.029-.373.057-.666.271-.802.378-.236 1.029.097 1.587.762.04-.294.156-.513.352-.604.449-.212 1.154.324 1.642 1.215.043-.277.16-.482.346-.569.465-.22 1.2.359 1.688 1.3.173-.324.454-.555.612-.321" fill="#69bc1b"/><path d="M-1371.453 10.549c-.978.413-1.911.386-2.129-.079-.087-.187-.045-.418.097-.66-.944.375-1.828.336-2.04-.114-.09-.196-.04-.439.117-.69-.854.155-1.568-.005-1.707-.43-.08-.239.043-.52.303-.788-.915-.006-1.63-.32-1.678-.78-.027-.257.16-.51.482-.72-.733-.348-1.187-.853-1.07-1.262.09-.318.503-.503 1.059-.53-.365-.322-.545-.673-.443-.957.145-.4.808-.545 1.607-.399-.14-.358-.143-.673.029-.866.307-.345 1.07-.183 1.818.347-.055-.37.01-.669.214-.817.36-.263 1.035.024 1.636.65.02-.297.121-.524.31-.629.434-.242 1.174.243 1.721 1.099.026-.28.127-.492.307-.592.472-.264 1.304.33 1.859 1.324.013.025.025.05.039.074.138-.462.16-.635.604-.326 1.269.884 5.691 7.425 5.536 8.758-.04.345-2.94-2.564-8.405-.975-.271.079-.34-.279-.266-.638" fill="#5da618"/><path d="M-1358.071 9.441a4.162 4.162 0 0 1 2.705 4.512c-.028.228.327.758.726.936.397.18.298.323.298.323s-.014.172-.435.056c-.421-.116-1.032.063-1.157.256l-.004.005a4.16 4.16 0 1 1-7.47-3.56l.022-.06a4.16 4.16 0 0 1 5.315-2.467" fill="#992956"/></g><g><path d="M-1329.812 7.85c-1.111 1.644-2.354 2.676-3.493 3.335a9.62 9.62 0 0 1-1.737.786c-.564.19-1.045.296-1.399.367-.067.013-.13.027-.188.036-.002.001-.004.002-.007 0l-.004.002c-.248.049-.402.082-.428.128l.001.029c.005.007.01.016.018.025.126.17.407.365.803.57.492.257 1.159.531 1.911.8 2.619.938 6.284 1.826 7.292 1.74.54-.044.445-.192.255-.636.027.011.051.023.077.031 1.063.41 2.081.335 2.278-.17.073-.191.016-.42-.143-.65.967.308 1.847.207 2.027-.257.077-.2.009-.439-.164-.68.862.097 1.562-.113 1.672-.545.063-.245-.078-.516-.356-.765.911-.071 1.603-.434 1.62-.897.007-.256-.196-.498-.532-.683.708-.399 1.126-.933.98-1.334-.102-.283-.465-.44-.953-.454.411-.376.612-.781.477-1.084-.168-.378-.802-.482-1.559-.304-.023.004-.048.01-.071.017a1.73 1.73 0 0 0 .035-.13c.066-.276.045-.514-.073-.673-.016-.02-.032-.038-.05-.057-.331-.325-1.08-.108-1.79.472.029-.373-.057-.667-.272-.802-.377-.236-1.028.097-1.587.761-.04-.293-.156-.513-.352-.603-.448-.212-1.153.324-1.641 1.215-.043-.277-.16-.482-.346-.57-.465-.22-1.2.36-1.688 1.3-.173-.323-.455-.555-.613-.32" fill="#69bc1b"/><path d="M-1328.395 10.918c.977.413 1.91.387 2.129-.078.087-.188.045-.419-.097-.66.944.374 1.828.336 2.039-.115.091-.195.04-.438-.116-.69.854.156 1.568-.005 1.707-.428.079-.24-.043-.521-.304-.79.916-.006 1.63-.32 1.679-.78.027-.256-.16-.51-.483-.72.734-.348 1.187-.852 1.07-1.262-.09-.317-.502-.503-1.058-.529.365-.322.545-.674.442-.957-.144-.4-.807-.545-1.606-.4.14-.358.143-.673-.029-.865-.308-.345-1.071-.183-1.818.347.055-.37-.01-.669-.215-.818-.36-.262-1.034.025-1.636.65-.02-.296-.12-.523-.309-.628-.434-.242-1.174.243-1.722 1.098-.025-.278-.126-.491-.307-.592-.471-.263-1.303.33-1.858 1.325-.014.024-.026.05-.039.073-.138-.462-.16-.635-.604-.325-1.269.884-5.692 7.425-5.536 8.758.04.344 2.94-2.565 8.404-.976.272.08.34-.278.267-.638" fill="#5da618"/><path d="M-1341.777 9.81a4.162 4.162 0 0 0-2.705 4.513c.028.228-.328.758-.726.935-.398.18-.298.324-.298.324s.014.172.435.056c.421-.116 1.032.062 1.156.256l.005.005a4.16 4.16 0 1 0 7.47-3.56l-.022-.061a4.16 4.16 0 0 0-5.315-2.467" fill="#992956"/></g><g><path d="M-1291.428.646c.002.012.005.025.009.036-.012.002-.023 0-.035.002.01-.012.02-.025.026-.038m4.987-1.36l.001.002a.181.181 0 0 0 .074.025.205.205 0 0 0-.078.035c-.001.001-.004.001-.006.004a.186.186 0 0 0 .009-.065m-10.457 5.485a.235.235 0 0 0 .309.106.232.232 0 0 0 .34.29.23.23 0 0 0 .05.225c.085.096.23.1.327.02a.227.227 0 0 0 .079.216.234.234 0 0 0 .326-.026.23.23 0 0 0 .107.204c.109.068.25.037.32-.07a.234.234 0 0 0 .443.077.23.23 0 0 0 .158.168.235.235 0 0 0 .288-.151c.03.074.094.132.178.145a.235.235 0 0 0 .269-.19c.04.07.11.12.197.121a.236.236 0 0 0 .24-.224.232.232 0 0 0 .417-.16.234.234 0 0 0 .22.064.234.234 0 0 0 .173-.28.236.236 0 0 0 .227.035.237.237 0 0 0 .134-.301c.07.04.155.046.23.004a.234.234 0 0 0 .09-.315.24.24 0 0 0 .23-.028.237.237 0 0 0 .048-.325c.077.019.163.002.223-.057a.232.232 0 0 0 .021-.302l-.001-.004.015.003v.002a.227.227 0 0 0 .138.14c.049.02.104.02.157.005a.247.247 0 0 0-.035.1c-.005.043 0 .089.021.13a.236.236 0 0 0 .31.105.237.237 0 0 0 .02.23.236.236 0 0 0 .322.062.23.23 0 0 0 .048.224.235.235 0 0 0 .328.018.232.232 0 0 0 .078.218c.099.081.242.069.327-.027a.233.233 0 0 0 .427.135c.009.08.056.153.132.188a.237.237 0 0 0 .31-.11c.02.076.075.143.157.167a.237.237 0 0 0 .29-.152.232.232 0 0 0 .446-.044c.04.07.11.119.197.121a.236.236 0 0 0 .24-.223.233.233 0 0 0 .418-.162.231.231 0 0 0 .221.064.235.235 0 0 0 .172-.279.232.232 0 0 0 .227.034.24.24 0 0 0 .135-.295.244.244 0 0 0 .23-.002l.02-.014a.235.235 0 0 0 .072-.298.23.23 0 0 0 .227-.03.236.236 0 0 0 .052-.32.234.234 0 0 0 .243-.365.237.237 0 0 0 .173-.405l-.003-.002a.226.226 0 0 0 .177-.068.236.236 0 0 0-.114-.396s0-.003-.002-.004a.226.226 0 0 0 .196-.066.233.233 0 0 0 .008-.326.235.235 0 0 0-.1-.377.226.226 0 0 0 .14-.18.234.234 0 0 0-.185-.265.228.228 0 0 0 .113-.197.237.237 0 0 0-.219-.24.235.235 0 0 0-.163-.417.236.236 0 0 0-.216-.394.234.234 0 0 0 .023-.224.233.233 0 0 0-.294-.133.234.234 0 0 0-.288-.331.095.095 0 0 0-.03.013.23.23 0 0 0-.032-.228.23.23 0 0 0-.15-.09.234.234 0 0 0 .18-.24.238.238 0 0 0 .396-.215.237.237 0 0 0 .36-.268c.07.037.154.038.228-.003a.239.239 0 0 0 .094-.313.23.23 0 0 0 .227-.03.236.236 0 0 0 .052-.32.234.234 0 0 0 .243-.365.236.236 0 0 0 .172-.403l-.003-.002a.232.232 0 0 0 .177-.068.237.237 0 0 0 0-.336.221.221 0 0 0-.112-.06c.001-.002 0-.003-.001-.005a.233.233 0 0 0 .195-.067.232.232 0 0 0 .006-.324.235.235 0 0 0-.098-.378.227.227 0 0 0 .138-.18.234.234 0 0 0-.184-.266.228.228 0 0 0 .113-.197.237.237 0 0 0-.219-.239.235.235 0 0 0-.163-.417.226.226 0 0 0 .055-.22.234.234 0 0 0-.272-.173.24.24 0 0 0 .024-.225.232.232 0 0 0-.294-.134.234.234 0 0 0-.29-.33.076.076 0 0 0-.028.012.107.107 0 0 0 .012-.04.223.223 0 0 0-.044-.188.229.229 0 0 0-.154-.088.22.22 0 0 0-.165.039.232.232 0 0 0-.125-.26.23.23 0 0 0-.246.02.042.042 0 0 0-.017.014l-.004.004a.234.234 0 0 0-.09-.212.236.236 0 0 0-.325.042.234.234 0 0 0-.116-.199.235.235 0 0 0-.317.086.23.23 0 0 0-.143-.181.234.234 0 0 0-.301.126.234.234 0 0 0-.166-.16.237.237 0 0 0-.283.166.23.23 0 0 0-.186-.137.235.235 0 0 0-.257.203.23.23 0 0 0-.201-.112.238.238 0 0 0-.23.236.23.23 0 0 0-.215-.083.238.238 0 0 0-.195.263.233.233 0 0 0-.224-.053.235.235 0 0 0-.156.289.232.232 0 0 0-.23-.024.236.236 0 0 0-.119.306.233.233 0 0 0-.306.327.234.234 0 0 0-.226.04.236.236 0 0 0-.031.327.235.235 0 0 0-.222.068.236.236 0 0 0 .013.329.234.234 0 0 0-.209.096.234.234 0 0 0 .056.323.234.234 0 0 0-.194.126.236.236 0 0 0 .099.313.23.23 0 0 0-.174.15.234.234 0 0 0 .14.297.23.23 0 0 0-.154.171.236.236 0 0 0 .176.277.234.234 0 0 0-.128.189.235.235 0 0 0 .214.25.233.233 0 0 0-.102.206.236.236 0 0 0 .244.218.236.236 0 0 0-.074.22.237.237 0 0 0 .272.182.233.233 0 0 0 .012.315l.024.021c.06.045.139.06.215.037a.243.243 0 0 0-.038.117l.001.001a.23.23 0 0 0 .272.234l.002.002a.28.28 0 0 0 .06-.02.23.23 0 0 0 .02.229.23.23 0 0 0 .32.062.307.307 0 0 0-.01.066.223.223 0 0 0 .06.159l.003.002c-.004.017-.01.032-.01.05a.239.239 0 0 0-.214-.083.24.24 0 0 0-.196.265.227.227 0 0 0-.223-.052.233.233 0 0 0-.157.287.232.232 0 0 0-.23-.024.235.235 0 0 0-.12.3.238.238 0 0 0-.228.014c-.009.007-.018.013-.024.02-.09.072-.11.2-.054.3a.231.231 0 0 0-.225.039.236.236 0 0 0-.032.327.228.228 0 0 0-.218.069c-.018.018-.029.04-.039.06-.004-.016-.002-.032-.01-.05a.232.232 0 0 0-.207-.144.216.216 0 0 0-.09.013.265.265 0 0 0 .026-.079.236.236 0 0 0-.343-.242.258.258 0 0 0 .018-.094l-.002-.001a.225.225 0 0 0-.046-.132.233.233 0 0 0-.171-.09.233.233 0 0 0-.153.042.233.233 0 0 0-.06-.22.235.235 0 0 0-.328-.002.234.234 0 0 0-.09-.214.237.237 0 0 0-.325.043.23.23 0 0 0-.115-.2.236.236 0 0 0-.317.086.235.235 0 0 0-.143-.18.232.232 0 0 0-.275.08.208.208 0 0 0-.027.047.23.23 0 0 0-.166-.16.233.233 0 0 0-.282.165.233.233 0 0 0-.186-.138.235.235 0 0 0-.257.204.228.228 0 0 0-.202-.111.236.236 0 0 0-.23.234.23.23 0 0 0-.284-.058.237.237 0 0 0-.125.239.237.237 0 0 0-.224-.054.236.236 0 0 0-.158.288.24.24 0 0 0-.23-.022.235.235 0 0 0-.117.305.233.233 0 0 0-.307.327.235.235 0 0 0-.226.041.236.236 0 0 0-.033.326.233.233 0 0 0-.219.069.236.236 0 0 0 .013.328.239.239 0 0 0-.21.098.237.237 0 0 0 .056.323.23.23 0 0 0-.193.125.234.234 0 0 0 .099.313.233.233 0 0 0-.176.15.236.236 0 0 0 .139.296.235.235 0 0 0-.153.173.236.236 0 0 0 .178.275.23.23 0 0 0-.127.19.234.234 0 0 0 .211.25.235.235 0 0 0-.102.206.235.235 0 0 0 .246.218.234.234 0 0 0-.074.219.236.236 0 0 0 .273.183.235.235 0 0 0-.045.225l.001.001a.234.234 0 0 0 .292.145.265.265 0 0 0-.034.1.224.224 0 0 0 .024.13" fill="#479706"/><path d="M-1295.483 1.339a7.264 7.264 0 0 0-.194-2.034 6.184 6.184 0 0 0-.157-.559 6.082 6.082 0 0 0-.15-.428c-1.033-2.666-3.28-4.16-3.28-4.16l2.648-2.647s.82 1.185 2.612 2.284a5.867 5.867 0 0 0 2.283.808c.098.014.19.023.279.031a5.046 5.046 0 0 0 .854.006c.09-.006.138-.013.138-.013l.098-.014.001.001.111.093.238.197a2.72 2.72 0 0 1-.345.11.616.616 0 0 1-.098.028c-.028.007-.056.015-.088.019-.06.016-.12.026-.183.038-.001-.002-.002 0-.002 0a4.068 4.068 0 0 1-.779.059c-.069 0-.137-.003-.206-.008-1.718-.094-3.226-1.059-3.226-1.059l2.86 2.47h.002l.205.178.056.048.053.046.837.722c.01.01.02.02.032.027l.23.199.168.146.002.001.053.046.06.05.024.021.09.077.087.077.001.001.082.07.145.124.001.001.045.04.042.036v.002l.305.26.001.002.04.035.003.003.094.081.176.15.055.047.122.107.001.002.645.555-1.156 1.271-.672.738-.009.01-.008-.008-.871-.897-.067-.07-.21-.214-.016-.019-.208-.214-.003-.002-.06-.064-.23-.237-.078-.077-.017-.02-.003-.003-.198-.204-.02-.019-.179-.184-.085-.088-.001-.001-.24-.247-.087-.09-.001-.002-.189-.193v-.001l-.416-.428-.091-.094-.032-.034-.193-.199-1.29-1.328c.302.463.544.985.736 1.508v.002c.038.105.075.208.108.312.012.034.023.066.033.1a7.09 7.09 0 0 1 .086.282v.002l.035.118.001.002c.012.042.02.081.031.122l.001.001.012.037a3.376 3.376 0 0 1 .047.192l.001.001.059.235c0 .01.003.018.005.027l.035.163s.002.002.001.004c.018.082.036.163.05.24l.001.01h.002c.029.144.053.28.073.408.002.001 0 .002 0 .005.013.069.025.136.035.2-.001.004 0 .005.001.006l.028.209c.003.01.003.02.004.031a10.92 10.92 0 0 1 .058.52h-.002l-.976-.101-.906-.094z" fill="#479706"/><path d="M-1287.26-1.459a.208.208 0 0 0 .007-.068.222.222 0 0 0 .107.028.231.231 0 0 0-.115.04m-10.45 5.42c.06.114.197.16.311.107a.23.23 0 0 0 .02.227.235.235 0 0 0 .321.063.229.229 0 0 0 .138.285c.078.03.17.015.237-.042a.233.233 0 0 0 .405.19.233.233 0 0 0 .427.135c.01.08.056.153.135.189a.235.235 0 0 0 .308-.112.231.231 0 0 0 .447.017c.03.073.094.132.18.146a.236.236 0 0 0 .266-.191c.04.07.11.12.198.12a.236.236 0 0 0 .239-.223.234.234 0 0 0 .21.094.235.235 0 0 0 .207-.255.233.233 0 0 0 .393-.215.235.235 0 0 0 .228.035.237.237 0 0 0 .133-.302c.07.04.155.046.23.004a.234.234 0 0 0 .09-.314c.076.029.163.024.23-.028a.235.235 0 0 0 .048-.326c.078.02.163.003.223-.057a.234.234 0 0 0 .021-.304l.014.001c.002.001.002.001 0 .003.042.12.173.183.296.145a.236.236 0 0 0-.014.23.237.237 0 0 0 .311.106.23.23 0 0 0 .219.328c.04 0 .084-.013.12-.037a.238.238 0 0 0 .017.18.19.19 0 0 0 .032.044.213.213 0 0 0 .09.06c.08.03.17.016.239-.042a.236.236 0 0 0 .077.217c.1.082.243.07.328-.025a.228.228 0 0 0 .107.203c.107.069.25.036.32-.07.008.08.055.153.133.19a.236.236 0 0 0 .308-.112c.02.076.075.144.158.168a.234.234 0 0 0 .29-.153c.03.074.094.132.18.146a.234.234 0 0 0 .265-.19c.04.07.11.12.197.122a.236.236 0 0 0 .24-.224c.049.062.125.103.212.093a.235.235 0 0 0 .206-.255.234.234 0 0 0 .223.065.235.235 0 0 0 .17-.28.232.232 0 0 0 .228.035.236.236 0 0 0 .132-.3c.07.039.157.044.232.002l.021-.014a.238.238 0 0 0 .069-.3c.075.03.161.024.229-.028a.234.234 0 0 0 .047-.325c.078.02.163.003.224-.058a.234.234 0 0 0 .02-.303.235.235 0 0 0 .177-.067.237.237 0 0 0 .001-.335c-.002-.003-.005-.002-.006-.004a.231.231 0 0 0 .18-.067.236.236 0 0 0 0-.334.236.236 0 0 0-.109-.057c-.007-.007-.015-.01-.024-.016a.23.23 0 0 0 .214-.059c.09-.09.09-.233.006-.324a.234.234 0 0 0-.104-.38.232.232 0 0 0-.046-.445.23.23 0 0 0 .118-.197.234.234 0 0 0-.225-.238.228.228 0 0 0 .092-.21.234.234 0 0 0-.25-.207.206.206 0 0 0 .03-.037.243.243 0 0 0 .029-.184.246.246 0 0 0-.038-.08.233.233 0 0 0-.243-.092.227.227 0 0 0 .032-.225.236.236 0 0 0-.297-.134.234.234 0 0 0-.317-.32.232.232 0 0 0-.19-.317.234.234 0 0 0 .19-.248.232.232 0 0 0 .22.066.24.24 0 0 0 .172-.281.232.232 0 0 0 .228.034.236.236 0 0 0 .132-.3c.07.04.156.046.23.004a.236.236 0 0 0 .092-.316.23.23 0 0 0 .23-.028.235.235 0 0 0 .046-.324c.078.019.163.002.224-.059a.234.234 0 0 0 .02-.303.235.235 0 0 0 .177-.4l-.005-.005a.23.23 0 0 0 .178-.067.237.237 0 0 0 .001-.334.236.236 0 0 0-.108-.057c-.009-.007-.017-.01-.024-.017.075.017.156 0 .214-.058.09-.09.09-.233.006-.325a.275.275 0 0 0 .05-.088.238.238 0 0 0-.154-.29.232.232 0 0 0 .145-.179.238.238 0 0 0-.19-.267.234.234 0 0 0 .117-.197.236.236 0 0 0-.225-.238.228.228 0 0 0 .092-.211.237.237 0 0 0-.25-.207c.01-.01.02-.022.029-.035a.238.238 0 0 0 .029-.185.266.266 0 0 0-.022-.052.23.23 0 0 0-.253-.12.236.236 0 0 0-.205-.373.206.206 0 0 0-.062.014c.006-.014.013-.028.016-.045a.237.237 0 0 0-.021-.184.237.237 0 0 0-.313-.092.227.227 0 0 0-.032-.225.236.236 0 0 0-.32-.052.23.23 0 0 0-.065-.216.234.234 0 0 0-.324-.008.234.234 0 0 0-.415-.17.235.235 0 0 0-.434-.115.231.231 0 0 0-.145-.176.234.234 0 0 0-.3.122.235.235 0 0 0-.45.007.224.224 0 0 0-.185-.132.232.232 0 0 0-.256.194.24.24 0 0 0-.204-.104.238.238 0 0 0-.23.23.23.23 0 0 0-.214-.076.231.231 0 0 0-.194.258.241.241 0 0 0-.224-.048.235.235 0 0 0-.162.28.228.228 0 0 0-.225-.016.234.234 0 0 0-.12.302.232.232 0 0 0-.229.014.233.233 0 0 0-.078.313.234.234 0 0 0-.26.366.23.23 0 0 0-.216.074.237.237 0 0 0 .005.323.237.237 0 0 0-.152.424.227.227 0 0 0-.188.127.232.232 0 0 0-.014.177.23.23 0 0 0 .107.132c.001.001.004.001.005.003a.23.23 0 0 0-.173.15.227.227 0 0 0 .079.262.23.23 0 0 0 .06.034.235.235 0 0 0-.154.172.234.234 0 0 0 .174.273l-.001.002a.222.222 0 0 0-.078.067.234.234 0 0 0 .163.374.23.23 0 0 0-.097.206.22.22 0 0 0 .039.115l-.006.005a.233.233 0 0 0-.203.226.237.237 0 0 0-.215-.077.167.167 0 0 0-.046.015l-.001-.001a.237.237 0 0 0-.15.244v.005a.228.228 0 0 0-.221-.05.234.234 0 0 0-.158.287.232.232 0 0 0-.349.277.24.24 0 0 0-.229.013.236.236 0 0 0-.076.32.23.23 0 0 0-.227.038.237.237 0 0 0-.032.327.228.228 0 0 0-.218.07.108.108 0 0 0-.024.033.229.229 0 0 0 .035.293.232.232 0 0 0-.11.022.23.23 0 0 0-.177.085.23.23 0 0 0-.116-.2.237.237 0 0 0-.317.085.235.235 0 0 0-.142-.18.236.236 0 0 0-.303.127.23.23 0 0 0-.166-.16.235.235 0 0 0-.282.165.231.231 0 0 0-.184-.136.235.235 0 0 0-.259.202.229.229 0 0 0-.202-.11h-.009a.234.234 0 0 0-.22.234.225.225 0 0 0-.214-.082.234.234 0 0 0-.194.263c-.061-.053-.143-.078-.224-.053a.235.235 0 0 0-.158.287.233.233 0 0 0-.349.282.234.234 0 0 0-.305.328.233.233 0 0 0-.228.04.237.237 0 0 0-.031.328.225.225 0 0 0-.22.068.235.235 0 0 0 .012.327.234.234 0 0 0-.208.1.235.235 0 0 0 .056.323.23.23 0 0 0-.194.124.234.234 0 0 0 .098.312.237.237 0 0 0-.175.15.238.238 0 0 0 .14.298.234.234 0 0 0-.154.171.235.235 0 0 0 .178.275.23.23 0 0 0-.128.191.237.237 0 0 0 .213.25.23.23 0 0 0 .142.423.236.236 0 0 0-.072.22.233.233 0 0 0 .271.182.234.234 0 0 0-.043.226c.042.121.173.184.293.147a.23.23 0 0 0-.012.229" fill="#69bf22"/></g><g><path d="M-1293.563-88.747a2.403 2.403 0 0 1-.198-.249l-.003-.004a2.314 2.314 0 0 1 .396-3.045 2.305 2.305 0 0 1 1.75-.554l.02.002-2.615-3.008 1.452-1.263.107-.096.109-.091 1.472-1.28 2.598 2.987a2.31 2.31 0 0 1 3.864-1.606 2.008 2.008 0 0 1 .224.233l.067.074c2.068 2.378 1.69 6.092-.843 8.295-2.534 2.204-6.264 2.063-8.332-.315-.022-.024-.044-.05-.064-.076l-.004-.004z" fill="#e7e0db"/><path d="M-1288.474-95.348l.881.992s.936.224.81-.42c-.116-.586-.83-.628-1.691-.572M-1291.614-92.618l.861 1.01s.092.959-.527.744c-.566-.196-.508-.909-.334-1.754" fill="#c2bfbc"/></g><g><path d="M-1251.842-98.191s-.703 3.43-4.969 3.966c-4.266.537-7.679 2.162-7.679 2.162s-.93-3.222 2.187-4.535c3.117-1.314 10.46-1.593 10.46-1.593" fill="#479706"/><path d="M-1262.867-95.555a1.114 1.114 0 1 1 1.788 1.329 1.114 1.114 0 0 1-1.788-1.329M-1260.132-96.188a1.114 1.114 0 1 1 1.788 1.328 1.114 1.114 0 0 1-1.788-1.328M-1257.099-96.563a1.114 1.114 0 1 1 1.788 1.328 1.114 1.114 0 0 1-1.788-1.328" fill="#92d125"/><path d="M-1250.712-89.266s-2.636 2.305-6.356.148c-3.72-2.156-7.42-2.929-7.42-2.929s1.21-3.128 4.486-2.286c3.277.843 9.29 5.067 9.29 5.067" fill="#69bf22"/><path d="M-1251.036-89.21s-1.799 1.09-5.64-.76c-3.843-1.85-7.213-2.172-7.213-2.172s3.971 1.09 5.95 2.262c1.98 1.172 4.075 2.063 6.903.67" fill="#92d125"/></g><g id="a"><path d="M0 0l-2.15 1.54S.84 6-2.91 6.16C-6.66 6.33-8.4-4.85-1.49-6.31l-4.07-.04-3.23-.03-3.56-.03-4.56-.04s.01 0 .04.01c.03 0 .05.01.07.01.63.17 3.77 1.23 4.88 5.99.56 2.42 1.53 5.11 3.13 7.03 1.43 1.71 3.36 2.8 5.96 2.49C6.34 8 2.84-.17 0 0" fill="#479706" transform="scale(.41978 -.41978) rotate(-28.218 -115.754 6716.372)"/><path d="M0 0c0-1.06-1.4-2.02-3.71-2.75-2.23-.7-5.32-1.19-8.81-1.33-.67-.03-1.36-.04-2.06-.04-.89 0-1.77.02-2.61.07-3.33.17-6.26.65-8.39 1.34-2.23.73-3.58 1.67-3.58 2.71 0 .9 1.03 1.74 2.77 2.42 1.02.4 2.29.75 3.73 1.02.03 0 .05.01.07.01 2.26.43 4.97.67 7.88.68h.13c2.66 0 5.15-.2 7.3-.56 1.46-.23 2.75-.54 3.83-.9C-1.29 1.94 0 1.02 0 0" fill="#479706" transform="scale(.41978 -.41978) rotate(-28.218 -138.303 6709.794)"/><path d="M0 0c0-9.74-1.82-18.92-5.04-26.97-.03-.09-.06-.17-.1-.25-1.74-4.321-3.88-8.3-6.37-11.87-2.42-3.491-5.17-6.58-8.18-9.18-5.22-4.54-11.22-7.61-17.67-8.8-1.96-.36-3.96-.551-6-.551-23.95 0-43.36 25.79-43.36 57.621 0 31.82 19.41 57.63 43.36 57.63 2.49 0 4.94-.28 7.31-.82 6.12-1.38 11.79-4.46 16.75-8.86 2.86-2.54 5.47-5.52 7.79-8.86 2.43-3.49 4.54-7.38 6.25-11.58.05-.1.09-.19.12-.29C-1.86 19.11 0 9.84 0 0" fill="#ff6e2e" transform="scale(.41978 -.41978) rotate(-28.218 -244.486 6756.448)"/><path d="M0 0c0-14.621-2.97-28.02-7.91-38.46-1.88-3.98-4.05-7.54-6.46-10.56-.06-.09-.13-.18-.21-.271-2.49-3.099-5.23-5.629-8.16-7.489-3.69-2.36-7.68-3.64-11.84-3.64-4.3 0-8.42 1.37-12.22 3.89C-59.86-47.911-69.15-25.85-69.15 0c0 26.71 9.91 49.37 23.66 57.35 3.43 1.99 7.1 3.07 10.91 3.07 2.82 0 5.57-.59 8.19-1.71 1.25-.52 2.46-1.17 3.65-1.93 1.94-1.23 3.79-2.75 5.55-4.54.82-.83 1.61-1.72 2.39-2.67.07-.09.15-.18.22-.28 2.23-2.76 4.26-5.97 6.05-9.55C-3.22 29.12 0 15.22 0 0" fill="#ff7c3b" transform="scale(.41978 -.41978) rotate(-28.218 -250.28 6737.94)"/><path d="M0 0c0-31.824 19.413-57.625 43.36-57.625S86.721-31.824 86.721 0c0 31.826-19.414 57.625-43.361 57.625C19.413 57.625 0 31.826 0 0" fill="#ff6e2e" transform="scale(.41978 -.41978) rotate(-28.218 -238.27 6776.638)"/><path d="M0 0c0-33.367 15.479-60.417 34.575-60.417C53.671-60.417 69.15-33.367 69.15 0c0 33.367-15.479 60.418-34.575 60.418C15.479 60.418 0 33.367 0 0" transform="scale(.41978 -.41978) rotate(-28.218 -234.623 6795.685)" fill="#ff7c3b"/><path d="M0 0c0-19.14-3.48-36.21-8.91-47.27-1.85-3.811-3.95-6.91-6.21-9.13-2.61-2.58-5.44-3.99-8.4-4.02h-.08c-2.84 0-5.56 1.28-8.08 3.64-2.32 2.159-4.48 5.23-6.39 9.05C-43.63-36.68-47.2-19.411-47.2 0c0 19.86 3.74 37.48 9.52 48.49.99 1.9 2.05 3.61 3.16 5.09.92 1.23 1.86 2.3 2.84 3.2 1.47 1.38 3.01 2.39 4.6 2.98 1.12.43 2.27.65 3.43.66h.13a9.56 9.56 0 0 0 3.23-.6c1.55-.54 3.05-1.49 4.49-2.78 1.09-.97 2.14-2.14 3.15-3.5 1.04-1.4 2.04-3 2.99-4.78C-3.81 37.77 0 20.02 0 0" fill="#ff8f40" transform="matrix(.36989 .19848 .19848 -.36989 -1346.53 -284.69)"/></g><use height="100%" width="100%" transform="scale(1.0594) rotate(-48.1 -1255.926 -233.17)" xlink:href="#a"/></g></svg>