<?xml version="1.0" encoding="UTF-8" standalone="no"?>
<!-- Created with Inkscape (http://www.inkscape.org/) -->

<svg
   xmlns:dc="http://purl.org/dc/elements/1.1/"
   xmlns:cc="http://creativecommons.org/ns#"
   xmlns:rdf="http://www.w3.org/1999/02/22-rdf-syntax-ns#"
   xmlns:svg="http://www.w3.org/2000/svg"
   xmlns="http://www.w3.org/2000/svg"
   xmlns:sodipodi="http://sodipodi.sourceforge.net/DTD/sodipodi-0.dtd"
   xmlns:inkscape="http://www.inkscape.org/namespaces/inkscape"
   width="47.776192mm"
   height="71.664284mm"
   viewBox="0 0 169.28572 253.92856"
   id="svg7170"
   version="1.1"
   inkscape:version="0.91 r13725"
   sodipodi:docname="client_love_face.svg">
  <defs
     id="defs7172" />
  <sodipodi:namedview
     id="base"
     pagecolor="#ffffff"
     bordercolor="#666666"
     borderopacity="1.0"
     inkscape:pageopacity="0.0"
     inkscape:pageshadow="2"
     inkscape:zoom="0.7"
     inkscape:cx="165.90636"
     inkscape:cy="140.77878"
     inkscape:document-units="px"
     inkscape:current-layer="layer1"
     showgrid="false"
     inkscape:window-width="1855"
     inkscape:window-height="1056"
     inkscape:window-x="1431"
     inkscape:window-y="24"
     inkscape:window-maximized="1"
     fit-margin-top="0"
     fit-margin-left="0"
     fit-margin-right="0"
     fit-margin-bottom="0" />
  <metadata
     id="metadata7175">
    <rdf:RDF>
      <cc:Work
         rdf:about="">
        <dc:format>image/svg+xml</dc:format>
        <dc:type
           rdf:resource="http://purl.org/dc/dcmitype/StillImage" />
        <dc:title></dc:title>
      </cc:Work>
    </rdf:RDF>
  </metadata>
  <g
     inkscape:label="Layer 1"
     inkscape:groupmode="layer"
     id="layer1"
     transform="translate(247.5,-451.11221)">
    <g
       transform="matrix(0.70535714,0,0,0.70535714,-289.82143,451.11221)"
       style="display:inline;opacity:1"
       id="XMLID_1066_">
      <path
         d="m 201,260 -21,0 -21,0 c -38.107,0 -69,30.893 -69,69 l 0,31 90,0 90,0 0,-31 c 0,-38.107 -30.893,-69 -69,-69 z"
         style="fill:#50412e"
         id="XMLID_1067_"
         inkscape:connector-curvature="0" />
      <polygon
         points="140,360 180,360 220,360 180,320 "
         style="fill:#ff9811"
         id="XMLID_1068_" />
      <g
         id="XMLID_1069_">
        <path
           d="m 180,260 -21,0 c -38.107,0 -69,30.893 -69,69 l 0,31 90,0 0,-100 z"
           id="XMLID_1070_"
           inkscape:connector-curvature="0" />
      </g>
      <g
         id="XMLID_1071_">
        <path
           d="m 210,260 c 0,16.568 -13.432,30 -30,30 l 0,0 c -16.568,0 -30,-13.432 -30,-30 l 0,-30 c 0,-16.568 13.432,-30 30,-30 l 0,0 c 16.568,0 30,13.432 30,30 l 0,30 z"
           style="fill:#ffeacf"
           id="XMLID_1072_"
           inkscape:connector-curvature="0" />
      </g>
      <g
         id="XMLID_1073_">
        <polygon
           points="180,320 180,360 140,360 "
           style="fill:#ff5023"
           id="XMLID_1074_" />
      </g>
      <g
         id="XMLID_1075_">
        <path
           d="M 180,170 180,0 C 180,0 70,40 70,130 l 0,40 110,0 z"
           style="fill:#804c09"
           id="XMLID_1076_"
           inkscape:connector-curvature="0" />
      </g>
      <g
         id="XMLID_1077_">
        <path
           d="M 180,170 180,0 c 0,0 110,40 110,130 l 0,40 -110,0 z"
           style="fill:#bf720d"
           id="XMLID_1078_"
           inkscape:connector-curvature="0" />
      </g>
      <g
         id="XMLID_1079_">
        <ellipse
           ry="105"
           rx="100"
           cy="155"
           cx="180"
           style="fill:#ffeacf"
           id="XMLID_1080_" />
      </g>
      <g
         id="XMLID_1081_">
        <path
           d="m 180,225.858 c -17.42,0 -33.58,-9.436 -42.176,-24.627 -0.68,-1.202 -0.257,-2.727 0.944,-3.407 1.2,-0.68 2.727,-0.257 3.407,0.945 7.71,13.625 22.203,22.089 37.824,22.089 15.622,0 30.115,-8.464 37.824,-22.089 0.68,-1.202 2.204,-1.624 3.407,-0.945 1.201,0.68 1.624,2.205 0.944,3.407 -8.593,15.191 -24.753,24.627 -42.174,24.627 z"
           style="fill:#e8667d"
           id="XMLID_1082_"
           inkscape:connector-curvature="0" />
      </g>
      <g
         id="XMLID_1083_">
        <g
           id="XMLID_1084_">
          <ellipse
             ry="10"
             rx="15"
             cy="180"
             cx="145"
             style="fill:#ffb9a7"
             id="XMLID_1085_" />
        </g>
        <g
           id="XMLID_1086_">
          <circle
             r="7.5"
             cy="157.5"
             cx="145"
             style="fill:#50412e"
             id="XMLID_1087_" />
        </g>
      </g>
      <g
         id="XMLID_1088_">
        <g
           id="XMLID_1089_">
          <ellipse
             ry="10"
             rx="15"
             cy="180"
             cx="215"
             style="fill:#ffb9a7"
             id="XMLID_1090_" />
        </g>
        <g
           id="XMLID_1091_">
          <circle
             r="7.5"
             cy="157.5"
             cx="215"
             style="fill:#50412e"
             id="XMLID_1092_" />
        </g>
      </g>
      <g
         id="XMLID_1093_">
        <path
           d="m 180,248 c -22.528,0 -44.084,-4.358 -63.959,-12.294 C 133.376,250.872 155.67,260 180,260 c 24.33,0 46.624,-9.128 63.959,-24.294 C 224.084,243.642 202.528,248 180,248 Z"
           style="fill:#ffd6a0"
           id="XMLID_1094_"
           inkscape:connector-curvature="0" />
      </g>
      <g
         id="XMLID_1095_">
        <circle
           r="20"
           cy="170"
           cx="80"
           style="fill:#ffeacf"
           id="XMLID_1096_" />
      </g>
      <g
         id="XMLID_1097_">
        <circle
           r="20"
           cy="170"
           cx="280"
           style="fill:#ffeacf"
           id="XMLID_1098_" />
      </g>
      <path
         d="m 250,60 -70,-20 -10,30 10,20 80,0 0,60 c 0,11.046 8.954,20 20,20 l 0,-20 0,-20 0,-30 -30,-40 z"
         style="fill:#bf720d"
         id="XMLID_1099_"
         inkscape:connector-curvature="0" />
      <g
         id="XMLID_1100_">
        <rect
           height="30"
           width="160"
           style="fill:#ffeacf"
           y="90"
           x="100"
           id="XMLID_1101_" />
      </g>
      <path
         d="m 110,60 -30,40 0,30 0,20 0,20 c 11.046,0 20,-8.954 20,-20 l 0,-60 80,0 0,-60 -70,30 z"
         style="fill:#804c09"
         id="XMLID_1102_"
         inkscape:connector-curvature="0" />
    </g>
  </g>
</svg>
