<svg xmlns="http://www.w3.org/2000/svg" width="176.566" height="320.547" viewBox="0 0 165.53109 300.51322"><g fill="#fff"><path d="M161.761 66.283l-49.333-42.157c-4.532-3.865-11.32-3.336-15.185 1.187a10.767 10.767 0 0 0-2.582 6.99c0 3.041 1.286 6.061 3.778 8.186l27.392 23.338-77.101.01c-7.14.092-12.97 4.131-15.173 10.277L.64 165.923c-2.035 5.695.937 11.957 6.623 13.998 5.695 2.04 11.958-.938 14.013-6.612l13.449-37.594.195-1.142-.102 152.212c0 7.583 6.14 13.728 13.721 13.728 7.58 0 13.716-6.145 13.716-13.728V181.09h15.002v105.299c0 7.576 6.14 13.712 13.73 13.712 7.568 0 13.71-6.14 13.71-13.712l.169-201.153h49.901c4.505 0 8.535-2.813 10.094-7.038a10.767 10.767 0 0 0-3.1-11.915zM77.625 32.06v1.514c0 1.962-.758 3.67-2.266 5.103-1.515 1.436-3.357 2.155-5.524 2.155-2.166 0-4.036-.719-5.607-2.155-1.57-1.434-2.33-3.162-2.27-5.184l.088-3.67c.054-3.615 1.68-5.977 4.88-7.095.568-.21 2.167-.559 4.793-1.036a3.63 3.63 0 0 1 .857-.238c1.367-.637 2.224-1.62 2.566-2.951.4-1.755-.14-3.107-1.628-4.066-1.488-.962-3.198-1.331-5.136-1.118-1.599.16-3.225.853-4.88 2.074a230.88 230.88 0 0 0-4.112 3.107c-1.656 1.01-3.369 1.331-5.136.956-3.314-.689-4.964-2.684-4.964-5.98 0-4.572 3.164-8.32 9.502-11.243C61.983.743 65.523 0 69.403 0c1.427 0 2.854.108 4.279.319 9.76 1.436 15.525 5.742 17.292 12.919.345 1.328.51 2.63.51 3.904 0 3.404-1.078 6.398-3.248 8.97-2.17 2.582-5.199 4.427-9.079 5.545-.33.114-.847.246-1.532.402z"/><path d="M61.021 52.08c0-2.287.845-4.24 2.527-5.866 1.68-1.62 3.754-2.404 6.21-2.35 2.448.057 4.516.877 6.205 2.473 1.683 1.599 2.524 3.507 2.524 5.746 0 2.284-.86 4.198-2.57 5.74-1.71 1.539-3.762 2.314-6.16 2.314s-4.454-.8-6.163-2.392c-1.716-1.599-2.573-3.486-2.573-5.665z"/></g></svg>