<svg xmlns="http://www.w3.org/2000/svg" viewBox="0 0 169.286 253.929" height="270.857" width="180.571"><path d="M99.455 183.393H69.83c-26.879 0-48.67 21.79-48.67 48.67v21.866h126.965v-21.867c0-26.879-21.79-48.67-48.67-48.67z" fill="#50412e"/><path d="M84.643 225.714L56.429 253.93h56.428z" fill="#ff9811"/><path d="M84.643 183.393H69.83c-26.879 0-48.67 21.79-48.67 48.67v21.866h63.483v-70.536z"/><path d="M105.804 183.393c0 11.686-9.475 21.16-21.161 21.16-11.687 0-21.16-9.474-21.16-21.16v-21.16c0-11.687 9.473-21.162 21.16-21.162 11.686 0 21.16 9.475 21.16 21.161v21.16z" fill="#ffeacf"/><path d="M84.643 253.929H56.429l28.214-28.215z" fill="#ff5023"/><path d="M84.643 119.91V0S7.053 28.214 7.053 91.696v28.215h77.59z" fill="#804c09"/><path d="M84.643 119.91V0s77.59 28.214 77.59 91.696v28.215h-77.59z" fill="#bf720d"/><path d="M155.179 109.33a70.536 74.062 0 0 1-70.536 74.063 70.536 74.062 0 0 1-70.536-74.063 70.536 74.062 0 0 1 70.536-74.062 70.536 74.062 0 0 1 70.536 74.062z" fill="#ffeacf"/><path d="M84.643 159.31c-12.287 0-23.686-6.655-29.75-17.37a1.764 1.764 0 1 1 3.07-1.737c5.438 9.61 15.66 15.58 26.68 15.58 11.018 0 21.241-5.97 26.679-15.58a1.764 1.764 0 0 1 3.069 1.737c-6.062 10.715-17.46 17.37-29.748 17.37z" fill="#e8667d"/><path d="M70.536 126.964a10.58 7.054 0 0 1-10.58 7.054 10.58 7.054 0 0 1-10.581-7.054 10.58 7.054 0 0 1 10.58-7.053 10.58 7.054 0 0 1 10.58 7.053z" fill="#ffb9a7"/><path d="M65.246 111.094a5.29 5.29 0 0 1-5.29 5.29 5.29 5.29 0 0 1-5.29-5.29 5.29 5.29 0 0 1 5.29-5.29 5.29 5.29 0 0 1 5.29 5.29z" fill="#50412e"/><path d="M119.91 126.964a10.58 7.054 0 0 1-10.58 7.054 10.58 7.054 0 0 1-10.58-7.054 10.58 7.054 0 0 1 10.58-7.053 10.58 7.054 0 0 1 10.58 7.053z" fill="#ffb9a7"/><path d="M114.62 111.094a5.29 5.29 0 0 1-5.29 5.29 5.29 5.29 0 0 1-5.29-5.29 5.29 5.29 0 0 1 5.29-5.29 5.29 5.29 0 0 1 5.29 5.29z" fill="#50412e"/><path d="M84.643 174.929c-15.89 0-31.095-3.074-45.114-8.672 12.227 10.697 27.953 17.136 45.114 17.136 17.161 0 32.886-6.439 45.114-17.136a121.326 121.326 0 0 1-45.114 8.672z" fill="#ffd6a0"/><path d="M28.214 119.91a14.107 14.107 0 0 1-14.107 14.108A14.107 14.107 0 0 1 0 119.91a14.107 14.107 0 0 1 14.107-14.107 14.107 14.107 0 0 1 14.107 14.107zM169.286 119.91a14.107 14.107 0 0 1-14.107 14.108 14.107 14.107 0 0 1-14.108-14.107 14.107 14.107 0 0 1 14.108-14.107 14.107 14.107 0 0 1 14.107 14.107z" fill="#ffeacf"/><path d="M134.018 42.321L84.643 28.214l-7.054 21.161 7.054 14.107h56.428v42.322c0 7.79 6.316 14.107 14.108 14.107V70.536L134.018 42.32z" fill="#bf720d"/><g><path d="M28.214 63.482h112.857v21.16H28.214z" fill="#ffeacf"/></g><path d="M35.268 42.321l-21.16 28.215v49.375c7.79 0 14.106-6.316 14.106-14.107V63.482h56.429V21.161L35.268 42.32z" fill="#804c09"/></svg>