<?xml version="1.0" encoding="UTF-8" standalone="no"?>
<!-- Created with Inkscape (http://www.inkscape.org/) -->

<svg
   xmlns:dc="http://purl.org/dc/elements/1.1/"
   xmlns:cc="http://creativecommons.org/ns#"
   xmlns:rdf="http://www.w3.org/1999/02/22-rdf-syntax-ns#"
   xmlns:svg="http://www.w3.org/2000/svg"
   xmlns="http://www.w3.org/2000/svg"
   xmlns:sodipodi="http://sodipodi.sourceforge.net/DTD/sodipodi-0.dtd"
   xmlns:inkscape="http://www.inkscape.org/namespaces/inkscape"
   width="60.877899mm"
   height="41.598816mm"
   viewBox="0 0 215.70909 147.39738"
   id="svg12094"
   version="1.1"
   inkscape:version="0.91 r13725"
   sodipodi:docname="client_love_05.svg">
  <defs
     id="defs12096" />
  <sodipodi:namedview
     id="base"
     pagecolor="#ffffff"
     bordercolor="#666666"
     borderopacity="1.0"
     inkscape:pageopacity="0.0"
     inkscape:pageshadow="2"
     inkscape:zoom="0.98994949"
     inkscape:cx="35.817703"
     inkscape:cy="205.10008"
     inkscape:document-units="px"
     inkscape:current-layer="layer1"
     showgrid="false"
     inkscape:window-width="1855"
     inkscape:window-height="1056"
     inkscape:window-x="1431"
     inkscape:window-y="24"
     inkscape:window-maximized="1"
     fit-margin-top="0"
     fit-margin-left="0"
     fit-margin-right="0"
     fit-margin-bottom="0" />
  <metadata
     id="metadata12099">
    <rdf:RDF>
      <cc:Work
         rdf:about="">
        <dc:format>image/svg+xml</dc:format>
        <dc:type
           rdf:resource="http://purl.org/dc/dcmitype/StillImage" />
        <dc:title></dc:title>
      </cc:Work>
    </rdf:RDF>
  </metadata>
  <g
     inkscape:label="Layer 1"
     inkscape:groupmode="layer"
     id="layer1"
     transform="translate(-258.43208,-659.68431)">
    <g
       id="g12054"
       transform="matrix(0.22011231,0,0,0.22011231,256.23041,623.32533)"
       style="fill:#404040">
      <g
         id="g12056"
         transform="matrix(0.1,0,0,-0.1,0,511)"
         style="fill:#404040">
        <path
           id="path12058"
           d="m 2747.7,3412.7 c -67.7,-24.9 -156.7,-89.1 -195.9,-142.5 -67.7,-92.6 -74.8,-156.8 -85.5,-776.6 l -14.3,-673.3 -684,0 c -641.2,0 -694.7,-3.6 -783.7,-74.8 l -92.6,-71.3 0,-744.4 0,-741 -320.6,-14.3 c -513,-24.9 -470.2,121.1 -470.2,-1652.9 0,-822.9 3.6,-1521.1 3.6,-1553.2 3.6,-35.6 39.2,-92.6 81.9,-135.4 74.8,-71.3 114,-71.3 2169.5,-71.3 2059,0 2091.1,0 2183.7,74.8 92.6,71.3 92.6,74.8 92.6,570 l 0,495.2 395.4,0 399,0 -24.9,-138.9 c -39.2,-252.9 -82,-317 -267.2,-409.7 -210.2,-106.9 -288.6,-206.6 -288.6,-366.9 0,-220.9 17.8,-224.4 1378.6,-224.4 1175.6,0 1225.4,3.6 1293.1,71.3 160.3,160.3 53.4,381.2 -245.8,509.4 -203,89.1 -217.3,99.7 -267.2,277.9 -32,103.3 -57,210.2 -57,235.1 0,35.6 252.9,46.3 1318.1,46.3 1464.1,0 1474.8,0 1581.7,228 53.4,114 57,356.2 49.8,2582.7 -10.7,2429.5 -10.7,2458 -85.5,2557.8 -39.2,53.4 -128.3,117.5 -195.9,142.5 -174.5,60.5 -6693.6,60.5 -6868.1,-0.1 z m 6864.6,-224.4 78.4,-53.4 0,-1959.3 0,-1955.7 -2518.6,7.1 -2522.1,10.7 -10.7,1218.3 -7.1,1218.3 -92.6,71.3 c -89.1,71.2 -138.9,74.8 -979.6,74.8 l -887,0 0,641.2 c 0,594.9 3.6,644.8 71.2,712.5 71.3,71.3 117.6,71.3 3430.5,71.3 2981.6,-0.1 3366.3,-7.2 3437.6,-57.1 z m -5176.1,-3897.2 0,-2297.7 -1164.9,-10.7 -1168.4,-7.1 0,1492.6 0,1496.2 -85.5,99.8 c -85.5,96.2 -96.2,99.7 -516.5,110.4 l -431,14.3 0,683.9 c 0,377.6 10.7,698.2 24.9,708.9 10.7,14.3 769.4,21.4 1681.4,17.8 l 1660,-10.7 0,-2297.7 z m -2554.2,-830 7.1,-1485.5 -790.8,7.1 -794.4,10.7 -10.7,1442.7 c -3.6,794.4 0,1464.1 10.7,1489 10.7,35.6 188.8,42.8 790.8,35.6 L 1871.3,-50 1882,-1538.9 Z m 7808.6,174.5 c 0,-324.2 -10.7,-420.4 -57,-463.1 -49.9,-49.8 -327.7,-57 -2529.2,-57 l -2472.3,0 0,463.1 0,463.1 2529.2,0 2529.2,0 0,-406.1 z m -2917.5,-936.8 c 67.7,-317.1 117.5,-388.3 359.8,-516.5 121.1,-64.1 228,-138.9 235.1,-160.3 10.7,-35.6 -235.1,-46.3 -1147,-46.3 -1001,0 -1161.3,7.1 -1161.3,53.4 0,28.5 67.7,85.5 153.2,128.2 245.8,124.7 299.2,195.9 366.9,480.9 l 64.1,263.6 541.5,0 545,0 42.7,-203 z"
           inkscape:connector-curvature="0"
           style="fill:#404040" />
        <path
           id="path12060"
           d="m 6007.2,2871.2 c -106.9,-106.9 -32.1,-163.9 206.6,-153.2 188.8,10.7 217.3,21.4 228,85.5 7.1,53.4 -14.2,81.9 -71.3,99.7 -146,35.7 -306.3,21.5 -363.3,-32 z"
           inkscape:connector-curvature="0"
           style="fill:#404040" />
        <path
           id="path12062"
           d="m 2637.3,1449.9 c -96.2,-117.5 64.1,-256.5 171,-149.6 46.3,46.3 49.9,71.3 21.4,121.1 -53.5,81.9 -135.5,92.6 -192.4,28.5 z"
           inkscape:connector-curvature="0"
           style="fill:#404040" />
        <path
           id="path12064"
           d="m 2509,-2436.6 c -39.2,-96.2 35.6,-128.3 274.3,-117.5 199.5,10.7 228,17.8 228,81.9 0,64.1 -28.5,71.3 -242.2,81.9 -192.4,7.1 -242.3,0 -260.1,-46.3 z"
           inkscape:connector-curvature="0"
           style="fill:#404040" />
        <path
           id="path12066"
           d="m 834.7,-2543.5 c -35.6,-92.6 24.9,-124.7 252.9,-124.7 171,0 228,14.2 245.8,57 35.6,96.2 -10.7,121.1 -249.4,121.1 -167.3,0.1 -235,-14.2 -249.3,-53.4 z"
           inkscape:connector-curvature="0"
           style="fill:#404040" />
      </g>
    </g>
  </g>
</svg>
