<?xml version="1.0" encoding="UTF-8" standalone="no"?>
<!-- Created with Inkscape (http://www.inkscape.org/) -->

<svg
   xmlns:dc="http://purl.org/dc/elements/1.1/"
   xmlns:cc="http://creativecommons.org/ns#"
   xmlns:rdf="http://www.w3.org/1999/02/22-rdf-syntax-ns#"
   xmlns:svg="http://www.w3.org/2000/svg"
   xmlns="http://www.w3.org/2000/svg"
   xmlns:sodipodi="http://sodipodi.sourceforge.net/DTD/sodipodi-0.dtd"
   xmlns:inkscape="http://www.inkscape.org/namespaces/inkscape"
   width="137.69112mm"
   height="149.06642mm"
   viewBox="0 0 487.88191 528.18811"
   id="svg9444"
   version="1.1"
   inkscape:version="0.91 r13725"
   sodipodi:docname="client_love_03.svg">
  <defs
     id="defs9446" />
  <sodipodi:namedview
     id="base"
     pagecolor="#ffffff"
     bordercolor="#666666"
     borderopacity="1.0"
     inkscape:pageopacity="0.0"
     inkscape:pageshadow="2"
     inkscape:zoom="0.35"
     inkscape:cx="243.94095"
     inkscape:cy="264.09406"
     inkscape:document-units="px"
     inkscape:current-layer="layer1"
     showgrid="false"
     inkscape:window-width="1366"
     inkscape:window-height="744"
     inkscape:window-x="0"
     inkscape:window-y="24"
     inkscape:window-maximized="1"
     fit-margin-top="0"
     fit-margin-left="0"
     fit-margin-right="0"
     fit-margin-bottom="0" />
  <metadata
     id="metadata9449">
    <rdf:RDF>
      <cc:Work
         rdf:about="">
        <dc:format>image/svg+xml</dc:format>
        <dc:type
           rdf:resource="http://purl.org/dc/dcmitype/StillImage" />
        <dc:title></dc:title>
      </cc:Work>
    </rdf:RDF>
  </metadata>
  <g
     inkscape:label="Layer 1"
     inkscape:groupmode="layer"
     id="layer1"
     transform="translate(356.08381,-268.26815)">
    <path
       style="display:inline;opacity:1;fill:#404040"
       d="m -256.93776,795.55725 c -25.2647,-4.2353 -45.654,-14.1893 -63.1574,-30.8332 -18.5937,-17.6806 -29.6837,-38.4609 -34.347,-64.3589 -4.3351,-24.0751 0.056,-52.0142 11.5113,-73.2347 5.0633,-9.3799 7.7822,-13.3596 14.7441,-21.5809 8.8305,-10.4278 315.394302,-316.3375 321.2992024,-320.6136 13.9367,-10.0925 34.1940996,-16.6678 51.3501996,-16.6678 32.9187,0 64.667598,19.953 78.587598,49.3891 4.4288,9.3655 5.8855,13.9257 7.5191,23.5388 3.9531,23.2632 -1.7223,47.3211 -15.7241,66.653 -3.6742,5.0729 -279.7148,281.9034 -286.9349,287.756 -4.7579,3.8566 -13.9367,8.4116 -21.1065,10.474 -8.1233,2.3367 -22.7825,2.1928 -31.5113,-0.3091 -16.9124,-4.8478 -29.2306,-15.3781 -36.6738,-31.3513 -8.1181,-17.422 -6.356,-40.2568 4.3374,-56.2052 3.0278,-4.5157 206.246902,-207.8695 209.482302,-209.6212 1.5778,-0.8542 4.6255,-1.3849 8.0829,-1.4074 4.7197,-0.03 6.1722,0.3434 9.709,2.5008 5.7336,3.4974 9.118,9.9158 8.5173,16.1529 -0.2297,2.3855 -1.0569,5.6148 -1.8381,7.1762 -0.7813,1.5613 -47.1111,48.6187 -102.955402,104.572 -97.0919,97.2814 -101.5854,101.9179 -102.687,105.9544 -3.0199,11.0662 0.984,20.9149 10.5735,26.0079 4.4896,2.3844 14.6181,2.5157 19.0534,0.2469 1.6252,-0.8313 66.431,-65.016 144.013002,-142.6326 152.5266,-152.5947 143.691,-143.242 148.2092,-156.8837 2.5306,-7.6409 2.4837,-20.8423 -0.1032,-28.9831 -5.4059,-17.012 -16.5356,-28.1132 -33.6317,-33.5455 -8.1668,-2.595 -21.9826,-2.553 -30.1153,0.092 -14.0587,4.5717 -3.9018,-5.0397 -169.967502,160.8384 -84.1952,84.1002 -156.0907,156.4816 -159.7676,160.8476 -7.9053,9.3866 -13.9976,21.109 -16.9355,32.5862 -2.6991,10.5446 -2.7248,26.3795 -0.06,36.8575 7.2006,28.3108 26.0752,48.4322 54.1947,57.7748 6.7841,2.254 8.0065,2.3862 22.3729,2.4209 14.4294,0.035 15.5795,-0.085 22.7806,-2.3722 8.5964,-2.7305 15.4422,-6.0014 22.8094,-10.8983 3.2855,-2.1839 54.9056,-53.1412 146.901002,-145.0146 78.0095,-77.9062 143.0636,-142.2609 144.5648,-143.0105 9.473398,-4.7306 21.106498,-0.5666 25.088398,8.9805 1.7409,4.1738 1.6277,10.4317 -0.2639,14.5906 -1.0921,2.4011 -41.808698,43.6538 -140.903798,142.7589 -76.6523,76.66 -141.773202,141.4798 -144.713302,144.044 -14.9983,13.0809 -32.3753,21.6557 -52.7092,26.01 -10.6454,2.2795 -29.9695,2.9144 -39.5949,1.3008 z"
       id="path9433"
       inkscape:connector-curvature="0" />
  </g>
</svg>
