<?xml version="1.0" encoding="UTF-8" standalone="no"?>
<!-- Created with Inkscape (http://www.inkscape.org/) -->

<svg
   xmlns:dc="http://purl.org/dc/elements/1.1/"
   xmlns:cc="http://creativecommons.org/ns#"
   xmlns:rdf="http://www.w3.org/1999/02/22-rdf-syntax-ns#"
   xmlns:svg="http://www.w3.org/2000/svg"
   xmlns="http://www.w3.org/2000/svg"
   xmlns:sodipodi="http://sodipodi.sourceforge.net/DTD/sodipodi-0.dtd"
   xmlns:inkscape="http://www.inkscape.org/namespaces/inkscape"
   width="46.716553mm"
   height="84.811508mm"
   viewBox="0 0 165.53109 300.51322"
   id="svg11427"
   version="1.1"
   inkscape:version="0.91 r13725"
   sodipodi:docname="client_love_04.svg">
  <defs
     id="defs11429" />
  <sodipodi:namedview
     id="base"
     pagecolor="#ffffff"
     bordercolor="#666666"
     borderopacity="1.0"
     inkscape:pageopacity="0.0"
     inkscape:pageshadow="2"
     inkscape:zoom="0.35"
     inkscape:cx="-809.37731"
     inkscape:cy="307.39947"
     inkscape:document-units="px"
     inkscape:current-layer="layer1"
     showgrid="false"
     inkscape:window-width="1855"
     inkscape:window-height="1056"
     inkscape:window-x="1431"
     inkscape:window-y="24"
     inkscape:window-maximized="1"
     fit-margin-top="0"
     fit-margin-left="0"
     fit-margin-right="0"
     fit-margin-bottom="0" />
  <metadata
     id="metadata11432">
    <rdf:RDF>
      <cc:Work
         rdf:about="">
        <dc:format>image/svg+xml</dc:format>
        <dc:type
           rdf:resource="http://purl.org/dc/dcmitype/StillImage" />
        <dc:title></dc:title>
      </cc:Work>
    </rdf:RDF>
  </metadata>
  <g
     inkscape:label="Layer 1"
     inkscape:groupmode="layer"
     id="layer1"
     transform="translate(-697.23445,-539.24846)">
    <g
       transform="translate(194.0975,132.96626)"
       style="display:inline;opacity:1"
       id="g11410">
      <path
         style="fill:#ffffff"
         inkscape:connector-curvature="0"
         d="m 664.89803,472.56476 -49.33321,-42.15682 c -4.53183,-3.86468 -11.32055,-3.33577 -15.18522,1.18705 -1.72499,2.0285 -2.58146,4.5138 -2.58146,6.99008 0,3.04124 1.28622,6.06146 3.77751,8.18613 l 27.39232,23.33832 -77.10117,0.009 c -7.14034,0.0931 -12.97041,4.13213 -15.17321,10.27774 l -32.91586,91.80866 c -2.03451,5.69483 0.93762,11.95766 6.62344,13.99817 5.69484,2.04053 11.95765,-0.93761 14.0132,-6.61141 l 13.44823,-37.59494 0.19535,-1.14197 -0.10221,152.21292 c 0,7.58209 6.13962,13.72772 13.72171,13.72772 7.57909,0 13.7157,-6.14563 13.7157,-13.72772 l 0,-105.69557 15.00191,0 0,105.29889 c 0,7.57608 6.1396,13.71268 13.73072,13.71268 7.56707,0 13.70967,-6.1396 13.70967,-13.71268 l 0.1683,-201.15246 49.9012,0 c 4.50477,0 8.53473,-2.81286 10.09444,-7.03817 1.5657,-4.2343 0.32155,-8.98551 -3.10137,-11.91557 z"
         id="path11387" />
      <path
         style="fill:#ffffff"
         inkscape:connector-curvature="0"
         d="m 580.76171,438.34163 0,1.51462 c 0,1.9624 -0.75731,3.66935 -2.26591,5.10283 -1.51462,1.43648 -3.35681,2.15471 -5.52354,2.15471 -2.16676,0 -4.03598,-0.71823 -5.60769,-2.15471 -1.56872,-1.43348 -2.32903,-3.16147 -2.26893,-5.18396 l 0.0871,-3.66935 c 0.0542,-3.61524 1.6799,-5.97731 4.88043,-7.09525 0.56799,-0.21036 2.16676,-0.55896 4.79328,-1.03679 0.11712,-0.051 0.27347,-0.10519 0.46882,-0.15927 0.20134,-0.051 0.32757,-0.0782 0.38766,-0.0782 1.36736,-0.6371 2.22384,-1.61981 2.56643,-2.9511 0.3997,-1.75504 -0.14129,-3.10737 -1.62881,-4.06602 -1.48757,-0.96167 -3.19751,-1.33131 -5.13587,-1.11794 -1.59875,0.15928 -3.22457,0.85348 -4.88043,2.07358 -1.37036,1.00975 -2.74073,2.04954 -4.1111,3.10736 -1.65586,1.00976 -3.36882,1.33131 -5.13587,0.95566 -3.31473,-0.68818 -4.96458,-2.68363 -4.96458,-5.98033 0,-4.5709 3.16447,-8.31836 9.50242,-11.24241 3.19451,-1.49058 6.73464,-2.23286 10.61434,-2.23286 1.42746,0 2.85492,0.10816 4.27939,0.31855 9.76086,1.43648 15.52482,5.74291 17.29186,12.91931 0.34561,1.3283 0.51089,2.62954 0.51089,3.90374 0,3.40489 -1.07886,6.39806 -3.24861,8.9705 -2.16976,2.58146 -5.19899,4.42664 -9.07869,5.54458 -0.33057,0.11413 -0.84745,0.24642 -1.53264,0.40269 z"
         id="path11389" />
      <path
         style="fill:#ffffff"
         inkscape:connector-curvature="0"
         d="m 564.15803,458.36223 c 0,-2.28695 0.84445,-4.24033 2.52737,-5.86613 1.6799,-1.61981 3.75347,-2.40416 6.20872,-2.35006 2.44923,0.0571 4.5168,0.87752 6.20571,2.47327 1.68291,1.59876 2.52437,3.50706 2.52437,5.74592 0,2.28395 -0.85949,4.19826 -2.56944,5.73992 -1.70995,1.53865 -3.76251,2.31398 -6.16064,2.31398 -2.39815,0 -4.4537,-0.79936 -6.16365,-2.39211 -1.71596,-1.59877 -2.57244,-3.48603 -2.57244,-5.66479 z"
         id="path11391" />
    </g>
  </g>
</svg>
