<svg xmlns="http://www.w3.org/2000/svg" viewBox="0 0 488.354 96.424" height="102.852" width="520.911"><g color="#000" fill="#404040" fill-rule="evenodd"><path d="M73.626 46.681a18.372 18.372 0 0 1-18.372 18.372A18.372 18.372 0 0 1 36.883 46.68 18.372 18.372 0 0 1 55.254 28.31a18.372 18.372 0 0 1 18.372 18.372zM129.004 46.681a18.372 18.372 0 0 1-18.372 18.372A18.372 18.372 0 0 1 92.26 46.68a18.372 18.372 0 0 1 18.372-18.372 18.372 18.372 0 0 1 18.372 18.372zM184.382 46.681a18.372 18.372 0 0 1-18.372 18.372 18.372 18.372 0 0 1-18.372-18.372A18.372 18.372 0 0 1 166.01 28.31a18.372 18.372 0 0 1 18.372 18.372zM239.76 46.681a18.372 18.372 0 0 1-18.373 18.372 18.372 18.372 0 0 1-18.371-18.372 18.372 18.372 0 0 1 18.371-18.372 18.372 18.372 0 0 1 18.372 18.372zM295.137 46.681a18.372 18.372 0 0 1-18.372 18.372 18.372 18.372 0 0 1-18.372-18.372 18.372 18.372 0 0 1 18.372-18.372 18.372 18.372 0 0 1 18.372 18.372zM350.514 46.681a18.372 18.372 0 0 1-18.371 18.372A18.372 18.372 0 0 1 313.77 46.68a18.372 18.372 0 0 1 18.372-18.372 18.372 18.372 0 0 1 18.371 18.372zM405.892 46.681a18.372 18.372 0 0 1-18.372 18.372A18.372 18.372 0 0 1 369.15 46.68 18.372 18.372 0 0 1 387.52 28.31a18.372 18.372 0 0 1 18.372 18.372zM461.27 46.681a18.372 18.372 0 0 1-18.372 18.372 18.372 18.372 0 0 1-18.372-18.372 18.372 18.372 0 0 1 18.372-18.372 18.372 18.372 0 0 1 18.372 18.372z" style="isolation:auto;mix-blend-mode:normal;solid-color:#000;solid-opacity:1" overflow="visible"/></g></svg>