<svg xmlns="http://www.w3.org/2000/svg" width="180.571" height="270.857" viewBox="0 0 169.28572 253.92856"><path d="M99.455 183.393H69.83c-26.879 0-48.67 21.79-48.67 48.67v21.866h126.965v-21.867c0-26.879-21.79-48.67-48.67-48.67z" fill="#50412e"/><path fill="#ff9811" d="M56.429 253.929h56.428l-28.214-28.215z"/><path d="M84.643 183.393H69.83c-26.879 0-48.67 21.79-48.67 48.67v21.866h63.483v-70.536z"/><path d="M105.804 183.393c0 11.686-9.475 21.16-21.161 21.16-11.687 0-21.16-9.474-21.16-21.16v-21.16c0-11.687 9.473-21.162 21.16-21.162 11.686 0 21.16 9.475 21.16 21.161v21.16z" fill="#ffeacf"/><path fill="#ff5023" d="M84.643 225.714v28.215H56.429z"/><path d="M84.643 119.91V0S7.053 28.214 7.053 91.696v28.215h77.59z" fill="#804c09"/><path d="M84.643 119.91V0s77.59 28.214 77.59 91.696v28.215h-77.59z" fill="#bf720d"/><ellipse ry="105" rx="100" cy="155" cx="180" fill="#ffeacf" transform="matrix(.70536 0 0 .70536 -42.321 0)"/><path d="M84.643 159.31c-12.287 0-23.686-6.655-29.75-17.37a1.764 1.764 0 1 1 3.07-1.737c5.438 9.61 15.66 15.58 26.68 15.58 11.018 0 21.241-5.97 26.679-15.58a1.764 1.764 0 0 1 3.069 1.737c-6.062 10.715-17.46 17.37-29.748 17.37z" fill="#e8667d"/><ellipse ry="10" rx="15" cy="180" cx="145" fill="#ffb9a7" transform="matrix(.70536 0 0 .70536 -42.321 0)"/><circle r="7.5" cy="157.5" cx="145" fill="#50412e" transform="matrix(.70536 0 0 .70536 -42.321 0)"/><ellipse ry="10" rx="15" cy="180" cx="215" fill="#ffb9a7" transform="matrix(.70536 0 0 .70536 -42.321 0)"/><circle r="7.5" cy="157.5" cx="215" fill="#50412e" transform="matrix(.70536 0 0 .70536 -42.321 0)"/><path d="M84.643 174.929c-15.89 0-31.095-3.074-45.114-8.672 12.227 10.697 27.953 17.136 45.114 17.136 17.161 0 32.886-6.439 45.114-17.136a121.326 121.326 0 0 1-45.114 8.672z" fill="#ffd6a0"/><circle r="20" cy="170" cx="80" fill="#ffeacf" transform="matrix(.70536 0 0 .70536 -42.321 0)"/><circle r="20" cy="170" cx="280" fill="#ffeacf" transform="matrix(.70536 0 0 .70536 -42.321 0)"/><path d="M134.018 42.321L84.643 28.214l-7.054 21.161 7.054 14.107h56.428v42.322c0 7.79 6.316 14.107 14.108 14.107V70.536L134.018 42.32z" fill="#bf720d"/><g><path fill="#ffeacf" d="M28.214 63.482h112.857v21.16H28.214z"/></g><path d="M35.268 42.321l-21.16 28.215v49.375c7.79 0 14.106-6.316 14.106-14.107V63.482h56.429V21.161L35.268 42.32z" fill="#804c09"/></svg>