<svg xmlns="http://www.w3.org/2000/svg" width="230.09" height="157.224" viewBox="0 0 215.70909 147.39738"><g fill="#404040"><path d="M58.279 1c-1.49.549-3.45 1.962-4.312 3.137-1.49 2.039-1.647 3.452-1.882 17.094l-.315 14.82H36.714c-14.113 0-15.291.08-17.25 1.647l-2.038 1.57v32.694l-7.057.315C-.923 72.826.019 69.612.019 108.66c0 18.113.08 33.481.08 34.188.079.783.862 2.038 1.802 2.98 1.647 1.57 2.51 1.57 47.754 1.57 45.32 0 46.027 0 48.066-1.647 2.038-1.57 2.038-1.647 2.038-12.546v-10.9h17.485l-.548 3.057c-.862 5.567-1.805 6.977-5.881 9.018-4.627 2.353-6.352 4.547-6.352 8.076 0 4.862.391 4.94 30.344 4.94 25.877 0 26.973-.08 28.463-1.57 3.528-3.529 1.175-8.39-5.41-11.213-4.469-1.96-4.783-2.194-5.882-6.117-.704-2.273-1.254-4.626-1.254-5.175 0-.783 5.566-1.019 29.013-1.019 32.226 0 32.462 0 34.815-5.018 1.175-2.51 1.254-7.84 1.096-56.849-.236-53.476-.236-54.103-1.882-56.3-.863-1.175-2.824-2.586-4.312-3.137C205.613-.333 62.12-.333 58.279 1.001zm151.098 4.94l1.726 1.175V93.29l-55.438-.156-55.514-.235-.236-26.817-.156-26.816-2.038-1.57c-1.962-1.567-3.058-1.646-21.563-1.646H56.634V21.936c0-13.095.08-14.193 1.568-15.683 1.569-1.57 2.588-1.57 75.51-1.57 65.628.002 74.095.159 75.665 1.257zM95.445 91.722v50.575l-25.641.236-25.718.156V76.902l-1.882-2.197c-1.882-2.117-2.118-2.194-11.369-2.43l-9.487-.315V56.907c0-8.311.236-15.368.548-15.604.236-.315 16.936-.47 37.01-.392l36.539.236v50.575zm-56.222 18.27l.157 32.697-17.407-.156-17.485-.236-.236-31.755c-.08-17.486 0-32.227.236-32.775.235-.784 4.155-.942 17.406-.784l17.094.236.235 32.772zM211.1 106.15c0 7.136-.235 9.253-1.254 10.193-1.099 1.096-7.213 1.255-55.671 1.255H99.757V97.212H211.098v8.939zm-64.217 20.62c1.49 6.98 2.586 8.547 7.92 11.368 2.665 1.411 5.018 3.058 5.174 3.529.236.783-5.175 1.019-25.247 1.019-22.033 0-25.561-.156-25.561-1.175 0-.628 1.49-1.882 3.372-2.822 5.41-2.745 6.585-4.312 8.076-10.585l1.41-5.803h23.916l.94 4.469z"/><path d="M130.024 12.92c-2.353 2.353-.706 3.607 4.548 3.372 4.155-.236 4.783-.471 5.018-1.882.157-1.175-.312-1.803-1.57-2.195-3.213-.785-6.741-.473-7.996.705zM55.849 44.204c-2.118 2.587 1.41 5.646 3.763 3.293 1.02-1.019 1.099-1.57.472-2.665-1.178-1.803-2.983-2.039-4.235-.628zM53.025 129.751c-.863 2.117.783 2.824 6.037 2.586 4.391-.235 5.019-.392 5.019-1.802 0-1.411-.628-1.57-5.331-1.803-4.235-.156-5.334 0-5.725 1.019zM16.171 132.104c-.783 2.038.548 2.745 5.567 2.745 3.764 0 5.018-.313 5.41-1.255.784-2.117-.235-2.665-5.49-2.665-3.682-.003-5.172.312-5.487 1.175z"/></g></svg>