<svg xmlns="http://www.w3.org/2000/svg" viewBox="0 0 530.789 480.052" height="512.055" width="566.175"><path d="M9.321 89.123h502.046v390.929H9.32z" style="isolation:auto;mix-blend-mode:normal" color="#000" overflow="visible" fill="#fff" fill-rule="evenodd"/><path d="M14.372 2.25h502.046a12.095 12.095 0 0 1 12.121 12.122v78.792a12.095 12.095 0 0 1-12.121 12.122H14.372A12.095 12.095 0 0 1 2.25 93.164V14.372A12.095 12.095 0 0 1 14.372 2.25z" style="isolation:auto;mix-blend-mode:normal" color="#000" overflow="visible" fill="#fff" fill-rule="evenodd" stroke="#404040" stroke-width="4.5"/><path style="isolation:auto;mix-blend-mode:normal" d="M488.917 39.12l-27.553 27.553-27.552-27.552z" color="#000" overflow="visible" fill="#404040" fill-rule="evenodd"/><g style="line-height:125%;-inkscape-font-specification:'roboto, Normal';text-align:start" font-weight="900" font-size="40.866" font-family="roboto" letter-spacing="0" word-spacing="0" fill="#404040"><path style="-inkscape-font-specification:'roboto Heavy'" d="M60.437 51.428q0 4.03-1.337 7.043-1.337 2.993-3.692 4.81l4.69 3.71-4.33 3.672-6.246-5.028q-.878.12-1.756.12-3.712 0-6.585-1.716-2.873-1.716-4.49-4.91-1.596-3.192-1.656-7.342V50.25q0-4.29 1.557-7.542 1.576-3.253 4.47-5.029 2.913-1.775 6.664-1.775 3.691 0 6.585 1.755 2.893 1.756 4.49 5.009 1.616 3.232 1.636 7.423v1.337zm-7.124-1.218q0-4.33-1.457-6.564-1.436-2.255-4.13-2.255-2.774 0-4.17 2.215-1.397 2.215-1.417 6.485v1.337q0 4.29 1.417 6.584 1.416 2.275 4.21 2.275 2.674 0 4.09-2.255 1.437-2.254 1.457-6.485V50.21zM76.6 63.02q-2.136 2.735-5.767 2.735-3.552 0-5.388-2.056-1.816-2.075-1.816-5.946V43.765h6.725v14.028q0 2.774 2.693 2.774 2.315 0 3.293-1.657V43.765h6.764v21.59H76.8l-.2-2.334zM98.968 65.355q-.36-.658-.639-1.935-1.856 2.335-5.188 2.335-3.053 0-5.188-1.836-2.135-1.856-2.135-4.65 0-3.511 2.594-5.307 2.594-1.796 7.543-1.796h2.075v-1.137q0-2.974-2.574-2.974-2.395 0-2.395 2.355h-6.724q0-3.133 2.654-5.088 2.673-1.956 6.804-1.956 4.13 0 6.525 2.016 2.394 2.015 2.454 5.527v9.558q.04 2.973.918 4.55v.338h-6.724zm-4.21-4.39q1.256 0 2.074-.538.839-.539 1.198-1.217v-3.452h-1.956q-3.512 0-3.512 3.152 0 .918.619 1.497.618.559 1.576.559zM114.691 43.765l.22 2.535q2.235-2.934 6.165-2.934 3.373 0 5.029 2.016 1.676 2.015 1.736 6.066v13.907h-6.745V51.727q0-1.636-.658-2.394-.659-.779-2.395-.779-1.975 0-2.933 1.557v15.244h-6.724v-21.59h6.305zM139.414 38.398v5.367h3.552v4.67h-3.552v9.877q0 1.217.44 1.696.438.479 1.735.479.998 0 1.676-.12v4.809q-1.816.579-3.791.579-3.472 0-5.128-1.637-1.656-1.636-1.656-4.968V48.435h-2.754v-4.67h2.754v-5.367h6.724zM152.723 65.355h-6.744v-21.59h6.744v21.59zm-7.143-27.157q0-1.436 1.038-2.354 1.037-.918 2.693-.918 1.656 0 2.694.918t1.038 2.354q0 1.437-1.038 2.355-1.038.918-2.694.918t-2.693-.918q-1.038-.918-1.038-2.355zM164.716 38.398v5.367h3.552v4.67h-3.552v9.877q0 1.217.439 1.696.439.479 1.736.479.997 0 1.676-.12v4.809q-1.816.579-3.791.579-3.472 0-5.129-1.637-1.656-1.636-1.656-4.968V48.435h-2.753v-4.67h2.753v-5.367h6.725zM181.377 65.755q-4.968 0-8.041-2.954-3.073-2.973-3.073-7.722v-.558q0-3.313 1.217-5.847 1.237-2.534 3.592-3.911 2.354-1.397 5.587-1.397 4.55 0 7.183 2.834 2.634 2.813 2.634 7.862v2.614h-13.369q.36 1.815 1.576 2.853 1.218 1.038 3.153 1.038 3.193 0 4.989-2.235l3.073 3.631q-1.258 1.736-3.572 2.774-2.295 1.018-4.949 1.018zm-.758-17.2q-2.953 0-3.512 3.91h6.784v-.519q.04-1.616-.818-2.494-.858-.898-2.454-.898zm-.08-13.869h7.104l-5.547 6.266h-5.488l3.931-6.266zM212.026 57.354l3.413-13.589h7.083l-7.044 21.59h-6.864l-7.043-21.59h7.103l3.352 13.589zM223.4 54.36q0-3.232 1.257-5.746 1.257-2.534 3.612-3.89 2.355-1.358 5.527-1.358 4.849 0 7.643 3.013 2.793 2.993 2.793 8.161v.24q0 5.048-2.813 8.021-2.794 2.954-7.583 2.954-4.61 0-7.403-2.754-2.793-2.774-3.013-7.503l-.02-1.137zm6.725.42q0 2.993.937 4.39.938 1.397 2.774 1.397 3.592 0 3.672-5.528v-.678q0-5.807-3.712-5.807-3.372 0-3.651 5.009l-.02 1.217zM260.095 63.02q-2.135 2.735-5.766 2.735-3.552 0-5.388-2.056-1.816-2.075-1.816-5.946V43.765h6.725v14.028q0 2.774 2.694 2.774 2.314 0 3.292-1.657V43.765h6.764v21.59h-6.305l-.2-2.334zM277.395 65.355h-6.744V34.706h6.744v30.65zM294.416 63.02q-2.135 2.735-5.766 2.735-3.552 0-5.388-2.056-1.816-2.075-1.816-5.946V43.765h6.725v14.028q0 2.774 2.693 2.774 2.315 0 3.293-1.657V43.765h6.764v21.59h-6.305l-.2-2.334zM315.068 65.755q-4.968 0-8.04-2.954-3.074-2.973-3.074-7.722v-.558q0-3.313 1.217-5.847 1.237-2.534 3.592-3.911 2.355-1.397 5.587-1.397 4.55 0 7.184 2.834 2.633 2.813 2.633 7.862v2.614h-13.369q.36 1.815 1.577 2.853 1.217 1.038 3.152 1.038 3.193 0 4.989-2.235l3.073 3.631q-1.257 1.736-3.572 2.774-2.295 1.018-4.949 1.018zm-.758-17.2q-2.953 0-3.512 3.91h6.785v-.519q.04-1.616-.818-2.494-.858-.898-2.455-.898z"/></g><g style="line-height:170.00000477%;-inkscape-font-specification:'roboto, Normal';text-align:start" font-weight="900" font-size="40.866" font-family="roboto" letter-spacing="0" word-spacing="0" fill="#404040"><path style="line-height:170.00000477%;-inkscape-font-specification:'roboto Heavy'" d="M52.042 159.383H31.77v-4.39l9.339-9.818q3.452-3.93 3.452-6.245 0-1.876-.818-2.854-.818-.977-2.375-.977-1.536 0-2.494 1.317-.958 1.297-.958 3.252h-6.744q0-2.674 1.337-4.928 1.337-2.275 3.711-3.552 2.375-1.277 5.308-1.277 4.709 0 7.243 2.175 2.554 2.175 2.554 6.245 0 1.716-.638 3.352-.639 1.617-1.996 3.413-1.337 1.775-4.33 4.769l-3.751 4.33h11.433v5.188zM55.874 145.175l1.776-14.845h16.98v5.228H63.117l-.659 5.766q.719-.419 1.876-.738 1.177-.32 2.295-.32 4.33 0 6.644 2.575 2.335 2.554 2.335 7.183 0 2.794-1.257 5.069-1.237 2.254-3.492 3.471-2.255 1.218-5.328 1.218-2.733 0-5.128-1.118-2.394-1.137-3.751-3.093-1.357-1.975-1.337-4.45h6.744q.1 1.597 1.018 2.535.918.938 2.414.938 3.393 0 3.393-5.029 0-4.649-4.15-4.649-2.355 0-3.513 1.517l-5.347-1.258zM99.353 147.51q0 5.886-2.654 9.079-2.634 3.193-7.442 3.193-4.85 0-7.503-3.213-2.654-3.212-2.654-9.059v-5.308q0-5.886 2.634-9.079 2.654-3.192 7.483-3.192 4.828 0 7.482 3.212 2.654 3.213 2.654 9.08v5.287zm-6.724-6.166q0-3.133-.818-4.669-.818-1.556-2.594-1.556-1.736 0-2.535 1.436-.778 1.437-.838 4.35v7.423q0 3.253.819 4.77.818 1.496 2.594 1.496 1.716 0 2.534-1.457.818-1.477.838-4.61v-7.183zM102.207 148.428q0-3.273 1.077-5.787 1.078-2.514 3.093-3.87 2.015-1.378 4.69-1.378 3.371 0 5.267 2.275l.24-1.876h6.105v20.772q0 2.854-1.337 4.949-1.317 2.115-3.83 3.233-2.515 1.137-5.827 1.137-2.375 0-4.61-.898-2.214-.898-3.392-2.335l2.814-3.95q1.875 2.214 4.948 2.214 4.47 0 4.47-4.589v-.678q-1.936 2.135-4.889 2.135-3.95 0-6.385-3.013-2.434-3.033-2.434-8.102v-.24zm6.744.419q0 2.654.998 4.21.997 1.537 2.793 1.537 2.175 0 3.173-1.457v-9.08q-.978-1.476-3.133-1.476-1.796 0-2.813 1.617-1.018 1.596-1.018 4.649zM156.8 148.747q0 5.029-2.274 8.042-2.255 2.993-6.106 2.993-2.973 0-4.889-2.175v10.076h-6.724v-29.89h6.285l.2 1.995q1.935-2.395 5.088-2.395 3.99 0 6.206 2.954 2.215 2.933 2.215 8.08v.32zm-6.724-.419q0-5.747-3.352-5.747-2.395 0-3.193 1.716v8.5q.878 1.797 3.233 1.797 3.212 0 3.312-5.548v-.718zM158.896 148.388q0-3.233 1.257-5.747 1.257-2.534 3.611-3.89 2.355-1.358 5.528-1.358 4.849 0 7.642 3.013 2.794 2.994 2.794 8.162v.239q0 5.048-2.814 8.021-2.793 2.954-7.582 2.954-4.61 0-7.403-2.754-2.794-2.774-3.013-7.503l-.02-1.137zm6.724.419q0 2.993.938 4.39.938 1.397 2.774 1.397 3.591 0 3.671-5.528v-.678q0-5.807-3.711-5.807-3.372 0-3.652 5.009l-.02 1.217zM195.591 157.048q-2.135 2.734-5.767 2.734-3.551 0-5.387-2.056-1.816-2.075-1.816-5.946v-13.988h6.724v14.028q0 2.774 2.694 2.774 2.315 0 3.293-1.657v-15.145h6.764v21.59h-6.305l-.2-2.334zM218.857 143.878l-2.215-.16q-3.172 0-4.07 1.996v13.669h-6.725v-21.59h6.306l.22 2.773q1.695-3.173 4.728-3.173 1.078 0 1.876.24l-.12 6.245zM251.562 147.51q0 5.886-2.654 9.079-2.634 3.193-7.443 3.193-4.849 0-7.503-3.213-2.653-3.212-2.653-9.059v-5.308q0-5.886 2.633-9.079 2.654-3.192 7.483-3.192t7.483 3.212q2.654 3.213 2.654 9.08v5.287zm-6.725-6.166q0-3.133-.818-4.669-.818-1.556-2.594-1.556-1.736 0-2.534 1.436-.778 1.437-.838 4.35v7.423q0 3.253.818 4.77.818 1.496 2.594 1.496 1.716 0 2.534-1.457.818-1.477.838-4.61v-7.183zM259.364 152.858q1.596 0 2.654.957 1.057.938 1.057 2.415 0 1.476-1.057 2.434-1.058.938-2.654.938-1.617 0-2.674-.958-1.038-.957-1.038-2.414 0-1.457 1.038-2.415 1.057-.957 2.674-.957zM267.864 145.175l1.776-14.845h16.98v5.228h-11.513l-.658 5.766q.718-.419 1.876-.738 1.177-.32 2.294-.32 4.33 0 6.645 2.575 2.335 2.554 2.335 7.183 0 2.794-1.258 5.069-1.237 2.254-3.492 3.471-2.254 1.218-5.327 1.218-2.734 0-5.128-1.118-2.395-1.137-3.752-3.093-1.357-1.975-1.337-4.45h6.745q.1 1.597 1.017 2.535.918.938 2.415.938 3.392 0 3.392-5.029 0-4.649-4.15-4.649-2.355 0-3.512 1.517l-5.348-1.258zM307.632 149.246h-6.225q.1 2.634 1.416 3.891 1.337 1.257 4.39 1.257 1.976 0 3.512-.598l.858 5.367q-2.654.599-5.248.599-5.387 0-8.6-2.794-3.193-2.793-3.352-7.722h-3.293v-3.193h3.293v-2.434h-3.293v-3.173h3.353q.379-4.948 3.711-7.722 3.332-2.773 8.8-2.773 2.115 0 4.63.618l-.859 5.388q-1.556-.619-3.332-.619-2.754 0-4.21 1.257-1.457 1.237-1.717 3.851h6.166v3.173h-6.225v2.434h6.225v3.193zM32.168 214.647l1.776-14.846h16.981v5.228H39.412l-.659 5.767q.719-.42 1.876-.738 1.177-.32 2.295-.32 4.33 0 6.644 2.574 2.335 2.554 2.335 7.184 0 2.793-1.257 5.068-1.237 2.255-3.492 3.472t-5.328 1.217q-2.734 0-5.128-1.117-2.395-1.138-3.751-3.093-1.357-1.975-1.337-4.45h6.744q.1 1.597 1.018 2.534.918.938 2.414.938 3.392 0 3.392-5.028 0-4.65-4.15-4.65-2.355 0-3.512 1.517l-5.348-1.257zM75.648 216.982q0 5.886-2.654 9.079-2.634 3.192-7.443 3.192-4.849 0-7.502-3.212-2.654-3.213-2.654-9.06v-5.307q0-5.887 2.634-9.08 2.654-3.192 7.482-3.192 4.83 0 7.483 3.213 2.654 3.212 2.654 9.079v5.288zm-6.724-6.166q0-3.133-.819-4.67-.818-1.556-2.594-1.556-1.736 0-2.534 1.437-.778 1.437-.838 4.35v7.423q0 3.252.818 4.769.818 1.496 2.594 1.496 1.716 0 2.534-1.456.819-1.477.839-4.61v-7.183zM99.353 216.982q0 5.886-2.654 9.079-2.634 3.192-7.442 3.192-4.85 0-7.503-3.212-2.654-3.213-2.654-9.06v-5.307q0-5.887 2.634-9.08 2.654-3.192 7.483-3.192 4.828 0 7.482 3.213 2.654 3.212 2.654 9.079v5.288zm-6.724-6.166q0-3.133-.818-4.67-.818-1.556-2.594-1.556-1.736 0-2.535 1.437-.778 1.437-.838 4.35v7.423q0 3.252.819 4.769.818 1.496 2.594 1.496 1.716 0 2.534-1.456.818-1.477.838-4.61v-7.183zM102.207 217.9q0-3.273 1.077-5.787 1.078-2.514 3.093-3.871 2.015-1.377 4.69-1.377 3.371 0 5.267 2.275l.24-1.876h6.105v20.772q0 2.853-1.337 4.949-1.317 2.115-3.83 3.232-2.515 1.138-5.827 1.138-2.375 0-4.61-.898-2.214-.898-3.392-2.335l2.814-3.95q1.875 2.214 4.948 2.214 4.47 0 4.47-4.59v-.678q-1.936 2.135-4.889 2.135-3.95 0-6.385-3.013-2.434-3.033-2.434-8.101v-.24zm6.744.418q0 2.654.998 4.21.997 1.537 2.793 1.537 2.175 0 3.173-1.456v-9.08q-.978-1.476-3.133-1.476-1.796 0-2.813 1.616-1.018 1.597-1.018 4.65zM156.8 218.219q0 5.028-2.274 8.041-2.255 2.993-6.106 2.993-2.973 0-4.889-2.175v10.077h-6.724v-29.891h6.285l.2 1.995q1.935-2.394 5.088-2.394 3.99 0 6.206 2.953 2.215 2.933 2.215 8.081v.32zm-6.724-.42q0-5.746-3.352-5.746-2.395 0-3.193 1.716v8.5q.878 1.796 3.233 1.796 3.212 0 3.312-5.547v-.718zM158.896 217.86q0-3.233 1.257-5.747 1.257-2.534 3.611-3.891 2.355-1.357 5.528-1.357 4.849 0 7.642 3.013 2.794 2.993 2.794 8.161v.24q0 5.048-2.814 8.021-2.793 2.953-7.582 2.953-4.61 0-7.403-2.753-2.794-2.774-3.013-7.503l-.02-1.137zm6.724.419q0 2.993.938 4.39.938 1.396 2.774 1.396 3.591 0 3.671-5.527v-.678q0-5.807-3.711-5.807-3.372 0-3.652 5.008l-.02 1.218zM195.591 226.52q-2.135 2.733-5.767 2.733-3.551 0-5.387-2.055-1.816-2.075-1.816-5.946v-13.988h6.724v14.028q0 2.773 2.694 2.773 2.315 0 3.293-1.656v-15.145h6.764v21.59h-6.305l-.2-2.334zM218.857 213.35l-2.215-.16q-3.172 0-4.07 1.996v13.668h-6.725v-21.59h6.306l.22 2.774q1.695-3.173 4.728-3.173 1.078 0 1.876.24l-.12 6.245zM246.294 228.854h-6.745v-21.47l-6.624 1.935v-5.108l12.75-4.41h.619v29.053zM271.556 218.718h-6.226q.1 2.633 1.417 3.89 1.337 1.258 4.39 1.258 1.975 0 3.511-.599l.858 5.368q-2.653.598-5.247.598-5.388 0-8.6-2.793-3.193-2.794-3.353-7.722h-3.292v-3.193h3.292v-2.434h-3.292v-3.173h3.352q.38-4.949 3.711-7.722 3.333-2.774 8.8-2.774 2.115 0 4.63.619l-.859 5.387q-1.556-.618-3.332-.618-2.754 0-4.21 1.257-1.457 1.237-1.716 3.85h6.166v3.174h-6.226v2.434h6.226v3.193zM46.675 298.326H39.93v-21.47l-6.624 1.935v-5.108l12.75-4.41h.619v29.053zM65.77 287.51l-2.873 3.153v7.663h-7.003v-29.053h7.003v12.81l2.435-3.691 6.265-9.12h8.66l-9.817 12.851 9.817 16.203h-8.3L65.77 287.51zM80.497 287.371q0-3.272 1.077-5.787 1.078-2.514 3.093-3.87 2.016-1.377 4.69-1.377 3.372 0 5.267 2.274l.24-1.875h6.106v20.772q0 2.853-1.337 4.948-1.317 2.115-3.832 3.233-2.514 1.137-5.826 1.137-2.375 0-4.61-.898-2.214-.898-3.392-2.334l2.814-3.951q1.876 2.215 4.948 2.215 4.47 0 4.47-4.59v-.678q-1.935 2.135-4.889 2.135-3.95 0-6.385-3.013-2.434-3.033-2.434-8.102v-.239zm6.744.419q0 2.654.998 4.21.998 1.537 2.793 1.537 2.175 0 3.173-1.457v-9.079q-.978-1.476-3.133-1.476-1.795 0-2.813 1.616-1.018 1.596-1.018 4.649zM135.09 287.69q0 5.029-2.274 8.042-2.255 2.993-6.106 2.993-2.973 0-4.889-2.175v10.077h-6.724v-29.891h6.285l.2 1.995q1.935-2.394 5.088-2.394 3.99 0 6.206 2.953 2.215 2.933 2.215 8.081v.32zm-6.724-.419q0-5.746-3.352-5.746-2.394 0-3.193 1.716v8.5q.878 1.796 3.233 1.796 3.212 0 3.312-5.547v-.719zM137.186 287.331q0-3.232 1.257-5.747 1.257-2.534 3.612-3.89 2.354-1.357 5.527-1.357 4.849 0 7.642 3.013 2.794 2.993 2.794 8.16v.24q0 5.048-2.814 8.022-2.793 2.953-7.582 2.953-4.61 0-7.403-2.754-2.794-2.773-3.013-7.503l-.02-1.137zm6.724.42q0 2.992.938 4.389.938 1.397 2.774 1.397 3.591 0 3.671-5.527v-.679q0-5.806-3.711-5.806-3.372 0-3.652 5.008l-.02 1.217zM173.881 295.991q-2.135 2.734-5.767 2.734-3.551 0-5.387-2.055-1.816-2.076-1.816-5.947v-13.987h6.725v14.027q0 2.774 2.693 2.774 2.315 0 3.293-1.656v-15.145h6.764v21.59h-6.305l-.2-2.335zM197.147 282.822l-2.214-.16q-3.173 0-4.071 1.995v13.669h-6.725v-21.59h6.306l.22 2.773q1.695-3.172 4.728-3.172 1.078 0 1.876.239l-.12 6.246zM229.952 298.326h-20.274v-4.39l9.339-9.817q3.452-3.931 3.452-6.246 0-1.876-.818-2.853-.818-.978-2.375-.978-1.536 0-2.494 1.317-.958 1.297-.958 3.252h-6.744q0-2.674 1.337-4.928 1.337-2.275 3.711-3.552 2.375-1.277 5.308-1.277 4.71 0 7.243 2.175 2.554 2.175 2.554 6.245 0 1.716-.638 3.353-.639 1.616-1.996 3.412-1.337 1.776-4.33 4.769l-3.751 4.33h11.434v5.188zM249.846 288.19h-6.226q.1 2.633 1.417 3.89 1.337 1.257 4.39 1.257 1.975 0 3.512-.598l.858 5.367q-2.654.599-5.248.599-5.388 0-8.6-2.794-3.193-2.793-3.353-7.722h-3.292v-3.192h3.292v-2.435h-3.292v-3.173h3.352q.38-4.948 3.712-7.722 3.332-2.773 8.8-2.773 2.114 0 4.629.618l-.858 5.388q-1.557-.619-3.333-.619-2.753 0-4.21 1.257-1.457 1.238-1.716 3.851h6.166v3.173h-6.226v2.435h6.226v3.192zM46.675 367.797H39.93v-21.47l-6.624 1.935v-5.108l12.75-4.41h.619v29.053zM59.745 361.272q1.596 0 2.654.958 1.057.938 1.057 2.415 0 1.476-1.057 2.434-1.058.938-2.654.938-1.617 0-2.674-.958-1.038-.958-1.038-2.414 0-1.457 1.038-2.415 1.057-.958 2.674-.958zM68.245 353.59l1.776-14.846h16.98v5.228H75.489l-.658 5.767q.718-.42 1.876-.738 1.177-.32 2.294-.32 4.33 0 6.645 2.575 2.335 2.554 2.335 7.183 0 2.793-1.258 5.068-1.237 2.255-3.492 3.472-2.254 1.217-5.327 1.217-2.734 0-5.128-1.117-2.395-1.137-3.752-3.093-1.357-1.975-1.337-4.45h6.745q.1 1.597 1.017 2.535.918.937 2.415.937 3.392 0 3.392-5.028 0-4.65-4.15-4.65-2.355 0-3.512 1.517l-5.348-1.257zM101.847 356.982l-2.873 3.153v7.662H91.97v-29.053h7.004v12.81l2.434-3.69 6.266-9.12h8.66l-9.817 12.85 9.817 16.203h-8.3l-6.187-10.815zM116.573 356.843q0-3.273 1.078-5.787 1.077-2.514 3.093-3.871 2.015-1.377 4.689-1.377 3.372 0 5.268 2.275l.24-1.876h6.105v20.772q0 2.854-1.337 4.949-1.317 2.115-3.83 3.232-2.515 1.138-5.827 1.138-2.375 0-4.61-.898-2.215-.898-3.392-2.335l2.814-3.95q1.875 2.214 4.948 2.214 4.47 0 4.47-4.59v-.678q-1.936 2.135-4.889 2.135-3.95 0-6.385-3.013-2.435-3.033-2.435-8.101v-.24zm6.745.419q0 2.654.998 4.21.997 1.536 2.793 1.536 2.175 0 3.173-1.456v-9.08q-.978-1.476-3.133-1.476-1.796 0-2.813 1.616-1.018 1.597-1.018 4.65zM171.167 357.162q0 5.028-2.274 8.041-2.255 2.993-6.106 2.993-2.973 0-4.889-2.175v10.077h-6.724v-29.89h6.285l.2 1.995q1.935-2.395 5.088-2.395 3.99 0 6.206 2.953 2.214 2.933 2.214 8.082v.319zm-6.724-.42q0-5.746-3.352-5.746-2.395 0-3.193 1.716v8.5q.878 1.796 3.233 1.796 3.212 0 3.312-5.547v-.718zM173.263 356.803q0-3.233 1.257-5.747 1.257-2.534 3.611-3.891 2.355-1.357 5.528-1.357 4.848 0 7.642 3.013 2.793 2.993 2.793 8.161v.24q0 5.048-2.813 8.021-2.794 2.953-7.583 2.953-4.609 0-7.402-2.753-2.794-2.774-3.013-7.503l-.02-1.137zm6.724.419q0 2.993.938 4.39.938 1.396 2.773 1.396 3.592 0 3.672-5.527v-.678q0-5.807-3.711-5.807-3.373 0-3.652 5.009l-.02 1.217zM209.958 365.463q-2.135 2.733-5.767 2.733-3.552 0-5.387-2.055-1.816-2.075-1.816-5.946v-13.988h6.724v14.028q0 2.773 2.694 2.773 2.315 0 3.292-1.656v-15.145h6.765v21.59h-6.306l-.2-2.334zM233.224 352.293l-2.215-.16q-3.172 0-4.07 1.996v13.668h-6.725v-21.59h6.306l.22 2.774q1.695-3.173 4.728-3.173 1.078 0 1.876.24l-.12 6.245zM251.901 350.457h3.173q3.77 0 3.77-3.691 0-1.437-.897-2.335-.898-.918-2.534-.918-1.337 0-2.335.779-.977.778-.977 1.935h-6.725q0-2.295 1.277-4.09 1.277-1.796 3.532-2.794 2.275-1.018 4.988-1.018 4.85 0 7.623 2.215 2.773 2.215 2.773 6.086 0 1.876-1.157 3.552-1.137 1.656-3.332 2.694 2.314.838 3.631 2.554 1.317 1.696 1.317 4.21 0 3.891-2.993 6.226-2.993 2.334-7.862 2.334-2.853 0-5.307-1.077-2.435-1.098-3.692-3.013-1.257-1.936-1.257-4.39h6.764q0 1.337 1.078 2.315 1.077.977 2.654.977 1.776 0 2.833-.977 1.058-.998 1.058-2.535 0-2.194-1.098-3.112-1.097-.918-3.033-.918h-3.272v-5.009zM285.922 357.66h-6.225q.1 2.635 1.416 3.892 1.337 1.257 4.39 1.257 1.976 0 3.512-.599l.858 5.368q-2.654.598-5.248.598-5.387 0-8.6-2.793-3.192-2.794-3.352-7.722h-3.292v-3.193h3.292v-2.434h-3.292v-3.173h3.352q.379-4.949 3.711-7.722 3.333-2.774 8.8-2.774 2.115 0 4.63.619l-.859 5.387q-1.556-.618-3.332-.618-2.754 0-4.21 1.257-1.457 1.237-1.716 3.851h6.165v3.173h-6.225v2.434h6.225v3.193zM52.042 437.269H31.77v-4.39l9.339-9.817q3.452-3.931 3.452-6.246 0-1.876-.818-2.853-.818-.978-2.375-.978-1.536 0-2.494 1.317-.958 1.297-.958 3.252h-6.744q0-2.673 1.337-4.928 1.337-2.275 3.711-3.552 2.375-1.277 5.308-1.277 4.709 0 7.243 2.175 2.554 2.175 2.554 6.245 0 1.717-.638 3.353-.639 1.616-1.996 3.412-1.337 1.776-4.33 4.769l-3.751 4.33h11.433v5.188zM65.77 426.454l-2.873 3.153v7.662h-7.003v-29.053h7.003v12.81l2.435-3.691 6.265-9.12h8.66l-9.817 12.851 9.817 16.203h-8.3l-6.186-10.815zM80.497 426.314q0-3.272 1.077-5.786 1.078-2.515 3.093-3.872 2.016-1.376 4.69-1.376 3.372 0 5.267 2.274l.24-1.875h6.106v20.772q0 2.853-1.337 4.948-1.317 2.115-3.832 3.233-2.514 1.137-5.826 1.137-2.375 0-4.61-.898-2.214-.898-3.392-2.334l2.814-3.951q1.876 2.215 4.948 2.215 4.47 0 4.47-4.59v-.678q-1.935 2.135-4.889 2.135-3.95 0-6.385-3.013-2.434-3.033-2.434-8.101v-.24zm6.744.42q0 2.653.998 4.21.998 1.536 2.793 1.536 2.175 0 3.173-1.457v-9.079q-.978-1.476-3.133-1.476-1.795 0-2.813 1.616-1.018 1.596-1.018 4.65zM135.09 426.633q0 5.029-2.274 8.042-2.255 2.993-6.106 2.993-2.973 0-4.889-2.175v10.077h-6.724v-29.891h6.285l.2 1.995q1.935-2.394 5.088-2.394 3.99 0 6.206 2.953 2.215 2.933 2.215 8.081v.32zm-6.724-.419q0-5.746-3.352-5.746-2.394 0-3.193 1.716v8.5q.878 1.796 3.233 1.796 3.212 0 3.312-5.547v-.719zM137.186 426.274q0-3.232 1.257-5.746 1.257-2.535 3.612-3.891 2.354-1.357 5.527-1.357 4.849 0 7.642 3.013 2.794 2.993 2.794 8.16v.24q0 5.049-2.814 8.022-2.793 2.953-7.582 2.953-4.61 0-7.403-2.754-2.794-2.773-3.013-7.502l-.02-1.138zm6.724.42q0 2.992.938 4.39.938 1.396 2.774 1.396 3.591 0 3.671-5.527v-.679q0-5.806-3.711-5.806-3.372 0-3.652 5.008l-.02 1.217zM173.881 434.934q-2.135 2.734-5.767 2.734-3.551 0-5.387-2.055-1.816-2.076-1.816-5.947V415.68h6.725v14.027q0 2.774 2.693 2.774 2.315 0 3.293-1.656v-15.145h6.764v21.59h-6.305l-.2-2.335zM197.147 421.765l-2.214-.16q-3.173 0-4.071 1.995v13.669h-6.725v-21.59h6.306l.22 2.773q1.695-3.172 4.728-3.172 1.078 0 1.876.239l-.12 6.246zM227.437 425.915h2.954v5.188h-2.954v6.166h-6.724v-6.166h-11.234l-.4-4.11 11.634-18.717v-.06h6.724v17.699zm-11.952 0h5.228v-8.94l-.42.68-4.808 8.26zM249.846 427.132h-6.226q.1 2.634 1.417 3.891 1.337 1.257 4.39 1.257 1.975 0 3.512-.598l.858 5.367q-2.654.599-5.248.599-5.388 0-8.6-2.794-3.193-2.793-3.353-7.722h-3.292v-3.192h3.292v-2.435h-3.292v-3.172h3.352q.38-4.949 3.712-7.723 3.332-2.773 8.8-2.773 2.114 0 4.629.618l-.858 5.388q-1.557-.619-3.333-.619-2.753 0-4.21 1.257-1.457 1.238-1.716 3.852h6.166v3.172h-6.226v2.435h6.226v3.192z"/></g></svg>