<svg xmlns="http://www.w3.org/2000/svg" width="520.407" height="563.401" viewBox="0 0 487.88191 528.18811"><path d="M99.146 527.29c-25.265-4.236-45.654-14.19-63.157-30.834-18.594-17.68-29.684-38.461-34.347-64.359-4.335-24.075.056-52.014 11.51-73.235 5.064-9.38 7.783-13.36 14.745-21.58 8.83-10.428 315.394-316.338 321.3-320.614C363.132 6.575 383.39 0 400.546 0c32.918 0 64.667 19.953 78.587 49.39 4.429 9.365 5.886 13.925 7.52 23.538 3.952 23.263-1.723 47.321-15.725 66.653-3.674 5.073-279.715 281.903-286.935 287.756-4.758 3.856-13.937 8.411-21.106 10.474-8.124 2.337-22.783 2.193-31.512-.31-16.912-4.847-29.23-15.377-36.673-31.35-8.119-17.423-6.356-40.257 4.337-56.206 3.028-4.515 206.247-207.87 209.482-209.62 1.578-.855 4.626-1.386 8.083-1.408 4.72-.03 6.172.343 9.71 2.5 5.733 3.498 9.117 9.916 8.516 16.153-.23 2.386-1.056 5.615-1.838 7.177-.78 1.56-47.11 48.618-102.955 104.572C132.946 366.6 128.453 371.236 127.35 375.273c-3.02 11.066.984 20.915 10.573 26.008 4.49 2.384 14.619 2.516 19.054.247 1.625-.832 66.43-65.016 144.013-142.633C453.517 106.3 444.68 115.653 449.2 102.011c2.53-7.64 2.483-20.842-.104-28.983-5.406-17.012-16.536-28.113-33.632-33.545-8.167-2.595-21.982-2.553-30.115.092-14.059 4.572-3.902-5.04-169.968 160.838-84.195 84.1-156.09 156.482-159.767 160.848-7.906 9.386-13.998 21.109-16.936 32.586-2.699 10.545-2.725 26.38-.06 36.858 7.2 28.31 26.075 48.432 54.195 57.774 6.784 2.254 8.006 2.387 22.373 2.421 14.43.035 15.58-.085 22.78-2.372 8.597-2.73 15.443-6.001 22.81-10.898 3.285-2.184 54.905-53.141 146.9-145.015 78.01-77.906 143.064-142.26 144.566-143.01 9.473-4.73 21.106-.567 25.088 8.98 1.74 4.174 1.628 10.432-.264 14.59-1.092 2.402-41.809 43.655-140.904 142.76-76.652 76.66-141.773 141.48-144.713 144.044-14.998 13.08-32.375 21.655-52.71 26.01-10.645 2.28-29.969 2.914-39.594 1.3z" fill="#404040"/></svg>