<?xml version="1.0" encoding="UTF-8" standalone="no"?>
<!-- Created with Inkscape (http://www.inkscape.org/) -->

<svg
   xmlns:dc="http://purl.org/dc/elements/1.1/"
   xmlns:cc="http://creativecommons.org/ns#"
   xmlns:rdf="http://www.w3.org/1999/02/22-rdf-syntax-ns#"
   xmlns:svg="http://www.w3.org/2000/svg"
   xmlns="http://www.w3.org/2000/svg"
   xmlns:sodipodi="http://sodipodi.sourceforge.net/DTD/sodipodi-0.dtd"
   xmlns:inkscape="http://www.inkscape.org/namespaces/inkscape"
   width="99.71582mm"
   height="66.264961mm"
   viewBox="0 0 353.32377 234.79711"
   id="svg6086"
   version="1.1"
   inkscape:version="0.91 r13725"
   sodipodi:docname="evolutif.svg">
  <defs
     id="defs6088" />
  <sodipodi:namedview
     id="base"
     pagecolor="#ffffff"
     bordercolor="#666666"
     borderopacity="1.0"
     inkscape:pageopacity="0.0"
     inkscape:pageshadow="2"
     inkscape:zoom="0.35"
     inkscape:cx="-224.05241"
     inkscape:cy="83.112849"
     inkscape:document-units="px"
     inkscape:current-layer="layer1"
     showgrid="false"
     fit-margin-top="0"
     fit-margin-left="0"
     fit-margin-right="0"
     fit-margin-bottom="0"
     inkscape:window-width="1366"
     inkscape:window-height="744"
     inkscape:window-x="0"
     inkscape:window-y="24"
     inkscape:window-maximized="1" />
  <metadata
     id="metadata6091">
    <rdf:RDF>
      <cc:Work
         rdf:about="">
        <dc:format>image/svg+xml</dc:format>
        <dc:type
           rdf:resource="http://purl.org/dc/dcmitype/StillImage" />
        <dc:title></dc:title>
      </cc:Work>
    </rdf:RDF>
  </metadata>
  <g
     inkscape:label="Layer 1"
     inkscape:groupmode="layer"
     id="layer1"
     transform="translate(-111.90955,-380.67793)">
    <path
       style="display:inline;opacity:1;fill:#ffffff;fill-opacity:1;fill-rule:evenodd;stroke:none;stroke-width:1px;stroke-linecap:butt;stroke-linejoin:miter;stroke-opacity:1"
       d="m 111.90955,491.62695 c 44.35981,28.2594 70.90018,97.9383 93.19151,98.1487 32.04183,0.3024 38.64973,-32.3465 38.27275,-76.7109 -0.30347,-35.7137 15.92441,-91.3668 65.26017,-89.5759 66.28047,2.4059 54.31492,85.4108 126.847,80.281 l -0.0272,-25.6907 29.77953,33.7421 -30.59535,36.0374 0.843,-23.3745 c -91.20702,6.8111 -80.9305,-78.4919 -128.0812,-79.6324 -28.22699,-0.6828 -36.98876,33.5184 -37.9702,67.3935 -1.571,54.2246 -21.91874,101.2806 -63.35941,103.1884 -43.6297,2.0086 -63.48911,-69.6573 -93.44632,-85.9496 z"
       id="path7279"
       inkscape:connector-curvature="0"
       sodipodi:nodetypes="cssscccccssscc" />
    <g
       id="g7334"
       transform="matrix(0.20901524,0,0,0.20901524,233.14283,337.74595)"
       style="display:inline;opacity:1;fill:#ffffff;fill-opacity:1">
      <g
         id="g7282"
         style="fill:#ffffff;fill-opacity:1">
        <path
           style="fill:#ffcc00;fill-opacity:1"
           d="m 353.47349,205.40121 c -4.143,0 -7.49419,3.35095 -7.49419,7.49419 l 0,30.78053 c 0,4.14276 3.35219,7.50328 7.49419,7.50328 4.143,0 7.50357,-3.36052 7.50357,-7.50328 l 0,-30.78053 c 0,-4.14324 -3.36057,-7.49419 -7.50357,-7.49419 z m -97.22861,30.27578 c -1.91899,0.0445 -3.82058,0.8186 -5.25157,2.31753 -2.85898,2.99596 -2.74468,7.74489 0.25232,10.60593 l 22.77231,21.73478 c 1.452,1.38602 3.31483,2.07449 5.1768,2.07449 1.97799,-9.6e-4 3.94579,-0.78272 5.41975,-2.32663 2.85903,-2.99595 2.75406,-7.74489 -0.24295,-10.60592 l -22.77231,-21.72569 c -1.49702,-1.42908 -3.43535,-2.11899 -5.35435,-2.07449 z m 190.65409,1.99937 c -1.919,-0.0445 -3.85536,0.64589 -5.35435,2.07449 l -22.77235,21.72617 c -2.99701,2.85864 -3.10198,7.60854 -0.24295,10.60593 1.474,1.5439 3.44075,2.31705 5.41975,2.31705 1.86,0 3.73417,-0.6789 5.18617,-2.06492 l 22.76298,-21.73526 c 2.99701,-2.85912 3.11131,-7.60997 0.25228,-10.60592 -1.42898,-1.4975 -3.33253,-2.27256 -5.25153,-2.31754 z m -93.41611,23.21171 c -41.06002,0 -74.46567,33.4057 -74.46567,74.46586 0,16.82365 5.51458,32.7091 15.94157,45.93684 1.99804,2.53618 4.14338,5.03265 6.22342,7.44778 6.21199,7.20809 12.07812,14.01142 14.1661,21.66972 0.045,0.16505 0.44111,1.7769 0.38313,7.25114 l -0.009,0.7942 c -0.063,4.44417 -0.14454,10.52842 4.35446,15.09125 3.08102,3.12513 7.3987,4.64415 13.20368,4.64415 l 40.26511,0 c 6.26796,0 10.78098,-1.53577 13.78296,-4.69104 4.06104,-4.26668 3.78795,-9.77967 3.60696,-13.42773 -0.032,-0.64493 -0.0667,-1.2956 -0.0747,-1.94388 -0.065,-5.47998 0.34739,-7.02724 0.36442,-7.0923 2.121,-7.65686 8.98983,-15.73331 15.05384,-22.85623 2.02301,-2.37686 3.92942,-4.62072 5.70944,-6.87749 10.43101,-13.23014 15.95094,-29.11558 15.95094,-45.94641 9.5e-4,-41.06016 -33.4013,-74.46586 -74.4563,-74.46586 z M 225.6419,315.00183 c -4.13697,0 -7.49653,3.3476 -7.50357,7.48462 -0.007,4.14228 3.34292,7.50615 7.48491,7.51285 l 29.31341,0.0469 0.009,0 c 4.13702,0 7.49659,-3.34808 7.50357,-7.4851 0.008,-4.1418 -3.34186,-7.50663 -7.48486,-7.51285 l -29.31341,-0.0464 -0.009,0 z m 248.85109,0 -29.31342,0.0464 c -4.14299,0.007 -7.49184,3.37105 -7.48486,7.51285 0.007,4.13941 3.36655,7.4851 7.50357,7.4851 l 0.009,0 29.31341,-0.0469 c 4.143,-0.007 7.4919,-3.37057 7.48491,-7.51285 -0.006,-4.13894 -3.36659,-7.48462 -7.50357,-7.48462 l -0.009,0 z M 334.95288,444.96364 c -7.99502,0 -14.49321,6.50766 -14.49321,14.50277 l 0,11.11019 c 0,7.99512 6.49819,14.50277 14.49321,14.50277 l 37.04127,0 c 7.99496,0 14.50253,-6.50765 14.50253,-14.50277 l 0,-11.11019 c 0,-7.99511 -6.50757,-14.50277 -14.50253,-14.50277 l -37.04127,0 z"
           id="path5652"
           inkscape:connector-curvature="0" />
        <path
           style="display:inline;opacity:1;fill:#ffcc00;fill-opacity:1"
           d="m -134.23641,1028.2131 c -4.143,0 -7.49419,3.351 -7.49419,7.494 l 0,30.781 c 0,4.142 3.35219,7.503 7.49419,7.503 4.143,0 7.50357,-3.361 7.50357,-7.503 l 0,-30.781 c 0,-4.143 -3.36057,-7.494 -7.50357,-7.494 z m -97.22861,30.276 c -1.91899,0.04 -3.82058,0.818 -5.25157,2.317 -2.85898,2.996 -2.74468,7.745 0.25232,10.606 l 22.77231,21.735 c 1.452,1.386 3.31483,2.074 5.1768,2.074 1.97799,0 3.94579,-0.782 5.41975,-2.326 2.85903,-2.996 2.75406,-7.745 -0.24295,-10.606 l -22.77231,-21.726 c -1.49702,-1.429 -3.43535,-2.119 -5.35435,-2.074 z m 190.654092,1.999 c -1.919,-0.04 -3.85536,0.646 -5.35435,2.075 l -22.77235,21.726 c -2.99701,2.858 -3.10198,7.608 -0.24295,10.606 1.474,1.544 3.44075,2.317 5.41975,2.317 1.86,0 3.73417,-0.679 5.18617,-2.065 l 22.76298,-21.735 c 2.99701,-2.86 3.11131,-7.61 0.25228,-10.606 -1.42898,-1.498 -3.33253,-2.273 -5.25153,-2.318 z m -93.416112,23.212 c -41.06002,0 -74.46567,33.406 -74.46567,74.466 0,16.823 5.51458,32.709 15.94157,45.937 1.99804,2.536 4.14338,5.032 6.22342,7.447 6.21199,7.208 12.07812,14.012 14.1661,21.67 0.045,0.165 0.44112,1.777 0.38313,7.251 l -0.009,0.794 c -0.063,4.445 -0.14454,10.529 4.35446,15.092 3.08102,3.125 7.3987,4.644 13.20368,4.644 l 40.26511,0 c 6.26796,0 10.78098,-1.536 13.78296,-4.691 4.061042,-4.267 3.787952,-9.78 3.606962,-13.428 -0.0321,-0.645 -0.0667,-1.296 -0.0747,-1.944 -0.065,-5.48 0.34739,-7.027 0.36442,-7.092 2.121,-7.657 8.98983,-15.734 15.05384,-22.856 2.02301,-2.377 3.92942,-4.621 5.70944,-6.878 10.43101,-13.23 15.95094,-29.116 15.95094,-45.946 9.5e-4,-41.06 -33.4013,-74.466 -74.456302,-74.466 z m -127.84096,54.114 c -4.13697,0 -7.49653,3.347 -7.50357,7.484 -0.007,4.142 3.34292,7.506 7.48491,7.513 l 29.31341,0.05 0.009,0 c 4.13702,0 7.49659,-3.348 7.50357,-7.485 0.008,-4.142 -3.34186,-7.507 -7.48486,-7.513 l -29.31341,-0.05 -0.009,0 z m 248.851092,0 -29.31342,0.05 c -4.14299,0 -7.49184,3.371 -7.48486,7.513 0.007,4.139 3.36655,7.485 7.50357,7.485 l 0.009,0 29.31341,-0.05 c 4.1429995,0 7.4918995,-3.371 7.4849095,-7.513 -0.006,-4.139 -3.36659,-7.484 -7.5035695,-7.484 l -0.009,0 z m -139.540112,129.961 c -7.99502,0 -14.49321,6.508 -14.49321,14.503 l 0,11.11 c 0,7.995 6.49819,14.503 14.49321,14.503 l 37.04127,0 c 7.99496,0 14.50253,-6.508 14.50253,-14.503 l 0,-11.11 c 0,-7.995 -6.50757,-14.503 -14.50253,-14.503 l -37.04127,0 z"
           id="path5652-2"
           inkscape:connector-curvature="0" />
      </g>
      <g
         id="g7298"
         style="fill:#ffffff;fill-opacity:1" />
      <g
         id="g7300"
         style="fill:#ffffff;fill-opacity:1" />
      <g
         id="g7302"
         style="fill:#ffffff;fill-opacity:1" />
      <g
         id="g7304"
         style="fill:#ffffff;fill-opacity:1" />
      <g
         id="g7306"
         style="fill:#ffffff;fill-opacity:1" />
      <g
         id="g7308"
         style="fill:#ffffff;fill-opacity:1" />
      <g
         id="g7310"
         style="fill:#ffffff;fill-opacity:1" />
      <g
         id="g7312"
         style="fill:#ffffff;fill-opacity:1" />
      <g
         id="g7314"
         style="fill:#ffffff;fill-opacity:1" />
      <g
         id="g7316"
         style="fill:#ffffff;fill-opacity:1" />
      <g
         id="g7318"
         style="fill:#ffffff;fill-opacity:1" />
      <g
         id="g7320"
         style="fill:#ffffff;fill-opacity:1" />
      <g
         id="g7322"
         style="fill:#ffffff;fill-opacity:1" />
      <g
         id="g7324"
         style="fill:#ffffff;fill-opacity:1" />
      <g
         id="g7326"
         style="fill:#ffffff;fill-opacity:1" />
    </g>
  </g>
</svg>
