<svg xmlns="http://www.w3.org/2000/svg" viewBox="0 0 353.324 192.028" height="204.83" width="376.879"><path d="M0 68.18c44.36 28.26 70.9 97.939 93.192 98.149 32.041.302 38.65-32.347 38.272-76.71-.303-35.715 15.925-91.368 65.26-89.577 66.28 2.406 54.315 85.411 126.847 80.281l-.027-25.69 29.78 33.742-30.596 36.037.843-23.375c-91.207 6.812-80.93-78.491-128.08-79.632-28.228-.683-36.99 33.518-37.971 67.394-1.571 54.224-21.919 101.28-63.36 103.188-43.63 2.009-63.489-69.657-93.446-85.95z" fill="#88aa02" fill-rule="evenodd"/><g fill="#fff"><g fill="#fc0"><path d="M196.463 40.151c-.866 0-1.566.7-1.566 1.567v6.433a1.567 1.567 0 1 0 3.134 0v-6.433c0-.866-.702-1.567-1.568-1.567zM176.14 46.48a1.568 1.568 0 0 0-1.045 2.701l4.76 4.543a1.562 1.562 0 0 0 2.214-.052 1.568 1.568 0 0 0-.05-2.217l-4.76-4.541a1.564 1.564 0 0 0-1.12-.434zm39.85.418a1.565 1.565 0 0 0-1.12.434l-4.76 4.54a1.568 1.568 0 0 0 2.166 2.27l4.758-4.543a1.568 1.568 0 0 0-1.045-2.7zm-19.526 4.852c-8.582 0-15.565 6.982-15.565 15.564 0 3.517 1.153 6.837 3.332 9.602.418.53.866 1.052 1.301 1.557 1.299 1.506 2.525 2.928 2.961 4.529.01.034.092.371.08 1.515l-.002.166c-.013.93-.03 2.201.91 3.155.644.653 1.547.97 2.76.97h8.416c1.31 0 2.254-.32 2.881-.98.849-.892.792-2.044.754-2.807-.007-.134-.014-.27-.016-.406-.013-1.145.073-1.469.077-1.482.443-1.6 1.879-3.289 3.146-4.778.423-.496.821-.965 1.193-1.437a15.368 15.368 0 0 0 3.334-9.604c0-8.582-6.98-15.564-15.562-15.564zm-26.72 11.31a1.568 1.568 0 0 0-.005 3.135l6.127.01h.002a1.568 1.568 0 0 0 .004-3.135l-6.127-.01h-.002zm52.013 0l-6.127.01a1.567 1.567 0 0 0 .004 3.135h.002l6.127-.01a1.567 1.567 0 0 0-.004-3.135h-.002zm-29.166 27.164a3.034 3.034 0 0 0-3.03 3.032v2.322a3.034 3.034 0 0 0 3.03 3.031h7.742a3.035 3.035 0 0 0 3.031-3.031v-2.322a3.035 3.035 0 0 0-3.031-3.032h-7.742zM94.524 89.437c-.866 0-1.566.7-1.566 1.566v6.434a1.567 1.567 0 1 0 3.134 0v-6.434c0-.866-.702-1.566-1.568-1.566zm-20.322 6.328a1.568 1.568 0 0 0-1.045 2.701l4.76 4.543a1.562 1.562 0 0 0 2.215-.053 1.568 1.568 0 0 0-.051-2.216l-4.76-4.542a1.564 1.564 0 0 0-1.12-.433zm39.85.418a1.57 1.57 0 0 0-1.12.434l-4.76 4.54a1.568 1.568 0 0 0 2.167 2.27l4.757-4.543a1.568 1.568 0 0 0-1.045-2.701zm-19.526 4.851c-8.582 0-15.564 6.983-15.564 15.565 0 3.516 1.152 6.837 3.332 9.602.417.53.866 1.051 1.3 1.556 1.299 1.507 2.525 2.929 2.961 4.53.01.034.093.37.08 1.515l-.001.166c-.014.929-.03 2.2.91 3.154.644.654 1.546.971 2.76.971h8.416c1.31 0 2.253-.321 2.88-.98.85-.892.792-2.045.754-2.807-.006-.135-.014-.27-.015-.406-.014-1.146.072-1.47.076-1.483.443-1.6 1.879-3.288 3.146-4.777.423-.497.822-.966 1.194-1.438a15.368 15.368 0 0 0 3.334-9.603c0-8.582-6.982-15.565-15.563-15.565zm-26.72 11.311a1.568 1.568 0 0 0-.005 3.135l6.127.01h.002a1.568 1.568 0 0 0 .004-3.135l-6.127-.01h-.002zm52.013 0l-6.127.01a1.566 1.566 0 1 0 .004 3.135h.002l6.127-.01a1.566 1.566 0 1 0-.004-3.135h-.002zM90.653 139.51a3.034 3.034 0 0 0-3.03 3.031v2.322a3.034 3.034 0 0 0 3.03 3.032h7.742a3.035 3.035 0 0 0 3.031-3.032v-2.322a3.035 3.035 0 0 0-3.03-3.031h-7.743z"/></g></g></svg>