<svg xmlns="http://www.w3.org/2000/svg" width="1111.014" height="1080.683" viewBox="0 0 1041.5759 1013.1403"><path style="isolation:auto;mix-blend-mode:normal" d="M511.988 858.022l95.689 51.602h.012v.006l.28.15h-.28v103.36h-191.96V909.624h.57l95.69-51.601z" color="#000" overflow="visible" fill="#eaeaea" fill-rule="evenodd"/><g fill="#69bc1b"><path d="M605.953 859.122l-20.238-17.785a3.105 3.105 0 0 0-2.261-.77 3.123 3.123 0 0 0-2.142 1.056l-73.404 83.545-26.1-34.546a3.112 3.112 0 0 0-2.057-1.206 3.078 3.078 0 0 0-2.311.6l-21.497 16.24a3.12 3.12 0 0 0-.609 4.37l48.327 63.964a3.124 3.124 0 0 0 2.375 1.237h.114c.895 0 1.75-.384 2.345-1.06l97.74-111.241a3.118 3.118 0 0 0-.282-4.404z"/></g><path d="M607.688 909.624v103.515h-191.96V909.624l95.98 51.758 95.98-51.758z" style="isolation:auto;mix-blend-mode:normal" color="#000" overflow="visible" fill="#fff" fill-rule="evenodd"/><path style="isolation:auto;mix-blend-mode:normal" d="M635.24 102.215l95.688 51.601h.012v.007l.28.15h-.28v103.36H538.98V153.816h.571l95.689-51.6z" color="#000" overflow="visible" fill="#eaeaea" fill-rule="evenodd"/><path style="isolation:auto;mix-blend-mode:normal" color="#000" overflow="visible" fill="#ff6e2e" fill-rule="evenodd" d="M550.161 109.015H718.52v103.716H550.16z"/><text style="line-height:125%;-inkscape-font-specification:'roboto, Normal';text-align:start" x="-159.202" y="-355.832" transform="matrix(.55526 0 0 .55526 722.265 333.966)" font-weight="400" font-size="49.826" font-family="roboto" letter-spacing="0" word-spacing="0" fill="#fff"><tspan x="-159.202" y="-355.832" style="-inkscape-font-specification:'roboto Heavy';text-align:center" font-weight="900" text-anchor="middle">Commandez</tspan><tspan x="-159.202" y="-293.549" style="-inkscape-font-specification:'roboto Heavy';text-align:center" dy="-19.396" font-weight="900" text-anchor="middle">Rapidement</tspan></text><path d="M730.94 153.817v103.515H538.98V153.817l95.98 51.758 95.98-51.758zM442.031 272.396h290.714v97.857H442.031z" style="isolation:auto;mix-blend-mode:normal" color="#000" overflow="visible" fill="#fff" fill-rule="evenodd"/><path d="M714.043 367.916l27.274 30.81-65.66-31.82z" fill="#fff" fill-rule="evenodd"/><text y="1990.105" x="-995.676" style="line-height:125%;-inkscape-font-specification:'roboto, Normal';text-align:start" font-weight="400" font-size="22.538" font-family="roboto" letter-spacing="0" word-spacing="0" fill="#404040" transform="translate(1444.888 -1688.538)"><tspan style="-inkscape-font-specification:'roboto Heavy'" y="1990.105" x="-995.676" font-weight="900" font-size="16.904">Bonjour Jean DUPONT,</tspan><tspan style="-inkscape-font-specification:'roboto Heavy'" y="2011.234" x="-995.676" font-weight="900" font-size="16.904">N&apos;oubliez pas que vous avec RDV </tspan><tspan style="-inkscape-font-specification:'roboto Heavy'" y="2032.364" x="-995.676" font-weight="900" font-size="16.904">dans 2h pour récupèrer votre panier</tspan></text><g color="#000" fill-rule="evenodd"><path style="isolation:auto;mix-blend-mode:normal" overflow="visible" fill="#fff" d="M365.537 11.597h145.212V181.97H365.537z"/><path style="isolation:auto;mix-blend-mode:normal" overflow="visible" fill="#fff" d="M360.613 4.963h145.212v170.372H360.613z"/><path style="isolation:auto;mix-blend-mode:normal" overflow="visible" fill="#fff" d="M355.62 0h145.212v170.372H355.62z"/><path style="isolation:auto;mix-blend-mode:normal" overflow="visible" fill="#69bc1b" d="M361.371 6.47h30.912v9.345h-30.912zM462.372 24.082h30.912v9.345h-30.912z"/><path style="isolation:auto;mix-blend-mode:normal" overflow="visible" fill="#404040" d="M361.91 42.413h131.195v9.346H361.91z"/><path style="isolation:auto;mix-blend-mode:normal" overflow="visible" fill="#e3e3e3" d="M361.91 55.592h131.195v9.346H361.91zM361.91 68.772h131.195v9.345H361.91zM361.91 81.952h131.195v9.345H361.91zM361.91 95.13h131.195v9.346H361.91zM361.91 108.31h131.195v9.345H361.91zM361.91 121.49h131.195v9.344H361.91z"/><path style="isolation:auto;mix-blend-mode:normal" overflow="visible" fill="#404040" d="M455.363 134.428h38.1v9.346h-38.1z"/></g><g fill-rule="evenodd"><path style="isolation:auto;mix-blend-mode:normal" color="#000" overflow="visible" fill="#fff" d="M103.774 615.42h425.274v216.174H103.774z"/><path d="M168.928 624.511l-60.61 141.424v59.092h393.753l-16.46-39.9h-38.89L415.407 723h-48.994l-21.717-53.537H281.56l-33.336-19.699h-52.021l-27.276-25.254z" fill="#69bc1b"/><path style="isolation:auto;mix-blend-mode:normal" color="#000" overflow="visible" fill="#404040" d="M423.465 625.827h93.929v13.363h-93.93zM423.465 641.914h93.929v13.363h-93.93zM423.465 658h93.929v13.364h-93.93z"/></g><g fill="#fff" stroke="none" color="#000" fill-rule="evenodd"><g fill="silver"><path style="isolation:auto;mix-blend-mode:normal" overflow="visible" d="M938.122 609.23v68.553h-45.293V609.23zM938.122 682.681v68.553h-45.293v-68.553zM938.122 756.129v68.553h-45.293v-68.553zM887.489 609.23v68.553h-45.293V609.23zM887.489 682.681v68.553h-45.293v-68.553zM887.489 756.129v68.553h-45.293v-68.553zM836.852 609.23v68.553H791.56V609.23zM836.852 682.681v68.553H791.56v-68.553zM836.852 756.129v68.553H791.56v-68.553z"/></g><g fill="#dfdfdf"><path style="isolation:auto;mix-blend-mode:normal" overflow="visible" d="M930.578 611.763v68.553h-45.293v-68.553zM930.578 685.214v68.553h-45.293v-68.553zM930.578 758.661v68.553h-45.293v-68.553zM879.945 611.763v68.553h-45.293v-68.553zM879.945 685.214v68.553h-45.293v-68.553zM879.945 758.661v68.553h-45.293v-68.553zM829.309 611.763v68.553h-45.293v-68.553zM829.309 685.214v68.553h-45.293v-68.553zM829.309 758.661v68.553h-45.293v-68.553z"/></g><path style="isolation:auto;mix-blend-mode:normal" overflow="visible" d="M923.034 614.295v68.553h-45.292v-68.553zM923.034 687.746V756.3h-45.292v-68.553zM923.034 761.194v68.552h-45.292v-68.552zM872.401 614.295v68.553H827.11v-68.553zM872.401 687.746V756.3H827.11v-68.553zM872.401 761.194v68.552H827.11v-68.552zM821.765 614.295v68.553h-45.293v-68.553zM821.765 687.746V756.3h-45.293v-68.553zM821.765 761.194v68.552h-45.293v-68.552z"/></g><g style="line-height:125%;-inkscape-font-specification:'roboto, Normal';text-align:start" font-weight="400" font-size="105.783" font-family="roboto" letter-spacing="0" word-spacing="0" fill="#ff898a"><path d="M875.145 214.956a95.99 95.99 0 0 0-7.744.277c-12.312.948-22.899 3.138-32.428 6.707-2.733 1.024-5.414 1.852-5.959 1.842-.545-.011-2.546-1.207-4.449-2.656-7.218-5.5-12.185-7.188-15.664-5.327-2.683 1.436-3.116 3.144-3.373 13.323l-.234 9.312-4.905 4.85c-7.934 7.846-12.81 14.797-17.1 24.379l-2.161 4.83-4.756.896c-2.616.494-5.648 1.042-6.737 1.219-2.61.424-5.04 2.536-5.716 4.969-.3 1.078-.547 7.47-.547 14.2 0 16.621.092 16.793 10.615 19.128 3.353.744 6.424 1.68 6.824 2.08.4.4 1.53 2.572 2.51 4.826 4.785 11.008 12.546 20.904 23.822 30.375l2.533 2.129 2.39 12.885c1.313 7.086 2.388 13.339 2.388 13.896 0 1.288 1.934 3.767 3.4 4.36.618.25 5.382.47 10.586.488 13.797.049 14.75-.6 14.75-10.03 0-2.626.224-4.912.498-5.081.274-.17 3.447.282 7.051 1.003 3.604.722 8.879 1.565 11.72 1.874 11.19 1.215 27.265.402 37.13-1.877 3.2-.74 3.5-.732 4.125.123.406.555.673 2.558.673 5.046 0 3.593.166 4.32 1.284 5.62l1.283 1.494 10.656.162c11.774.18 13.25-.12 14.35-2.932.32-.819 1.337-6.398 2.261-12.398.925-6 1.835-11.182 2.022-11.516.187-.334 2.375-2.103 4.863-3.93 5.827-4.278 14.388-12.92 18.178-18.345 7.638-10.935 10.452-18.387 13.057-34.59l.427-2.66 4.48-.156 4.48-.157 2.171 2.094c1.195 1.152 2.892 2.45 3.77 2.885 3.032 1.503 10.908 2.64 10.908 1.574 0-.226-2.117-1.054-4.705-1.842-5.224-1.59-7.367-2.943-6.84-4.316.271-.708 1.1-.88 4.213-.885 4.284-.01 8.23-1.45 10.344-3.783 6.67-7.365 3.586-19.223-5.717-21.986-3.509-1.042-4.381-1.04-7.973.017-2.158.634-3.526 1.504-5.396 3.433-3.135 3.233-4.307 6.803-4.055 12.358l.174 3.845-2.824-.074c-1.554-.042-2.956-.205-3.116-.365-.16-.16-.635-2.276-1.056-4.703-4.749-27.364-29.492-52.61-62.035-63.297-10.995-3.61-23.068-5.55-34.446-5.592zm-25.037 9.898l23.815.139 23.812.138V233.114l-23.812.138-23.815.137v-8.535zm32.795 35.766c3.65 0 7.644.534 11.982 1.601l-2.22 13.946c-2.686-1.068-5.563-1.602-8.627-1.602-4.752 0-8.385 1.084-10.899 3.254-2.513 2.135-3.993 5.458-4.441 9.969h15.96V296h-16.114v6.302h16.115v8.264h-16.115c.172 4.545 1.393 7.903 3.666 10.072 2.307 2.17 6.094 3.254 11.363 3.254 3.409 0 6.44-.516 9.092-1.549l2.22 13.895c-4.58 1.033-9.107 1.549-13.584 1.549-9.297 0-16.717-2.41-22.261-7.23-5.51-4.822-8.403-11.486-8.678-19.991h-8.523v-8.264h8.523v-6.302h-8.523v-8.213h8.677c.655-8.54 3.857-15.202 9.608-19.989 5.75-4.786 13.344-7.18 22.78-7.18zm-72.973 4.156c2.891 0 4.325 1.808 4.01 5.055-.204 2.1-3.276 3.88-5.34 3.093-1.805-.688-2.66-1.968-2.66-3.974 0-2.64 1.467-4.174 3.99-4.174zm181.633 8.588c5.128.026 8.619 3.106 9.018 8.08.257 3.212-1.098 5.738-3.985 7.424-1.767 1.032-7.478 1.58-11.453 1.097-2.581-.313-3.216-1.53-3.187-6.115.04-6.412 3.02-10.05 8.56-10.451.356-.026.705-.037 1.047-.035z"/></g><g><path style="isolation:auto;mix-blend-mode:normal" color="#000" overflow="visible" fill="#fff" fill-rule="evenodd" d="M107.865 123.232H333.13v271.627H107.865z"/><path style="isolation:auto;mix-blend-mode:normal" color="#000" overflow="visible" fill="#e3e3e3" fill-rule="evenodd" d="M119.153 141.553h26.071v26.072h-26.071zM119.153 176.761h26.071v26.072h-26.071zM119.153 211.97h26.071v26.072h-26.071zM119.153 247.178h26.071v26.072h-26.071zM119.153 282.386h26.071v26.072h-26.071zM119.153 317.594h26.071v26.072h-26.071zM119.153 352.803h26.071v26.072h-26.071zM149.867 141.82h100.94v15.204h-100.94zM149.867 176.877h100.94v15.203h-100.94zM149.867 211.931h100.94v15.203h-100.94zM149.867 246.986h100.94v15.204h-100.94zM149.867 282.043h100.94v15.203h-100.94zM149.867 317.098h100.94V332.3h-100.94zM149.867 352.153h100.94v15.203h-100.94zM257.683 142h60.979v15.203h-60.98zM257.683 177.056h60.979v15.203h-60.98zM257.683 212.11h60.979v15.203h-60.98zM257.683 247.165h60.979v15.203h-60.98zM257.683 282.221h60.979v15.203h-60.98zM257.683 317.276h60.979v15.204h-60.98zM257.683 352.332h60.979v15.203h-60.98z"/><g fill="#69bc1b"><path d="M403.545 279.793l-26.143-22.975a4.012 4.012 0 0 0-2.92-.996 4.035 4.035 0 0 0-2.768 1.365L276.89 365.11l-33.716-44.626a4.02 4.02 0 0 0-2.659-1.558 3.976 3.976 0 0 0-2.985.776l-27.77 20.978a4.03 4.03 0 0 0-.786 5.645l62.43 82.63a4.035 4.035 0 0 0 3.067 1.598h.147a4.029 4.029 0 0 0 3.03-1.37L403.91 285.48a4.027 4.027 0 0 0-.365-5.688z"/></g></g><g><path d="M463.256 427.864l-.11-.158c.043.01.08.01.124.007-.005.05.004.104-.014.15m-4.194-4.532c-.04-.046-.093-.073-.133-.12.035.002.08-.002.118 0-.003.036.01.076.015.12m-4.89-3.75c-.049-.042-.11-.064-.16-.105.045-.004.085-.016.117-.024l.042.128m-5.438-2.906c-.056-.013-.114-.049-.175-.07a.492.492 0 0 0 .109-.056c.019.048.045.091.066.126m-6.033-1.998c.038-.035.067-.065.107-.077.035.038.059.059.083.115-.061-.022-.122-.044-.19-.038m-34.378 8.906c.05.005.098-.013.156-.013-.048.054-.096.094-.145.148.004-.05-.008-.09-.011-.135m4.854-3.823a.63.63 0 0 1 .151.015l-.167.114c.019-.047.006-.087.016-.129m5.425-2.986c.046.02.089.029.13.039-.052.032-.113.046-.166.078a.659.659 0 0 1 .036-.117m5.832-2.05c.034.038.09.051.124.066-.049.018-.117.024-.183.052a.647.647 0 0 1 .06-.118m6.083-1.056l.116.072c-.068.006-.122.015-.189.02a.485.485 0 0 0 .073-.092m6.18-.047c.035.038.08.07.114.108a2.495 2.495 0 0 1-.201-.019c.026-.016.067-.065.087-.089m-32.507 14.658c.002-.037-.024-.08-.03-.125.055-.01.1-.013.157-.036-.044.062-.09.103-.127.16m-3.327 5.176c-.021-.035-.029-.066-.042-.105.04-.013.075-.034.115-.047-.027.052-.04.108-.073.152m-2.423 5.688c-.021-.034-.055-.073-.069-.112.043-.026.081-.061.125-.088-.017.07-.04.13-.056.2m-1.484 5.98a.464.464 0 0 0-.082-.093c.044-.027.082-.062.12-.097-.009.065-.022.12-.038.19m-.455 6.155c-.03-.03-.067-.054-.102-.092.043-.026.062-.073.1-.108-.009.064.005.127.002.2m.543 6.138c-.037-.025-.071-.04-.101-.069.024-.038.035-.08.066-.124.016.062.016.121.035.193m1.54 5.965c-.024-.02-.065-.03-.104-.054.024-.038.026-.075.05-.114.022.058.045.115.055.168m5.802 10.765c.014-.055.009-.1.015-.15l.117.153c-.036-.002-.081.002-.132-.003m-3.27-5.132c-.041-.011-.078-.012-.126-.03.011-.043.02-.107.029-.148.028.065.068.112.096.178m71.397-42.402a5.171 5.171 0 0 0-.198-.519c-.1-.2-.227-.37-.352-.555a.505.505 0 0 1-.05-.1l-.008.005a4.786 4.786 0 0 0-3.31-1.945 4.81 4.81 0 0 0-.898-3.385 4.773 4.773 0 0 0-4.099-1.936c-.064-1.17-.53-2.318-1.444-3.193a4.745 4.745 0 0 0-4.354-1.247 4.719 4.719 0 0 0-1.945-2.91 4.764 4.764 0 0 0-4.508-.513 4.695 4.695 0 0 0-2.392-2.554 4.793 4.793 0 0 0-4.536.238 4.828 4.828 0 0 0-2.781-2.126c-1.604-.453-3.241-.032-4.435.983a4.721 4.721 0 0 0-3.076-1.638 4.75 4.75 0 0 0-4.214 1.689 4.782 4.782 0 0 0-7.198 1.25c-1.008-.58-2.221-.821-3.46-.538-1.62.351-2.864 1.515-3.426 2.96a4.936 4.936 0 0 0-1.62-.324c-.622-.01-1.266.1-1.884.347a4.814 4.814 0 0 0-2.892 3.487 4.812 4.812 0 0 0-3.455.608 4.813 4.813 0 0 0-2.282 3.92 4.718 4.718 0 0 0-3.304 1.168c-1.26 1.078-1.812 2.696-1.611 4.244a4.707 4.707 0 0 0-3.06 1.682 4.779 4.779 0 0 0-.894 4.445c-1.114.35-2.12 1.084-2.75 2.168a4.774 4.774 0 0 0-.143 4.531 4.79 4.79 0 0 0-2.36 2.593 4.822 4.822 0 0 0 .6 4.49c-.947.699-1.653 1.712-1.902 2.954a4.831 4.831 0 0 0 1.338 4.336 4.775 4.775 0 0 0-1.39 3.209 4.78 4.78 0 0 0 2.034 4.064c-.67.955-1.018 2.151-.84 3.393a4.734 4.734 0 0 0 2.66 3.67 4.804 4.804 0 0 0-.276 3.498 4.805 4.805 0 0 0 3.234 3.176 4.797 4.797 0 0 0 .311 3.495 4.764 4.764 0 0 0 3.713 2.6 4.75 4.75 0 0 0 .866 3.392c.529.731 1.23 1.238 2.003 1.57 1.269 1.512 15.675 1.315 21.185 7.495 18.657 20.914 49.528 63.945 71.014 70.092 3.196.926 6.186 1.029 8.894.107l.856-.322c.59-.255 1.187-.56 1.767-.927.225-.138.439-.292.66-.451a11.855 11.855 0 0 0 1.854-1.68c1.264-1.4 2.217-3.097 2.875-5.063 7.203-21.35-19.765-73.227-33.744-102.843-4.195-8.893 1.745-16.91-4.773-23.09" fill="#92d125"/><path d="M511.03 552.543c-.658 1.966-1.61 3.663-2.875 5.064a11.855 11.855 0 0 1-1.854 1.679c-.22.16-.435.313-.66.45-.58.368-1.176.673-1.766.927l-.857.323c-2.708.922-5.698.819-8.893-.106-1.388-6.723-4.265-17.938-8.49-21.977-6.181-5.901-11.886-4.865-18.59-11.215.594.312 10.693 5.664 12.297 2.882 1.655-2.872-19.784-14.56-24.803-27.996 0 0 18.367 18.306 17.726 9.277 0 0-3.06-8.413-7.126-18.332-3.601-8.794-7.997-18.772-11.758-25.134 0 0 22.714 32.853 26.335 42.108 0 0 1.58-3.347 2.879-7.52 1.294-4.18 2.331-9.187 1.23-12.554.263.563 4.349 9.783.954 27.014-.606 3.037 6.504 10.052 6.504 10.052s2.094-17.266 5.886-16.8c0 0-2.422 20.12-1.146 22.728 1.012 2.083 10.962 14.223 15.007 19.13" fill="#69bc1b"/><path d="M541.497 512.32c-.308.409-.626.817-.97 1.227-.134.171-.273.34-.421.507-.135.163-.275.322-.415.481-22.377 25.463-48.72-8.66-60.743-29.984-5.509-9.768-17.99-19.263-27.709-27.416-7.437-6.246-9.484-14.28-10.03-17.7-.17-1.043-.2-1.658-.2-1.658.54-2.573 1.689-5.719 3.886-8.276a6.82 6.82 0 0 1 .333-.379.125.125 0 0 1 .045-.05c.222-.244.46-.476.7-.703 1.862-1.733 4.33-3.05 7.576-3.476l.005-.005c1.674-.218 3.548-.203 5.652.107 12.606 1.871 18.699 16.45 35.423 27.297 18.555 12.035 67.531 32.57 46.868 60.029" fill="#005913"/><path d="M541.497 512.32c-.282.416-.604.829-.956 1.24a8.617 8.617 0 0 1-.435.495c-14.34 15.517-42.39-16.073-56.26-35.078-6.396-8.758-18.614-18.552-28.259-26.79-6.553-5.593-9.783-11.537-11.186-14.774-.658-1.531-.912-2.458-.912-2.458-.013-1.775.32-3.842 1.434-5.43.093-.142.194-.276.305-.403a.125.125 0 0 1 .045-.05c.208-.257.44-.492.7-.703 1.318-1.094 3.28-1.705 6.149-1.361 1.278.146 2.732.49 4.387 1.056 10.947 3.759 18.702 16.445 34.733 28.083 17.782 12.913 62.718 38.054 50.255 56.174" fill="#006b17"/><path d="M453.554 424.888l-.005.005c-.263.357-.765 1.115-1.427 2.115-.993 1.496-2.347 3.527-3.783 5.52-1.311 1.811-2.69 3.588-3.938 4.885-1.284 1.347-2.42 2.179-3.193 2.021-.343-.061-.611-.321-.789-.817 0 0-2.566-4.74-4.124-10.034-1.55-5.303-4.345-7.653-5.977-8.151-.684-.212-.02-1.475.977-2.883 1.387-1.937 3.414-4.13 3.414-4.13s5.732 6.8 8.606 6.942c2.873.14 11.809 2.43 10.239 4.527" fill="#479706"/><path d="M635.395 440.846a251.588 251.588 0 0 1-6.352 7.181c-.475.528-.967 1.053-1.47 1.593l-3.34-2.684s.288-.532.806-1.468a189.254 189.254 0 0 1 5.244-8.791 171.312 171.312 0 0 1 3.273-5c3.41-5.01 7.467-10.404 11.71-14.755l4.983 4.005c-2.354 3.814-5.63 8.56-10.165 14.236a199.295 199.295 0 0 1-4.689 5.683" fill="#3d8205"/><path d="M625.827 447.185l-.279-.614-.51-1.103-3.109-6.79s1.618-1.388 3.753-4.433c3.18-4.528 7.516-12.74 9.373-25.528l3.52 2.828c.467 3.454-.401 9.52-5.02 20.132a158.163 158.163 0 0 1-2.521 5.49 214.416 214.416 0 0 1-4.32 8.398c-.295.527-.586 1.073-.887 1.62" fill="#479706"/><path d="M634.063 449.257l-5.02-1.228-4.03-.987c.18-.156.354-.315.536-.47.388-.345.78-.678 1.165-1.006 5.105-4.402 9.532-7.798 13.37-10.401 8.751-5.95 14.413-7.773 18.024-7.922l3.918 3.149c-21.106 7.039-27.963 18.865-27.963 18.865" fill="#479706"/><path d="M639.643 461.141c-2.265 2.819-7.815 8.84-14.811 16.198-1.295 1.353-2.633 2.758-4.02 4.192a1749.588 1749.588 0 0 1-25.755 26.245c-1.057 1.067-2.116 2.115-3.144 3.135-9.678 9.573-17.352 16.845-18.919 17.588-8.079 3.827-10.723 3.115-13.331 1.019-2.608-2.096-3.872-4.525-1.874-13.238.228-.995 2.182-4.506 5.232-9.563.551-.902 1.125-1.854 1.738-2.843 9.237-15.087 25.561-40.136 36.058-55.432a411.254 411.254 0 0 1 3.402-4.913c2.151-3.066 3.88-5.432 5.005-6.833 4.649-5.785 11.38-4.633 16.458-2.45 1.795.765 3.378 1.665 4.601 2.43.269.173.522.333.751.492 1.139.75 1.808 1.288 1.808 1.288s.485.39 1.234 1.087c.38.357.826.794 1.32 1.303a33.58 33.58 0 0 1 2.866 3.37c3.328 4.512 6.144 10.998 1.381 16.925" fill="#f58042"/><path d="M604.222 443.528s6.252 2.782 12.215 9.816c0 0-12.665-6.498-15.624-4.9l3.409-4.916zM587.295 469.135s6.252 2.782 12.215 9.816c0 0-12.666-6.498-15.624-4.9l3.409-4.916zM571.98 510.62s-4.636-2.39-8.959-3.903c.551-.902 1.125-1.854 1.739-2.843a41.845 41.845 0 0 1 7.22 6.747M624.84 477.343s-4.064-5.507-12.216-9.816c0 0 9.071 10.97 8.148 14.202l4.067-4.386zM595.061 507.776c-1.064 1.067-2.12 2.114-3.15 3.137-1.986-4.478-7.505-11.146-7.505-11.146 5.24 2.765 8.792 6.03 10.655 8.009" fill="#e26c39"/><g><path d="M460.718 529.144c-4.91.475-9.76-.579-14.469-3.604-15.088-9.7-15.116-25.218-7.078-35.592 10.254-13.235 20.95-9.277 40.56-17.596 11.863-5.035 20.108-12.477 25.25-18.396 4.632-5.325 6.755-9.42 6.755-9.42l19.268 14.928-.03.039c-2.288 2.953-4.832 6.465-7.6 10.322-16.251 22.651-40.047 57.145-62.656 59.319" fill="#591832"/><path d="M525.18 473.575s-.829-1.436-1.807-3.75c-1.785-4.23-4.06-11.395-2.665-18.105-5.135 2.53-11.216 2.654-15.727 2.236-3.85-.358-6.553-1.11-6.553-1.11 11.788-10.099 15.669-10.065 19.402-9.083.314.084.74.195 1.235.328 0 0 6.378 2.432 10.212-8.695l2.812 1.635 1.697.985s-9.222 5.432-4.655 14.503c1.023 2.037 2.02 3.965 1.846 6.925.002.02-.002.041-.004.059-.192 3.117-1.689 7.373-5.793 14.072" fill="#479706"/></g><g><path d="M567.585 440.67l-2.826-1.046s1.936-5.782-2.224-4.835c-3.126.707-3.077 8.1.536 11.53.812.765 1.808 1.34 2.984 1.589.558.114 1.16.165 1.801.123l-2.468.698-4.293 1.221-4.811 1.363-4.881 1.381-.42.123s.25-.12.624-.409a7.081 7.081 0 0 0 1.715-1.926c-.001-.006-.001-.006.005-.008.768-1.265 1.411-3.12 1.316-5.746-.13-3.433.272-7.495 2.223-10.214 1.086-1.515 2.657-2.614 4.882-2.95 10.38-1.565 8.998 8.44 5.837 9.106" fill="#479706"/><path d="M581.702 485.88c3.82 13.944 3.291 27.363-.644 36.59-.016.049-.041.093-.06.135-1.144 2.654-2.572 4.953-4.261 6.813-2.103 2.329-4.618 3.969-7.492 4.756-13.19 3.614-27.155-12.736-35.323-35.204-8.183-22.494-8.934-42.426 12.451-48.285 2.26-.619 4.6-.673 6.955-.211l.006-.002c.982.192 1.965.472 2.95.841 1.957.72 3.91 1.774 5.812 3.132.099.062.193.133.286.204 8.133 5.906 15.483 17.226 19.32 31.232" fill="#ff483b"/><path d="M561.452 491.03c6.316 23.057 22.131 38.816 35.326 35.202 13.194-3.615 16.925-20.616 12.454-48.29-3.813-23.6-13.869-41.08-35.327-35.202-13.194 3.615-18.77 25.235-12.453 48.29" fill="#ff483b"/><path d="M587.886 484.187c4.866 17.764 4.684 34.126.228 41.831-1.307 2.253-2.973 3.764-4.99 4.346a.695.695 0 0 1-.115.04c-1.962.537-4.084.168-6.272-.986-7.849-4.112-16.53-18.254-21.471-36.295-4.788-17.475-9.405-32.188-3.863-40.428.064-.092.133-.193.204-.286a11.7 11.7 0 0 1 1.715-1.926c-.002-.007-.002-.007.006-.01l.007-.001c1.68-1.538 3.915-2.737 6.802-3.557l.118-.033a17.367 17.367 0 0 1 2.817-.563c1.559-.19 3.001-.132 4.35.153 10.735 2.229 15.205 18.52 20.464 37.715" fill="#ff6340"/></g><g><path d="M640.483 452.762a251.588 251.588 0 0 1-6.352 7.182c-.476.528-.967 1.052-1.47 1.592l-3.34-2.683s.287-.532.806-1.468a189.254 189.254 0 0 1 5.244-8.792 171.312 171.312 0 0 1 3.272-5c3.411-5.01 7.468-10.404 11.71-14.755l4.984 4.005c-2.354 3.814-5.63 8.56-10.166 14.236a199.295 199.295 0 0 1-4.688 5.683" fill="#3d8205"/><path d="M630.914 459.102l-.278-.614-.51-1.103-3.109-6.791s1.618-1.388 3.753-4.432c3.18-4.528 7.516-12.74 9.373-25.528l3.52 2.828c.467 3.453-.402 9.518-5.02 20.131a158.163 158.163 0 0 1-2.521 5.491 214.416 214.416 0 0 1-4.321 8.398c-.294.526-.586 1.072-.887 1.62" fill="#479706"/><path d="M639.15 461.173l-5.02-1.228-4.03-.987c.18-.155.355-.314.536-.47.389-.344.78-.678 1.166-1.006 5.104-4.402 9.532-7.797 13.37-10.4 8.751-5.95 14.412-7.773 18.023-7.922l3.919 3.148c-21.106 7.04-27.964 18.865-27.964 18.865" fill="#479706"/><path d="M644.731 473.058c-2.265 2.818-7.816 8.84-14.812 16.198-1.295 1.352-2.632 2.757-4.019 4.192a1749.588 1749.588 0 0 1-25.755 26.245c-1.057 1.066-2.116 2.114-3.144 3.135-9.678 9.572-17.352 16.845-18.92 17.587-8.078 3.827-10.723 3.115-13.33 1.02-2.608-2.096-3.873-4.526-1.874-13.238.228-.996 2.182-4.506 5.232-9.564.55-.901 1.125-1.853 1.738-2.843 9.236-15.086 25.56-40.135 36.057-55.431a411.254 411.254 0 0 1 3.402-4.914c2.152-3.065 3.88-5.431 5.006-6.833 4.649-5.784 11.38-4.633 16.458-2.45 1.795.766 3.378 1.665 4.6 2.431.27.173.522.333.752.491 1.139.75 1.808 1.288 1.808 1.288s.484.39 1.234 1.087c.38.357.826.794 1.319 1.303a33.58 33.58 0 0 1 2.867 3.37c3.327 4.513 6.144 10.999 1.381 16.926" fill="#f58042"/><path d="M609.31 455.444s6.252 2.782 12.215 9.817c0 0-12.666-6.498-15.624-4.901l3.408-4.916zM592.382 481.051s6.253 2.783 12.215 9.816c0 0-12.665-6.497-15.623-4.9l3.408-4.916zM577.067 522.537s-4.635-2.39-8.958-3.904c.55-.901 1.125-1.853 1.738-2.843a41.845 41.845 0 0 1 7.22 6.747M629.927 489.26s-4.063-5.508-12.215-9.817c0 0 9.071 10.97 8.147 14.203l4.068-4.387zM600.149 519.692c-1.064 1.068-2.121 2.114-3.15 3.138-1.986-4.478-7.505-11.147-7.505-11.147 5.24 2.765 8.791 6.031 10.655 8.01" fill="#e26c39"/></g><path d="M416.514 490.982h218.698l-20 99.5H436.514z" style="isolation:auto;mix-blend-mode:normal" color="#000" overflow="visible" fill="#fff" fill-rule="evenodd"/><text y="2833.907" x="-1958.993" style="line-height:125%;-inkscape-font-specification:'roboto, Normal';text-align:start" font-weight="400" font-size="79.649" font-family="roboto" letter-spacing="0" word-spacing="0" fill="#92d125" transform="translate(2414.596 -2263.993)"><tspan style="-inkscape-font-specification:'roboto Heavy'" y="2833.907" x="-1958.993" font-weight="900">10€</tspan></text></g><g><g color="#000" fill-rule="evenodd"><path style="isolation:auto;mix-blend-mode:normal" overflow="visible" fill="#fff" d="M563.58 614.027h184.051v215.94h-184.05z"/><path style="isolation:auto;mix-blend-mode:normal" overflow="visible" fill="#e3e3e3" d="M570.87 622.227h39.179v11.844h-39.18zM698.884 644.55h39.18v11.845h-39.18zM571.553 667.784h166.284v11.845H571.553zM586.693 684.488h151.143v11.845H586.693zM586.693 701.193h151.143v11.844H586.693zM586.693 717.897h151.143v11.845H586.693zM586.693 734.601h151.143v11.845H586.693zM586.693 751.305h151.143v11.845H586.693zM586.693 768.01h151.143v11.845H586.693zM690 784.41h48.291v11.845h-48.29zM583.472 684.488h-12.18v11.845h12.18zM583.472 701.193h-12.18v11.844h12.18zM583.472 717.897h-12.18v11.845h12.18zM583.472 734.601h-12.18v11.845h12.18zM583.472 751.305h-12.18v11.845h12.18zM583.472 768.01h-12.18v11.845h12.18z"/></g><g fill="#69bc1b"><path d="M585.937 685.206l-1.797-1.579a.276.276 0 0 0-.39.026l-6.517 7.416-2.317-3.066a.276.276 0 0 0-.388-.054l-1.908 1.442a.277.277 0 0 0-.054.387l4.29 5.679c.05.066.128.107.211.11h.01c.08 0 .155-.034.208-.094l8.677-9.876a.277.277 0 0 0-.025-.39z"/></g><g fill="#69bc1b"><path d="M585.937 701.528l-1.797-1.58a.276.276 0 0 0-.39.026l-6.517 7.417-2.317-3.067a.276.276 0 0 0-.388-.054l-1.908 1.442a.277.277 0 0 0-.054.388l4.29 5.678c.05.067.128.107.211.11h.01c.08 0 .155-.034.208-.094l8.677-9.875a.277.277 0 0 0-.025-.391z"/></g><g fill="#69bc1b"><path d="M585.937 717.85l-1.797-1.58a.276.276 0 0 0-.39.026l-6.517 7.417-2.317-3.067a.276.276 0 0 0-.388-.054l-1.908 1.442a.277.277 0 0 0-.054.388l4.29 5.678c.05.067.128.107.211.11h.01c.08 0 .155-.034.208-.094l8.677-9.876a.277.277 0 0 0-.025-.39z"/></g><g fill="#69bc1b"><path d="M585.937 734.171l-1.797-1.579a.276.276 0 0 0-.39.026l-6.517 7.416-2.317-3.066a.276.276 0 0 0-.388-.054l-1.908 1.442a.277.277 0 0 0-.054.387l4.29 5.679c.05.066.128.107.211.11h.01c.08 0 .155-.034.208-.094l8.677-9.876a.277.277 0 0 0-.025-.39z"/></g></g><g><path d="M758.037 548.457a2.84 2.84 0 1 0 0 5.679 2.84 2.84 0 0 0 0-5.68zm0 8.058a1.204 1.204 0 1 0 0 2.407 1.204 1.204 0 0 0 0-2.407zm8.558-1.172l6.894 6.894a18.828 18.828 0 0 0 3.212-7.751h-9.751a9.43 9.43 0 0 1-.355.857zm-5.368 4.867v9.75a18.839 18.839 0 0 0 7.75-3.213l-6.894-6.894a9.429 9.429 0 0 1-.856.357zm5.367-12.96c.132.278.251.563.356.856h9.75a18.833 18.833 0 0 0-3.212-7.75l-6.894 6.894zm-12.603-4.51c.279-.132.564-.253.856-.357v-9.75a18.836 18.836 0 0 0-7.75 3.212l6.894 6.895zm-6.894 24.007a18.833 18.833 0 0 0 7.75 3.213v-9.75a9.442 9.442 0 0 1-.856-.356l-6.894 6.893zm16.16-15.451a1.204 1.204 0 1 0 2.407 0 1.204 1.204 0 0 0-2.408 0zm-10.44 0a1.204 1.204 0 1 0-2.407 0 1.204 1.204 0 0 0 2.408 0zm16.16-15.451a18.833 18.833 0 0 0-7.75-3.212v9.75c.292.104.578.224.856.355l6.894-6.893zm-10.94 10.232a1.204 1.204 0 1 0 0-2.409 1.204 1.204 0 0 0 0 2.409zm0-25.78c-17.121 0-31 13.879-31 31 0 17.12 13.879 31 31 31 17.12 0 31-13.88 31-31 0-17.122-13.879-31-31-31zm0 53.142c-12.23 0-22.143-9.913-22.143-22.142 0-12.23 9.914-22.143 22.143-22.143 12.23 0 22.142 9.914 22.142 22.143 0 12.228-9.913 22.142-22.142 22.142zm-8.913-18.953h-9.75a18.827 18.827 0 0 0 3.212 7.75l6.894-6.894a9.366 9.366 0 0 1-.356-.856zm.355-7.237l-6.894-6.894a18.828 18.828 0 0 0-3.212 7.751h9.75c.106-.293.224-.579.356-.857zm232.2 1.208a2.84 2.84 0 1 0 0 5.68 2.84 2.84 0 0 0 0-5.68zm3.189 11.753v9.75a18.827 18.827 0 0 0 7.75-3.213l-6.893-6.894a9.328 9.328 0 0 1-.857.357zm7.75-24.365a18.826 18.826 0 0 0-7.75-3.212v9.75c.292.104.577.225.856.357l6.894-6.895zm-2.382 19.497l6.893 6.895a18.822 18.822 0 0 0 3.213-7.751h-9.75a9.363 9.363 0 0 1-.356.856zm50.775-23.171c-1.1-2.956-5.07-1.874-6.262-3.758 6.821-9.796-1.004-27.995-.313-27.144-2.573-4.01-8.387-6.161-12.962-8.174-6.397-2.816-13.338-5.91-20.29-8.266-3.82-1.295-7.346-1.722-11.272-3.007-4.503-1.472-8.539-3.56-8.848-3.56l.333.304c-.3-.213-.399-.305-.333-.304-35.7-34.5-49.933-38.757-63.792-42.028-.34-.08-17.032-1.002-17.032-1.002s-148.07.048-190.369.048c-2.48.568-5.127 2.226-7.013 3.46-3.648 2.384-4.115 6.809-5.761 11.27-3.405 9.227-12.245 33.48-12.274 79.905 0 1.134-3.372.157-4.008 1.253-9.707 16.736 6.914 24.547 15.03 24.547 4.633 0 29.055 3.758 29.055 3.758h1.435a32.638 32.638 0 0 1-.934-7.766c0-17.984 14.58-32.562 32.563-32.562 17.984 0 32.563 14.578 32.563 32.562a32.66 32.66 0 0 1-.934 7.766h160.744a32.358 32.358 0 0 1-1.002-8.016c0-17.845 14.467-32.312 32.312-32.312 17.846 0 32.313 14.467 32.313 32.312 0 2.767-.349 5.453-1.003 8.016h9.52s4.264-2.117 5.26-3.507c.949-1.325.753-2.698 2.254-3.507 6.733-3.63 11.515-3.618 11.522-14.277 0-1.965.324-4.79-.502-6.011zm-97.072-59.965c-1.05 1.595-3.209.992-3.257 12.273-16.28-.166-48.343-.5-48.343-.5s-.096-38.166-.243-38.827a.064.064 0 0 1-.008.001c.003-.014.006-.014.008-.001 6.999-1.169 20.135-1.667 29.299.502 23.813 6.91 32.586 21.58 37.737 27.858-2.463-.037-13.405-1.728-15.193-1.306zm33.693 70.533a9.6 9.6 0 0 1 .856-.356v-9.75a18.826 18.826 0 0 0-7.75 3.212l6.894 6.894zm12.604 4.51c.132.278.25.564.355.857h9.75a18.823 18.823 0 0 0-3.212-7.75l-6.893 6.893zm-8.558-26.953c-17.12 0-31 13.88-31 31 0 17.121 13.88 31 31 31 17.121 0 31-13.88 31-31 0-17.12-13.879-31-31-31zm0 53.143c-12.229 0-22.142-9.913-22.142-22.142 0-12.23 9.913-22.143 22.142-22.143 12.23 0 22.143 9.914 22.143 22.143 0 12.228-9.913 22.142-22.143 22.142zm0-16.924a1.204 1.204 0 1 0 .001 2.408 1.204 1.204 0 0 0 0-2.408zm-5.22-5.22a1.204 1.204 0 1 0-2.407.001 1.204 1.204 0 0 0 2.408 0zm-3.337-4.045l-6.894-6.894a18.827 18.827 0 0 0-3.212 7.75h9.75a9.5 9.5 0 0 1 .356-.856zm13.776 4.046a1.204 1.204 0 1 0 2.408 0 1.204 1.204 0 0 0-2.408 0zm-5.219-5.22a1.204 1.204 0 1 0 0-2.408 1.204 1.204 0 0 0 0 2.409zm-10.94 20.67a18.833 18.833 0 0 0 7.75 3.213v-9.749a9.478 9.478 0 0 1-.856-.357l-6.894 6.894zm2.027-12.26h-9.75a18.828 18.828 0 0 0 3.212 7.751l6.894-6.894a9.317 9.317 0 0 1-.356-.857z" overflow="visible" fill="#404040"/><g color="#000" fill-rule="evenodd"><path style="isolation:auto;mix-blend-mode:normal" overflow="visible" fill="#f58042" d="M708.583 493.196v19.73h12.73v-19.73z"/><path style="isolation:auto;mix-blend-mode:normal" overflow="visible" fill="#92d125" d="M721.263 493.196v19.73h12.729v-19.73z"/><path style="isolation:auto;mix-blend-mode:normal" overflow="visible" fill="#ff483b" d="M733.942 493.196v19.73h12.729v-19.73z"/><path style="isolation:auto;mix-blend-mode:normal" overflow="visible" fill="#f58042" d="M752.633 493.196v19.73h12.729v-19.73z"/><path style="isolation:auto;mix-blend-mode:normal" overflow="visible" fill="#92d125" d="M765.312 493.196v19.73h12.729v-19.73z"/><path style="isolation:auto;mix-blend-mode:normal" overflow="visible" fill="#ff483b" d="M777.991 493.196v19.73h12.73v-19.73z"/><g><path style="isolation:auto;mix-blend-mode:normal" overflow="visible" fill="#f58042" d="M796.682 493.196v19.73h12.729v-19.73z"/><path style="isolation:auto;mix-blend-mode:normal" overflow="visible" fill="#92d125" d="M809.361 493.196v19.73h12.729v-19.73z"/><path style="isolation:auto;mix-blend-mode:normal" overflow="visible" fill="#ff483b" d="M822.04 493.196v19.73h12.73v-19.73z"/></g><g><path style="isolation:auto;mix-blend-mode:normal" overflow="visible" fill="#f58042" d="M840.73 493.196v19.73h12.73v-19.73z"/><path style="isolation:auto;mix-blend-mode:normal" overflow="visible" fill="#92d125" d="M853.41 493.196v19.73h12.73v-19.73z"/><path style="isolation:auto;mix-blend-mode:normal" overflow="visible" fill="#ff483b" d="M866.09 493.196v19.73h12.728v-19.73z"/></g></g><g color="#000" fill-rule="evenodd"><path style="isolation:auto;mix-blend-mode:normal" overflow="visible" fill="#f58042" d="M708.583 470.29v19.73h12.73v-19.73z"/><path style="isolation:auto;mix-blend-mode:normal" overflow="visible" fill="#92d125" d="M721.263 470.29v19.73h12.729v-19.73z"/><path style="isolation:auto;mix-blend-mode:normal" overflow="visible" fill="#ff483b" d="M733.942 470.29v19.73h12.729v-19.73z"/><path style="isolation:auto;mix-blend-mode:normal" overflow="visible" fill="#f58042" d="M752.633 470.29v19.73h12.729v-19.73z"/><path style="isolation:auto;mix-blend-mode:normal" overflow="visible" fill="#92d125" d="M765.312 470.29v19.73h12.729v-19.73z"/><path style="isolation:auto;mix-blend-mode:normal" overflow="visible" fill="#ff483b" d="M777.991 470.29v19.73h12.73v-19.73z"/><g><path style="isolation:auto;mix-blend-mode:normal" overflow="visible" fill="#f58042" d="M796.682 470.29v19.73h12.729v-19.73z"/><path style="isolation:auto;mix-blend-mode:normal" overflow="visible" fill="#92d125" d="M809.361 470.29v19.73h12.729v-19.73z"/><path style="isolation:auto;mix-blend-mode:normal" overflow="visible" fill="#ff483b" d="M822.04 470.29v19.73h12.73v-19.73z"/></g><g><path style="isolation:auto;mix-blend-mode:normal" overflow="visible" fill="#f58042" d="M840.73 470.29v19.73h12.73v-19.73z"/><path style="isolation:auto;mix-blend-mode:normal" overflow="visible" fill="#92d125" d="M853.41 470.29v19.73h12.73v-19.73z"/><path style="isolation:auto;mix-blend-mode:normal" overflow="visible" fill="#ff483b" d="M866.09 470.29v19.73h12.728v-19.73z"/></g></g><g color="#000" fill-rule="evenodd"><path style="isolation:auto;mix-blend-mode:normal" overflow="visible" fill="#f58042" d="M708.583 447.385v19.73h12.73v-19.73z"/><path style="isolation:auto;mix-blend-mode:normal" overflow="visible" fill="#92d125" d="M721.263 447.385v19.73h12.729v-19.73z"/><path style="isolation:auto;mix-blend-mode:normal" overflow="visible" fill="#ff483b" d="M733.942 447.385v19.73h12.729v-19.73z"/><path style="isolation:auto;mix-blend-mode:normal" overflow="visible" fill="#f58042" d="M752.633 447.385v19.73h12.729v-19.73z"/><path style="isolation:auto;mix-blend-mode:normal" overflow="visible" fill="#92d125" d="M765.312 447.385v19.73h12.729v-19.73z"/><path style="isolation:auto;mix-blend-mode:normal" overflow="visible" fill="#ff483b" d="M777.991 447.385v19.73h12.73v-19.73z"/><g><path style="isolation:auto;mix-blend-mode:normal" overflow="visible" fill="#f58042" d="M796.682 447.385v19.73h12.729v-19.73z"/><path style="isolation:auto;mix-blend-mode:normal" overflow="visible" fill="#92d125" d="M809.361 447.385v19.73h12.729v-19.73z"/><path style="isolation:auto;mix-blend-mode:normal" overflow="visible" fill="#ff483b" d="M822.04 447.385v19.73h12.73v-19.73z"/></g><g><path style="isolation:auto;mix-blend-mode:normal" overflow="visible" fill="#f58042" d="M840.73 447.385v19.73h12.73v-19.73z"/><path style="isolation:auto;mix-blend-mode:normal" overflow="visible" fill="#92d125" d="M853.41 447.385v19.73h12.73v-19.73z"/><path style="isolation:auto;mix-blend-mode:normal" overflow="visible" fill="#ff483b" d="M866.09 447.385v19.73h12.728v-19.73z"/></g></g></g><g><path d="M283.539 572.731a2.84 2.84 0 1 1 0 5.68 2.84 2.84 0 0 1 0-5.68zm0 8.058a1.204 1.204 0 1 1 0 2.408 1.204 1.204 0 0 1 0-2.408zm-8.558-1.171l-6.894 6.894a18.828 18.828 0 0 1-3.212-7.751h9.751c.105.292.223.578.355.857zm5.368 4.867v9.75a18.839 18.839 0 0 1-7.75-3.213l6.894-6.894c.278.132.564.252.856.357zm-5.367-12.96a9.382 9.382 0 0 0-.356.856h-9.75a18.833 18.833 0 0 1 3.212-7.75l6.894 6.894zm12.603-4.51a9.429 9.429 0 0 0-.856-.358v-9.75a18.836 18.836 0 0 1 7.75 3.213l-6.894 6.894zm6.894 24.007a18.833 18.833 0 0 1-7.75 3.212v-9.75c.292-.104.577-.224.856-.356l6.894 6.894zm-16.16-15.452a1.204 1.204 0 1 1-2.407 0 1.204 1.204 0 0 1 2.408 0zm10.44 0a1.204 1.204 0 1 1 2.407.001 1.204 1.204 0 0 1-2.408 0zm-16.16-15.45a18.833 18.833 0 0 1 7.75-3.212v9.75a9.55 9.55 0 0 0-.857.355l-6.893-6.893zm10.94 10.232a1.204 1.204 0 1 1 0-2.409 1.204 1.204 0 0 1 0 2.409zm0-25.781c17.121 0 31 13.88 31 31 0 17.12-13.879 31-31 31-17.12 0-31-13.88-31-31 0-17.12 13.879-31 31-31zm0 53.143c12.23 0 22.143-9.914 22.143-22.142 0-12.23-9.914-22.143-22.143-22.143-12.23 0-22.142 9.913-22.142 22.143 0 12.228 9.913 22.142 22.142 22.142zm8.913-18.953h9.75a18.827 18.827 0 0 1-3.212 7.75l-6.894-6.894c.132-.278.251-.564.356-.856zm-.355-7.237l6.894-6.894a18.828 18.828 0 0 1 3.212 7.751h-9.75a9.755 9.755 0 0 0-.356-.857zm-232.2 1.207a2.84 2.84 0 1 1 0 5.68 2.84 2.84 0 0 1 0-5.68zm-3.19 11.754v9.75a18.827 18.827 0 0 1-7.75-3.213l6.894-6.894c.279.132.564.252.857.357zm-7.749-24.365a18.826 18.826 0 0 1 7.75-3.212v9.75a9.38 9.38 0 0 0-.856.356l-6.894-6.894zm2.382 19.497l-6.893 6.894a18.822 18.822 0 0 1-3.213-7.75h9.75c.105.292.224.578.356.856zM.565 556.445c1.1-2.955 5.07-1.873 6.262-3.757-6.821-9.796 1.004-27.995.313-27.144 2.573-4.01 8.387-6.161 12.962-8.175 6.397-2.815 13.338-5.909 20.29-8.265 3.82-1.295 7.345-1.723 11.272-3.007 4.503-1.472 8.539-3.56 8.848-3.56l-.333.304c.3-.213.399-.305.333-.305 35.7-34.5 49.933-38.757 63.792-42.027.34-.08 17.032-1.002 17.032-1.002s148.07.048 190.369.048c2.48.568 5.127 2.226 7.013 3.459 3.648 2.385 4.115 6.81 5.761 11.272 3.405 9.226 12.245 33.48 12.274 79.904 0 1.134 3.372.156 4.008 1.253 9.707 16.736-6.914 24.546-15.03 24.547-4.633 0-29.055 3.758-29.055 3.758h-1.435c.608-2.49.934-5.09.934-7.766 0-17.984-14.58-32.563-32.563-32.563-17.984 0-32.563 14.58-32.563 32.563 0 2.677.325 5.277.933 7.766H91.24a32.358 32.358 0 0 0 1.002-8.016c0-17.846-14.467-32.313-32.312-32.313-17.846 0-32.313 14.467-32.313 32.313 0 2.767.349 5.453 1.003 8.016h-9.52s-4.264-2.117-5.26-3.507c-.949-1.326-.754-2.698-2.254-3.507C4.852 573.104.07 573.116.063 562.456c0-1.964-.324-4.788.502-6.01zm97.072-59.964c1.05 1.595 3.209.992 3.257 12.273 16.28-.166 48.343-.5 48.343-.5s.096-38.166.242-38.827l.01.001c-.004-.015-.007-.014-.01-.001-6.998-1.169-20.134-1.668-29.298.502-23.813 6.91-32.586 21.58-37.737 27.858 2.463-.038 13.405-1.728 15.193-1.306zm-33.693 70.533a9.6 9.6 0 0 0-.856-.357v-9.75a18.826 18.826 0 0 1 7.75 3.213l-6.894 6.894zm-12.604 4.51a9.39 9.39 0 0 0-.355.857h-9.75a18.823 18.823 0 0 1 3.212-7.75l6.893 6.893zm8.558-26.953c17.12 0 31 13.88 31 31 0 17.12-13.88 31-31 31-17.121 0-31-13.88-31-31 0-17.12 13.879-31 31-31zm0 53.143c12.229 0 22.142-9.914 22.142-22.142 0-12.23-9.913-22.143-22.142-22.143-12.23 0-22.143 9.913-22.143 22.143 0 12.228 9.913 22.142 22.143 22.142zm0-16.925a1.204 1.204 0 1 1-.001 2.409 1.204 1.204 0 0 1 0-2.409zm5.22-5.219a1.204 1.204 0 1 1 2.407.001 1.204 1.204 0 0 1-2.408 0zm3.337-4.045l6.894-6.894a18.827 18.827 0 0 1 3.212 7.75h-9.75a9.5 9.5 0 0 0-.356-.856zm-13.777 4.045a1.204 1.204 0 1 1-2.407 0 1.204 1.204 0 0 1 2.407 0zm5.22-5.218a1.204 1.204 0 1 1 0-2.409 1.204 1.204 0 0 1 0 2.409zm10.94 20.67a18.833 18.833 0 0 1-7.75 3.212v-9.75c.292-.104.577-.224.856-.356l6.894 6.894zM68.81 578.76h9.751a18.828 18.828 0 0 1-3.212 7.75l-6.894-6.893c.133-.279.25-.565.355-.857z" overflow="visible" fill="#404040"/><g color="#000" fill-rule="evenodd"><path style="isolation:auto;mix-blend-mode:normal" overflow="visible" fill="#f58042" d="M327.88 476.027v62.592h-46.136v-62.592z"/><path style="isolation:auto;mix-blend-mode:normal" overflow="visible" fill="#92d125" d="M268.57 476.027v62.592h-46.137v-62.592z"/><path style="isolation:auto;mix-blend-mode:normal" overflow="visible" fill="#ff483b" d="M209.258 476.027v62.592h-46.136v-62.592z"/></g></g></svg>