<?xml version="1.0" encoding="UTF-8" standalone="no"?>
<!-- Created with Inkscape (http://www.inkscape.org/) -->

<svg
   xmlns:dc="http://purl.org/dc/elements/1.1/"
   xmlns:cc="http://creativecommons.org/ns#"
   xmlns:rdf="http://www.w3.org/1999/02/22-rdf-syntax-ns#"
   xmlns:svg="http://www.w3.org/2000/svg"
   xmlns="http://www.w3.org/2000/svg"
   xmlns:sodipodi="http://sodipodi.sourceforge.net/DTD/sodipodi-0.dtd"
   xmlns:inkscape="http://www.inkscape.org/namespaces/inkscape"
   width="79.51429mm"
   height="61.985828mm"
   viewBox="0 0 281.74355 219.63482"
   id="svg8440"
   version="1.1"
   inkscape:version="0.91 r13725"
   sodipodi:docname="just_a_tool.svg">
  <defs
     id="defs8442" />
  <sodipodi:namedview
     id="base"
     pagecolor="#ffffff"
     bordercolor="#666666"
     borderopacity="1.0"
     inkscape:pageopacity="0.0"
     inkscape:pageshadow="2"
     inkscape:zoom="2.8"
     inkscape:cx="186.5891"
     inkscape:cy="152.97246"
     inkscape:document-units="px"
     inkscape:current-layer="g8397"
     showgrid="false"
     fit-margin-top="0"
     fit-margin-left="0"
     fit-margin-right="0"
     fit-margin-bottom="0"
     inkscape:window-width="1855"
     inkscape:window-height="1056"
     inkscape:window-x="1431"
     inkscape:window-y="24"
     inkscape:window-maximized="1" />
  <metadata
     id="metadata8445">
    <rdf:RDF>
      <cc:Work
         rdf:about="">
        <dc:format>image/svg+xml</dc:format>
        <dc:type
           rdf:resource="http://purl.org/dc/dcmitype/StillImage" />
        <dc:title />
      </cc:Work>
    </rdf:RDF>
  </metadata>
  <g
     inkscape:label="Layer 1"
     inkscape:groupmode="layer"
     id="layer1"
     transform="translate(106.58606,86.026639)">
    <g
       style="display:inline;opacity:1"
       id="g8397"
       transform="matrix(0.682567,0,0,0.682567,587.28841,-492.87846)">
      <g
         style="display:inline;opacity:1"
         transform="matrix(-2.0366053,-0.01356039,0.01356039,-2.0366053,517.53193,2125.7581)"
         id="g7537-7-4-3">
        <g
           transform="translate(615.73694,711.64386)"
           id="g674-6-5-9">
          <path
             inkscape:connector-curvature="0"
             id="path676-3-9-7"
             style="fill:#92d125;fill-opacity:1;fill-rule:nonzero;stroke:none"
             d="m 0,0 c -10.59,-9.13 -24.13,-26.4 -31.93,-31.77 -2.41,-1.66 -4.28,-2.18 -5.33,-0.96 -0.27,0.31 -0.53,0.7 -0.78,1.17 -0.72,1.39 -1.33,3.44 -1.67,6.02 -1.49,11.05 1.87,31.63 21.52,49.75 12.95,11.94 29.48,11.97 34.67,7.34 0.2,-0.17 0.39,-0.36 0.56,-0.55 C 21.5,25.83 13.86,11.95 0,0" />
        </g>
        <g
           transform="translate(681.72624,739.90066)"
           id="g678-1-35-2">
          <path
             inkscape:connector-curvature="0"
             id="path680-7-7-5"
             style="fill:#92d125;fill-opacity:1;fill-rule:nonzero;stroke:none"
             d="m 0,0 c -4.454,-5.167 3.181,-19.046 17.049,-31 13.868,-11.954 32.802,-37.89 37.255,-32.723 4.453,5.166 6.714,33.167 -19.068,56.932 C 21.773,5.62 4.452,5.166 0,0" />
        </g>
        <g
           transform="translate(734.50644,667.86406)"
           id="g682-5-0-8">
          <path
             inkscape:connector-curvature="0"
             id="path684-9-8-9"
             style="fill:#69bc1b;fill-opacity:1;fill-rule:nonzero;stroke:none"
             d="m 0,0 c 0,-41.5 -32.069,-75.53 -72.77,-78.65 -2.019,-0.15 -4.049,-0.23 -6.11,-0.23 -1.559,0 -3.109,0.05 -4.649,0.14 l -0.01,0 C -124.93,-76.33 -157.75,-42 -157.75,0 c 0,4.16 0.32,8.24 0.94,12.22 0.231,1.45 0.491,2.89 0.8,4.31 5.96,27.96 26.731,50.43 53.721,58.8 7.39,2.3 15.26,3.54 23.409,3.54 9.941,0 19.46,-1.84 28.221,-5.2 C -25.75,64.13 -6.92,42.32 -1.55,15.65 -1.029,13.03 -0.63,10.37 -0.369,7.67 -0.119,5.15 0,2.59 0,0" />
        </g>
      </g>
      <g
         style="fill:#51a008;fill-opacity:1"
         transform="matrix(0.77405572,0,0,0.77405572,-928.22857,641.64298)"
         id="g8231">
        <path
           style="fill:#51a008;fill-opacity:1"
           inkscape:connector-curvature="0"
           d="m 63.946,118.649 c 5.727,0 11.353,-0.897 16.773,-2.625 l 32.214,32.192 35.279,-35.272 -32.199,-32.227 C 122.22,61.321 117.12,39.829 102.654,25.368 92.356,15.067 78.647,9.396 64.091,9.396 c -8.133,0 -16.288,1.843 -23.605,5.332 -1.104,0.526 -1.877,1.552 -2.084,2.755 -0.201,1.203 0.186,2.424 1.045,3.291 l 33.894,33.902 c 2.501,2.499 3.881,5.817 3.881,9.339 0,3.531 -1.382,6.843 -3.881,9.342 -4.979,4.994 -13.684,4.994 -18.672,-0.013 L 20.763,39.451 c -0.869,-0.869 -2.118,-1.25 -3.287,-1.048 -1.206,0.207 -2.229,0.98 -2.755,2.084 -9.958,20.868 -5.69,45.858 10.641,62.177 10.304,10.304 24.006,15.985 38.584,15.985 z"
           id="path8233" />
        <path
           style="fill:#51a008;fill-opacity:1"
           inkscape:connector-curvature="0"
           d="m 236.074,181.348 c -5.739,0 -11.374,0.903 -16.798,2.635 l -35.631,-35.634 -35.303,35.297 35.641,35.64 c -6.194,19.39 -1.098,40.876 13.359,55.346 10.301,10.301 24.01,15.973 38.565,15.973 8.137,0 16.291,-1.847 23.608,-5.335 1.104,-0.525 1.877,-1.552 2.084,-2.755 0.207,-1.203 -0.186,-2.425 -1.045,-3.291 l -33.893,-33.909 c -2.496,-2.493 -3.875,-5.805 -3.878,-9.327 0,-3.528 1.379,-6.84 3.884,-9.342 4.995,-4.998 13.681,-4.995 18.666,0.003 l 33.899,33.893 c 0.866,0.863 2.075,1.247 3.291,1.048 1.203,-0.21 2.23,-0.98 2.755,-2.084 9.958,-20.865 5.693,-45.852 -10.638,-62.174 -10.301,-10.303 -24,-15.984 -38.566,-15.984 z"
           id="path8235" />
        <path
           style="fill:#51a008;fill-opacity:1"
           inkscape:connector-curvature="0"
           d="m 221.571,100.988 c 0,0 5.897,5.165 10.759,2.752 5.495,-2.765 20.976,12.497 25.915,16.068 0.016,0.012 0.05,0.012 0.108,0.04 l -2.7,2.712 c -3.566,3.525 -3.563,9.281 -0.009,12.812 3.556,3.541 9.274,3.538 12.831,0 l 21.378,-21.35 c 3.532,-3.55 3.535,-9.296 -0.006,-12.84 -3.528,-3.532 -9.283,-3.532 -12.824,0.003 l -3.56,3.557 c -2.95,-4.063 -7.852,-10.988 -7.23,-13.282 C 268.84,81.413 248.358,57.681 248.358,57.681 197.49,6.823 163.513,7.979 147.349,13.537 c -6.488,2.232 -5.285,3.646 1.454,4.833 49.04,8.56 55.123,37.48 46.81,48.638 -3.197,4.308 1.466,9.509 1.466,9.509 l 1.753,1.741 -82.803,82.788 c 1.123,0.677 2.214,1.447 3.176,2.412 l 13.929,13.916 c 0.946,0.949 1.719,2.032 2.39,3.154 l 82.804,-82.791 3.243,3.251 z"
           id="path8237" />
        <path
           style="fill:#51a008;fill-opacity:1"
           inkscape:connector-curvature="0"
           d="m 113.632,169.025 c -3.056,-3.059 -8.257,-3.256 -11.526,-0.417 l -92.019,82.497 c -3.284,2.836 -3.467,7.663 -0.405,10.725 l 25.064,25.046 c 3.064,3.062 7.882,2.891 10.715,-0.375 l 82.522,-92.046 c 2.823,-3.266 2.644,-8.449 -0.421,-11.507 l -13.93,-13.923 z"
           id="path8239" />
      </g>
      <g
         transform="matrix(-2.0366053,-0.01356039,0.01356039,-2.0366053,-800.24307,917.11714)"
         id="g706-5-2-3"
         style="display:inline;opacity:1">
        <path
           inkscape:connector-curvature="0"
           id="path708-9-0-8"
           style="fill:#92d125;fill-opacity:1;fill-rule:nonzero;stroke:none"
           d="m 0,0 c -1.221,-0.11 -108.601,-9.21 -94.78,82.96 2.67,17.84 10.149,20.17 19.84,14.02 0.809,-0.51 1.629,-1.08 2.469,-1.71 1.71,-1.29 3.491,-2.81 5.311,-4.52 C -42.03,67.11 -8.271,6.13 0,0" />
      </g>
      <g
         transform="matrix(-2.0366053,-0.01356039,0.01356039,-2.0366053,-821.9337,916.96762)"
         id="g710-7-1-5"
         style="display:inline;opacity:1">
        <path
           inkscape:connector-curvature="0"
           id="path712-5-9-1"
           style="fill:#92d125;fill-opacity:1;fill-rule:nonzero;stroke:none"
           d="M 0,0 C 0,0 108.682,-9.742 94.786,82.956 85.118,147.452 12.633,9.305 0,0" />
      </g>
    </g>
  </g>
</svg>
