<svg xmlns="http://www.w3.org/2000/svg" viewBox="0 0 281.744 219.635" height="234.277" width="300.526"><path d="M197.764 49.151c14.636 12.79 33.299 36.923 44.092 44.46 3.335 2.33 5.93 3.07 7.4 1.384.379-.429.744-.968 1.096-1.62 1.013-1.925 1.88-4.77 2.377-8.353 2.173-15.347-2.307-43.986-29.455-69.357-17.892-16.718-40.87-16.913-48.128-10.525-.28.235-.545.497-.783.76-6.248 7.145 4.244 26.511 23.4 43.251M106.292 9.26c6.144 7.224-4.598 26.447-23.987 42.936-19.389 16.49-45.95 52.368-52.092 45.144-6.142-7.222-9.026-46.168 27.034-78.966 18.83-17.128 42.904-16.336 49.045-9.114" fill="#92d125"/><path d="M32.255 108.911c-.385 57.69 43.88 105.293 100.43 110.007 2.806.227 5.627.357 8.492.376 2.167.014 4.322-.04 6.464-.152h.014c57.56-2.967 103.502-50.386 103.89-108.77a110.297 110.297 0 00-1.193-16.997 108.393 108.393 0 00-1.072-5.999c-8.026-38.922-36.692-70.35-74.134-82.236-10.252-3.266-21.18-5.062-32.509-5.138C128.818-.09 115.568 2.38 103.36 6.97 68.644 20 42.266 50.145 34.554 87.17a112.205 112.205 0 00-1.715 11.082c-.371 3.501-.56 7.059-.584 10.66" fill="#69bc1b"/><g fill="#51a008"><path d="M94.082 93.8c3.026 0 5.998-.474 8.862-1.387l17.02 17.009 18.64-18.636-17.013-17.027c3.28-10.248.585-21.603-7.058-29.243-5.44-5.443-12.684-8.44-20.375-8.44a29.14 29.14 0 00-12.471 2.818c-.583.278-.992.82-1.101 1.456-.106.635.098 1.28.552 1.738L99.046 60a6.934 6.934 0 012.05 4.935c0 1.865-.73 3.615-2.05 4.935-2.631 2.639-7.23 2.639-9.866-.007L71.266 51.956a1.996 1.996 0 00-1.736-.553 1.979 1.979 0 00-1.456 1.1c-5.261 11.026-3.006 24.23 5.622 32.852C79.14 90.799 86.38 93.8 94.082 93.8zM185.025 126.927c-3.032 0-6.01.477-8.875 1.392l-18.826-18.827-18.652 18.649 18.83 18.83c-3.272 10.245-.58 21.597 7.059 29.242 5.442 5.442 12.685 8.44 20.376 8.44 4.299 0 8.607-.977 12.473-2.82a1.98 1.98 0 001.1-1.455 1.989 1.989 0 00-.551-1.739l-17.908-17.916a6.93 6.93 0 01-2.048-4.927c0-1.864.728-3.614 2.052-4.936 2.639-2.64 7.228-2.64 9.862.001l17.91 17.908a1.984 1.984 0 003.194-.547c5.262-11.025 3.008-24.226-5.62-32.85-5.443-5.444-12.68-8.445-20.376-8.445z"/><path d="M177.362 84.469s3.116 2.729 5.685 1.454c2.903-1.46 11.082 6.603 13.692 8.49.008.006.026.006.057.02l-1.427 1.433a4.766 4.766 0 00-.005 6.77 4.797 4.797 0 006.78 0l11.295-11.28a4.806 4.806 0 00-.004-6.785c-1.864-1.866-4.904-1.866-6.775.002l-1.88 1.88c-1.56-2.147-4.15-5.806-3.82-7.018 1.377-5.308-9.445-17.847-9.445-17.847-26.876-26.87-44.827-26.26-53.368-23.323-3.428 1.179-2.792 1.926.769 2.553 25.91 4.523 29.124 19.803 24.731 25.698-1.689 2.276.775 5.024.775 5.024l.926.92L121.6 116.2c.593.358 1.17.765 1.678 1.275l7.359 7.352c.5.502.908 1.074 1.263 1.667l43.749-43.743 1.713 1.718zM120.333 120.416c-1.614-1.616-4.362-1.72-6.09-.22l-48.617 43.587c-1.735 1.498-1.832 4.048-.214 5.666l13.242 13.233c1.619 1.618 4.165 1.527 5.661-.198l43.6-48.632c1.492-1.726 1.397-4.464-.222-6.08l-7.36-7.356z"/></g><g><path d="M147.655 219.142c1.696.164 150.883 13.808 132.523-114.447-3.546-24.824-13.921-28.133-27.45-19.673a51.595 51.595 0 00-3.448 2.354c-2.389 1.778-4.879 3.874-7.425 6.234-35.152 32.63-82.646 117.087-94.2 125.532" fill="#92d125"/></g><g><path d="M132.85 219.04S-18.321 231.577 1.854 102.844C15.89 13.276 115.374 205.988 132.85 219.04" fill="#92d125"/></g></svg>