<?xml version="1.0" encoding="UTF-8" standalone="no"?>
<!-- Created with Inkscape (http://www.inkscape.org/) -->

<svg
   xmlns:dc="http://purl.org/dc/elements/1.1/"
   xmlns:cc="http://creativecommons.org/ns#"
   xmlns:rdf="http://www.w3.org/1999/02/22-rdf-syntax-ns#"
   xmlns:svg="http://www.w3.org/2000/svg"
   xmlns="http://www.w3.org/2000/svg"
   xmlns:sodipodi="http://sodipodi.sourceforge.net/DTD/sodipodi-0.dtd"
   xmlns:inkscape="http://www.inkscape.org/namespaces/inkscape"
   width="72.099129mm"
   height="70.394264mm"
   viewBox="0 0 255.46935 249.42849"
   id="svg9947"
   version="1.1"
   inkscape:version="0.91 r13725"
   sodipodi:docname="multi_dp.svg">
  <defs
     id="defs9949" />
  <sodipodi:namedview
     id="base"
     pagecolor="#ffffff"
     bordercolor="#666666"
     borderopacity="1.0"
     inkscape:pageopacity="0.0"
     inkscape:pageshadow="2"
     inkscape:zoom="0.49497475"
     inkscape:cx="-444.62383"
     inkscape:cy="135.88604"
     inkscape:document-units="px"
     inkscape:current-layer="layer1"
     showgrid="false"
     fit-margin-top="0"
     fit-margin-left="0"
     fit-margin-right="0"
     fit-margin-bottom="0"
     inkscape:window-width="1855"
     inkscape:window-height="1056"
     inkscape:window-x="1431"
     inkscape:window-y="24"
     inkscape:window-maximized="1" />
  <metadata
     id="metadata9952">
    <rdf:RDF>
      <cc:Work
         rdf:about="">
        <dc:format>image/svg+xml</dc:format>
        <dc:type
           rdf:resource="http://purl.org/dc/dcmitype/StillImage" />
        <dc:title></dc:title>
      </cc:Work>
    </rdf:RDF>
  </metadata>
  <g
     inkscape:label="Layer 1"
     inkscape:groupmode="layer"
     id="layer1"
     transform="translate(-247.26533,-407.64796)">
    <g
       transform="translate(836.79637,-831.88462)"
       style="display:inline;opacity:1"
       id="g9930">
      <path
         inkscape:connector-curvature="0"
         id="path6120-7-9-2"
         d="m -412.5441,1429.7409 c -5.7286,-2.4901 -27.91341,-25.2729 -39.08515,-40.1376 -15.92071,-21.1847 -25.88329,-41.815 -29.4752,-61.0374 -1.5189,-8.1288 -1.34093,-24.0382 0.34712,-31.0342 3.50408,-14.522 9.936,-26.0971 20.21043,-36.372 10.27969,-10.2795 21.88049,-16.7236 36.37172,-20.2036 8.63813,-2.0744 25.20149,-1.8491 34.02161,0.4633 33.30233,8.7274 55.88037,37.6213 56.09025,71.7818 0.12742,20.7632 -7.23567,41.8791 -22.77686,65.3166 -9.12649,13.7639 -16.26167,22.3224 -30.75733,36.8924 -15.36504,15.4438 -18.39039,17.1824 -24.94659,14.3323 z m 16.14754,-80.3778 c 5.376,-1.6993 13.39565,-6.9875 16.78432,-11.0676 4.10858,-4.9472 7.75612,-12.9285 8.80709,-19.2708 2.49795,-15.0748 -5.76495,-31.2702 -19.68662,-38.5859 -11.63199,-6.1124 -23.57093,-6.0991 -35.25234,0.049 -13.84358,7.2744 -22.10362,23.5087 -19.61189,38.5463 3.82392,23.0769 26.83147,37.3337 48.95944,30.3384 z"
         style="display:inline;opacity:1;fill:#ffb290;fill-opacity:1" />
      <path
         inkscape:connector-curvature="0"
         id="path6120-7-9"
         d="m -469.11265,1461.0556 c -5.7286,-2.4901 -27.91341,-25.2729 -39.08515,-40.1376 -15.92071,-21.1847 -25.88329,-41.815 -29.4752,-61.0374 -1.5189,-8.1288 -1.34093,-24.0382 0.34712,-31.0342 3.50408,-14.522 9.936,-26.0971 20.21043,-36.372 10.27969,-10.2795 21.88049,-16.7236 36.37172,-20.2036 8.63813,-2.0744 25.20149,-1.8491 34.02161,0.4633 33.30233,8.7274 55.88037,37.6213 56.09025,71.7818 0.12742,20.7632 -7.23567,41.8791 -22.77686,65.3166 -9.12649,13.7639 -16.26167,22.3224 -30.75733,36.8924 -15.36504,15.4438 -18.39039,17.1824 -24.94659,14.3323 z m 16.14754,-80.3778 c 5.376,-1.6993 13.39565,-6.9875 16.78432,-11.0676 4.10858,-4.9472 7.75612,-12.9285 8.80709,-19.2708 2.49795,-15.0748 -5.76495,-31.2702 -19.68662,-38.5859 -11.63199,-6.1124 -23.57093,-6.0991 -35.25234,0.049 -13.84358,7.2744 -22.10362,23.5087 -19.61189,38.5463 3.82392,23.0769 26.83147,37.3337 48.95944,30.3384 z"
         style="display:inline;opacity:1;fill:#ff9567;fill-opacity:1" />
      <path
         inkscape:connector-curvature="0"
         id="path6120-7"
         d="m -519.9336,1487.8247 c -5.7286,-2.4901 -27.91341,-25.2729 -39.08515,-40.1376 -15.92071,-21.1847 -25.88329,-41.815 -29.4752,-61.0374 -1.5189,-8.1288 -1.34093,-24.0382 0.34712,-31.0342 3.50408,-14.522 9.936,-26.0971 20.21043,-36.372 10.27969,-10.2795 21.88049,-16.7236 36.37172,-20.2036 8.63813,-2.0744 25.20149,-1.8491 34.02161,0.4633 33.30234,8.7274 55.88038,37.6213 56.09026,71.7818 0.12742,20.7632 -7.23567,41.8791 -22.77686,65.3166 -9.12649,13.7639 -16.26167,22.3224 -30.75734,36.8924 -15.36504,15.4438 -18.39039,17.1824 -24.94659,14.3323 z m 16.14754,-80.3778 c 5.376,-1.6993 13.39565,-6.9875 16.78433,-11.0676 4.10858,-4.9472 7.75612,-12.9285 8.80709,-19.2708 2.49795,-15.0748 -5.76495,-31.2702 -19.68663,-38.5859 -11.63199,-6.1124 -23.57093,-6.0991 -35.25234,0.049 -13.84358,7.2744 -22.10362,23.5087 -19.61189,38.5463 3.82392,23.0769 26.83147,37.3337 48.95944,30.3384 z"
         style="display:inline;opacity:1;fill:#ff6e2e;fill-opacity:1" />
    </g>
  </g>
</svg>
