<svg xmlns="http://www.w3.org/2000/svg" viewBox="0 0 255.46935 249.42849" height="266.057" width="272.501"><path d="M176.987 190.208c-5.729-2.49-27.913-25.273-39.085-40.137-15.92-21.185-25.883-41.815-29.475-61.038-1.52-8.128-1.341-24.038.347-31.034 3.504-14.522 9.936-26.097 20.21-36.372 10.28-10.28 21.88-16.723 36.372-20.203 8.638-2.075 25.201-1.85 34.021.463 33.303 8.727 55.88 37.621 56.09 71.782.128 20.763-7.235 41.879-22.776 65.316-9.127 13.764-16.262 22.323-30.757 36.893-15.366 15.443-18.39 17.182-24.947 14.332zm16.147-80.377c5.376-1.7 13.396-6.988 16.785-11.068 4.108-4.947 7.756-12.929 8.807-19.27 2.498-15.076-5.765-31.271-19.687-38.587-11.632-6.112-23.57-6.099-35.252.05-13.844 7.274-22.104 23.508-19.612 38.546 3.824 23.076 26.832 37.333 48.96 30.338z" fill="#ffb290"/><path d="M120.418 221.523c-5.728-2.49-27.913-25.273-39.085-40.138-15.92-21.184-25.883-41.815-29.475-61.037-1.519-8.129-1.34-24.038.347-31.034 3.504-14.522 9.936-26.097 20.21-36.372 10.28-10.28 21.881-16.724 36.372-20.204 8.638-2.074 25.202-1.849 34.022.464 33.302 8.727 55.88 37.62 56.09 71.781.128 20.764-7.235 41.88-22.777 65.317-9.126 13.764-16.261 22.322-30.757 36.892-15.365 15.444-18.39 17.183-24.947 14.333zm16.148-80.378c5.376-1.7 13.396-6.987 16.784-11.067 4.109-4.948 7.756-12.929 8.807-19.271 2.498-15.075-5.765-31.27-19.686-38.586-11.632-6.112-23.571-6.1-35.253.049-13.843 7.274-22.103 23.509-19.612 38.546 3.824 23.077 26.832 37.334 48.96 30.339z" fill="#ff9567"/><path d="M69.597 248.292c-5.728-2.49-27.913-25.273-39.085-40.137C14.592 186.97 4.63 166.34 1.037 147.117c-1.519-8.129-1.34-24.038.347-31.034 3.504-14.522 9.936-26.097 20.21-36.372 10.28-10.28 21.881-16.724 36.372-20.204 8.638-2.074 25.202-1.849 34.022.464 33.302 8.727 55.88 37.62 56.09 71.781.128 20.764-7.235 41.88-22.777 65.317-9.126 13.764-16.261 22.322-30.757 36.892-15.365 15.444-18.39 17.183-24.947 14.333zm16.148-80.378c5.376-1.699 13.396-6.987 16.784-11.067 4.109-4.947 7.756-12.929 8.807-19.271 2.498-15.075-5.765-31.27-19.686-38.586-11.632-6.112-23.571-6.1-35.253.049-13.843 7.274-22.103 23.509-19.611 38.546 3.823 23.077 26.831 37.334 48.959 30.339z" fill="#ff6e2e"/></svg>