<svg xmlns="http://www.w3.org/2000/svg" viewBox="0 0 378.0778 267.24619" height="285.063" width="403.283"><path d="M78.792 140.916h290.714v97.857H78.792z" style="isolation:auto;mix-blend-mode:normal" color="#000" overflow="visible" fill="#fff" fill-rule="evenodd"/><path d="M350.804 236.436l27.274 30.81-65.66-31.82z" fill="#fff" fill-rule="evenodd"/><g style="line-height:125%;-inkscape-font-specification:'roboto, Normal';text-align:start" font-weight="900" font-size="16.904" font-family="roboto" letter-spacing="0" word-spacing="0" fill="#404040"><path style="-inkscape-font-specification:'roboto Heavy'" d="M98.375 161.46h-4.557v2.863H99.2v2.229H90.92v-12.018h8.295v2.237h-5.398v2.534h4.557v2.154zM102.823 157.621l.091 1.048q.925-1.213 2.55-1.213 1.395 0 2.08.834.694.833.719 2.509v5.753h-2.79v-5.638q0-.676-.273-.99-.272-.322-.99-.322-.817 0-1.213.644v6.306h-2.782v-8.93h2.608zM113.05 155.4v2.221h1.469v1.932h-1.47v4.085q0 .504.182.702.182.198.718.198.413 0 .694-.05v1.99q-.751.238-1.568.238-1.437 0-2.122-.676-.685-.677-.685-2.056v-4.432h-1.139v-1.931h1.14v-2.22h2.78zM119.942 166.717q-2.055 0-3.327-1.222-1.27-1.23-1.27-3.194v-.231q0-1.37.503-2.418.512-1.049 1.486-1.618.973-.578 2.31-.578 1.882 0 2.972 1.172 1.09 1.164 1.09 3.252v1.081h-5.53q.148.751.651 1.18.504.43 1.305.43 1.32 0 2.063-.925l1.271 1.503q-.52.718-1.477 1.147-.95.42-2.047.42zm-.314-7.115q-1.221 0-1.453 1.618h2.807v-.215q.016-.668-.339-1.032-.355-.37-1.015-.37zM127.387 157.621l.09 1.048q.925-1.213 2.55-1.213 1.396 0 2.08.834.694.833.719 2.509v5.753h-2.79v-5.638q0-.676-.272-.99-.273-.322-.99-.322-.818 0-1.214.644v6.306h-2.782v-8.93h2.609zM134.023 162.02q0-2.12.916-3.342t2.559-1.222q1.196 0 2.014.941v-4.523h2.79v12.678H139.8l-.14-.958q-.858 1.123-2.179 1.123-1.593 0-2.526-1.222-.932-1.221-.932-3.475zm2.781.174q0 2.377 1.387 2.377.924 0 1.32-.776v-3.4q-.38-.793-1.304-.793-1.287 0-1.394 2.08l-.008.512zM149.202 165.586q-.884 1.13-2.386 1.13-1.469 0-2.228-.85-.751-.858-.751-2.459v-5.786h2.781v5.803q0 1.147 1.114 1.147.958 0 1.362-.685v-6.265h2.798v8.93h-2.608l-.082-.965zM154.401 169.787l-1.403-.66.28-.561q.579-1.073.603-2.047v-2.064h2.229l-.008 1.791q-.008.95-.487 1.932t-1.213 1.61zM165.197 157.621v9.236q-.008 1.585-.907 2.443-.9.859-2.51.859-.693 0-1.312-.14v-2.105q.479.074.784.074 1.156 0 1.156-1.148v-9.22h2.79zm-2.996-2.303q0-.594.43-.974.429-.38 1.114-.38t1.114.38q.43.38.43.974 0 .595-.43.974-.43.38-1.114.38-.685 0-1.115-.38-.429-.38-.429-.974zM171.082 166.717q-2.055 0-3.326-1.222-1.271-1.23-1.271-3.194v-.231q0-1.37.504-2.418.511-1.049 1.485-1.618.974-.578 2.311-.578 1.882 0 2.972 1.172 1.09 1.164 1.09 3.252v1.081h-5.53q.148.751.651 1.18.504.43 1.304.43 1.32 0 2.064-.925l1.27 1.503q-.52.718-1.477 1.147-.949.42-2.047.42zm-.313-7.115q-1.222 0-1.453 1.618h2.806v-.215q.017-.668-.338-1.032-.355-.37-1.015-.37zM183.76 163.242l1.412-5.62h2.93l-2.914 8.93h-2.84l-2.913-8.93h2.939l1.386 5.62zM188.465 162.004q0-1.337.52-2.377.52-1.048 1.494-1.61.974-.56 2.286-.56 2.006 0 3.161 1.245 1.156 1.238 1.156 3.376v.1q0 2.087-1.164 3.317-1.155 1.222-3.136 1.222-1.907 0-3.062-1.14-1.156-1.147-1.247-3.103l-.008-.47zm2.781.173q0 1.238.388 1.816.388.578 1.148.578 1.485 0 1.518-2.286v-.281q0-2.402-1.535-2.402-1.395 0-1.51 2.072l-.008.503zM203.644 165.586q-.883 1.13-2.386 1.13-1.469 0-2.228-.85-.751-.858-.751-2.459v-5.786h2.781v5.803q0 1.147 1.115 1.147.957 0 1.361-.685v-6.265h2.798v8.93h-2.608l-.082-.965zM212.541 164.043q0-.355-.371-.57-.372-.215-1.412-.446-1.04-.23-1.716-.602-.677-.38-1.032-.916-.355-.537-.355-1.23 0-1.23 1.015-2.022 1.016-.8 2.658-.8 1.766 0 2.84.8 1.072.8 1.072 2.104h-2.79q0-1.073-1.13-1.073-.438 0-.735.248-.297.24-.297.603 0 .371.363.602.363.231 1.156.38.8.148 1.403.355 2.014.693 2.014 2.484 0 1.222-1.09 1.99-1.08.767-2.806.767-1.147 0-2.047-.413-.9-.413-1.403-1.122-.504-.71-.504-1.494h2.6q.017.619.413.908.396.28 1.015.28.57 0 .85-.23.29-.232.29-.603zM225.772 166.552q-.148-.273-.264-.8-.768.965-2.146.965-1.263 0-2.146-.76-.883-.767-.883-1.923 0-1.452 1.073-2.195 1.073-.743 3.12-.743h.858v-.47q0-1.23-1.064-1.23-.99 0-.99.974h-2.782q0-1.296 1.097-2.105 1.106-.809 2.815-.809 1.708 0 2.699.834.99.833 1.015 2.286v3.954q.017 1.23.38 1.881v.14h-2.782zm-1.741-1.816q.52 0 .858-.223.347-.223.495-.503v-1.428h-.809q-1.452 0-1.452 1.304 0 .38.256.619.255.231.652.231zM232.656 166.552h-2.79v-8.93h2.79v8.93zm-2.955-11.234q0-.594.43-.974.428-.38 1.113-.38.686 0 1.115.38.429.38.429.974 0 .595-.43.974-.428.38-1.114.38-.685 0-1.114-.38-.429-.38-.429-.974zM241.232 157.621l.09 1.048q.95-1.213 2.55-1.213 1.693 0 2.287 1.345.908-1.345 2.625-1.345 2.715 0 2.79 3.285v5.81h-2.79v-5.637q0-.685-.231-.998-.231-.314-.842-.314-.826 0-1.23.735l.008.115v6.1h-2.79v-5.621q0-.702-.223-1.015-.222-.314-.85-.314-.8 0-1.221.735v6.215h-2.782v-8.93h2.608zM256.097 166.552h-2.79v-8.93h2.79v8.93zm-2.955-11.234q0-.594.429-.974.43-.38 1.114-.38.685 0 1.115.38.429.38.429.974 0 .595-.43.974-.429.38-1.114.38t-1.114-.38q-.43-.38-.43-.974zM262.493 164.043q0-.355-.371-.57-.371-.215-1.411-.446-1.04-.23-1.717-.602-.677-.38-1.032-.916-.355-.537-.355-1.23 0-1.23 1.015-2.022 1.016-.8 2.658-.8 1.766 0 2.84.8 1.072.8 1.072 2.104h-2.79q0-1.073-1.13-1.073-.438 0-.735.248-.297.24-.297.603 0 .371.363.602.363.231 1.156.38.8.148 1.403.355 2.014.693 2.014 2.484 0 1.222-1.09 1.99-1.08.767-2.806.767-1.147 0-2.047-.413-.9-.413-1.403-1.122-.503-.71-.503-1.494h2.6q.016.619.412.908.396.28 1.015.28.57 0 .85-.23.29-.232.29-.603zM276.013 165.586q-.883 1.13-2.385 1.13-1.47 0-2.229-.85-.75-.858-.75-2.459v-5.786h2.78v5.803q0 1.147 1.115 1.147.957 0 1.362-.685v-6.265h2.798v8.93h-2.608l-.083-.965zM282.79 157.621l.09 1.048q.925-1.213 2.55-1.213 1.396 0 2.08.834.694.833.719 2.509v5.753h-2.79v-5.638q0-.676-.272-.99-.273-.322-.99-.322-.818 0-1.214.644v6.306h-2.782v-8.93h2.609zM294.097 166.717q-2.055 0-3.326-1.222-1.271-1.23-1.271-3.194v-.231q0-1.37.503-2.418.512-1.049 1.486-1.618.974-.578 2.311-.578 1.882 0 2.972 1.172 1.089 1.164 1.089 3.252v1.081h-5.53q.149.751.652 1.18.503.43 1.304.43 1.32 0 2.064-.925l1.27 1.503q-.52.718-1.477 1.147-.949.42-2.047.42zm-.313-7.115q-1.222 0-1.453 1.618h2.806v-.215q.017-.668-.338-1.032-.355-.37-1.015-.37zM306.99 164.57q.586 0 .908-.313.322-.322.313-.891h2.609q0 1.469-1.057 2.41-1.048.94-2.707.94-1.948 0-3.07-1.22-1.123-1.222-1.123-3.385v-.115q0-1.354.495-2.386.504-1.04 1.444-1.593.941-.56 2.229-.56 1.742 0 2.765.965 1.024.965 1.024 2.616h-2.609q0-.693-.338-1.065-.339-.37-.908-.37-1.081 0-1.263 1.377-.058.438-.058 1.205 0 1.346.322 1.866t1.024.52zM311.645 162.004q0-1.337.52-2.377.52-1.048 1.494-1.61.974-.56 2.286-.56 2.006 0 3.161 1.245 1.156 1.238 1.156 3.376v.1q0 2.087-1.164 3.317-1.155 1.222-3.136 1.222-1.907 0-3.063-1.14-1.155-1.147-1.246-3.103l-.008-.47zm2.781.173q0 1.238.388 1.816.388.578 1.148.578 1.485 0 1.518-2.286v-.281q0-2.402-1.535-2.402-1.395 0-1.51 2.072l-.008.503zM326.824 165.586q-.883 1.13-2.386 1.13-1.469 0-2.228-.85-.751-.858-.751-2.459v-5.786h2.781v5.803q0 1.147 1.114 1.147.958 0 1.362-.685v-6.265h2.798v8.93h-2.608l-.082-.965zM336.448 160.139l-.917-.066q-1.312 0-1.683.825v5.654h-2.782v-8.93h2.608l.091 1.146q.702-1.312 1.956-1.312.446 0 .776.1l-.05 2.583zM336.96 162.02q0-1.353.445-2.393.446-1.04 1.28-1.601.833-.57 1.939-.57 1.395 0 2.179.941l.099-.776h2.526v8.592q0 1.18-.553 2.047-.545.875-1.585 1.337-1.04.47-2.41.47-.982 0-1.907-.37-.916-.372-1.403-.966l1.164-1.635q.776.917 2.047.917 1.849 0 1.849-1.899v-.28q-.8.883-2.023.883-1.634 0-2.64-1.247-1.008-1.254-1.008-3.35v-.1zm2.79.174q0 1.097.412 1.741.413.636 1.155.636.9 0 1.313-.603v-3.755q-.405-.61-1.296-.61-.743 0-1.164.668-.42.66-.42 1.923zM351.346 166.717q-2.055 0-3.327-1.222-1.27-1.23-1.27-3.194v-.231q0-1.37.503-2.418.512-1.049 1.486-1.618.973-.578 2.31-.578 1.882 0 2.972 1.172 1.09 1.164 1.09 3.252v1.081h-5.53q.148.751.651 1.18.504.43 1.305.43 1.32 0 2.063-.925l1.271 1.503q-.52.718-1.477 1.147-.95.42-2.047.42zm-.314-7.115q-1.221 0-1.453 1.618h2.807v-.215q.016-.668-.339-1.032-.355-.37-1.015-.37zM90.443 183.15q0-2.121.916-3.343.916-1.221 2.558-1.221 1.197 0 2.014.94v-4.522h2.79v12.678h-2.5l-.141-.958q-.858 1.123-2.179 1.123-1.593 0-2.526-1.222-.932-1.222-.932-3.475zm2.781.173q0 2.378 1.387 2.378.924 0 1.32-.776v-3.4q-.38-.793-1.304-.793-1.287 0-1.395 2.08l-.008.511zM104.623 187.847q-2.056 0-3.327-1.222-1.27-1.23-1.27-3.194v-.231q0-1.37.503-2.419.512-1.048 1.485-1.617.974-.578 2.312-.578 1.881 0 2.97 1.172 1.09 1.164 1.09 3.252v1.081h-5.53q.149.751.652 1.18.504.43 1.304.43 1.321 0 2.064-.925l1.271 1.502q-.52.718-1.477 1.148-.95.42-2.047.42zm-.314-7.115q-1.222 0-1.453 1.618h2.807v-.215q.016-.669-.339-1.032-.355-.371-1.015-.371zM119.86 187.682h-2.79V178.8l-2.74.801v-2.113l5.273-1.824h.256v12.018zM125.265 184.983q.66 0 1.098.396.438.388.438.998 0 .611-.438 1.007-.437.388-1.098.388-.668 0-1.106-.396-.429-.396-.429-.999 0-.602.43-.998.437-.396 1.105-.396zM137.002 187.682h-8.385v-1.816l3.862-4.061q1.428-1.626 1.428-2.584 0-.776-.338-1.18-.339-.404-.982-.404-.636 0-1.032.544-.396.537-.396 1.346h-2.79q0-1.106.553-2.039.553-.94 1.535-1.47.982-.527 2.196-.527 1.948 0 2.996.9 1.056.899 1.056 2.583 0 .71-.264 1.386-.264.669-.825 1.412-.553.734-1.791 1.972l-1.552 1.792h4.73v2.146zM142.681 183.208l-1.189 1.304v3.17h-2.897v-12.018h2.897v5.299l1.007-1.527 2.592-3.772h3.582l-4.06 5.315 4.06 6.703h-3.433l-2.559-4.474zM148.772 183.15q0-1.353.446-2.393.446-1.04 1.28-1.602.833-.57 1.939-.57 1.395 0 2.179.942l.1-.776h2.525v8.592q0 1.18-.553 2.047-.545.875-1.585 1.337-1.04.47-2.41.47-.982 0-1.907-.37-.916-.372-1.403-.966l1.164-1.635q.776.916 2.047.916 1.849 0 1.849-1.898v-.28q-.8.883-2.022.883-1.635 0-2.642-1.247-1.007-1.254-1.007-3.35v-.1zm2.79.173q0 1.098.413 1.742.413.636 1.155.636.9 0 1.313-.603v-3.755q-.405-.611-1.296-.611-.743 0-1.164.668-.42.66-.42 1.923zM167.385 187.847q-2.056 0-3.327-1.222-1.27-1.23-1.27-3.194v-.231q0-1.37.503-2.419.512-1.048 1.485-1.617.974-.578 2.312-.578 1.881 0 2.97 1.172 1.09 1.164 1.09 3.252v1.081h-5.53q.149.751.652 1.18.504.43 1.305.43 1.32 0 2.063-.925l1.271 1.502q-.52.718-1.477 1.148-.95.42-2.047.42zm-.314-7.115q-1.222 0-1.453 1.618h2.807v-.215q.016-.669-.339-1.032-.355-.371-1.015-.371zM174.83 178.75l.09 1.05q.925-1.214 2.55-1.214 1.396 0 2.08.833.694.834.719 2.51v5.753h-2.79v-5.638q0-.677-.272-.99-.273-.322-.99-.322-.818 0-1.214.644v6.306h-2.782v-8.931h2.609zM185.056 176.53v2.22h1.47v1.932h-1.47v4.086q0 .503.182.701.181.199.718.199.412 0 .693-.05v1.989q-.751.24-1.568.24-1.436 0-2.121-.678-.685-.677-.685-2.055v-4.432h-1.14v-1.932h1.14v-2.22h2.781zM190.561 187.682h-2.79v-8.931h2.79v8.93zm-2.954-11.234q0-.594.429-.974t1.114-.38q.685 0 1.114.38.43.38.43.974t-.43.974q-.429.38-1.114.38t-1.114-.38q-.43-.38-.43-.974zM196.603 187.847q-2.055 0-3.326-1.222-1.271-1.23-1.271-3.194v-.231q0-1.37.503-2.419.512-1.048 1.486-1.617.974-.578 2.311-.578 1.882 0 2.971 1.172 1.09 1.164 1.09 3.252v1.081h-5.53q.148.751.652 1.18.503.43 1.304.43 1.32 0 2.063-.925l1.272 1.502q-.52.718-1.478 1.148-.949.42-2.047.42zm-.313-7.115q-1.222 0-1.453 1.618h2.806v-.215q.017-.669-.338-1.032-.355-.371-1.015-.371zm.94-3.145h-2.261l-2.328-2.592h2.939l1.65 2.592zM206.896 181.268l-.916-.066q-1.313 0-1.684.826v5.654h-2.782v-8.931h2.608l.091 1.147q.702-1.312 1.956-1.312.446 0 .776.099l-.05 2.583zM212.054 187.847q-2.055 0-3.326-1.222-1.271-1.23-1.271-3.194v-.231q0-1.37.503-2.419.512-1.048 1.486-1.617.974-.578 2.311-.578 1.882 0 2.972 1.172 1.09 1.164 1.09 3.252v1.081h-5.531q.149.751.652 1.18.504.43 1.304.43 1.32 0 2.064-.925l1.27 1.502q-.52.718-1.477 1.148-.949.42-2.047.42zm-.313-7.115q-1.222 0-1.453 1.618h2.806v-.215q.017-.669-.338-1.032-.355-.371-1.015-.371z"/></g><path d="M299.286 0H8.572v97.857h290.714z" style="isolation:auto;mix-blend-mode:normal" color="#000" overflow="visible" fill="#fff" fill-rule="evenodd"/><path d="M27.274 95.52L0 126.33l65.66-31.82z" fill="#fff" fill-rule="evenodd"/><g style="line-height:125%;-inkscape-font-specification:'roboto, Normal';text-align:start" font-weight="900" font-size="16.904" font-family="roboto" letter-spacing="0" word-spacing="0" fill="#404040"><path style="-inkscape-font-specification:'roboto Heavy'" d="M20.077 24.588v4.078H17.18V16.648h4.796q1.378 0 2.435.512 1.064.504 1.642 1.444.586.933.586 2.122 0 1.758-1.263 2.814-1.254 1.048-3.45 1.048h-1.849zm0-2.236h1.899q.842 0 1.279-.421.446-.421.446-1.189 0-.842-.454-1.345-.454-.504-1.238-.512h-1.932v3.467zM27.597 24.118q0-1.337.52-2.377.52-1.048 1.493-1.61.974-.56 2.287-.56 2.005 0 3.161 1.245 1.156 1.239 1.156 3.376v.1q0 2.087-1.164 3.317-1.156 1.222-3.137 1.222-1.906 0-3.062-1.14-1.155-1.146-1.246-3.103l-.008-.47zm2.781.173q0 1.238.388 1.816.388.578 1.147.578 1.486 0 1.519-2.286v-.28q0-2.403-1.535-2.403-1.395 0-1.51 2.072l-.009.503zM42.775 27.7q-.883 1.131-2.385 1.131-1.47 0-2.229-.85-.75-.859-.75-2.46v-5.786h2.78v5.803q0 1.147 1.115 1.147.958 0 1.362-.685v-6.265h2.798v8.93h-2.608l-.083-.965zM52.4 22.253l-.917-.066q-1.312 0-1.684.825v5.654h-2.781v-8.93h2.608l.09 1.147q.702-1.313 1.957-1.313.446 0 .776.1l-.05 2.583zM60.562 28.666h-2.79V15.988h2.79v12.678zM67.314 28.666q-.149-.273-.264-.8-.768.965-2.146.965-1.263 0-2.146-.76-.883-.767-.883-1.923 0-1.452 1.073-2.195 1.073-.743 3.12-.743h.858v-.47q0-1.23-1.065-1.23-.99 0-.99.974h-2.782q0-1.296 1.098-2.105 1.106-.809 2.815-.809 1.708 0 2.699.834.99.833 1.015 2.286v3.954q.016 1.23.38 1.882v.14h-2.782zm-1.742-1.816q.52 0 .859-.223.346-.223.495-.503v-1.428h-.809q-1.453 0-1.453 1.304 0 .38.256.619.256.231.652.231zM79.265 26.685q.586 0 .908-.314.322-.322.314-.891h2.608q0 1.47-1.056 2.41-1.049.941-2.708.941-1.947 0-3.07-1.222-1.122-1.221-1.122-3.384v-.115q0-1.354.495-2.386.503-1.04 1.444-1.593.941-.56 2.229-.56 1.741 0 2.765.965 1.023.966 1.023 2.616h-2.608q0-.693-.338-1.064-.339-.372-.908-.372-1.082 0-1.263 1.379-.058.437-.058 1.205 0 1.345.322 1.865t1.023.52zM83.92 24.118q0-1.337.52-2.377.52-1.048 1.495-1.61.973-.56 2.286-.56 2.005 0 3.161 1.245 1.156 1.239 1.156 3.376v.1q0 2.087-1.164 3.317-1.156 1.222-3.137 1.222-1.906 0-3.062-1.14-1.155-1.146-1.246-3.103l-.008-.47zm2.782.173q0 1.238.388 1.816.388.578 1.147.578 1.486 0 1.519-2.286v-.28q0-2.403-1.535-2.403-1.395 0-1.51 2.072l-.009.503zM99.1 27.7q-.884 1.131-2.386 1.131-1.47 0-2.229-.85-.75-.859-.75-2.46v-5.786h2.78v5.803q0 1.147 1.115 1.147.958 0 1.362-.685v-6.265h2.798v8.93h-2.608l-.083-.965zM108.723 22.253l-.916-.066q-1.312 0-1.684.825v5.654h-2.781v-8.93h2.608l.09 1.147q.702-1.313 1.957-1.313.446 0 .776.1l-.05 2.583zM109.235 24.135q0-1.354.446-2.394.445-1.04 1.28-1.601.833-.57 1.939-.57 1.395 0 2.179.941l.099-.776h2.525v8.592q0 1.18-.553 2.047-.544.875-1.584 1.338-1.04.47-2.41.47-.983 0-1.907-.371-.916-.372-1.403-.966l1.164-1.634q.775.916 2.047.916 1.848 0 1.848-1.899v-.28q-.8.883-2.022.883-1.634 0-2.641-1.246-1.007-1.255-1.007-3.351v-.1zm2.79.173q0 1.098.413 1.741.412.636 1.155.636.9 0 1.312-.603v-3.755q-.404-.61-1.295-.61-.743 0-1.164.668-.421.66-.421 1.923zM123.621 28.831q-2.055 0-3.326-1.222-1.27-1.23-1.27-3.194v-.23q0-1.371.503-2.42.511-1.048 1.485-1.617.974-.578 2.311-.578 1.882 0 2.972 1.172 1.09 1.164 1.09 3.252v1.081h-5.53q.148.752.651 1.18.504.43 1.304.43 1.32 0 2.064-.924l1.27 1.502q-.52.718-1.477 1.147-.949.421-2.047.421zm-.313-7.115q-1.222 0-1.453 1.618h2.806v-.215q.017-.668-.338-1.031-.355-.372-1.015-.372zM129.49 31.901l-1.403-.66.28-.561q.578-1.073.603-2.047v-2.064h2.228l-.008 1.791q-.008.95-.487 1.932-.478.982-1.213 1.61zM139.923 19.735l.09 1.048q.95-1.213 2.551-1.213 1.692 0 2.286 1.346.908-1.346 2.625-1.346 2.715 0 2.79 3.285v5.81h-2.79V23.03q0-.686-.231-1-.231-.313-.842-.313-.825 0-1.23.735l.008.115v6.1h-2.79v-5.62q0-.703-.222-1.016-.223-.314-.85-.314-.801 0-1.222.735v6.215h-2.782v-8.93h2.608zM156.174 28.831q-2.055 0-3.326-1.222-1.27-1.23-1.27-3.194v-.23q0-1.371.503-2.42.511-1.048 1.485-1.617.974-.578 2.311-.578 1.882 0 2.972 1.172 1.09 1.164 1.09 3.252v1.081h-5.53q.148.752.651 1.18.504.43 1.304.43 1.32 0 2.064-.924l1.27 1.502q-.52.718-1.477 1.147-.949.421-2.047.421zm-.313-7.115q-1.222 0-1.453 1.618h2.806v-.215q.017-.668-.338-1.031-.355-.372-1.015-.372zM164.304 17.515v2.22h1.47v1.932h-1.47v4.085q0 .504.182.702.182.198.718.198.413 0 .693-.05v1.99q-.75.238-1.568.238-1.436 0-2.121-.676-.685-.677-.685-2.056v-4.432h-1.14v-1.931h1.14v-2.22h2.781zM170.115 17.515v2.22h1.47v1.932h-1.47v4.085q0 .504.182.702.181.198.718.198.413 0 .693-.05v1.99q-.75.238-1.568.238-1.436 0-2.121-.676-.685-.677-.685-2.056v-4.432h-1.14v-1.931h1.14v-2.22h2.781zM177.007 28.831q-2.055 0-3.326-1.222-1.271-1.23-1.271-3.194v-.23q0-1.371.503-2.42.512-1.048 1.486-1.617.974-.578 2.311-.578 1.882 0 2.971 1.172 1.09 1.164 1.09 3.252v1.081h-5.53q.148.752.652 1.18.503.43 1.304.43 1.32 0 2.063-.924l1.271 1.502q-.52.718-1.477 1.147-.95.421-2.047.421zm-.314-7.115q-1.221 0-1.452 1.618h2.806v-.215q.017-.668-.338-1.031-.355-.372-1.016-.372zM185.178 26.52h4.07v2.146h-7.586v-1.552l3.962-5.233h-3.788v-2.146h7.32v1.502l-3.978 5.283zM199.16 28.831q-2.055 0-3.326-1.222-1.271-1.23-1.271-3.194v-.23q0-1.371.503-2.42.512-1.048 1.486-1.617.974-.578 2.311-.578 1.882 0 2.972 1.172 1.09 1.164 1.09 3.252v1.081h-5.531q.149.752.652 1.18.504.43 1.304.43 1.32 0 2.064-.924l1.27 1.502q-.52.718-1.477 1.147-.949.421-2.047.421zm-.313-7.115q-1.222 0-1.453 1.618h2.806v-.215q.017-.668-.338-1.031-.355-.372-1.015-.372zM206.605 19.735l.091 1.048q.925-1.213 2.55-1.213 1.395 0 2.08.834.694.833.719 2.509v5.753h-2.79v-5.637q0-.677-.273-.99-.272-.323-.99-.323-.817 0-1.213.644v6.306h-2.782v-8.93h2.608zM223.138 27.7q-.883 1.131-2.386 1.131-1.469 0-2.228-.85-.751-.859-.751-2.46v-5.786h2.781v5.803q0 1.147 1.115 1.147.957 0 1.361-.685v-6.265h2.798v8.93h-2.608l-.082-.965zM229.914 19.735l.09 1.048q.925-1.213 2.551-1.213 1.395 0 2.08.834.694.833.718 2.509v5.753h-2.79v-5.637q0-.677-.272-.99-.272-.323-.99-.323-.817 0-1.214.644v6.306h-2.781v-8.93h2.608zM241.222 28.831q-2.055 0-3.326-1.222-1.272-1.23-1.272-3.194v-.23q0-1.371.504-2.42.512-1.048 1.486-1.617.974-.578 2.31-.578 1.883 0 2.972 1.172 1.09 1.164 1.09 3.252v1.081h-5.53q.148.752.652 1.18.503.43 1.304.43 1.32 0 2.063-.924l1.271 1.502q-.52.718-1.477 1.147-.95.421-2.047.421zm-.314-7.115q-1.221 0-1.452 1.618h2.806v-.215q.016-.668-.339-1.031-.355-.372-1.015-.372zM21.373 49.96q-2.055 0-3.326-1.22-1.271-1.23-1.271-3.195v-.231q0-1.37.503-2.419.512-1.048 1.486-1.617.974-.578 2.311-.578 1.882 0 2.971 1.172 1.09 1.164 1.09 3.252v1.081h-5.53q.148.751.652 1.18.503.43 1.304.43 1.32 0 2.063-.925l1.272 1.502q-.52.719-1.478 1.148-.95.42-2.047.42zm-.313-7.114q-1.222 0-1.453 1.618h2.806v-.215q.017-.668-.338-1.032-.355-.371-1.015-.371zM28.818 40.865l.09 1.048q.925-1.213 2.551-1.213 1.395 0 2.08.834.694.833.718 2.509v5.753h-2.79v-5.638q0-.677-.272-.99-.272-.322-.99-.322-.817 0-1.214.644v6.306H26.21v-8.93h2.608zM39.045 38.645v2.22h1.469v1.931h-1.47v4.086q0 .504.182.702.182.198.718.198.413 0 .694-.05v1.989q-.752.24-1.569.24-1.436 0-2.12-.678-.686-.676-.686-2.055v-4.432h-1.139v-1.931h1.139v-2.22h2.782zM44.55 49.796h-2.79v-8.93h2.79v8.93zm-2.955-11.234q0-.594.43-.974.428-.38 1.113-.38.686 0 1.115.38.429.38.429.974t-.43.974q-.428.38-1.114.38-.685 0-1.114-.38-.429-.38-.429-.974zM50.592 49.96q-2.056 0-3.327-1.22-1.27-1.23-1.27-3.195v-.231q0-1.37.503-2.419.512-1.048 1.485-1.617.974-.578 2.312-.578 1.881 0 2.97 1.172 1.09 1.164 1.09 3.252v1.081h-5.53q.149.751.652 1.18.504.43 1.305.43 1.32 0 2.063-.925l1.271 1.502q-.52.719-1.477 1.148-.95.42-2.047.42zm-.314-7.114q-1.222 0-1.453 1.618h2.807v-.215q.016-.668-.339-1.032-.355-.371-1.015-.371zm.941-3.145h-2.262L46.63 37.11h2.938L51.22 39.7zM60.884 43.382l-.916-.066q-1.312 0-1.684.826v5.654h-2.781v-8.93h2.608l.09 1.146q.702-1.312 1.957-1.312.446 0 .776.1l-.05 2.583zM66.043 49.96q-2.055 0-3.326-1.22-1.272-1.23-1.272-3.195v-.231q0-1.37.504-2.419.512-1.048 1.486-1.617.974-.578 2.31-.578 1.883 0 2.972 1.172 1.09 1.164 1.09 3.252v1.081h-5.53q.148.751.652 1.18.503.43 1.304.43 1.32 0 2.063-.925l1.271 1.502q-.52.719-1.477 1.148-.95.42-2.047.42zm-.314-7.114q-1.221 0-1.453 1.618h2.807v-.215q.016-.668-.339-1.032-.355-.371-1.015-.371zM79.835 47.286q0-.354-.371-.569-.372-.215-1.412-.446-1.04-.23-1.717-.602-.676-.38-1.031-.916-.355-.537-.355-1.23 0-1.23 1.015-2.022 1.015-.801 2.658-.801 1.766 0 2.839.8 1.073.801 1.073 2.105h-2.79q0-1.073-1.13-1.073-.438 0-.735.248-.297.24-.297.602 0 .372.363.603.363.231 1.155.38.801.148 1.403.355 2.014.693 2.014 2.484 0 1.222-1.09 1.99-1.08.767-2.805.767-1.148 0-2.047-.413-.9-.413-1.403-1.122-.504-.71-.504-1.494h2.6q.017.619.413.907.396.281 1.015.281.57 0 .85-.23.289-.232.289-.604zM87.37 46.486l1.412-5.62h2.93l-2.913 8.93h-2.84l-2.913-8.93h2.938l1.387 5.62zM100.85 45.396q0 2.08-.942 3.327-.932 1.238-2.525 1.238-1.23 0-2.023-.9v4.168H92.58V40.865h2.6l.082.825q.8-.99 2.105-.99 1.65 0 2.567 1.221.916 1.214.916 3.343v.132zm-2.782-.173q0-2.377-1.387-2.377-.99 0-1.32.71v3.516q.363.743 1.336.743 1.33 0 1.37-2.295v-.297zM103.045 53.031l-1.403-.66.28-.561q.578-1.073.603-2.047v-2.064h2.228l-.008 1.791q-.008.95-.487 1.932-.478.982-1.213 1.61zM113.477 40.865l.091 1.048q.95-1.213 2.55-1.213 1.693 0 2.287 1.345.908-1.345 2.625-1.345 2.715 0 2.79 3.285v5.81h-2.79v-5.637q0-.685-.231-.998-.231-.314-.842-.314-.826 0-1.23.735l.008.115v6.1h-2.79v-5.621q0-.702-.223-1.015-.223-.314-.85-.314-.8 0-1.221.735v6.215h-2.782v-8.93h2.608zM129.73 49.96q-2.056 0-3.327-1.22-1.271-1.23-1.271-3.195v-.231q0-1.37.503-2.419.512-1.048 1.486-1.617.974-.578 2.311-.578 1.882 0 2.971 1.172 1.09 1.164 1.09 3.252v1.081h-5.53q.149.751.652 1.18.503.43 1.304.43 1.32 0 2.064-.925l1.27 1.502q-.52.719-1.477 1.148-.949.42-2.047.42zm-.314-7.114q-1.222 0-1.453 1.618h2.806v-.215q.017-.668-.338-1.032-.355-.371-1.015-.371zm3.12-3.417v.107h-2.196l-1.312-1.122-1.313 1.122h-2.146v-.14l2.666-2.286h1.593l2.708 2.319zM137.248 40.865l.091 1.048q.95-1.213 2.55-1.213 1.693 0 2.287 1.345.908-1.345 2.625-1.345 2.715 0 2.79 3.285v5.81h-2.79v-5.637q0-.685-.231-.998-.231-.314-.842-.314-.826 0-1.23.735l.008.115v6.1h-2.79v-5.621q0-.702-.223-1.015-.223-.314-.85-.314-.8 0-1.221.735v6.215h-2.782v-8.93h2.608zM153.5 49.96q-2.055 0-3.326-1.22-1.271-1.23-1.271-3.195v-.231q0-1.37.503-2.419.512-1.048 1.486-1.617.974-.578 2.311-.578 1.882 0 2.971 1.172 1.09 1.164 1.09 3.252v1.081h-5.53q.148.751.652 1.18.503.43 1.304.43 1.32 0 2.064-.925l1.27 1.502q-.52.719-1.477 1.148-.949.42-2.047.42zm-.313-7.114q-1.222 0-1.453 1.618h2.806v-.215q.017-.668-.338-1.032-.355-.371-1.015-.371zM167.292 47.286q0-.354-.371-.569-.371-.215-1.411-.446-1.04-.23-1.717-.602-.677-.38-1.032-.916-.355-.537-.355-1.23 0-1.23 1.015-2.022 1.016-.801 2.658-.801 1.766 0 2.84.8 1.072.801 1.072 2.105h-2.79q0-1.073-1.13-1.073-.438 0-.735.248-.297.24-.297.602 0 .372.363.603.363.231 1.156.38.8.148 1.403.355 2.014.693 2.014 2.484 0 1.222-1.09 1.99-1.08.767-2.806.767-1.147 0-2.047-.413-.9-.413-1.403-1.122-.504-.71-.504-1.494h2.6q.017.619.413.907.396.281 1.015.281.57 0 .85-.23.29-.232.29-.604zM174.2 49.796h-2.789v-8.93h2.79v8.93zm-2.954-11.234q0-.594.43-.974.428-.38 1.113-.38t1.115.38q.429.38.429.974t-.43.974q-.429.38-1.114.38t-1.114-.38q-.429-.38-.429-.974zM183.924 47.815q.586 0 .908-.314.322-.322.313-.891h2.609q0 1.469-1.057 2.41-1.048.94-2.707.94-1.948 0-3.07-1.22-1.123-1.222-1.123-3.385v-.115q0-1.354.495-2.386.504-1.04 1.445-1.593.94-.561 2.228-.561 1.742 0 2.765.966 1.024.965 1.024 2.616h-2.609q0-.693-.338-1.065-.338-.371-.908-.371-1.081 0-1.263 1.378-.058.438-.058 1.205 0 1.346.322 1.866t1.024.52zm1.205 1.898l-.083.504q1.238.23 1.238 1.427 0 .958-.817 1.503-.817.544-2.27.544l-.057-1.535q.726 0 .726-.635 0-.314-.264-.438-.256-.124-.842-.165l.256-1.205h2.113zM193.96 49.796q-.148-.273-.264-.8-.767.965-2.146.965-1.262 0-2.146-.76-.883-.767-.883-1.923 0-1.452 1.073-2.195 1.073-.743 3.12-.743h.859v-.47q0-1.23-1.065-1.23-.99 0-.99.974h-2.782q0-1.296 1.098-2.105 1.106-.809 2.814-.809 1.709 0 2.7.834.99.833 1.014 2.286v3.953q.017 1.23.38 1.882v.14h-2.782zm-1.741-1.816q.52 0 .858-.223.347-.223.496-.504v-1.427h-.81q-1.452 0-1.452 1.304 0 .38.256.619.256.23.652.23zM201.785 45.264q0-2.12.916-3.343.916-1.221 2.559-1.221 1.197 0 2.014.94v-4.522h2.79v12.678h-2.501l-.14-.958q-.859 1.123-2.18 1.123-1.593 0-2.525-1.222-.933-1.221-.933-3.475zm2.782.174q0 2.377 1.386 2.377.925 0 1.32-.776v-3.4q-.379-.793-1.303-.793-1.288 0-1.395 2.08l-.008.512zM215.965 49.96q-2.055 0-3.326-1.22-1.271-1.23-1.271-3.195v-.231q0-1.37.503-2.419.512-1.048 1.486-1.617.974-.578 2.311-.578 1.882 0 2.971 1.172 1.09 1.164 1.09 3.252v1.081h-5.53q.148.751.652 1.18.503.43 1.304.43 1.32 0 2.063-.925l1.272 1.502q-.52.719-1.478 1.148-.95.42-2.047.42zm-.314-7.114q-1.221 0-1.452 1.618h2.806v-.215q.017-.668-.338-1.032-.355-.371-1.016-.371zm-.033-5.736h2.939l-2.295 2.591h-2.27l1.626-2.591zM229.146 45.396q0 2.08-.94 3.327-.933 1.238-2.526 1.238-1.23 0-2.022-.9v4.168h-2.782V40.865h2.6l.083.825q.8-.99 2.104-.99 1.651 0 2.567 1.221.916 1.214.916 3.343v.132zm-2.781-.173q0-2.377-1.387-2.377-.99 0-1.32.71v3.516q.363.743 1.337.743 1.329 0 1.37-2.295v-.297zM235.395 49.796q-.149-.273-.265-.8-.767.965-2.146.965-1.262 0-2.145-.76-.884-.767-.884-1.923 0-1.452 1.073-2.195 1.073-.743 3.12-.743h.859v-.47q0-1.23-1.065-1.23-.99 0-.99.974h-2.782q0-1.296 1.098-2.105 1.106-.809 2.814-.809 1.709 0 2.7.834.99.833 1.014 2.286v3.953q.017 1.23.38 1.882v.14h-2.781zm-1.742-1.816q.52 0 .858-.223.347-.223.496-.504v-1.427h-.81q-1.452 0-1.452 1.304 0 .38.256.619.256.23.652.23zM244.02 47.286q0-.354-.372-.569-.371-.215-1.411-.446-1.04-.23-1.717-.602-.677-.38-1.031-.916-.355-.537-.355-1.23 0-1.23 1.015-2.022 1.015-.801 2.658-.801 1.766 0 2.839.8 1.073.801 1.073 2.105h-2.79q0-1.073-1.13-1.073-.438 0-.735.248-.297.24-.297.602 0 .372.363.603.363.231 1.155.38.8.148 1.403.355 2.014.693 2.014 2.484 0 1.222-1.09 1.99-1.08.767-2.805.767-1.148 0-2.047-.413-.9-.413-1.404-1.122-.503-.71-.503-1.494h2.6q.016.619.413.907.396.281 1.015.281.57 0 .85-.23.289-.232.289-.604zM252.67 47.286q0-.354-.372-.569-.371-.215-1.411-.446-1.04-.23-1.717-.602-.677-.38-1.031-.916-.355-.537-.355-1.23 0-1.23 1.015-2.022 1.015-.801 2.658-.801 1.766 0 2.839.8 1.073.801 1.073 2.105h-2.79q0-1.073-1.13-1.073-.438 0-.735.248-.297.24-.297.602 0 .372.363.603.363.231 1.155.38.8.148 1.403.355 2.014.693 2.014 2.484 0 1.222-1.09 1.99-1.08.767-2.805.767-1.148 0-2.047-.413-.9-.413-1.404-1.122-.503-.71-.503-1.494h2.6q.016.619.413.907.396.281 1.015.281.57 0 .85-.23.289-.232.289-.604zM260.965 49.96q-2.055 0-3.326-1.22-1.271-1.23-1.271-3.195v-.231q0-1.37.503-2.419.512-1.048 1.486-1.617.974-.578 2.31-.578 1.883 0 2.972 1.172 1.09 1.164 1.09 3.252v1.081h-5.53q.148.751.652 1.18.503.43 1.304.43 1.32 0 2.063-.925l1.271 1.502q-.52.719-1.477 1.148-.95.42-2.047.42zm-.314-7.114q-1.221 0-1.452 1.618h2.806v-.215q.016-.668-.338-1.032-.355-.371-1.016-.371zM275.4 48.83q-.882 1.13-2.384 1.13-1.47 0-2.229-.85-.751-.858-.751-2.459v-5.786h2.781v5.802q0 1.148 1.115 1.148.957 0 1.362-.685v-6.265h2.798v8.93h-2.609l-.082-.965zM282.177 40.865l.091 1.048q.924-1.213 2.55-1.213 1.395 0 2.08.834.694.833.719 2.509v5.753h-2.79v-5.638q0-.677-.273-.99-.272-.322-.99-.322-.817 0-1.213.644v6.306h-2.782v-8.93h2.608zM25.343 66.526q0 2.08-.94 3.326-.933 1.238-2.526 1.238-1.23 0-2.023-.9v4.169h-2.781V61.995h2.6l.082.825q.801-.99 2.105-.99 1.65 0 2.567 1.221.916 1.214.916 3.343v.132zm-2.781-.173q0-2.377-1.387-2.377-.99 0-1.32.71v3.516q.363.742 1.337.742 1.328 0 1.37-2.294v-.297zM30.882 71.09q-2.056 0-3.327-1.221-1.27-1.23-1.27-3.194v-.231q0-1.37.503-2.419.511-1.048 1.485-1.618.974-.577 2.311-.577 1.882 0 2.972 1.172 1.09 1.164 1.09 3.252v1.081h-5.53q.148.751.651 1.18.504.43 1.304.43 1.321 0 2.064-.925l1.27 1.502q-.52.718-1.477 1.148-.949.42-2.046.42zm-.314-7.114q-1.222 0-1.453 1.617h2.807v-.214q.016-.669-.339-1.032-.355-.371-1.015-.371zM41.092 69.96q-.884 1.13-2.386 1.13-1.469 0-2.228-.85-.751-.858-.751-2.46v-5.785h2.781v5.802q0 1.147 1.114 1.147.958 0 1.362-.685v-6.264h2.798v8.93h-2.608l-.082-.965zM49.189 66.394q0-2.121.916-3.343.916-1.221 2.558-1.221 1.197 0 2.014.94v-4.522h2.79v12.677h-2.5l-.141-.957q-.859 1.122-2.18 1.122-1.592 0-2.525-1.221-.932-1.222-.932-3.475zm2.781.173q0 2.377 1.387 2.377.924 0 1.32-.775v-3.4q-.38-.793-1.304-.793-1.287 0-1.395 2.08l-.008.511zM63.369 71.09q-2.056 0-3.327-1.221-1.27-1.23-1.27-3.194v-.231q0-1.37.503-2.419.511-1.048 1.485-1.618.974-.577 2.311-.577 1.882 0 2.972 1.172 1.09 1.164 1.09 3.252v1.081h-5.53q.148.751.651 1.18.504.43 1.304.43 1.321 0 2.064-.925l1.271 1.502q-.52.718-1.477 1.148-.95.42-2.047.42zm-.314-7.114q-1.222 0-1.453 1.617h2.807v-.214q.016-.669-.339-1.032-.355-.371-1.015-.371zM72.935 68.416q0-.355-.372-.57-.371-.214-1.411-.445t-1.717-.603q-.677-.38-1.032-.916t-.355-1.23q0-1.23 1.016-2.022 1.015-.8 2.657-.8 1.767 0 2.84.8 1.073.801 1.073 2.105h-2.79q0-1.073-1.13-1.073-.438 0-.735.248-.298.24-.298.602 0 .372.364.603.363.23 1.155.38.8.148 1.403.354 2.014.694 2.014 2.485 0 1.221-1.09 1.989-1.08.767-2.806.767-1.147 0-2.047-.412-.9-.413-1.403-1.123t-.503-1.494h2.6q.016.62.412.908.397.28 1.016.28.57 0 .85-.23.289-.231.289-.603zM87.255 70.925h-2.79v-8.88l-2.74.8v-2.113L87 58.908h.256v12.017zM95.154 66.452l-1.189 1.304v3.17h-2.897V58.907h2.897v5.299l1.007-1.527 2.592-3.772h3.582l-4.06 5.315 4.06 6.702h-3.433l-2.559-4.473zM101.245 66.394q0-1.354.446-2.394t1.28-1.6q.833-.57 1.939-.57 1.395 0 2.179.94l.1-.775h2.525v8.592q0 1.18-.553 2.047-.545.875-1.585 1.337-1.04.47-2.41.47-.982 0-1.907-.37-.916-.372-1.403-.967l1.164-1.634q.776.916 2.047.916 1.849 0 1.849-1.898v-.28q-.8.882-2.022.882-1.635 0-2.642-1.246-1.007-1.254-1.007-3.35v-.1zm2.79.173q0 1.098.413 1.742.413.635 1.155.635.9 0 1.313-.602v-3.756q-.405-.61-1.296-.61-.743 0-1.164.668-.42.66-.42 1.923zM119.313 68.944q.586 0 .908-.313.322-.322.314-.892h2.608q0 1.47-1.057 2.41-1.048.941-2.707.941-1.948 0-3.07-1.221-1.123-1.222-1.123-3.384v-.116q0-1.353.495-2.385.504-1.04 1.445-1.593.94-.561 2.228-.561 1.742 0 2.765.965 1.024.966 1.024 2.617h-2.608q0-.693-.339-1.065-.338-.371-.908-.371-1.081 0-1.263 1.378-.057.438-.057 1.205 0 1.346.321 1.865.322.52 1.024.52zM123.968 66.378q0-1.338.52-2.378.52-1.048 1.494-1.609.974-.561 2.286-.561 2.006 0 3.162 1.246 1.155 1.238 1.155 3.376v.099q0 2.088-1.164 3.318-1.155 1.221-3.136 1.221-1.907 0-3.062-1.139-1.156-1.147-1.247-3.103l-.008-.47zm2.782.173q0 1.238.388 1.816.387.577 1.147.577 1.486 0 1.519-2.286v-.28q0-2.402-1.536-2.402-1.395 0-1.51 2.071l-.008.504zM136.456 61.995l.09 1.048q.95-1.213 2.551-1.213 1.692 0 2.287 1.345.908-1.345 2.624-1.345 2.716 0 2.79 3.285v5.81h-2.79v-5.637q0-.685-.23-.999-.232-.313-.843-.313-.825 0-1.23.734l.009.116v6.1h-2.79v-5.621q0-.702-.223-1.016-.223-.313-.85-.313-.8 0-1.222.734v6.215h-2.781v-8.93h2.608zM151.016 61.995l.09 1.048q.95-1.213 2.551-1.213 1.692 0 2.286 1.345.908-1.345 2.625-1.345 2.716 0 2.79 3.285v5.81h-2.79v-5.637q0-.685-.231-.999-.231-.313-.842-.313-.825 0-1.23.734l.008.116v6.1h-2.79v-5.621q0-.702-.222-1.016-.223-.313-.85-.313-.801 0-1.222.734v6.215h-2.782v-8.93h2.609zM167.977 70.925q-.148-.272-.264-.8-.767.965-2.146.965-1.263 0-2.146-.759-.883-.767-.883-1.923 0-1.453 1.073-2.196 1.073-.742 3.12-.742h.859V65q0-1.23-1.065-1.23-.99 0-.99.973h-2.782q0-1.296 1.098-2.104 1.106-.81 2.814-.81 1.709 0 2.7.834.99.834 1.014 2.287v3.953q.017 1.23.38 1.882v.14h-2.782zm-1.741-1.815q.52 0 .858-.223.347-.223.496-.504v-1.428h-.81q-1.452 0-1.452 1.304 0 .38.256.62.256.23.652.23zM174.481 61.995l.091 1.048q.925-1.213 2.55-1.213 1.396 0 2.08.833.694.834.719 2.51v5.752h-2.79v-5.637q0-.677-.272-.99-.273-.322-.99-.322-.818 0-1.214.643v6.306h-2.782v-8.93h2.608zM181.118 66.394q0-2.121.916-3.343.916-1.221 2.558-1.221 1.197 0 2.014.94v-4.522h2.79v12.677h-2.5l-.141-.957q-.859 1.122-2.18 1.122-1.592 0-2.525-1.221-.932-1.222-.932-3.475zm2.781.173q0 2.377 1.387 2.377.924 0 1.32-.775v-3.4q-.38-.793-1.304-.793-1.287 0-1.395 2.08l-.008.511zM195.298 71.09q-2.056 0-3.327-1.221-1.27-1.23-1.27-3.194v-.231q0-1.37.503-2.419.511-1.048 1.485-1.618.974-.577 2.311-.577 1.882 0 2.972 1.172 1.09 1.164 1.09 3.252v1.081h-5.53q.148.751.651 1.18.504.43 1.304.43 1.321 0 2.064-.925l1.271 1.502q-.52.718-1.477 1.148-.95.42-2.047.42zm-.314-7.114q-1.222 0-1.453 1.617h2.807v-.214q.016-.669-.339-1.032-.355-.371-1.015-.371zm-.033-5.737h2.938l-2.294 2.592h-2.27l1.626-2.592zM204.864 68.416q0-.355-.372-.57-.371-.214-1.411-.445t-1.717-.603q-.677-.38-1.032-.916t-.355-1.23q0-1.23 1.016-2.022 1.015-.8 2.657-.8 1.767 0 2.84.8 1.073.801 1.073 2.105h-2.79q0-1.073-1.13-1.073-.438 0-.735.248-.298.24-.298.602 0 .372.364.603.363.23 1.155.38.8.148 1.403.354 2.014.694 2.014 2.485 0 1.221-1.09 1.989-1.08.767-2.806.767-1.147 0-2.047-.412-.9-.413-1.403-1.123t-.503-1.494h2.6q.016.62.413.908.396.28 1.015.28.57 0 .85-.23.289-.231.289-.603z"/></g></svg>