<?xml version="1.0" encoding="UTF-8" standalone="no"?>
<!-- Created with Inkscape (http://www.inkscape.org/) -->

<svg
   xmlns:dc="http://purl.org/dc/elements/1.1/"
   xmlns:cc="http://creativecommons.org/ns#"
   xmlns:rdf="http://www.w3.org/1999/02/22-rdf-syntax-ns#"
   xmlns:svg="http://www.w3.org/2000/svg"
   xmlns="http://www.w3.org/2000/svg"
   xmlns:sodipodi="http://sodipodi.sourceforge.net/DTD/sodipodi-0.dtd"
   xmlns:inkscape="http://www.inkscape.org/namespaces/inkscape"
   width="83.41494mm"
   height="69.526871mm"
   viewBox="0 0 295.56475 246.35506"
   id="svg12085"
   version="1.1"
   inkscape:version="0.91 r13725"
   sodipodi:docname="produit_on_off.svg">
  <defs
     id="defs12087" />
  <sodipodi:namedview
     id="base"
     pagecolor="#ffffff"
     bordercolor="#666666"
     borderopacity="1.0"
     inkscape:pageopacity="0.0"
     inkscape:pageshadow="2"
     inkscape:zoom="2.8"
     inkscape:cx="143.50062"
     inkscape:cy="104.38076"
     inkscape:document-units="px"
     inkscape:current-layer="g11942"
     showgrid="false"
     inkscape:window-width="1855"
     inkscape:window-height="1056"
     inkscape:window-x="1431"
     inkscape:window-y="24"
     inkscape:window-maximized="1"
     fit-margin-top="0"
     fit-margin-left="0"
     fit-margin-right="0"
     fit-margin-bottom="0" />
  <metadata
     id="metadata12090">
    <rdf:RDF>
      <cc:Work
         rdf:about="">
        <dc:format>image/svg+xml</dc:format>
        <dc:type
           rdf:resource="http://purl.org/dc/dcmitype/StillImage" />
        <dc:title></dc:title>
      </cc:Work>
    </rdf:RDF>
  </metadata>
  <g
     inkscape:label="Layer 1"
     inkscape:groupmode="layer"
     id="layer1"
     transform="translate(-182.30425,-339.00798)">
    <g
       transform="translate(710.13655,-1017.8093)"
       style="display:inline;opacity:1"
       id="g11942">
      <g
         style="display:inline;opacity:1"
         transform="matrix(1.8115132,-0.0194915,-0.01949153,-1.8115132,-875.40027,2273.2868)"
         id="g7884-3-7-5-2">
        <g
           transform="translate(286.84684,493.73416)"
           id="g806-0-7-2-9">
          <path
             inkscape:connector-curvature="0"
             id="path808-9-5-0-3"
             style="fill:#479706;fill-opacity:1;fill-rule:nonzero;stroke:none"
             d="m 0,0 -2.15,1.54 c 0,0 2.99,4.46 -0.76,4.62 -3.75,0.17 -5.49,-11.01 1.42,-12.47 l -4.07,-0.04 -3.23,-0.03 -3.56,-0.03 -4.56,-0.04 c 0,0 0.01,0 0.04,0.01 0.03,0 0.05,0.01 0.07,0.01 0.63,0.17 3.77,1.23 4.88,5.99 0.56,2.42 1.53,5.11 3.13,7.03 1.43,1.71 3.36,2.8 5.96,2.49 C 6.34,8 2.84,-0.17 0,0" />
        </g>
        <g
           transform="translate(292.63684,483.85426)"
           id="g810-2-4-2-1">
          <path
             inkscape:connector-curvature="0"
             id="path812-5-8-9-9"
             style="fill:#479706;fill-opacity:1;fill-rule:nonzero;stroke:none"
             d="m 0,0 c 0,-1.06 -1.4,-2.02 -3.71,-2.75 -2.23,-0.7 -5.32,-1.19 -8.81,-1.33 -0.67,-0.03 -1.36,-0.04 -2.06,-0.04 -0.89,0 -1.77,0.02 -2.61,0.07 -3.33,0.17 -6.26,0.65 -8.39,1.34 -2.23,0.73 -3.58,1.67 -3.58,2.71 0,0.9 1.03,1.74 2.77,2.42 1.02,0.4 2.29,0.75 3.73,1.02 0.03,0 0.05,0.01 0.07,0.01 2.26,0.43 4.97,0.67 7.88,0.68 l 0.13,0 c 2.66,0 5.15,-0.2 7.3,-0.56 1.46,-0.23 2.75,-0.54 3.83,-0.9 C -1.29,1.94 0,1.02 0,0" />
        </g>
        <g
           transform="translate(283.19694,428.10426)"
           id="g814-4-1-0-4">
          <path
             inkscape:connector-curvature="0"
             id="path816-0-2-9-7"
             style="fill:#ff6e2e;fill-opacity:1;fill-rule:nonzero;stroke:none"
             d="m 0,0 c 0,-9.74 -1.82,-18.92 -5.04,-26.97 -0.03,-0.09 -0.06,-0.17 -0.1,-0.25 -1.74,-4.321 -3.88,-8.3 -6.37,-11.87 -2.42,-3.491 -5.17,-6.58 -8.18,-9.18 -5.22,-4.54 -11.22,-7.61 -17.67,-8.8 -1.96,-0.36 -3.96,-0.551 -6,-0.551 -23.95,0 -43.36,25.79 -43.36,57.621 0,31.82 19.41,57.63 43.36,57.63 2.49,0 4.94,-0.28 7.31,-0.82 6.12,-1.38 11.79,-4.46 16.75,-8.86 2.86,-2.54 5.47,-5.52 7.79,-8.86 2.43,-3.49 4.54,-7.38 6.25,-11.58 0.05,-0.1 0.09,-0.19 0.12,-0.29 C -1.86,19.11 0,9.84 0,0" />
        </g>
        <g
           transform="translate(292.63684,427.56426)"
           id="g818-5-8-9-8">
          <path
             inkscape:connector-curvature="0"
             id="path820-9-9-4-4"
             style="fill:#ff7c3b;fill-opacity:1;fill-rule:nonzero;stroke:none"
             d="m 0,0 c 0,-14.621 -2.97,-28.02 -7.91,-38.46 -1.88,-3.98 -4.05,-7.54 -6.46,-10.56 -0.06,-0.09 -0.13,-0.18 -0.21,-0.271 -2.49,-3.099 -5.23,-5.629 -8.16,-7.489 -3.69,-2.36 -7.68,-3.64 -11.84,-3.64 -4.3,0 -8.42,1.37 -12.22,3.89 -13.06,8.619 -22.35,30.68 -22.35,56.53 0,26.71 9.91,49.37 23.66,57.35 3.43,1.99 7.1,3.07 10.91,3.07 2.82,0 5.57,-0.59 8.19,-1.71 1.25,-0.52 2.46,-1.17 3.65,-1.93 1.94,-1.23 3.79,-2.75 5.55,-4.54 0.82,-0.83 1.61,-1.72 2.39,-2.67 0.07,-0.09 0.15,-0.18 0.22,-0.28 2.23,-2.76 4.26,-5.97 6.05,-9.55 C -3.22,29.12 0,15.22 0,0" />
        </g>
        <g
           transform="translate(272.91174,428.64336)"
           id="g822-4-3-5-5">
          <path
             inkscape:connector-curvature="0"
             id="path824-6-6-1-0"
             style="fill:#ff6e2e;fill-opacity:1;fill-rule:nonzero;stroke:none"
             d="m 0,0 c 0,-31.824 19.413,-57.625 43.36,-57.625 23.947,0 43.361,25.801 43.361,57.625 0,31.826 -19.414,57.625 -43.361,57.625 C 19.413,57.625 0,31.826 0,0" />
        </g>
        <g
           transform="translate(263.47234,428.10426)"
           id="g826-9-8-0-3">
          <path
             inkscape:connector-curvature="0"
             id="path828-2-0-3-6"
             style="fill:#ff7c3b;fill-opacity:1;fill-rule:nonzero;stroke:none"
             d="m 0,0 c 0,-33.367 15.479,-60.417 34.575,-60.417 19.096,0 34.575,27.05 34.575,60.417 0,33.367 -15.479,60.418 -34.575,60.418 C 15.479,60.418 0,33.367 0,0" />
        </g>
        <g
           transform="translate(301.57674,427.56426)"
           id="g830-2-2-7-1">
          <path
             inkscape:connector-curvature="0"
             id="path832-4-1-8-0"
             style="fill:#ff8f40;fill-opacity:1;fill-rule:nonzero;stroke:none"
             d="m 0,0 c 0,-19.14 -3.48,-36.21 -8.91,-47.27 -1.85,-3.811 -3.95,-6.91 -6.21,-9.13 -2.61,-2.58 -5.44,-3.99 -8.4,-4.02 l -0.08,0 c -2.84,0 -5.56,1.28 -8.08,3.64 -2.32,2.159 -4.48,5.23 -6.39,9.05 -5.56,11.05 -9.13,28.319 -9.13,47.73 0,19.86 3.74,37.48 9.52,48.49 0.99,1.9 2.05,3.61 3.16,5.09 0.92,1.23 1.86,2.3 2.84,3.2 1.47,1.38 3.01,2.39 4.6,2.98 1.12,0.43 2.27,0.65 3.43,0.66 l 0.13,0 c 1.09,-0.01 2.17,-0.21 3.23,-0.6 1.55,-0.54 3.05,-1.49 4.49,-2.78 1.09,-0.97 2.14,-2.14 3.15,-3.5 1.04,-1.4 2.04,-3 2.99,-4.78 C -3.81,37.77 0,20.02 0,0" />
        </g>
      </g>
      <g
         style="display:inline;opacity:0.544;fill:#3c3c3c;fill-opacity:1"
         transform="matrix(1.8115132,-0.0194915,-0.01949153,-1.8115132,-875.40027,2273.2868)"
         id="g7884-3-7-5-2-0">
        <g
           transform="translate(286.84684,493.73416)"
           id="g806-0-7-2-9-7"
           style="fill:#3c3c3c;fill-opacity:1">
          <path
             inkscape:connector-curvature="0"
             id="path808-9-5-0-3-8"
             style="fill:#3c3c3c;fill-opacity:1;fill-rule:nonzero;stroke:none"
             d="m 0,0 -2.15,1.54 c 0,0 2.99,4.46 -0.76,4.62 -3.75,0.17 -5.49,-11.01 1.42,-12.47 l -4.07,-0.04 -3.23,-0.03 -3.56,-0.03 -4.56,-0.04 c 0,0 0.01,0 0.04,0.01 0.03,0 0.05,0.01 0.07,0.01 0.63,0.17 3.77,1.23 4.88,5.99 0.56,2.42 1.53,5.11 3.13,7.03 1.43,1.71 3.36,2.8 5.96,2.49 C 6.34,8 2.84,-0.17 0,0" />
        </g>
        <g
           transform="translate(292.63684,483.85426)"
           id="g810-2-4-2-1-6"
           style="fill:#3c3c3c;fill-opacity:1">
          <path
             inkscape:connector-curvature="0"
             id="path812-5-8-9-9-8"
             style="fill:#3c3c3c;fill-opacity:1;fill-rule:nonzero;stroke:none"
             d="m 0,0 c 0,-1.06 -1.4,-2.02 -3.71,-2.75 -2.23,-0.7 -5.32,-1.19 -8.81,-1.33 -0.67,-0.03 -1.36,-0.04 -2.06,-0.04 -0.89,0 -1.77,0.02 -2.61,0.07 -3.33,0.17 -6.26,0.65 -8.39,1.34 -2.23,0.73 -3.58,1.67 -3.58,2.71 0,0.9 1.03,1.74 2.77,2.42 1.02,0.4 2.29,0.75 3.73,1.02 0.03,0 0.05,0.01 0.07,0.01 2.26,0.43 4.97,0.67 7.88,0.68 l 0.13,0 c 2.66,0 5.15,-0.2 7.3,-0.56 1.46,-0.23 2.75,-0.54 3.83,-0.9 C -1.29,1.94 0,1.02 0,0" />
        </g>
        <g
           transform="translate(283.19694,428.10426)"
           id="g814-4-1-0-4-8"
           style="fill:#3c3c3c;fill-opacity:1">
          <path
             inkscape:connector-curvature="0"
             id="path816-0-2-9-7-4"
             style="fill:#3c3c3c;fill-opacity:1;fill-rule:nonzero;stroke:none"
             d="m 0,0 c 0,-9.74 -1.82,-18.92 -5.04,-26.97 -0.03,-0.09 -0.06,-0.17 -0.1,-0.25 -1.74,-4.321 -3.88,-8.3 -6.37,-11.87 -2.42,-3.491 -5.17,-6.58 -8.18,-9.18 -5.22,-4.54 -11.22,-7.61 -17.67,-8.8 -1.96,-0.36 -3.96,-0.551 -6,-0.551 -23.95,0 -43.36,25.79 -43.36,57.621 0,31.82 19.41,57.63 43.36,57.63 2.49,0 4.94,-0.28 7.31,-0.82 6.12,-1.38 11.79,-4.46 16.75,-8.86 2.86,-2.54 5.47,-5.52 7.79,-8.86 2.43,-3.49 4.54,-7.38 6.25,-11.58 0.05,-0.1 0.09,-0.19 0.12,-0.29 C -1.86,19.11 0,9.84 0,0" />
        </g>
        <g
           transform="translate(292.63684,427.56426)"
           id="g818-5-8-9-8-3"
           style="fill:#3c3c3c;fill-opacity:1">
          <path
             inkscape:connector-curvature="0"
             id="path820-9-9-4-4-1"
             style="fill:#3c3c3c;fill-opacity:1;fill-rule:nonzero;stroke:none"
             d="m 0,0 c 0,-14.621 -2.97,-28.02 -7.91,-38.46 -1.88,-3.98 -4.05,-7.54 -6.46,-10.56 -0.06,-0.09 -0.13,-0.18 -0.21,-0.271 -2.49,-3.099 -5.23,-5.629 -8.16,-7.489 -3.69,-2.36 -7.68,-3.64 -11.84,-3.64 -4.3,0 -8.42,1.37 -12.22,3.89 -13.06,8.619 -22.35,30.68 -22.35,56.53 0,26.71 9.91,49.37 23.66,57.35 3.43,1.99 7.1,3.07 10.91,3.07 2.82,0 5.57,-0.59 8.19,-1.71 1.25,-0.52 2.46,-1.17 3.65,-1.93 1.94,-1.23 3.79,-2.75 5.55,-4.54 0.82,-0.83 1.61,-1.72 2.39,-2.67 0.07,-0.09 0.15,-0.18 0.22,-0.28 2.23,-2.76 4.26,-5.97 6.05,-9.55 C -3.22,29.12 0,15.22 0,0" />
        </g>
        <g
           transform="translate(272.91174,428.64336)"
           id="g822-4-3-5-5-4"
           style="fill:#3c3c3c;fill-opacity:1">
          <path
             inkscape:connector-curvature="0"
             id="path824-6-6-1-0-9"
             style="fill:#3c3c3c;fill-opacity:1;fill-rule:nonzero;stroke:none"
             d="m 0,0 c 0,-31.824 19.413,-57.625 43.36,-57.625 23.947,0 43.361,25.801 43.361,57.625 0,31.826 -19.414,57.625 -43.361,57.625 C 19.413,57.625 0,31.826 0,0" />
        </g>
        <g
           transform="translate(263.47234,428.10426)"
           id="g826-9-8-0-3-2"
           style="fill:#3c3c3c;fill-opacity:1">
          <path
             inkscape:connector-curvature="0"
             id="path828-2-0-3-6-0"
             style="fill:#3c3c3c;fill-opacity:1;fill-rule:nonzero;stroke:none"
             d="m 0,0 c 0,-33.367 15.479,-60.417 34.575,-60.417 19.096,0 34.575,27.05 34.575,60.417 0,33.367 -15.479,60.418 -34.575,60.418 C 15.479,60.418 0,33.367 0,0" />
        </g>
        <g
           transform="translate(301.57674,427.56426)"
           id="g830-2-2-7-1-6"
           style="fill:#3c3c3c;fill-opacity:1">
          <path
             inkscape:connector-curvature="0"
             id="path832-4-1-8-0-8"
             style="fill:#3c3c3c;fill-opacity:1;fill-rule:nonzero;stroke:none"
             d="m 0,0 c 0,-19.14 -3.48,-36.21 -8.91,-47.27 -1.85,-3.811 -3.95,-6.91 -6.21,-9.13 -2.61,-2.58 -5.44,-3.99 -8.4,-4.02 l -0.08,0 c -2.84,0 -5.56,1.28 -8.08,3.64 -2.32,2.159 -4.48,5.23 -6.39,9.05 -5.56,11.05 -9.13,28.319 -9.13,47.73 0,19.86 3.74,37.48 9.52,48.49 0.99,1.9 2.05,3.61 3.16,5.09 0.92,1.23 1.86,2.3 2.84,3.2 1.47,1.38 3.01,2.39 4.6,2.98 1.12,0.43 2.27,0.65 3.43,0.66 l 0.13,0 c 1.09,-0.01 2.17,-0.21 3.23,-0.6 1.55,-0.54 3.05,-1.49 4.49,-2.78 1.09,-0.97 2.14,-2.14 3.15,-3.5 1.04,-1.4 2.04,-3 2.99,-4.78 C -3.81,37.77 0,20.02 0,0" />
        </g>
      </g>
      <text
         xml:space="preserve"
         style="font-style:normal;font-variant:normal;font-weight:normal;font-stretch:normal;font-size:104.76747131px;line-height:125%;font-family:roboto;-inkscape-font-specification:'roboto, Normal';text-align:start;letter-spacing:0px;word-spacing:0px;writing-mode:lr-tb;text-anchor:start;fill:#ffffff;fill-opacity:1;stroke:none;stroke-width:1px;stroke-linecap:butt;stroke-linejoin:miter;stroke-opacity:1;"
         x="-474.11969"
         y="1532.6439"
         id="text12858"
         sodipodi:linespacing="125%"><tspan
           sodipodi:role="line"
           id="tspan12860"
           x="-474.11969"
           y="1532.6439"
           style="font-style:normal;font-variant:normal;font-weight:900;font-stretch:normal;font-family:roboto;-inkscape-font-specification:'roboto Heavy';fill:#ffffff;">OFF</tspan></text>
    </g>
  </g>
</svg>
