<svg xmlns="http://www.w3.org/2000/svg" viewBox="0 0 295.565 246.355" height="262.779" width="315.269"><path d="M162.435 16.472l-3.925-2.747s5.33-8.138-1.466-8.355c-6.797-.235-9.73 20.052 2.815 22.562l-7.372.152-5.85.117-6.449.124-8.26.161s.018 0 .073-.019c.054 0 .09-.019.126-.019 1.138-.32 6.806-2.302 8.724-10.946.967-4.395 2.672-9.287 5.533-12.796 2.557-3.126 6.032-5.138 10.748-4.627 16.632 1.778 10.451 16.646 5.303 16.393" fill="#479706"/><path d="M173.116 34.257c.021 1.92-2.496 3.687-6.667 5.054-4.026 1.312-9.614 2.26-15.933 2.581a83.84 83.84 0 0 1-3.731.113 80.212 80.212 0 0 1-4.73-.076c-6.035-.243-11.352-1.056-15.224-2.264-4.054-1.279-6.518-2.955-6.538-4.84-.018-1.63 1.832-3.172 4.97-4.437 1.84-.745 4.134-1.404 6.738-1.92.054-.001.09-.02.126-.02 4.086-.823 8.99-1.31 14.262-1.386l.235-.002c4.819-.052 9.333.262 13.235.872 2.65.388 4.992.925 6.956 1.556 3.927 1.28 6.282 2.921 6.301 4.77" fill="#479706"/><path d="M157.103 135.433c.19 17.644-2.929 34.31-8.605 48.955-.052.163-.105.309-.176.455-3.068 7.861-6.867 15.11-11.308 21.626-4.316 6.372-9.237 12.021-14.64 16.79-9.367 8.326-20.176 14.004-31.837 16.285a60.052 60.052 0 0 1-10.858 1.115c-43.386.467-79.05-45.873-79.67-103.536C-.613 79.481 34.045 32.348 77.431 31.881c4.51-.049 8.954.41 13.258 1.343 11.114 2.38 21.445 7.85 30.516 15.723 5.23 4.546 10.016 9.893 14.284 15.898 4.47 6.275 8.368 13.28 11.548 20.856.092.18.167.342.223.523 6.1 14.627 9.65 31.384 9.842 49.21" fill="#ff6e2e"/><path d="M174.214 136.227c.285 26.486-4.834 50.817-13.58 69.825-3.328 7.247-7.19 13.738-11.496 19.256a4.672 4.672 0 0 1-.375.495c-4.45 5.662-9.365 10.299-14.636 13.725-6.639 4.347-13.842 6.744-21.378 6.825-7.79.084-15.28-2.318-22.212-6.809-23.827-15.359-41.086-55.141-41.59-101.969-.52-48.385 16.99-89.627 41.743-104.351 6.175-3.672 12.802-5.7 19.704-5.774 5.108-.055 10.101.96 14.87 2.938 2.274.917 4.479 2.071 6.65 3.425 3.537 2.19 6.918 4.908 10.141 8.116a70.623 70.623 0 0 1 4.382 4.79c.129.162.275.323.404.503 4.094 4.956 7.833 10.732 11.146 17.182 9.826 19.135 15.93 44.252 16.227 71.823" fill="#ff7c3b"/><path d="M138.46 134.657c.62 57.65 36.29 104.01 79.67 103.543 43.381-.467 78.047-47.584 77.427-105.233-.62-57.654-36.292-104.01-79.673-103.544-43.38.467-78.044 47.58-77.424 105.234" fill="#ff6e2e"/><path d="M121.371 135.818c.65 60.444 29.218 109.144 63.81 108.772 34.594-.372 62.107-49.676 61.456-110.12-.65-60.445-29.218-109.147-63.81-108.774-34.593.372-62.106 49.677-61.456 110.122" fill="#ff7c3b"/><path d="M190.408 136.053c.373 34.672-5.598 65.663-15.219 85.804-3.277 6.94-7.02 12.594-11.071 16.66-4.678 4.725-9.777 7.334-15.139 7.446l-.145.002c-5.144.055-10.097-2.21-14.708-6.437-4.244-3.866-8.217-9.387-11.752-16.27-10.287-19.908-17.09-51.122-17.469-86.285-.387-35.977 6.044-67.968 16.3-88.026 1.757-3.461 3.644-6.58 5.626-9.282 1.642-2.246 3.324-4.203 5.082-5.852 2.636-2.529 5.406-4.388 8.275-5.488 2.02-.8 4.1-1.222 6.2-1.263l.236-.002a17.32 17.32 0 0 1 5.863 1.024c2.818.948 5.554 2.64 8.188 4.948 1.993 1.736 3.918 3.835 5.774 6.28 1.911 2.515 3.754 5.394 5.51 8.6 10.811 19.794 18.06 51.875 18.45 88.141" fill="#ff8f40"/><g opacity=".544" fill="#3c3c3c"><path d="M162.435 16.472l-3.925-2.747s5.33-8.138-1.466-8.355c-6.797-.235-9.73 20.052 2.815 22.562l-7.372.152-5.85.117-6.449.124-8.26.161s.018 0 .073-.019c.054 0 .09-.019.126-.019 1.138-.32 6.806-2.302 8.724-10.946.967-4.395 2.672-9.287 5.533-12.796 2.557-3.126 6.032-5.138 10.748-4.627 16.632 1.778 10.451 16.646 5.303 16.393"/><path d="M173.116 34.257c.021 1.92-2.496 3.687-6.667 5.054-4.026 1.312-9.614 2.26-15.933 2.581a83.84 83.84 0 0 1-3.731.113 80.212 80.212 0 0 1-4.73-.076c-6.035-.243-11.352-1.056-15.224-2.264-4.054-1.279-6.518-2.955-6.538-4.84-.018-1.63 1.832-3.172 4.97-4.437 1.84-.745 4.134-1.404 6.738-1.92.054-.001.09-.02.126-.02 4.086-.823 8.99-1.31 14.262-1.386l.235-.002c4.819-.052 9.333.262 13.235.872 2.65.388 4.992.925 6.956 1.556 3.927 1.28 6.282 2.921 6.301 4.77M157.103 135.433c.19 17.644-2.929 34.31-8.605 48.955-.052.163-.105.309-.176.455-3.068 7.861-6.867 15.11-11.308 21.626-4.316 6.372-9.237 12.021-14.64 16.79-9.367 8.326-20.176 14.004-31.837 16.285a60.052 60.052 0 0 1-10.858 1.115c-43.386.467-79.05-45.873-79.67-103.536C-.613 79.481 34.045 32.348 77.431 31.881c4.51-.049 8.954.41 13.258 1.343 11.114 2.38 21.445 7.85 30.516 15.723 5.23 4.546 10.016 9.893 14.284 15.898 4.47 6.275 8.368 13.28 11.548 20.856.092.18.167.342.223.523 6.1 14.627 9.65 31.384 9.842 49.21"/><path d="M174.214 136.227c.285 26.486-4.834 50.817-13.58 69.825-3.328 7.247-7.19 13.738-11.496 19.256a4.672 4.672 0 0 1-.375.495c-4.45 5.662-9.365 10.299-14.636 13.725-6.639 4.347-13.842 6.744-21.378 6.825-7.79.084-15.28-2.318-22.212-6.809-23.827-15.359-41.086-55.141-41.59-101.969-.52-48.385 16.99-89.627 41.743-104.351 6.175-3.672 12.802-5.7 19.704-5.774 5.108-.055 10.101.96 14.87 2.938 2.274.917 4.479 2.071 6.65 3.425 3.537 2.19 6.918 4.908 10.141 8.116a70.623 70.623 0 0 1 4.382 4.79c.129.162.275.323.404.503 4.094 4.956 7.833 10.732 11.146 17.182 9.826 19.135 15.93 44.252 16.227 71.823"/><path d="M138.46 134.657c.62 57.65 36.29 104.01 79.67 103.543 43.381-.467 78.047-47.584 77.427-105.233-.62-57.654-36.292-104.01-79.673-103.544-43.38.467-78.044 47.58-77.424 105.234"/><path d="M121.371 135.818c.65 60.444 29.218 109.144 63.81 108.772 34.594-.372 62.107-49.676 61.456-110.12-.65-60.445-29.218-109.147-63.81-108.774-34.593.372-62.106 49.677-61.456 110.122"/><path d="M190.408 136.053c.373 34.672-5.598 65.663-15.219 85.804-3.277 6.94-7.02 12.594-11.071 16.66-4.678 4.725-9.777 7.334-15.139 7.446l-.145.002c-5.144.055-10.097-2.21-14.708-6.437-4.244-3.866-8.217-9.387-11.752-16.27-10.287-19.908-17.09-51.122-17.469-86.285-.387-35.977 6.044-67.968 16.3-88.026 1.757-3.461 3.644-6.58 5.626-9.282 1.642-2.246 3.324-4.203 5.082-5.852 2.636-2.529 5.406-4.388 8.275-5.488 2.02-.8 4.1-1.222 6.2-1.263l.236-.002a17.32 17.32 0 0 1 5.863 1.024c2.818.948 5.554 2.64 8.188 4.948 1.993 1.736 3.918 3.835 5.774 6.28 1.911 2.515 3.754 5.394 5.51 8.6 10.811 19.794 18.06 51.875 18.45 88.141"/></g><g style="line-height:125%;-inkscape-font-specification:'roboto, Normal';text-align:start" font-weight="900" font-size="104.767" font-family="roboto" letter-spacing="0" word-spacing="0" fill="#fff"><path style="-inkscape-font-specification:'roboto Heavy'" d="M122.415 140.12q0 10.896-4.041 19.286-4.042 8.39-11.51 12.942-7.418 4.502-16.933 4.502t-16.881-4.348q-7.367-4.4-11.51-12.534-4.093-8.133-4.298-18.672v-4.194q0-10.948 3.99-19.286 4.042-8.39 11.51-12.943 7.52-4.553 17.087-4.553 9.464 0 16.881 4.502 7.418 4.502 11.51 12.84 4.144 8.288 4.195 19.03v3.428zM104.152 137q0-11.102-3.734-16.831-3.683-5.78-10.59-5.78-13.504 0-14.272 20.257l-.051 5.474q0 10.947 3.632 16.83 3.632 5.883 10.794 5.883 6.804 0 10.487-5.78 3.683-5.781 3.734-16.626v-3.428zM178.687 146.156h-28.955v29.67h-17.955v-74.482h49.826v13.863h-31.87v17.137h28.954v13.812zM235.981 146.156h-28.954v29.67h-17.956v-74.482h49.826v13.863h-31.87v17.137h28.954v13.812z"/></g></svg>