<svg xmlns="http://www.w3.org/2000/svg" viewBox="0 0 203.52 321.484" height="342.916" width="217.088"><g style="line-height:121.00000381%;-inkscape-font-specification:'Roboto, Normal';text-align:start"><path style="-inkscape-font-specification:'Roboto Heavy'" d="M67.624 219.292q0-31.544 7.13-49.692 7.13-18.364 23.117-31.76 15.988-13.395 24.198-24.413 8.426-11.235 8.426-24.63 0-32.624-28.087-32.624-12.963 0-20.957 9.506-7.994 9.507-8.426 25.71H0q.432-43.21 27.222-67.191Q54.012 0 102.408 0q48.18 0 74.538 22.253 26.574 22.253 26.574 63.303 0 17.932-7.13 32.624-7.13 14.691-22.901 30.03l-24.846 23.118q-10.587 10.155-14.692 20.957-4.104 10.587-4.537 27.007h-61.79zm-8.858 65.679q0-15.988 11.45-26.142 11.667-10.37 28.951-10.37t28.735 10.37q11.667 10.154 11.667 26.142t-11.667 26.358q-11.45 10.155-28.735 10.155-17.284 0-28.95-10.155-11.451-10.37-11.451-26.358z" font-weight="900" font-size="442.472" font-family="Roboto" letter-spacing="0" word-spacing="0" fill="#bdcdd4"/></g></svg>