<svg xmlns="http://www.w3.org/2000/svg" width="300.93" height="302.888" viewBox="0 0 282.12196 283.95768"><path d="M.219 283.63c2.69-2.365 30.898-26.543 62.683-53.73 31.786-27.186 57.815-49.722 57.841-50.08.027-.357-12.247-8.798-27.276-18.757-15.028-9.959-26.868-18.523-26.31-19.031C71.592 137.992 283.59-2.061 282.114.023c-1.053 1.488-29.134 33.795-62.401 71.792-33.268 37.998-60.671 69.616-60.896 70.263-.225.646 11.189 8.89 25.365 18.32 14.176 9.43 26.291 17.619 26.923 18.197.631.577-47.66 25.414-107.315 55.193C30.757 270.245-3.075 286.526.22 283.63z" fill="#f58042"/></svg>