<svg xmlns="http://www.w3.org/2000/svg" viewBox="0 0 216.54 259.905" height="277.232" width="230.976"><g style="line-height:125%;-inkscape-font-specification:'roboto, Normal';text-align:start" font-weight="400" font-size="23.816" font-family="roboto" letter-spacing="0" word-spacing="0" fill="#2e3436"><path d="M97.798 115.276q-.314 2.686-1.989 4.151-1.663 1.454-4.43 1.454-3 0-4.815-2.151-1.802-2.152-1.802-5.757v-1.628q0-2.36.837-4.151.849-1.791 2.395-2.745 1.547-.965 3.582-.965 2.698 0 4.326 1.512 1.628 1.5 1.896 4.163h-2.245q-.29-2.023-1.267-2.93-.966-.908-2.71-.908-2.14 0-3.36 1.582-1.21 1.582-1.21 4.5v1.64q0 2.756 1.151 4.384 1.151 1.628 3.221 1.628 1.861 0 2.85-.837 1-.849 1.325-2.942h2.245zM102.833 120.648h-2.152v-17.862h2.152v17.862zM108.6 120.648h-2.15v-12.582h2.15v12.582zm-2.325-15.92q0-.523.314-.883.326-.36.954-.36.627 0 .953.36.326.36.326.883 0 .524-.326.873-.326.348-.953.348-.628 0-.954-.348-.314-.35-.314-.873zM117.253 120.88q-2.559 0-4.164-1.674-1.604-1.686-1.604-4.5v-.395q0-1.873.71-3.338.72-1.477 2-2.302 1.29-.838 2.79-.838 2.454 0 3.814 1.617 1.361 1.616 1.361 4.628v.895h-8.524q.047 1.861 1.082 3.012 1.046 1.14 2.65 1.14 1.14 0 1.931-.465.791-.465 1.384-1.233l1.314 1.023q-1.581 2.43-4.744 2.43zm-.268-11.28q-1.302 0-2.186.954-.884.942-1.093 2.652h6.303v-.163q-.093-1.64-.884-2.535-.79-.907-2.14-.907zM126.672 108.066l.07 1.581q1.442-1.814 3.768-1.814 3.988 0 4.023 4.5v8.315h-2.151v-8.326q-.012-1.36-.628-2.012-.605-.651-1.896-.651-1.046 0-1.837.558-.79.558-1.233 1.465v8.966h-2.151v-12.582h2.035zM140.72 105.02v3.046h2.349v1.663h-2.35v7.803q0 .756.315 1.14.314.372 1.07.372.372 0 1.023-.14v1.744q-.849.233-1.651.233-1.442 0-2.175-.872-.733-.872-.733-2.477v-7.803h-2.29v-1.663h2.29v-3.047h2.152zM152.895 117.31q0-.871-.663-1.348-.65-.489-2.29-.837-1.629-.35-2.594-.838-.953-.488-1.419-1.163-.453-.674-.453-1.604 0-1.547 1.302-2.617 1.314-1.07 3.35-1.07 2.14 0 3.465 1.105 1.337 1.105 1.337 2.826h-2.163q0-.884-.756-1.524-.744-.64-1.884-.64-1.174 0-1.837.513-.663.511-.663 1.337 0 .779.617 1.174.616.396 2.22.756 1.617.36 2.617.86t1.477 1.21q.489.698.489 1.71 0 1.686-1.35 2.71-1.348 1.01-3.5 1.01-1.511 0-2.674-.534-1.163-.535-1.826-1.489-.651-.965-.651-2.081h2.151q.058 1.081.86 1.721.815.628 2.14.628 1.221 0 1.954-.488.744-.5.744-1.326z"/></g><g style="line-height:125%;-inkscape-font-specification:'roboto, Normal';text-align:start" font-weight="400" font-size="23.816" font-family="roboto" letter-spacing="0" word-spacing="0" fill="#2e3436"><path d="M86.004 16.342v6.628H83.77V6.04h6.245q2.779 0 4.349 1.418 1.581 1.42 1.581 3.757 0 2.465-1.546 3.802-1.535 1.326-4.408 1.326h-3.988zm0-1.826h4.012q1.79 0 2.744-.837.954-.849.954-2.442 0-1.512-.954-2.419-.953-.907-2.616-.942h-4.14v6.64zM104.54 12.318q-.488-.081-1.058-.081-2.117 0-2.872 1.802v8.931h-2.152V10.388h2.093l.035 1.454q1.059-1.687 3-1.687.629 0 .954.163v2zM105.703 16.563q0-1.85.721-3.326.733-1.477 2.023-2.28 1.303-.802 2.966-.802 2.57 0 4.151 1.78 1.594 1.779 1.594 4.733v.15q0 1.838-.71 3.303-.698 1.454-2.012 2.268-1.302.814-3 .814-2.558 0-4.151-1.78-1.582-1.779-1.582-4.709v-.151zm2.163.256q0 2.093.965 3.36.977 1.268 2.605 1.268 1.64 0 2.605-1.28.965-1.29.965-3.604 0-2.07-.988-3.35-.977-1.29-2.605-1.29-1.593 0-2.57 1.267-.977 1.268-.977 3.629zM119.332 16.574q0-2.895 1.372-4.651 1.373-1.768 3.594-1.768 2.21 0 3.5 1.512V5.108h2.151V22.97h-1.977l-.104-1.349q-1.291 1.582-3.594 1.582-2.186 0-3.57-1.79-1.372-1.792-1.372-4.676v-.163zm2.151.245q0 2.14.884 3.349.884 1.21 2.442 1.21 2.047 0 2.989-1.838v-5.78q-.965-1.779-2.965-1.779-1.582 0-2.466 1.221-.884 1.221-.884 3.617zM141.067 21.726q-1.256 1.477-3.687 1.477-2.012 0-3.07-1.163-1.046-1.174-1.058-3.465v-8.187h2.151v8.128q0 2.861 2.326 2.861 2.465 0 3.28-1.837v-9.152h2.15V22.97h-2.046l-.046-1.244zM148.753 22.97h-2.151V10.388h2.151V22.97zm-2.326-15.92q0-.523.314-.883.326-.36.954-.36.628 0 .954.36.325.36.325.883 0 .524-.325.873-.326.348-.954.348-.628 0-.954-.348-.314-.35-.314-.873zM155.103 7.341v3.047h2.349v1.663h-2.35v7.803q0 .756.315 1.14.314.372 1.07.372.372 0 1.023-.14v1.744q-.85.233-1.652.233-1.442 0-2.174-.872-.733-.872-.733-2.477V12.05h-2.29v-1.663h2.29V7.34h2.152zM167.278 19.633q0-.872-.663-1.35-.651-.487-2.29-.836-1.629-.35-2.594-.838-.954-.488-1.419-1.163-.453-.674-.453-1.604 0-1.547 1.302-2.617 1.314-1.07 3.35-1.07 2.139 0 3.465 1.105 1.337 1.105 1.337 2.826h-2.163q0-.884-.756-1.523-.744-.64-1.884-.64-1.174 0-1.837.512-.663.511-.663 1.337 0 .78.616 1.174.617.396 2.222.756 1.616.36 2.616.86t1.477 1.21q.488.698.488 1.71 0 1.686-1.349 2.71-1.349 1.01-3.5 1.01-1.512 0-2.675-.534-1.162-.535-1.825-1.488-.651-.966-.651-2.082h2.15q.059 1.081.861 1.721.814.628 2.14.628 1.221 0 1.954-.488.744-.5.744-1.326z"/></g><g style="line-height:125%;-inkscape-font-specification:'roboto, Normal';text-align:start" font-weight="400" font-size="23.816" font-family="roboto" letter-spacing="0" word-spacing="0" fill="#2e3436"><path d="M89.686 224.268H85.71v6.85h-2.244v-16.932h5.605q2.86 0 4.396 1.302 1.546 1.302 1.546 3.791 0 1.582-.86 2.756-.85 1.175-2.373 1.756l3.978 7.187v.14H93.36l-3.675-6.85zm-3.977-1.826h3.43q1.664 0 2.64-.86.989-.861.989-2.303 0-1.57-.942-2.407-.93-.837-2.698-.85H85.71v6.42zM103.013 231.35q-2.558 0-4.163-1.675-1.605-1.686-1.605-4.5v-.396q0-1.872.71-3.337.72-1.477 2-2.303 1.29-.837 2.79-.837 2.454 0 3.815 1.617 1.36 1.616 1.36 4.628v.895h-8.524q.047 1.861 1.082 3.012 1.046 1.14 2.651 1.14 1.14 0 1.93-.465.791-.465 1.384-1.233l1.315 1.023q-1.582 2.43-4.745 2.43zm-.268-11.28q-1.302 0-2.186.953-.884.942-1.093 2.652h6.303v-.163q-.093-1.64-.884-2.535-.79-.907-2.14-.907zM112.432 218.535l.07 1.581q1.442-1.814 3.768-1.814 3.989 0 4.024 4.5v8.315h-2.152v-8.326q-.011-1.36-.628-2.012-.604-.651-1.895-.651-1.047 0-1.838.558-.79.558-1.232 1.465v8.966h-2.152v-12.582h2.035zM123.038 224.721q0-2.895 1.372-4.651 1.372-1.768 3.593-1.768 2.21 0 3.5 1.512v-6.559h2.152v17.862h-1.977l-.105-1.349q-1.29 1.582-3.593 1.582-2.186 0-3.57-1.791-1.372-1.79-1.372-4.675v-.163zm2.151.245q0 2.14.884 3.349.884 1.21 2.442 1.21 2.047 0 2.989-1.838v-5.78q-.965-1.78-2.966-1.78-1.581 0-2.465 1.222-.884 1.221-.884 3.617zM142.226 231.35q-2.559 0-4.164-1.675-1.604-1.686-1.604-4.5v-.396q0-1.872.709-3.337.721-1.477 2-2.303 1.291-.837 2.791-.837 2.454 0 3.814 1.617 1.36 1.616 1.36 4.628v.895h-8.523q.046 1.861 1.081 3.012 1.047 1.14 2.652 1.14 1.14 0 1.93-.465.791-.465 1.384-1.233l1.314 1.023q-1.581 2.43-4.744 2.43zm-.268-11.28q-1.302 0-2.186.953-.884.942-1.093 2.652h6.303v-.163q-.093-1.64-.884-2.535-.791-.907-2.14-.907zM151.633 229.361h7.361v1.756h-9.989v-1.581l6.943-9.222h-6.838v-1.78h9.536v1.524l-7.013 9.303zM165.902 224.803h-5.675v-1.756h5.675v1.756zM172.135 228.198l3.117-9.663h2.197l-4.512 12.582h-1.64l-4.558-12.582h2.198l3.198 9.663zM178.764 224.71q0-1.85.72-3.326.733-1.477 2.024-2.28 1.302-.802 2.965-.802 2.57 0 4.152 1.78 1.593 1.779 1.593 4.732v.152q0 1.837-.71 3.302-.697 1.454-2.011 2.268-1.303.814-3 .814-2.559 0-4.152-1.78-1.581-1.779-1.581-4.71v-.15zm2.162.256q0 2.093.966 3.36.977 1.268 2.605 1.268 1.64 0 2.604-1.28.966-1.29.966-3.604 0-2.07-.989-3.35-.977-1.29-2.605-1.29-1.593 0-2.57 1.267-.976 1.268-.976 3.629zM200.684 229.873q-1.256 1.477-3.686 1.477-2.012 0-3.07-1.163-1.047-1.175-1.059-3.465v-8.187h2.152v8.128q0 2.861 2.325 2.861 2.466 0 3.28-1.837v-9.152h2.151v12.582h-2.047l-.046-1.244zM213.36 227.78q0-.872-.663-1.35-.652-.488-2.291-.836-1.628-.35-2.594-.838-.953-.488-1.418-1.163-.454-.674-.454-1.604 0-1.547 1.303-2.617 1.314-1.07 3.349-1.07 2.14 0 3.465 1.105 1.338 1.105 1.338 2.826h-2.163q0-.884-.756-1.524-.745-.64-1.884-.64-1.175 0-1.838.512-.662.512-.662 1.338 0 .779.616 1.174.616.396 2.221.756 1.616.36 2.617.86 1 .5 1.476 1.21.489.698.489 1.71 0 1.686-1.35 2.71-1.348 1.01-3.5 1.01-1.511 0-2.674-.534-1.163-.535-1.826-1.489-.651-.965-.651-2.081h2.151q.059 1.081.86 1.72.815.629 2.14.629 1.222 0 1.954-.489.744-.5.744-1.325z"/></g><g style="line-height:125%;-inkscape-font-specification:'roboto, Normal';text-align:start" font-weight="400" font-size="13.297" font-family="roboto" letter-spacing="0" word-spacing="0" fill="#2e3436"><path d="M88.225 133.014v7.837q0 2.026-1.838 2.026-.396 0-.733-.117v-.961q.208.052.545.052.403 0 .61-.22.215-.215.215-.754v-7.863h1.2zm-1.325-1.863q0-.286.176-.487.182-.208.526-.208.35 0 .532.202.182.2.182.493 0 .292-.182.487t-.532.195q-.351 0-.526-.195-.176-.195-.176-.487zM96.087 136.605q0 1.604-.733 2.584-.734.98-1.987.98-1.279 0-2.013-.811v3.382h-1.2v-9.726h1.096l.059.78q.734-.91 2.039-.91 1.266 0 2 .955.74.954.74 2.656v.11zm-1.2-.136q0-1.189-.507-1.877-.506-.688-1.39-.688-1.09 0-1.636.967v3.357q.54.96 1.65.96.863 0 1.37-.68.512-.689.512-2.04zM97.633 139.41q0-.312.182-.52.188-.207.558-.207.37 0 .558.207.195.208.195.52 0 .298-.195.5-.188.2-.558.2-.37 0-.558-.2-.182-.202-.182-.5zM100.82 136.469q0-1.617.767-2.598.766-.986 2.006-.986 1.234 0 1.954.844v-3.662h1.201v9.972h-1.103l-.059-.753q-.72.883-2.006.883-1.22 0-1.993-1-.766-1-.766-2.61v-.09zm1.202.136q0 1.195.493 1.87.494.675 1.364.675 1.142 0 1.668-1.026v-3.227q-.539-.993-1.655-.993-.883 0-1.377.682-.493.681-.493 2.019zM112.955 139.345q-.7.824-2.058.824-1.123 0-1.714-.649-.584-.656-.59-1.935v-4.57h1.2v4.538q0 1.597 1.299 1.597 1.376 0 1.83-1.026v-5.11h1.202v7.025h-1.143l-.026-.694zM121.876 136.605q0 1.604-.733 2.584-.734.98-1.987.98-1.28 0-2.013-.811v3.382h-1.201v-9.726h1.097l.059.78q.733-.91 2.038-.91 1.266 0 2 .955.74.954.74 2.656v.11zm-1.2-.136q0-1.189-.507-1.877t-1.39-.688q-1.09 0-1.636.967v3.357q.539.96 1.65.96.863 0 1.37-.68.512-.689.512-2.04zM123.077 136.462q0-1.032.403-1.857.409-.824 1.13-1.272.727-.448 1.655-.448 1.435 0 2.318.993.89.993.89 2.642v.085q0 1.026-.396 1.844-.39.811-1.124 1.266-.727.454-1.675.454-1.428 0-2.318-.993-.883-.993-.883-2.63v-.084zm1.208.143q0 1.169.539 1.876.545.708 1.454.708.916 0 1.455-.714.538-.72.538-2.013 0-1.156-.551-1.87-.546-.72-1.455-.72-.89 0-1.435.707-.545.708-.545 2.026zM132.115 133.014l.04.883q.804-1.012 2.103-1.012 2.227 0 2.246 2.512v4.642h-1.201v-4.648q-.006-.76-.35-1.123-.338-.364-1.059-.364-.584 0-1.026.312-.441.311-.688.818v5.005h-1.201v-7.025h1.136zM139.958 131.313v1.701h1.312v.929h-1.312v4.356q0 .422.176.637.175.207.597.207.208 0 .571-.077v.973q-.474.13-.922.13-.805 0-1.214-.487-.409-.487-.409-1.383v-4.356h-1.279v-.929h1.28v-1.7h1.2zM153.04 136.78q-.077 1.571-.778 2.48-.701.91-1.877.91-1.214 0-1.558-1.091-.35.551-.805.824-.448.266-.928.266-.922 0-1.396-.753-.474-.753-.35-2.084.097-1.071.486-1.909.396-.844 1.013-1.324.623-.48 1.305-.48.526 0 .941.142.416.136.935.545l-.337 3.597q-.124 1.5.83 1.5.734 0 1.189-.727.454-.727.493-1.896.124-2.525-.941-3.85-1.058-1.324-3.227-1.324-1.305 0-2.318.649-1.013.643-1.597 1.863-.584 1.22-.656 2.818-.078 1.61.39 2.798.467 1.182 1.422 1.805.96.63 2.318.63.584 0 1.168-.143.591-.143.98-.37l.24.747q-.402.253-1.07.415-.663.163-1.344.163-1.624 0-2.792-.734-1.169-.727-1.753-2.104-.578-1.37-.5-3.207.078-1.785.798-3.207.721-1.429 1.955-2.201 1.233-.78 2.785-.78 1.617 0 2.772.728 1.156.727 1.72 2.097.566 1.37.488 3.207zm-6.66.552q-.091.922.168 1.415.266.494.838.494.39 0 .746-.331.364-.331.598-.948l.006-.059.298-3.265q-.363-.189-.779-.189-.76 0-1.26.773-.493.773-.616 2.11zM154.326 136.469q0-1.643.76-2.61.76-.974 2.013-.974 1.285 0 2.006.909l.058-.78h1.098v6.857q0 1.363-.812 2.149-.805.785-2.168.785-.76 0-1.487-.324-.727-.325-1.11-.89l.623-.72q.772.954 1.89.954.876 0 1.363-.493.493-.494.493-1.39v-.604q-.72.831-1.967.831-1.234 0-2-.993-.76-.993-.76-2.707zm1.208.136q0 1.188.487 1.87.487.675 1.363.675 1.137 0 1.67-1.032v-3.208q-.553-1.006-1.657-1.006-.876 0-1.37.682-.493.681-.493 2.019zM163.195 133.014l.033.78q.772-.91 2.084-.91 1.474 0 2.006 1.13.35-.506.91-.818.564-.311 1.33-.311 2.312 0 2.35 2.447v4.707h-1.2v-4.635q0-.753-.345-1.123-.344-.377-1.155-.377-.67 0-1.11.402-.442.397-.514 1.072v4.661h-1.207v-4.603q0-1.532-1.5-1.532-1.182 0-1.617 1.006v5.13h-1.2v-7.026h1.135zM178.064 140.04q-.104-.208-.17-.74-.837.87-1.999.87-1.039 0-1.708-.585-.662-.59-.662-1.493 0-1.098.831-1.701.838-.61 2.35-.61h1.17v-.553q0-.63-.377-1-.377-.376-1.11-.376-.643 0-1.078.325-.435.324-.435.785h-1.208q0-.526.37-1.013.377-.493 1.013-.779.643-.285 1.409-.285 1.214 0 1.902.61.688.604.714 1.669v3.233q0 .967.247 1.539v.103h-1.26zm-1.994-.916q.565 0 1.072-.292.506-.292.733-.76v-1.441h-.941q-2.208 0-2.208 1.292 0 .565.377.883.376.318.967.318zM182.277 140.04h-1.2v-7.026h1.2v7.025zm-1.298-8.889q0-.292.175-.493.182-.202.532-.202.351 0 .533.202.182.2.182.493 0 .292-.182.487t-.533.195q-.35 0-.532-.195-.175-.195-.175-.487zM185.498 140.04h-1.202v-9.973h1.202v9.972zM187.439 139.41q0-.312.182-.52.188-.207.558-.207.37 0 .558.207.195.208.195.52 0 .298-.195.5-.188.2-.558.2-.37 0-.558-.2-.182-.202-.182-.5zM193.737 139.189q.643 0 1.123-.39t.532-.973h1.137q-.033.603-.416 1.149-.383.545-1.026.87-.636.324-1.35.324-1.435 0-2.286-.954-.844-.961-.844-2.623v-.201q0-1.026.377-1.825.376-.798 1.078-1.24.707-.441 1.668-.441 1.182 0 1.961.707.786.708.838 1.838h-1.137q-.052-.682-.52-1.117-.46-.442-1.142-.442-.915 0-1.422.663-.5.655-.5 1.902v.227q0 1.214.5 1.87.5.656 1.429.656zM197.56 136.462q0-1.032.403-1.857.41-.824 1.13-1.272.727-.448 1.656-.448 1.435 0 2.318.993.89.993.89 2.642v.085q0 1.026-.397 1.844-.39.811-1.123 1.266-.727.454-1.675.454-1.429 0-2.318-.993-.883-.993-.883-2.63v-.084zm1.209.143q0 1.169.538 1.876.546.708 1.455.708.915 0 1.454-.714.539-.72.539-2.013 0-1.156-.552-1.87-.545-.72-1.454-.72-.89 0-1.435.707-.545.708-.545 2.026zM206.592 133.014l.033.78q.772-.91 2.084-.91 1.474 0 2.006 1.13.35-.506.909-.818.565-.311 1.331-.311 2.311 0 2.35 2.447v4.707h-1.2v-4.635q0-.753-.345-1.123-.344-.377-1.156-.377-.668 0-1.11.402-.441.397-.513 1.072v4.661h-1.207v-4.603q0-1.532-1.5-1.532-1.182 0-1.617 1.006v5.13h-1.201v-7.026h1.136z"/></g><g style="line-height:125%;-inkscape-font-specification:'roboto, Normal';text-align:start" font-weight="400" font-size="13.297" font-family="roboto" letter-spacing="0" word-spacing="0" fill="#2e3436"><path d="M88.021 150.256l.033.78q.772-.91 2.084-.91 1.474 0 2.006 1.13.35-.506.91-.818.564-.311 1.33-.311 2.311 0 2.35 2.447v4.707h-1.2v-4.635q0-.753-.345-1.124-.344-.376-1.155-.376-.67 0-1.11.402-.442.396-.514 1.072v4.661h-1.207v-4.603q0-1.532-1.5-1.532-1.182 0-1.617 1.006v5.13h-1.2v-7.026h1.135zM98.578 156.652q0-.312.182-.52.188-.208.558-.208.37 0 .559.208.195.208.195.52 0 .298-.195.5-.188.2-.559.2-.37 0-.558-.2-.182-.202-.182-.5zM103.363 157.281h-1.2v-9.972h1.2v9.972zM109.616 157.281q-.104-.207-.169-.74-.838.87-2 .87-1.039 0-1.707-.584-.663-.59-.663-1.493 0-1.098.832-1.701.837-.61 2.35-.61h1.169v-.553q0-.63-.377-1-.377-.376-1.11-.376-.643 0-1.078.325-.435.324-.435.785h-1.208q0-.526.37-1.013.377-.493 1.013-.779.643-.285 1.41-.285 1.213 0 1.901.61.689.604.715 1.668v3.234q0 .967.246 1.539v.103h-1.26zm-1.993-.915q.564 0 1.07-.292.507-.292.735-.76v-1.441h-.942q-2.207 0-2.207 1.292 0 .565.376.883.377.318.968.318zM115.342 156.43q.643 0 1.124-.389.48-.39.532-.974h1.136q-.032.604-.415 1.15-.383.545-1.026.87-.636.324-1.35.324-1.436 0-2.286-.954-.844-.961-.844-2.623v-.201q0-1.026.376-1.825.377-.798 1.078-1.24.708-.441 1.669-.441 1.181 0 1.96.707.786.708.838 1.838h-1.136q-.052-.682-.52-1.117-.46-.442-1.142-.442-.916 0-1.422.663-.5.655-.5 1.902v.227q0 1.214.5 1.87.5.656 1.428.656zM120.686 151.107q.798-.98 2.077-.98 2.227 0 2.247 2.512v4.642h-1.201v-4.648q-.006-.76-.35-1.124-.339-.363-1.06-.363-.584 0-1.025.312-.442.311-.688.818v5.005h-1.201v-9.972h1.2v3.798zM129.724 157.411q-1.429 0-2.325-.935-.896-.941-.896-2.512v-.221q0-1.045.396-1.863.403-.825 1.117-1.286.72-.467 1.558-.467 1.37 0 2.13.902.76.902.76 2.584v.5h-4.76q.026 1.039.604 1.682.584.636 1.48.636.637 0 1.078-.26.442-.26.773-.688l.734.571q-.883 1.357-2.65 1.357zm-.15-6.298q-.727 0-1.22.533-.494.526-.61 1.48h3.518v-.09q-.052-.916-.493-1.416-.442-.507-1.195-.507zM134.976 156.301h4.11v.98h-5.577v-.883l3.876-5.148h-3.818v-.994h5.324v.85l-3.915 5.195zM150.818 154.022q-.078 1.571-.779 2.48-.701.91-1.876.91-1.215 0-1.559-1.091-.35.551-.805.824-.448.266-.928.266-.922 0-1.396-.753-.474-.753-.35-2.084.097-1.071.486-1.909.396-.844 1.013-1.324.623-.48 1.305-.48.526 0 .942.142.415.136.934.545l-.337 3.597q-.123 1.5.83 1.5.735 0 1.19-.727.454-.727.493-1.896.123-2.526-.942-3.85-1.058-1.324-3.227-1.324-1.305 0-2.318.649-1.012.643-1.597 1.863-.584 1.22-.656 2.818-.077 1.61.39 2.798.467 1.182 1.422 1.805.96.63 2.318.63.584 0 1.168-.143.591-.143.98-.37l.241.747q-.403.253-1.071.415-.662.163-1.344.163-1.623 0-2.792-.734-1.169-.727-1.753-2.104-.578-1.37-.5-3.207.078-1.786.799-3.207.72-1.429 1.954-2.201 1.233-.78 2.785-.78 1.617 0 2.773.728 1.155.727 1.72 2.097t.487 3.207zm-6.661.552q-.091.922.168 1.415.267.494.838.494.39 0 .747-.331.363-.331.597-.948l.006-.059.299-3.265q-.364-.189-.78-.189-.76 0-1.26.773-.492.773-.616 2.11zM154.688 155.522l1.636-5.266h1.285l-2.824 8.11q-.656 1.753-2.084 1.753l-.227-.02-.448-.084v-.974l.324.026q.61 0 .948-.247.344-.247.565-.902l.266-.714-2.506-6.948h1.312l1.753 5.266zM162.907 157.281q-.104-.207-.168-.74-.838.87-2 .87-1.039 0-1.708-.584-.662-.59-.662-1.493 0-1.098.831-1.701.838-.61 2.35-.61h1.17v-.553q0-.63-.377-1-.377-.376-1.11-.376-.644 0-1.079.325-.435.324-.435.785h-1.207q0-.526.37-1.013.377-.493 1.013-.779.643-.285 1.409-.285 1.214 0 1.902.61.688.604.714 1.668v3.234q0 .967.247 1.539v.103h-1.26zm-1.993-.915q.565 0 1.071-.292.507-.292.734-.76v-1.441h-.941q-2.208 0-2.208 1.292 0 .565.377.883.376.318.967.318zM167.017 151.107q.799-.98 2.078-.98 2.227 0 2.246 2.512v4.642h-1.2v-4.648q-.008-.76-.351-1.124-.338-.363-1.059-.363-.584 0-1.026.312-.441.311-.688.818v5.005h-1.2v-9.972h1.2v3.798zM172.822 153.704q0-1.032.402-1.857.41-.824 1.13-1.272.727-.448 1.656-.448 1.434 0 2.317.993.89.993.89 2.642v.085q0 1.026-.396 1.844-.39.811-1.123 1.266-.728.454-1.676.454-1.428 0-2.317-.993-.883-.993-.883-2.63v-.084zm1.207.143q0 1.169.54 1.876.545.708 1.453.708.916 0 1.455-.714.539-.721.539-2.013 0-1.156-.552-1.87-.546-.72-1.454-.72-.89 0-1.435.707-.546.708-.546 2.026zM180.405 153.704q0-1.032.403-1.857.409-.824 1.13-1.272.726-.448 1.655-.448 1.435 0 2.318.993.89.993.89 2.642v.085q0 1.026-.397 1.844-.39.811-1.123 1.266-.727.454-1.675.454-1.428 0-2.318-.993-.883-.993-.883-2.63v-.084zm1.208.143q0 1.169.539 1.876.545.708 1.454.708.915 0 1.454-.714.54-.721.54-2.013 0-1.156-.553-1.87-.545-.72-1.454-.72-.89 0-1.435.707-.545.708-.545 2.026zM188.333 156.652q0-.312.181-.52.189-.208.559-.208.37 0 .558.208.195.208.195.52 0 .298-.195.5-.188.2-.558.2-.37 0-.559-.2-.181-.202-.181-.5zM194.63 156.43q.643 0 1.124-.389.48-.39.532-.974h1.136q-.032.604-.415 1.15-.383.545-1.026.87-.636.324-1.35.324-1.435 0-2.286-.954-.844-.961-.844-2.623v-.201q0-1.026.377-1.825.376-.798 1.077-1.24.708-.441 1.669-.441 1.182 0 1.96.707.786.708.838 1.838h-1.136q-.052-.682-.52-1.117-.46-.442-1.142-.442-.916 0-1.422.663-.5.655-.5 1.902v.227q0 1.214.5 1.87.5.656 1.428.656zM198.455 153.704q0-1.032.402-1.857.41-.824 1.13-1.272.727-.448 1.655-.448 1.435 0 2.318.993.89.993.89 2.642v.085q0 1.026-.396 1.844-.39.811-1.123 1.266-.728.454-1.676.454-1.428 0-2.317-.993-.883-.993-.883-2.63v-.084zm1.207.143q0 1.169.54 1.876.544.708 1.453.708.916 0 1.455-.714.539-.721.539-2.013 0-1.156-.552-1.87-.546-.72-1.455-.72-.89 0-1.434.707-.546.708-.546 2.026zM207.486 150.256l.032.78q.773-.91 2.084-.91 1.474 0 2.007 1.13.35-.506.909-.818.564-.311 1.33-.311 2.312 0 2.351 2.447v4.707h-1.201v-4.635q0-.753-.344-1.124-.344-.376-1.156-.376-.669 0-1.11.402-.442.396-.513 1.072v4.661h-1.208v-4.603q0-1.532-1.5-1.532-1.181 0-1.616 1.006v5.13h-1.201v-7.026h1.136z"/></g><g style="line-height:125%;-inkscape-font-specification:'roboto, Normal';text-align:start" font-weight="400" font-size="13.297" font-family="roboto" letter-spacing="0" word-spacing="0" fill="#2e3436"><path d="M90.32 32.95h-3.038v8.428h-1.24V32.95H83.01v-1.026h7.31v1.026zM90.58 37.8q0-1.032.403-1.857.409-.824 1.13-1.272.727-.448 1.655-.448 1.435 0 2.318.993.89.993.89 2.643v.084q0 1.026-.396 1.844-.39.811-1.124 1.266-.727.454-1.675.454-1.428 0-2.318-.993-.883-.993-.883-2.63V37.8zm1.208.143q0 1.169.539 1.876.545.708 1.454.708.916 0 1.455-.714.539-.72.539-2.013 0-1.156-.552-1.87-.546-.72-1.455-.72-.89 0-1.435.707-.545.708-.545 2.026zM99.612 34.353l.032.779q.773-.91 2.084-.91 1.474 0 2.007 1.13.35-.506.909-.818.564-.311 1.33-.311 2.312 0 2.35 2.447v4.708h-1.2v-4.636q0-.753-.344-1.123-.345-.377-1.156-.377-.669 0-1.11.403-.442.396-.513 1.07v4.663h-1.208v-4.604q0-1.532-1.5-1.532-1.181 0-1.616 1.006v5.13h-1.202v-7.025h1.137zM114.48 41.378q-.104-.208-.169-.74-.838.87-2 .87-1.039 0-1.707-.585-.663-.59-.663-1.493 0-1.097.832-1.701.837-.61 2.35-.61h1.169v-.552q0-.63-.377-1-.377-.377-1.11-.377-.643 0-1.078.325-.435.324-.435.785h-1.208q0-.526.37-1.013.377-.493 1.013-.779.643-.285 1.41-.285 1.213 0 1.901.61.689.604.715 1.669v3.233q0 .967.246 1.539v.104h-1.26zm-1.993-.916q.564 0 1.07-.292.507-.292.735-.76V37.97h-.942q-2.207 0-2.207 1.292 0 .565.376.883.377.318.968.318zM119.018 32.651v1.702h1.312v.928h-1.312v4.357q0 .422.175.636.176.208.598.208.208 0 .571-.078v.974q-.474.13-.922.13-.805 0-1.214-.487-.409-.487-.409-1.383V35.28h-1.279v-.928h1.279V32.65h1.201zM124.64 41.507q-1.428 0-2.324-.935-.896-.94-.896-2.512v-.22q0-1.046.397-1.864.402-.825 1.116-1.286.72-.467 1.558-.467 1.37 0 2.13.902.76.903.76 2.584v.5h-4.76q.027 1.039.604 1.682.585.636 1.48.636.637 0 1.079-.26.441-.26.772-.688l.734.571q-.883 1.357-2.65 1.357zm-.149-6.297q-.727 0-1.22.532-.494.526-.61 1.48h3.519v-.09q-.052-.916-.494-1.416-.441-.506-1.195-.506zM128.725 43.26l-.682-.467q.61-.85.636-1.753v-1.084h1.175v.941q0 .656-.324 1.312-.318.655-.805 1.051zM139.632 38.203h1.312v.98h-1.312v2.195h-1.207v-2.195h-4.305v-.708l4.233-6.55h1.28v6.278zm-4.148 0h2.94v-4.636l-.142.26-2.798 4.376zM142.19 40.748q0-.312.182-.52.188-.207.559-.207.37 0 .558.207.195.208.195.52 0 .298-.195.5-.188.201-.558.201-.37 0-.559-.201-.182-.202-.182-.5zM146.099 36.638l.48-4.714h4.844v1.11h-3.824l-.286 2.578q.695-.409 1.578-.409 1.292 0 2.051.857.76.85.76 2.305 0 1.46-.792 2.305-.786.837-2.201.837-1.253 0-2.045-.694-.792-.695-.903-1.922h1.137q.11.811.577 1.227.468.41 1.234.41.838 0 1.312-.572.48-.572.48-1.578 0-.948-.52-1.52-.512-.577-1.37-.577-.785 0-1.233.344l-.318.26-.961-.247zM158.954 37.346q0 2.11-.72 3.136-.721 1.025-2.253 1.025-1.513 0-2.24-1-.727-1.006-.753-2.999v-1.604q0-2.084.72-3.097.721-1.013 2.26-1.013 1.526 0 2.246.98.72.975.74 3.013v1.559zm-1.2-1.643q0-1.526-.43-2.22-.428-.702-1.356-.702-.922 0-1.344.695-.422.695-.435 2.136v1.922q0 1.532.441 2.266.448.727 1.35.727.89 0 1.319-.688.435-.688.454-2.169v-1.967zM165.233 37.865h-2.493q.026 1.266.61 1.948.584.682 1.656.682.753 0 1.415-.221l.13 1.039q-.78.194-1.558.194-1.61 0-2.54-.947-.921-.955-.96-2.695h-1.156v-.805h1.156v-.89h-1.156v-.811h1.156q.065-1.701.987-2.63.928-.935 2.506-.935.688 0 1.565.202l-.13 1.052q-.708-.228-1.422-.228-1.065 0-1.643.663-.571.655-.61 1.876h2.487v.811h-2.493v.89h2.493v.805zM168.35 42.19h-1.033l3.947-10.266h1.026l-3.94 10.265zM176.18 36.982l-1.156 1.201v3.195h-1.247v-9.454h1.247V36.6l4.2-4.675h1.507l-3.72 4.175 4.012 5.279h-1.493l-3.35-4.396zM181.484 37.807q0-1.643.76-2.61.76-.974 2.012-.974 1.286 0 2.006.909l.059-.78h1.097v6.857q0 1.363-.812 2.149-.805.785-2.168.785-.76 0-1.487-.324-.727-.325-1.11-.89l.623-.72q.773.954 1.89.954.876 0 1.363-.493.493-.494.493-1.39v-.604q-.72.831-1.967.831-1.233 0-2-.993-.76-.993-.76-2.707zm1.207.136q0 1.188.487 1.87.487.675 1.364.675 1.136 0 1.668-1.032v-3.208q-.551-1.006-1.655-1.006-.877 0-1.37.682-.494.682-.494 2.019z"/></g><g style="line-height:125%;-inkscape-font-specification:'roboto, Normal';text-align:start" font-weight="400" font-size="13.297" font-family="roboto" letter-spacing="0" word-spacing="0" fill="#2e3436"><path d="M87.163 54.795h-2.22v3.825h-1.254v-9.454h3.13q1.597 0 2.454.727.864.728.864 2.117 0 .883-.48 1.539-.475.656-1.325.98l2.22 4.013v.078h-1.337l-2.052-3.825zm-2.22-1.019h1.915q.928 0 1.474-.48.552-.48.552-1.286 0-.876-.526-1.344-.52-.467-1.507-.474h-1.908v3.584zM96.025 58.62q-.103-.208-.168-.74-.838.87-2 .87-1.039 0-1.708-.585-.662-.59-.662-1.493 0-1.098.831-1.701.838-.61 2.35-.61h1.17v-.553q0-.63-.377-1-.377-.376-1.11-.376-.643 0-1.078.325-.435.324-.435.785H91.63q0-.526.37-1.013.377-.493 1.013-.779.643-.285 1.409-.285 1.214 0 1.902.61.688.604.714 1.669v3.233q0 .967.247 1.539v.104h-1.26zm-1.993-.916q.565 0 1.071-.292.507-.292.734-.76v-1.441h-.941q-2.208 0-2.208 1.292 0 .565.377.883.376.318.967.318zM98.642 55.049q0-1.617.766-2.597.766-.987 2.006-.987 1.234 0 1.955.844v-3.662h1.2v9.973h-1.103l-.058-.754q-.721.883-2.007.883-1.22 0-1.993-1-.766-1-.766-2.61v-.09zm1.201.136q0 1.195.494 1.87.493.675 1.363.675 1.143 0 1.669-1.026v-3.227q-.54-.993-1.656-.993-.883 0-1.376.682-.494.681-.494 2.019zM107.745 58.62h-1.201v-7.026h1.2v7.026zm-1.299-8.889q0-.292.175-.493.182-.202.533-.202.35 0 .532.202.182.2.182.493 0 .292-.182.487t-.532.195q-.35 0-.533-.195-.175-.195-.175-.487zM113.75 56.756q0-.487-.37-.753-.363-.273-1.279-.467-.909-.195-1.448-.468-.532-.273-.792-.65-.253-.376-.253-.895 0-.864.727-1.461.734-.597 1.87-.597 1.195 0 1.935.616.747.617.747 1.578h-1.208q0-.493-.422-.85-.416-.357-1.052-.357-.656 0-1.026.285-.37.286-.37.747 0 .435.344.656.344.22 1.24.422.903.2 1.461.48.559.28.825.675.272.39.272.955 0 .941-.753 1.513-.753.564-1.954.564-.844 0-1.493-.298-.65-.299-1.02-.831-.363-.54-.363-1.163h1.2q.033.604.481.961.455.351 1.195.351.682 0 1.09-.273.416-.279.416-.74zM116.477 60.502l-.681-.467q.61-.85.636-1.753v-1.084h1.175v.941q0 .656-.325 1.312-.318.655-.805 1.051zM126.262 58.62h-1.208v-8.006l-2.422.89v-1.091l3.441-1.292h.189v9.499zM129.943 57.99q0-.312.182-.52.188-.207.558-.207.37 0 .558.207.195.208.195.52 0 .298-.195.5-.188.201-.558.201-.37 0-.558-.201-.182-.202-.182-.5zM139.494 58.62H133.3v-.864l3.272-3.636q.727-.824 1-1.337.279-.52.279-1.072 0-.74-.448-1.214t-1.195-.474q-.896 0-1.396.513-.493.507-.493 1.416h-1.201q0-1.305.837-2.11.844-.806 2.253-.806 1.318 0 2.085.695.766.688.766 1.838 0 1.395-1.78 3.324l-2.531 2.746h4.746v.98zM146.707 54.588q0 2.11-.72 3.136-.721 1.025-2.254 1.025-1.512 0-2.24-1-.727-1.006-.753-3v-1.603q0-2.084.72-3.097.722-1.013 2.26-1.013 1.526 0 2.247.98.72.975.74 3.013v1.559zm-1.201-1.643q0-1.526-.429-2.22-.428-.702-1.357-.702-.922 0-1.344.695-.422.695-.435 2.136v1.922q0 1.532.442 2.266.448.727 1.35.727.89 0 1.318-.688.435-.688.455-2.169v-1.967zM152.985 55.107h-2.493q.026 1.266.61 1.948.585.682 1.656.682.753 0 1.416-.221l.13 1.039q-.78.194-1.559.194-1.61 0-2.539-.948-.921-.954-.96-2.694h-1.156v-.805h1.156v-.89h-1.156v-.811h1.156q.064-1.701.986-2.63.929-.935 2.507-.935.688 0 1.564.202l-.13 1.051q-.707-.227-1.421-.227-1.065 0-1.643.662-.571.656-.61 1.877h2.486v.811h-2.493v.89h2.493v.805zM156.102 59.431h-1.033l3.948-10.265h1.026l-3.941 10.265zM161.53 58.62v-9.454h3.09q1.539 0 2.312.637.779.636.779 1.882 0 .663-.377 1.176-.377.506-1.026.785.766.214 1.208.818.448.598.448 1.429 0 1.272-.825 2-.824.727-2.33.727h-3.28zm1.246-4.422V57.6h2.058q.87 0 1.37-.448.507-.454.507-1.246 0-1.708-1.857-1.708h-2.078zm0-1h1.883q.818 0 1.305-.409.494-.409.494-1.11 0-.78-.455-1.13-.454-.357-1.383-.357h-1.844v3.006zM169.308 55.042q0-1.032.402-1.857.41-.824 1.13-1.272.727-.448 1.656-.448 1.435 0 2.318.993.89.993.89 2.643v.084q0 1.026-.397 1.844-.39.811-1.123 1.266-.727.454-1.675.454-1.429 0-2.318-.993-.883-.993-.883-2.63v-.084zm1.207.143q0 1.169.54 1.876.545.708 1.454.708.915 0 1.454-.714.539-.72.539-2.013 0-1.156-.552-1.87-.545-.72-1.454-.72-.89 0-1.435.707-.546.708-.546 2.026zM178.839 49.893v1.701h1.312v.929h-1.312v4.357q0 .422.175.636.176.208.598.208.207 0 .571-.078v.974q-.474.13-.922.13-.805 0-1.214-.488-.41-.487-.41-1.382v-4.357h-1.278v-.928h1.279v-1.702h1.201zM183.176 49.893v1.701h1.312v.929h-1.312v4.357q0 .422.175.636.176.208.598.208.207 0 .571-.078v.974q-.474.13-.922.13-.805 0-1.214-.488-.409-.487-.409-1.382v-4.357h-1.28v-.928h1.28v-1.702h1.201zM188.799 58.75q-1.429 0-2.325-.936-.896-.941-.896-2.512v-.22q0-1.046.396-1.864.403-.825 1.117-1.286.72-.467 1.558-.467 1.37 0 2.13.902.76.903.76 2.584v.5h-4.76q.027 1.039.604 1.682.585.636 1.48.636.637 0 1.078-.26.442-.26.773-.688l.734.571q-.883 1.357-2.65 1.357zm-.15-6.298q-.727 0-1.22.532-.494.526-.61 1.48h3.518v-.09q-.051-.916-.493-1.416-.441-.506-1.195-.506z"/></g><g style="line-height:125%;-inkscape-font-specification:'roboto, Normal';text-align:start" font-weight="400" font-size="13.297" font-family="roboto" letter-spacing="0" word-spacing="0" fill="#2e3436"><path d="M83.129 241.487h1.253v6.694q0 1.357-.818 2.123-.812.766-2.169.766-1.409 0-2.194-.72-.786-.721-.786-2.02h1.247q0 .812.441 1.266.448.455 1.292.455.773 0 1.247-.487.48-.487.487-1.364v-6.713zM89.245 251.07q-1.428 0-2.324-.935-.896-.941-.896-2.512v-.221q0-1.046.396-1.864.402-.824 1.116-1.285.721-.468 1.559-.468 1.37 0 2.13.903.759.902.759 2.584v.5h-4.76q.027 1.039.605 1.681.584.637 1.48.637.636 0 1.078-.26.441-.26.772-.688l.734.571q-.883 1.357-2.649 1.357zm-.15-6.298q-.727 0-1.22.533-.493.526-.61 1.48h3.519v-.09q-.052-.916-.494-1.416-.441-.507-1.194-.507zM97.705 250.246q-.701.824-2.058.824-1.124 0-1.714-.65-.585-.655-.591-1.934v-4.57h1.201v4.538q0 1.597 1.298 1.597 1.377 0 1.831-1.026v-5.11h1.202v7.025H97.73l-.026-.694zM100.4 247.37q0-1.617.765-2.598.767-.987 2.007-.987 1.233 0 1.954.844v-3.661h1.201v9.972h-1.104l-.058-.753q-.72.883-2.006.883-1.22 0-1.994-1-.766-1-.766-2.61v-.09zm1.2.136q0 1.194.494 1.87.493.675 1.363.675 1.143 0 1.669-1.026v-3.227q-.539-.993-1.656-.993-.883 0-1.376.681-.494.682-.494 2.02zM109.502 250.94h-1.201v-7.025h1.201v7.025zm-1.299-8.888q0-.292.176-.494.182-.2.532-.2.35 0 .533.2.181.202.181.494t-.181.487q-.182.195-.533.195-.35 0-.532-.195-.176-.195-.176-.487zM118.54 250.94h-1.208v-8.005l-2.422.89v-1.091l3.441-1.292h.189v9.498zM126.785 241.48v1.02h-.22q-1.403.026-2.234.83-.83.806-.96 2.267.746-.857 2.038-.857 1.234 0 1.967.87.74.87.74 2.246 0 1.461-.798 2.338-.792.876-2.13.876-1.357 0-2.2-1.039-.845-1.045-.845-2.688v-.46q0-2.61 1.11-3.987 1.117-1.383 3.318-1.416h.214zm-1.577 4.26q-.617 0-1.137.37-.519.37-.72.928v.442q0 1.168.526 1.883.526.714 1.311.714.812 0 1.273-.598.467-.597.467-1.564 0-.974-.474-1.572-.467-.603-1.246-.603zM132.174 247.415h-3.168v-.98h3.168v.98zM137.16 250.94h-1.207v-8.005l-2.422.89v-1.091l3.441-1.292h.189v9.498zM145.296 246.785q-.377.448-.903.72-.519.273-1.142.273-.818 0-1.429-.402-.603-.403-.935-1.13-.33-.734-.33-1.617 0-.948.356-1.707.364-.76 1.026-1.162.662-.403 1.545-.403 1.403 0 2.208 1.052.812 1.045.812 2.857v.35q0 2.76-1.091 4.032-1.091 1.266-3.292 1.299h-.234v-1.013h.253q1.487-.026 2.286-.773.798-.753.87-2.376zm-1.85 0q.603 0 1.11-.37.513-.37.746-.916v-.48q0-1.182-.513-1.922-.512-.74-1.298-.74-.792 0-1.273.61-.48.604-.48 1.597 0 .968.46 1.598.468.623 1.248.623zM149.497 244.766q.798-.98 2.077-.98 2.227 0 2.247 2.512v4.642h-1.201v-4.648q-.007-.76-.351-1.124-.338-.363-1.058-.363-.585 0-1.026.311-.442.312-.688.818v5.006h-1.202v-9.972h1.202v3.798zM163.255 250.94q-.104-.208-.17-.74-.837.87-1.999.87-1.039 0-1.708-.584-.662-.591-.662-1.494 0-1.097.831-1.7.838-.61 2.35-.61h1.17v-.553q0-.63-.377-1-.377-.376-1.11-.376-.643 0-1.078.324-.435.325-.435.786h-1.208q0-.526.37-1.013.377-.493 1.013-.779.643-.286 1.409-.286 1.214 0 1.902.61.688.604.714 1.67v3.233q0 .967.247 1.538v.104h-1.26zm-1.994-.915q.565 0 1.072-.292.506-.293.733-.76v-1.441h-.941q-2.208 0-2.208 1.292 0 .564.377.883.376.318.967.318zm1.208-7.149h-1.032l-1.676-1.908h1.448l1.26 1.908zM170.767 250.94h-1.202v-9.972h1.202v9.972zM177.019 250.94q-.104-.208-.169-.74-.837.87-2 .87-1.038 0-1.707-.584-.662-.591-.662-1.494 0-1.097.83-1.7.838-.61 2.351-.61h1.169v-.553q0-.63-.377-1-.377-.376-1.11-.376-.643 0-1.078.324-.435.325-.435.786h-1.208q0-.526.37-1.013.377-.493 1.013-.779.643-.286 1.41-.286 1.213 0 1.902.61.688.604.714 1.67v3.233q0 .967.246 1.538v.104h-1.26zm-1.993-.915q.565 0 1.071-.292.506-.293.734-.76v-1.441h-.942q-2.207 0-2.207 1.292 0 .564.376.883.377.318.968.318zM183.817 250.94v-6.096h-1.11v-.929h1.11v-.72q0-1.13.604-1.747.603-.617 1.707-.617.416 0 .825.11l-.065.974q-.305-.058-.65-.058-.584 0-.902.344-.318.338-.318.974v.74h1.5v.929h-1.5v6.096h-1.201zM190.608 251.07q-1.428 0-2.324-.935-.896-.941-.896-2.512v-.221q0-1.046.396-1.864.402-.824 1.116-1.285.721-.468 1.559-.468 1.37 0 2.13.903.759.902.759 2.584v.5h-4.76q.027 1.039.605 1.681.584.637 1.48.637.636 0 1.078-.26.441-.26.772-.688l.734.571q-.883 1.357-2.649 1.357zm-.15-6.298q-.727 0-1.22.533-.493.526-.61 1.48h3.519v-.09q-.052-.916-.494-1.416-.441-.507-1.194-.507zM198.126 244.993q-.272-.046-.59-.046-1.182 0-1.604 1.007v4.986h-1.201v-7.025h1.169l.019.812q.59-.942 1.675-.942.35 0 .532.091v1.117zM200.353 243.915l.033.78q.773-.91 2.084-.91 1.474 0 2.006 1.13.35-.506.91-.818.564-.312 1.33-.312 2.312 0 2.35 2.448v4.707h-1.2v-4.636q0-.753-.345-1.123-.344-.376-1.155-.376-.67 0-1.11.402-.442.396-.513 1.072v4.661h-1.208v-4.603q0-1.532-1.5-1.532-1.182 0-1.617 1.006v5.13h-1.2v-7.026h1.135zM213.8 251.07q-1.429 0-2.325-.935-.896-.941-.896-2.512v-.221q0-1.046.396-1.864.403-.824 1.117-1.285.72-.468 1.558-.468 1.37 0 2.13.903.76.902.76 2.584v.5h-4.76q.026 1.039.604 1.681.585.637 1.48.637.637 0 1.078-.26.442-.26.773-.688l.734.571q-.883 1.357-2.65 1.357zm-.15-6.298q-.727 0-1.22.533-.494.526-.61 1.48h3.518v-.09q-.051-.916-.493-1.416-.441-.507-1.195-.507z"/></g><g fill="#ffcaa4"><path d="M58.062 114.066a10.03 10.143 0 1 1-20.06 0 10.03 10.143 0 1 1 20.06 0z"/><path d="M48.032 122.18c-2.562 0-5.003.406-7.21 1.42-5.786 2.638-9.985 8.115-10.718 14.81 0 2.23 1.67 4.057 3.887 4.057h28.082c2.217 0 3.888-1.826 3.888-4.058-.734-6.694-4.933-12.171-10.72-14.808-2.206-1.015-4.647-1.42-7.209-1.42z"/></g><g fill="#ffa464"><path d="M32.338 114.066a10.03 10.143 0 1 1-20.059 0 10.03 10.143 0 1 1 20.06 0z"/><path d="M22.309 122.18c-2.562 0-5.003.406-7.21 1.42-5.786 2.638-9.985 8.115-10.718 14.81 0 2.23 1.67 4.057 3.887 4.057H36.35c2.217 0 3.888-1.826 3.888-4.058-.734-6.694-4.933-12.171-10.72-14.808-2.206-1.015-4.648-1.42-7.21-1.42z"/></g><path d="M25.926 126.34c-7.423 3.344-12.805 10.29-13.746 18.778 0 2.83 2.143 5.145 4.984 5.145h36.013c2.842 0 4.985-2.315 4.985-5.145-.942-8.488-6.326-15.434-13.747-18.778-1.67 3.344-5.173 5.917-9.245 5.917-4.071 0-7.576-2.573-9.244-5.917z" fill="#e55110"/><g fill="#ff7c3b"><path d="M48.032 111.678a12.862 12.862 0 1 1-25.723 0 12.862 12.862 0 1 1 25.723 0z"/><path d="M35.17 121.967c-3.284 0-6.416.692-9.244 1.93-7.423 3.246-12.805 10.281-13.746 18.649 0 2.842 2.143 5.144 4.984 5.144h36.013c2.842 0 4.985-2.302 4.985-5.144-.942-8.368-6.326-15.403-13.747-18.65a23.035 23.035 0 0 0-9.245-1.929z"/></g><g><path d="M33.645 3.4l-.8-.573s1.113-1.66-.283-1.72c-1.397-.064-2.044 4.099.528 4.642l-1.515.015-1.203.011-1.325.012-1.698.014.015-.003c.011 0 .019-.004.026-.004.235-.063 1.404-.458 1.817-2.23.209-.901.57-1.903 1.165-2.617.533-.637 1.251-1.043 2.22-.927 3.413.402 2.11 3.443 1.053 3.38" fill="#479706"/><path d="M35.8 7.078c0 .395-.52.752-1.38 1.024-.83.26-1.981.443-3.28.495-.25.012-.507.015-.768.015-.33 0-.659-.007-.971-.026-1.24-.063-2.33-.242-3.124-.499-.83-.271-1.333-.621-1.333-1.009 0-.335.384-.647 1.032-.9.38-.15.852-.28 1.388-.38.011 0 .019-.004.026-.004.842-.16 1.85-.25 2.934-.253h.048c.99 0 1.918.074 2.718.208a8.975 8.975 0 0 1 1.426.335c.804.272 1.285.615 1.285.994" fill="#479706"/><path d="M32.286 27.834c0 3.627-.677 7.044-1.876 10.041A22.232 22.232 0 0 1 28 42.387a18.226 18.226 0 0 1-3.046 3.418c-1.943 1.69-4.177 2.834-6.578 3.277-.73.134-1.474.205-2.234.205C7.226 49.287 0 39.685 0 27.834 0 15.988 7.226 6.378 16.143 6.378c.927 0 1.84.105 2.722.306 2.278.514 4.39 1.66 6.236 3.298a18.558 18.558 0 0 1 2.9 3.299c.905 1.3 1.69 2.748 2.327 4.311.018.037.033.071.044.108 1.222 3.02 1.914 6.47 1.914 10.134" fill="#ff6e2e"/><path d="M35.8 28.035c0 5.444-1.105 10.432-2.944 14.32-.7 1.48-1.508 2.806-2.405 3.93a.96.96 0 0 1-.079.102c-.927 1.153-1.947 2.095-3.038 2.788-1.373.878-2.859 1.355-4.408 1.355-1.6 0-3.134-.51-4.55-1.448-4.861-3.21-8.32-11.423-8.32-21.047 0-9.944 3.69-18.38 8.809-21.351 1.277-.741 2.643-1.143 4.061-1.143 1.05 0 2.074.22 3.05.636.465.194.915.436 1.358.719a11.688 11.688 0 0 1 2.067 1.69c.305.31.6.64.89.994.026.034.055.067.081.105.83 1.027 1.586 2.222 2.253 3.555 1.977 3.954 3.176 9.129 3.176 14.795" fill="#ff7c3b"/><path d="M28.457 27.634c0 11.848 7.227 21.454 16.143 21.454s16.143-9.606 16.143-21.454c0-11.85-7.227-21.454-16.143-21.454s-16.143 9.605-16.143 21.454" fill="#ff6e2e"/><path d="M24.943 27.834c0 12.423 5.762 22.494 12.872 22.494s12.872-10.071 12.872-22.494c0-12.422-5.763-22.494-12.872-22.494-7.11 0-12.872 10.072-12.872 22.494" fill="#ff7c3b"/><path d="M39.129 28.035c0 7.126-1.296 13.481-3.317 17.6-.689 1.418-1.47 2.572-2.312 3.398-.972.96-2.026 1.486-3.128 1.497h-.03c-1.057 0-2.07-.477-3.008-1.355-.863-.804-1.668-1.947-2.379-3.37-2.07-4.114-3.399-10.543-3.399-17.77 0-7.394 1.393-13.954 3.545-18.053.368-.707.763-1.344 1.176-1.895a8.615 8.615 0 0 1 1.057-1.191c.548-.514 1.121-.89 1.713-1.11.417-.16.845-.241 1.277-.245h.048a3.56 3.56 0 0 1 1.203.223c.577.201 1.135.555 1.672 1.035a8.6 8.6 0 0 1 1.172 1.303 14.2 14.2 0 0 1 1.114 1.78c2.178 4.091 3.596 10.7 3.596 18.153" fill="#ff8f40"/></g><path d="M29.097 259.554c-1.766-.768-8.609-7.794-12.054-12.379-4.91-6.534-7.983-12.896-9.091-18.825-.468-2.507-.414-7.414.107-9.572 1.08-4.479 3.065-8.049 6.233-11.218 3.17-3.17 6.749-5.157 11.218-6.23 2.664-.64 7.773-.571 10.493.142 10.271 2.692 17.235 11.603 17.3 22.14.039 6.403-2.232 12.916-7.025 20.144-2.815 4.245-5.016 6.885-9.486 11.379-4.74 4.763-5.672 5.299-7.695 4.42zm4.98-24.79c1.659-.524 4.132-2.155 5.177-3.413 1.268-1.526 2.393-3.988 2.717-5.944.77-4.65-1.778-9.644-6.072-11.9-3.588-1.886-7.27-1.882-10.873.015-4.27 2.243-6.817 7.25-6.048 11.888 1.179 7.117 8.275 11.515 15.1 9.357z" fill="#ff6e2e"/></svg>