<svg xmlns="http://www.w3.org/2000/svg" width="230.976" height="277.232" viewBox="0 0 216.53961 259.90492"><text style="line-height:125%;-inkscape-font-specification:'roboto, Normal';text-align:start" x="297.965" y="494.487" font-weight="400" font-size="23.816" font-family="roboto" letter-spacing="0" word-spacing="0" fill="#fff" transform="translate(-214.587 -373.838)"><tspan x="297.965" y="494.487">Clients</tspan></text><text style="line-height:125%;-inkscape-font-specification:'roboto, Normal';text-align:start" x="296.393" y="396.809" font-weight="400" font-size="23.816" font-family="roboto" letter-spacing="0" word-spacing="0" fill="#fff" transform="translate(-214.587 -373.838)"><tspan x="296.393" y="396.809">Produits</tspan></text><text style="line-height:125%;-inkscape-font-specification:'roboto, Normal';text-align:start" x="296.098" y="604.956" font-weight="400" font-size="23.816" font-family="roboto" letter-spacing="0" word-spacing="0" fill="#fff" transform="translate(-214.587 -373.838)"><tspan x="296.098" y="604.956">Rendez-vous</tspan></text><text style="line-height:125%;-inkscape-font-specification:'roboto, Normal';text-align:start" x="300.663" y="513.878" font-weight="400" font-size="17.729" font-family="roboto" letter-spacing="0" word-spacing="0" fill="#fff" transform="translate(-214.587 -373.838)"><tspan x="300.663" y="513.878" font-size="13.297">jp.dupont@gmail.com</tspan></text><text style="line-height:125%;-inkscape-font-specification:'roboto, Normal';text-align:start" x="300.57" y="531.12" font-weight="400" font-size="17.729" font-family="roboto" letter-spacing="0" word-spacing="0" fill="#fff" transform="translate(-214.587 -373.838)"><tspan x="300.57" y="531.12" font-size="13.297">m.lachez@yahoo.com</tspan></text><text style="line-height:125%;-inkscape-font-specification:'roboto, Normal';text-align:start" x="297.279" y="415.216" font-weight="400" font-size="17.729" font-family="roboto" letter-spacing="0" word-spacing="0" fill="#fff" transform="translate(-214.587 -373.838)"><tspan x="297.279" y="415.216" font-size="13.297">Tomate, 4.50€/Kg</tspan></text><text style="line-height:125%;-inkscape-font-specification:'roboto, Normal';text-align:start" x="297.186" y="432.458" font-weight="400" font-size="17.729" font-family="roboto" letter-spacing="0" word-spacing="0" fill="#fff" transform="translate(-214.587 -373.838)"><tspan x="297.186" y="432.458" font-size="13.297">Radis, 1.20€/Botte</tspan></text><text style="line-height:125%;-inkscape-font-specification:'roboto, Normal';text-align:start" x="292.658" y="624.779" font-weight="400" font-size="17.729" font-family="roboto" letter-spacing="0" word-spacing="0" fill="#fff" transform="translate(-214.587 -373.838)"><tspan x="292.658" y="624.779" font-size="13.297">Jeudi 16-19h à la ferme</tspan></text><g fill="#ffcaa4"><path d="M58.062 114.066a10.03 10.143 0 1 1-20.06 0 10.03 10.143 0 1 1 20.06 0z"/><path d="M48.032 122.18c-2.562 0-5.003.406-7.21 1.42-5.786 2.638-9.985 8.115-10.718 14.81 0 2.23 1.67 4.057 3.887 4.057h28.082c2.217 0 3.888-1.826 3.888-4.058-.734-6.694-4.933-12.171-10.72-14.808-2.206-1.015-4.647-1.42-7.209-1.42z"/></g><g fill="#ffa464"><path d="M32.338 114.066a10.03 10.143 0 1 1-20.059 0 10.03 10.143 0 1 1 20.06 0z"/><path d="M22.309 122.18c-2.562 0-5.003.406-7.21 1.42-5.786 2.638-9.985 8.115-10.718 14.81 0 2.23 1.67 4.057 3.887 4.057H36.35c2.217 0 3.888-1.826 3.888-4.058-.734-6.694-4.933-12.171-10.72-14.808-2.206-1.015-4.648-1.42-7.21-1.42z"/></g><path d="M25.926 126.34c-7.423 3.344-12.805 10.29-13.746 18.778 0 2.83 2.143 5.145 4.984 5.145h36.013c2.842 0 4.985-2.315 4.985-5.145-.942-8.488-6.326-15.434-13.747-18.778-1.67 3.344-5.173 5.917-9.245 5.917-4.071 0-7.576-2.573-9.244-5.917z" fill="#e55110"/><g fill="#ff7c3b"><path d="M48.032 111.678a12.862 12.862 0 1 1-25.723 0 12.862 12.862 0 1 1 25.723 0z"/><path d="M35.17 121.967c-3.284 0-6.416.692-9.244 1.93-7.423 3.246-12.805 10.281-13.746 18.649 0 2.842 2.143 5.144 4.984 5.144h36.013c2.842 0 4.985-2.302 4.985-5.144-.942-8.368-6.326-15.403-13.747-18.65a23.035 23.035 0 0 0-9.245-1.929z"/></g><g><path d="M33.645 3.4l-.8-.573s1.113-1.66-.283-1.72c-1.397-.064-2.044 4.099.528 4.642l-1.515.015-1.203.011-1.325.012-1.698.014.015-.003c.011 0 .019-.004.026-.004.235-.063 1.404-.458 1.817-2.23.209-.901.57-1.903 1.165-2.617.533-.637 1.251-1.043 2.22-.927 3.413.402 2.11 3.443 1.053 3.38" fill="#479706"/><path d="M35.8 7.078c0 .395-.52.752-1.38 1.024-.83.26-1.981.443-3.28.495-.25.012-.507.015-.768.015-.33 0-.659-.007-.971-.026-1.24-.063-2.33-.242-3.124-.499-.83-.271-1.333-.621-1.333-1.009 0-.335.384-.647 1.032-.9.38-.15.852-.28 1.388-.38.011 0 .019-.004.026-.004.842-.16 1.85-.25 2.934-.253h.048c.99 0 1.918.074 2.718.208a8.975 8.975 0 0 1 1.426.335c.804.272 1.285.615 1.285.994" fill="#479706"/><path d="M32.286 27.834c0 3.627-.677 7.044-1.876 10.041A22.232 22.232 0 0 1 28 42.387a18.226 18.226 0 0 1-3.046 3.418c-1.943 1.69-4.177 2.834-6.578 3.277-.73.134-1.474.205-2.234.205C7.226 49.287 0 39.685 0 27.834 0 15.988 7.226 6.378 16.143 6.378c.927 0 1.84.105 2.722.306 2.278.514 4.39 1.66 6.236 3.298a18.558 18.558 0 0 1 2.9 3.299c.905 1.3 1.69 2.748 2.327 4.311.018.037.033.071.044.108 1.222 3.02 1.914 6.47 1.914 10.134" fill="#ff6e2e"/><path d="M35.8 28.035c0 5.444-1.105 10.432-2.944 14.32-.7 1.48-1.508 2.806-2.405 3.93a.96.96 0 0 1-.079.102c-.927 1.153-1.947 2.095-3.038 2.788-1.373.878-2.859 1.355-4.408 1.355-1.6 0-3.134-.51-4.55-1.448-4.861-3.21-8.32-11.423-8.32-21.047 0-9.944 3.69-18.38 8.809-21.351 1.277-.741 2.643-1.143 4.061-1.143 1.05 0 2.074.22 3.05.636.465.194.915.436 1.358.719a11.688 11.688 0 0 1 2.067 1.69c.305.31.6.64.89.994.026.034.055.067.081.105.83 1.027 1.586 2.222 2.253 3.555 1.977 3.954 3.176 9.129 3.176 14.795" fill="#ff7c3b"/><path d="M28.457 27.634c0 11.848 7.227 21.454 16.143 21.454s16.143-9.606 16.143-21.454c0-11.85-7.227-21.454-16.143-21.454s-16.143 9.605-16.143 21.454" fill="#ff6e2e"/><path d="M24.943 27.834c0 12.423 5.762 22.494 12.872 22.494s12.872-10.071 12.872-22.494c0-12.422-5.763-22.494-12.872-22.494-7.11 0-12.872 10.072-12.872 22.494" fill="#ff7c3b"/><path d="M39.129 28.035c0 7.126-1.296 13.481-3.317 17.6-.689 1.418-1.47 2.572-2.312 3.398-.972.96-2.026 1.486-3.128 1.497h-.03c-1.057 0-2.07-.477-3.008-1.355-.863-.804-1.668-1.947-2.379-3.37-2.07-4.114-3.399-10.543-3.399-17.77 0-7.394 1.393-13.954 3.545-18.053.368-.707.763-1.344 1.176-1.895a8.615 8.615 0 0 1 1.057-1.191c.548-.514 1.121-.89 1.713-1.11.417-.16.845-.241 1.277-.245h.048a3.56 3.56 0 0 1 1.203.223c.577.201 1.135.555 1.672 1.035a8.6 8.6 0 0 1 1.172 1.303 14.2 14.2 0 0 1 1.114 1.78c2.178 4.091 3.596 10.7 3.596 18.153" fill="#ff8f40"/></g><path d="M29.097 259.554c-1.766-.768-8.609-7.794-12.054-12.379-4.91-6.534-7.983-12.896-9.091-18.825-.468-2.507-.414-7.414.107-9.572 1.08-4.479 3.065-8.049 6.233-11.218 3.17-3.17 6.749-5.157 11.218-6.23 2.664-.64 7.773-.571 10.493.142 10.271 2.692 17.235 11.603 17.3 22.14.039 6.403-2.232 12.916-7.025 20.144-2.815 4.245-5.016 6.885-9.486 11.379-4.74 4.763-5.672 5.299-7.695 4.42zm4.98-24.79c1.659-.524 4.132-2.155 5.177-3.413 1.268-1.526 2.393-3.988 2.717-5.944.77-4.65-1.778-9.644-6.072-11.9-3.588-1.886-7.27-1.882-10.873.015-4.27 2.243-6.817 7.25-6.048 11.888 1.179 7.117 8.275 11.515 15.1 9.357z" fill="#ff6e2e"/></svg>