<?xml version="1.0" encoding="UTF-8" standalone="no"?>
<!-- Created with Inkscape (http://www.inkscape.org/) -->

<svg
   xmlns:dc="http://purl.org/dc/elements/1.1/"
   xmlns:cc="http://creativecommons.org/ns#"
   xmlns:rdf="http://www.w3.org/1999/02/22-rdf-syntax-ns#"
   xmlns:svg="http://www.w3.org/2000/svg"
   xmlns="http://www.w3.org/2000/svg"
   xmlns:sodipodi="http://sodipodi.sourceforge.net/DTD/sodipodi-0.dtd"
   xmlns:inkscape="http://www.inkscape.org/namespaces/inkscape"
   width="61.112289mm"
   height="73.350945mm"
   viewBox="0 0 216.53961 259.90492"
   id="svg8353"
   version="1.1"
   inkscape:version="0.91 r13725"
   sodipodi:docname="simple.svg">
  <defs
     id="defs8355" />
  <sodipodi:namedview
     id="base"
     pagecolor="#777777"
     bordercolor="#666666"
     borderopacity="1.0"
     inkscape:pageopacity="0"
     inkscape:pageshadow="2"
     inkscape:zoom="2.4377274"
     inkscape:cx="58.777125"
     inkscape:cy="160.62501"
     inkscape:document-units="px"
     inkscape:current-layer="layer1"
     showgrid="false"
     inkscape:window-width="1920"
     inkscape:window-height="1080"
     inkscape:window-x="1680"
     inkscape:window-y="0"
     inkscape:window-maximized="0"
     fit-margin-top="0"
     fit-margin-left="0"
     fit-margin-right="0"
     fit-margin-bottom="0" />
  <metadata
     id="metadata8358">
    <rdf:RDF>
      <cc:Work
         rdf:about="">
        <dc:format>image/svg+xml</dc:format>
        <dc:type
           rdf:resource="http://purl.org/dc/dcmitype/StillImage" />
        <dc:title></dc:title>
      </cc:Work>
    </rdf:RDF>
  </metadata>
  <g
     inkscape:label="Layer 1"
     inkscape:groupmode="layer"
     id="layer1"
     transform="translate(-214.58733,-373.83832)">
    <text
       xml:space="preserve"
       style="font-style:normal;font-variant:normal;font-weight:normal;font-stretch:normal;font-size:23.81595802px;line-height:125%;font-family:roboto;-inkscape-font-specification:'roboto, Normal';text-align:start;letter-spacing:0px;word-spacing:0px;writing-mode:lr-tb;text-anchor:start;display:inline;opacity:1;fill:#2e3436;fill-opacity:1;stroke:none;stroke-width:1px;stroke-linecap:butt;stroke-linejoin:miter;stroke-opacity:1;"
       x="297.96503"
       y="494.48666"
       id="text4973"
       sodipodi:linespacing="125%"><tspan
         sodipodi:role="line"
         id="tspan4975"
         x="297.96503"
         y="494.48666">Clients</tspan></text>
    <text
       xml:space="preserve"
       style="font-style:normal;font-variant:normal;font-weight:normal;font-stretch:normal;font-size:23.81595802px;line-height:125%;font-family:roboto;-inkscape-font-specification:'roboto, Normal';text-align:start;letter-spacing:0px;word-spacing:0px;writing-mode:lr-tb;text-anchor:start;display:inline;opacity:1;fill:#2e3436;fill-opacity:1;stroke:none;stroke-width:1px;stroke-linecap:butt;stroke-linejoin:miter;stroke-opacity:1;"
       x="296.39304"
       y="396.80869"
       id="text4977"
       sodipodi:linespacing="125%"><tspan
         sodipodi:role="line"
         id="tspan4979"
         x="296.39304"
         y="396.80869">Produits</tspan></text>
    <text
       xml:space="preserve"
       style="font-style:normal;font-variant:normal;font-weight:normal;font-stretch:normal;font-size:23.81595802px;line-height:125%;font-family:roboto;-inkscape-font-specification:'roboto, Normal';text-align:start;letter-spacing:0px;word-spacing:0px;writing-mode:lr-tb;text-anchor:start;display:inline;opacity:1;fill:#2e3436;fill-opacity:1;stroke:none;stroke-width:1px;stroke-linecap:butt;stroke-linejoin:miter;stroke-opacity:1;"
       x="296.09848"
       y="604.95557"
       id="text4981"
       sodipodi:linespacing="125%"><tspan
         sodipodi:role="line"
         id="tspan4983"
         x="296.09848"
         y="604.95557">Rendez-vous</tspan></text>
    <text
       xml:space="preserve"
       style="font-style:normal;font-variant:normal;font-weight:normal;font-stretch:normal;font-size:17.72922516px;line-height:125%;font-family:roboto;-inkscape-font-specification:'roboto, Normal';text-align:start;letter-spacing:0px;word-spacing:0px;writing-mode:lr-tb;text-anchor:start;display:inline;opacity:1;fill:#2e3436;fill-opacity:1;stroke:none;stroke-width:1px;stroke-linecap:butt;stroke-linejoin:miter;stroke-opacity:1;"
       x="300.66318"
       y="513.87781"
       id="text4985"
       sodipodi:linespacing="125%"><tspan
         sodipodi:role="line"
         id="tspan4987"
         x="300.66318"
         y="513.87781"
         style="font-size:13.29691887px;fill:#2e3436;">jp.dupont@gmail.com</tspan></text>
    <text
       xml:space="preserve"
       style="font-style:normal;font-variant:normal;font-weight:normal;font-stretch:normal;font-size:17.72922516px;line-height:125%;font-family:roboto;-inkscape-font-specification:'roboto, Normal';text-align:start;letter-spacing:0px;word-spacing:0px;writing-mode:lr-tb;text-anchor:start;display:inline;opacity:1;fill:#2e3436;fill-opacity:1;stroke:none;stroke-width:1px;stroke-linecap:butt;stroke-linejoin:miter;stroke-opacity:1;"
       x="300.56995"
       y="531.11975"
       id="text4985-1"
       sodipodi:linespacing="125%"><tspan
         sodipodi:role="line"
         id="tspan4987-5"
         x="300.56995"
         y="531.11975"
         style="font-size:13.29691887px;fill:#2e3436;">m.lachez@yahoo.com</tspan></text>
    <text
       xml:space="preserve"
       style="font-style:normal;font-variant:normal;font-weight:normal;font-stretch:normal;font-size:17.72922516px;line-height:125%;font-family:roboto;-inkscape-font-specification:'roboto, Normal';text-align:start;letter-spacing:0px;word-spacing:0px;writing-mode:lr-tb;text-anchor:start;display:inline;opacity:1;fill:#2e3436;fill-opacity:1;stroke:none;stroke-width:1px;stroke-linecap:butt;stroke-linejoin:miter;stroke-opacity:1;"
       x="297.27921"
       y="415.21591"
       id="text4985-5"
       sodipodi:linespacing="125%"><tspan
         sodipodi:role="line"
         id="tspan4987-4"
         x="297.27921"
         y="415.21591"
         style="font-size:13.29691887px;fill:#2e3436;">Tomate, 4.50€/Kg</tspan></text>
    <text
       xml:space="preserve"
       style="font-style:normal;font-variant:normal;font-weight:normal;font-stretch:normal;font-size:17.72922516px;line-height:125%;font-family:roboto;-inkscape-font-specification:'roboto, Normal';text-align:start;letter-spacing:0px;word-spacing:0px;writing-mode:lr-tb;text-anchor:start;display:inline;opacity:1;fill:#2e3436;fill-opacity:1;stroke:none;stroke-width:1px;stroke-linecap:butt;stroke-linejoin:miter;stroke-opacity:1;"
       x="297.186"
       y="432.45786"
       id="text4985-1-7"
       sodipodi:linespacing="125%"><tspan
         sodipodi:role="line"
         id="tspan4987-5-6"
         x="297.186"
         y="432.45786"
         style="font-size:13.29691887px;fill:#2e3436;">Radis, 1.20€/Botte</tspan></text>
    <text
       xml:space="preserve"
       style="font-style:normal;font-variant:normal;font-weight:normal;font-stretch:normal;font-size:17.72922516px;line-height:125%;font-family:roboto;-inkscape-font-specification:'roboto, Normal';text-align:start;letter-spacing:0px;word-spacing:0px;writing-mode:lr-tb;text-anchor:start;display:inline;opacity:1;fill:#2e3436;fill-opacity:1;stroke:none;stroke-width:1px;stroke-linecap:butt;stroke-linejoin:miter;stroke-opacity:1;"
       x="292.65848"
       y="624.77856"
       id="text4985-1-7-5"
       sodipodi:linespacing="125%"><tspan
         sodipodi:role="line"
         id="tspan4987-5-6-6"
         x="292.65848"
         y="624.77856"
         style="font-size:13.29691887px;fill:#2e3436;">Jeudi 16-19h à la ferme</tspan></text>
    <g
       style="display:inline;opacity:1"
       id="g6033"
       transform="matrix(2.5723066,0,0,2.5723066,218.89013,-2177.8498)">
      <g
         id="g6035"
         transform="matrix(0.77981,0,0,0.78862,2.9634,174.84)"
         style="fill:#ffcaa4;fill-opacity:1">
        <path
           id="path6037"
           transform="translate(6,1088.4)"
           d="M 17,4 A 5,5 0 1 1 7,4 5,5 0 1 1 17,4 Z"
           inkscape:connector-curvature="0"
           style="fill:#ffcaa4;fill-opacity:1" />
        <path
           id="path6039"
           d="m 18,1096.4 c -1.277,0 -2.494,0.2 -3.594,0.7 -2.885,1.3 -4.9779,4 -5.3435,7.3 0,1.1 0.8329,2 1.9375,2 l 14,0 c 1.105,0 1.938,-0.9 1.938,-2 -0.366,-3.3 -2.459,-6 -5.344,-7.3 -1.1,-0.5 -2.317,-0.7 -3.594,-0.7 z"
           inkscape:connector-curvature="0"
           style="fill:#ffcaa4;fill-opacity:1" />
      </g>
      <g
         id="g6041"
         transform="matrix(0.77981,0,0,0.78862,-7.0366,174.84)"
         style="fill:#ffa464;fill-opacity:1">
        <path
           id="path6043"
           transform="translate(6,1088.4)"
           d="M 17,4 A 5,5 0 1 1 7,4 5,5 0 1 1 17,4 Z"
           inkscape:connector-curvature="0"
           style="fill:#ffa464;fill-opacity:1" />
        <path
           id="path6045"
           d="m 18,1096.4 c -1.277,0 -2.494,0.2 -3.594,0.7 -2.885,1.3 -4.9779,4 -5.3435,7.3 0,1.1 0.8329,2 1.9375,2 l 14,0 c 1.105,0 1.938,-0.9 1.938,-2 -0.366,-3.3 -2.459,-6 -5.344,-7.3 -1.1,-0.5 -2.317,-0.7 -3.594,-0.7 z"
           inkscape:connector-curvature="0"
           style="fill:#ffa464;fill-opacity:1" />
      </g>
      <path
         id="path6047"
         d="m 8.4062,1041.1 c -2.8856,1.3 -4.9781,4 -5.3437,7.3 0,1.1 0.8329,2 1.9375,2 l 14,0 c 1.105,0 1.938,-0.9 1.938,-2 -0.366,-3.3 -2.459,-6 -5.344,-7.3 -0.649,1.3 -2.011,2.3 -3.594,2.3 -1.583,0 -2.9453,-1 -3.5938,-2.3 z"
         inkscape:connector-curvature="0"
         style="fill:#e55110;fill-opacity:1" />
      <g
         id="g6122"
         style="fill:#ff7c3b;fill-opacity:1">
        <path
           style="fill:#ff7c3b;fill-opacity:1"
           inkscape:connector-curvature="0"
           d="M 17,4 A 5,5 0 1 1 7,4 5,5 0 1 1 17,4 Z"
           transform="translate(0,1031.4)"
           id="path6049" />
        <path
           style="fill:#ff7c3b;fill-opacity:1"
           inkscape:connector-curvature="0"
           d="m 12,11 c -1.277,0 -2.4943,0.269 -3.5938,0.75 -2.8856,1.262 -4.9781,3.997 -5.3437,7.25 0,1.105 0.8329,2 1.9375,2 l 14,0 c 1.105,0 1.938,-0.895 1.938,-2 C 20.572,15.747 18.479,13.012 15.594,11.75 14.494,11.269 13.277,11 12,11 Z"
           transform="translate(0,1028.4)"
           id="path6051" />
      </g>
    </g>
    <g
       style="display:inline;opacity:1"
       transform="matrix(0.37230308,0,0,-0.37230308,141.43836,561.05716)"
       id="g7884">
      <g
         transform="translate(286.84684,493.73416)"
         id="g806">
        <path
           inkscape:connector-curvature="0"
           id="path808"
           style="fill:#479706;fill-opacity:1;fill-rule:nonzero;stroke:none"
           d="m 0,0 -2.15,1.54 c 0,0 2.99,4.46 -0.76,4.62 -3.75,0.17 -5.49,-11.01 1.42,-12.47 l -4.07,-0.04 -3.23,-0.03 -3.56,-0.03 -4.56,-0.04 c 0,0 0.01,0 0.04,0.01 0.03,0 0.05,0.01 0.07,0.01 0.63,0.17 3.77,1.23 4.88,5.99 0.56,2.42 1.53,5.11 3.13,7.03 1.43,1.71 3.36,2.8 5.96,2.49 C 6.34,8 2.84,-0.17 0,0" />
      </g>
      <g
         transform="translate(292.63684,483.85426)"
         id="g810">
        <path
           inkscape:connector-curvature="0"
           id="path812"
           style="fill:#479706;fill-opacity:1;fill-rule:nonzero;stroke:none"
           d="m 0,0 c 0,-1.06 -1.4,-2.02 -3.71,-2.75 -2.23,-0.7 -5.32,-1.19 -8.81,-1.33 -0.67,-0.03 -1.36,-0.04 -2.06,-0.04 -0.89,0 -1.77,0.02 -2.61,0.07 -3.33,0.17 -6.26,0.65 -8.39,1.34 -2.23,0.73 -3.58,1.67 -3.58,2.71 0,0.9 1.03,1.74 2.77,2.42 1.02,0.4 2.29,0.75 3.73,1.02 0.03,0 0.05,0.01 0.07,0.01 2.26,0.43 4.97,0.67 7.88,0.68 l 0.13,0 c 2.66,0 5.15,-0.2 7.3,-0.56 1.46,-0.23 2.75,-0.54 3.83,-0.9 C -1.29,1.94 0,1.02 0,0" />
      </g>
      <g
         transform="translate(283.19694,428.10426)"
         id="g814">
        <path
           inkscape:connector-curvature="0"
           id="path816"
           style="fill:#ff6e2e;fill-opacity:1;fill-rule:nonzero;stroke:none"
           d="m 0,0 c 0,-9.74 -1.82,-18.92 -5.04,-26.97 -0.03,-0.09 -0.06,-0.17 -0.1,-0.25 -1.74,-4.321 -3.88,-8.3 -6.37,-11.87 -2.42,-3.491 -5.17,-6.58 -8.18,-9.18 -5.22,-4.54 -11.22,-7.61 -17.67,-8.8 -1.96,-0.36 -3.96,-0.551 -6,-0.551 -23.95,0 -43.36,25.79 -43.36,57.621 0,31.82 19.41,57.63 43.36,57.63 2.49,0 4.94,-0.28 7.31,-0.82 6.12,-1.38 11.79,-4.46 16.75,-8.86 2.86,-2.54 5.47,-5.52 7.79,-8.86 2.43,-3.49 4.54,-7.38 6.25,-11.58 0.05,-0.1 0.09,-0.19 0.12,-0.29 C -1.86,19.11 0,9.84 0,0" />
      </g>
      <g
         transform="translate(292.63684,427.56426)"
         id="g818">
        <path
           inkscape:connector-curvature="0"
           id="path820"
           style="fill:#ff7c3b;fill-opacity:1;fill-rule:nonzero;stroke:none"
           d="m 0,0 c 0,-14.621 -2.97,-28.02 -7.91,-38.46 -1.88,-3.98 -4.05,-7.54 -6.46,-10.56 -0.06,-0.09 -0.13,-0.18 -0.21,-0.271 -2.49,-3.099 -5.23,-5.629 -8.16,-7.489 -3.69,-2.36 -7.68,-3.64 -11.84,-3.64 -4.3,0 -8.42,1.37 -12.22,3.89 -13.06,8.619 -22.35,30.68 -22.35,56.53 0,26.71 9.91,49.37 23.66,57.35 3.43,1.99 7.1,3.07 10.91,3.07 2.82,0 5.57,-0.59 8.19,-1.71 1.25,-0.52 2.46,-1.17 3.65,-1.93 1.94,-1.23 3.79,-2.75 5.55,-4.54 0.82,-0.83 1.61,-1.72 2.39,-2.67 0.07,-0.09 0.15,-0.18 0.22,-0.28 2.23,-2.76 4.26,-5.97 6.05,-9.55 C -3.22,29.12 0,15.22 0,0" />
      </g>
      <g
         transform="translate(272.91174,428.64336)"
         id="g822">
        <path
           inkscape:connector-curvature="0"
           id="path824"
           style="fill:#ff6e2e;fill-opacity:1;fill-rule:nonzero;stroke:none"
           d="m 0,0 c 0,-31.824 19.413,-57.625 43.36,-57.625 23.947,0 43.361,25.801 43.361,57.625 0,31.826 -19.414,57.625 -43.361,57.625 C 19.413,57.625 0,31.826 0,0" />
      </g>
      <g
         transform="translate(263.47234,428.10426)"
         id="g826">
        <path
           inkscape:connector-curvature="0"
           id="path828"
           style="fill:#ff7c3b;fill-opacity:1;fill-rule:nonzero;stroke:none"
           d="m 0,0 c 0,-33.367 15.479,-60.417 34.575,-60.417 19.096,0 34.575,27.05 34.575,60.417 0,33.367 -15.479,60.418 -34.575,60.418 C 15.479,60.418 0,33.367 0,0" />
      </g>
      <g
         transform="translate(301.57674,427.56426)"
         id="g830">
        <path
           inkscape:connector-curvature="0"
           id="path832"
           style="fill:#ff8f40;fill-opacity:1;fill-rule:nonzero;stroke:none"
           d="m 0,0 c 0,-19.14 -3.48,-36.21 -8.91,-47.27 -1.85,-3.811 -3.95,-6.91 -6.21,-9.13 -2.61,-2.58 -5.44,-3.99 -8.4,-4.02 l -0.08,0 c -2.84,0 -5.56,1.28 -8.08,3.64 -2.32,2.159 -4.48,5.23 -6.39,9.05 -5.56,11.05 -9.13,28.319 -9.13,47.73 0,19.86 3.74,37.48 9.52,48.49 0.99,1.9 2.05,3.61 3.16,5.09 0.92,1.23 1.86,2.3 2.84,3.2 1.47,1.38 3.01,2.39 4.6,2.98 1.12,0.43 2.27,0.65 3.43,0.66 l 0.13,0 c 1.09,-0.01 2.17,-0.21 3.23,-0.6 1.55,-0.54 3.05,-1.49 4.49,-2.78 1.09,-0.97 2.14,-2.14 3.15,-3.5 1.04,-1.4 2.04,-3 2.99,-4.78 C -3.81,37.77 0,20.02 0,0" />
      </g>
    </g>
    <path
       style="display:inline;opacity:1;fill:#ff6e2e;fill-opacity:1"
       d="m 243.68482,633.39276 c -1.76682,-0.768 -8.60908,-7.7947 -12.05468,-12.3793 -4.91028,-6.5338 -7.98295,-12.8966 -9.09077,-18.8252 -0.46846,-2.5071 -0.41357,-7.4139 0.10706,-9.5716 1.08073,-4.4789 3.06447,-8.0489 6.23332,-11.2179 3.17047,-3.1704 6.7484,-5.1579 11.2178,-6.2312 2.66418,-0.6398 7.77267,-0.5703 10.49298,0.1429 10.27114,2.6917 17.23468,11.6032 17.29941,22.139 0.0393,6.4038 -2.23163,12.9164 -7.02486,20.145 -2.8148,4.2451 -5.01544,6.8847 -9.48621,11.3784 -4.7389,4.7632 -5.67198,5.2994 -7.69405,4.4204 z m 4.98024,-24.7902 c 1.65807,-0.5241 4.1315,-2.1551 5.17664,-3.4135 1.26717,-1.5258 2.39215,-3.9874 2.71629,-5.9435 0.77042,-4.6494 -1.77803,-9.6444 -6.07177,-11.9007 -3.58755,-1.8852 -7.26977,-1.8811 -10.87256,0.015 -4.26965,2.2436 -6.81722,7.2506 -6.04872,11.8885 1.17938,7.1174 8.27539,11.5145 15.10012,9.357 z"
       id="path6120"
       inkscape:connector-curvature="0" />
  </g>
</svg>
