<svg xmlns="http://www.w3.org/2000/svg" viewBox="0 0 389.633 562.731" height="600.247" width="415.608"><path d="M23.397 0h342.975a23.21 23.21 0 0123.26 23.26v516.21a23.21 23.21 0 01-23.26 23.261H23.397a23.21 23.21 0 01-23.26-23.26V23.26A23.21 23.21 0 0123.396 0z" style="isolation:auto;mix-blend-mode:normal;solid-color:#000;solid-opacity:1" color="#000" overflow="visible" fill="#fff"/><path d="M23.397 0A23.209 23.209 0 00.137 23.26v46.618h389.496V23.261A23.209 23.209 0 00366.373 0H23.397z" style="isolation:auto;mix-blend-mode:normal;solid-color:#000;solid-opacity:1" color="#000" overflow="visible" fill="#4e9a06"/><path d="M0 451.478h389.496v46.092H0zM0 367.823h389.496v46.09H0zM0 284.167h389.496v46.091H0zM0 200.512h389.496v46.09H0zM0 116.856h389.496v46.091H0z" style="isolation:auto;mix-blend-mode:normal;solid-color:#000;solid-opacity:1" color="#000" overflow="visible" fill="#eeeeec"/><g style="line-height:125%;-inkscape-font-specification:'Roboto, Normal';text-align:start" font-weight="400" font-size="20.745" font-family="Roboto" letter-spacing="0" word-spacing="0"><path style="line-height:200%" d="M53.792 91.694l4.822 12.034 4.821-12.034h2.523v14.749h-1.945v-5.744l.182-6.199-4.842 11.943h-1.489L53.032 94.53l.193 6.17v5.743H51.28V91.694h2.512zM75.864 106.443q-.162-.324-.263-1.155-1.307 1.357-3.12 1.357-1.62 0-2.664-.911-1.033-.922-1.033-2.33 0-1.712 1.296-2.654 1.307-.952 3.667-.952h1.823v-.861q0-.983-.587-1.56-.588-.588-1.732-.588-1.003 0-1.682.507-.678.506-.678 1.225h-1.885q0-.82.578-1.58.587-.77 1.58-1.215 1.003-.446 2.198-.446 1.894 0 2.968.952 1.074.942 1.114 2.603v5.045q0 1.51.385 2.4v.163h-1.965zm-3.11-1.429q.882 0 1.672-.455.79-.456 1.144-1.186v-2.248h-1.468q-3.444 0-3.444 2.016 0 .88.587 1.377.588.496 1.51.496zM82.438 106.443h-1.874v-10.96h1.874v10.96zm-2.026-13.868q0-.455.274-.77.283-.313.83-.313.547 0 .831.314.284.314.284.77 0 .455-.284.76-.284.303-.83.303-.548 0-.831-.304-.274-.304-.274-.76zM87.463 106.443h-1.874v-15.56h1.874v15.56zM92.487 106.443h-1.874v-10.96h1.874v10.96zM90.46 92.575q0-.455.273-.77.284-.313.831-.313.547 0 .83.314.284.314.284.77 0 .455-.283.76-.284.303-.831.303-.547 0-.83-.304-.274-.304-.274-.76zM97.248 95.483l.06 1.377q1.257-1.58 3.282-1.58 3.475 0 3.505 3.92v7.243h-1.874V99.19q-.01-1.185-.547-1.752-.526-.568-1.65-.568-.912 0-1.601.487-.69.486-1.074 1.276v7.81h-1.874v-10.96h1.773zM106.496 100.871q0-2.562 1.185-4.072 1.185-1.519 3.14-1.519 2.006 0 3.13 1.418l.091-1.215h1.712v10.696q0 2.128-1.266 3.353-1.256 1.226-3.383 1.226-1.185 0-2.32-.507-1.134-.506-1.732-1.387l.973-1.125q1.205 1.49 2.947 1.49 1.368 0 2.127-.77.77-.77.77-2.168v-.942q-1.124 1.296-3.069 1.296-1.925 0-3.12-1.55-1.185-1.55-1.185-4.224zm1.884.213q0 1.854.76 2.918.76 1.053 2.127 1.053 1.773 0 2.603-1.61V98.44q-.86-1.57-2.583-1.57-1.367 0-2.137 1.064t-.77 3.15zM125.59 96.81q1.246-1.53 3.242-1.53 3.474 0 3.504 3.92v7.243h-1.874V99.19q-.01-1.185-.547-1.752-.526-.568-1.65-.568-.912 0-1.601.487-.689.486-1.074 1.276v7.81h-1.874v-15.56h1.874v5.927zM139.69 106.645q-2.228 0-3.626-1.458-1.398-1.47-1.398-3.92v-.345q0-1.63.618-2.907.628-1.286 1.742-2.006 1.125-.729 2.431-.729 2.138 0 3.323 1.408t1.185 4.032v.78h-7.425q.04 1.62.942 2.623.912.993 2.31.993.992 0 1.681-.405.69-.406 1.206-1.074l1.144.891q-1.377 2.117-4.133 2.117zm-.233-9.825q-1.134 0-1.904.83-.77.82-.952 2.31h5.49v-.142q-.08-1.428-.77-2.208-.689-.79-1.864-.79zM155.401 101.084q0 2.512-1.154 4.042-1.155 1.52-3.1 1.52-2.077 0-3.211-1.47l-.091 1.267h-1.722v-15.56h1.874v5.805q1.134-1.408 3.13-1.408 1.995 0 3.13 1.51 1.144 1.509 1.144 4.132v.162zm-1.874-.213q0-1.914-.739-2.957-.74-1.044-2.127-1.044-1.854 0-2.664 1.722v4.741q.86 1.722 2.684 1.722 1.347 0 2.097-1.043.75-1.044.75-3.14zM157.296 100.871q0-2.522 1.195-4.051 1.195-1.54 3.13-1.54 1.925 0 3.049 1.317v-5.713h1.874v15.559h-1.722l-.091-1.175q-1.125 1.377-3.13 1.377-1.905 0-3.11-1.56-1.195-1.56-1.195-4.072v-.142zm1.874.213q0 1.864.77 2.918.77 1.053 2.127 1.053 1.782 0 2.603-1.6V98.42q-.84-1.55-2.583-1.55-1.378 0-2.148 1.064-.77 1.064-.77 3.15zM168.965 100.861q0-1.61.628-2.897.638-1.286 1.762-1.985 1.135-.699 2.583-.699 2.24 0 3.617 1.55 1.387 1.55 1.387 4.123v.131q0 1.6-.617 2.877-.608 1.266-1.753 1.975-1.134.71-2.613.71-2.229 0-3.617-1.55-1.377-1.55-1.377-4.103v-.132zm1.884.223q0 1.824.84 2.928.852 1.104 2.27 1.104 1.428 0 2.269-1.114.84-1.125.84-3.14 0-1.804-.86-2.918-.851-1.124-2.27-1.124-1.387 0-2.238 1.104t-.851 3.16zM183.055 95.483l.05 1.215q1.206-1.418 3.252-1.418 2.3 0 3.13 1.763.547-.79 1.418-1.277.882-.486 2.077-.486 3.606 0 3.667 3.819v7.344h-1.874V99.21q0-1.175-.537-1.752-.537-.588-1.803-.588-1.043 0-1.732.628-.689.618-.8 1.672v7.273h-1.885V99.26q0-2.39-2.34-2.39-1.843 0-2.522 1.57v8.002h-1.874v-10.96h1.773zM206.252 106.443q-.162-.324-.264-1.155-1.306 1.357-3.12 1.357-1.62 0-2.664-.911-1.033-.922-1.033-2.33 0-1.712 1.297-2.654 1.306-.952 3.667-.952h1.823v-.861q0-.983-.588-1.56-.587-.588-1.732-.588-1.003 0-1.681.507-.679.506-.679 1.225h-1.884q0-.82.577-1.58.588-.77 1.58-1.215 1.003-.446 2.199-.446 1.894 0 2.968.952 1.073.942 1.114 2.603v5.045q0 1.51.385 2.4v.163h-1.965zm-3.11-1.429q.881 0 1.671-.455.79-.456 1.145-1.186v-2.248h-1.469q-3.444 0-3.444 2.016 0 .88.588 1.377.587.496 1.509.496zM210.334 100.871q0-2.522 1.195-4.051 1.195-1.54 3.13-1.54 1.925 0 3.05 1.317v-5.713h1.873v15.559h-1.722l-.091-1.175q-1.124 1.377-3.13 1.377-1.904 0-3.11-1.56-1.195-1.56-1.195-4.072v-.142zm1.874.213q0 1.864.77 2.918.77 1.053 2.127 1.053 1.783 0 2.603-1.6V98.42q-.84-1.55-2.583-1.55-1.377 0-2.147 1.064-.77 1.064-.77 3.15zM229.266 106.443q-.162-.324-.263-1.155-1.307 1.357-3.12 1.357-1.621 0-2.664-.911-1.034-.922-1.034-2.33 0-1.712 1.297-2.654 1.307-.952 3.667-.952h1.823v-.861q0-.983-.587-1.56-.588-.588-1.732-.588-1.003 0-1.682.507-.679.506-.679 1.225h-1.884q0-.82.578-1.58.587-.77 1.58-1.215 1.003-.446 2.198-.446 1.894 0 2.968.952 1.074.942 1.114 2.603v5.045q0 1.51.385 2.4v.163h-1.965zm-3.11-1.429q.881 0 1.672-.455.79-.456 1.144-1.186v-2.248h-1.469q-3.444 0-3.444 2.016 0 .88.588 1.377.587.496 1.51.496zM235.84 106.443h-1.874v-10.96h1.874v10.96zm-2.026-13.868q0-.455.274-.77.283-.313.83-.313.547 0 .83.314.285.314.285.77 0 .455-.284.76-.284.303-.83.303-.548 0-.831-.304-.274-.304-.274-.76zM244.126 97.164q-.425-.07-.922-.07-1.843 0-2.502 1.57v7.779h-1.874v-10.96h1.824l.03 1.266q.922-1.469 2.613-1.469.547 0 .831.142v1.742zM250.183 106.645q-2.228 0-3.626-1.458-1.398-1.47-1.398-3.92v-.345q0-1.63.618-2.907.628-1.286 1.742-2.006 1.125-.729 2.432-.729 2.137 0 3.322 1.408t1.185 4.032v.78h-7.425q.04 1.62.942 2.623.912.993 2.31.993.992 0 1.681-.405.69-.406 1.206-1.074l1.144.891q-1.377 2.117-4.133 2.117zm-.232-9.825q-1.135 0-1.905.83-.77.82-.952 2.31h5.49v-.142q-.08-1.428-.77-2.208-.688-.79-1.863-.79zM53.225 142.16v5.773H51.28v-14.748h5.44q2.42 0 3.788 1.236 1.377 1.235 1.377 3.271 0 2.148-1.347 3.313-1.337 1.155-3.839 1.155h-3.474zm0-1.59h3.494q1.56 0 2.39-.73.832-.74.832-2.127 0-1.317-.831-2.107-.83-.79-2.28-.82h-3.605v5.783zM69.371 138.655q-.425-.071-.922-.071-1.843 0-2.502 1.57v7.78h-1.874v-10.96h1.824l.03 1.265q.922-1.468 2.614-1.468.547 0 .83.141v1.743zM73.12 147.933h-1.875v-10.96h1.874v10.96zm-2.027-13.867q0-.456.274-.77.283-.314.83-.314.547 0 .83.314.285.314.285.77t-.284.76q-.284.304-.83.304-.548 0-.831-.304-.274-.304-.274-.76zM82.489 145.026q0-.76-.577-1.175-.568-.425-1.996-.73-1.418-.303-2.259-.729-.83-.425-1.236-1.012-.395-.588-.395-1.398 0-1.348 1.135-2.28 1.144-.931 2.917-.931 1.864 0 3.019.962 1.165.962 1.165 2.461h-1.885q0-.77-.658-1.327-.648-.557-1.64-.557-1.024 0-1.601.446-.578.446-.578 1.165 0 .679.537 1.023.537.344 1.935.658 1.408.314 2.279.75t1.286 1.053q.426.608.426 1.49 0 1.468-1.175 2.36-1.175.88-3.05.88-1.316 0-2.329-.465-1.013-.466-1.59-1.297-.568-.84-.568-1.813h1.874q.051.942.75 1.5.71.546 1.864.546 1.063 0 1.702-.425.648-.436.648-1.155zM91.352 148.136q-2.228 0-3.626-1.459-1.398-1.469-1.398-3.92v-.344q0-1.631.618-2.907.628-1.287 1.742-2.006 1.125-.73 2.431-.73 2.138 0 3.323 1.409 1.185 1.408 1.185 4.031v.78h-7.425q.04 1.62.942 2.624.912.992 2.31.992.992 0 1.681-.405.689-.405 1.205-1.074l1.145.892q-1.377 2.117-4.133 2.117zm-.233-9.826q-1.134 0-1.904.83-.77.821-.952 2.31h5.49v-.141q-.081-1.429-.77-2.209-.689-.79-1.864-.79zM102.475 142.362q0-2.522 1.195-4.052 1.195-1.54 3.13-1.54 1.924 0 3.049 1.317v-5.713h1.874v15.56H110l-.091-1.176q-1.125 1.378-3.13 1.378-1.905 0-3.11-1.56-1.196-1.56-1.196-4.072v-.142zm1.873.213q0 1.864.77 2.917.77 1.054 2.128 1.054 1.782 0 2.603-1.6v-5.035q-.84-1.55-2.583-1.55-1.378 0-2.148 1.064-.77 1.063-.77 3.15zM119.188 148.136q-2.228 0-3.626-1.459-1.398-1.469-1.398-3.92v-.344q0-1.631.618-2.907.628-1.287 1.742-2.006 1.125-.73 2.431-.73 2.138 0 3.323 1.409 1.185 1.408 1.185 4.031v.78h-7.425q.04 1.62.942 2.624.912.992 2.31.992.992 0 1.681-.405.689-.405 1.205-1.074l1.145.892q-1.378 2.117-4.133 2.117zm-.233-9.826q-1.134 0-1.904.83-.77.821-.952 2.31h5.49v-.141q-.081-1.429-.77-2.209-.689-.79-1.864-.79zM135.163 146.606q1.002 0 1.752-.607.75-.608.83-1.52h1.773q-.05.942-.648 1.793t-1.6 1.357q-.993.507-2.107.507-2.24 0-3.566-1.49-1.317-1.498-1.317-4.091v-.314q0-1.6.588-2.847.587-1.246 1.681-1.935 1.104-.688 2.603-.688 1.844 0 3.06 1.104 1.225 1.104 1.306 2.866h-1.772q-.081-1.063-.81-1.742-.72-.689-1.784-.689-1.428 0-2.218 1.033-.78 1.024-.78 2.968v.355q0 1.894.78 2.917t2.229 1.023zM141.129 142.352q0-1.61.628-2.897.638-1.287 1.762-1.985 1.135-.7 2.583-.7 2.24 0 3.617 1.55 1.387 1.55 1.387 4.123v.132q0 1.6-.617 2.877-.608 1.266-1.753 1.975-1.134.709-2.613.709-2.229 0-3.617-1.55-1.377-1.55-1.377-4.102v-.132zm1.884.223q0 1.823.84 2.927.852 1.104 2.27 1.104 1.428 0 2.269-1.114.84-1.124.84-3.14 0-1.803-.86-2.917-.851-1.125-2.27-1.125-1.387 0-2.238 1.104-.851 1.105-.851 3.16zM155.219 136.973l.05 1.216q1.206-1.418 3.252-1.418 2.3 0 3.13 1.762.547-.79 1.418-1.276.882-.486 2.077-.486 3.606 0 3.667 3.818v7.344h-1.874v-7.232q0-1.175-.537-1.753-.537-.587-1.803-.587-1.043 0-1.732.628-.689.618-.8 1.671v7.273h-1.884v-7.182q0-2.39-2.34-2.39-1.844 0-2.523 1.57v8.002h-1.874v-10.96h1.773zM173.412 136.973l.05 1.216q1.206-1.418 3.252-1.418 2.3 0 3.13 1.762.547-.79 1.418-1.276.881-.486 2.077-.486 3.606 0 3.667 3.818v7.344h-1.874v-7.232q0-1.175-.537-1.753-.537-.587-1.803-.587-1.044 0-1.732.628-.69.618-.8 1.671v7.273h-1.885v-7.182q0-2.39-2.34-2.39-1.843 0-2.522 1.57v8.002h-1.874v-10.96h1.773zM196.608 147.933q-.162-.324-.263-1.154-1.307 1.357-3.12 1.357-1.62 0-2.664-.912-1.033-.922-1.033-2.33 0-1.711 1.296-2.653 1.307-.953 3.667-.953h1.824v-.86q0-.983-.588-1.56-.587-.588-1.732-.588-1.003 0-1.682.506-.678.507-.678 1.226h-1.884q0-.82.577-1.58.588-.77 1.58-1.216 1.003-.445 2.198-.445 1.895 0 2.968.952 1.074.942 1.115 2.603v5.045q0 1.509.384 2.4v.162h-1.965zm-3.11-1.428q.882 0 1.672-.456.79-.456 1.145-1.185v-2.249h-1.47q-3.443 0-3.443 2.016 0 .881.587 1.378.588.496 1.51.496zM202.92 136.973l.06 1.378q1.256-1.58 3.282-1.58 3.474 0 3.505 3.92v7.242h-1.874v-7.252q-.01-1.186-.547-1.753-.527-.567-1.651-.567-.912 0-1.6.486-.69.486-1.075 1.276v7.81h-1.874v-10.96h1.773zM212.157 142.362q0-2.522 1.195-4.052 1.196-1.54 3.13-1.54 1.925 0 3.05 1.317v-5.713h1.873v15.56h-1.722l-.09-1.176q-1.125 1.378-3.13 1.378-1.905 0-3.11-1.56-1.196-1.56-1.196-4.072v-.142zm1.874.213q0 1.864.77 2.917.77 1.054 2.127 1.054 1.783 0 2.603-1.6v-5.035q-.84-1.55-2.583-1.55-1.377 0-2.147 1.064-.77 1.063-.77 3.15zM228.87 148.136q-2.228 0-3.625-1.459-1.398-1.469-1.398-3.92v-.344q0-1.631.618-2.907.628-1.287 1.742-2.006 1.124-.73 2.431-.73 2.137 0 3.322 1.409 1.186 1.408 1.186 4.031v.78h-7.425q.04 1.62.942 2.624.911.992 2.31.992.992 0 1.68-.405.69-.405 1.206-1.074l1.145.892q-1.378 2.117-4.133 2.117zm-.232-9.826q-1.135 0-1.904.83-.77.821-.953 2.31h5.49v-.141q-.08-1.429-.77-2.209-.688-.79-1.863-.79zM53.792 174.675l4.822 12.034 4.821-12.034h2.523v14.749h-1.945v-5.744l.182-6.199-4.842 11.943h-1.489l-4.832-11.912.193 6.168v5.744H51.28v-14.749h2.512zM75.864 189.424q-.162-.324-.263-1.155-1.307 1.358-3.12 1.358-1.62 0-2.664-.912-1.033-.922-1.033-2.33 0-1.712 1.296-2.654 1.307-.952 3.667-.952h1.823v-.861q0-.983-.587-1.56-.588-.588-1.732-.588-1.003 0-1.682.507-.678.506-.678 1.226h-1.885q0-.82.578-1.58.587-.77 1.58-1.216 1.003-.446 2.198-.446 1.894 0 2.968.952 1.074.942 1.114 2.604v5.044q0 1.51.385 2.4v.163h-1.965zm-3.11-1.428q.882 0 1.672-.456.79-.456 1.144-1.185v-2.25h-1.468q-3.444 0-3.444 2.017 0 .881.587 1.377.588.497 1.51.497zM82.438 189.424h-1.874v-10.96h1.874v10.96zm-2.026-13.867q0-.456.274-.77.283-.314.83-.314.547 0 .831.314.284.314.284.77 0 .455-.284.76-.284.303-.83.303-.548 0-.831-.304-.274-.304-.274-.76zM87.463 189.424h-1.874v-15.559h1.874v15.559zM95.14 183.853q0-2.523 1.196-4.052 1.195-1.54 3.13-1.54 1.925 0 3.049 1.317v-5.713h1.874v15.559h-1.722l-.091-1.175q-1.125 1.378-3.13 1.378-1.905 0-3.11-1.56-1.195-1.56-1.195-4.072v-.142zm1.875.212q0 1.864.77 2.918.77 1.053 2.127 1.053 1.783 0 2.603-1.6V181.4q-.84-1.55-2.583-1.55-1.378 0-2.147 1.064-.77 1.064-.77 3.15zM111.854 189.627q-2.228 0-3.626-1.46-1.398-1.468-1.398-3.92v-.344q0-1.63.618-2.907.628-1.286 1.742-2.005 1.125-.73 2.431-.73 2.138 0 3.323 1.408t1.185 4.032v.78h-7.425q.04 1.62.942 2.623.912.993 2.31.993.992 0 1.681-.405.69-.405 1.206-1.074l1.144.891q-1.377 2.118-4.133 2.118zm-.233-9.826q-1.134 0-1.904.83-.77.821-.952 2.31h5.49v-.142q-.08-1.428-.77-2.208-.688-.79-1.864-.79zM128.73 180.145q-.425-.07-.921-.07-1.844 0-2.503 1.57v7.779h-1.873v-10.96h1.823l.03 1.266q.922-1.469 2.614-1.469.547 0 .83.142v1.742zM136.804 189.424q-.163-.324-.264-1.155-1.307 1.358-3.12 1.358-1.62 0-2.664-.912-1.033-.922-1.033-2.33 0-1.712 1.297-2.654 1.306-.952 3.666-.952h1.824v-.861q0-.983-.588-1.56-.587-.588-1.732-.588-1.003 0-1.681.507-.68.506-.68 1.226h-1.883q0-.82.577-1.58.588-.77 1.58-1.216 1.003-.446 2.199-.446 1.894 0 2.967.952 1.074.942 1.115 2.604v5.044q0 1.51.385 2.4v.163h-1.965zm-3.11-1.428q.881 0 1.671-.456t1.145-1.185v-2.25h-1.469q-3.444 0-3.444 2.017 0 .881.587 1.377.588.497 1.51.497zM150.6 184.065q0 2.502-1.145 4.032-1.144 1.53-3.1 1.53-1.995 0-3.14-1.267v5.278h-1.873v-15.174h1.711l.092 1.215q1.144-1.418 3.18-1.418 1.976 0 3.12 1.49 1.155 1.488 1.155 4.142v.172zm-1.874-.212q0-1.854-.79-2.928-.79-1.073-2.168-1.073-1.702 0-2.552 1.509v5.237q.84 1.499 2.572 1.499 1.348 0 2.138-1.064.8-1.073.8-3.18zM162.229 184.065q0 2.502-1.145 4.032-1.145 1.53-3.1 1.53-1.995 0-3.14-1.267v5.278h-1.874v-15.174h1.712l.091 1.215q1.145-1.418 3.181-1.418 1.975 0 3.12 1.49 1.155 1.488 1.155 4.142v.172zm-1.874-.212q0-1.854-.79-2.928-.79-1.073-2.168-1.073-1.702 0-2.553 1.509v5.237q.841 1.499 2.573 1.499 1.347 0 2.137-1.064.8-1.073.8-3.18zM169.147 189.627q-2.228 0-3.626-1.46-1.398-1.468-1.398-3.92v-.344q0-1.63.618-2.907.628-1.286 1.742-2.005 1.124-.73 2.431-.73 2.138 0 3.323 1.408t1.185 4.032v.78h-7.425q.04 1.62.942 2.623.912.993 2.31.993.992 0 1.681-.405.689-.405 1.205-1.074l1.145.891q-1.378 2.118-4.133 2.118zm-.233-9.826q-1.134 0-1.904.83-.77.821-.952 2.31h5.49v-.142q-.081-1.428-.77-2.208-.689-.79-1.864-.79zM177.615 189.424h-1.874v-15.559h1.874v15.559zM53.792 216.166l4.822 12.034 4.821-12.034h2.523v14.749h-1.945v-5.744l.182-6.2-4.842 11.944h-1.489l-4.832-11.913.193 6.17v5.743H51.28v-14.75h2.512zM75.864 230.915q-.162-.325-.263-1.155-1.307 1.357-3.12 1.357-1.62 0-2.664-.912-1.033-.921-1.033-2.33 0-1.711 1.296-2.653 1.307-.952 3.667-.952h1.823v-.861q0-.983-.587-1.56-.588-.588-1.732-.588-1.003 0-1.682.507-.678.506-.678 1.225h-1.885q0-.82.578-1.58.587-.77 1.58-1.216 1.003-.445 2.198-.445 1.894 0 2.968.952 1.074.942 1.114 2.603v5.045q0 1.51.385 2.4v.163h-1.965zm-3.11-1.429q.882 0 1.672-.456.79-.455 1.144-1.185v-2.248h-1.468q-3.444 0-3.444 2.015 0 .882.587 1.378.588.496 1.51.496zM82.438 230.915h-1.874v-10.96h1.874v10.96zm-2.026-13.868q0-.456.274-.77.283-.314.83-.314.547 0 .831.314.284.314.284.77t-.284.76q-.284.304-.83.304-.548 0-.831-.304-.274-.304-.274-.76zM87.463 230.915h-1.874v-15.56h1.874v15.56zM95.14 225.343q0-2.522 1.196-4.052 1.195-1.54 3.13-1.54 1.925 0 3.049 1.318v-5.713h1.874v15.559h-1.722l-.091-1.175q-1.125 1.377-3.13 1.377-1.905 0-3.11-1.56-1.195-1.56-1.195-4.072v-.142zm1.875.213q0 1.864.77 2.917.77 1.054 2.127 1.054 1.783 0 2.603-1.6v-5.035q-.84-1.55-2.583-1.55-1.378 0-2.147 1.064-.77 1.063-.77 3.15zM111.854 231.117q-2.228 0-3.626-1.459-1.398-1.468-1.398-3.92v-.344q0-1.63.618-2.907.628-1.287 1.742-2.006 1.125-.73 2.431-.73 2.138 0 3.323 1.409 1.185 1.408 1.185 4.031v.78h-7.425q.04 1.621.942 2.624.912.993 2.31.993.992 0 1.681-.406.69-.405 1.206-1.073l1.144.891q-1.377 2.117-4.133 2.117zm-.233-9.826q-1.134 0-1.904.831-.77.82-.952 2.31h5.49v-.142q-.08-1.428-.77-2.208-.688-.79-1.864-.79zM127.829 229.588q1.003 0 1.752-.608.75-.608.83-1.52h1.773q-.05.942-.648 1.793-.597.851-1.6 1.358-.993.506-2.107.506-2.239 0-3.566-1.489-1.317-1.5-1.317-4.092v-.314q0-1.6.588-2.847.587-1.246 1.681-1.934 1.104-.69 2.604-.69 1.843 0 3.059 1.105 1.225 1.104 1.306 2.867h-1.772q-.081-1.064-.81-1.743-.72-.689-1.783-.689-1.429 0-2.219 1.034-.78 1.023-.78 2.968v.354q0 1.894.78 2.917.78 1.024 2.229 1.024zM133.795 225.333q0-1.61.628-2.897.638-1.286 1.763-1.985 1.134-.7 2.583-.7 2.238 0 3.616 1.55 1.388 1.55 1.388 4.123v.132q0 1.6-.618 2.877-.608 1.266-1.753 1.975-1.134.71-2.613.71-2.229 0-3.616-1.55-1.378-1.55-1.378-4.103v-.132zm1.884.223q0 1.823.84 2.927.852 1.105 2.27 1.105 1.428 0 2.269-1.115.84-1.124.84-3.14 0-1.803-.86-2.917-.851-1.125-2.27-1.125-1.387 0-2.238 1.105-.85 1.104-.85 3.16zM147.895 219.954l.061 1.378q1.256-1.58 3.282-1.58 3.475 0 3.505 3.92v7.243h-1.874v-7.253q-.01-1.185-.547-1.753-.527-.567-1.651-.567-.912 0-1.6.486-.69.487-1.074 1.277v7.81h-1.874v-10.96h1.772zM158.217 230.915v-9.512h-1.732v-1.449h1.732v-.932q0-1.833 1.044-2.856 1.053-1.023 2.968-1.023 1.134 0 2.866.618l-.314 1.58q-1.266-.507-2.41-.507-1.206 0-1.743.547-.527.537-.527 1.621v.952h2.24v1.449h-2.24v9.512h-1.884zm7.81 0h-1.884v-10.96h1.884v10.96zM174.394 221.636q-.425-.071-.922-.071-1.843 0-2.502 1.57v7.78h-1.873v-10.96h1.823l.03 1.266q.922-1.47 2.614-1.47.547 0 .83.143v1.742zM177.869 219.954l.05 1.216q1.206-1.418 3.252-1.418 2.3 0 3.13 1.762.547-.79 1.418-1.276.881-.486 2.077-.486 3.606 0 3.667 3.819v7.344h-1.874v-7.233q0-1.175-.537-1.752-.537-.588-1.803-.588-1.044 0-1.732.628-.69.618-.8 1.672v7.273h-1.885v-7.182q0-2.39-2.34-2.39-1.843 0-2.522 1.57v8.002h-1.874v-10.96h1.773zM201.065 230.915q-.162-.325-.263-1.155-1.307 1.357-3.12 1.357-1.62 0-2.664-.912-1.033-.921-1.033-2.33 0-1.711 1.296-2.653 1.307-.952 3.667-.952h1.824v-.861q0-.983-.588-1.56-.587-.588-1.732-.588-1.003 0-1.682.507-.678.506-.678 1.225h-1.884q0-.82.577-1.58.588-.77 1.58-1.216 1.003-.445 2.198-.445 1.895 0 2.968.952 1.074.942 1.115 2.603v5.045q0 1.51.384 2.4v.163h-1.965zm-3.11-1.429q.882 0 1.672-.456.79-.455 1.145-1.185v-2.248h-1.47q-3.443 0-3.443 2.015 0 .882.587 1.378.588.496 1.51.496zM208.146 217.3v2.654h2.046v1.449h-2.046v6.797q0 .658.273.993.274.324.932.324.324 0 .892-.122v1.52q-.74.202-1.439.202-1.256 0-1.894-.76-.638-.76-.638-2.157v-6.797h-1.996v-1.449h1.996V217.3h1.874zM214.406 230.915h-1.874v-10.96h1.874v10.96zm-2.026-13.868q0-.456.274-.77.283-.314.83-.314.547 0 .83.314.284.314.284.77t-.283.76q-.284.304-.83.304-.548 0-.831-.304-.274-.304-.274-.76zM216.898 225.333q0-1.61.628-2.897.638-1.286 1.762-1.985 1.135-.7 2.583-.7 2.24 0 3.617 1.55 1.387 1.55 1.387 4.123v.132q0 1.6-.617 2.877-.608 1.266-1.753 1.975-1.134.71-2.613.71-2.229 0-3.617-1.55-1.377-1.55-1.377-4.103v-.132zm1.884.223q0 1.823.84 2.927.852 1.105 2.27 1.105 1.428 0 2.269-1.115.84-1.124.84-3.14 0-1.803-.86-2.917-.851-1.125-2.27-1.125-1.387 0-2.238 1.105-.851 1.104-.851 3.16zM230.998 219.954l.06 1.378q1.257-1.58 3.283-1.58 3.474 0 3.505 3.92v7.243h-1.874v-7.253q-.01-1.185-.547-1.753-.527-.567-1.651-.567-.912 0-1.6.486-.69.487-1.075 1.277v7.81h-1.874v-10.96h1.773zM55.625 265.831q-2.502-.72-3.646-1.762-1.135-1.054-1.135-2.594 0-1.742 1.388-2.876 1.398-1.145 3.626-1.145 1.52 0 2.705.587 1.195.588 1.844 1.621.658 1.033.658 2.26H59.11q0-1.338-.85-2.098-.852-.77-2.402-.77-1.438 0-2.248.639-.8.628-.8 1.752 0 .902.76 1.53.769.617 2.602 1.134 1.844.517 2.877 1.145 1.044.618 1.54 1.448.506.83.506 1.955 0 1.793-1.398 2.877-1.397 1.074-3.737 1.074-1.52 0-2.837-.578-1.316-.587-2.036-1.6-.709-1.013-.709-2.3h1.955q0 1.338.983 2.118.993.77 2.644.77 1.54 0 2.36-.629.82-.628.82-1.712 0-1.083-.76-1.67-.76-.599-2.755-1.176zM66.11 257.657l4.821 12.033 4.822-12.033h2.522v14.748H76.33v-5.743l.182-6.2-4.841 11.943h-1.49l-4.831-11.912.192 6.169v5.743h-1.945v-14.748h2.512zM86.055 265.831q-2.502-.72-3.647-1.762-1.135-1.054-1.135-2.594 0-1.742 1.388-2.876 1.398-1.145 3.626-1.145 1.52 0 2.705.587 1.195.588 1.844 1.621.658 1.033.658 2.26H89.54q0-1.338-.85-2.098-.852-.77-2.402-.77-1.438 0-2.248.639-.8.628-.8 1.752 0 .902.76 1.53.77.617 2.603 1.134 1.843.517 2.876 1.145 1.044.618 1.54 1.448.506.83.506 1.955 0 1.793-1.397 2.877-1.398 1.074-3.738 1.074-1.52 0-2.836-.578-1.317-.587-2.037-1.6-.709-1.013-.709-2.3h1.955q0 1.338.983 2.118.993.77 2.644.77 1.54 0 2.36-.629.82-.628.82-1.712 0-1.083-.76-1.67-.759-.599-2.754-1.176zM98.423 266.834q0-2.522 1.195-4.052 1.195-1.54 3.13-1.54 1.925 0 3.049 1.317v-5.713h1.874v15.56h-1.722l-.091-1.176q-1.125 1.378-3.13 1.378-1.905 0-3.11-1.56-1.195-1.56-1.195-4.072v-.142zm1.874.213q0 1.863.77 2.917.77 1.053 2.127 1.053 1.783 0 2.603-1.6v-5.034q-.84-1.55-2.583-1.55-1.378 0-2.147 1.063-.77 1.064-.77 3.15zM115.136 272.608q-2.228 0-3.626-1.459-1.398-1.469-1.398-3.92v-.344q0-1.631.618-2.908.628-1.286 1.742-2.005 1.125-.73 2.431-.73 2.138 0 3.323 1.408t1.185 4.032v.78h-7.425q.04 1.62.942 2.623.912.993 2.31.993.992 0 1.681-.405.689-.405 1.206-1.074l1.144.892q-1.377 2.117-4.133 2.117zm-.233-9.826q-1.134 0-1.904.83-.77.821-.952 2.31h5.49v-.142q-.08-1.428-.77-2.208-.689-.79-1.864-.79zM132.012 263.126q-.425-.07-.922-.07-1.843 0-2.502 1.57v7.78h-1.874v-10.961h1.824l.03 1.266q.922-1.469 2.614-1.469.547 0 .83.142v1.742zM140.085 272.405q-.162-.324-.263-1.155-1.307 1.358-3.12 1.358-1.62 0-2.664-.912-1.033-.922-1.033-2.33 0-1.712 1.297-2.654 1.306-.952 3.666-.952h1.824v-.86q0-.983-.588-1.56-.587-.588-1.732-.588-1.003 0-1.681.506-.68.507-.68 1.226h-1.883q0-.82.577-1.58.588-.77 1.58-1.216 1.003-.446 2.198-.446 1.895 0 2.968.953 1.074.942 1.115 2.603v5.044q0 1.51.385 2.401v.162h-1.966zm-3.11-1.428q.882 0 1.672-.456.79-.456 1.145-1.185v-2.249h-1.469q-3.444 0-3.444 2.016 0 .881.587 1.378.588.496 1.51.496zM153.882 267.047q0 2.502-1.145 4.031-1.144 1.53-3.1 1.53-1.995 0-3.14-1.266v5.277h-1.873v-15.174h1.711l.092 1.216q1.144-1.419 3.18-1.419 1.976 0 3.12 1.49 1.155 1.488 1.155 4.142v.173zm-1.874-.213q0-1.854-.79-2.928-.79-1.073-2.168-1.073-1.702 0-2.553 1.509v5.237q.841 1.5 2.573 1.5 1.348 0 2.138-1.064.8-1.074.8-3.181zM165.51 267.047q0 2.502-1.144 4.031-1.145 1.53-3.1 1.53-1.995 0-3.14-1.266v5.277h-1.874v-15.174h1.712l.091 1.216q1.145-1.419 3.181-1.419 1.975 0 3.12 1.49 1.155 1.488 1.155 4.142v.173zm-1.873-.213q0-1.854-.79-2.928-.79-1.073-2.168-1.073-1.702 0-2.553 1.509v5.237q.841 1.5 2.573 1.5 1.347 0 2.137-1.064.8-1.074.8-3.181zM172.43 272.608q-2.23 0-3.627-1.459-1.398-1.469-1.398-3.92v-.344q0-1.631.618-2.908.628-1.286 1.742-2.005 1.124-.73 2.431-.73 2.137 0 3.323 1.408 1.185 1.408 1.185 4.032v.78h-7.425q.04 1.62.942 2.623.912.993 2.31.993.992 0 1.68-.405.69-.405 1.206-1.074l1.145.892q-1.378 2.117-4.133 2.117zm-.234-9.826q-1.134 0-1.904.83-.77.821-.952 2.31h5.49v-.142q-.081-1.428-.77-2.208-.689-.79-1.864-.79zM180.897 272.405h-1.874v-15.559h1.874v15.56zM198.29 267.047q0 2.502-1.145 4.031-1.144 1.53-3.1 1.53-1.995 0-3.14-1.266v5.277h-1.874v-15.174h1.712l.092 1.216q1.144-1.419 3.18-1.419 1.975 0 3.12 1.49 1.155 1.488 1.155 4.142v.173zm-1.874-.213q0-1.854-.79-2.928-.79-1.073-2.168-1.073-1.702 0-2.553 1.509v5.237q.841 1.5 2.573 1.5 1.348 0 2.138-1.064.8-1.074.8-3.181zM200.164 266.824q0-1.61.628-2.897.638-1.287 1.762-1.986 1.135-.699 2.583-.699 2.24 0 3.617 1.55 1.387 1.55 1.387 4.123v.132q0 1.6-.617 2.876-.608 1.267-1.753 1.976-1.134.709-2.613.709-2.229 0-3.617-1.55-1.377-1.55-1.377-4.103v-.131zm1.884.223q0 1.823.84 2.927.852 1.104 2.27 1.104 1.428 0 2.269-1.114.84-1.124.84-3.14 0-1.803-.86-2.918-.851-1.124-2.27-1.124-1.387 0-2.238 1.104t-.851 3.16zM219.258 271.321q-1.094 1.287-3.211 1.287-1.752 0-2.674-1.013-.912-1.023-.922-3.019v-7.131h1.874v7.08q0 2.492 2.026 2.492 2.147 0 2.856-1.6v-7.972h1.874v10.96H219.3l-.041-1.084zM229.215 263.126q-.425-.07-.921-.07-1.844 0-2.502 1.57v7.78h-1.874v-10.961h1.823l.03 1.266q.922-1.469 2.614-1.469.547 0 .83.142v1.742zM238.11 272.405h-1.875v-15.559h1.874v15.56zM245.645 272.608q-2.228 0-3.626-1.459-1.398-1.469-1.398-3.92v-.344q0-1.631.618-2.908.628-1.286 1.742-2.005 1.125-.73 2.431-.73 2.138 0 3.323 1.408t1.185 4.032v.78h-7.425q.04 1.62.942 2.623.912.993 2.31.993.992 0 1.681-.405.69-.405 1.206-1.074l1.144.892q-1.377 2.117-4.133 2.117zm-.233-9.826q-1.134 0-1.904.83-.77.821-.952 2.31h5.49v-.142q-.08-1.428-.77-2.208-.688-.79-1.864-.79zM258.46 269.498q0-.76-.578-1.175-.567-.426-1.996-.73-1.418-.303-2.258-.729-.831-.425-1.236-1.013-.395-.587-.395-1.398 0-1.347 1.134-2.279 1.145-.932 2.918-.932 1.863 0 3.018.963 1.165.962 1.165 2.461h-1.884q0-.77-.659-1.327-.648-.557-1.64-.557-1.024 0-1.601.446-.577.445-.577 1.165 0 .678.537 1.023.536.344 1.934.658 1.408.314 2.28.75.87.435 1.286 1.053.425.608.425 1.49 0 1.468-1.175 2.36-1.175.88-3.049.88-1.317 0-2.33-.465-1.012-.466-1.59-1.297-.567-.84-.567-1.813h1.874q.05.942.75 1.5.709.546 1.863.546 1.064 0 1.702-.425.648-.436.648-1.155zM272.317 271.078q1.002 0 1.752-.608.75-.607.83-1.519h1.773q-.05.942-.648 1.793-.598.85-1.6 1.357-.993.507-2.107.507-2.24 0-3.566-1.49-1.317-1.498-1.317-4.092v-.314q0-1.6.588-2.846.587-1.246 1.681-1.935 1.104-.689 2.603-.689 1.844 0 3.06 1.105 1.225 1.104 1.306 2.866H274.9q-.081-1.063-.81-1.742-.72-.689-1.784-.689-1.428 0-2.218 1.033-.78 1.023-.78 2.968v.355q0 1.894.78 2.917t2.229 1.023zM280.815 272.405h-1.874v-15.559h1.874v15.56zM285.84 272.405h-1.874v-10.96h1.873v10.96zm-2.026-13.867q0-.456.273-.77.284-.314.83-.314.548 0 .831.314.284.314.284.77t-.284.76q-.283.303-.83.303-.547 0-.83-.303-.274-.304-.274-.76zM293.376 272.608q-2.229 0-3.627-1.459-1.397-1.469-1.397-3.92v-.344q0-1.631.618-2.908.628-1.286 1.742-2.005 1.124-.73 2.43-.73 2.138 0 3.323 1.408 1.186 1.408 1.186 4.032v.78h-7.425q.04 1.62.942 2.623.911.993 2.31.993.992 0 1.68-.405.69-.405 1.206-1.074l1.145.892q-1.378 2.117-4.133 2.117zm-.233-9.826q-1.135 0-1.904.83-.77.821-.953 2.31h5.49v-.142q-.08-1.428-.77-2.208-.688-.79-1.863-.79zM301.58 261.445l.062 1.378q1.256-1.58 3.282-1.58 3.474 0 3.504 3.92v7.242h-1.874v-7.253q-.01-1.185-.547-1.752-.526-.567-1.65-.567-.912 0-1.601.486t-1.074 1.276v7.81h-1.874v-10.96h1.773zM313.817 258.791v2.654h2.046v1.448h-2.046v6.797q0 .659.274.993.273.324.932.324.324 0 .891-.121v1.52q-.74.202-1.438.202-1.256 0-1.895-.76-.638-.76-.638-2.158v-6.797h-1.995v-1.448h1.995v-2.654h1.874zM324.423 269.498q0-.76-.577-1.175-.568-.426-1.996-.73-1.418-.303-2.259-.729-.83-.425-1.236-1.013-.395-.587-.395-1.398 0-1.347 1.135-2.279 1.144-.932 2.917-.932 1.864 0 3.019.963 1.165.962 1.165 2.461h-1.885q0-.77-.658-1.327-.648-.557-1.64-.557-1.024 0-1.601.446-.578.445-.578 1.165 0 .678.537 1.023.537.344 1.935.658 1.408.314 2.279.75.871.435 1.286 1.053.426.608.426 1.49 0 1.468-1.175 2.36-1.175.88-3.05.88-1.316 0-2.329-.465-1.013-.466-1.59-1.297-.568-.84-.568-1.813h1.874q.051.942.75 1.5.71.546 1.864.546 1.063 0 1.702-.425.648-.436.648-1.155zM56.689 307.93h-3.464v5.966H51.27v-14.749h4.882q2.492 0 3.83 1.135 1.346 1.134 1.346 3.302 0 1.377-.75 2.4-.739 1.024-2.066 1.53l3.465 6.26v.122H59.89l-3.201-5.967zm-3.464-1.59h2.988q1.448 0 2.3-.75.86-.75.86-2.006 0-1.368-.82-2.097-.81-.73-2.35-.74h-2.978v5.592zM68.297 314.098q-2.228 0-3.626-1.458-1.398-1.47-1.398-3.92v-.345q0-1.63.618-2.907.628-1.286 1.742-2.006 1.125-.729 2.431-.729 2.138 0 3.323 1.408t1.185 4.032v.78h-7.425q.04 1.62.942 2.623.912.993 2.31.993.992 0 1.681-.405.689-.406 1.206-1.074l1.144.891q-1.377 2.117-4.133 2.117zm-.233-9.825q-1.134 0-1.904.83-.77.82-.952 2.31h5.49v-.142q-.08-1.428-.77-2.208-.689-.79-1.864-.79zm.912-5.936h2.27l-2.716 2.978h-1.509l1.955-2.978zM79.126 312.569q1.003 0 1.752-.608.75-.608.83-1.52h1.774q-.051.943-.649 1.793-.597.851-1.6 1.358-.993.506-2.107.506-2.239 0-3.566-1.489-1.317-1.499-1.317-4.092v-.314q0-1.6.588-2.846.587-1.246 1.681-1.935 1.105-.689 2.604-.689 1.843 0 3.059 1.104 1.226 1.104 1.307 2.867h-1.773q-.081-1.064-.81-1.743-.72-.688-1.783-.688-1.428 0-2.219 1.033-.78 1.023-.78 2.968v.354q0 1.895.78 2.918.78 1.023 2.229 1.023zM92.355 313.896q-.162-.324-.263-1.155-1.307 1.357-3.12 1.357-1.62 0-2.664-.911-1.033-.922-1.033-2.33 0-1.712 1.296-2.654 1.307-.952 3.667-.952h1.823v-.861q0-.983-.587-1.56-.588-.588-1.732-.588-1.003 0-1.682.507-.679.506-.679 1.225h-1.884q0-.82.578-1.58.587-.77 1.58-1.215 1.003-.446 2.198-.446 1.894 0 2.968.952 1.074.942 1.114 2.603v5.045q0 1.51.385 2.4v.163h-1.965zm-3.11-1.429q.882 0 1.672-.455.79-.456 1.144-1.186v-2.248h-1.468q-3.444 0-3.444 2.016 0 .88.587 1.377.588.496 1.51.496zM106.152 308.537q0 2.502-1.145 4.032-1.145 1.53-3.1 1.53-1.995 0-3.14-1.267v5.278h-1.874v-15.174h1.712l.091 1.215q1.145-1.418 3.18-1.418 1.976 0 3.12 1.489 1.156 1.49 1.156 4.143v.172zm-1.874-.213q0-1.853-.79-2.927t-2.168-1.074q-1.702 0-2.553 1.51v5.237q.84 1.499 2.573 1.499 1.347 0 2.137-1.064.8-1.074.8-3.18zM110.558 313.896h-1.874v-10.96h1.874v10.96zm-2.026-13.868q0-.455.273-.77.284-.313.831-.313.547 0 .83.314.284.314.284.77 0 .455-.283.76-.284.303-.83.303-.548 0-.832-.304-.273-.304-.273-.76zM116.089 300.282v2.654h2.046v1.448h-2.046v6.797q0 .658.273.993.274.324.932.324.324 0 .891-.122v1.52q-.739.202-1.438.202-1.256 0-1.894-.76-.638-.76-.638-2.157v-6.797h-1.996v-1.448h1.996v-2.654h1.874zM127.08 312.812q-1.095 1.286-3.212 1.286-1.752 0-2.674-1.013-.912-1.023-.922-3.018v-7.131h1.874v7.08q0 2.492 2.026 2.492 2.147 0 2.857-1.6v-7.972h1.873v10.96h-1.782l-.04-1.084zM133.775 313.896H131.9v-15.56h1.874v15.56zM143.53 313.896q-.163-.324-.264-1.155-1.307 1.357-3.12 1.357-1.62 0-2.664-.911-1.033-.922-1.033-2.33 0-1.712 1.297-2.654 1.306-.952 3.666-.952h1.824v-.861q0-.983-.588-1.56-.587-.588-1.732-.588-1.003 0-1.681.507-.68.506-.68 1.225h-1.883q0-.82.577-1.58.588-.77 1.58-1.215 1.003-.446 2.199-.446 1.894 0 2.967.952 1.074.942 1.115 2.603v5.045q0 1.51.385 2.4v.163h-1.965zm-3.11-1.429q.881 0 1.671-.455.79-.456 1.145-1.186v-2.248h-1.469q-3.444 0-3.444 2.016 0 .88.587 1.377.588.496 1.51.496zM150.61 300.282v2.654h2.046v1.448h-2.046v6.797q0 .658.274.993.273.324.932.324.324 0 .89-.122v1.52q-.739.202-1.437.202-1.257 0-1.895-.76-.638-.76-.638-2.157v-6.797h-1.995v-1.448h1.995v-2.654h1.874zM156.87 313.896h-1.874v-10.96h1.874v10.96zm-2.026-13.868q0-.455.274-.77.283-.313.83-.313.547 0 .831.314.284.314.284.77 0 .455-.284.76-.284.303-.83.303-.548 0-.831-.304-.274-.304-.274-.76zM160.78 313.896v-9.512h-1.732v-1.448h1.732v-1.125q0-1.762.942-2.725.942-.962 2.664-.962.649 0 1.287.172l-.102 1.52q-.476-.092-1.013-.092-.911 0-1.408.537-.496.527-.496 1.52v1.155h2.34v1.448h-2.34v9.512h-1.874zM171.76 308.324q0-2.522 1.196-4.051 1.195-1.54 3.13-1.54 1.925 0 3.049 1.317v-5.713h1.874v15.559h-1.722l-.091-1.175q-1.125 1.377-3.13 1.377-1.905 0-3.11-1.56-1.195-1.56-1.195-4.072v-.142zm1.875.213q0 1.864.77 2.918.77 1.053 2.127 1.053 1.782 0 2.603-1.6v-5.035q-.84-1.55-2.583-1.55-1.378 0-2.148 1.064-.77 1.064-.77 3.15zM188.474 314.098q-2.228 0-3.626-1.458-1.398-1.47-1.398-3.92v-.345q0-1.63.618-2.907.628-1.286 1.742-2.006 1.125-.729 2.431-.729 2.138 0 3.323 1.408t1.185 4.032v.78h-7.425q.04 1.62.942 2.623.912.993 2.31.993.992 0 1.681-.405.689-.406 1.206-1.074l1.144.891q-1.377 2.117-4.133 2.117zm-.233-9.825q-1.134 0-1.904.83-.77.82-.952 2.31h5.49v-.142q-.081-1.428-.77-2.208-.689-.79-1.864-.79zM204.449 312.569q1.002 0 1.752-.608t.83-1.52h1.773q-.05.943-.648 1.793-.598.851-1.6 1.358-.993.506-2.107.506-2.239 0-3.566-1.489-1.317-1.499-1.317-4.092v-.314q0-1.6.588-2.846.587-1.246 1.681-1.935 1.104-.689 2.603-.689 1.844 0 3.06 1.104 1.225 1.104 1.306 2.867h-1.772q-.081-1.064-.81-1.743-.72-.688-1.784-.688-1.428 0-2.218 1.033-.78 1.023-.78 2.968v.354q0 1.895.78 2.918.78 1.023 2.229 1.023zM217.678 312.812q-1.094 1.286-3.211 1.286-1.753 0-2.674-1.013-.912-1.023-.922-3.018v-7.131h1.874v7.08q0 2.492 2.026 2.492 2.147 0 2.856-1.6v-7.972h1.874v10.96h-1.783l-.04-1.084zM226.886 314.098q-2.229 0-3.627-1.458-1.398-1.47-1.398-3.92v-.345q0-1.63.618-2.907.628-1.286 1.742-2.006 1.125-.729 2.432-.729 2.137 0 3.322 1.408t1.185 4.032v.78h-7.425q.04 1.62.942 2.623.912.993 2.31.993.993 0 1.681-.405.69-.406 1.206-1.074l1.144.891q-1.377 2.117-4.132 2.117zm-.233-9.825q-1.135 0-1.905.83-.77.82-.952 2.31h5.49v-.142q-.08-1.428-.77-2.208-.688-.79-1.863-.79zM235.354 313.896h-1.874v-10.96h1.874v10.96zm-2.026-13.868q0-.455.273-.77.284-.313.831-.313.547 0 .83.314.284.314.284.77 0 .455-.283.76-.284.303-.83.303-.548 0-.832-.304-.273-.304-.273-.76zM240.378 313.896h-1.874v-15.56h1.874v15.56zM245.402 313.896h-1.874v-15.56h1.874v15.56zM252.939 314.098q-2.229 0-3.627-1.458-1.398-1.47-1.398-3.92v-.345q0-1.63.618-2.907.628-1.286 1.743-2.006 1.124-.729 2.43-.729 2.138 0 3.323 1.408t1.185 4.032v.78h-7.425q.04 1.62.942 2.623.912.993 2.31.993.993 0 1.682-.405.688-.406 1.205-1.074l1.145.891q-1.378 2.117-4.133 2.117zm-.233-9.825q-1.135 0-1.905.83-.77.82-.952 2.31h5.49v-.142q-.08-1.428-.77-2.208-.688-.79-1.863-.79zM261.914 300.282v2.654h2.046v1.448h-2.046v6.797q0 .658.273.993.274.324.932.324.324 0 .891-.122v1.52q-.74.202-1.438.202-1.256 0-1.894-.76-.638-.76-.638-2.157v-6.797h-1.996v-1.448h1.996v-2.654h1.874zM268.68 300.282v2.654h2.046v1.448h-2.046v6.797q0 .658.274.993.273.324.931.324.325 0 .892-.122v1.52q-.74.202-1.439.202-1.256 0-1.894-.76-.638-.76-.638-2.157v-6.797h-1.995v-1.448h1.995v-2.654h1.874zM277.452 314.098q-2.228 0-3.626-1.458-1.398-1.47-1.398-3.92v-.345q0-1.63.618-2.907.628-1.286 1.742-2.006 1.125-.729 2.431-.729 2.138 0 3.323 1.408t1.185 4.032v.78h-7.425q.04 1.62.942 2.623.912.993 2.31.993.992 0 1.681-.405.689-.406 1.205-1.074l1.145.891q-1.378 2.117-4.133 2.117zm-.233-9.825q-1.134 0-1.904.83-.77.82-.952 2.31h5.49v-.142q-.081-1.428-.77-2.208-.689-.79-1.864-.79zM59.414 348.873h-6.19v6.513H51.28v-14.748h9.137v1.6h-7.192v5.045h6.189v1.59zM68.895 355.386q-.162-.324-.263-1.154-1.307 1.357-3.12 1.357-1.62 0-2.664-.912-1.033-.922-1.033-2.33 0-1.711 1.296-2.653 1.307-.953 3.667-.953h1.823v-.86q0-.983-.587-1.56-.588-.588-1.732-.588-1.003 0-1.682.506-.679.507-.679 1.226h-1.884q0-.82.578-1.58.587-.77 1.58-1.216 1.003-.445 2.198-.445 1.894 0 2.968.952 1.074.942 1.114 2.603v5.045q0 1.509.385 2.4v.162h-1.965zm-3.11-1.428q.882 0 1.672-.456.79-.456 1.144-1.185v-2.249h-1.468q-3.445 0-3.445 2.016 0 .881.588 1.378.588.496 1.51.496zM77.83 354.06q1.002 0 1.752-.608t.83-1.52h1.773q-.05.942-.648 1.793t-1.6 1.357q-.993.507-2.108.507-2.238 0-3.565-1.49-1.317-1.498-1.317-4.091v-.314q0-1.6.587-2.847.588-1.246 1.682-1.935 1.104-.688 2.603-.688 1.844 0 3.06 1.104 1.225 1.104 1.306 2.866h-1.773q-.08-1.063-.81-1.742-.72-.689-1.783-.689-1.428 0-2.218 1.033-.78 1.024-.78 2.968v.355q0 1.894.78 2.917t2.228 1.023zM86.834 341.772v2.654h2.047v1.449h-2.047v6.797q0 .658.274.992.273.324.932.324.324 0 .891-.121v1.52q-.74.202-1.438.202-1.256 0-1.894-.76-.638-.76-.638-2.157v-6.797h-1.996v-1.449h1.996v-2.654h1.874zM97.825 354.302q-1.094 1.287-3.211 1.287-1.752 0-2.674-1.013-.912-1.023-.922-3.019v-7.13h1.874v7.08q0 2.492 2.026 2.492 2.147 0 2.856-1.6v-7.973h1.874v10.96h-1.782l-.04-1.084zM107.782 346.108q-.425-.071-.921-.071-1.844 0-2.502 1.57v7.78h-1.874v-10.96h1.823l.03 1.265q.922-1.468 2.614-1.468.547 0 .83.141v1.743zM113.84 355.589q-2.229 0-3.627-1.459-1.397-1.468-1.397-3.92v-.344q0-1.631.618-2.907.628-1.287 1.742-2.006 1.124-.73 2.43-.73 2.138 0 3.323 1.409 1.186 1.408 1.186 4.031v.78h-7.425q.04 1.62.942 2.624.911.992 2.31.992.992 0 1.68-.405.69-.405 1.206-1.074l1.145.892q-1.378 2.117-4.133 2.117zm-.233-9.826q-1.135 0-1.904.83-.77.821-.953 2.31h5.49v-.141q-.08-1.429-.77-2.209-.688-.79-1.863-.79zM126.654 352.48q0-.76-.578-1.176-.567-.425-1.995-.73-1.418-.303-2.26-.729-.83-.425-1.235-1.012-.395-.588-.395-1.398 0-1.348 1.135-2.28 1.144-.931 2.917-.931 1.864 0 3.018.962 1.165.962 1.165 2.461h-1.884q0-.77-.658-1.327-.648-.557-1.641-.557-1.023 0-1.6.446-.578.446-.578 1.165 0 .679.537 1.023.537.344 1.935.658 1.408.314 2.279.75.87.436 1.286 1.053.426.608.426 1.49 0 1.468-1.175 2.36-1.175.88-3.05.88-1.316 0-2.33-.465-1.012-.466-1.59-1.297-.567-.84-.567-1.813h1.874q.05.942.75 1.5.709.546 1.864.546 1.063 0 1.701-.425.649-.436.649-1.155zM145.373 350.028q0 2.502-1.145 4.031-1.144 1.53-3.1 1.53-1.995 0-3.14-1.266v5.277h-1.873v-15.174h1.712l.09 1.216q1.145-1.418 3.181-1.418 1.976 0 3.12 1.489 1.155 1.489 1.155 4.143v.172zm-1.874-.213q0-1.854-.79-2.927-.79-1.074-2.168-1.074-1.701 0-2.552 1.51v5.236q.84 1.5 2.573 1.5 1.347 0 2.137-1.064.8-1.074.8-3.18zM153.041 346.108q-.425-.071-.922-.071-1.843 0-2.502 1.57v7.78h-1.874v-10.96h1.824l.03 1.265q.922-1.468 2.614-1.468.547 0 .83.141v1.743zM159.099 355.589q-2.229 0-3.627-1.459-1.398-1.468-1.398-3.92v-.344q0-1.631.618-2.907.628-1.287 1.743-2.006 1.124-.73 2.43-.73 2.138 0 3.323 1.409 1.185 1.408 1.185 4.031v.78h-7.425q.04 1.62.942 2.624.912.992 2.31.992.993 0 1.681-.405.69-.405 1.206-1.074l1.144.892q-1.377 2.117-4.132 2.117zm-.233-9.826q-1.135 0-1.905.83-.77.821-.952 2.31h5.49v-.141q-.08-1.429-.77-2.209-.688-.79-1.863-.79zm3.059-3.16v.101h-1.55l-1.52-1.722-1.509 1.722h-1.55v-.121l2.492-2.756h1.135l2.502 2.776zM168.073 341.772v2.654h2.047v1.449h-2.047v6.797q0 .658.274.992.273.324.932.324.324 0 .891-.121v1.52q-.74.202-1.438.202-1.256 0-1.894-.76-.639-.76-.639-2.157v-6.797h-1.995v-1.449h1.995v-2.654h1.874zM176.846 355.589q-2.229 0-3.627-1.459-1.398-1.468-1.398-3.92v-.344q0-1.631.618-2.907.628-1.287 1.743-2.006 1.124-.73 2.43-.73 2.138 0 3.323 1.409 1.185 1.408 1.185 4.031v.78h-7.425q.04 1.62.942 2.624.912.992 2.31.992.993 0 1.681-.405.69-.405 1.206-1.074l1.144.892q-1.377 2.117-4.132 2.117zm-.233-9.826q-1.135 0-1.905.83-.77.821-.952 2.31h5.49v-.141q-.08-1.429-.77-2.209-.688-.79-1.863-.79zM189.66 352.48q0-.76-.578-1.176-.567-.425-1.995-.73-1.419-.303-2.26-.729-.83-.425-1.235-1.012-.395-.588-.395-1.398 0-1.348 1.134-2.28 1.145-.931 2.918-.931 1.863 0 3.018.962 1.165.962 1.165 2.461h-1.884q0-.77-.658-1.327-.649-.557-1.641-.557-1.023 0-1.6.446-.578.446-.578 1.165 0 .679.537 1.023.537.344 1.934.658 1.408.314 2.28.75.87.436 1.286 1.053.425.608.425 1.49 0 1.468-1.175 2.36-1.175.88-3.049.88-1.316 0-2.33-.465-1.012-.466-1.59-1.297-.567-.84-.567-1.813h1.874q.05.942.75 1.5.709.546 1.863.546 1.064 0 1.702-.425.648-.436.648-1.155zM205.887 355.386q-.162-.324-.263-1.154-1.307 1.357-3.12 1.357-1.621 0-2.664-.912-1.034-.922-1.034-2.33 0-1.711 1.297-2.653 1.307-.953 3.667-.953h1.823v-.86q0-.983-.587-1.56-.588-.588-1.732-.588-1.003 0-1.682.506-.679.507-.679 1.226h-1.884q0-.82.578-1.58.587-.77 1.58-1.216 1.003-.445 2.198-.445 1.894 0 2.968.952 1.074.942 1.114 2.603v5.045q0 1.509.385 2.4v.162h-1.965zm-3.11-1.428q.882 0 1.672-.456.79-.456 1.144-1.185v-2.249h-1.469q-3.444 0-3.444 2.016 0 .881.588 1.378.587.496 1.51.496zm1.884-11.153h-1.61l-2.614-2.978h2.26l1.964 2.978zM217.607 355.386h-1.874v-10.96h1.874v10.96zm-2.026-13.867q0-.456.273-.77.284-.314.831-.314.547 0 .83.314.284.314.284.77t-.283.76q-.284.304-.83.304-.548 0-.832-.304-.273-.304-.273-.76zM222.358 344.426l.05 1.216q1.206-1.418 3.252-1.418 2.3 0 3.13 1.762.547-.79 1.418-1.276.881-.486 2.077-.486 3.606 0 3.667 3.818v7.344h-1.874v-7.232q0-1.175-.537-1.753-.537-.587-1.803-.587-1.044 0-1.732.628-.69.618-.8 1.671v7.273h-1.885v-7.181q0-2.391-2.34-2.391-1.843 0-2.522 1.57v8.002h-1.874v-10.96h1.773zM248.046 350.028q0 2.502-1.144 4.031-1.145 1.53-3.1 1.53-1.996 0-3.14-1.266v5.277h-1.874v-15.174h1.712l.09 1.216q1.145-1.418 3.182-1.418 1.975 0 3.12 1.489 1.154 1.489 1.154 4.143v.172zm-1.874-.213q0-1.854-.79-2.927-.79-1.074-2.168-1.074-1.701 0-2.552 1.51v5.236q.84 1.5 2.573 1.5 1.347 0 2.137-1.064.8-1.074.8-3.18zM255.714 346.108q-.425-.071-.922-.071-1.843 0-2.502 1.57v7.78h-1.874v-10.96h1.824l.03 1.265q.922-1.468 2.614-1.468.547 0 .83.141v1.743zM259.462 355.386h-1.874v-10.96h1.874v10.96zm-2.026-13.867q0-.456.274-.77.283-.314.83-.314.547 0 .831.314.284.314.284.77t-.284.76q-.284.304-.83.304-.548 0-.831-.304-.274-.304-.274-.76zM264.213 344.426l.05 1.216q1.206-1.418 3.252-1.418 2.3 0 3.13 1.762.547-.79 1.418-1.276.882-.486 2.077-.486 3.606 0 3.667 3.818v7.344h-1.874v-7.232q0-1.175-.537-1.753-.537-.587-1.803-.587-1.043 0-1.732.628-.689.618-.8 1.671v7.273h-1.885v-7.181q0-2.391-2.34-2.391-1.843 0-2.522 1.57v8.002h-1.874v-10.96h1.773zM285.191 355.589q-2.228 0-3.626-1.459-1.398-1.468-1.398-3.92v-.344q0-1.631.618-2.907.628-1.287 1.742-2.006 1.125-.73 2.431-.73 2.138 0 3.323 1.409 1.185 1.408 1.185 4.031v.78h-7.425q.04 1.62.942 2.624.912.992 2.31.992.992 0 1.681-.405.689-.405 1.205-1.074l1.145.892q-1.378 2.117-4.133 2.117zm-.233-9.826q-1.134 0-1.904.83-.77.821-.952 2.31h5.49v-.141q-.081-1.429-.77-2.209-.689-.79-1.864-.79zM296.921 346.108q-.425-.071-.922-.071-1.843 0-2.502 1.57v7.78h-1.874v-10.96h1.824l.03 1.265q.922-1.468 2.614-1.468.547 0 .83.141v1.743zM61.47 383.729h-4.74v13.148h-1.935v-13.148h-4.73v-1.6H61.47v1.6zM65.42 396.877h-1.873v-10.96h1.874v10.96zm-2.025-13.867q0-.456.273-.77.284-.314.83-.314.548 0 .831.314.284.314.284.77 0 .455-.284.76-.283.303-.83.303-.547 0-.83-.304-.274-.304-.274-.76zM72.805 395.55q1.003 0 1.752-.608.75-.608.831-1.52h1.773q-.05.943-.648 1.794-.598.85-1.601 1.357-.993.507-2.107.507-2.239 0-3.566-1.49-1.316-1.499-1.316-4.092v-.314q0-1.6.587-2.846.588-1.246 1.682-1.935 1.104-.689 2.603-.689 1.844 0 3.06 1.104 1.225 1.104 1.306 2.867h-1.773q-.08-1.064-.81-1.742-.72-.69-1.783-.69-1.428 0-2.218 1.034-.78 1.023-.78 2.968v.355q0 1.894.78 2.917t2.228 1.023zM82.327 391.802l-1.175 1.226v3.849h-1.874v-15.559h1.874v9.41l1.003-1.205 3.413-3.606h2.28l-4.265 4.578 4.76 6.382h-2.197l-3.82-5.075zM94.148 397.08q-2.228 0-3.626-1.46-1.398-1.468-1.398-3.92v-.344q0-1.63.618-2.907.628-1.286 1.742-2.005 1.124-.73 2.431-.73 2.137 0 3.323 1.408 1.185 1.408 1.185 4.032v.78h-7.425q.04 1.62.942 2.623.911.993 2.31.993.992 0 1.68-.405.69-.405 1.206-1.074l1.145.891q-1.378 2.118-4.133 2.118zm-.233-9.826q-1.134 0-1.904.83-.77.821-.952 2.31h5.49v-.142q-.081-1.428-.77-2.208-.689-.79-1.864-.79zM103.123 383.263v2.654h2.046v1.448h-2.046v6.797q0 .659.273.993.274.324.932.324.324 0 .892-.121v1.519q-.74.203-1.439.203-1.256 0-1.894-.76-.638-.76-.638-2.158v-6.797h-1.996v-1.448h1.996v-2.654h1.874zM113.728 393.97q0-.76-.577-1.175-.567-.426-1.995-.73-1.419-.303-2.26-.729-.83-.425-1.235-1.013-.395-.587-.395-1.398 0-1.347 1.134-2.279 1.145-.932 2.918-.932 1.863 0 3.018.962 1.165.963 1.165 2.462h-1.884q0-.77-.658-1.327-.649-.557-1.641-.557-1.023 0-1.6.446-.578.445-.578 1.164 0 .68.537 1.024.536.344 1.934.658 1.408.314 2.28.75.87.435 1.286 1.053.425.608.425 1.49 0 1.468-1.175 2.36-1.175.88-3.049.88-1.316 0-2.33-.465-1.012-.466-1.59-1.297-.567-.84-.567-1.813h1.874q.05.942.75 1.499.709.547 1.863.547 1.064 0 1.702-.425.648-.436.648-1.155zM122.734 391.306q0-2.523 1.195-4.052 1.195-1.54 3.13-1.54 1.925 0 3.049 1.317v-5.713h1.874v15.559h-1.722l-.091-1.175q-1.125 1.378-3.13 1.378-1.905 0-3.11-1.56-1.195-1.56-1.195-4.072v-.142zm1.874.212q0 1.864.77 2.918.77 1.053 2.127 1.053 1.782 0 2.603-1.6v-5.035q-.84-1.55-2.583-1.55-1.378 0-2.148 1.064-.77 1.064-.77 3.15zM139.447 397.08q-2.228 0-3.626-1.46-1.398-1.468-1.398-3.92v-.344q0-1.63.618-2.907.628-1.286 1.742-2.005 1.125-.73 2.431-.73 2.138 0 3.323 1.408t1.185 4.032v.78h-7.425q.04 1.62.942 2.623.912.993 2.31.993.992 0 1.681-.405.689-.405 1.206-1.074l1.144.891q-1.377 2.118-4.133 2.118zm-.233-9.826q-1.134 0-1.904.83-.77.821-.952 2.31h5.49v-.142q-.081-1.428-.77-2.208-.689-.79-1.864-.79zM155.422 395.55q1.002 0 1.752-.608t.83-1.52h1.773q-.05.943-.648 1.794-.598.85-1.6 1.357-.993.507-2.107.507-2.239 0-3.566-1.49-1.317-1.499-1.317-4.092v-.314q0-1.6.588-2.846.587-1.246 1.681-1.935 1.104-.689 2.603-.689 1.844 0 3.06 1.104 1.225 1.104 1.306 2.867h-1.772q-.081-1.064-.81-1.742-.72-.69-1.784-.69-1.428 0-2.218 1.034-.78 1.023-.78 2.968v.355q0 1.894.78 2.917t2.229 1.023zM168.65 396.877q-.161-.324-.263-1.155-1.306 1.358-3.12 1.358-1.62 0-2.664-.912-1.033-.922-1.033-2.33 0-1.712 1.297-2.654 1.307-.952 3.667-.952h1.823v-.861q0-.983-.587-1.56-.588-.588-1.733-.588-1.002 0-1.681.507-.679.506-.679 1.226h-1.884q0-.82.578-1.58.587-.77 1.58-1.216 1.003-.446 2.198-.446 1.894 0 2.968.952 1.074.942 1.114 2.604v5.044q0 1.51.385 2.4v.163h-1.965zm-3.109-1.428q.881 0 1.671-.456t1.145-1.185v-2.25h-1.469q-3.444 0-3.444 2.017 0 .881.588 1.377.587.497 1.51.497zM175.225 396.877h-1.874v-10.96h1.874v10.96zm-2.026-13.867q0-.456.273-.77.284-.314.831-.314.547 0 .83.314.284.314.284.77 0 .455-.283.76-.284.303-.83.303-.548 0-.832-.304-.273-.304-.273-.76zM184.595 393.97q0-.76-.578-1.175-.567-.426-1.995-.73-1.418-.303-2.26-.729-.83-.425-1.235-1.013-.395-.587-.395-1.398 0-1.347 1.135-2.279 1.144-.932 2.917-.932 1.864 0 3.018.962 1.165.963 1.165 2.462h-1.884q0-.77-.658-1.327-.648-.557-1.641-.557-1.023 0-1.6.446-.578.445-.578 1.164 0 .68.537 1.024t1.935.658q1.408.314 2.279.75.87.435 1.286 1.053.426.608.426 1.49 0 1.468-1.175 2.36-1.175.88-3.05.88-1.316 0-2.33-.465-1.012-.466-1.59-1.297-.567-.84-.567-1.813h1.874q.05.942.75 1.499.709.547 1.864.547 1.063 0 1.701-.425.649-.436.649-1.155zM195.292 393.97q0-.76-.578-1.175-.567-.426-1.995-.73-1.419-.303-2.26-.729-.83-.425-1.235-1.013-.395-.587-.395-1.398 0-1.347 1.134-2.279 1.145-.932 2.918-.932 1.864 0 3.018.962 1.165.963 1.165 2.462h-1.884q0-.77-.658-1.327-.649-.557-1.641-.557-1.023 0-1.6.446-.578.445-.578 1.164 0 .68.537 1.024t1.934.658q1.408.314 2.28.75.87.435 1.286 1.053.425.608.425 1.49 0 1.468-1.175 2.36-1.175.88-3.049.88-1.316 0-2.33-.465-1.012-.466-1.59-1.297-.567-.84-.567-1.813h1.874q.05.942.75 1.499.709.547 1.863.547 1.064 0 1.702-.425.649-.436.649-1.155zM204.155 397.08q-2.229 0-3.627-1.46-1.397-1.468-1.397-3.92v-.344q0-1.63.618-2.907.628-1.286 1.742-2.005 1.124-.73 2.43-.73 2.138 0 3.323 1.408 1.186 1.408 1.186 4.032v.78h-7.425q.04 1.62.942 2.623.911.993 2.31.993.992 0 1.68-.405.69-.405 1.206-1.074l1.145.891q-1.378 2.118-4.133 2.118zm-.233-9.826q-1.135 0-1.904.83-.77.821-.953 2.31h5.49v-.142q-.08-1.428-.77-2.208-.688-.79-1.863-.79zM222.5 396.877q-.163-.324-.264-1.155-1.307 1.358-3.12 1.358-1.62 0-2.664-.912-1.033-.922-1.033-2.33 0-1.712 1.296-2.654 1.307-.952 3.667-.952h1.824v-.861q0-.983-.588-1.56-.587-.588-1.732-.588-1.003 0-1.681.507-.68.506-.68 1.226h-1.883q0-.82.577-1.58.588-.77 1.58-1.216 1.003-.446 2.198-.446 1.895 0 2.968.952 1.074.942 1.115 2.604v5.044q0 1.51.385 2.4v.163h-1.966zm-3.11-1.428q.881 0 1.671-.456t1.145-1.185v-2.25h-1.47q-3.443 0-3.443 2.017 0 .881.587 1.377.588.497 1.51.497zm1.884-11.153h-1.61l-2.614-2.978h2.259l1.965 2.978zM234.22 396.877h-1.875v-10.96h1.874v10.96zm-2.027-13.867q0-.456.274-.77.284-.314.83-.314.548 0 .831.314.284.314.284.77 0 .455-.284.76-.283.303-.83.303-.547 0-.831-.304-.274-.304-.274-.76zM238.97 385.917l.05 1.215q1.206-1.418 3.252-1.418 2.3 0 3.13 1.763.547-.79 1.419-1.277.88-.486 2.076-.486 3.606 0 3.667 3.819v7.344h-1.874v-7.233q0-1.175-.537-1.752-.537-.587-1.803-.587-1.043 0-1.732.628-.689.617-.8 1.67v7.274h-1.884v-7.182q0-2.39-2.34-2.39-1.844 0-2.523 1.57v8.002h-1.874v-10.96h1.773zM264.659 391.518q0 2.502-1.145 4.032-1.145 1.53-3.1 1.53-1.995 0-3.14-1.267v5.278H255.4v-15.174h1.712l.091 1.215q1.145-1.418 3.181-1.418 1.975 0 3.12 1.49 1.155 1.488 1.155 4.142v.172zm-1.874-.212q0-1.854-.79-2.928-.79-1.073-2.168-1.073-1.702 0-2.553 1.509v5.237q.84 1.499 2.573 1.499 1.347 0 2.137-1.064.8-1.073.8-3.18zM272.327 387.598q-.426-.07-.922-.07-1.844 0-2.502 1.57v7.779h-1.874v-10.96h1.823l.03 1.266q.922-1.469 2.614-1.469.547 0 .83.142v1.742zM276.075 396.877H274.2v-10.96h1.874v10.96zm-2.026-13.867q0-.456.273-.77.284-.314.83-.314.548 0 .831.314.284.314.284.77 0 .455-.284.76-.283.303-.83.303-.547 0-.83-.304-.274-.304-.274-.76zM280.825 385.917l.051 1.215q1.205-1.418 3.252-1.418 2.299 0 3.13 1.763.547-.79 1.418-1.277.881-.486 2.076-.486 3.606 0 3.667 3.819v7.344h-1.874v-7.233q0-1.175-.537-1.752-.537-.587-1.803-.587-1.043 0-1.732.628-.689.617-.8 1.67v7.274h-1.884v-7.182q0-2.39-2.34-2.39-1.844 0-2.522 1.57v8.002h-1.874v-10.96h1.772zM301.804 397.08q-2.229 0-3.627-1.46-1.398-1.468-1.398-3.92v-.344q0-1.63.618-2.907.628-1.286 1.743-2.005 1.124-.73 2.43-.73 2.138 0 3.323 1.408t1.185 4.032v.78h-7.425q.04 1.62.942 2.623.912.993 2.31.993.993 0 1.681-.405.69-.405 1.206-1.074l1.144.891q-1.377 2.118-4.132 2.118zm-.233-9.826q-1.135 0-1.905.83-.77.821-.952 2.31h5.49v-.142q-.08-1.428-.77-2.208-.688-.79-1.863-.79zM313.534 387.598q-.426-.07-.922-.07-1.844 0-2.502 1.57v7.779h-1.874v-10.96h1.823l.03 1.266q.922-1.469 2.614-1.469.547 0 .83.142v1.742zM53.366 438.368h-1.944v-14.75h1.944v14.75zM58.38 427.407l.051 1.216q1.206-1.418 3.252-1.418 2.3 0 3.13 1.762.547-.79 1.418-1.276.881-.486 2.077-.486 3.606 0 3.666 3.819v7.344H70.1v-7.233q0-1.175-.536-1.752-.537-.588-1.803-.588-1.044 0-1.733.628-.688.618-.8 1.672v7.273h-1.884v-7.182q0-2.39-2.34-2.39-1.843 0-2.522 1.57v8.002h-1.874v-10.96h1.773zM81.577 438.368q-.162-.325-.263-1.155-1.307 1.357-3.12 1.357-1.62 0-2.664-.912-1.033-.921-1.033-2.33 0-1.711 1.296-2.653 1.307-.952 3.667-.952h1.824v-.861q0-.983-.588-1.56-.588-.588-1.732-.588-1.003 0-1.682.507-.678.506-.678 1.225H74.72q0-.82.577-1.58.587-.77 1.58-1.216 1.003-.445 2.198-.445 1.894 0 2.968.952 1.074.942 1.114 2.603v5.045q0 1.51.385 2.4v.163h-1.965zm-3.11-1.429q.882 0 1.672-.456.79-.455 1.145-1.185v-2.248h-1.47q-3.443 0-3.443 2.015 0 .882.587 1.378.588.496 1.51.496zM85.67 432.796q0-2.562 1.185-4.072 1.185-1.52 3.14-1.52 2.006 0 3.13 1.419l.091-1.216h1.712v10.697q0 2.127-1.266 3.353-1.256 1.226-3.383 1.226-1.186 0-2.32-.507-1.135-.506-1.732-1.388l.972-1.124q1.206 1.49 2.948 1.49 1.367 0 2.127-.77.77-.77.77-2.168v-.942q-1.124 1.296-3.07 1.296-1.924 0-3.12-1.55-1.184-1.55-1.184-4.224zm1.884.213q0 1.854.76 2.917.76 1.054 2.127 1.054 1.772 0 2.603-1.61v-5.005q-.861-1.57-2.583-1.57-1.368 0-2.137 1.064-.77 1.063-.77 3.15zM102.292 438.57q-2.228 0-3.626-1.459-1.398-1.468-1.398-3.92v-.344q0-1.63.618-2.907.628-1.287 1.742-2.006 1.124-.73 2.431-.73 2.138 0 3.323 1.409 1.185 1.408 1.185 4.031v.78h-7.425q.04 1.621.942 2.624.912.993 2.31.993.992 0 1.681-.406.689-.405 1.205-1.073l1.145.891q-1.378 2.117-4.133 2.117zm-.233-9.826q-1.134 0-1.904.831-.77.82-.952 2.31h5.49v-.142q-.081-1.428-.77-2.208-.689-.79-1.864-.79zM115.106 435.46q0-.76-.577-1.175-.568-.425-1.996-.729-1.418-.304-2.259-.73-.83-.425-1.236-1.012-.395-.588-.395-1.398 0-1.347 1.135-2.28 1.145-.931 2.917-.931 1.864 0 3.019.962 1.165.962 1.165 2.462h-1.884q0-.77-.659-1.327-.648-.558-1.64-.558-1.024 0-1.601.446-.578.446-.578 1.165 0 .679.537 1.023.537.345 1.935.659 1.408.314 2.28.75.87.435 1.286 1.053.425.607.425 1.489 0 1.468-1.175 2.36-1.175.881-3.049.881-1.317 0-2.33-.466-1.013-.466-1.59-1.296-.567-.841-.567-1.814h1.874q.05.942.75 1.5.708.547 1.863.547 1.064 0 1.702-.426.648-.435.648-1.155zM133.825 433.009q0 2.502-1.144 4.032-1.145 1.53-3.1 1.53-1.995 0-3.14-1.267v5.277h-1.874v-15.174h1.712l.091 1.216q1.145-1.418 3.18-1.418 1.976 0 3.12 1.489 1.155 1.489 1.155 4.143v.172zm-1.874-.213q0-1.853-.79-2.927t-2.167-1.074q-1.702 0-2.553 1.51v5.236q.84 1.5 2.573 1.5 1.347 0 2.137-1.064.8-1.074.8-3.18zM141.494 429.089q-.426-.071-.922-.071-1.844 0-2.502 1.57v7.78h-1.874v-10.96h1.823l.03 1.266q.922-1.47 2.614-1.47.547 0 .83.143v1.742zM142.506 432.786q0-1.61.628-2.897.639-1.286 1.763-1.985 1.135-.7 2.583-.7 2.239 0 3.616 1.55 1.388 1.55 1.388 4.123v.132q0 1.6-.618 2.877-.608 1.266-1.752 1.975-1.135.71-2.614.71-2.228 0-3.616-1.55-1.378-1.55-1.378-4.103v-.132zm1.885.223q0 1.823.84 2.927.851 1.105 2.27 1.105 1.428 0 2.268-1.115.841-1.124.841-3.14 0-1.803-.86-2.917-.852-1.125-2.27-1.125-1.388 0-2.239 1.105-.85 1.104-.85 3.16zM154.378 432.796q0-2.522 1.196-4.052 1.195-1.54 3.13-1.54 1.924 0 3.049 1.318v-5.713h1.874v15.559h-1.722l-.092-1.175q-1.124 1.377-3.13 1.377-1.904 0-3.11-1.56-1.195-1.56-1.195-4.072v-.142zm1.874.213q0 1.864.77 2.917.77 1.054 2.127 1.054 1.783 0 2.604-1.6v-5.035q-.841-1.55-2.583-1.55-1.378 0-2.148 1.064-.77 1.063-.77 3.15zM173.31 437.284q-1.094 1.286-3.21 1.286-1.753 0-2.675-1.013-.912-1.023-.922-3.018v-7.132h1.874v7.08q0 2.493 2.026 2.493 2.148 0 2.857-1.6v-7.973h1.874v10.96h-1.783l-.04-1.083zM180.006 438.368h-1.874v-10.96h1.874v10.96zM177.98 424.5q0-.456.274-.77.283-.314.83-.314.547 0 .83.314.284.314.284.77t-.283.76q-.284.304-.83.304-.548 0-.831-.304-.274-.304-.274-.76zM185.537 424.753v2.654h2.046v1.449h-2.046v6.797q0 .658.273.993.274.324.932.324.324 0 .892-.122v1.52q-.74.202-1.439.202-1.256 0-1.894-.76-.638-.76-.638-2.157v-6.797h-1.996v-1.449h1.996v-2.654h1.874zM196.142 435.46q0-.76-.577-1.175-.567-.425-1.996-.729-1.418-.304-2.258-.73-.831-.425-1.236-1.012-.395-.588-.395-1.398 0-1.347 1.134-2.28 1.145-.931 2.918-.931 1.863 0 3.018.962 1.165.962 1.165 2.462h-1.884q0-.77-.658-1.327-.649-.558-1.641-.558-1.024 0-1.6.446-.578.446-.578 1.165 0 .679.537 1.023.536.345 1.934.659 1.408.314 2.28.75.87.435 1.286 1.053.425.607.425 1.489 0 1.468-1.175 2.36-1.175.881-3.049.881-1.317 0-2.33-.466-1.012-.466-1.59-1.296-.567-.841-.567-1.814h1.874q.05.942.75 1.5.709.547 1.863.547 1.064 0 1.702-.426.648-.435.648-1.155zM212.37 438.368q-.162-.325-.263-1.155-1.307 1.357-3.12 1.357-1.621 0-2.664-.912-1.034-.921-1.034-2.33 0-1.711 1.297-2.653 1.307-.952 3.667-.952h1.823v-.861q0-.983-.587-1.56-.588-.588-1.733-.588-1.002 0-1.681.507-.679.506-.679 1.225h-1.884q0-.82.578-1.58.587-.77 1.58-1.216 1.003-.445 2.198-.445 1.894 0 2.968.952 1.074.942 1.114 2.603v5.045q0 1.51.385 2.4v.163h-1.965zm-3.11-1.429q.881 0 1.672-.456.79-.455 1.144-1.185v-2.248h-1.469q-3.444 0-3.444 2.015 0 .882.588 1.378.587.496 1.51.496zM223.674 437.284q-1.094 1.286-3.21 1.286-1.753 0-2.675-1.013-.911-1.023-.922-3.018v-7.132h1.874v7.08q0 2.493 2.026 2.493 2.148 0 2.857-1.6v-7.973h1.874v10.96h-1.783l-.04-1.083zM230.877 424.753v2.654h2.046v1.449h-2.046v6.797q0 .658.273.993.274.324.932.324.324 0 .891-.122v1.52q-.74.202-1.438.202-1.256 0-1.894-.76-.638-.76-.638-2.157v-6.797h-1.996v-1.449h1.996v-2.654h1.874zM234.402 432.786q0-1.61.628-2.897.638-1.286 1.762-1.985 1.135-.7 2.583-.7 2.239 0 3.617 1.55 1.387 1.55 1.387 4.123v.132q0 1.6-.618 2.877-.607 1.266-1.752 1.975-1.135.71-2.613.71-2.229 0-3.617-1.55-1.377-1.55-1.377-4.103v-.132zm1.884.223q0 1.823.84 2.927.851 1.105 2.27 1.105 1.428 0 2.269-1.115.84-1.124.84-3.14 0-1.803-.86-2.917-.852-1.125-2.27-1.125-1.387 0-2.238 1.105-.851 1.104-.851 3.16zM248.492 427.407l.05 1.216q1.206-1.418 3.252-1.418 2.3 0 3.13 1.762.547-.79 1.418-1.276.881-.486 2.077-.486 3.606 0 3.667 3.819v7.344h-1.874v-7.233q0-1.175-.537-1.752-.537-.588-1.803-.588-1.044 0-1.732.628-.69.618-.8 1.672v7.273h-1.885v-7.182q0-2.39-2.34-2.39-1.843 0-2.522 1.57v8.002h-1.874v-10.96h1.773zM271.689 438.368q-.163-.325-.264-1.155-1.307 1.357-3.12 1.357-1.62 0-2.664-.912-1.033-.921-1.033-2.33 0-1.711 1.297-2.653 1.306-.952 3.666-.952h1.824v-.861q0-.983-.588-1.56-.587-.588-1.732-.588-1.003 0-1.681.507-.68.506-.68 1.225h-1.883q0-.82.577-1.58.588-.77 1.58-1.216 1.003-.445 2.199-.445 1.894 0 2.967.952 1.074.942 1.115 2.603v5.045q0 1.51.385 2.4v.163h-1.965zm-3.11-1.429q.881 0 1.671-.456.79-.455 1.145-1.185v-2.248h-1.469q-3.444 0-3.444 2.015 0 .882.587 1.378.588.496 1.51.496zM278.77 424.753v2.654h2.045v1.449h-2.046v6.797q0 .658.274.993.273.324.931.324.325 0 .892-.122v1.52q-.74.202-1.439.202-1.256 0-1.894-.76-.638-.76-.638-2.157v-6.797H274.9v-1.449h1.995v-2.654h1.874zM285.03 438.368h-1.875v-10.96h1.874v10.96zm-2.027-13.868q0-.456.274-.77.283-.314.83-.314.547 0 .831.314.284.314.284.77t-.284.76q-.284.304-.83.304-.548 0-.831-.304-.274-.304-.274-.76zM287.562 432.796q0-2.583 1.185-4.082 1.185-1.51 3.18-1.51 1.945 0 3.07 1.307l.08-1.104h1.723v15.174h-1.874v-5.226q-1.135 1.215-3.019 1.215-1.985 0-3.17-1.54-1.176-1.55-1.176-4.102v-.132zm1.873.213q0 1.884.79 2.958.8 1.074 2.148 1.074 1.671 0 2.553-1.48v-5.368q-.892-1.449-2.533-1.449-1.357 0-2.157 1.084-.8 1.074-.8 3.181zM306.575 437.284q-1.094 1.286-3.211 1.286-1.753 0-2.675-1.013-.911-1.023-.921-3.018v-7.132h1.874v7.08q0 2.493 2.025 2.493 2.148 0 2.857-1.6v-7.973h1.874v10.96h-1.783l-.04-1.083zM315.782 438.57q-2.228 0-3.626-1.459-1.398-1.468-1.398-3.92v-.344q0-1.63.618-2.907.628-1.287 1.742-2.006 1.125-.73 2.431-.73 2.138 0 3.323 1.409 1.185 1.408 1.185 4.031v.78h-7.425q.04 1.621.942 2.624.912.993 2.31.993.992 0 1.681-.406.689-.405 1.206-1.073l1.144.891q-1.377 2.117-4.133 2.117zm-.233-9.826q-1.134 0-1.904.831-.77.82-.952 2.31h5.49v-.142q-.08-1.428-.77-2.208-.689-.79-1.864-.79zM328.596 435.46q0-.76-.577-1.175-.567-.425-1.996-.729-1.418-.304-2.259-.73-.83-.425-1.235-1.012-.395-.588-.395-1.398 0-1.347 1.134-2.28 1.145-.931 2.917-.931 1.864 0 3.019.962 1.165.962 1.165 2.462h-1.884q0-.77-.659-1.327-.648-.558-1.64-.558-1.024 0-1.601.446t-.577 1.165q0 .679.536 1.023.537.345 1.935.659 1.408.314 2.28.75.87.435 1.286 1.053.425.607.425 1.489 0 1.468-1.175 2.36-1.175.881-3.049.881-1.317 0-2.33-.466-1.013-.466-1.59-1.296-.567-.841-.567-1.814h1.874q.05.942.75 1.5.708.547 1.863.547 1.064 0 1.702-.426.648-.435.648-1.155zM62.615 479.858H60.66l-7.425-11.365v11.365H51.28V465.11h1.955l7.445 11.416V465.11h1.935v14.748zM65.279 474.277q0-1.61.628-2.897.638-1.287 1.762-1.986 1.135-.699 2.583-.699 2.24 0 3.617 1.55 1.387 1.55 1.387 4.123v.132q0 1.6-.617 2.876-.608 1.267-1.753 1.976-1.134.709-2.613.709-2.229 0-3.617-1.55-1.377-1.55-1.377-4.103v-.131zm1.884.223q0 1.823.84 2.927.852 1.104 2.27 1.104 1.428 0 2.269-1.114.84-1.124.84-3.14 0-1.803-.86-2.918-.851-1.124-2.27-1.124-1.387 0-2.238 1.104t-.851 3.16zM80.149 466.244v2.654h2.046v1.448H80.15v6.797q0 .659.274.993.273.324.931.324.325 0 .892-.121v1.52q-.74.202-1.439.202-1.256 0-1.894-.76-.638-.76-.638-2.158v-6.797H76.28v-1.448h1.995v-2.654h1.874zM86.41 479.858h-1.875v-10.96h1.874v10.96zm-2.027-13.867q0-.456.274-.77.283-.314.83-.314.547 0 .83.314.285.314.285.77t-.284.76q-.284.303-.83.303-.548 0-.831-.303-.274-.304-.274-.76zM90.025 479.858v-9.512h-1.732v-1.448h1.732v-.932q0-1.833 1.044-2.856 1.053-1.024 2.968-1.024 1.134 0 2.866.618l-.314 1.58q-1.266-.506-2.41-.506-1.206 0-1.743.547-.527.537-.527 1.62v.953h2.239v1.448h-2.239v9.512h-1.884zm7.81 0h-1.884v-10.96h1.884v10.96zM105.3 478.531q1.003 0 1.753-.608.75-.607.83-1.519h1.773q-.05.942-.648 1.793-.598.85-1.6 1.357-.993.507-2.107.507-2.239 0-3.566-1.49-1.317-1.498-1.317-4.092v-.314q0-1.6.588-2.846.587-1.246 1.681-1.935 1.104-.689 2.604-.689 1.843 0 3.059 1.105 1.225 1.104 1.306 2.866h-1.772q-.081-1.063-.81-1.742-.72-.689-1.783-.689-1.429 0-2.219 1.033-.78 1.023-.78 2.968v.355q0 1.894.78 2.917t2.229 1.023zM118.53 479.858q-.162-.324-.264-1.155-1.306 1.358-3.12 1.358-1.62 0-2.664-.912-1.033-.922-1.033-2.33 0-1.712 1.297-2.654 1.307-.952 3.667-.952h1.823v-.86q0-.983-.587-1.56-.588-.588-1.733-.588-1.002 0-1.681.506-.679.507-.679 1.226h-1.884q0-.82.578-1.58.587-.77 1.58-1.216 1.003-.446 2.198-.446 1.894 0 2.968.953 1.074.942 1.114 2.603v5.044q0 1.51.385 2.401v.162h-1.965zm-3.11-1.428q.881 0 1.671-.456t1.145-1.185v-2.249h-1.469q-3.444 0-3.444 2.016 0 .881.588 1.378.587.496 1.51.496zM125.61 466.244v2.654h2.047v1.448h-2.047v6.797q0 .659.274.993.273.324.932.324.324 0 .891-.121v1.52q-.74.202-1.438.202-1.256 0-1.894-.76-.639-.76-.639-2.158v-6.797h-1.995v-1.448h1.995v-2.654h1.874zM131.87 479.858h-1.874v-10.96h1.874v10.96zm-2.025-13.867q0-.456.273-.77.284-.314.83-.314.548 0 .831.314.284.314.284.77t-.284.76q-.283.303-.83.303-.547 0-.831-.303-.273-.304-.273-.76zM134.362 474.277q0-1.61.628-2.897.639-1.287 1.763-1.986 1.134-.699 2.583-.699 2.239 0 3.616 1.55 1.388 1.55 1.388 4.123v.132q0 1.6-.618 2.876-.608 1.267-1.752 1.976-1.135.709-2.614.709-2.228 0-3.616-1.55-1.378-1.55-1.378-4.103v-.131zm1.884.223q0 1.823.841 2.927.851 1.104 2.27 1.104 1.427 0 2.268-1.114.841-1.124.841-3.14 0-1.803-.861-2.918-.85-1.124-2.27-1.124-1.387 0-2.238 1.104-.85 1.104-.85 3.16zM148.463 468.898l.06 1.378q1.257-1.58 3.282-1.58 3.475 0 3.505 3.92v7.242h-1.874v-7.253q-.01-1.185-.547-1.752-.526-.567-1.65-.567-.913 0-1.601.486-.69.486-1.074 1.276v7.81h-1.874v-10.96h1.773zM164.538 476.951q0-.76-.577-1.175-.567-.426-1.996-.73-1.418-.303-2.259-.729-.83-.425-1.235-1.013-.395-.587-.395-1.398 0-1.347 1.134-2.279 1.145-.932 2.917-.932 1.864 0 3.019.963 1.165.962 1.165 2.461h-1.884q0-.77-.659-1.327-.648-.557-1.64-.557-1.024 0-1.601.446-.577.445-.577 1.165 0 .678.536 1.023.537.344 1.935.658 1.408.314 2.28.75.87.435 1.286 1.053.425.608.425 1.49 0 1.468-1.175 2.36-1.175.88-3.049.88-1.317 0-2.33-.465-1.013-.466-1.59-1.297-.567-.84-.567-1.813h1.874q.05.942.75 1.5.708.546 1.863.546 1.064 0 1.702-.425.648-.436.648-1.155zM178.547 480.06q-2.228 0-3.626-1.458-1.398-1.469-1.398-3.92v-.344q0-1.631.618-2.908.628-1.286 1.742-2.005 1.125-.73 2.431-.73 2.138 0 3.323 1.408t1.185 4.032v.78h-7.425q.04 1.62.942 2.623.912.993 2.31.993.992 0 1.681-.405.689-.405 1.206-1.074l1.144.892q-1.377 2.117-4.133 2.117zm-.233-9.825q-1.134 0-1.904.83-.77.821-.952 2.31h5.49v-.142q-.08-1.428-.77-2.208-.689-.79-1.864-.79zM186.752 468.898l.061 1.378q1.256-1.58 3.282-1.58 3.475 0 3.505 3.92v7.242h-1.874v-7.253q-.01-1.185-.547-1.752-.527-.567-1.651-.567-.912 0-1.6.486-.69.486-1.074 1.276v7.81h-1.874v-10.96h1.772zM204.135 466.244v2.654h2.046v1.448h-2.046v6.797q0 .659.273.993.274.324.932.324.324 0 .891-.121v1.52q-.739.202-1.438.202-1.256 0-1.894-.76-.638-.76-.638-2.158v-6.797h-1.996v-1.448h1.996v-2.654h1.874zM212.907 480.06q-2.229 0-3.627-1.458-1.397-1.469-1.397-3.92v-.344q0-1.631.617-2.908.628-1.286 1.743-2.005 1.124-.73 2.43-.73 2.138 0 3.323 1.408t1.185 4.032v.78h-7.425q.041 1.62.943 2.623.911.993 2.31.993.992 0 1.68-.405.69-.405 1.206-1.074l1.145.892q-1.378 2.117-4.133 2.117zm-.233-9.825q-1.135 0-1.905.83-.77.821-.952 2.31h5.49v-.142q-.08-1.428-.77-2.208-.688-.79-1.863-.79zM221.102 468.898l.05 1.216q1.206-1.419 3.252-1.419 2.3 0 3.13 1.763.547-.79 1.418-1.276.881-.487 2.077-.487 3.606 0 3.666 3.82v7.343h-1.874v-7.232q0-1.175-.536-1.753-.537-.587-1.803-.587-1.044 0-1.733.628-.688.618-.8 1.671v7.273h-1.884v-7.182q0-2.39-2.34-2.39-1.843 0-2.522 1.57v8.002h-1.874v-10.96h1.773zM246.79 474.5q0 2.502-1.145 4.031-1.144 1.53-3.1 1.53-1.995 0-3.14-1.266v5.277h-1.873v-15.174h1.712l.09 1.216q1.145-1.419 3.181-1.419 1.976 0 3.12 1.49 1.155 1.488 1.155 4.142v.173zm-1.874-.213q0-1.854-.79-2.928-.79-1.073-2.168-1.073-1.701 0-2.552 1.509v5.237q.84 1.5 2.573 1.5 1.347 0 2.137-1.064.8-1.074.8-3.181zM255.542 476.951q0-.76-.577-1.175-.568-.426-1.996-.73-1.418-.303-2.259-.729-.83-.425-1.236-1.013-.395-.587-.395-1.398 0-1.347 1.135-2.279 1.145-.932 2.917-.932 1.864 0 3.019.963 1.165.962 1.165 2.461h-1.884q0-.77-.659-1.327-.648-.557-1.64-.557-1.024 0-1.601.446-.578.445-.578 1.165 0 .678.537 1.023.537.344 1.935.658 1.408.314 2.28.75.87.435 1.286 1.053.425.608.425 1.49 0 1.468-1.175 2.36-1.175.88-3.049.88-1.317 0-2.33-.465-1.013-.466-1.59-1.297-.567-.84-.567-1.813h1.874q.05.942.75 1.5.708.546 1.863.546 1.064 0 1.702-.425.648-.436.648-1.155zM270.3 470.58q-.425-.071-.921-.071-1.844 0-2.502 1.57v7.78h-1.874v-10.961h1.823l.03 1.266q.923-1.469 2.614-1.469.547 0 .83.142v1.742zM276.358 480.06q-2.228 0-3.626-1.458-1.398-1.469-1.398-3.92v-.344q0-1.631.618-2.908.628-1.286 1.742-2.005 1.125-.73 2.431-.73 2.138 0 3.323 1.408t1.185 4.032v.78h-7.425q.04 1.62.942 2.623.912.993 2.31.993.992 0 1.681-.405.689-.405 1.205-1.074l1.145.892q-1.378 2.117-4.133 2.117zm-.233-9.825q-1.134 0-1.904.83-.77.821-.952 2.31h5.49v-.142q-.081-1.428-.77-2.208-.689-.79-1.864-.79zm.912-5.936h2.269l-2.715 2.978h-1.51l1.956-2.978zM287.339 480.06q-2.229 0-3.627-1.458-1.398-1.469-1.398-3.92v-.344q0-1.631.618-2.908.628-1.286 1.743-2.005 1.124-.73 2.43-.73 2.138 0 3.323 1.408t1.185 4.032v.78h-7.425q.04 1.62.942 2.623.912.993 2.31.993.993 0 1.681-.405.69-.405 1.206-1.074l1.145.892q-1.378 2.117-4.133 2.117zm-.233-9.825q-1.135 0-1.905.83-.77.821-.952 2.31h5.49v-.142q-.08-1.428-.77-2.208-.688-.79-1.863-.79zM295.807 479.858h-1.874V464.3h1.874v15.56z"/></g><g style="line-height:125%;-inkscape-font-specification:'Roboto, Normal';text-align:start" font-weight="700" font-size="31.874" font-family="Roboto" letter-spacing="0" word-spacing="0" fill="#fff"><path d="M68.482 38.64h-8.965v9.26h-4.669V25.24h14.754v3.781H59.517v5.852h8.965v3.766zM71.034 39.324q0-2.506.965-4.467.965-1.96 2.77-3.035 1.821-1.073 4.218-1.073 3.408 0 5.556 2.085 2.163 2.085 2.412 5.665l.031 1.152q0 3.875-2.163 6.225-2.163 2.335-5.805 2.335t-5.82-2.335q-2.164-2.334-2.164-6.35v-.202zm4.498.327q0 2.397.902 3.673.903 1.26 2.584 1.26 1.634 0 2.552-1.245.919-1.26.919-4.015 0-2.35-.919-3.642-.918-1.292-2.583-1.292-1.65 0-2.553 1.292-.902 1.276-.902 3.969zM93.928 31.06l.14 1.945q1.805-2.256 4.84-2.256 2.677 0 3.984 1.571 1.307 1.572 1.339 4.7V47.9h-4.498V37.13q0-1.432-.623-2.07-.622-.654-2.07-.654-1.898 0-2.848 1.618V47.9h-4.498V31.06h4.234zM114.658 44.584q1.245 0 2.023-.684.778-.685.81-1.821h4.217q-.015 1.712-.934 3.143-.918 1.417-2.52 2.21-1.588.779-3.518.779-3.61 0-5.696-2.288-2.086-2.304-2.086-6.35v-.296q0-3.89 2.07-6.21 2.07-2.318 5.68-2.318 3.16 0 5.059 1.805 1.914 1.79 1.945 4.778h-4.217q-.031-1.308-.81-2.117-.778-.825-2.054-.825-1.572 0-2.381 1.152-.794 1.136-.794 3.704v.467q0 2.6.794 3.735.793 1.136 2.412 1.136zM129.661 26.92v4.14h2.88v3.3h-2.88v8.403q0 .934.358 1.339.358.405 1.37.405.747 0 1.323-.11v3.409q-1.323.405-2.724.405-4.731 0-4.825-4.778v-9.074h-2.459v-3.3h2.46v-4.14h4.497zM139.793 47.9h-4.513V31.06h4.513V47.9zm-4.778-21.198q0-1.012.67-1.665.684-.654 1.851-.654 1.152 0 1.837.654.684.653.684 1.665 0 1.027-.7 1.68-.685.655-1.82.655-1.137 0-1.837-.654-.685-.654-.685-1.681zM142.812 39.324q0-2.506.965-4.467.965-1.96 2.77-3.035 1.821-1.073 4.218-1.073 3.408 0 5.556 2.085 2.164 2.085 2.413 5.665l.03 1.152q0 3.875-2.163 6.225-2.163 2.335-5.805 2.335t-5.82-2.335q-2.164-2.334-2.164-6.35v-.202zm4.498.327q0 2.397.903 3.673.902 1.26 2.583 1.26 1.634 0 2.553-1.245.918-1.26.918-4.015 0-2.35-.918-3.642-.919-1.292-2.584-1.292-1.65 0-2.552 1.292-.903 1.276-.903 3.969zM165.706 31.06l.14 1.945q1.805-2.256 4.84-2.256 2.677 0 3.984 1.571 1.308 1.572 1.339 4.7V47.9h-4.498V37.13q0-1.432-.622-2.07-.623-.654-2.07-.654-1.9 0-2.848 1.618V47.9h-4.498V31.06h4.233zM188.553 43.246q0-.825-.825-1.292-.81-.482-2.615-.856-6.007-1.26-6.007-5.105 0-2.24 1.852-3.735 1.868-1.51 4.871-1.51 3.206 0 5.12 1.51 1.93 1.51 1.93 3.922h-4.497q0-.965-.623-1.587-.622-.638-1.945-.638-1.136 0-1.759.513-.622.514-.622 1.307 0 .748.7 1.214.716.452 2.397.794 1.68.327 2.832.747 3.564 1.308 3.564 4.53 0 2.303-1.976 3.734-1.977 1.417-5.105 1.417-2.117 0-3.766-.747-1.635-.763-2.568-2.07-.934-1.323-.934-2.848h4.264q.063 1.198.887 1.836.825.638 2.21.638 1.292 0 1.946-.482.669-.498.669-1.292zM208.52 47.9h-4.513V31.06h4.514V47.9zm-4.777-21.198q0-1.012.67-1.665.684-.654 1.851-.654 1.152 0 1.837.654.684.653.684 1.665 0 1.027-.7 1.68-.685.655-1.82.655-1.137 0-1.837-.654-.685-.654-.685-1.681zM216.38 31.06l.14 1.945q1.806-2.256 4.84-2.256 2.677 0 3.985 1.571 1.307 1.572 1.338 4.7V47.9h-4.498V37.13q0-1.432-.622-2.07-.623-.654-2.07-.654-1.899 0-2.848 1.618V47.9h-4.498V31.06h4.233zM237.11 44.584q1.246 0 2.024-.684.778-.685.81-1.821h4.217q-.016 1.712-.934 3.143-.918 1.417-2.521 2.21-1.588.779-3.517.779-3.611 0-5.697-2.288-2.085-2.304-2.085-6.35v-.296q0-3.89 2.07-6.21 2.07-2.318 5.68-2.318 3.16 0 5.059 1.805 1.914 1.79 1.945 4.778h-4.218q-.03-1.308-.809-2.117-.778-.825-2.054-.825-1.572 0-2.382 1.152-.793 1.136-.793 3.704v.467q0 2.6.793 3.735.794 1.136 2.413 1.136zM251.476 47.9h-4.514V23.993h4.514v23.905zM265.28 46.187q-1.665 2.024-4.606 2.024-2.708 0-4.14-1.557-1.416-1.556-1.448-4.56V31.06h4.498v10.879q0 2.63 2.397 2.63 2.288 0 3.144-1.588V31.06h4.513V47.9h-4.233l-.125-1.713zM282.182 43.246q0-.825-.825-1.292-.809-.482-2.614-.856-6.008-1.26-6.008-5.105 0-2.24 1.852-3.735 1.868-1.51 4.872-1.51 3.206 0 5.12 1.51 1.93 1.51 1.93 3.922h-4.498q0-.965-.622-1.587-.623-.638-1.946-.638-1.136 0-1.759.513-.622.514-.622 1.307 0 .748.7 1.214.716.452 2.397.794 1.68.327 2.833.747 3.564 1.308 3.564 4.53 0 2.303-1.977 3.734-1.977 1.417-5.105 1.417-2.116 0-3.766-.747-1.634-.763-2.568-2.07-.934-1.323-.934-2.848h4.264q.063 1.198.888 1.836.824.638 2.21.638 1.291 0 1.945-.482.67-.498.67-1.292zM297.185 48.21q-3.704 0-6.038-2.272-2.32-2.272-2.32-6.054v-.436q0-2.536.981-4.529.98-2.007 2.77-3.081 1.806-1.09 4.11-1.09 3.454 0 5.43 2.18 1.993 2.178 1.993 6.178v1.837h-10.723q.218 1.65 1.307 2.645 1.105.996 2.786.996 2.6 0 4.062-1.883l2.21 2.475q-1.012 1.432-2.74 2.24-1.727.795-3.828.795zm-.513-13.82q-1.339 0-2.18.903-.824.903-1.057 2.584h6.256v-.358q-.031-1.495-.81-2.304-.777-.825-2.21-.825zM315.8 43.246q0-.825-.826-1.292-.809-.482-2.614-.856-6.008-1.26-6.008-5.105 0-2.24 1.852-3.735 1.868-1.51 4.872-1.51 3.206 0 5.12 1.51 1.93 1.51 1.93 3.922h-4.498q0-.965-.623-1.587-.622-.638-1.945-.638-1.136 0-1.759.513-.622.514-.622 1.307 0 .748.7 1.214.716.452 2.397.794 1.68.327 2.832.747 3.564 1.308 3.564 4.53 0 2.303-1.976 3.734-1.977 1.417-5.105 1.417-2.117 0-3.766-.747-1.634-.763-2.568-2.07-.934-1.323-.934-2.848h4.264q.063 1.198.887 1.836.825.638 2.21.638 1.292 0 1.946-.482.67-.498.67-1.292z"/></g><path d="M30.13 93.874l-8.71 8.71-4.62-4.619-2.376 2.376 7.171 7.171 11.087-11.087-2.552-2.551zM30.13 135.512l-8.71 8.71-4.62-4.619-2.376 2.376 7.171 7.171 11.087-11.086-2.552-2.552zM30.13 177.15l-8.71 8.711-4.62-4.62-2.376 2.376 7.171 7.172 11.087-11.087-2.552-2.552zM30.13 218.788l-8.71 8.711-4.62-4.62-2.376 2.376 7.171 7.172 11.087-11.087-2.552-2.552zM30.13 260.426l-8.71 8.711-4.62-4.62-2.376 2.376 7.171 7.172 11.087-11.087-2.552-2.552zM30.13 302.064l-8.71 8.711-4.62-4.62-2.376 2.376 7.171 7.172 11.087-11.087-2.552-2.552zM30.13 343.702l-8.71 8.711-4.62-4.62-2.376 2.376 7.171 7.172 11.087-11.087-2.552-2.552zM30.13 385.34l-8.71 8.712-4.62-4.62-2.376 2.376 7.171 7.171 11.087-11.087-2.552-2.552zM30.13 426.979l-8.71 8.71-4.62-4.62-2.376 2.377 7.171 7.171 11.087-11.087-2.552-2.551zM30.13 468.617l-8.71 8.71-4.62-4.62-2.376 2.377 7.171 7.171 11.087-11.087-2.552-2.551z" style="isolation:auto;mix-blend-mode:normal;solid-color:#000;solid-opacity:1" color="#000" overflow="visible" fill="#4e9a06"/><g style="line-height:125%;-inkscape-font-specification:'Roboto, Normal';text-align:start" font-weight="400" font-size="20.745" font-family="Roboto" letter-spacing="0" word-spacing="0" fill="#888a85"><path d="M23.354 534.417q0-.486.283-.81.294-.325.871-.325.578 0 .871.325.304.324.304.81 0 .466-.304.78-.293.314-.87.314-.578 0-.872-.314-.283-.314-.283-.78zM28.824 534.417q0-.486.283-.81.294-.325.871-.325.578 0 .871.325.304.324.304.81 0 .466-.304.78-.293.314-.87.314-.578 0-.872-.314-.283-.314-.283-.78zM34.293 534.417q0-.486.284-.81.294-.325.871-.325.578 0 .871.325.304.324.304.81 0 .466-.304.78-.293.314-.87.314-.578 0-.872-.314-.284-.314-.284-.78zM49.417 535.602q-2.229 0-3.626-1.459-1.398-1.468-1.398-3.92v-.344q0-1.631.618-2.907.628-1.287 1.742-2.006 1.124-.73 2.43-.73 2.138 0 3.323 1.409 1.186 1.408 1.186 4.031v.78h-7.425q.04 1.621.942 2.624.911.993 2.31.993.992 0 1.68-.406.69-.405 1.206-1.073l1.145.891q-1.378 2.117-4.133 2.117zm-.233-9.826q-1.135 0-1.904.831-.77.82-.953 2.31h5.49v-.142q-.08-1.429-.77-2.208-.688-.79-1.863-.79zM58.392 521.785v2.654h2.046v1.449h-2.046v6.797q0 .658.273.992.274.325.932.325.324 0 .891-.122v1.52q-.739.202-1.438.202-1.256 0-1.894-.76-.638-.76-.638-2.157v-6.797h-1.996v-1.449h1.996v-2.654h1.874zM72.31 535.602q-2.229 0-3.627-1.459-1.398-1.468-1.398-3.92v-.344q0-1.631.618-2.907.628-1.287 1.743-2.006 1.124-.73 2.43-.73 2.138 0 3.323 1.409 1.185 1.408 1.185 4.031v.78H69.16q.04 1.621.942 2.624.912.993 2.31.993.993 0 1.681-.406.69-.405 1.206-1.073l1.145.891q-1.378 2.117-4.133 2.117zm-.233-9.826q-1.135 0-1.905.831-.77.82-.952 2.31h5.49v-.142q-.08-1.429-.77-2.208-.688-.79-1.863-.79zM80.515 524.44l.06 1.377q1.256-1.58 3.282-1.58 3.475 0 3.505 3.92v7.242h-1.874v-7.252q-.01-1.185-.547-1.753-.527-.567-1.65-.567-.913 0-1.601.486-.69.486-1.074 1.277v7.81h-1.874v-10.96h1.773zM94.605 534.073q1.003 0 1.752-.608.75-.608.83-1.52h1.773q-.05.942-.648 1.793-.597.851-1.6 1.358-.993.506-2.107.506-2.239 0-3.566-1.489-1.317-1.5-1.317-4.092v-.314q0-1.6.588-2.847.587-1.246 1.681-1.934 1.104-.69 2.604-.69 1.843 0 3.059 1.105 1.225 1.104 1.306 2.866h-1.772q-.081-1.063-.81-1.742-.72-.689-1.783-.689-1.429 0-2.219 1.034-.78 1.023-.78 2.968v.354q0 1.894.78 2.917.78 1.024 2.229 1.024zM100.571 529.818q0-1.61.628-2.897.638-1.286 1.763-1.985 1.134-.7 2.583-.7 2.238 0 3.616 1.55 1.388 1.55 1.388 4.123v.132q0 1.6-.618 2.877-.608 1.266-1.753 1.975-1.134.71-2.613.71-2.229 0-3.616-1.55-1.378-1.55-1.378-4.103v-.132zm1.884.223q0 1.823.84 2.927.852 1.105 2.27 1.105 1.428 0 2.269-1.115.84-1.124.84-3.14 0-1.803-.86-2.917-.851-1.125-2.27-1.125-1.387 0-2.238 1.105-.85 1.104-.85 3.16zM118.196 526.12q-.425-.07-.921-.07-1.844 0-2.502 1.57v7.78h-1.874v-10.96h1.823l.03 1.266q.922-1.47 2.614-1.47.547 0 .83.143v1.742zM124.254 535.602q-2.229 0-3.626-1.459-1.398-1.468-1.398-3.92v-.344q0-1.631.618-2.907.628-1.287 1.742-2.006 1.124-.73 2.431-.73 2.137 0 3.322 1.409 1.186 1.408 1.186 4.031v.78h-7.425q.04 1.621.942 2.624.911.993 2.31.993.992 0 1.68-.406.69-.405 1.206-1.073l1.145.891q-1.378 2.117-4.133 2.117zm-.233-9.826q-1.135 0-1.904.831-.77.82-.953 2.31h5.49v-.142q-.08-1.429-.77-2.208-.688-.79-1.863-.79zM130.625 538.337l-1.063-.73q.952-1.326.993-2.734v-1.692h1.833v1.469q0 1.023-.506 2.046-.497 1.023-1.257 1.641zM139.428 529.818q0-1.61.628-2.897.638-1.286 1.763-1.985 1.134-.7 2.583-.7 2.238 0 3.616 1.55 1.388 1.55 1.388 4.123v.132q0 1.6-.618 2.877-.608 1.266-1.753 1.975-1.134.71-2.613.71-2.229 0-3.616-1.55-1.378-1.55-1.378-4.103v-.132zm1.884.223q0 1.823.84 2.927.852 1.105 2.27 1.105 1.428 0 2.269-1.115.84-1.124.84-3.14 0-1.803-.86-2.917-.851-1.125-2.27-1.125-1.387 0-2.238 1.105-.85 1.104-.85 3.16zM153.528 524.44l.061 1.377q1.256-1.58 3.282-1.58 3.475 0 3.505 3.92v7.242h-1.874v-7.252q-.01-1.185-.547-1.753-.527-.567-1.651-.567-.912 0-1.6.486-.69.486-1.074 1.277v7.81h-1.874v-10.96h1.772zM177.627 530.04q0 2.503-1.145 4.033-1.145 1.53-3.1 1.53-1.995 0-3.14-1.267v5.277h-1.874V524.44h1.712l.091 1.216q1.145-1.418 3.18-1.418 1.976 0 3.12 1.489 1.156 1.489 1.156 4.143v.172zm-1.874-.212q0-1.853-.79-2.927t-2.168-1.074q-1.702 0-2.553 1.51v5.236q.84 1.5 2.573 1.5 1.347 0 2.137-1.064.8-1.074.8-3.18zM184.545 535.602q-2.228 0-3.626-1.459-1.398-1.468-1.398-3.92v-.344q0-1.631.618-2.907.628-1.287 1.742-2.006 1.124-.73 2.431-.73 2.137 0 3.323 1.409 1.185 1.408 1.185 4.031v.78h-7.425q.04 1.621.942 2.624.911.993 2.31.993.992 0 1.68-.406.69-.405 1.206-1.073l1.145.891q-1.378 2.117-4.133 2.117zm-.233-9.826q-1.134 0-1.904.831-.77.82-.953 2.31h5.49v-.142q-.08-1.429-.77-2.208-.688-.79-1.863-.79zM197.744 534.316q-1.094 1.286-3.211 1.286-1.753 0-2.674-1.013-.912-1.023-.922-3.018v-7.132h1.874v7.08q0 2.493 2.026 2.493 2.147 0 2.856-1.6v-7.973h1.874v10.96h-1.783l-.04-1.083zM204.946 521.785v2.654h2.046v1.449h-2.046v6.797q0 .658.273.992.274.325.932.325.324 0 .892-.122v1.52q-.74.202-1.439.202-1.256 0-1.894-.76-.638-.76-.638-2.157v-6.797h-1.996v-1.449h1.996v-2.654h1.874zM223.574 530.04q0 2.503-1.145 4.033-1.144 1.53-3.1 1.53-1.995 0-3.14-1.267v5.277h-1.873V524.44h1.712l.09 1.216q1.145-1.418 3.181-1.418 1.976 0 3.12 1.489 1.155 1.489 1.155 4.143v.172zm-1.874-.212q0-1.853-.79-2.927t-2.168-1.074q-1.701 0-2.552 1.51v5.236q.84 1.5 2.573 1.5 1.347 0 2.137-1.064.8-1.074.8-3.18zM232.711 535.4q-.162-.325-.263-1.155-1.307 1.357-3.12 1.357-1.621 0-2.664-.912-1.034-.921-1.034-2.33 0-1.711 1.297-2.653 1.307-.953 3.667-.953h1.823v-.86q0-.983-.587-1.56-.588-.588-1.732-.588-1.003 0-1.682.506-.679.507-.679 1.226h-1.884q0-.82.578-1.58.587-.77 1.58-1.216 1.003-.445 2.198-.445 1.894 0 2.968.952 1.074.942 1.114 2.603v5.045q0 1.509.385 2.4v.162h-1.965zm-3.11-1.429q.881 0 1.672-.456.79-.455 1.144-1.185v-2.249h-1.469q-3.444 0-3.444 2.016 0 .882.588 1.378.587.496 1.51.496zM243.63 532.492q0-.76-.577-1.175-.567-.425-1.995-.73-1.418-.303-2.26-.728-.83-.426-1.235-1.013-.395-.588-.395-1.398 0-1.347 1.134-2.28 1.145-.931 2.918-.931 1.864 0 3.018.962 1.165.962 1.165 2.462h-1.884q0-.77-.658-1.327-.649-.558-1.641-.558-1.023 0-1.6.446-.578.446-.578 1.165 0 .679.537 1.023.537.345 1.935.659 1.408.314 2.279.75.87.435 1.286 1.053.426.607.426 1.489 0 1.468-1.175 2.36-1.175.881-3.05.881-1.316 0-2.33-.466-1.012-.466-1.59-1.296-.567-.841-.567-1.814h1.874q.05.942.75 1.5.709.547 1.864.547 1.063 0 1.701-.426.649-.435.649-1.155zM255.634 521.785v2.654h2.046v1.449h-2.046v6.797q0 .658.274.992.273.325.932.325.324 0 .89-.122v1.52q-.739.202-1.437.202-1.257 0-1.895-.76-.638-.76-.638-2.157v-6.797h-1.995v-1.449h1.995v-2.654h1.874zM259.16 529.818q0-1.61.627-2.897.638-1.286 1.763-1.985 1.134-.7 2.583-.7 2.238 0 3.616 1.55 1.388 1.55 1.388 4.123v.132q0 1.6-.618 2.877-.608 1.266-1.753 1.975-1.134.71-2.613.71-2.228 0-3.616-1.55-1.378-1.55-1.378-4.103v-.132zm1.883.223q0 1.823.841 2.927.85 1.105 2.27 1.105 1.427 0 2.268-1.115.84-1.124.84-3.14 0-1.803-.86-2.917-.851-1.125-2.27-1.125-1.387 0-2.238 1.105-.85 1.104-.85 3.16zM278.253 534.316q-1.094 1.286-3.21 1.286-1.753 0-2.675-1.013-.912-1.023-.922-3.018v-7.132h1.874v7.08q0 2.493 2.026 2.493 2.148 0 2.857-1.6v-7.973h1.874v10.96h-1.783l-.04-1.083zM285.456 521.785v2.654h2.046v1.449h-2.046v6.797q0 .658.273.992.274.325.932.325.324 0 .891-.122v1.52q-.74.202-1.438.202-1.256 0-1.894-.76-.638-.76-.638-2.157v-6.797h-1.996v-1.449h1.996v-2.654h1.874zM296.861 535.4h-1.874v-15.56h1.874v15.56zM301.886 535.4h-1.874v-10.96h1.874v10.96zm-2.026-13.868q0-.456.273-.77.284-.314.83-.314.548 0 .831.314.284.314.284.77t-.284.76q-.283.304-.83.304-.547 0-.83-.304-.274-.304-.274-.76zM311.255 532.492q0-.76-.577-1.175-.567-.425-1.995-.73-1.419-.303-2.26-.728-.83-.426-1.235-1.013-.395-.588-.395-1.398 0-1.347 1.134-2.28 1.145-.931 2.918-.931 1.863 0 3.018.962 1.165.962 1.165 2.462h-1.884q0-.77-.658-1.327-.649-.558-1.641-.558-1.023 0-1.6.446-.578.446-.578 1.165 0 .679.537 1.023.537.345 1.934.659 1.408.314 2.28.75.87.435 1.286 1.053.425.607.425 1.489 0 1.468-1.175 2.36-1.175.881-3.049.881-1.316 0-2.33-.466-1.012-.466-1.59-1.296-.567-.841-.567-1.814h1.874q.05.942.75 1.5.709.547 1.863.547 1.064 0 1.702-.426.648-.435.648-1.155zM318.113 521.785v2.654h2.046v1.449h-2.046v6.797q0 .658.274.992.273.325.932.325.324 0 .89-.122v1.52q-.739.202-1.437.202-1.257 0-1.895-.76-.638-.76-.638-2.157v-6.797h-1.995v-1.449h1.995v-2.654h1.874zM326.885 535.602q-2.228 0-3.626-1.459-1.398-1.468-1.398-3.92v-.344q0-1.631.618-2.907.628-1.287 1.742-2.006 1.125-.73 2.431-.73 2.138 0 3.323 1.409 1.185 1.408 1.185 4.031v.78h-7.425q.04 1.621.942 2.624.912.993 2.31.993.992 0 1.681-.406.689-.405 1.206-1.073l1.144.891q-1.377 2.117-4.133 2.117zm-.233-9.826q-1.134 0-1.904.831-.77.82-.952 2.31h5.49v-.142q-.081-1.429-.77-2.208-.689-.79-1.864-.79zM338.615 526.12q-.425-.07-.921-.07-1.844 0-2.502 1.57v7.78h-1.874v-10.96h1.823l.03 1.266q.922-1.47 2.614-1.47.547 0 .83.143v1.742zM347.51 535.4h-1.875v-10.96h1.874v10.96zm-2.027-13.868q0-.456.274-.77.283-.314.83-.314.547 0 .83.314.285.314.285.77t-.284.76q-.284.304-.83.304-.548 0-.831-.304-.274-.304-.274-.76zM354.894 534.073q1.002 0 1.752-.608t.83-1.52h1.773q-.05.942-.648 1.793t-1.6 1.358q-.993.506-2.107.506-2.24 0-3.566-1.489-1.317-1.5-1.317-4.092v-.314q0-1.6.588-2.847.587-1.246 1.681-1.934 1.104-.69 2.603-.69 1.844 0 3.06 1.105 1.225 1.104 1.306 2.866h-1.772q-.081-1.063-.81-1.742-.72-.689-1.784-.689-1.428 0-2.218 1.034-.78 1.023-.78 2.968v.354q0 1.894.78 2.917.78 1.024 2.229 1.024zM363.392 535.4h-1.874v-10.96h1.874v10.96zm-2.026-13.868q0-.456.274-.77.283-.314.83-.314.547 0 .831.314.284.314.284.77t-.284.76q-.284.304-.83.304-.548 0-.831-.304-.274-.304-.274-.76z"/></g></svg>