<svg xmlns="http://www.w3.org/2000/svg" viewBox="0 0 294.929 165.49" height="176.522" width="314.591"><g style="line-height:200%;-inkscape-font-specification:'roboto, Normal';text-align:start" font-weight="400" font-size="16.826" font-family="roboto" letter-spacing="0" word-spacing="0" fill="#fff"><path style="line-height:200%" d="M33.18 71.631q-2.029-.583-2.957-1.43-.92-.854-.92-2.102 0-1.414 1.125-2.334 1.134-.928 2.941-.928 1.233 0 2.194.476.97.477 1.495 1.315.534.838.534 1.832h-1.585q0-1.084-.69-1.7-.69-.625-1.948-.625-1.166 0-1.824.518-.649.509-.649 1.42 0 .732.617 1.242.624.5 2.111.92 1.495.419 2.333.928.847.501 1.25 1.175.41.674.41 1.586 0 1.454-1.134 2.333-1.134.87-3.031.87-1.233 0-2.3-.468-1.069-.476-1.652-1.298-.575-.821-.575-1.865h1.585q0 1.085.797 1.717.805.625 2.145.625 1.248 0 1.914-.51.665-.509.665-1.388 0-.88-.616-1.356-.616-.484-2.235-.953zM41.684 65.001l3.91 9.76 3.911-9.76h2.046v11.962h-1.578v-4.658l.148-5.028-3.927 9.686h-1.208l-3.918-9.661.156 5.003v4.658h-1.578V65.001h2.038zM57.86 71.631q-2.029-.583-2.957-1.43-.92-.854-.92-2.102 0-1.414 1.125-2.334 1.134-.928 2.942-.928 1.232 0 2.193.476.97.477 1.495 1.315.534.838.534 1.832h-1.585q0-1.084-.69-1.7-.69-.625-1.947-.625-1.167 0-1.824.518-.65.509-.65 1.42 0 .732.617 1.242.624.5 2.111.92 1.496.419 2.334.928.846.501 1.248 1.175.411.674.411 1.586 0 1.454-1.134 2.333-1.133.87-3.031.87-1.233 0-2.3-.468-1.069-.476-1.652-1.298-.575-.821-.575-1.865h1.585q0 1.085.797 1.717.806.625 2.145.625 1.249 0 1.914-.51.665-.509.665-1.388 0-.88-.616-1.356-.616-.484-2.234-.953zM71.95 77.128q-1.807 0-2.94-1.183-1.134-1.192-1.134-3.18v-.28q0-1.322.5-2.357.51-1.044 1.414-1.627.912-.591 1.972-.591 1.733 0 2.694 1.142.962 1.142.962 3.27v.632h-6.022q.032 1.315.764 2.128.74.805 1.873.805.805 0 1.364-.329.558-.328.977-.87l.929.723q-1.118 1.717-3.352 1.717zm-.188-7.97q-.92 0-1.545.674-.624.666-.772 1.873h4.453v-.115q-.066-1.158-.625-1.79-.558-.642-1.511-.642zM78.605 68.074l.05 1.117q1.018-1.281 2.662-1.281 2.818 0 2.842 3.18v5.873h-1.52v-5.882q-.008-.961-.443-1.421-.427-.46-1.34-.46-.739 0-1.298.394-.558.394-.87 1.035v6.334h-1.52v-8.89h1.437zM89.401 74.901l2.202-6.827h1.553l-3.188 8.89h-1.159l-3.22-8.89h1.553L89.4 74.9zM94.084 72.437q0-1.307.51-2.35.517-1.044 1.429-1.61.92-.567 2.095-.567 1.816 0 2.933 1.257 1.126 1.257 1.126 3.343v.107q0 1.298-.502 2.334-.493 1.027-1.421 1.602-.92.575-2.12.575-1.807 0-2.933-1.257-1.117-1.257-1.117-3.328v-.106zm1.528.18q0 1.48.682 2.375.69.895 1.84.895 1.159 0 1.84-.904.683-.912.683-2.546 0-1.463-.699-2.367-.69-.912-1.84-.912-1.126 0-1.816.896-.69.895-.69 2.563zM106.86 74.737l2.07-6.663h1.627l-3.574 10.261q-.83 2.219-2.638 2.219l-.287-.025-.567-.107V79.19l.41.033q.773 0 1.2-.312.436-.313.715-1.142l.337-.904-3.171-8.791h1.66l2.217 6.663zM115.494 77.128q-1.807 0-2.941-1.183-1.134-1.192-1.134-3.18v-.28q0-1.322.501-2.357.51-1.044 1.414-1.627.911-.591 1.971-.591 1.734 0 2.695 1.142.961 1.142.961 3.27v.632h-6.022q.033 1.315.764 2.128.74.805 1.873.805.806 0 1.364-.329.559-.328.978-.87l.928.723q-1.117 1.717-3.352 1.717zm-.189-7.97q-.92 0-1.544.674-.625.666-.773 1.873h4.453v-.115q-.065-1.158-.624-1.79-.559-.642-1.512-.642zm.74-4.814h1.84l-2.202 2.415h-1.224l1.586-2.415zM31.693 98.653l3.911 9.76 3.91-9.76h2.047v11.962h-1.578v-4.658l.148-5.028-3.927 9.686h-1.208l-3.919-9.662.156 5.004v4.658h-1.577V98.653h2.037zM49.596 110.615q-.132-.263-.214-.936-1.06 1.1-2.53 1.1-1.315 0-2.161-.739-.838-.748-.838-1.89 0-1.388 1.051-2.152 1.06-.772 2.974-.772h1.48v-.699q0-.797-.477-1.265-.477-.476-1.405-.476-.813 0-1.364.41-.55.411-.55.994h-1.529q0-.665.469-1.281.476-.625 1.281-.986.814-.362 1.783-.362 1.537 0 2.407.773.871.764.904 2.111v4.092q0 1.224.312 1.947v.131h-1.593zm-2.523-1.158q.715 0 1.356-.37.64-.37.928-.961v-1.824h-1.191q-2.793 0-2.793 1.635 0 .715.476 1.117.477.403 1.224.403zM54.928 110.615h-1.52v-8.89h1.52v8.89zm-1.644-11.247q0-.37.222-.625.23-.254.674-.254.444 0 .674.254.23.255.23.625t-.23.616q-.23.246-.674.246-.444 0-.674-.246-.222-.246-.222-.616zM59.003 110.615h-1.52v-12.62h1.52v12.62zM69.289 110.78q-1.808 0-2.941-1.184-1.134-1.19-1.134-3.179v-.28q0-1.322.5-2.357.51-1.044 1.414-1.627.912-.592 1.972-.592 1.733 0 2.695 1.142.96 1.142.96 3.27v.633h-6.021q.033 1.314.764 2.128.74.805 1.873.805.805 0 1.364-.329.558-.328.977-.87l.929.722q-1.118 1.718-3.352 1.718zm-.19-7.97q-.92 0-1.544.674-.624.665-.772 1.873h4.453v-.115q-.066-1.158-.625-1.79-.558-.642-1.511-.642zM75.944 101.726l.049 1.117q1.019-1.282 2.662-1.282 2.818 0 2.842 3.18v5.874h-1.52v-5.882q-.008-.962-.443-1.422-.427-.46-1.34-.46-.739 0-1.297.395-.56.394-.871 1.035v6.334h-1.52v-8.89h1.438zM86.74 108.553l2.2-6.827h1.554l-3.188 8.89h-1.158l-3.221-8.89h1.553l2.26 6.827zM91.422 106.088q0-1.306.51-2.35.517-1.043 1.429-1.61.92-.567 2.095-.567 1.816 0 2.933 1.257 1.126 1.257 1.126 3.344v.107q0 1.298-.502 2.333-.493 1.027-1.42 1.602-.921.576-2.12.576-1.808 0-2.934-1.257-1.117-1.258-1.117-3.328v-.107zm1.528.181q0 1.479.682 2.374.69.896 1.84.896 1.159 0 1.84-.904.683-.912.683-2.547 0-1.462-.699-2.366-.69-.912-1.84-.912-1.126 0-1.816.896-.69.895-.69 2.563zM104.198 108.389l2.07-6.663h1.627l-3.574 10.261q-.83 2.219-2.637 2.219l-.288-.025-.567-.107v-1.232l.41.033q.773 0 1.2-.313.436-.312.715-1.142l.337-.903-3.171-8.791h1.66l2.218 6.663zM112.832 110.78q-1.807 0-2.94-1.184-1.135-1.19-1.135-3.179v-.28q0-1.322.501-2.357.51-1.044 1.414-1.627.912-.592 1.971-.592 1.734 0 2.695 1.142.961 1.142.961 3.27v.633h-6.022q.033 1.314.764 2.128.74.805 1.874.805.805 0 1.363-.329.559-.328.978-.87l.928.722q-1.117 1.718-3.352 1.718zm-.189-7.97q-.92 0-1.544.674-.625.665-.772 1.873h4.452v-.115q-.065-1.158-.624-1.79-.559-.642-1.512-.642zm.74-4.814h1.84l-2.202 2.415h-1.224l1.586-2.415z"/></g><path d="M158.644 13.132v109.97" fill="none" stroke="#fff" stroke-width=".592"/><g style="line-height:200%;-inkscape-font-specification:'roboto, Normal';text-align:start" font-weight="400" font-size="16.826" font-family="roboto" letter-spacing="0" word-spacing="0" fill="#fff" text-anchor="middle"><path style="line-height:200%;text-align:center" d="M182.631 70.58h1.142q1.076-.017 1.693-.567.616-.55.616-1.487 0-2.104-2.095-2.104-.986 0-1.578.567-.583.559-.583 1.487h-1.52q0-1.421 1.035-2.358 1.044-.944 2.646-.944 1.692 0 2.653.895.962.896.962 2.49 0 .78-.51 1.511-.5.731-1.372 1.093.986.312 1.52 1.035.542.723.542 1.766 0 1.61-1.051 2.555-1.052.945-2.736.945-1.684 0-2.744-.912-1.052-.912-1.052-2.407h1.528q0 .945.617 1.512.616.567 1.651.567 1.1 0 1.684-.575.584-.575.584-1.652 0-1.043-.641-1.602-.641-.559-1.849-.575h-1.142v-1.24zM197.387 72.198q0 2.67-.912 3.968t-2.851 1.298q-1.914 0-2.835-1.265-.92-1.273-.953-3.796v-2.029q0-2.637.912-3.919.912-1.281 2.86-1.281 1.93 0 2.842 1.24.912 1.232.937 3.812v1.972zm-1.52-2.079q0-1.93-.542-2.81-.543-.887-1.718-.887-1.166 0-1.7.88-.534.878-.55 2.702v2.432q0 1.94.558 2.868.567.92 1.709.92 1.125 0 1.668-.871.55-.871.575-2.744v-2.49zM206.851 72.198q0 2.67-.912 3.968t-2.85 1.298q-1.915 0-2.835-1.265-.92-1.273-.953-3.796v-2.029q0-2.637.912-3.919.912-1.281 2.859-1.281 1.93 0 2.843 1.24.912 1.232.936 3.812v1.972zm-1.52-2.079q0-1.93-.542-2.81-.542-.887-1.717-.887-1.167 0-1.7.88-.535.878-.551 2.702v2.432q0 1.94.559 2.868.566.92 1.708.92 1.126 0 1.668-.871.55-.871.575-2.744v-2.49zM209.275 78.327h-1.306l4.995-12.99h1.298l-4.987 12.99zM217.335 68.41l.04.986q.978-1.15 2.638-1.15 1.865 0 2.539 1.43.443-.641 1.15-1.035.715-.395 1.684-.395 2.925 0 2.974 3.098V77.3h-1.52v-5.866q0-.953-.435-1.421-.436-.477-1.463-.477-.846 0-1.404.51-.56.5-.65 1.355V77.3h-1.528v-5.825q0-1.939-1.897-1.939-1.496 0-2.046 1.274v6.49h-1.52v-8.89h1.438zM230.258 72.773q0-1.306.51-2.35.517-1.043 1.429-1.61.92-.567 2.095-.567 1.816 0 2.933 1.257 1.126 1.257 1.126 3.344v.107q0 1.298-.502 2.333-.493 1.027-1.42 1.602-.921.575-2.12.575-1.808 0-2.934-1.257-1.117-1.257-1.117-3.327v-.107zm1.528.18q0 1.48.682 2.375.69.896 1.84.896 1.159 0 1.84-.904.683-.912.683-2.547 0-1.462-.699-2.366-.69-.912-1.84-.912-1.126 0-1.816.896-.69.895-.69 2.563zM241.908 77.3h-1.52v-8.89h1.52v8.89zm-1.643-11.247q0-.37.222-.625.23-.254.673-.254.444 0 .674.254.23.255.23.625t-.23.616q-.23.246-.674.246-.443 0-.673-.246-.222-.247-.222-.616zM249.508 74.942q0-.616-.469-.953-.46-.345-1.618-.592-1.15-.246-1.832-.591-.674-.345-1.003-.822-.32-.476-.32-1.133 0-1.093.92-1.849.928-.756 2.366-.756 1.512 0 2.449.78.944.781.944 1.997h-1.528q0-.624-.534-1.076-.526-.452-1.33-.452-.83 0-1.299.361-.468.362-.468.945 0 .55.435.83.436.28 1.57.534 1.141.255 1.848.608.707.353 1.043.855.346.492.346 1.207 0 1.192-.954 1.915-.953.714-2.472.714-1.069 0-1.89-.378-.822-.378-1.29-1.051-.46-.682-.46-1.47h1.52q.04.763.608 1.215.575.444 1.512.444.862 0 1.38-.345.526-.354.526-.937zM183.527 110.952h-7.838v-1.093l4.14-4.6q.92-1.044 1.266-1.693.353-.657.353-1.356 0-.936-.567-1.536t-1.511-.6q-1.134 0-1.767.65-.624.64-.624 1.79h-1.52q0-1.651 1.06-2.67 1.068-1.019 2.85-1.019 1.668 0 2.638.88.97.87.97 2.324 0 1.767-2.252 4.207l-3.204 3.475h6.006v1.24zM192.654 105.85q0 2.67-.912 3.968-.911 1.298-2.85 1.298-1.915 0-2.835-1.265-.92-1.274-.953-3.796v-2.03q0-2.636.912-3.918t2.86-1.282q1.93 0 2.842 1.24.912 1.233.936 3.813v1.972zm-1.52-2.079q0-1.93-.542-2.81-.542-.887-1.717-.887-1.166 0-1.7.88-.535.878-.551 2.702v2.432q0 1.939.559 2.867.567.92 1.709.92 1.125 0 1.667-.87.55-.871.576-2.744v-2.49zM202.119 105.85q0 2.67-.912 3.968t-2.85 1.298q-1.915 0-2.835-1.265-.92-1.274-.953-3.796v-2.03q0-2.636.912-3.918t2.859-1.282q1.93 0 2.842 1.24.912 1.233.937 3.813v1.972zm-1.52-2.079q0-1.93-.542-2.81-.542-.887-1.717-.887-1.167 0-1.7.88-.535.878-.551 2.702v2.432q0 1.939.558 2.867.567.92 1.71.92 1.125 0 1.667-.87.55-.871.575-2.744v-2.49zM211.584 105.85q0 2.67-.912 3.968t-2.851 1.298q-1.915 0-2.835-1.265-.92-1.274-.953-3.796v-2.03q0-2.636.912-3.918t2.86-1.282q1.93 0 2.842 1.24.912 1.233.937 3.813v1.972zm-1.52-2.079q0-1.93-.543-2.81-.542-.887-1.717-.887-1.166 0-1.7.88-.534.878-.55 2.702v2.432q0 1.939.558 2.867.567.92 1.709.92 1.125 0 1.668-.87.55-.871.575-2.744v-2.49zM214.007 111.979h-1.306l4.995-12.99h1.298l-4.987 12.99zM222.067 102.062l.041.986q.978-1.15 2.637-1.15 1.865 0 2.539 1.43.444-.641 1.15-1.036.715-.394 1.684-.394 2.925 0 2.974 3.097v5.957h-1.52v-5.866q0-.953-.435-1.422-.435-.476-1.462-.476-.847 0-1.405.51-.559.5-.65 1.355v5.899h-1.527v-5.825q0-1.94-1.898-1.94-1.495 0-2.046 1.274v6.49h-1.52v-8.889h1.438zM234.99 106.425q0-1.306.51-2.35.517-1.043 1.43-1.61.92-.567 2.094-.567 1.816 0 2.933 1.257 1.126 1.257 1.126 3.344v.107q0 1.298-.501 2.333-.493 1.027-1.422 1.602-.92.575-2.12.575-1.807 0-2.932-1.257-1.118-1.257-1.118-3.327v-.107zm1.528.18q0 1.48.682 2.375.69.896 1.84.896 1.16 0 1.841-.904.682-.912.682-2.547 0-1.463-.698-2.366-.69-.912-1.84-.912-1.126 0-1.816.895-.69.896-.69 2.564zM246.64 110.952h-1.52v-8.89h1.52v8.89zm-1.643-11.248q0-.37.222-.624.23-.255.674-.255.443 0 .673.255.23.255.23.624 0 .37-.23.617-.23.246-.673.246-.444 0-.674-.246-.222-.247-.222-.617zM254.24 108.594q0-.616-.468-.953-.46-.345-1.619-.592-1.15-.246-1.832-.591-.674-.345-1.002-.822-.32-.476-.32-1.134 0-1.092.92-1.848.928-.756 2.366-.756 1.511 0 2.448.78.945.781.945 1.997h-1.528q0-.624-.535-1.076-.525-.452-1.33-.452-.83 0-1.299.361-.468.362-.468.945 0 .55.436.83.435.28 1.569.534 1.142.255 1.848.608.707.353 1.044.854.345.493.345 1.208 0 1.191-.953 1.914-.953.715-2.473.715-1.068 0-1.89-.378-.821-.378-1.29-1.051-.46-.682-.46-1.471h1.52q.041.764.608 1.216.575.444 1.512.444.862 0 1.38-.346.526-.353.526-.936z"/></g><g style="line-height:125%;-inkscape-font-specification:'roboto, Normal';text-align:start" font-weight="400" font-size="16.826" font-family="roboto" letter-spacing="0" word-spacing="0" fill="#fff"><path d="M195.367 28.742h5.669v1.29h-7.255V18.068h1.586v10.673zM204.264 30.031h-1.52v-8.889h1.52v8.89zm-1.643-11.247q0-.37.222-.624.23-.255.674-.255.443 0 .673.255.23.254.23.624t-.23.616q-.23.247-.673.247-.444 0-.674-.247-.222-.246-.222-.616zM208.118 21.142l.04.986q.978-1.15 2.638-1.15 1.865 0 2.539 1.43.443-.642 1.15-1.036.715-.394 1.684-.394 2.925 0 2.974 3.097v5.956h-1.52v-5.866q0-.953-.435-1.421-.436-.476-1.463-.476-.846 0-1.405.509-.558.501-.649 1.356v5.898h-1.528v-5.825q0-1.938-1.898-1.938-1.495 0-2.045 1.273v6.49h-1.52v-8.889h1.438zM223.095 30.031h-1.52v-8.889h1.52v8.89zm-1.643-11.247q0-.37.222-.624.23-.255.673-.255.444 0 .674.255.23.254.23.624t-.23.616q-.23.247-.674.247-.443 0-.673-.247-.222-.246-.222-.616zM227.58 18.99v2.152h1.66v1.175h-1.66v5.513q0 .534.223.805.221.263.755.263.263 0 .723-.099v1.232q-.6.165-1.166.165-1.019 0-1.537-.616-.517-.617-.517-1.75v-5.513h-1.619v-1.175h1.619v-2.153h1.52zM234.696 30.196q-1.808 0-2.942-1.183-1.133-1.192-1.133-3.18v-.28q0-1.322.5-2.357.51-1.043 1.414-1.627.912-.591 1.972-.591 1.733 0 2.694 1.142.962 1.142.962 3.27v.632h-6.023q.033 1.315.765 2.128.739.805 1.873.805.805 0 1.364-.328.558-.33.977-.871l.929.723q-1.118 1.717-3.352 1.717zm-.19-7.97q-.92 0-1.544.674-.624.666-.772 1.873h4.453v-.115q-.066-1.158-.625-1.79-.558-.642-1.511-.642z"/></g><path d="M269.119 45.475H25.105" fill="none" stroke="#fff" stroke-width=".881"/><g style="line-height:125%;-inkscape-font-specification:'roboto, Normal';text-align:start" font-weight="400" font-size="16.826" font-family="roboto" letter-spacing="0" word-spacing="0" fill="#fff"><path d="M34.586 28.58h-5.012l-1.125 3.122h-1.627L31.39 19.74h1.38l4.576 11.962h-1.618l-1.142-3.122zm-4.535-1.298h4.067l-2.038-5.595-2.03 5.595zM42.284 30.626q.813 0 1.421-.493.608-.493.674-1.232h1.438q-.041.764-.526 1.454-.485.69-1.298 1.1-.805.412-1.709.412-1.816 0-2.892-1.208-1.068-1.216-1.068-3.32v-.254q0-1.298.477-2.309.476-1.01 1.363-1.569.896-.558 2.112-.558 1.495 0 2.481.895.994.896 1.06 2.325h-1.438q-.066-.863-.657-1.413-.583-.559-1.446-.559-1.159 0-1.8.838-.632.83-.632 2.408v.287q0 1.536.633 2.366.632.83 1.807.83zM49.588 20.66v2.153h1.66v1.175h-1.66V29.5q0 .535.222.806.222.263.756.263.263 0 .723-.1v1.233q-.6.165-1.167.165-1.019 0-1.536-.617-.518-.616-.518-1.75v-5.512H46.45v-1.175h1.618V20.66h1.52zM54.665 31.702h-1.52v-8.89h1.52v8.89zm-1.643-11.247q0-.37.222-.624.23-.255.674-.255.443 0 .673.255.23.254.23.624t-.23.616q-.23.247-.673.247-.444 0-.674-.247-.222-.246-.222-.616zM56.686 27.175q0-1.306.51-2.35.517-1.043 1.43-1.61.92-.566 2.094-.566 1.816 0 2.933 1.257 1.126 1.257 1.126 3.343v.107q0 1.298-.501 2.333-.493 1.027-1.422 1.603-.92.575-2.12.575-1.807 0-2.932-1.257-1.118-1.257-1.118-3.328v-.107zm1.529.181q0 1.479.681 2.375.69.895 1.84.895 1.16 0 1.841-.904.682-.912.682-2.547 0-1.462-.698-2.366-.69-.912-1.84-.912-1.126 0-1.816.896-.69.895-.69 2.563zM68.123 22.813l.049 1.117q1.019-1.281 2.662-1.281 2.818 0 2.843 3.179v5.874h-1.52V25.82q-.008-.961-.444-1.422-.427-.46-1.34-.46-.739 0-1.297.395-.559.394-.871 1.035v6.334h-1.52v-8.89h1.438z"/></g><g style="line-height:125%;-inkscape-font-specification:'roboto, Normal';text-align:start" font-weight="400" font-size="10.641" font-family="roboto" letter-spacing="0" word-spacing="0" fill="#fff"><path d="M26.095 146.824q-1.284-.369-1.87-.904-.583-.54-.583-1.33 0-.894.712-1.476.717-.587 1.86-.587.78 0 1.387.302.614.301.946.83.338.53.338 1.16h-1.003q0-.686-.436-1.076-.437-.395-1.232-.395-.738 0-1.153.328-.41.322-.41.898 0 .463.389.785.395.317 1.335.582.946.265 1.476.587.535.317.79.743.26.426.26 1.003 0 .92-.718 1.475-.717.551-1.917.551-.78 0-1.455-.296-.675-.301-1.044-.821-.364-.52-.364-1.18h1.003q0 .686.504 1.086.51.395 1.356.395.79 0 1.21-.322.422-.322.422-.878t-.39-.857q-.39-.307-1.413-.603zM31.077 150.196h-.96v-5.622h.96v5.622zm-1.039-7.113q0-.234.14-.395.146-.16.427-.16.28 0 .426.16.145.161.145.395t-.145.39q-.146.156-.426.156-.281 0-.426-.156-.14-.156-.14-.39zM37.104 148.892l1.393-4.318h.982l-2.016 5.622h-.733l-2.036-5.622h.982l1.428 4.318zM40.066 147.333q0-.826.322-1.486.327-.66.904-1.018.582-.359 1.325-.359 1.148 0 1.855.795.712.795.712 2.115v.068q0 .82-.317 1.475-.312.65-.899 1.013-.582.364-1.34.364-1.144 0-1.855-.795-.707-.795-.707-2.104v-.068zm.966.115q0 .935.432 1.501.436.567 1.164.567.732 0 1.163-.572.432-.577.432-1.61 0-.926-.442-1.497-.436-.577-1.164-.577-.712 0-1.148.567-.437.566-.437 1.62zM49.86 149.64q-.561.66-1.647.66-.899 0-1.372-.52-.467-.524-.473-1.548v-3.658h.962v3.632q0 1.278 1.039 1.278 1.101 0 1.465-.82v-4.09h.961v5.622h-.914l-.021-.556zM55.523 148.705q0-.39-.296-.603-.29-.218-1.023-.374-.728-.156-1.159-.374-.426-.218-.634-.52-.203-.3-.203-.716 0-.692.582-1.17.587-.478 1.497-.478.956 0 1.548.494.598.494.598 1.263h-.967q0-.395-.338-.681-.332-.286-.841-.286-.525 0-.821.229-.296.228-.296.597 0 .348.275.525.275.177.992.338.723.16 1.17.384.446.224.66.54.218.312.218.764 0 .754-.603 1.211-.603.452-1.564.452-.676 0-1.195-.239-.52-.239-.816-.665-.29-.431-.29-.93h.96q.026.483.385.769.364.28.956.28.545 0 .873-.218.332-.223.332-.592zM63.847 150.196q-.083-.166-.135-.592-.67.696-1.6.696-.832 0-1.367-.468-.53-.472-.53-1.195 0-.878.665-1.36.67-.49 1.881-.49h.935v-.44q0-.505-.301-.801-.301-.301-.889-.301-.514 0-.862.26t-.348.628h-.967q0-.42.297-.81.3-.395.81-.624.514-.229 1.128-.229.971 0 1.522.489.55.483.571 1.335v2.588q0 .774.198 1.231v.083h-1.008zm-1.595-.732q.452 0 .857-.234.405-.234.587-.608v-1.154h-.753q-1.767 0-1.767 1.034 0 .452.302.707.301.255.774.255zM67.946 148.892l1.393-4.318h.982l-2.016 5.622h-.733l-2.036-5.622h.981l1.43 4.318zM73.516 150.3q-1.143 0-1.86-.748-.717-.753-.717-2.01v-.178q0-.836.317-1.49.322-.66.894-1.03.576-.374 1.247-.374 1.096 0 1.704.723.608.722.608 2.068v.4H71.9q.021.831.483 1.345.468.51 1.185.51.51 0 .863-.208t.618-.551l.587.457q-.707 1.086-2.12 1.086zm-.12-5.04q-.581 0-.976.426-.395.421-.489 1.185h2.817v-.073q-.042-.732-.395-1.132-.354-.406-.956-.406zM77.72 149.412h3.288v.784h-4.463v-.706l3.102-4.12h-3.055v-.796h4.26v.681l-3.132 4.157zM89.493 147.448q0 1.288-.592 2.073-.593.78-1.59.78-1.065 0-1.647-.754l-.047.65h-.883v-7.981h.96v2.977q.583-.723 1.606-.723 1.024 0 1.606.775.587.774.587 2.12v.083zm-.961-.11q0-.981-.38-1.517-.379-.535-1.09-.535-.951 0-1.367.883v2.432q.442.883 1.377.883.69 0 1.075-.535t.385-1.61zM93.031 150.3q-1.143 0-1.86-.748-.717-.753-.717-2.01v-.178q0-.836.317-1.49.322-.66.894-1.03.577-.374 1.247-.374 1.096 0 1.704.723.608.722.608 2.068v.4h-3.809q.021.831.484 1.345.467.51 1.184.51.51 0 .863-.208t.618-.551l.587.457q-.706 1.086-2.12 1.086zm-.12-5.04q-.581 0-.976.426-.395.421-.488 1.185h2.816v-.073q-.042-.732-.395-1.132-.353-.406-.956-.406zM99.604 148.705q0-.39-.296-.603-.291-.218-1.024-.374-.727-.156-1.158-.374-.426-.218-.634-.52-.203-.3-.203-.716 0-.692.582-1.17.587-.478 1.496-.478.956 0 1.549.494.597.494.597 1.263h-.966q0-.395-.338-.681-.332-.286-.842-.286-.524 0-.82.229-.297.228-.297.597 0 .348.276.525.275.177.992.338.722.16 1.17.384.446.224.659.54.218.312.218.764 0 .754-.603 1.211-.602.452-1.563.452-.676 0-1.196-.239-.52-.239-.815-.665-.291-.431-.291-.93h.961q.026.483.384.769.364.28.957.28.545 0 .872-.218.333-.223.333-.592zM101.563 147.333q0-.826.322-1.486.327-.66.904-1.018.582-.359 1.325-.359 1.148 0 1.855.795.712.795.712 2.115v.068q0 .82-.317 1.475-.312.65-.9 1.013-.581.364-1.34.364-1.143 0-1.855-.795-.706-.795-.706-2.104v-.068zm.966.115q0 .935.431 1.501.437.567 1.164.567.733 0 1.164-.572.431-.577.431-1.61 0-.926-.441-1.497-.437-.577-1.164-.577-.712 0-1.148.567-.437.566-.437 1.62zM108.93 150.196h-.96v-5.622h.96v5.622zm-1.039-7.113q0-.234.14-.395.146-.16.426-.16.281 0 .427.16.145.161.145.395t-.145.39q-.146.156-.427.156-.28 0-.426-.156-.14-.156-.14-.39zM111.372 144.574l.031.707q.645-.81 1.684-.81 1.782 0 1.798 2.01v3.715h-.962v-3.72q-.005-.608-.28-.899-.27-.29-.847-.29-.468 0-.821.249-.353.249-.55.654v4.006h-.962v-5.622h.91zM118.75 147.339q0-1.294.613-2.079.613-.79 1.606-.79.987 0 1.564.676v-2.93h.96v7.98h-.882l-.047-.603q-.577.707-1.606.707-.976 0-1.595-.8-.613-.8-.613-2.089v-.072zm.961.109q0 .956.395 1.496t1.091.54q.915 0 1.336-.82v-2.583q-.432-.795-1.325-.795-.707 0-1.102.546-.395.545-.395 1.616zM127.323 150.3q-1.143 0-1.86-.748-.717-.753-.717-2.01v-.178q0-.836.317-1.49.322-.66.894-1.03.576-.374 1.247-.374 1.096 0 1.704.723.608.722.608 2.068v.4h-3.809q.021.831.484 1.345.467.51 1.184.51.51 0 .863-.208t.618-.551l.587.457q-.707 1.086-2.12 1.086zm-.12-5.04q-.581 0-.976.426-.395.421-.489 1.185h2.817v-.073q-.042-.732-.395-1.132-.354-.406-.956-.406zM138.01 147.448q0 1.283-.586 2.068-.587.784-1.59.784-1.024 0-1.61-.65v2.708h-.962v-7.784h.878l.047.624q.587-.728 1.631-.728 1.013 0 1.6.764.593.764.593 2.125v.089zm-.96-.11q0-.95-.406-1.501-.405-.55-1.112-.55-.872 0-1.309.773v2.687q.431.769 1.32.769.69 0 1.096-.546.41-.55.41-1.631zM140.27 150.196h-.96v-7.98h.96v7.98zM145.274 149.64q-.56.66-1.647.66-.898 0-1.371-.52-.468-.524-.473-1.548v-3.658h.961v3.632q0 1.278 1.04 1.278 1.1 0 1.464-.82v-4.09h.962v5.622h-.915l-.02-.556zM150.938 148.705q0-.39-.296-.603-.291-.218-1.024-.374-.727-.156-1.159-.374-.426-.218-.633-.52-.203-.3-.203-.716 0-.692.582-1.17.587-.478 1.496-.478.956 0 1.549.494.597.494.597 1.263h-.966q0-.395-.338-.681-.333-.286-.842-.286-.525 0-.82.229-.297.228-.297.597 0 .348.275.525.276.177.993.338.722.16 1.169.384.447.224.66.54.218.312.218.764 0 .754-.603 1.211-.602.452-1.564.452-.675 0-1.195-.239t-.815-.665q-.291-.431-.291-.93h.96q.027.483.385.769.364.28.956.28.546 0 .873-.218.333-.223.333-.592zM153.12 151.703l-.546-.374q.489-.68.51-1.403v-.868h.94v.754q0 .524-.26 1.05-.254.524-.644.84zM158.794 144.574l.026.624q.618-.728 1.668-.728 1.179 0 1.605.905.28-.406.727-.655.452-.25 1.066-.25 1.85 0 1.88 1.96v3.766h-.96v-3.71q0-.602-.276-.898-.276-.302-.925-.302-.535 0-.888.322-.354.317-.41.858v3.73h-.967v-3.684q0-1.226-1.2-1.226-.946 0-1.294.806v4.104h-.961v-5.622h.909zM169.554 150.3q-1.143 0-1.86-.748-.717-.753-.717-2.01v-.178q0-.836.317-1.49.322-.66.894-1.03.576-.374 1.247-.374 1.096 0 1.704.723.608.722.608 2.068v.4h-3.809q.021.831.483 1.345.468.51 1.185.51.51 0 .863-.208t.618-.551l.587.457q-.707 1.086-2.12 1.086zm-.12-5.04q-.581 0-.976.426-.395.421-.489 1.185h2.816v-.073q-.041-.732-.394-1.132-.354-.406-.956-.406zM175.57 145.437q-.217-.037-.472-.037-.946 0-1.283.806v3.99h-.962v-5.622h.936l.015.65q.473-.754 1.34-.754.281 0 .427.073v.894zM178.6 149.516q.514 0 .899-.312.384-.312.426-.78h.909q-.026.484-.332.92-.307.437-.821.696-.51.26-1.081.26-1.148 0-1.829-.764-.675-.769-.675-2.099v-.16q0-.822.3-1.46.302-.64.863-.993.567-.354 1.336-.354.945 0 1.569.567.628.566.67 1.47h-.91q-.04-.545-.415-.893-.369-.354-.914-.354-.733 0-1.138.53-.4.525-.4 1.523v.181q0 .972.4 1.497.4.525 1.143.525zM182.96 150.196h-.962v-5.622h.961v5.622zm-1.04-7.113q0-.234.14-.395.146-.16.426-.16t.426.16q.146.161.146.395t-.146.39q-.145.156-.426.156-.28 0-.426-.156-.14-.156-.14-.39zM186.897 147.339q0-1.294.614-2.079.613-.79 1.605-.79.987 0 1.564.676v-2.93h.961v7.98h-.883l-.047-.603q-.577.707-1.605.707-.977 0-1.595-.8-.614-.8-.614-2.089v-.072zm.962.109q0 .956.395 1.496.394.54 1.09.54.915 0 1.336-.82v-2.583q-.431-.795-1.325-.795-.707 0-1.101.546-.395.545-.395 1.616zM195.47 150.3q-1.143 0-1.86-.748-.717-.753-.717-2.01v-.178q0-.836.317-1.49.322-.66.894-1.03.577-.374 1.247-.374 1.096 0 1.704.723.608.722.608 2.068v.4h-3.808q.02.831.483 1.345.467.51 1.184.51.51 0 .863-.208t.618-.551l.587.457q-.706 1.086-2.12 1.086zm-.12-5.04q-.581 0-.976.426-.395.421-.488 1.185h2.816v-.073q-.042-.732-.395-1.132-.353-.406-.956-.406zM202.318 144.574l.032.707q.644-.81 1.683-.81 1.782 0 1.798 2.01v3.715h-.961v-3.72q-.006-.608-.281-.899-.27-.29-.847-.29-.468 0-.82.249-.354.249-.552.654v4.006h-.96v-5.622h.908zM207.036 147.333q0-.826.322-1.486.328-.66.904-1.018.582-.359 1.325-.359 1.148 0 1.855.795.712.795.712 2.115v.068q0 .82-.317 1.475-.312.65-.899 1.013-.582.364-1.34.364-1.143 0-1.855-.795-.707-.795-.707-2.104v-.068zm.967.115q0 .935.43 1.501.437.567 1.165.567.732 0 1.163-.572.432-.577.432-1.61 0-.926-.442-1.497-.436-.577-1.164-.577-.712 0-1.148.567-.436.566-.436 1.62zM216.83 149.64q-.561.66-1.647.66-.899 0-1.372-.52-.467-.524-.472-1.548v-3.658h.96v3.632q0 1.278 1.04 1.278 1.101 0 1.465-.82v-4.09h.961v5.622h-.914l-.02-.556zM222.493 148.705q0-.39-.296-.603-.29-.218-1.023-.374-.728-.156-1.159-.374-.426-.218-.634-.52-.202-.3-.202-.716 0-.692.581-1.17.588-.478 1.497-.478.956 0 1.548.494.598.494.598 1.263h-.967q0-.395-.337-.681-.333-.286-.842-.286-.525 0-.821.229-.296.228-.296.597 0 .348.275.525.276.177.993.338.722.16 1.169.384.446.224.66.54.218.312.218.764 0 .754-.603 1.211-.603.452-1.564.452-.675 0-1.195-.239t-.816-.665q-.29-.431-.29-.93h.96q.027.483.385.769.364.28.956.28.546 0 .873-.218.332-.223.332-.592zM229.601 149.516q.515 0 .9-.312.384-.312.425-.78h.91q-.027.484-.333.92-.307.437-.821.696-.51.26-1.08.26-1.15 0-1.83-.764-.675-.769-.675-2.099v-.16q0-.822.301-1.46.302-.64.863-.993.566-.354 1.335-.354.946 0 1.57.567.628.566.67 1.47h-.91q-.041-.545-.416-.893-.368-.354-.914-.354-.733 0-1.138.53-.4.525-.4 1.523v.181q0 .972.4 1.497.4.525 1.143.525zM232.661 147.333q0-.826.323-1.486.327-.66.904-1.018.582-.359 1.325-.359 1.148 0 1.854.795.712.795.712 2.115v.068q0 .82-.317 1.475-.311.65-.899 1.013-.581.364-1.34.364-1.143 0-1.855-.795-.707-.795-.707-2.104v-.068zm.967.115q0 .935.431 1.501.437.567 1.164.567.733 0 1.164-.572.431-.577.431-1.61 0-.926-.442-1.497-.436-.577-1.163-.577-.712 0-1.149.567-.436.566-.436 1.62zM239.894 144.574l.031.707q.644-.81 1.684-.81 1.782 0 1.797 2.01v3.715h-.96v-3.72q-.006-.608-.282-.899-.27-.29-.846-.29-.468 0-.821.249-.354.249-.551.654v4.006h-.961v-5.622h.909zM246.17 143.213v1.361h1.05v.743h-1.05v3.487q0 .337.14.509.141.166.479.166.166 0 .457-.062v.78q-.38.103-.738.103-.644 0-.971-.39-.328-.39-.328-1.106v-3.487h-1.023v-.743h1.023v-1.361h.961zM251.808 150.196q-.083-.166-.135-.592-.67.696-1.6.696-.832 0-1.367-.468-.53-.472-.53-1.195 0-.878.665-1.36.67-.49 1.88-.49h.936v-.44q0-.505-.301-.801-.302-.301-.889-.301-.514 0-.862.26t-.348.628h-.967q0-.42.296-.81.302-.395.81-.624.515-.229 1.128-.229.972 0 1.523.489.55.483.571 1.335v2.588q0 .774.198 1.231v.083h-1.008zm-1.595-.732q.452 0 .857-.234.405-.234.587-.608v-1.154h-.753q-1.767 0-1.767 1.034 0 .452.302.707.3.255.774.255zM256.39 149.516q.515 0 .9-.312.384-.312.425-.78h.91q-.026.484-.333.92-.307.437-.82.696-.51.26-1.082.26-1.148 0-1.829-.764-.675-.769-.675-2.099v-.16q0-.822.301-1.46.302-.64.863-.993.566-.354 1.335-.354.946 0 1.57.567.628.566.67 1.47h-.91q-.041-.545-.415-.893-.37-.354-.915-.354-.732 0-1.138.53-.4.525-.4 1.523v.181q0 .972.4 1.497.4.525 1.143.525zM261.01 143.213v1.361h1.049v.743h-1.05v3.487q0 .337.14.509.141.166.479.166.166 0 .457-.062v.78q-.38.103-.738.103-.644 0-.971-.39-.328-.39-.328-1.106v-3.487h-1.023v-.743h1.023v-1.361h.961zM265.509 150.3q-1.143 0-1.86-.748-.717-.753-.717-2.01v-.178q0-.836.317-1.49.322-.66.893-1.03.577-.374 1.247-.374 1.097 0 1.705.723.608.722.608 2.068v.4h-3.809q.02.831.483 1.345.468.51 1.185.51.51 0 .862-.208.354-.208.619-.551l.587.457q-.707 1.086-2.12 1.086zm-.12-5.04q-.582 0-.976.426-.395.421-.489 1.185h2.816v-.073q-.041-.732-.395-1.132-.353-.406-.956-.406zM271.526 145.437q-.219-.037-.473-.037-.946 0-1.284.806v3.99h-.96v-5.622h.934l.016.65q.473-.754 1.34-.754.281 0 .427.073v.894z"/></g></svg>