<svg xmlns="http://www.w3.org/2000/svg" viewBox="0 0 489.381 485.391" height="517.751" width="522.007"><g fill="#2e3436"><path d="M473.725 3.661H213.576c-8.655 0-15.655 7.022-15.655 15.664v110.484l11.32-13.234c5.374-6.292 12.46-10.172 19.991-11.793V34.983h228.836v204.531H229.233v-34.238l-7.05 8.244c-6.16 7.189-14.858 11.65-24.262 12.529v29.124c0 8.642 7 15.655 15.655 15.655h84.49L255.14 465.705c-1.923 8.739 3.6 17.382 12.346 19.31 8.667 1.904 17.382-3.601 19.287-12.331l44.457-201.855h25.844l44.457 201.855c1.666 7.557 8.37 12.714 15.803 12.705a16.32 16.32 0 0 0 3.502-.374c8.746-1.928 14.268-10.57 12.328-19.31l-42.92-194.877h83.481c8.647 0 15.655-7.013 15.655-15.655V19.325c0-8.642-7.009-15.664-15.656-15.664z"/><path d="M349.368 95.121c-1.234-3.11-4.732-4.637-7.84-3.406l-92.234 32.555c-8.465-6.554-20.678-5.383-27.737 2.827l-29.267 34.178-25.95-22.245c.17 1.837.56 3.622.56 5.507v48.291l14.437 12.371c8.568 7.338 21.385 6.204 28.55-2.198l34.841-40.743 28.1-16.439 73.951-43.267a6.032 6.032 0 0 0 2.59-7.431zM109.928 103.781h-17.38c-13.309 0-25.01 6.468-32.449 16.327l-53.352 49.12c-8.313 7.405-9.067 20.232-1.58 28.595l43.527 48.585c7.421 8.309 20.267 9.044 28.58 1.576 8.333-7.469 9.037-20.262 1.57-28.586L48.84 185.894l42.616-38.134-24.82 33.721 24.28 27.107c13.415 14.992 12.15 38.027-2.835 51.453-10.23 9.172-24.193 11.324-36.297 7.094 0 0 .188 93.659.188 193.962 0 13.416 10.874 24.291 24.291 24.291 13.403 0 24.291-10.875 24.291-24.291V316.326h16.203v144.771c0 7.004-1.953 13.49-5.067 19.231 4.076 3.135 9.148 5.06 14.676 5.06 13.424 0 24.298-10.875 24.298-24.291 0-100.272.031-58.237.031-316.561.002-22.509-18.245-40.755-40.767-40.755zM79.592 89.203c6.495 3.376 13.787 5.471 21.62 5.471 7.853 0 15.145-2.095 21.66-5.477 15.203-7.877 25.683-23.559 25.683-41.862C148.555 21.189 127.36 0 101.211 0 75.067 0 53.876 21.189 53.876 47.335c.001 18.313 10.492 34.001 25.716 41.868z"/></g></svg>