<?xml version="1.0" encoding="UTF-8" standalone="no"?>
<!-- Created with Inkscape (http://www.inkscape.org/) -->

<svg
   xmlns:dc="http://purl.org/dc/elements/1.1/"
   xmlns:cc="http://creativecommons.org/ns#"
   xmlns:rdf="http://www.w3.org/1999/02/22-rdf-syntax-ns#"
   xmlns:svg="http://www.w3.org/2000/svg"
   xmlns="http://www.w3.org/2000/svg"
   xmlns:sodipodi="http://sodipodi.sourceforge.net/DTD/sodipodi-0.dtd"
   xmlns:inkscape="http://www.inkscape.org/namespaces/inkscape"
   width="138.11432mm"
   height="136.98824mm"
   viewBox="0 0 489.38144 485.39138"
   id="svg9234"
   version="1.1"
   inkscape:version="0.91 r13725"
   sodipodi:docname="teacher.svg">
  <defs
     id="defs9236" />
  <sodipodi:namedview
     id="base"
     pagecolor="#ffffff"
     bordercolor="#666666"
     borderopacity="1.0"
     inkscape:pageopacity="0.0"
     inkscape:pageshadow="2"
     inkscape:zoom="1.2188637"
     inkscape:cx="100.68503"
     inkscape:cy="243.44327"
     inkscape:document-units="px"
     inkscape:current-layer="layer1"
     showgrid="false"
     inkscape:window-width="1920"
     inkscape:window-height="1080"
     inkscape:window-x="1680"
     inkscape:window-y="0"
     inkscape:window-maximized="0"
     fit-margin-top="0"
     fit-margin-left="0"
     fit-margin-right="0"
     fit-margin-bottom="0" />
  <metadata
     id="metadata9239">
    <rdf:RDF>
      <cc:Work
         rdf:about="">
        <dc:format>image/svg+xml</dc:format>
        <dc:type
           rdf:resource="http://purl.org/dc/dcmitype/StillImage" />
        <dc:title></dc:title>
      </cc:Work>
    </rdf:RDF>
  </metadata>
  <g
     inkscape:label="Layer 1"
     inkscape:groupmode="layer"
     id="layer1"
     transform="translate(464.69072,-206.80938)">
    <g
       id="g9183"
       transform="translate(-464.69028,204.81438)"
       style="display:inline;opacity:1;fill:#2e3436">
      <g
         id="XMLID_129_"
         style="fill:#2e3436">
        <path
           d="m 473.725,5.656 -260.149,0 c -8.655,0 -15.655,7.022 -15.655,15.664 l 0,110.484 11.319,-13.234 c 5.375,-6.292 12.461,-10.172 19.992,-11.793 l 0,-69.799 228.836,0 0,204.531 -228.835,0 0,-34.238 -7.05,8.244 c -6.161,7.189 -14.858,11.65 -24.262,12.529 l 0,29.124 c 0,8.642 7,15.655 15.655,15.655 l 84.489,0 -42.924,194.877 c -1.923,8.739 3.6,17.382 12.346,19.31 8.667,1.904 17.382,-3.601 19.287,-12.331 l 44.457,-201.855 25.844,0 44.457,201.855 c 1.666,7.557 8.369,12.714 15.803,12.705 1.154,0 2.334,-0.117 3.502,-0.374 8.746,-1.928 14.268,-10.57 12.328,-19.31 l -42.92,-194.877 83.481,0 c 8.647,0 15.655,-7.013 15.655,-15.655 l 0,-235.848 C 489.38,12.678 482.372,5.656 473.725,5.656 Z"
           id="XMLID_134_"
           inkscape:connector-curvature="0"
           style="fill:#2e3436" />
        <path
           d="m 349.368,97.116 c -1.234,-3.11 -4.732,-4.637 -7.84,-3.406 l -92.234,32.555 c -8.465,-6.554 -20.678,-5.383 -27.737,2.827 L 192.29,163.27 166.339,141.025 c 0.171,1.837 0.56,3.622 0.56,5.507 l 0,48.291 14.438,12.371 c 8.568,7.338 21.385,6.204 28.549,-2.198 l 34.842,-40.743 28.1,-16.439 73.951,-43.267 c 2.557,-1.474 3.69,-4.624 2.589,-7.431 z"
           id="XMLID_132_"
           inkscape:connector-curvature="0"
           style="fill:#2e3436" />
        <path
           d="m 109.928,105.776 -17.381,0 c -13.308,0 -25.01,6.468 -32.448,16.327 l -53.352,49.12 c -8.313,7.405 -9.067,20.232 -1.581,28.595 l 43.528,48.585 c 7.421,8.309 20.267,9.044 28.579,1.576 8.334,-7.469 9.038,-20.262 1.57,-28.586 l -30.003,-33.504 42.616,-38.134 -24.82,33.721 24.279,27.107 c 13.416,14.992 12.151,38.027 -2.834,51.453 -10.231,9.172 -24.193,11.324 -36.297,7.094 0,0 0.188,93.659 0.188,193.962 0,13.416 10.874,24.291 24.291,24.291 13.403,0 24.291,-10.875 24.291,-24.291 0,-100.272 0,-43.051 0,-144.771 l 16.203,0 c 0,101.646 0,44.468 0,144.771 0,7.004 -1.953,13.49 -5.067,19.231 4.076,3.135 9.148,5.06 14.676,5.06 13.424,0 24.298,-10.875 24.298,-24.291 0,-100.272 0.031,-58.237 0.031,-316.561 0.002,-22.509 -18.245,-40.755 -40.767,-40.755 z"
           id="XMLID_131_"
           inkscape:connector-curvature="0"
           style="fill:#2e3436" />
        <path
           d="m 79.592,91.198 c 6.495,3.376 13.787,5.471 21.62,5.471 7.853,0 15.145,-2.095 21.659,-5.477 15.204,-7.877 25.684,-23.559 25.684,-41.862 0,-26.146 -21.196,-47.335 -47.344,-47.335 -26.144,0 -47.335,21.189 -47.335,47.335 0.001,18.313 10.492,34.001 25.716,41.868 z"
           id="XMLID_130_"
           inkscape:connector-curvature="0"
           style="fill:#2e3436" />
      </g>
      <g
         id="g9147"
         style="fill:#2e3436" />
      <g
         id="g9149"
         style="fill:#2e3436" />
      <g
         id="g9151"
         style="fill:#2e3436" />
      <g
         id="g9153"
         style="fill:#2e3436" />
      <g
         id="g9155"
         style="fill:#2e3436" />
      <g
         id="g9157"
         style="fill:#2e3436" />
      <g
         id="g9159"
         style="fill:#2e3436" />
      <g
         id="g9161"
         style="fill:#2e3436" />
      <g
         id="g9163"
         style="fill:#2e3436" />
      <g
         id="g9165"
         style="fill:#2e3436" />
      <g
         id="g9167"
         style="fill:#2e3436" />
      <g
         id="g9169"
         style="fill:#2e3436" />
      <g
         id="g9171"
         style="fill:#2e3436" />
      <g
         id="g9173"
         style="fill:#2e3436" />
      <g
         id="g9175"
         style="fill:#2e3436" />
    </g>
  </g>
</svg>
