<?xml version="1.0" encoding="UTF-8" standalone="no"?>
<!-- Created with Inkscape (http://www.inkscape.org/) -->

<svg
   xmlns:dc="http://purl.org/dc/elements/1.1/"
   xmlns:cc="http://creativecommons.org/ns#"
   xmlns:rdf="http://www.w3.org/1999/02/22-rdf-syntax-ns#"
   xmlns:svg="http://www.w3.org/2000/svg"
   xmlns="http://www.w3.org/2000/svg"
   xmlns:sodipodi="http://sodipodi.sourceforge.net/DTD/sodipodi-0.dtd"
   xmlns:inkscape="http://www.inkscape.org/namespaces/inkscape"
   width="1169"
   height="2480"
   viewBox="0 0 1169 2480"
   id="svg2"
   version="1.1"
   inkscape:version="0.91 r13725"
   sodipodi:docname="flyer.svg"
   inkscape:export-filename="/home/renan/cyberlegume-landing-page/cl2 concepts/flyer.png"
   inkscape:export-xdpi="90"
   inkscape:export-ydpi="90">
  <defs
     id="defs4" />
  <sodipodi:namedview
     id="base"
     pagecolor="#ffffff"
     bordercolor="#666666"
     borderopacity="1.0"
     inkscape:pageopacity="0.0"
     inkscape:pageshadow="2"
     inkscape:zoom="0.24748737"
     inkscape:cx="-1153.4216"
     inkscape:cy="1403.8358"
     inkscape:document-units="px"
     inkscape:current-layer="layer1"
     showgrid="false"
     units="px"
     borderlayer="true"
     inkscape:window-width="1366"
     inkscape:window-height="744"
     inkscape:window-x="0"
     inkscape:window-y="24"
     inkscape:window-maximized="1"
     showguides="true"
     inkscape:guide-bbox="true">
    <sodipodi:guide
       position="121.21831,444.46712"
       orientation="1,0"
       id="guide7276" />
    <sodipodi:guide
       position="1058.6399,303.04576"
       orientation="1,0"
       id="guide7278" />
  </sodipodi:namedview>
  <metadata
     id="metadata7">
    <rdf:RDF>
      <cc:Work
         rdf:about="">
        <dc:format>image/svg+xml</dc:format>
        <dc:type
           rdf:resource="http://purl.org/dc/dcmitype/StillImage" />
        <dc:title></dc:title>
      </cc:Work>
    </rdf:RDF>
  </metadata>
  <g
     inkscape:label="Layer 1"
     inkscape:groupmode="layer"
     id="layer1"
     transform="translate(0,1427.6379)">
    <flowRoot
       xml:space="preserve"
       id="flowRoot7237"
       style="font-style:normal;font-variant:normal;font-weight:normal;font-stretch:normal;font-size:20px;line-height:125%;font-family:roboto;-inkscape-font-specification:'roboto, Normal';text-align:start;letter-spacing:0px;word-spacing:0px;writing-mode:lr-tb;text-anchor:start;fill:#000000;fill-opacity:1;stroke:none;stroke-width:1px;stroke-linecap:butt;stroke-linejoin:miter;stroke-opacity:1"
       transform="matrix(0.93061193,0,0,0.93061193,30.68022,-1543.4799)"><flowRegion
         id="flowRegion7239"><rect
           id="rect7241"
           width="1008.5714"
           height="331.42856"
           x="100"
           y="2074.2856" /></flowRegion><flowPara
         id="flowPara7243"
         style="font-size:50px">Vendez vos fruits et légumes en direct sur commande hebdomadaire. Oubliez excel et les mails, et simplifiez la commande pour vos clients. Un mois d'essai gratuit, puis 14.90€ / mois. </flowPara></flowRoot>    <g
       style="display:inline;opacity:1"
       id="g5877"
       transform="matrix(4.3342558,0,0,4.3342558,2018.9263,-2813.8751)">
      <rect
         ry="19.285715"
         y="399.08841"
         x="-437.83942"
         height="327.09326"
         width="216.89168"
         id="rect4395-4"
         style="color:#000000;clip-rule:nonzero;display:inline;overflow:visible;visibility:visible;opacity:1;isolation:auto;mix-blend-mode:normal;color-interpolation:sRGB;color-interpolation-filters:linearRGB;solid-color:#000000;solid-opacity:1;fill:#333333;fill-opacity:1;fill-rule:evenodd;stroke:none;stroke-width:3;stroke-linecap:butt;stroke-linejoin:miter;stroke-miterlimit:4;stroke-dasharray:none;stroke-dashoffset:0;stroke-opacity:1;color-rendering:auto;image-rendering:auto;shape-rendering:auto;text-rendering:auto;enable-background:accumulate" />
      <rect
         style="color:#000000;clip-rule:nonzero;display:inline;overflow:visible;visibility:visible;opacity:1;isolation:auto;mix-blend-mode:normal;color-interpolation:sRGB;color-interpolation-filters:linearRGB;solid-color:#000000;solid-opacity:1;fill:#ffffff;fill-opacity:1;fill-rule:evenodd;stroke:none;stroke-width:3;stroke-linecap:butt;stroke-linejoin:miter;stroke-miterlimit:4;stroke-dasharray:none;stroke-dashoffset:0;stroke-opacity:1;color-rendering:auto;image-rendering:auto;shape-rendering:auto;text-rendering:auto;enable-background:accumulate"
         id="rect5110"
         width="178.48878"
         height="287.24161"
         x="-417.38983"
         y="420.36694" />
      <rect
         style="color:#000000;clip-rule:nonzero;display:inline;overflow:visible;visibility:visible;opacity:1;isolation:auto;mix-blend-mode:normal;color-interpolation:sRGB;color-interpolation-filters:linearRGB;solid-color:#000000;solid-opacity:1;fill:#ececec;fill-opacity:1;fill-rule:evenodd;stroke:none;stroke-width:3;stroke-linecap:butt;stroke-linejoin:miter;stroke-miterlimit:4;stroke-dasharray:none;stroke-dashoffset:0;stroke-opacity:1;color-rendering:auto;image-rendering:auto;shape-rendering:auto;text-rendering:auto;enable-background:accumulate"
         id="rect5118"
         width="38.385796"
         height="34.850262"
         x="-411.63718"
         y="442.52896" />
      <g
         id="g5131"
         transform="matrix(0.14194716,0,0,0.14194716,-411.5196,386.0169)">
        <path
           style="fill:#4c9447"
           d="M 113.49292,634.69314 C 91.474135,631.1819 70.355852,622.35287 57.918935,611.45905 19.782457,578.0543 11.350913,529.3699 36.306433,486.66675 c 9.0246,-15.44263 23.688094,-26.18812 42.301051,-30.99844 l 8.885436,-2.29634 0.299453,-6.16946 c 0.359378,-7.40408 1.688246,-7.50669 4.362821,-0.33689 1.049232,2.8127 2.454451,5.3191 3.12271,5.56977 0.668259,0.25067 3.802516,0.23705 6.965016,-0.0303 l 5.75,-0.48603 0,-6.35593 c 0,-6.58828 2.36395,-14.39641 4.35858,-14.39641 0.76248,0 1.14352,2.73892 1.14776,8.25 0.008,10.23963 1.47397,13.45846 6.99366,15.35455 2.2,0.75574 4.49915,1.19231 5.10921,0.97016 0.68206,-0.24835 1.32358,-4.96173 1.66585,-12.2393 0.63642,-13.53193 2.31201,-20.70605 7.31164,-31.30525 2.67255,-5.66579 3.74803,-7.11486 4.4531,-6 1.52847,2.41681 1.07912,6.96491 -1.62721,16.46984 -1.7471,6.13605 -2.74438,12.62958 -3.13394,20.40599 l -0.57138,11.40598 4.8314,-0.66222 c 2.65727,-0.36422 5.92279,-1.37732 7.2567,-2.25133 2.35655,-1.54407 2.40517,-1.83076 1.71514,-10.11448 -0.51382,-6.16838 -0.40214,-8.335 0.40396,-7.8368 2.00303,1.23794 5.08553,8.39817 5.08553,11.81302 0,5.04165 1.35352,5.73984 11.12742,5.73984 8.11818,0 8.8647,-0.17452 10.69392,-2.5 2.54033,-3.22951 3.17866,-3.15153 3.17866,0.38829 0,2.70866 0.47259,3.0459 7.59853,5.42232 16.70146,5.56974 34.81743,19.90929 43.19343,34.18939 16.05388,27.37001 15.89804,66.05943 -0.39962,99.21277 -8.84558,17.99404 -22.44646,30.86131 -40.5628,38.37493 -19.82904,8.22396 -52.45108,11.92756 -74.32954,8.43869 z"
           id="path5135"
           inkscape:connector-curvature="0" />
        <path
           style="fill:#ea0101"
           d="M 120.49292,635.52824 C 107.15111,634.11542 86.822953,628.11535 74.55881,621.9703 57.048737,613.19674 41.650785,597.40375 32.11823,578.44091 20.203544,554.73936 19.022772,526.40704 28.91961,501.69086 c 9.793644,-24.45847 25.203689,-39.21198 47.570128,-45.54346 10.036396,-2.84109 11.907939,-2.65469 14.315494,1.42582 1.950859,3.30645 11.441628,11.59353 13.277488,11.59353 2.22484,0 0.5642,1.85228 -3.17055,3.53641 -4.307898,1.94259 -11.334925,9.12113 -12.212083,12.47538 -0.665875,2.54631 -0.258521,2.50145 3.609555,-0.39757 5.67407,-4.25256 11.912498,-6.82466 17.860888,-7.36404 6.38635,-0.5791 7.66376,0.77342 3.9256,4.15642 -1.04324,0.94411 -2.41951,3.79247 -3.05839,6.32967 -1.16528,4.62774 -0.57791,12.26373 0.94334,12.26373 0.4468,0 1.36793,-2.31588 2.04696,-5.14639 1.4775,-6.1589 6.1306,-11.72272 12.02793,-14.38204 4.12724,-1.86113 4.14011,-1.86036 8.61033,0.51108 5.25341,2.78693 10.81001,8.92198 12.37464,13.66284 0.6089,1.84498 1.5838,3.35451 2.16644,3.35451 1.59226,0 0.36267,-11.98327 -1.62373,-15.82455 -2.06108,-3.98568 -1.42043,-5.17545 2.78679,-5.17545 5.97703,0 13.51474,2.97564 19.13609,7.55429 5.36262,4.36791 5.48639,4.41156 5.48639,1.93487 0,-3.57387 -7.061,-10.88265 -13.60849,-14.08604 -2.96533,-1.4508 -5.39151,-2.79639 -5.39151,-2.99019 0,-0.1938 3.2625,-1.86189 7.25,-3.70685 6.62391,-3.06481 11.27759,-7.0196 14.25,-12.10996 2.37707,-4.07081 25.70321,7.40085 38.11392,18.74421 12.5042,11.42881 21.0403,28.40961 23.93538,47.61448 2.61799,17.36676 1.1857,33.42547 -4.60483,51.62905 -11.25791,35.39123 -33.74004,54.33633 -72.78649,61.33525 -10.54518,1.89018 -33.927,3.26104 -41.65798,2.44238 z m 14.2049,-174.11149 c -0.35315,-3.0213 -0.12753,-5.15644 0.61994,-5.86679 1.67733,-1.59402 10.00391,-3.45446 11.0005,-2.45787 2.05817,2.05817 -6.45164,13.07466 -10.09966,13.07466 -0.53107,0 -1.21542,-2.1375 -1.52078,-4.75 z m -28.2049,2.21418 c -3.72784,-1.28675 -10.5,-7.30614 -10.5,-9.33286 0,-1.73697 8.02377,-2.8269 11.36683,-1.54405 1.86364,0.71515 5.1991,10.25787 3.99337,11.42497 -0.47311,0.45795 -2.6602,0.21132 -4.8602,-0.54806 z m 14.69617,-3.76179 c -4.86711,-5.02158 -4.20595,-6.98418 1.50678,-4.47274 3.40982,1.49903 4.26185,2.59752 4.28174,5.52035 0.0216,3.17284 -2.06369,2.79544 -5.78852,-1.04761 z m 29.80383,0.39049 c 0,-1.18641 0.65204,-3.71766 1.44897,-5.625 l 1.44898,-3.46788 8.49201,0 c 8.96491,0 10.67448,0.72672 7.80933,3.31964 -2.29899,2.08056 -11.96658,6.48382 -16.01192,7.29289 -2.7951,0.55902 -3.18737,0.372 -3.18737,-1.51965 z"
           id="path5133"
           inkscape:connector-curvature="0" />
      </g>
      <text
         xml:space="preserve"
         style="font-style:normal;font-variant:normal;font-weight:normal;font-stretch:normal;font-size:14.65531731px;line-height:125%;font-family:roboto;-inkscape-font-specification:'roboto, Normal';text-align:start;letter-spacing:0px;word-spacing:0px;writing-mode:lr-tb;text-anchor:start;fill:#000000;fill-opacity:1;stroke:none;stroke-width:1px;stroke-linecap:butt;stroke-linejoin:miter;stroke-opacity:1"
         x="-369.58795"
         y="453.1239"
         id="text5137"
         sodipodi:linespacing="125%"><tspan
           sodipodi:role="line"
           id="tspan5139"
           x="-369.58795"
           y="453.1239"
           style="font-style:normal;font-variant:normal;font-weight:normal;font-stretch:normal;font-size:11.25px;font-family:roboto;-inkscape-font-specification:roboto;fill:#000000;fill-opacity:1">Tomates</tspan></text>
      <text
         xml:space="preserve"
         style="font-style:normal;font-variant:normal;font-weight:normal;font-stretch:normal;font-size:14.65531731px;line-height:125%;font-family:roboto;-inkscape-font-specification:'roboto, Normal';text-align:start;letter-spacing:0px;word-spacing:0px;writing-mode:lr-tb;text-anchor:start;opacity:1;fill:#404040;fill-opacity:1;stroke:none;stroke-width:1px;stroke-linecap:butt;stroke-linejoin:miter;stroke-opacity:1"
         x="-245.44913"
         y="452.79166"
         id="text5137-2"
         sodipodi:linespacing="125%"><tspan
           sodipodi:role="line"
           id="tspan5139-5"
           x="-245.44913"
           y="452.79166"
           style="font-style:normal;font-variant:normal;font-weight:300;font-stretch:normal;font-size:11.25px;font-family:roboto;-inkscape-font-specification:'roboto Light';text-align:end;text-anchor:end;fill:#404040">3.50€/Kg</tspan></text>
      <rect
         style="color:#000000;clip-rule:nonzero;display:inline;overflow:visible;visibility:visible;opacity:1;isolation:auto;mix-blend-mode:normal;color-interpolation:sRGB;color-interpolation-filters:linearRGB;solid-color:#000000;solid-opacity:1;fill:#a5a5a5;fill-opacity:1;fill-rule:evenodd;stroke:none;stroke-width:3;stroke-linecap:butt;stroke-linejoin:miter;stroke-miterlimit:4;stroke-dasharray:none;stroke-dashoffset:0;stroke-opacity:1;color-rendering:auto;image-rendering:auto;shape-rendering:auto;text-rendering:auto;enable-background:accumulate"
         id="rect5159"
         width="123.49115"
         height="16.162441"
         x="-367.44299"
         y="460.96426"
         ry="1.7857274" />
      <text
         xml:space="preserve"
         style="font-style:normal;font-variant:normal;font-weight:normal;font-stretch:normal;font-size:9.25337982px;line-height:125%;font-family:roboto;-inkscape-font-specification:'roboto, Normal';text-align:start;letter-spacing:0px;word-spacing:0px;writing-mode:lr-tb;text-anchor:start;fill:#ffffff;fill-opacity:1;stroke:none;stroke-width:1px;stroke-linecap:butt;stroke-linejoin:miter;stroke-opacity:1"
         x="-361.5831"
         y="472.54471"
         id="text5161"
         sodipodi:linespacing="125%"><tspan
           sodipodi:role="line"
           id="tspan5163"
           x="-361.5831"
           y="472.54471">Quantité</tspan></text>
      <path
         style="color:#000000;clip-rule:nonzero;display:inline;overflow:visible;visibility:visible;opacity:1;isolation:auto;mix-blend-mode:normal;color-interpolation:sRGB;color-interpolation-filters:linearRGB;solid-color:#000000;solid-opacity:1;fill:#ffffff;fill-opacity:1;fill-rule:evenodd;stroke:none;stroke-width:3;stroke-linecap:butt;stroke-linejoin:miter;stroke-miterlimit:4;stroke-dasharray:none;stroke-dashoffset:0;stroke-opacity:1;color-rendering:auto;image-rendering:auto;shape-rendering:auto;text-rendering:auto;enable-background:accumulate"
         d="m -258.39587,467.2146 9.82144,0 -4.91072,4.91072 z"
         id="rect5165"
         inkscape:connector-curvature="0"
         sodipodi:nodetypes="cccc" />
      <rect
         style="color:#000000;clip-rule:nonzero;display:inline;overflow:visible;visibility:visible;opacity:1;isolation:auto;mix-blend-mode:normal;color-interpolation:sRGB;color-interpolation-filters:linearRGB;solid-color:#000000;solid-opacity:1;fill:#ececec;fill-opacity:1;fill-rule:evenodd;stroke:none;stroke-width:3;stroke-linecap:butt;stroke-linejoin:miter;stroke-miterlimit:4;stroke-dasharray:none;stroke-dashoffset:0;stroke-opacity:1;color-rendering:auto;image-rendering:auto;shape-rendering:auto;text-rendering:auto;enable-background:accumulate"
         id="rect5118-4"
         width="38.385796"
         height="34.850262"
         x="-411.63715"
         y="488.89316" />
      <text
         xml:space="preserve"
         style="font-style:normal;font-variant:normal;font-weight:normal;font-stretch:normal;font-size:14.65531731px;line-height:125%;font-family:roboto;-inkscape-font-specification:'roboto, Normal';text-align:start;letter-spacing:0px;word-spacing:0px;writing-mode:lr-tb;text-anchor:start;opacity:1;fill:#000000;fill-opacity:1;stroke:none;stroke-width:1px;stroke-linecap:butt;stroke-linejoin:miter;stroke-opacity:1"
         x="-369.58795"
         y="499.48807"
         id="text5137-3"
         sodipodi:linespacing="125%"><tspan
           sodipodi:role="line"
           id="tspan5139-0"
           x="-369.58795"
           y="499.48807"
           style="font-style:normal;font-variant:normal;font-weight:normal;font-stretch:normal;font-size:11.25px;font-family:roboto;-inkscape-font-specification:roboto;fill:#000000;fill-opacity:1">Carottes</tspan></text>
      <text
         xml:space="preserve"
         style="font-style:normal;font-variant:normal;font-weight:normal;font-stretch:normal;font-size:14.65531731px;line-height:125%;font-family:roboto;-inkscape-font-specification:'roboto, Normal';text-align:start;letter-spacing:0px;word-spacing:0px;writing-mode:lr-tb;text-anchor:start;opacity:1;fill:#404040;fill-opacity:1;stroke:none;stroke-width:1px;stroke-linecap:butt;stroke-linejoin:miter;stroke-opacity:1"
         x="-245.44913"
         y="499.15585"
         id="text5137-2-7"
         sodipodi:linespacing="125%"><tspan
           sodipodi:role="line"
           id="tspan5139-5-8"
           x="-245.44913"
           y="499.15585"
           style="font-style:normal;font-variant:normal;font-weight:300;font-stretch:normal;font-size:11.25px;font-family:roboto;-inkscape-font-specification:'roboto Light';text-align:end;text-anchor:end;fill:#404040">3.20€/Kg</tspan></text>
      <rect
         style="color:#000000;clip-rule:nonzero;display:inline;overflow:visible;visibility:visible;opacity:1;isolation:auto;mix-blend-mode:normal;color-interpolation:sRGB;color-interpolation-filters:linearRGB;solid-color:#000000;solid-opacity:1;fill:#a5a5a5;fill-opacity:1;fill-rule:evenodd;stroke:none;stroke-width:3;stroke-linecap:butt;stroke-linejoin:miter;stroke-miterlimit:4;stroke-dasharray:none;stroke-dashoffset:0;stroke-opacity:1;color-rendering:auto;image-rendering:auto;shape-rendering:auto;text-rendering:auto;enable-background:accumulate"
         id="rect5159-6"
         width="123.49115"
         height="16.162441"
         x="-367.44299"
         y="507.32849"
         ry="1.7857274" />
      <text
         xml:space="preserve"
         style="font-style:normal;font-variant:normal;font-weight:normal;font-stretch:normal;font-size:9.25337982px;line-height:125%;font-family:roboto;-inkscape-font-specification:'roboto, Normal';text-align:start;letter-spacing:0px;word-spacing:0px;writing-mode:lr-tb;text-anchor:start;opacity:1;fill:#ffffff;fill-opacity:1;stroke:none;stroke-width:1px;stroke-linecap:butt;stroke-linejoin:miter;stroke-opacity:1"
         x="-361.58307"
         y="518.909"
         id="text5161-8"
         sodipodi:linespacing="125%"><tspan
           sodipodi:role="line"
           id="tspan5163-8"
           x="-361.58307"
           y="518.909">2 kg pour 6.40€</tspan></text>
      <path
         style="color:#000000;clip-rule:nonzero;display:inline;overflow:visible;visibility:visible;opacity:1;isolation:auto;mix-blend-mode:normal;color-interpolation:sRGB;color-interpolation-filters:linearRGB;solid-color:#000000;solid-opacity:1;fill:#ffffff;fill-opacity:1;fill-rule:evenodd;stroke:none;stroke-width:3;stroke-linecap:butt;stroke-linejoin:miter;stroke-miterlimit:4;stroke-dasharray:none;stroke-dashoffset:0;stroke-opacity:1;color-rendering:auto;image-rendering:auto;shape-rendering:auto;text-rendering:auto;enable-background:accumulate"
         d="m -258.39586,513.5788 9.82144,0 -4.91072,4.91072 z"
         id="rect5165-4"
         inkscape:connector-curvature="0"
         sodipodi:nodetypes="cccc" />
      <g
         style="display:inline;opacity:1"
         transform="matrix(0.05231423,0.00197272,-0.00197272,0.05231423,-368.79503,498.4247)"
         id="g4299-7-9">
        <path
           inkscape:connector-curvature="0"
           id="path4303-9-2"
           d="m -351.02734,-115.32422 c 0.68583,0.0567 1.35267,0.14482 1.97656,0.26563 -0.62389,-0.12081 -1.29073,-0.20897 -1.97656,-0.26563 z m -8.25782,1.1543 c -0.18875,0.11307 -0.35607,0.23284 -0.49804,0.36133 -0.2066,0.18696 -0.395,0.34923 -0.57813,0.47851 0.18313,-0.12928 0.37153,-0.28959 0.57813,-0.47656 0.14197,-0.12849 0.30929,-0.25021 0.49804,-0.36328 z m 102.70313,11.98242 c -0.99045,0.40554 -1.96896,0.90461 -2.92188,1.49414 0.95292,-0.58953 1.93143,-1.0886 2.92188,-1.49414 z m 13.82031,1.34375 c 0.79361,0.66778 1.50813,1.159836 2.13477,1.476562 -0.62664,-0.316727 -1.34116,-0.808782 -2.13477,-1.476562 z m 79.67969,17.322266 c 0.23151,0.08646 0.55356,0.105468 0.95703,0.105468 -0.40347,0 -0.72552,-0.01901 -0.95703,-0.105468 z M -357.65234,11.78125 c 3.19273,7.34416 3.6732,16.645805 1.60742,25.90625 2.2201,-9.249429 1.7473,-18.189467 -1.60742,-25.90625 z m -83.61524,33.871094 c -3.68105,0.03826 -6.55261,0.479523 -8.20117,1.332031 -3.64089,1.88277 -17.13152,16.022639 -37.7793,39.599609 -19.13745,21.852386 -50.3982,58.934946 -51.05664,60.564456 -0.23633,0.58489 4.2447,5.75989 9.95899,11.5 11.24303,11.29383 19.68164,22.03265 19.68164,25.04687 0,1.03949 -0.36383,1.88867 -0.8086,1.88867 -0.44477,0 -5.24818,-3.16639 -10.67382,-7.0371 -9.51245,-6.7863 -24.54949,-16.26928 -27.73633,-17.49219 -1.07408,-0.41216 -3.79649,2.08356 -8.9668,8.21875 -22.72055,26.96058 -94.81445,118.5759 -94.81445,120.48828 0,0.58026 2.6115,4.04084 5.80273,7.68945 7.62343,8.71606 12.65654,15.10258 14.10742,17.89844 2.3863,4.5984 -1.58238,3.60655 -10.125,-2.5293 -10.65648,-7.65415 -16.41339,-11.23633 -18.05859,-11.23633 -1.37443,0 -16.78355,20.32217 -37.91211,50 -30.92341,43.43597 -52.07955,78.19136 -59.34961,97.5 -2.92707,7.77405 -3.93694,16.0383 -2.57617,21.0918 1.22707,4.55699 6.44017,10.09142 10.70508,11.36719 13.21569,3.95323 36.72684,-6.44709 82.65625,-36.56445 8.6625,-5.68028 15.75,-10.93376 15.75,-11.67383 0,-1.2454 -9.17907,-15.31692 -13.9336,-21.36133 -2.45054,-3.11535 -2.55966,-3.95474 -0.60937,-4.70313 1.55137,-0.59532 13.07561,7.72328 20.21094,14.58985 5.24534,5.04776 5.86153,4.90451 18.83203,-4.4043 28.69705,-20.5956 110.5994,-82.86459 116.875,-88.85742 1.82633,-1.74405 1.72481,-2.02378 -3.8711,-10.63672 -3.16118,-4.86552 -7.94392,-11.87795 -10.62695,-15.58203 -2.68304,-3.70407 -4.87695,-7.19157 -4.87695,-7.75 0,-3.88679 11.30142,3.57769 24.73047,16.33398 6.45088,6.1277 7.65648,6.8909 9.2832,5.875 3.35925,-2.09789 62.49624,-50.13489 81.48633,-66.1914 33.06519,-27.95729 42.5,-36.37313 42.5,-37.91016 0,-1.54973 -12.22918,-20.51306 -17.77735,-27.56641 -1.22233,-1.55393 -2.22265,-3.44057 -2.22265,-4.1914 0,-4.00849 7.4235,0.76286 23.13867,14.86914 l 8.89258,7.98242 6.6914,-5.85742 c 12.29528,-10.76493 25.40257,-23.69966 26.84766,-26.49414 5.58233,-10.79505 -4.19327,-48.68916 -18.23047,-70.67188 -1.86378,-2.918736 -3.12994,-5.723891 -2.81445,-6.234371 0.20695,-0.334857 1.66871,-1.535046 3.59375,-3 l -4.10352,2.943359 -13.0332,-13.03125 -13.03125,-13.03125 1.19531,-1.591797 c -0.84723,1.042811 -1.50005,1.751953 -1.71484,1.751953 -0.21869,0 -3.44187,-1.872679 -7.16406,-4.162109 -13.82408,-8.50286 -27.48463,-13.814217 -43.55274,-16.935547 -6.51618,-1.26581 -12.58558,-1.883181 -17.31836,-1.833984 z m 78.1836,9.080078 c -1.64685,2.639375 -3.65557,5.621357 -5.49805,8.197266 l 0.50195,-0.667969 c 1.86259,-2.477786 3.51362,-4.995438 4.9961,-7.529297 z m 58.65039,21.851562 c -6.37017,-0.06721 -13.00233,1.317593 -19.72266,4.091797 10.64666,-4.344041 21.15085,-5.259155 30.56055,-2.498047 -3.50035,-1.027115 -7.12496,-1.554573 -10.83789,-1.59375 z m 85.40039,48.843746 0.0254,0.0293 c 2.35151,2.57648 4.54525,4.6506 6.66601,6.28711 -2.17942,-1.77381 -4.6531,-4.08309 -6.6914,-6.31641 z m 28.30468,4.05079 c -0.21446,1.54882 -0.67124,3.02123 -1.23632,4.12695 0.60838,-1.03929 0.99592,-2.39078 1.23632,-4.12695 z m -14.66601,6.14648 c 1.91605,0.6487 3.84557,0.95898 5.85547,0.95898 0.56183,0 1.05705,-0.032 1.55273,-0.0644 -2.30338,0.11556 -4.97247,-0.19291 -7.4082,-0.89453 z m 8.9375,0.74023 c -0.1284,0.0192 -0.25467,0.0407 -0.38672,0.0566 0.13041,-0.0177 0.26145,-0.0358 0.38672,-0.0566 z m -0.59961,0.082 c -0.28717,0.0306 -0.57956,0.0544 -0.88086,0.0703 0.29877,-0.0203 0.60507,-0.0372 0.88086,-0.0703 z"
           style="fill:#e58428;fill-opacity:1" />
        <path
           inkscape:connector-curvature="0"
           id="path4301-2-0"
           d="m -208.44064,134.46658 c -2.35191,-1.16417 -7.11892,-5.23137 -10.59335,-9.03821 l -6.31715,-6.92152 -4.039,4.03899 c -4.51042,4.51042 -7.35314,5.04448 -12.88312,2.42033 -4.20823,-1.99693 -8.6116,-7.43685 -11.98597,-14.80742 l -2.56279,-5.59788 -2.82558,2.01198 c -7.5941,5.40748 -17.11887,-0.43902 -19.53015,-11.98801 -1.86064,-8.91167 -6.37217,-14.04527 -14.41818,-16.40622 -14.00139,-4.10846 -29.97924,-0.24675 -45.72712,11.05183 l -7.32623,5.25633 -13.03167,-13.03167 -13.03168,-13.03168 4.63255,-6.16265 c 12.84589,-17.0888 16.74331,-35.95468 10.42853,-50.48039 -2.43231,-5.59495 -5.11654,-7.60616 -13.51288,-10.12475 -7.86656,-2.35968 -11.56386,-4.43806 -13.51706,-7.5984 -2.53739,-4.10559 -2.52624,-8.90066 0.0291,-12.48923 l 2.01198,-2.82558 -5.49745,-2.51682 c -10.58537,-4.84612 -16.52657,-11.18274 -16.52657,-17.626451 0,-2.467623 0.98019,-4.229806 4.07326,-7.32287 l 4.07325,-4.073256 -6.98596,-6.313051 c -7.89803,-7.137262 -11.16055,-12.817082 -11.16055,-19.429737 0,-5.936248 1.71675,-8.06487 7.10627,-8.811142 3.66222,-0.507098 4.34062,-0.937693 4.07475,-2.586326 -0.17544,-1.087865 -0.56866,-5.929615 -0.87383,-10.759447 -0.67899,-10.7464 0.97809,-15.93662 6.75412,-21.15491 3.56731,-3.22285 4.49396,-3.56148 9.69157,-3.54162 6.96672,0.0266 12.56601,2.38153 20.54955,8.64259 5.39888,4.23405 5.92597,4.43873 7.57874,2.94299 2.27159,-2.05576 10.9103,-2.14233 13.77188,-0.138 1.15393,0.80825 3.02656,3.44483 4.16139,5.85908 l 2.06333,4.38954 4.87486,-0.46841 c 4.40824,-0.42358 5.168,-0.17527 7.9374,2.59413 2.88912,2.889115 5.78149,10.906436 6.54673,18.146753 0.16942,1.602933 1.27628,2.974709 3.10555,3.84881 3.84315,1.836417 5.44886,6.183132 6.79009,18.380938 2.83246,25.75985 -1.33876,63.471929 -9.58803,86.685609 -0.86115,2.42329 -1.36965,4.60206 -1.13001,4.8417 0.66571,0.66571 10.62693,-13.19549 16.41212,-22.83772 13.65233,-22.75447 16.42804,-35.32638 11.68183,-52.90997 -2.75921,-10.222252 -1.41087,-17.571685 4.00537,-21.8321 3.18616,-2.506232 6.92376,-2.753015 10.48632,-0.69238 4.0963,2.369362 5.06622,2.791593 5.47458,2.383229 0.21359,-0.213581 0.92224,-4.431674 1.5748,-9.373539 1.26834,-9.605263 3.85611,-17.626408 6.82884,-21.166972 6.30101,-7.504588 16.20917,-9.639918 22.02458,-4.746568 3.17445,2.671115 5.09663,2.527578 5.09799,-0.38069 10e-4,-3.0338 5.72741,-13.88437 9.5736,-18.14164 12.5246,-13.86324 29.91172,-12.70688 33.08942,2.20066 0.3224,1.5125 0.86744,2.75202 1.21119,2.75448 0.34375,0.002 3.78222,-1.5955 7.64105,-3.55104 8.42636,-4.27023 17.23894,-4.9487 22.71758,-1.749 8.11793,4.74113 9.44747,15.67478 3.36542,27.676098 -4.07091,8.032861 -4.21105,8.619462 -2.05921,8.619462 0.84691,0 3.31585,0.906056 5.48654,2.013458 10.99691,5.610204 9.99447,20.507462 -2.11619,31.448713 -4.06138,3.669217 -15.33932,9.537829 -18.32922,9.537829 -2.72666,0 -2.81041,2.151083 -0.19021,4.885979 4.98669,5.204978 3.04611,15.285341 -4.1711,21.666921 -3.94074,3.48446 -11.44876,6.04343 -21.70487,7.39772 -4.94187,0.65256 -9.15996,1.36121 -9.37354,1.5748 -0.40836,0.40836 0.0139,1.37828 2.38323,5.47458 2.06063,3.56256 1.81385,7.30016 -0.69238,10.48632 -4.26042,5.41624 -11.60985,6.76458 -21.8321,4.00537 -14.53228,-3.92259 -24.04114,-2.84893 -39.68187,4.48057 -11.33805,5.31319 -37.31402,22.36518 -36.02832,23.65088 0.21012,0.21012 3.04337,-0.53599 6.29611,-1.65802 16.90531,-5.83149 34.55141,-8.78579 57.41408,-9.61225 17.77105,-0.64239 35.73918,0.67566 41.38839,3.03605 1.87769,0.78455 4.02095,2.68244 4.7628,4.21754 1.16532,2.41138 2.23306,2.93992 7.84881,3.8852 12.81067,2.15638 17.63214,6.20767 16.74584,14.07088 l -0.50985,4.52335 4.8461,2.45571 c 2.66535,1.35064 5.34976,3.39679 5.96534,4.54702 1.72075,3.21525 1.38678,10.7741 -0.57164,12.93813 -1.60631,1.77495 -1.4633,2.15858 2.85966,7.67082 6.18822,7.89067 8.61585,13.60118 8.64259,20.32992 0.031,7.7898 -3.35916,12.30193 -11.69653,15.56774 -3.27191,1.28163 -6.18899,1.52792 -13,1.09758 -4.82983,-0.30517 -9.67158,-0.69839 -10.75945,-0.87383 -1.64863,-0.26587 -2.07922,0.41253 -2.58632,4.07475 -0.35638,2.57371 -1.37671,4.95555 -2.4632,5.75 -2.78367,2.03548 -10.36228,1.65677 -15.24875,-0.76199 z m 11.77621,-49.85849 c 0,-3.89668 -18.47806,-16.09634 -33.41491,-22.06132 -4.3532,-1.73844 -12.2282,-4.32058 -17.5,-5.73809 -8.68783,-2.33603 -11.41048,-2.58415 -29.08509,-2.65057 -13.69663,-0.0515 -20.09522,0.28969 -21.5,1.14632 -1.67586,1.02193 -0.62239,1.22498 6.5,1.25282 29.03116,0.11348 59.62917,9.41743 83.93033,25.52073 7.29519,4.8342 11.06967,5.69691 11.06967,2.53011 z M -331.89534,3.81254 c 0.67255,-21.12082 -2.31759,-37.279162 -10.22795,-55.270554 -6.37473,-14.498764 -17.00885,-29.957146 -20.60809,-29.957146 -3.01455,0 -2.36079,3.028131 2.16577,10.0316 10.69922,16.553776 20.327,40.241671 23.45894,57.71766 0.86254,4.81291 1.83513,15.02564 2.16133,22.69495 0.76397,17.9623 2.40107,15.16231 3.05,-5.21651 z m 59.10857,-6.55232 c 21.36869,-20.10793 52.39743,-51.452358 54.11953,-54.670131 2.42233,-4.526166 -1.50895,-2.556999 -9.71327,4.865351 -14.34763,12.980127 -60.16332,60.14448 -67.63474,69.6257 l -3.14918,3.9963 3,-2.32092 c 1.65,-1.27651 12.16995,-10.94984 23.37766,-21.4963 z"
           style="fill:#31ac40;fill-opacity:1" />
      </g>
      <rect
         style="color:#000000;clip-rule:nonzero;display:inline;overflow:visible;visibility:visible;opacity:1;isolation:auto;mix-blend-mode:normal;color-interpolation:sRGB;color-interpolation-filters:linearRGB;solid-color:#000000;solid-opacity:1;fill:#ececec;fill-opacity:1;fill-rule:evenodd;stroke:none;stroke-width:3;stroke-linecap:butt;stroke-linejoin:miter;stroke-miterlimit:4;stroke-dasharray:none;stroke-dashoffset:0;stroke-opacity:1;color-rendering:auto;image-rendering:auto;shape-rendering:auto;text-rendering:auto;enable-background:accumulate"
         id="rect5118-6"
         width="38.385796"
         height="34.850262"
         x="-411.63721"
         y="533.89648" />
      <text
         xml:space="preserve"
         style="font-style:normal;font-variant:normal;font-weight:normal;font-stretch:normal;font-size:14.65531731px;line-height:125%;font-family:roboto;-inkscape-font-specification:'roboto, Normal';text-align:start;letter-spacing:0px;word-spacing:0px;writing-mode:lr-tb;text-anchor:start;display:inline;opacity:1;fill:#000000;fill-opacity:1;stroke:none;stroke-width:1px;stroke-linecap:butt;stroke-linejoin:miter;stroke-opacity:1"
         x="-369.58798"
         y="544.49139"
         id="text5137-6"
         sodipodi:linespacing="125%"><tspan
           sodipodi:role="line"
           id="tspan5139-6"
           x="-369.58798"
           y="544.49139"
           style="font-style:normal;font-variant:normal;font-weight:normal;font-stretch:normal;font-size:11.25px;font-family:roboto;-inkscape-font-specification:roboto;fill:#000000;fill-opacity:1">Concombre</tspan></text>
      <text
         xml:space="preserve"
         style="font-style:normal;font-variant:normal;font-weight:normal;font-stretch:normal;font-size:14.65531731px;line-height:125%;font-family:roboto;-inkscape-font-specification:'roboto, Normal';text-align:end;letter-spacing:0px;word-spacing:0px;writing-mode:lr-tb;text-anchor:end;display:inline;opacity:1;fill:#404040;fill-opacity:1;stroke:none;stroke-width:1px;stroke-linecap:butt;stroke-linejoin:miter;stroke-opacity:1"
         x="-245.8721"
         y="544.15918"
         id="text5137-2-4"
         sodipodi:linespacing="125%"><tspan
           sodipodi:role="line"
           id="tspan5139-5-9"
           x="-245.8721"
           y="544.15918"
           style="font-style:normal;font-variant:normal;font-weight:300;font-stretch:normal;font-size:11.25px;font-family:roboto;-inkscape-font-specification:'roboto Light';text-align:end;text-anchor:end;fill:#404040">1.30€/Pce</tspan></text>
      <rect
         style="color:#000000;clip-rule:nonzero;display:inline;overflow:visible;visibility:visible;opacity:1;isolation:auto;mix-blend-mode:normal;color-interpolation:sRGB;color-interpolation-filters:linearRGB;solid-color:#000000;solid-opacity:1;fill:#a5a5a5;fill-opacity:1;fill-rule:evenodd;stroke:none;stroke-width:3;stroke-linecap:butt;stroke-linejoin:miter;stroke-miterlimit:4;stroke-dasharray:none;stroke-dashoffset:0;stroke-opacity:1;color-rendering:auto;image-rendering:auto;shape-rendering:auto;text-rendering:auto;enable-background:accumulate"
         id="rect5159-5"
         width="123.49115"
         height="16.162441"
         x="-367.44302"
         y="552.33179"
         ry="1.7857274" />
      <text
         xml:space="preserve"
         style="font-style:normal;font-variant:normal;font-weight:normal;font-stretch:normal;font-size:9.25337982px;line-height:125%;font-family:roboto;-inkscape-font-specification:'roboto, Normal';text-align:start;letter-spacing:0px;word-spacing:0px;writing-mode:lr-tb;text-anchor:start;display:inline;opacity:1;fill:#ffffff;fill-opacity:1;stroke:none;stroke-width:1px;stroke-linecap:butt;stroke-linejoin:miter;stroke-opacity:1"
         x="-361.58313"
         y="563.91223"
         id="text5161-0"
         sodipodi:linespacing="125%"><tspan
           sodipodi:role="line"
           id="tspan5163-4"
           x="-361.58313"
           y="563.91223">Quantité</tspan></text>
      <path
         style="color:#000000;clip-rule:nonzero;display:inline;overflow:visible;visibility:visible;opacity:1;isolation:auto;mix-blend-mode:normal;color-interpolation:sRGB;color-interpolation-filters:linearRGB;solid-color:#000000;solid-opacity:1;fill:#ffffff;fill-opacity:1;fill-rule:evenodd;stroke:none;stroke-width:3;stroke-linecap:butt;stroke-linejoin:miter;stroke-miterlimit:4;stroke-dasharray:none;stroke-dashoffset:0;stroke-opacity:1;color-rendering:auto;image-rendering:auto;shape-rendering:auto;text-rendering:auto;enable-background:accumulate"
         d="m -258.39585,558.58201 9.82144,0 -4.91072,4.91072 z"
         id="rect5165-8"
         inkscape:connector-curvature="0"
         sodipodi:nodetypes="cccc" />
      <rect
         style="color:#000000;clip-rule:nonzero;display:inline;overflow:visible;visibility:visible;opacity:1;isolation:auto;mix-blend-mode:normal;color-interpolation:sRGB;color-interpolation-filters:linearRGB;solid-color:#000000;solid-opacity:1;fill:#ececec;fill-opacity:1;fill-rule:evenodd;stroke:none;stroke-width:3;stroke-linecap:butt;stroke-linejoin:miter;stroke-miterlimit:4;stroke-dasharray:none;stroke-dashoffset:0;stroke-opacity:1;color-rendering:auto;image-rendering:auto;shape-rendering:auto;text-rendering:auto;enable-background:accumulate"
         id="rect5118-4-7"
         width="38.385796"
         height="34.850262"
         x="-411.63718"
         y="580.26068" />
      <text
         xml:space="preserve"
         style="font-style:normal;font-variant:normal;font-weight:normal;font-stretch:normal;font-size:14.65531731px;line-height:125%;font-family:roboto;-inkscape-font-specification:'roboto, Normal';text-align:start;letter-spacing:0px;word-spacing:0px;writing-mode:lr-tb;text-anchor:start;display:inline;opacity:1;fill:#000000;fill-opacity:1;stroke:none;stroke-width:1px;stroke-linecap:butt;stroke-linejoin:miter;stroke-opacity:1"
         x="-367.69394"
         y="591.992"
         id="text5137-3-1"
         sodipodi:linespacing="125%"><tspan
           sodipodi:role="line"
           id="tspan5139-0-7"
           x="-367.69394"
           y="591.992"
           style="font-style:normal;font-variant:normal;font-weight:normal;font-stretch:normal;font-size:11.25px;font-family:roboto;-inkscape-font-specification:roboto;fill:#000000;fill-opacity:1">Laitue</tspan></text>
      <text
         xml:space="preserve"
         style="font-style:normal;font-variant:normal;font-weight:normal;font-stretch:normal;font-size:14.65531731px;line-height:125%;font-family:roboto;-inkscape-font-specification:'roboto, Normal';text-align:start;letter-spacing:0px;word-spacing:0px;writing-mode:lr-tb;text-anchor:start;display:inline;opacity:1;fill:#404040;fill-opacity:1;stroke:none;stroke-width:1px;stroke-linecap:butt;stroke-linejoin:miter;stroke-opacity:1"
         x="-245.44913"
         y="590.52338"
         id="text5137-2-7-2"
         sodipodi:linespacing="125%"><tspan
           sodipodi:role="line"
           id="tspan5139-5-8-7"
           x="-245.44913"
           y="590.52338"
           style="font-style:normal;font-variant:normal;font-weight:300;font-stretch:normal;font-size:11.25px;font-family:roboto;-inkscape-font-specification:'roboto Light';text-align:end;text-anchor:end;fill:#404040">1.15€/Pce</tspan></text>
      <rect
         style="color:#000000;clip-rule:nonzero;display:inline;overflow:visible;visibility:visible;opacity:1;isolation:auto;mix-blend-mode:normal;color-interpolation:sRGB;color-interpolation-filters:linearRGB;solid-color:#000000;solid-opacity:1;fill:#a5a5a5;fill-opacity:1;fill-rule:evenodd;stroke:none;stroke-width:3;stroke-linecap:butt;stroke-linejoin:miter;stroke-miterlimit:4;stroke-dasharray:none;stroke-dashoffset:0;stroke-opacity:1;color-rendering:auto;image-rendering:auto;shape-rendering:auto;text-rendering:auto;enable-background:accumulate"
         id="rect5159-6-2"
         width="123.49115"
         height="16.162441"
         x="-367.44302"
         y="598.69598"
         ry="1.7857274" />
      <text
         xml:space="preserve"
         style="font-style:normal;font-variant:normal;font-weight:normal;font-stretch:normal;font-size:9.25337982px;line-height:125%;font-family:roboto;-inkscape-font-specification:'roboto, Normal';text-align:start;letter-spacing:0px;word-spacing:0px;writing-mode:lr-tb;text-anchor:start;display:inline;opacity:1;fill:#ffffff;fill-opacity:1;stroke:none;stroke-width:1px;stroke-linecap:butt;stroke-linejoin:miter;stroke-opacity:1"
         x="-361.5831"
         y="610.27643"
         id="text5161-8-2"
         sodipodi:linespacing="125%"><tspan
           sodipodi:role="line"
           id="tspan5163-8-6"
           x="-361.5831"
           y="610.27643">1 pièce pour 1.15€</tspan></text>
      <path
         style="color:#000000;clip-rule:nonzero;display:inline;overflow:visible;visibility:visible;opacity:1;isolation:auto;mix-blend-mode:normal;color-interpolation:sRGB;color-interpolation-filters:linearRGB;solid-color:#000000;solid-opacity:1;fill:#ffffff;fill-opacity:1;fill-rule:evenodd;stroke:none;stroke-width:3;stroke-linecap:butt;stroke-linejoin:miter;stroke-miterlimit:4;stroke-dasharray:none;stroke-dashoffset:0;stroke-opacity:1;color-rendering:auto;image-rendering:auto;shape-rendering:auto;text-rendering:auto;enable-background:accumulate"
         d="m -258.39584,604.94621 9.82144,0 -4.91072,4.91072 z"
         id="rect5165-4-1"
         inkscape:connector-curvature="0"
         sodipodi:nodetypes="cccc" />
      <g
         id="g7494"
         transform="matrix(0.15488612,0.15649258,0.15649258,-0.15488612,-477.27628,614.73205)">
        <g
           id="g730"
           transform="translate(92.607037,402.07446)">
          <path
             d="m 0,0 c -3.86,-14.311 -14.09,-23.851 -24.84,-26.311 -0.8,-0.2 -1.59,-0.339 -2.4,-0.439 l -0.75,-0.091 c -0.79,-0.08 -1.57,-0.119 -2.35,-0.119 -0.93,0 -1.85,0.06 -2.76,0.18 -0.51,0.05 -1,0.13 -1.49,0.24 -0.73,0.119 -1.44,0.3 -2.14,0.51 -1,0.29 -1.98,0.66 -2.94,1.109 -1.29,0.61 -2.51,1.29 -3.67,2.051 -0.66,0.42 -1.31,0.89 -1.93,1.37 -2.29,1.779 -4.29,3.869 -5.98,6.21 -0.6,0.84 -1.16,1.71 -1.68,2.6 -4.78,8.129 -6.13,18.45 -3.59,28.009 9.79,36.151 9.79,74.27 0,110.421 -2,7.53 -1.58,15.51 1,22.54 0.38,1.05 0.82,2.079 1.3,3.079 1.35,2.801 3.08,5.411 5.16,7.701 0.54,0.589 1.11,1.18 1.71,1.73 1.82,1.71 3.87,3.2 6.15,4.43 0.5,0.259 1.01,0.53 1.53,0.77 0.15,0.06 0.3,0.13 0.44,0.179 1.98,0.881 4.02,1.431 6.12,1.69 0.36,0.051 0.71,0.08 1.08,0.111 0.78,0.06 1.57,0.07 2.37,0.04 0.56,-0.02 1.11,-0.051 1.67,-0.111 C -16.15,166.729 -4.24,156.76 0,141.069 12.52,94.89 12.52,46.169 0,0"
             style="fill:#479706;fill-opacity:1;fill-rule:nonzero;stroke:none"
             id="path732"
             inkscape:connector-curvature="0" />
        </g>
        <g
           id="g734"
           transform="translate(92.607037,402.07446)">
          <path
             d="m 0,0 c -3.86,-14.311 -14.09,-23.851 -24.84,-26.311 -0.8,-0.2 -1.59,-0.339 -2.4,-0.439 l -0.75,-0.091 c -0.79,-0.08 -1.57,-0.119 -2.35,-0.119 -0.93,0 -1.85,0.06 -2.76,0.18 -0.51,0.05 -1,0.13 -1.49,0.24 -0.73,0.119 -1.44,0.3 -2.14,0.51 -1,0.29 -1.98,0.66 -2.94,1.109 -1.29,0.61 -2.51,1.29 -3.67,2.051 -0.66,0.42 -1.31,0.89 -1.93,1.37 -2.29,1.779 -4.29,3.869 -5.98,6.21 -0.6,0.84 -1.16,1.71 -1.68,2.6 -4.78,8.129 -6.13,18.45 -3.59,28.009 9.79,36.151 9.79,74.27 0,110.421 -2,7.53 -1.58,15.51 1,22.54 0.38,1.05 0.82,2.079 1.3,3.079 1.35,2.801 3.08,5.411 5.16,7.701 0.54,0.589 1.11,1.18 1.71,1.73 1.82,1.71 3.87,3.2 6.15,4.43 0.5,0.259 1.01,0.53 1.53,0.77 0.15,0.06 0.3,0.13 0.44,0.179 1.98,0.881 4.02,1.431 6.12,1.69 0.36,0.051 0.71,0.08 1.08,0.111 0.78,0.06 1.57,0.07 2.37,0.04 0.56,-0.02 1.11,-0.051 1.67,-0.111 C -16.15,166.729 -4.24,156.76 0,141.069 12.52,94.89 12.52,46.169 0,0"
             style="fill:#479706;fill-opacity:1;fill-rule:nonzero;stroke:none"
             id="path736"
             inkscape:connector-curvature="0" />
        </g>
        <g
           id="g738"
           transform="translate(82.687141,402.07446)">
          <path
             d="m 0,0 c -2.41,-10.601 -7.76,-18.591 -14.05,-23.021 -0.89,-0.62 -1.79,-1.179 -2.72,-1.65 -0.43,-0.229 -0.86,-0.439 -1.3,-0.619 -1.67,-0.761 -3.4,-1.261 -5.11,-1.49 -0.54,-0.09 -1.08,-0.141 -1.6,-0.16 -0.26,-0.01 -0.51,-0.02 -0.76,-0.02 -0.51,0 -1,0.02 -1.51,0.079 -2.17,0.2 -4.31,0.841 -6.34,1.96 -0.17,0.091 -0.33,0.191 -0.49,0.29 -0.67,0.37 -1.31,0.801 -1.93,1.25 -2.29,1.651 -4.29,3.7 -5.98,6.061 -0.61,0.809 -1.17,1.679 -1.68,2.57 -4.9,8.409 -6.45,19.689 -4.12,30.069 8.25,36.151 8.25,74.27 0,110.421 -1.82,8.15 -1.26,16.84 1.43,24.26 0.37,1.05 0.8,2.089 1.27,3.089 1.34,2.87 3.04,5.511 5.07,7.75 0.53,0.6 1.09,1.161 1.68,1.701 1.44,1.339 3.02,2.5 4.75,3.45 0.48,0.27 0.98,0.51 1.48,0.71 0.68,0.31 1.37,0.56 2.08,0.739 2.17,0.611 4.41,0.73 6.64,0.42 0.41,-0.049 0.8,-0.13 1.21,-0.21 0.91,-0.19 1.82,-0.449 2.72,-0.79 0.4,-0.15 0.79,-0.309 1.19,-0.489 C -10.1,162.85 -2.91,153.859 0,141.069 10.54,94.89 10.54,46.169 0,0"
             style="fill:#4da306;fill-opacity:1;fill-rule:nonzero;stroke:none"
             id="path740"
             inkscape:connector-curvature="0" />
        </g>
        <g
           id="g742"
           transform="translate(82.687141,402.07446)">
          <path
             d="m 0,0 c -2.41,-10.601 -7.76,-18.591 -14.05,-23.021 -0.89,-0.62 -1.79,-1.179 -2.72,-1.65 -0.43,-0.229 -0.86,-0.439 -1.3,-0.619 -1.67,-0.761 -3.4,-1.261 -5.11,-1.49 -0.54,-0.09 -1.08,-0.141 -1.6,-0.16 -0.26,-0.01 -0.51,-0.02 -0.76,-0.02 -0.51,0 -1,0.02 -1.51,0.079 -2.17,0.2 -4.31,0.841 -6.34,1.96 -0.17,0.091 -0.33,0.191 -0.49,0.29 -0.67,0.37 -1.31,0.801 -1.93,1.25 -2.29,1.651 -4.29,3.7 -5.98,6.061 -0.61,0.809 -1.17,1.679 -1.68,2.57 -4.9,8.409 -6.45,19.689 -4.12,30.069 8.25,36.151 8.25,74.27 0,110.421 -1.82,8.15 -1.26,16.84 1.43,24.26 0.37,1.05 0.8,2.089 1.27,3.089 1.34,2.87 3.04,5.511 5.07,7.75 0.53,0.6 1.09,1.161 1.68,1.701 1.44,1.339 3.02,2.5 4.75,3.45 0.48,0.27 0.98,0.51 1.48,0.71 0.68,0.31 1.37,0.56 2.08,0.739 2.17,0.611 4.41,0.73 6.64,0.42 0.41,-0.049 0.8,-0.13 1.21,-0.21 0.91,-0.19 1.82,-0.449 2.72,-0.79 0.4,-0.15 0.79,-0.309 1.19,-0.489 C -10.1,162.85 -2.91,153.859 0,141.069 10.54,94.89 10.54,46.169 0,0"
             style="fill:#4da306;fill-opacity:1;fill-rule:nonzero;stroke:none"
             id="path744"
             inkscape:connector-curvature="0" />
        </g>
        <g
           id="g746"
           transform="translate(78.866845,436.44416)">
          <path
             d="m 0,0 c -2.55,-24.68 -7.1,-45.22 -10.23,-57.39 -0.31,-1.17 -0.6,-2.27 -0.87,-3.29 -0.8,-0.2 -1.59,-0.34 -2.4,-0.44 0.18,0.65 0.37,1.35 0.55,2.079 3.11,11.701 8.07,33.181 10.76,59.321 3.4,32.99 3.71,79.71 -12.06,123.1 -1.21,3.32 -2.51,6.63 -3.91,9.9 -0.04,0.11 -0.09,0.21 -0.13,0.32 0.78,0.06 1.57,0.07 2.37,0.04 0.16,-0.39 0.33,-0.77 0.48,-1.15 0.41,-0.98 0.8,-1.95 1.19,-2.93 C 3.74,84.25 3.57,34.61 0,0"
             style="fill:#50a806;fill-opacity:1;fill-rule:nonzero;stroke:none"
             id="path748"
             inkscape:connector-curvature="0" />
        </g>
        <g
           id="g750"
           transform="translate(68.92684,435.52416)">
          <path
             d="m 0,0 c -1.14,-11.05 -2.68,-21.27 -4.31,-30.28 -2.3,-12.63 -4.78,-22.89 -6.6,-29.71 -0.05,-0.131 -0.08,-0.27 -0.11,-0.4 -0.26,-0.01 -0.51,-0.02 -0.76,-0.02 -0.51,0 -1,0.02 -1.51,0.079 0.08,0.271 0.16,0.561 0.24,0.851 2.4,9.01 5.98,24.109 8.74,42.8 0.79,5.37 1.52,11.04 2.13,16.95 2.41,23.46 3.27,53.88 -2.13,85.11 -2.67,15.51 -6.88,31.23 -13.21,46.39 -0.2,0.51 -0.41,0.99 -0.63,1.48 0.68,0.31 1.37,0.56 2.08,0.74 0.18,-0.42 0.36,-0.85 0.52,-1.27 4.93,-11.76 8.59,-23.85 11.24,-35.93 C 3.47,61.51 2.72,26.39 0,0"
             style="fill:#50a806;fill-opacity:1;fill-rule:nonzero;stroke:none"
             id="path752"
             inkscape:connector-curvature="0" />
        </g>
        <g
           id="g754"
           transform="translate(58.98694,434.58426)">
          <path
             d="m 0,0 c -2.4,-23.38 -6.63,-43.03 -9.72,-55.38 -0.16,-0.61 -0.31,-1.19 -0.46,-1.761 -0.67,0.37 -1.31,0.801 -1.93,1.25 0.14,0.611 0.31,1.231 0.46,1.881 3.07,12.31 7.13,31.52 9.47,54.29 3.48,33.79 3.71,81.98 -13.26,126.27 -0.21,0.59 -0.45,1.19 -0.68,1.78 0.53,0.6 1.09,1.16 1.68,1.7 0.25,-0.58 0.48,-1.17 0.71,-1.75 C 3.75,83.32 3.54,34.29 0,0"
             style="fill:#50a806;fill-opacity:1;fill-rule:nonzero;stroke:none"
             id="path756"
             inkscape:connector-curvature="0" />
        </g>
        <g
           id="g758"
           transform="translate(49.047041,433.65406)">
          <path
             d="m 0,0 c -1.92,-18.57 -4.96,-34.8 -7.69,-46.87 -0.15,-0.69 -0.32,-1.37 -0.46,-2.03 -0.61,0.81 -1.17,1.68 -1.68,2.57 0.15,0.67 0.3,1.36 0.46,2.06 2.59,11.77 5.4,27.12 7.19,44.55 3.22,31.29 3.66,74.96 -9.78,116.42 -0.18,0.58 -0.37,1.15 -0.56,1.72 0.37,1.05 0.8,2.09 1.27,3.09 0.21,-0.57 0.41,-1.16 0.59,-1.73 C 3.71,77.23 3.31,32.14 0,0"
             style="fill:#50a806;fill-opacity:1;fill-rule:nonzero;stroke:none"
             id="path760"
             inkscape:connector-curvature="0" />
        </g>
      </g>
      <g
         id="g7537"
         transform="matrix(0.18621252,0,0,-0.18621252,-514.61808,722.58674)">
        <g
           id="g674"
           transform="translate(615.73694,711.64386)">
          <path
             d="m 0,0 c -10.59,-9.13 -24.13,-26.4 -31.93,-31.77 -2.41,-1.66 -4.28,-2.18 -5.33,-0.96 -0.27,0.31 -0.53,0.7 -0.78,1.17 -0.72,1.39 -1.33,3.44 -1.67,6.02 -1.49,11.05 1.87,31.63 21.52,49.75 12.95,11.94 29.48,11.97 34.67,7.34 0.2,-0.17 0.39,-0.36 0.56,-0.55 C 21.5,25.83 13.86,11.95 0,0"
             style="fill:#92d125;fill-opacity:1;fill-rule:nonzero;stroke:none"
             id="path676"
             inkscape:connector-curvature="0" />
        </g>
        <g
           id="g678"
           transform="translate(681.72624,739.90066)">
          <path
             d="m 0,0 c -4.454,-5.167 3.181,-19.046 17.049,-31 13.868,-11.954 32.802,-37.89 37.255,-32.723 4.453,5.166 6.714,33.167 -19.068,56.932 C 21.773,5.62 4.452,5.166 0,0"
             style="fill:#92d125;fill-opacity:1;fill-rule:nonzero;stroke:none"
             id="path680"
             inkscape:connector-curvature="0" />
        </g>
        <g
           id="g682"
           transform="translate(734.50644,667.86406)">
          <path
             d="m 0,0 c 0,-41.5 -32.069,-75.53 -72.77,-78.65 -2.019,-0.15 -4.049,-0.23 -6.11,-0.23 -1.559,0 -3.109,0.05 -4.649,0.14 l -0.01,0 C -124.93,-76.33 -157.75,-42 -157.75,0 c 0,4.16 0.32,8.24 0.94,12.22 0.231,1.45 0.491,2.89 0.8,4.31 5.96,27.96 26.731,50.43 53.721,58.8 7.39,2.3 15.26,3.54 23.409,3.54 9.941,0 19.46,-1.84 28.221,-5.2 C -25.75,64.13 -6.92,42.32 -1.55,15.65 -1.029,13.03 -0.63,10.37 -0.369,7.67 -0.119,5.15 0,2.59 0,0"
             style="fill:#69bc1b;fill-opacity:1;fill-rule:nonzero;stroke:none"
             id="path684"
             inkscape:connector-curvature="0" />
        </g>
        <g
           id="g686"
           transform="translate(661.61785,644.16966)">
          <path
             d="m 0,0 c 0,-30.399 -2.682,-55.043 -5.989,-55.043 -3.308,0 -5.99,24.644 -5.99,55.043 0,30.399 2.682,55.042 5.99,55.042 C -2.682,55.042 0,30.399 0,0"
             style="fill:#b0e874;fill-opacity:1;fill-rule:nonzero;stroke:none"
             id="path688"
             inkscape:connector-curvature="0" />
        </g>
        <g
           id="g690"
           transform="translate(639.58264,658.81426)">
          <path
             d="m 0,0 c -9.016,9.016 -15.527,17.118 -14.548,18.1 0.982,0.981 9.085,-5.533 18.1,-14.548 C 12.567,-5.463 19.08,-13.565 18.1,-14.548 17.119,-15.528 9.016,-9.016 0,0"
             style="fill:#b0e874;fill-opacity:1;fill-rule:nonzero;stroke:none"
             id="path692"
             inkscape:connector-curvature="0" />
        </g>
        <g
           id="g694"
           transform="translate(637.43224,625.97246)">
          <path
             d="m 0,0 c -9.016,9.016 -15.53,17.119 -14.548,18.1 0.98,0.981 9.084,-5.533 18.1,-14.548 9.015,-9.014 15.527,-17.119 14.547,-18.099 C 17.117,-15.528 9.014,-9.015 0,0"
             style="fill:#b0e874;fill-opacity:1;fill-rule:nonzero;stroke:none"
             id="path696"
             inkscape:connector-curvature="0" />
        </g>
        <g
           id="g698"
           transform="translate(672.56314,658.81426)">
          <path
             d="M 0,0 C 9.016,9.016 15.528,17.118 14.548,18.1 13.566,19.081 5.463,12.567 -3.553,3.552 -12.567,-5.463 -19.081,-13.565 -18.1,-14.548 -17.119,-15.528 -9.015,-9.016 0,0"
             style="fill:#b0e874;fill-opacity:1;fill-rule:nonzero;stroke:none"
             id="path700"
             inkscape:connector-curvature="0" />
        </g>
        <g
           id="g702"
           transform="translate(674.71444,625.97246)">
          <path
             d="M 0,0 C 9.015,9.016 15.528,17.119 14.548,18.1 13.567,19.081 5.463,12.567 -3.552,3.552 -12.567,-5.462 -19.08,-13.567 -18.101,-14.547 -17.118,-15.528 -9.016,-9.015 0,0"
             style="fill:#b0e874;fill-opacity:1;fill-rule:nonzero;stroke:none"
             id="path704"
             inkscape:connector-curvature="0" />
        </g>
        <g
           id="g706"
           transform="translate(650.96745,589.12426)">
          <path
             d="m 0,0 c -1.221,-0.11 -108.601,-9.21 -94.78,82.96 2.67,17.84 10.149,20.17 19.84,14.02 0.809,-0.51 1.629,-1.08 2.469,-1.71 1.71,-1.29 3.491,-2.81 5.311,-4.52 C -42.03,67.11 -8.271,6.13 0,0"
             style="fill:#92d125;fill-opacity:1;fill-rule:nonzero;stroke:none"
             id="path708"
             inkscape:connector-curvature="0" />
        </g>
        <g
           id="g710"
           transform="translate(661.61785,589.12676)">
          <path
             d="M 0,0 C 0,0 108.682,-9.742 94.786,82.956 85.118,147.452 12.633,9.305 0,0"
             style="fill:#92d125;fill-opacity:1;fill-rule:nonzero;stroke:none"
             id="path712"
             inkscape:connector-curvature="0" />
        </g>
      </g>
      <rect
         style="color:#000000;clip-rule:nonzero;display:inline;overflow:visible;visibility:visible;opacity:1;isolation:auto;mix-blend-mode:normal;color-interpolation:sRGB;color-interpolation-filters:linearRGB;solid-color:#000000;solid-opacity:1;fill:#ececec;fill-opacity:1;fill-rule:evenodd;stroke:none;stroke-width:3;stroke-linecap:butt;stroke-linejoin:miter;stroke-miterlimit:4;stroke-dasharray:none;stroke-dashoffset:0;stroke-opacity:1;color-rendering:auto;image-rendering:auto;shape-rendering:auto;text-rendering:auto;enable-background:accumulate"
         id="rect5118-6-5"
         width="38.385796"
         height="34.850262"
         x="-411.34268"
         y="623.26898" />
      <text
         xml:space="preserve"
         style="font-style:normal;font-variant:normal;font-weight:normal;font-stretch:normal;font-size:14.65531731px;line-height:125%;font-family:roboto;-inkscape-font-specification:'roboto, Normal';text-align:start;letter-spacing:0px;word-spacing:0px;writing-mode:lr-tb;text-anchor:start;display:inline;opacity:1;fill:#000000;fill-opacity:1;stroke:none;stroke-width:1px;stroke-linecap:butt;stroke-linejoin:miter;stroke-opacity:1"
         x="-369.29346"
         y="633.86389"
         id="text5137-6-9"
         sodipodi:linespacing="125%"><tspan
           sodipodi:role="line"
           id="tspan5139-6-4"
           x="-369.29346"
           y="633.86389"
           style="font-style:normal;font-variant:normal;font-weight:normal;font-stretch:normal;font-size:11.25px;font-family:roboto;-inkscape-font-specification:roboto;fill:#000000;fill-opacity:1">Oignons rouges</tspan></text>
      <text
         xml:space="preserve"
         style="font-style:normal;font-variant:normal;font-weight:normal;font-stretch:normal;font-size:14.65531731px;line-height:125%;font-family:roboto;-inkscape-font-specification:'roboto, Normal';text-align:end;letter-spacing:0px;word-spacing:0px;writing-mode:lr-tb;text-anchor:end;display:inline;opacity:1;fill:#404040;fill-opacity:1;stroke:none;stroke-width:1px;stroke-linecap:butt;stroke-linejoin:miter;stroke-opacity:1"
         x="-245.57756"
         y="633.53168"
         id="text5137-2-4-9"
         sodipodi:linespacing="125%"><tspan
           sodipodi:role="line"
           id="tspan5139-5-9-0"
           x="-245.57756"
           y="633.53168"
           style="font-style:normal;font-variant:normal;font-weight:300;font-stretch:normal;font-size:11.25px;font-family:roboto;-inkscape-font-specification:'roboto Light';text-align:end;text-anchor:end;fill:#404040">3€/Kg</tspan></text>
      <rect
         style="color:#000000;clip-rule:nonzero;display:inline;overflow:visible;visibility:visible;opacity:1;isolation:auto;mix-blend-mode:normal;color-interpolation:sRGB;color-interpolation-filters:linearRGB;solid-color:#000000;solid-opacity:1;fill:#a5a5a5;fill-opacity:1;fill-rule:evenodd;stroke:none;stroke-width:3;stroke-linecap:butt;stroke-linejoin:miter;stroke-miterlimit:4;stroke-dasharray:none;stroke-dashoffset:0;stroke-opacity:1;color-rendering:auto;image-rendering:auto;shape-rendering:auto;text-rendering:auto;enable-background:accumulate"
         id="rect5159-5-9"
         width="123.49115"
         height="16.162441"
         x="-367.1485"
         y="641.70428"
         ry="1.7857274" />
      <text
         xml:space="preserve"
         style="font-style:normal;font-variant:normal;font-weight:normal;font-stretch:normal;font-size:9.25337982px;line-height:125%;font-family:roboto;-inkscape-font-specification:'roboto, Normal';text-align:start;letter-spacing:0px;word-spacing:0px;writing-mode:lr-tb;text-anchor:start;display:inline;opacity:1;fill:#ffffff;fill-opacity:1;stroke:none;stroke-width:1px;stroke-linecap:butt;stroke-linejoin:miter;stroke-opacity:1"
         x="-361.2886"
         y="653.28473"
         id="text5161-0-1"
         sodipodi:linespacing="125%"><tspan
           sodipodi:role="line"
           id="tspan5163-4-7"
           x="-361.2886"
           y="653.28473">Quantité</tspan></text>
      <path
         style="color:#000000;clip-rule:nonzero;display:inline;overflow:visible;visibility:visible;opacity:1;isolation:auto;mix-blend-mode:normal;color-interpolation:sRGB;color-interpolation-filters:linearRGB;solid-color:#000000;solid-opacity:1;fill:#ffffff;fill-opacity:1;fill-rule:evenodd;stroke:none;stroke-width:3;stroke-linecap:butt;stroke-linejoin:miter;stroke-miterlimit:4;stroke-dasharray:none;stroke-dashoffset:0;stroke-opacity:1;color-rendering:auto;image-rendering:auto;shape-rendering:auto;text-rendering:auto;enable-background:accumulate"
         d="m -258.10131,647.9545 9.82144,0 -4.91072,4.91072 z"
         id="rect5165-8-7"
         inkscape:connector-curvature="0"
         sodipodi:nodetypes="cccc" />
      <g
         id="g7588"
         transform="matrix(0.20964488,0,0,-0.20964488,-469.00095,678.22632)">
        <g
           id="g1134"
           transform="translate(366.09684,225.98366)">
          <path
             d="m 0,0 c 0.02,-4.449 -0.09,-9.399 -0.37,-14.89 -0.08,-1.429 -0.16,-2.889 -0.26,-4.4 -0.05,-0.81 -0.11,-1.63 -0.17,-2.46 l -4.88,0 c 0,0 -0.13,0.67 -0.33,1.881 -0.15,0.859 -0.33,2 -0.54,3.359 -0.55,3.691 -1.26,9.01 -1.73,14.941 -0.99,12.319 -0.97,27.25 3.46,35.519 0.11,0.231 0.24,0.45 0.37,0.67 0,0 4.34,-9 4.45,-34.62"
             style="fill:#3d8205;fill-opacity:1;fill-rule:nonzero;stroke:none"
             id="path1136"
             inkscape:connector-curvature="0" />
        </g>
        <g
           id="g1138"
           transform="translate(362.00694,205.15356)">
          <path
             d="m 0,0 -0.68,0.341 -0.05,0.019 -1.19,0.601 -7.6,3.8 c 0,0 0.35,1.88 0.24,5.269 -0.21,6.351 -2.06,17.97 -10.97,32.37 0,0 8.21,5.55 16.06,-23.139 C -3.02,14.98 -1.86,9.94 -0.73,4.011 -0.61,3.37 -0.49,2.721 -0.37,2.051 -0.35,1.95 -0.33,1.851 -0.31,1.74 -0.21,1.171 -0.1,0.591 0,0"
             style="fill:#479706;fill-opacity:1;fill-rule:nonzero;stroke:none"
             id="path1140"
             inkscape:connector-curvature="0" />
        </g>
        <g
           id="g1142"
           transform="translate(370.79354,209.18096)">
          <path
             d="m 0,0 c 0,0 -2.502,16.357 12.69,38.686 0,0 -13.514,6.977 -22.3,-43.17 L 0,0 Z"
             style="fill:#479706;fill-opacity:1;fill-rule:nonzero;stroke:none"
             id="path1144"
             inkscape:connector-curvature="0" />
        </g>
        <g
           id="g1146"
           transform="translate(403.12654,156.65356)">
          <path
             d="m 0,0 c 0,-0.479 -0.01,-0.96 -0.029,-1.439 -0.011,-0.64 -0.051,-1.29 -0.101,-1.92 -0.12,-1.731 -0.349,-3.42 -0.68,-5.05 -0.339,-1.78 -0.78,-3.5 -1.33,-5.16 -0.839,-2.58 -1.9,-5.021 -3.139,-7.311 -1.21,-2.229 -2.58,-4.319 -4.091,-6.269 -1.65,-2.151 -3.47,-4.121 -5.39,-5.911 -1.33,-1.229 -2.71,-2.379 -4.12,-3.429 -1.38,-1.05 -2.8,-2 -4.23,-2.861 -0.559,-0.339 -1.13,-0.66 -1.69,-0.96 -0.92,-0.509 -1.84,-0.969 -2.76,-1.389 -0.49,-0.231 -0.99,-0.45 -1.49,-0.66 -1.08,-0.451 -2.159,-0.851 -3.22,-1.191 -2.2,-0.72 -4.35,-1.189 -6.399,-1.429 -0.071,0 -0.141,-0.01 -0.211,-0.021 -0.18,-0.02 -0.36,-0.029 -0.539,-0.05 -0.27,-0.019 -0.551,-0.04 -0.81,-0.059 -0.371,-0.021 -0.741,-0.031 -1.101,-0.031 l -0.52,0 c -0.16,0.01 -0.319,0.01 -0.48,0.01 -0.1,0.011 -0.2,0.011 -0.3,0.021 -16.14,0.79 -40.34,17.939 -40.34,45.109 0,11.421 4.62,21.771 12.09,29.271 5.231,5.25 12.13,7.62 16.95,13.559 3.66,4.511 2.32,10.37 2.32,10.37 0,0 -0.67,4.731 0.84,5.271 0.11,0.04 0.24,0.059 0.371,0.059 1.699,0 4.769,-3.269 6.819,-5.71 0.75,-0.889 1.36,-1.66 1.73,-2.139 0.141,-0.191 0.25,-0.33 0.31,-0.41 0.04,-0.05 0.061,-0.081 0.061,-0.081 0,0 0.009,0.021 0.049,0.05 0.29,0.33 2.06,2.281 4.031,4.2 1.839,1.79 3.859,3.55 5.039,3.96 0.2,0.061 0.381,0.09 0.53,0.071 1.58,-0.191 0.47,-5.271 0.47,-5.271 0,0 -1.34,-5.859 2.32,-10.37 4.82,-5.939 11.72,-8.309 16.95,-13.559 5.981,-6.01 10.141,-13.84 11.561,-22.59 C -0.35,5.57 -0.22,4.44 -0.13,3.29 -0.09,2.75 -0.05,2.211 -0.029,1.66 -0.01,1.11 0,0.561 0,0"
             style="fill:#873052;fill-opacity:1;fill-rule:nonzero;stroke:none"
             id="path1148"
             inkscape:connector-curvature="0" />
        </g>
        <g
           id="g1150"
           transform="translate(361.64224,111.50906)">
          <path
             d="m 0,0 c 0,0 -1.61,0.694 -4.256,2.252 -2.624,1.579 -6.332,3.971 -10.296,7.476 -3.958,3.486 -8.214,8.092 -11.587,13.857 -1.674,2.879 -3.151,6.025 -4.203,9.381 -1.061,3.349 -1.743,6.883 -1.991,10.449 l -0.078,2.677 c -0.015,0.891 0.054,1.781 0.077,2.669 l 0.026,0.666 c 0.009,0.291 0.042,0.452 0.062,0.685 l 0.137,1.293 c 0.124,0.871 0.281,1.791 0.466,2.656 0.777,3.462 2.11,6.717 3.767,9.62 3.305,5.841 7.631,10.367 11.445,13.976 3.833,3.616 7.284,6.306 9.455,8.44 1.087,1.06 1.89,1.955 2.271,2.672 0.396,0.715 0.325,1.188 0.349,1.18 -0.026,0.008 0.09,-0.458 -0.251,-1.227 -0.333,-0.763 -1.05,-1.763 -2.088,-2.896 -2.071,-2.275 -5.291,-5.248 -8.93,-8.986 -1.809,-1.878 -3.705,-3.968 -5.562,-6.283 -1.858,-2.316 -3.612,-4.908 -5.146,-7.724 -1.547,-2.812 -2.692,-5.933 -3.422,-9.182 -0.168,-0.816 -0.299,-1.602 -0.416,-2.444 l -0.128,-1.295 c -0.016,-0.199 -0.056,-0.468 -0.052,-0.611 l -0.019,-0.639 c -0.016,-0.851 -0.078,-1.704 -0.057,-2.558 l 0.089,-2.56 c 0.408,-6.833 2.586,-13.476 5.725,-19.088 3.134,-5.636 7.115,-10.271 10.837,-13.889 3.744,-3.61 7.208,-6.274 9.729,-7.989 C -1.532,0.852 0,0 0,0"
             style="fill:#b54774;fill-opacity:1;fill-rule:nonzero;stroke:none"
             id="path1152"
             inkscape:connector-curvature="0" />
        </g>
        <g
           id="g1154"
           transform="translate(364.72084,111.50906)">
          <path
             d="m 0,0 c 0,0 -1.461,0.776 -3.795,2.489 -2.313,1.726 -5.557,4.339 -8.89,8.056 -3.334,3.696 -6.772,8.502 -9.356,14.23 -1.284,2.861 -2.388,5.931 -3.149,9.144 -0.771,3.21 -1.247,6.543 -1.423,9.892 l -0.055,2.513 0.071,2.505 0.021,0.625 c 0.01,0.265 0.033,0.425 0.049,0.642 l 0.107,1.221 c 0.082,0.818 0.224,1.674 0.345,2.499 0.575,3.28 1.622,6.399 2.888,9.278 2.594,5.755 6.146,10.463 9.392,14.206 3.242,3.766 6.238,6.6 8.074,8.804 0.921,1.094 1.588,2.006 1.888,2.711 0.14,0.352 0.243,0.635 0.244,0.833 0.019,0.199 0.029,0.301 0.029,0.301 0,0 0,-0.103 -0.002,-0.303 0.018,-0.203 -0.059,-0.496 -0.169,-0.87 -0.248,-0.742 -0.818,-1.752 -1.684,-2.914 -1.722,-2.334 -4.46,-5.426 -7.493,-9.291 -3.014,-3.867 -6.298,-8.592 -8.664,-14.177 -1.171,-2.791 -2.054,-5.795 -2.599,-8.904 -0.107,-0.779 -0.231,-1.529 -0.307,-2.336 l -0.098,-1.221 c -0.013,-0.191 -0.041,-0.438 -0.041,-0.583 l -0.015,-0.604 -0.053,-2.42 0.069,-2.423 c 0.277,-6.463 1.804,-12.836 4.183,-18.422 2.372,-5.598 5.536,-10.396 8.617,-14.193 C -8.717,7.496 -5.75,4.643 -3.555,2.793 -1.368,0.927 0,0 0,0"
             style="fill:#b54774;fill-opacity:1;fill-rule:nonzero;stroke:none"
             id="path1156"
             inkscape:connector-curvature="0" />
        </g>
        <g
           id="g1158"
           transform="translate(364.38345,111.50906)">
          <path
             d="m 0,0 c 0,0 -0.274,0.255 -0.77,0.761 -0.485,0.511 -1.193,1.271 -2.021,2.302 -0.401,0.524 -0.846,1.105 -1.331,1.737 -0.456,0.654 -0.949,1.361 -1.476,2.117 -0.492,0.78 -1.015,1.61 -1.567,2.485 -0.501,0.908 -1.027,1.861 -1.577,2.855 -0.497,1.023 -1.015,2.089 -1.551,3.191 -0.468,1.135 -0.952,2.308 -1.449,3.513 -0.429,1.232 -0.87,2.499 -1.32,3.793 -0.427,1.303 -0.748,2.668 -1.135,4.039 -0.397,1.37 -0.611,2.806 -0.931,4.236 -0.337,1.431 -0.504,2.907 -0.702,4.39 -0.098,0.741 -0.197,1.486 -0.296,2.232 -0.074,0.749 -0.109,1.504 -0.165,2.259 l -0.154,2.269 c -0.057,0.757 -0.108,1.515 -0.091,2.274 0.007,1.519 0.015,3.037 0.022,4.55 0.024,1.536 0.142,2.991 0.286,4.524 0.297,2.994 0.889,5.9 1.603,8.665 1.439,5.537 3.618,10.427 5.727,14.432 2.103,4.019 4.169,7.165 5.367,9.491 0.603,1.159 1.029,2.096 1.204,2.775 0.079,0.339 0.141,0.602 0.144,0.784 0.015,0.181 0.023,0.275 0.023,0.275 0,0 0.002,-0.094 0.005,-0.276 0.015,-0.184 -0.02,-0.453 -0.066,-0.807 -0.116,-0.702 -0.425,-1.708 -0.959,-2.918 -1.056,-2.427 -2.809,-5.76 -4.687,-9.83 -0.934,-2.038 -1.867,-4.275 -2.749,-6.674 -0.879,-2.399 -1.653,-4.979 -2.3,-7.678 -0.646,-2.702 -1.105,-5.537 -1.39,-8.429 -0.123,-1.412 -0.234,-2.933 -0.243,-4.389 0.004,-1.479 0.007,-2.966 0.011,-4.452 -0.023,-0.744 0.021,-1.484 0.072,-2.225 l 0.133,-2.218 c 0.05,-0.739 0.077,-1.477 0.144,-2.209 0.091,-0.731 0.182,-1.458 0.273,-2.184 0.312,-2.906 0.84,-5.738 1.427,-8.458 0.343,-1.348 0.641,-2.686 0.999,-3.978 0.392,-1.283 0.775,-2.537 1.147,-3.759 0.439,-1.201 0.865,-2.369 1.278,-3.499 0.467,-1.11 0.919,-2.182 1.352,-3.21 0.484,-1.008 0.947,-1.974 1.388,-2.893 0.478,-0.901 0.932,-1.756 1.358,-2.559 0.465,-0.784 0.899,-1.518 1.3,-2.196 0.432,-0.66 0.829,-1.267 1.187,-1.815 0.753,-1.07 1.353,-1.91 1.791,-2.462 C -0.25,0.283 0,0 0,0"
             style="fill:#b54774;fill-opacity:1;fill-rule:nonzero;stroke:none"
             id="path1160"
             inkscape:connector-curvature="0" />
        </g>
        <g
           id="g1162"
           transform="translate(363.10124,110.80496)">
          <path
             d="m 0,0 c 0,0 -0.109,0.337 -0.313,0.968 -0.172,0.639 -0.499,1.566 -0.78,2.774 -0.272,1.208 -0.691,2.663 -1.011,4.362 -0.322,1.697 -0.795,3.6 -1.077,5.709 -0.302,2.106 -0.727,4.38 -0.97,6.807 -0.25,2.426 -0.557,4.984 -0.775,7.637 -0.155,2.657 -0.315,5.402 -0.477,8.192 -0.148,2.792 -0.105,5.631 -0.166,8.469 -0.008,1.419 -0.015,2.838 -0.022,4.251 0.022,1.451 0.089,2.823 0.13,4.224 0.045,1.391 0.093,2.771 0.162,4.135 0.111,1.371 0.221,2.725 0.329,4.057 0.17,2.669 0.521,5.221 0.823,7.643 0.272,2.424 0.708,4.693 1.03,6.795 0.723,4.192 1.508,7.648 1.92,10.081 0.111,0.609 0.211,1.152 0.297,1.625 0.055,0.475 0.103,0.879 0.141,1.208 0.076,0.66 0.117,1.012 0.117,1.012 0,0 -0.003,-0.353 -0.009,-1.016 -0.003,-0.334 -0.007,-0.746 -0.012,-1.23 -0.043,-0.48 -0.092,-1.032 -0.148,-1.649 -0.108,-1.241 -0.293,-2.733 -0.494,-4.447 -0.201,-1.711 -0.428,-3.641 -0.675,-5.748 -0.109,-1.052 -0.223,-2.149 -0.341,-3.284 -0.125,-1.134 -0.257,-2.304 -0.342,-3.513 -0.2,-2.415 -0.431,-4.959 -0.55,-7.588 -0.074,-1.314 -0.149,-2.65 -0.225,-4.002 -0.031,-1.365 -0.062,-2.745 -0.093,-4.137 -0.03,-1.383 -0.086,-2.816 -0.094,-4.183 0.018,-1.404 0.036,-2.814 0.054,-4.223 0.039,-2.819 -0.028,-5.642 0.096,-8.413 0.103,-2.774 0.204,-5.503 0.302,-8.144 0.174,-2.637 0.342,-5.186 0.503,-7.603 0.057,-1.212 0.201,-2.381 0.308,-3.516 0.109,-1.136 0.214,-2.232 0.314,-3.285 0.085,-1.057 0.214,-2.062 0.34,-3.017 C -1.59,9.993 -1.479,9.085 -1.375,8.231 -1.19,6.518 -0.89,5.049 -0.714,3.823 -0.517,2.603 -0.322,1.652 -0.209,0.997 -0.073,0.347 0,0 0,0"
             style="fill:#b54774;fill-opacity:1;fill-rule:nonzero;stroke:none"
             id="path1164"
             inkscape:connector-curvature="0" />
        </g>
        <g
           id="g1166"
           transform="translate(363.52894,111.50906)">
          <path
             d="m 0,0 c 0,0 1.532,0.852 4.047,2.578 2.521,1.715 5.985,4.379 9.729,7.989 3.722,3.618 7.703,8.253 10.837,13.889 3.139,5.612 5.317,12.255 5.725,19.088 l 0.089,2.56 c 0.021,0.854 -0.041,1.707 -0.057,2.558 l -0.019,0.639 c 0.003,0.143 -0.036,0.412 -0.051,0.611 l -0.129,1.295 c -0.117,0.842 -0.248,1.628 -0.416,2.444 -0.73,3.249 -1.875,6.37 -3.422,9.182 -1.534,2.816 -3.288,5.408 -5.146,7.724 -1.857,2.315 -3.753,4.405 -5.562,6.283 -3.639,3.738 -6.859,6.711 -8.93,8.986 -1.038,1.133 -1.755,2.133 -2.088,2.896 -0.341,0.769 -0.225,1.235 -0.251,1.227 0.024,0.008 -0.047,-0.465 0.349,-1.18 0.381,-0.717 1.184,-1.612 2.271,-2.672 2.171,-2.134 5.622,-4.824 9.455,-8.44 3.814,-3.609 8.14,-8.135 11.445,-13.976 1.656,-2.903 2.99,-6.158 3.767,-9.62 0.185,-0.865 0.342,-1.785 0.466,-2.656 l 0.137,-1.293 c 0.021,-0.233 0.053,-0.394 0.062,-0.685 l 0.026,-0.666 c 0.022,-0.888 0.093,-1.778 0.077,-2.669 L 32.333,43.415 C 32.085,39.849 31.403,36.315 30.342,32.966 29.29,29.61 27.813,26.464 26.139,23.585 22.766,17.82 18.51,13.214 14.552,9.728 10.588,6.223 6.88,3.831 4.256,2.252 1.61,0.694 0,0 0,0"
             style="fill:#b54774;fill-opacity:1;fill-rule:nonzero;stroke:none"
             id="path1168"
             inkscape:connector-curvature="0" />
        </g>
        <g
           id="g1170"
           transform="translate(360.45034,111.50906)">
          <path
             d="m 0,0 c 0,0 1.368,0.927 3.555,2.793 2.195,1.85 5.162,4.703 8.261,8.495 3.081,3.797 6.245,8.595 8.617,14.193 2.379,5.586 3.906,11.959 4.183,18.422 l 0.069,2.423 -0.053,2.42 -0.015,0.604 c 0,0.145 -0.028,0.392 -0.041,0.583 l -0.098,1.221 c -0.076,0.807 -0.2,1.557 -0.307,2.336 -0.545,3.109 -1.428,6.113 -2.599,8.904 -2.366,5.585 -5.65,10.31 -8.664,14.177 -3.033,3.865 -5.771,6.957 -7.493,9.291 -0.866,1.162 -1.436,2.172 -1.684,2.914 -0.11,0.374 -0.187,0.667 -0.169,0.87 -0.002,0.2 -0.002,0.303 -0.002,0.303 0,0 0.01,-0.102 0.029,-0.301 C 3.59,89.45 3.693,89.167 3.833,88.815 4.133,88.11 4.8,87.198 5.721,86.104 7.557,83.9 10.553,81.066 13.795,77.3 c 3.246,-3.743 6.798,-8.451 9.392,-14.206 1.266,-2.879 2.313,-5.998 2.888,-9.278 0.121,-0.825 0.263,-1.681 0.345,-2.499 l 0.107,-1.221 c 0.016,-0.217 0.039,-0.377 0.049,-0.642 l 0.021,-0.625 0.071,-2.505 -0.055,-2.513 C 26.437,40.462 25.961,37.129 25.19,33.919 24.429,30.706 23.325,27.636 22.041,24.775 19.457,19.047 16.019,14.241 12.685,10.545 9.352,6.828 6.108,4.215 3.795,2.489 1.461,0.776 0,0 0,0"
             style="fill:#b54774;fill-opacity:1;fill-rule:nonzero;stroke:none"
             id="path1172"
             inkscape:connector-curvature="0" />
        </g>
        <g
           id="g1174"
           transform="translate(360.78774,111.50906)">
          <path
             d="m 0,0 c 0,0 0.25,0.283 0.689,0.831 0.438,0.552 1.038,1.392 1.791,2.462 0.358,0.548 0.755,1.155 1.187,1.815 0.401,0.678 0.835,1.412 1.3,2.196 0.426,0.803 0.88,1.658 1.358,2.559 0.441,0.919 0.904,1.885 1.388,2.893 0.433,1.028 0.885,2.1 1.352,3.21 0.413,1.13 0.839,2.298 1.278,3.499 0.372,1.222 0.755,2.476 1.147,3.759 0.358,1.292 0.656,2.63 0.999,3.978 0.587,2.72 1.115,5.552 1.427,8.458 0.091,0.726 0.182,1.453 0.273,2.184 0.067,0.732 0.094,1.47 0.144,2.209 l 0.133,2.218 c 0.051,0.741 0.095,1.481 0.072,2.225 0.004,1.486 0.007,2.973 0.011,4.452 -0.009,1.456 -0.12,2.977 -0.243,4.389 -0.285,2.892 -0.744,5.727 -1.39,8.429 -0.647,2.699 -1.421,5.279 -2.3,7.678 -0.882,2.399 -1.815,4.636 -2.749,6.674 -1.878,4.07 -3.631,7.403 -4.687,9.83 -0.534,1.21 -0.843,2.216 -0.959,2.918 -0.046,0.354 -0.081,0.623 -0.066,0.807 0.003,0.182 0.005,0.276 0.005,0.276 0,0 0.008,-0.094 0.023,-0.275 0.003,-0.182 0.065,-0.445 0.144,-0.784 0.175,-0.679 0.601,-1.616 1.204,-2.775 1.198,-2.326 3.264,-5.472 5.367,-9.491 2.109,-4.005 4.288,-8.895 5.727,-14.432 0.714,-2.765 1.306,-5.671 1.603,-8.665 0.144,-1.533 0.262,-2.988 0.286,-4.524 0.007,-1.513 0.015,-3.031 0.022,-4.55 0.017,-0.759 -0.034,-1.517 -0.091,-2.274 L 16.291,39.91 C 16.235,39.155 16.2,38.4 16.126,37.651 16.027,36.905 15.928,36.16 15.83,35.419 15.632,33.936 15.465,32.46 15.128,31.029 14.808,29.599 14.594,28.163 14.197,26.793 13.81,25.422 13.489,24.057 13.062,22.754 12.612,21.46 12.171,20.193 11.742,18.961 11.245,17.756 10.761,16.583 10.293,15.448 9.757,14.346 9.239,13.28 8.742,12.257 8.192,11.263 7.666,10.31 7.165,9.402 6.613,8.527 6.09,7.697 5.598,6.917 5.071,6.161 4.578,5.454 4.122,4.8 3.637,4.168 3.192,3.587 2.791,3.063 1.963,2.032 1.255,1.272 0.77,0.761 0.274,0.255 0,0 0,0"
             style="fill:#b54774;fill-opacity:1;fill-rule:nonzero;stroke:none"
             id="path1176"
             inkscape:connector-curvature="0" />
        </g>
        <g
           id="g1178"
           transform="translate(361.27454,110.23856)">
          <path
             d="m 0,0 c 0,0 0.115,0.338 0.332,0.972 0.184,0.645 0.494,1.571 0.815,2.774 0.29,1.214 0.749,2.652 1.075,4.357 0.173,0.848 0.358,1.751 0.551,2.704 0.199,0.949 0.425,1.943 0.567,3.002 0.166,1.05 0.34,2.146 0.519,3.28 0.167,1.135 0.416,2.294 0.516,3.513 0.266,2.422 0.547,4.978 0.837,7.621 0.163,2.655 0.33,5.397 0.5,8.185 0.129,1.39 0.117,2.8 0.13,4.213 0.013,1.413 0.027,2.831 0.04,4.25 0.025,1.419 0.05,2.837 0.075,4.25 -0.004,1.386 -0.066,2.825 -0.095,4.22 -0.072,1.388 -0.143,2.763 -0.214,4.123 -0.112,1.36 -0.194,2.708 -0.326,4.029 -0.275,2.64 -0.554,5.195 -0.923,7.604 -0.349,2.412 -0.753,4.684 -1.132,6.783 -0.799,4.188 -1.53,7.683 -1.965,10.15 -0.222,1.235 -0.3,2.221 -0.344,2.89 0.005,0.671 0.008,1.029 0.008,1.029 0,0 0.034,-0.354 0.1,-1.018 0.062,-0.327 0.139,-0.731 0.228,-1.205 0.114,-0.47 0.244,-1.01 0.389,-1.615 0.6,-2.416 1.683,-5.817 2.706,-9.988 0.506,-2.086 1.044,-4.352 1.482,-6.778 0.473,-2.419 0.875,-4.991 1.202,-7.662 0.166,-1.335 0.284,-2.7 0.432,-4.078 0.11,-1.383 0.21,-2.792 0.287,-4.205 0.041,-1.411 0.113,-2.799 0.13,-4.253 C 7.909,47.72 7.895,46.287 7.881,44.854 7.855,43.422 7.831,41.989 7.805,40.563 7.779,39.135 7.78,37.713 7.639,36.307 7.408,33.494 7.18,30.727 6.96,28.048 6.621,25.381 6.204,22.813 5.845,20.378 5.476,17.944 4.888,15.68 4.459,13.577 4.039,11.47 3.39,9.596 2.938,7.914 2.476,6.232 1.9,4.814 1.515,3.626 1.111,2.442 0.672,1.552 0.431,0.931 0.15,0.323 0,0 0,0"
             style="fill:#b54774;fill-opacity:1;fill-rule:nonzero;stroke:none"
             id="path1180"
             inkscape:connector-curvature="0" />
        </g>
        <g
           id="g1182"
           transform="translate(438.60024,127.87036)">
          <path
             d="m 0,0 c 0,-19.592 -15.883,-35.475 -35.476,-35.475 -19.59,0 -35.473,15.883 -35.473,35.475 0,19.593 15.883,35.475 35.473,35.475 C -15.883,35.475 0,19.593 0,0"
             style="fill:#fffae9;fill-opacity:1;fill-rule:nonzero;stroke:none"
             id="path1184"
             inkscape:connector-curvature="0" />
        </g>
        <g
           id="g1186"
           transform="translate(438.60024,127.87036)">
          <path
             d="m 0,0 c 0,-19.592 -15.883,-35.475 -35.476,-35.475 -19.59,0 -35.473,15.883 -35.473,35.475 0,19.593 15.883,35.475 35.473,35.475 C -15.883,35.475 0,19.593 0,0 Z"
             style="fill:none;stroke:#873052;stroke-width:1;stroke-linecap:butt;stroke-linejoin:miter;stroke-miterlimit:10;stroke-dasharray:none;stroke-opacity:1"
             id="path1188"
             inkscape:connector-curvature="0" />
        </g>
        <g
           id="g1190"
           transform="translate(403.12465,95.800059)">
          <path
             d="m 0,0 c -17.683,0 -32.071,14.389 -32.071,32.07 0,17.684 14.388,32.071 32.071,32.071 17.686,0 32.069,-14.387 32.069,-32.071 C 32.069,14.389 17.686,0 0,0"
             style="fill:#fffae9;fill-opacity:1;fill-rule:nonzero;stroke:none"
             id="path1192"
             inkscape:connector-curvature="0" />
        </g>
        <g
           id="g1194"
           transform="translate(403.12465,95.800059)">
          <path
             d="m 0,0 c -17.683,0 -32.071,14.389 -32.071,32.07 0,17.684 14.388,32.071 32.071,32.071 17.686,0 32.069,-14.387 32.069,-32.071 C 32.069,14.389 17.686,0 0,0 Z"
             style="fill:none;stroke:#e0bcca;stroke-width:2;stroke-linecap:butt;stroke-linejoin:miter;stroke-miterlimit:10;stroke-dasharray:none;stroke-opacity:1"
             id="path1196"
             inkscape:connector-curvature="0" />
        </g>
        <g
           id="g1198"
           transform="translate(403.12465,97.422159)">
          <path
             d="m 0,0 c -16.789,0 -30.447,13.66 -30.447,30.448 0,16.789 13.658,30.448 30.447,30.448 16.789,0 30.447,-13.659 30.447,-30.448 C 30.447,13.66 16.789,0 0,0"
             style="fill:#fffae9;fill-opacity:1;fill-rule:nonzero;stroke:none"
             id="path1200"
             inkscape:connector-curvature="0" />
        </g>
        <g
           id="g1202"
           transform="translate(403.12465,97.422159)">
          <path
             d="m 0,0 c -16.789,0 -30.447,13.66 -30.447,30.448 0,16.789 13.658,30.448 30.447,30.448 16.789,0 30.447,-13.659 30.447,-30.448 C 30.447,13.66 16.789,0 0,0 Z"
             style="fill:none;stroke:#873052;stroke-width:1;stroke-linecap:butt;stroke-linejoin:miter;stroke-miterlimit:10;stroke-dasharray:none;stroke-opacity:1"
             id="path1204"
             inkscape:connector-curvature="0" />
        </g>
        <g
           id="g1206"
           transform="translate(403.12465,102.44856)">
          <path
             d="m 0,0 c -14.017,0 -25.42,11.406 -25.42,25.422 0,14.016 11.403,25.421 25.42,25.421 14.018,0 25.423,-11.405 25.423,-25.421 C 25.423,11.406 14.018,0 0,0"
             style="fill:#fffae9;fill-opacity:1;fill-rule:nonzero;stroke:none"
             id="path1208"
             inkscape:connector-curvature="0" />
        </g>
        <g
           id="g1210"
           transform="translate(403.12465,102.44856)">
          <path
             d="m 0,0 c -14.017,0 -25.42,11.406 -25.42,25.422 0,14.016 11.403,25.421 25.42,25.421 14.018,0 25.423,-11.405 25.423,-25.421 C 25.423,11.406 14.018,0 0,0 Z"
             style="fill:none;stroke:#873052;stroke-width:1;stroke-linecap:butt;stroke-linejoin:miter;stroke-miterlimit:10;stroke-dasharray:none;stroke-opacity:1"
             id="path1212"
             inkscape:connector-curvature="0" />
        </g>
        <g
           id="g1214"
           transform="translate(403.12465,107.47786)">
          <path
             d="m 0,0 c -11.245,0 -20.394,9.148 -20.394,20.393 0,11.244 9.149,20.393 20.394,20.393 11.247,0 20.394,-9.149 20.394,-20.393 C 20.394,9.148 11.247,0 0,0"
             style="fill:#fffae9;fill-opacity:1;fill-rule:nonzero;stroke:none"
             id="path1216"
             inkscape:connector-curvature="0" />
        </g>
        <g
           id="g1218"
           transform="translate(403.12465,107.47786)">
          <path
             d="m 0,0 c -11.245,0 -20.394,9.148 -20.394,20.393 0,11.244 9.149,20.393 20.394,20.393 11.247,0 20.394,-9.149 20.394,-20.393 C 20.394,9.148 11.247,0 0,0 Z"
             style="fill:none;stroke:#873052;stroke-width:1;stroke-linecap:butt;stroke-linejoin:miter;stroke-miterlimit:10;stroke-dasharray:none;stroke-opacity:1"
             id="path1220"
             inkscape:connector-curvature="0" />
        </g>
        <g
           id="g1222"
           transform="translate(403.12465,112.50416)">
          <path
             d="m 0,0 c -8.475,0 -15.367,6.895 -15.367,15.366 0,8.473 6.892,15.367 15.367,15.367 8.475,0 15.369,-6.894 15.369,-15.367 C 15.369,6.895 8.475,0 0,0"
             style="fill:#fffae9;fill-opacity:1;fill-rule:nonzero;stroke:none"
             id="path1224"
             inkscape:connector-curvature="0" />
        </g>
        <g
           id="g1226"
           transform="translate(403.12465,112.50416)">
          <path
             d="m 0,0 c -8.475,0 -15.367,6.895 -15.367,15.366 0,8.473 6.892,15.367 15.367,15.367 8.475,0 15.369,-6.894 15.369,-15.367 C 15.369,6.895 8.475,0 0,0 Z"
             style="fill:none;stroke:#873052;stroke-width:1;stroke-linecap:butt;stroke-linejoin:miter;stroke-miterlimit:10;stroke-dasharray:none;stroke-opacity:1"
             id="path1228"
             inkscape:connector-curvature="0" />
        </g>
        <g
           id="g1230"
           transform="translate(403.12465,118.36066)">
          <path
             d="m 0,0 c -5.244,0 -9.51,4.267 -9.51,9.51 0,5.244 4.266,9.51 9.51,9.51 5.246,0 9.513,-4.266 9.513,-9.51 C 9.513,4.267 5.246,0 0,0"
             style="fill:#fffae9;fill-opacity:1;fill-rule:nonzero;stroke:none"
             id="path1232"
             inkscape:connector-curvature="0" />
        </g>
        <g
           id="g1234"
           transform="translate(403.12465,118.36066)">
          <path
             d="m 0,0 c -5.244,0 -9.51,4.267 -9.51,9.51 0,5.244 4.266,9.51 9.51,9.51 5.246,0 9.513,-4.266 9.513,-9.51 C 9.513,4.267 5.246,0 0,0 Z"
             style="fill:none;stroke:#873052;stroke-width:1;stroke-linecap:butt;stroke-linejoin:miter;stroke-miterlimit:10;stroke-dasharray:none;stroke-opacity:1"
             id="path1236"
             inkscape:connector-curvature="0" />
        </g>
        <g
           id="g1238"
           transform="translate(403.12465,100.52856)">
          <path
             d="m 0,0 c -15.077,0 -27.343,12.265 -27.343,27.342 0,15.077 12.266,27.343 27.343,27.343 15.078,0 27.343,-12.266 27.343,-27.343 C 27.343,12.265 15.078,0 0,0 Z"
             style="fill:none;stroke:#e0bcca;stroke-width:2;stroke-linecap:butt;stroke-linejoin:miter;stroke-miterlimit:10;stroke-dasharray:none;stroke-opacity:1"
             id="path1240"
             inkscape:connector-curvature="0" />
        </g>
      </g>
      <rect
         ry="4.2857141"
         y="671.73334"
         x="-381.07144"
         height="22.857143"
         width="103.92857"
         id="rect5871"
         style="color:#000000;clip-rule:nonzero;display:inline;overflow:visible;visibility:visible;opacity:1;isolation:auto;mix-blend-mode:normal;color-interpolation:sRGB;color-interpolation-filters:linearRGB;solid-color:#000000;solid-opacity:1;fill:#82ac28;fill-opacity:1;fill-rule:evenodd;stroke:none;stroke-width:3;stroke-linecap:butt;stroke-linejoin:miter;stroke-miterlimit:4;stroke-dasharray:none;stroke-dashoffset:0;stroke-opacity:1;color-rendering:auto;image-rendering:auto;shape-rendering:auto;text-rendering:auto;enable-background:accumulate" />
      <text
         sodipodi:linespacing="125%"
         id="text5873"
         y="687.44763"
         x="-354.89011"
         style="font-style:normal;font-variant:normal;font-weight:normal;font-stretch:normal;font-size:11.96232319px;line-height:125%;font-family:roboto;-inkscape-font-specification:'roboto, Normal';text-align:start;letter-spacing:0px;word-spacing:0px;writing-mode:lr-tb;text-anchor:start;fill:#ffffff;fill-opacity:1;stroke:none;stroke-width:1px;stroke-linecap:butt;stroke-linejoin:miter;stroke-opacity:1"
         xml:space="preserve"><tspan
           style="font-style:normal;font-variant:normal;font-weight:bold;font-stretch:normal;font-family:roboto;-inkscape-font-specification:'roboto Bold'"
           y="687.44763"
           x="-354.89011"
           id="tspan5875"
           sodipodi:role="line">VALIDER</tspan></text>
    </g>
    <text
       xml:space="preserve"
       style="font-style:normal;font-variant:normal;font-weight:normal;font-stretch:normal;font-size:96.89385986px;line-height:125%;font-family:roboto;-inkscape-font-specification:'roboto, Normal';text-align:start;letter-spacing:0px;word-spacing:0px;writing-mode:lr-tb;text-anchor:start;display:inline;opacity:1;fill:#000000;fill-opacity:1;stroke:none;stroke-width:1px;stroke-linecap:butt;stroke-linejoin:miter;stroke-opacity:1"
       x="589.33911"
       y="-1279.5281"
       id="text4157-0"
       sodipodi:linespacing="125%"><tspan
         sodipodi:role="line"
         x="589.33911"
         y="-1279.5281"
         style="font-style:normal;font-variant:normal;font-weight:900;font-stretch:normal;font-size:105.53213501px;font-family:roboto;-inkscape-font-specification:'roboto Heavy';text-align:center;text-anchor:middle;fill:#000000;fill-opacity:1"
         id="tspan9478">Prise de commande</tspan><tspan
         sodipodi:role="line"
         x="589.33911"
         y="-1147.6129"
         style="font-style:normal;font-variant:normal;font-weight:900;font-stretch:normal;font-size:105.53213501px;font-family:roboto;-inkscape-font-specification:'roboto Heavy';text-align:center;text-anchor:middle;fill:#000000;fill-opacity:1"
         id="tspan7080">automatique</tspan></text>
    <g
       id="g7269"
       transform="matrix(1.076536,0,0,1.076536,-50.362153,239.94496)">
      <text
         sodipodi:linespacing="125%"
         id="text7165"
         y="546.01318"
         x="156.19724"
         style="font-style:normal;font-variant:normal;font-weight:normal;font-stretch:normal;font-size:142.44898987px;line-height:125%;font-family:roboto;-inkscape-font-specification:'roboto, Normal';text-align:start;letter-spacing:0px;word-spacing:0px;writing-mode:lr-tb;text-anchor:start;fill:#033e68;fill-opacity:1;stroke:none;stroke-width:1px;stroke-linecap:butt;stroke-linejoin:miter;stroke-opacity:1"
         xml:space="preserve"><tspan
           style="font-style:normal;font-variant:normal;font-weight:900;font-stretch:normal;font-family:roboto;-inkscape-font-specification:'roboto Heavy';fill:#033e68;fill-opacity:1"
           y="546.01318"
           x="156.19724"
           id="tspan7167"
           sodipodi:role="line">cyberlegu.me</tspan></text>
    </g>
    <flowRoot
       transform="translate(-26.906888,-1114.6029)"
       xml:space="preserve"
       id="flowRoot7237-1"
       style="font-style:normal;font-variant:normal;font-weight:normal;font-stretch:normal;font-size:20px;line-height:125%;font-family:roboto;-inkscape-font-specification:'roboto, Normal';text-align:center;letter-spacing:0px;word-spacing:0px;writing-mode:lr-tb;text-anchor:middle;fill:#404040;fill-opacity:1;stroke:none;stroke-width:1px;stroke-linecap:butt;stroke-linejoin:miter;stroke-opacity:1;"><flowRegion
         id="flowRegion7239-6"><rect
           id="rect7241-6"
           width="1008.5714"
           height="331.42856"
           x="100"
           y="2074.2856"
           style="text-align:center;text-anchor:middle;fill:#404040;" /></flowRegion><flowPara
         id="flowPara7243-2"
         style="font-style:italic;font-variant:normal;font-weight:300;font-stretch:normal;font-size:50px;font-family:roboto;-inkscape-font-specification:'roboto Light Italic';text-align:center;text-anchor:middle;fill:#000000">Imprimé sur papier recyclé</flowPara></flowRoot>  </g>
</svg>
