<?xml version="1.0" encoding="utf-8"?>
<!-- Generator: Adobe Illustrator 16.0.0, SVG Export Plug-In . SVG Version: 6.00 Build 0)  -->
<svg version="1.2" baseProfile="tiny" id="Layer_1" xmlns="http://www.w3.org/2000/svg" xmlns:xlink="http://www.w3.org/1999/xlink"
	 x="0px" y="0px" width="531.666px" height="129.894px" viewBox="0 0 531.666 129.894" xml:space="preserve">
<g>
	<g>
		<path fill="#333333" d="M54.466,71.434l0.08,0.24c-0.508,5.854-2.593,10.458-6.254,13.813c-3.663,3.354-8.567,5.031-14.716,5.031
			c-6.495,0-11.733-2.346-15.716-7.037c-3.983-4.689-5.975-10.765-5.975-18.224v-9.502c0-7.43,1.991-13.505,5.975-18.223
			c3.982-4.717,9.221-7.077,15.716-7.077c6.201,0,11.12,1.645,14.755,4.932c3.635,3.288,5.707,7.913,6.215,13.874l-0.08,0.239h-4.49
			c-0.642-4.837-2.306-8.539-4.992-11.105s-6.489-3.849-11.407-3.849c-5.104,0-9.201,1.976-12.288,5.93
			c-3.088,3.952-4.631,9.014-4.631,15.184v9.574c0,6.25,1.543,11.347,4.631,15.286c3.087,3.939,7.184,5.908,12.288,5.908
			c4.918,0,8.728-1.254,11.428-3.759c2.699-2.505,4.356-6.25,4.972-11.236H54.466z"/>
		<path fill="#333333" d="M84.389,68.346l14.675-25.38h5.492l-17.842,29.83v16.881h-4.771V72.556l-17.682-29.59h5.453L84.389,68.346
			z"/>
		<path fill="#333333" d="M113.036,89.677V42.966h14.915c5.399,0,9.596,1.028,12.59,3.083c2.993,2.055,4.49,5.149,4.49,9.284
			c0,2.429-0.682,4.563-2.045,6.404s-3.287,3.148-5.773,3.922c2.887,0.563,5.198,1.882,6.937,3.956
			c1.737,2.075,2.606,4.465,2.606,7.171c0,4.203-1.431,7.401-4.29,9.597c-2.86,2.195-6.764,3.294-11.708,3.294H113.036z
			 M117.847,64.056h10.104c4.036,0,7.097-0.726,9.182-2.179c2.085-1.454,3.127-3.58,3.127-6.38c0-2.854-1.016-4.92-3.047-6.201
			c-2.031-1.279-5.118-1.919-9.262-1.919h-10.104V64.056z M117.847,67.865v17.723h12.91c3.555,0,6.308-0.768,8.26-2.3
			c1.95-1.532,2.927-3.741,2.927-6.621c0-2.587-0.942-4.675-2.826-6.261c-1.885-1.587-4.498-2.434-7.839-2.541h-0.521H117.847z"/>
		<path fill="#333333" d="M189.429,67.424h-23.416v18.163h26.904v4.09h-31.716V42.966h31.716v4.091h-26.904v16.277h23.416V67.424z"
			/>
		<path fill="#333333" d="M212.015,69.268v20.409h-4.813V42.966h17.762c5.213,0,9.223,1.135,12.029,3.406
			c2.805,2.27,4.209,5.527,4.209,9.773c0,2.617-0.656,4.848-1.965,6.689c-1.309,1.844-3.273,3.231-5.895,4.166
			c2.779,0.776,4.779,2.101,5.996,3.973c1.215,1.874,1.824,4.214,1.824,7.024v4.774c0,1.339,0.059,2.542,0.18,3.612
			c0.119,1.07,0.367,1.914,0.74,2.529v0.763h-5.01c-0.32-0.641-0.521-1.61-0.602-2.908c-0.08-1.295-0.119-2.638-0.119-4.028v-4.65
			c0-2.781-0.871-4.946-2.607-6.496c-1.738-1.55-4.211-2.326-7.418-2.326H212.015z M212.015,65.179h12.949
			c4.01,0,6.916-0.746,8.721-2.235s2.707-3.712,2.707-6.666s-0.902-5.229-2.707-6.826s-4.711-2.395-8.721-2.395h-12.949V65.179z"/>
	</g>
	<g>
		
			<path fill="#8E0004" stroke="#FFFFFF" stroke-width="2" stroke-linecap="round" stroke-linejoin="round" stroke-miterlimit="10" d="
			M312.742,43.377c0.48,0,0.961-0.12,1.442-0.361c0.481-0.24,0.962-0.643,1.443-1.209c0.339-0.424,0.799-0.99,1.379-1.697
			c0.579-0.707,1.223-1.492,1.931-2.355c0.706-0.862,1.449-1.774,2.228-2.737c0.777-0.961,1.541-1.931,2.291-2.906
			c0.749-0.976,1.471-1.91,2.164-2.801c0.693-0.891,1.309-1.704,1.846-2.439c1.046-1.415,1.57-2.786,1.57-4.116
			c0-0.849-0.185-1.626-0.552-2.333c-0.368-0.707-0.842-1.315-1.422-1.825s-1.237-0.905-1.973-1.188
			c-0.736-0.282-1.472-0.424-2.206-0.424c-0.821,0-1.606,0.212-2.355,0.637c-0.75,0.424-1.309,1.118-1.676,2.079
			c-1.302,2.942-2.504,5.686-3.606,8.231c-0.481,1.076-0.955,2.164-1.422,3.267c-0.467,1.104-0.905,2.129-1.315,3.077
			s-0.771,1.796-1.082,2.546s-0.552,1.309-0.722,1.676c-0.142,0.368-0.247,0.721-0.317,1.061c-0.071,0.339-0.106,0.665-0.106,0.976
			c0,0.849,0.24,1.535,0.722,2.058C311.483,43.116,312.063,43.377,312.742,43.377z"/>
		
			<path fill="#8E0004" stroke="#FFFFFF" stroke-width="2" stroke-linecap="round" stroke-linejoin="round" stroke-miterlimit="10" d="
			M510.781,70.931c-1.103,1.052-2.447,2.165-4.03,3.34c-1.585,1.176-3.268,2.262-5.05,3.257c-1.782,0.996-3.614,1.826-5.495,2.49
			s-3.67,0.995-5.367,0.995c-0.54,0-1.044-0.055-1.513-0.165c-0.468-0.111-0.915-0.305-1.341-0.581
			c-0.427-0.276-0.846-0.664-1.257-1.162c-0.411-0.497-0.83-1.12-1.256-1.867c2.466-0.664,4.755-1.591,6.867-2.78
			c2.111-1.189,3.933-2.544,5.464-4.066c1.53-1.521,2.87-3.347,4.019-5.476c1.147-2.13,1.722-4.052,1.722-5.768
			c0-1.61-0.283-3.065-0.85-4.364c-0.566-1.3-1.353-2.409-2.357-3.327c-1.005-0.918-2.188-1.631-3.547-2.14
			c-1.359-0.508-2.832-0.763-4.418-0.763c-1.941,0-3.707,0.342-5.297,1.026s-3.024,1.605-4.305,2.764
			c-1.28,1.159-2.398,2.499-3.355,4.021c-0.956,1.521-1.751,3.12-2.384,4.794c-0.633,1.675-1.245,3.595-1.836,5.759
			s-0.887,4.027-0.887,5.59c0,0.382,0.022,0.756,0.04,1.132c-0.842,0.937-1.688,1.816-2.54,2.624
			c-0.594,0.571-1.216,1.121-1.866,1.648c-0.651,0.528-1.315,0.993-1.995,1.392c-0.679,0.4-1.344,0.729-1.994,0.985
			c-0.65,0.258-1.272,0.386-1.866,0.386c-0.566,0-1.047-0.485-1.443-1.456s-0.594-2.228-0.594-3.77c0-1.97,0.099-3.832,0.297-5.588
			c0.197-1.755,0.495-3.705,0.892-5.846c0.396-2.141,0.692-4.097,0.891-5.867c0.197-1.771,0.297-3.64,0.297-5.61
			c0-1.285-0.46-2.277-1.379-2.976c-0.92-0.7-2.044-1.05-3.373-1.05c-1.188,0-2.192,0.394-3.013,1.178
			c-0.821,0.785-1.641,1.749-2.461,2.891c-0.849,1.171-1.761,2.527-2.737,4.069c-0.976,1.542-1.896,3.012-2.758,4.411
			c-0.863,1.399-1.662,2.805-2.397,4.218c-0.736,1.414-1.132,2.163-1.188,2.249l-0.466-0.514c0-0.057,0.014-0.171,0.042-0.343
			c0.085-0.542,0.17-0.956,0.255-1.242c0.509-1.77,0.862-3.126,1.061-4.069c0.255-1.084,0.48-1.998,0.679-2.741
			c0.17-0.656,0.34-1.627,0.51-2.913c0.141-0.999,0.212-2.055,0.212-3.169c0-1.285-0.425-2.277-1.273-2.976
			c-0.849-0.7-1.867-1.05-3.055-1.05c-1.273,0-2.37,0.386-3.288,1.156c-0.92,0.771-1.79,1.742-2.61,2.913
			c-0.849,1.171-1.739,2.52-2.673,4.047c-0.934,1.528-1.804,2.992-2.609,4.391c-0.807,1.399-1.557,2.813-2.249,4.24
			c-0.693,1.427-1.068,2.184-1.124,2.27l-0.467-0.514c0.424-2.398,0.834-4.568,1.23-6.51c0.027-0.057,0.141-0.799,0.339-2.227
			c0.113-0.742,0.198-1.47,0.255-2.184c0.085-0.713,0.148-1.385,0.191-2.013c0.042-0.628,0.063-1.185,0.063-1.67
			c0-0.885-0.028-1.584-0.085-2.099c-0.058-0.514-0.233-0.906-0.53-1.177c-0.297-0.271-0.75-0.442-1.358-0.514
			c-0.608-0.071-1.449-0.107-2.524-0.107c-0.707,0-1.287,0.051-1.739,0.15c-0.453,0.1-0.843,0.3-1.167,0.6
			c-0.326,0.3-0.615,0.721-0.87,1.263c-0.255,0.542-0.523,1.271-0.807,2.185c-0.282,0.885-0.594,2.027-0.933,3.426
			c-0.34,1.399-0.673,2.941-0.998,4.625c-0.325,1.685-0.707,3.659-1.146,5.922c-0.421,2.176-0.742,4.115-0.968,5.83
			c-0.002-0.376-0.004-0.761-0.004-1.168c-0.481,0.625-1.111,1.299-1.889,2.024c-0.778,0.724-1.641,1.455-2.588,2.193
			c-0.948,0.738-1.945,1.441-2.992,2.108s-2.072,1.264-3.076,1.789s-1.951,0.944-2.843,1.257c-0.891,0.313-1.648,0.468-2.27,0.468
			c-0.489,0-0.863-0.135-1.12-0.404s-0.447-0.653-0.569-1.15c-0.121-0.496-0.195-1.079-0.22-1.746s-0.036-1.398-0.036-2.194
			c0-0.491,0.101-1.28,0.302-2.363c0.202-1.083,0.438-2.348,0.706-3.793c0.27-1.445,0.609-3.272,1.02-5.482
			c0.411-2.209,0.761-4.091,1.051-5.648s0.46-2.993,0.511-4.309c0.051-1.315,0.076-2.355,0.076-3.12
			c0-0.792-0.409-1.443-1.229-1.952c-0.819-0.509-1.927-0.765-3.318-0.765c-1.229,0-2.329,0.233-3.299,0.7
			c-0.969,0.467-1.522,1.04-1.658,1.718l-4.679,23.124c-0.228,1.181-0.568,2.218-1.022,3.109c-0.454,0.922-0.979,1.671-1.575,2.247
			c-0.567,0.634-1.179,1.115-1.831,1.447c-0.653,0.331-1.292,0.496-1.917,0.496c-0.425,0-0.795-0.116-1.106-0.35
			c-0.313-0.233-0.567-0.541-0.767-0.92s-0.348-0.811-0.447-1.291c-0.1-0.481-0.148-0.985-0.148-1.512
			c0-0.029,0.072-0.45,0.219-1.264c0.146-0.813,0.337-1.881,0.574-3.2c0.237-1.319,0.553-3.072,0.945-5.259s0.75-4.173,1.071-5.959
			c0.32-1.786,0.64-3.56,0.957-5.319c0.317-1.76,0.604-3.593,0.858-5.501c0-0.612-0.326-1.125-0.977-1.539
			c-0.65-0.414-1.726-0.657-3.225-0.729c-0.905,0.028-1.719,0.269-2.439,0.721c-0.722,0.453-1.352,1.033-1.889,1.74
			c-0.537,0.708-1.004,1.5-1.4,2.376c-0.396,0.877-0.729,1.739-0.997,2.588s-0.47,1.635-0.603,2.359
			c-0.133,0.724-0.238,1.294-0.314,1.712c-0.668,5.203-1.383,9.221-2.145,12.08c-3.946,6.247-7.506,10.584-10.665,12.96
			c-0.934,0.706-1.811,1.299-2.631,1.777c0.424-4.428,0.735-8.023,0.934-10.788c0.197-2.765,0.615-5.278,1.252-7.541
			c0.636-2.263,0.997-4.161,1.082-5.694c0.254-4.941,0.212-7.852-0.128-8.732c-0.198-0.511-0.382-0.923-0.552-1.235
			c-0.48-0.767-1.357-1.15-2.63-1.15l-1.87,0.042c-0.372,0-0.699-0.014-0.983-0.042c-0.283-0.029-0.539-0.085-0.765-0.172
			c-0.227-0.085-0.41-0.15-0.552-0.193c-0.142-0.042-0.297-0.15-0.467-0.321s-0.29-0.286-0.36-0.343
			c-0.071-0.057-0.191-0.208-0.361-0.451c-0.169-0.243-0.297-0.407-0.382-0.493c-0.679-0.829-1.754-1.243-3.225-1.243
			c-3.253,0-6.605,1.542-10.056,4.625c-2.377,2.122-4.314,4.619-5.813,7.489c-1.5,2.872-2.985,6.513-4.455,10.926
			c-0.139,0.406-0.248,0.802-0.362,1.198c-0.705,0.59-1.474,1.194-2.314,1.818c-1.585,1.176-3.268,2.262-5.05,3.257
			c-1.782,0.996-3.614,1.826-5.495,2.49s-3.67,0.995-5.367,0.995c-0.54,0-1.044-0.055-1.513-0.165
			c-0.468-0.111-0.915-0.305-1.341-0.581c-0.427-0.276-0.846-0.664-1.257-1.162c-0.411-0.497-0.83-1.12-1.256-1.867
			c2.466-0.664,4.755-1.591,6.867-2.78c2.111-1.189,3.933-2.544,5.464-4.066c1.53-1.521,2.87-3.347,4.019-5.476
			c1.147-2.13,1.722-4.052,1.722-5.768c0-1.61-0.283-3.065-0.85-4.364c-0.566-1.3-1.353-2.409-2.357-3.327
			c-1.005-0.918-2.188-1.631-3.547-2.14c-1.359-0.508-2.832-0.763-4.418-0.763c-1.941,0-3.707,0.342-5.297,1.026
			s-3.024,1.605-4.305,2.764c-1.28,1.159-2.398,2.499-3.355,4.021c-0.956,1.521-1.751,3.12-2.384,4.794
			c-0.633,1.675-1.245,3.595-1.836,5.759s-0.887,4.027-0.887,5.59c0,2.25,0.305,4.4,0.889,6.458
			c-0.055,0.005-0.103,0.003-0.159,0.01c-0.289,0.026-0.521,0.067-0.693,0.121l-14.213,4.081c-2.188,1.16-3.907,1.74-5.158,1.74
			c-0.853,0-1.534-0.036-2.046-0.107c-0.513-0.072-0.917-0.172-1.215-0.301c-0.299-0.129-1.017-0.301-1.116-0.516
			s-0.668-0.451-0.668-0.71c0-0.113,0-0.271,0-0.472s0.525-0.565,0.541-1.096c0.014-0.53,0.294-1.311,0.323-2.342
			c0.113-2.435,0.301-4.525,0.301-6.273c3.105-1.919,6.171-4.104,9.063-6.553s5.618-5.048,8.112-7.798
			c2.494-2.75,4.783-5.607,6.835-8.572s3.821-5.937,5.289-8.916c1.468-2.979,2.604-5.929,3.402-8.851
			c0.798-2.921,1.199-5.715,1.199-8.378c0-2.2-0.244-4.125-0.734-5.775s-1.168-3.025-2.034-4.125
			c-0.865-1.1-1.903-1.925-3.116-2.475c-1.212-0.55-2.538-0.825-3.98-0.825c-1.953,0-4.055,0.51-6.306,1.529
			c-2.25,1.02-4.528,2.556-6.836,4.608c-2.307,2.053-4.571,4.602-6.793,7.646c-2.223,3.044-4.274,6.598-6.156,10.66
			c-1.883,4.063-3.518,8.614-4.904,13.653s-2.393,10.574-3.015,16.603l-0.34,2.929c-1.334,0.975-2.688,1.941-4.063,2.9
			c-1.376,0.96-2.659,1.841-3.851,2.643c-1.191,0.803-2.228,1.496-3.107,2.084c-0.878,0.588-1.503,1.01-1.871,1.268
			c-0.454,0.315-0.745,0.738-0.873,1.268c-0.127,0.53-0.191,1.067-0.191,1.611c0,0.649,0.106,1.306,0.319,1.969
			s0.504,1.264,0.872,1.799c0.369,0.536,0.773,0.967,1.214,1.292c0.44,0.324,0.901,0.486,1.383,0.486
			c0.483,0,1.575-0.522,3.278-1.567c1.702-1.045,3.773-2.457,6.215-4.236c0,1.724,0.154,3.69,0.465,5.897
			c0.311,2.209,0.853,3.898,1.628,5.07c0.773,1.171,1.831,2.101,3.169,2.787s3.05,1.03,5.136,1.03c1.377,0,2.803-0.054,4.279-0.159
			c1.477-0.106,2.908-0.358,4.295-0.756c1.387-0.398,2.76-0.792,4.119-1.181c1.358-0.391,2.677-0.769,3.954-1.135
			c2.926-0.729,5.794-1.551,8.604-2.468c0.689-0.115,1.292-0.346,1.81-0.691c0.517-0.347,0.948-0.758,1.293-1.234
			c0.193-0.267,0.354-0.549,0.492-0.839c1.108,1.104,2.399,2.022,3.875,2.751c1.981,0.979,4.292,1.469,6.934,1.469
			c1.698,0,3.376-0.196,5.03-0.59c1.655-0.394,3.253-0.918,4.795-1.573c1.542-0.654,3.013-1.405,4.413-2.25s2.708-1.704,3.925-2.579
			c0.305-0.222,0.6-0.461,0.9-0.689c0.108,0.271,0.207,0.544,0.334,0.808c0.934,1.98,2.326,3.636,4.18,4.965
			c1.853,1.33,3.882,1.994,6.089,1.994c2.998,0,6.081-1.498,9.25-4.493l-0.849,5.045c-1.782,1.555-3.317,3.005-4.604,4.349
			c-1.288,1.344-2.922,3.133-4.901,5.368c-0.962,1.074-1.902,2.284-2.821,3.628c-0.92,1.343-1.585,2.383-1.994,3.118
			c-0.411,0.735-1.153,2.037-2.229,3.904c-1.866,3.337-2.688,6.491-2.461,9.462c0.142,1.584,0.531,2.97,1.167,4.158
			c0.637,1.188,1.471,2.114,2.504,2.779c1.032,0.664,2.156,1.159,3.373,1.485c1.216,0.324,2.546,0.487,3.988,0.487
			c1.782,0,3.423-0.282,4.923-0.848c1.499-0.566,2.785-1.302,3.86-2.206s2.044-2.015,2.907-3.328
			c0.862-1.315,1.563-2.631,2.101-3.944c0.536-1.315,1.011-2.758,1.421-4.326c0.41-1.57,0.694-2.978,0.852-4.223
			c0.158-1.246,0.319-2.512,0.483-3.8c0.069-0.57,0.172-1.382,0.31-2.435c0.34-3.652,0.65-6.143,0.934-7.473
			c0.283-1.331,0.807-2.251,1.57-2.761c1.216-0.82,3.183-2.108,5.898-3.863c0.141-0.085,0.339-0.211,0.594-0.38
			c1.414-1.094,3.14-2.65,5.177-4.672c0.067-0.068,0.129-0.135,0.194-0.203c0.021,0.074,0.036,0.156,0.058,0.229
			c0.366,1.202,0.866,2.171,1.5,2.906s1.36,1.258,2.177,1.569c0.817,0.311,1.69,0.466,2.62,0.466c1.133,0,2.301-0.23,3.505-0.691
			c1.204-0.46,2.394-1.095,3.568-1.904c1.176-0.81,2.33-1.766,3.463-2.868s2.21-2.31,3.229-3.622
			c0.277,1.284,0.604,2.448,0.979,3.493c0.375,1.047,0.834,1.945,1.376,2.698c0.543,0.754,1.189,1.34,1.939,1.758
			c0.751,0.419,1.655,0.628,2.712,0.628c1.037,0,2.164-0.147,3.379-0.44c1.214-0.293,2.458-0.684,3.731-1.172
			c1.272-0.488,2.538-1.054,3.797-1.696c1.259-0.642,2.446-1.311,3.564-2.009c1.117-0.698,2.136-1.396,3.055-2.094
			c0.537-0.408,1.009-0.798,1.445-1.178c-0.002,0.135-0.006,0.275-0.006,0.404c0,1.099,0.063,2.163,0.191,3.192
			c0.127,1.029,0.382,1.949,0.764,2.76c0.382,0.81,0.926,1.456,1.634,1.936c0.706,0.48,1.64,0.721,2.8,0.721
			c0.905,0,1.732-0.199,2.482-0.598c0.749-0.397,1.407-1.16,1.974-2.286c1.951-3.815,3.543-7.04,4.773-9.674
			c1.23-2.633,2.241-4.774,3.033-6.426c0.792-1.651,1.407-2.628,1.846-3.482s0.828-0.646,1.167-1.646h0.637
			c-0.453,3-0.835,4.782-1.146,7.055c-0.142,0.967-0.283,1.802-0.425,2.782c-0.142,0.979-0.269,1.841-0.382,2.722
			c-0.113,0.88-0.198,1.628-0.254,2.31c-0.058,0.682-0.085,1.19-0.085,1.56c0,0.852,0.049,1.722,0.148,2.628
			c0.099,0.906,0.297,1.731,0.594,2.486c0.297,0.756,0.714,1.372,1.252,1.852c0.537,0.48,1.258,0.72,2.164,0.72
			c1.188,0,2.234-0.203,3.14-0.611s1.726-0.863,2.461-2.044l8.613-21.458h0.637c-0.227,2-0.403,3.751-0.53,5.764
			s-0.19,3.75-0.19,5.548c0,1.857,0.091,3.49,0.275,5.07c0.184,1.58,0.488,2.909,0.912,4.073c0.425,1.164,0.982,2.051,1.676,2.702
			s1.549,0.966,2.567,0.966c2.064,0,3.918-0.273,5.559-0.809c1.641-0.536,3.146-1.224,4.519-2.062
			c1.372-0.837,2.674-1.772,3.904-2.803c1.143-0.957,2.293-1.878,3.448-2.774c0.531,1.084,1.153,2.095,1.89,3.017
			c1.32,1.655,2.971,2.973,4.952,3.951c1.981,0.979,4.292,1.469,6.934,1.469c1.698,0,3.376-0.196,5.03-0.59
			c1.655-0.394,3.253-0.918,4.795-1.573c1.542-0.654,3.013-1.405,4.413-2.25s2.708-1.704,3.925-2.579
			c2.801-2.038,5.445-4.384,7.935-7.035L510.781,70.931z M272.454,50.844c0.864-3.638,1.878-7.004,3.039-10.098
			c1.161-3.093,2.423-5.901,3.783-8.422s2.706-4.669,4.038-6.445c1.332-1.776,2.607-3.144,3.826-4.104
			c1.219-0.959,2.281-1.439,3.188-1.439c0.765,0,1.367,0.373,1.807,1.117c0.438,0.745,0.659,1.934,0.659,3.566
			c0,0.458-0.015,0.953-0.043,1.482c-0.028,0.53-0.085,1.081-0.17,1.654c-0.227,1.719-0.73,3.539-1.509,5.458
			c-0.78,1.919-1.743,3.896-2.891,5.93c-1.148,2.034-2.438,4.075-3.868,6.123c-1.432,2.049-2.919,4.054-4.464,6.016
			s-3.104,3.839-4.677,5.629c-1.572,1.79-3.081,3.444-4.526,4.962C270.986,58.292,271.589,54.482,272.454,50.844z M303.237,68.11
			c0.058-0.857,0.32-1.95,0.789-3.277c0.468-1.327,0.879-2.441,1.234-3.34s0.824-1.7,1.406-2.406s1.306-1.279,2.172-1.722
			c0.865-0.443,1.909-0.665,3.13-0.665c0.682,0,1.257,0.401,1.726,1.203c0.468,0.802,0.703,1.826,0.703,3.07
			c0,0.885-0.498,2.006-1.491,3.361c-0.994,1.355-2.009,2.434-3.045,3.236c-1.037,0.802-2.158,1.459-3.365,1.971
			c-1.206,0.512-2.321,0.767-3.344,0.767C303.152,69.7,303.18,68.968,303.237,68.11z M346.627,104.132
			c-0.176,1.44-0.324,2.65-0.443,3.63c-0.119,0.979-0.307,1.878-0.561,2.698c-0.425,1.528-0.793,2.751-1.104,3.671
			c-0.312,0.919-0.658,1.859-1.04,2.821s-0.742,1.697-1.082,2.207c-0.339,0.509-0.735,0.982-1.188,1.421
			c-0.453,0.438-0.941,0.743-1.464,0.912c-0.523,0.17-1.125,0.255-1.804,0.255c-1.896,0-2.376-1.344-1.442-4.03
			c1.131-3.225,2.658-6.399,4.583-9.524c1.923-3.125,3.884-5.396,5.88-6.81C346.917,101.774,346.804,102.691,346.627,104.132z
			 M347.66,70.49c-0.113,2.461-0.665,4.909-1.654,7.341c-1.273,3.083-2.872,4.625-4.795,4.625c-1.104,0-1.994-0.595-2.673-1.782
			c-1.047-1.839-1.302-4.555-0.765-8.147c0.255-1.668,1.726-4.851,4.413-9.547c2.489-4.413,5.374-6.619,8.656-6.619L347.66,70.49z
			 M484.577,68.11c0.058-0.857,0.32-1.95,0.789-3.277c0.468-1.327,0.879-2.441,1.234-3.34s0.824-1.7,1.406-2.406
			s1.306-1.279,2.172-1.722c0.865-0.443,1.909-0.665,3.13-0.665c0.682,0,1.257,0.401,1.726,1.203
			c0.468,0.802,0.703,1.826,0.703,3.07c0,0.885-0.498,2.006-1.491,3.361c-0.994,1.355-2.009,2.434-3.045,3.236
			c-1.037,0.802-2.158,1.459-3.365,1.971c-1.206,0.512-2.321,0.767-3.344,0.767C484.492,69.7,484.52,68.968,484.577,68.11z"/>
	</g>
	<g>
		<path d="M21.531,116.269l0.381,0.993h0.104l0.382-0.98l6.521-12.693h2.22l-8.169,15.437h-2.029l-8.169-15.437h2.238
			L21.531,116.269z"/>
		<path d="M51.1,111.671H40.97v6.002h11.638v1.352H38.889v-15.437h13.719v1.352H40.97v5.38H51.1V111.671z"/>
		<path d="M77.374,119.025H75.31l-12.176-12.893l-0.104,0.027v12.865h-2.081v-15.437h2.081l12.176,12.879l0.104-0.026v-12.853h2.064
			V119.025z"/>
		<path d="M100.664,104.94H93.83v14.085h-2.082V104.94h-6.573v-1.352h15.488V104.94z"/>
		<path d="M120.762,111.671h-10.129v6.002h11.638v1.352h-13.719v-15.437h13.719v1.352h-11.638v5.38h10.129V111.671z"/>
		<path d="M144.882,113.248v5.777h-2.081v-15.437h7.666c2.208,0,3.94,0.451,5.195,1.352c1.254,0.901,1.882,2.063,1.882,3.485
			c0,1.431-0.627,2.593-1.882,3.484c-1.255,0.893-2.986,1.338-5.195,1.338H144.882z M144.882,111.896h5.585
			c1.642,0,2.885-0.332,3.729-0.996c0.844-0.664,1.267-1.48,1.267-2.448c0-0.986-0.419-1.817-1.258-2.495s-2.084-1.017-3.738-1.017
			h-5.585V111.896z"/>
		<path d="M167.877,112.281v6.744h-2.081v-15.437h7.684c2.255,0,3.989,0.376,5.203,1.126s1.821,1.826,1.821,3.229
			c0,0.865-0.283,1.602-0.85,2.211c-0.567,0.609-1.417,1.067-2.55,1.377c1.202,0.256,2.066,0.694,2.593,1.313
			c0.526,0.619,0.789,1.393,0.789,2.321v1.578c0,0.442,0.026,0.84,0.078,1.193s0.159,0.633,0.321,0.836v0.252h-2.168
			c-0.139-0.212-0.226-0.532-0.261-0.961c-0.034-0.428-0.052-0.872-0.052-1.331v-1.537c0-0.919-0.376-1.634-1.127-2.146
			c-0.752-0.513-1.821-0.769-3.209-0.769H167.877z M167.877,110.929h5.603c1.734,0,2.992-0.246,3.772-0.738
			c0.78-0.493,1.171-1.227,1.171-2.203s-0.391-1.729-1.171-2.256s-2.038-0.792-3.772-0.792h-5.603V110.929z"/>
		<path d="M191.722,119.025h-2.063v-15.437h2.063V119.025z"/>
		<path d="M207.971,116.269l0.382,0.993h0.104l0.381-0.98l6.521-12.693h2.221l-8.169,15.437h-2.03l-8.169-15.437h2.237
			L207.971,116.269z"/>
		<path d="M237.54,111.671h-10.129v6.002h11.639v1.352h-13.72v-15.437h13.72v1.352h-11.639v5.38h10.129V111.671z M234.088,99.15
			h2.55l0.052,0.08l-4.318,3.444h-1.873L234.088,99.15z"/>
		<path d="M259.599,111.671H249.47v6.002h11.639v1.352h-13.72v-15.437h13.72v1.352H249.47v5.38h10.129V111.671z"/>
		<path d="M280.217,119.025v-15.437h6.886c2.313,0,4.272,0.597,5.88,1.789c1.606,1.192,2.411,2.708,2.411,4.545v2.782
			c0,1.847-0.805,3.361-2.411,4.545c-1.607,1.184-3.567,1.775-5.88,1.775H280.217z M282.298,104.94v12.733h4.805
			c1.723,0,3.188-0.474,4.396-1.42s1.813-2.133,1.813-3.56v-2.787c0-1.418-0.604-2.6-1.813-3.547
			c-1.208-0.946-2.674-1.42-4.396-1.42H282.298z"/>
		<path d="M316.272,111.671h-10.129v6.002h11.639v1.352h-13.72v-15.437h13.72v1.352h-11.639v5.38h10.129V111.671z"/>
		<path d="M365.594,117.673h10.025v1.352h-12.106v-15.437h2.081V117.673z"/>
		<path d="M394.678,111.671h-10.129v6.002h11.639v1.352h-13.72v-15.437h13.72v1.352h-11.639v5.38h10.129V111.671z M391.227,99.15
			h2.55l0.052,0.08l-4.318,3.444h-1.873L391.227,99.15z"/>
		<path d="M419.461,116.958c-0.497,0.565-1.413,1.089-2.749,1.57s-2.992,0.723-4.969,0.723c-2.567,0-4.648-0.585-6.244-1.756
			s-2.394-2.696-2.394-4.578v-3.22c0-1.863,0.789-3.383,2.367-4.558s3.616-1.763,6.114-1.763c2.474,0,4.367,0.404,5.68,1.213
			c1.313,0.808,1.992,1.919,2.038,3.332l-0.034,0.066l-1.926,0.053c-0.104-1.1-0.618-1.927-1.543-2.48
			c-0.926-0.555-2.33-0.832-4.215-0.832c-1.908,0-3.452,0.468-4.631,1.402c-1.18,0.935-1.77,2.12-1.77,3.557v3.227
			c0,1.463,0.596,2.66,1.786,3.59c1.191,0.931,2.781,1.396,4.771,1.396c1.479,0,2.699-0.141,3.659-0.423s1.624-0.608,1.995-0.979
			v-3.674h-5.151v-1.352h7.215V116.958z"/>
		<path d="M444.106,103.588v10.216c0,1.705-0.775,3.039-2.324,4.002c-1.55,0.963-3.55,1.444-6.001,1.444
			c-2.463,0-4.47-0.481-6.019-1.444c-1.55-0.963-2.324-2.297-2.324-4.002v-10.216h2.063v10.206c0,1.263,0.587,2.262,1.761,2.999
			s2.68,1.105,4.519,1.105c1.838,0,3.341-0.368,4.509-1.105s1.752-1.736,1.752-2.999v-10.206H444.106z"/>
		<path d="M462.679,116.786h0.104l7.406-13.197h2.566v15.437h-2.081v-12.468l-0.104-0.027l-7.111,12.495h-1.475l-7.232-12.746
			l-0.104,0.013v12.733h-2.081v-15.437h2.723L462.679,116.786z"/>
		<path d="M493.636,111.671h-10.129v6.002h11.639v1.352h-13.72v-15.437h13.72v1.352h-11.639v5.38h10.129V111.671z"/>
		<path d="M515.349,115.163c0-0.759-0.413-1.364-1.239-1.818c-0.827-0.454-2.351-0.905-4.57-1.355
			c-2.498-0.503-4.319-1.073-5.464-1.709s-1.717-1.576-1.717-2.822c0-1.236,0.667-2.226,2.003-2.968s3.131-1.113,5.386-1.113
			c2.313,0,4.119,0.404,5.42,1.213c1.301,0.808,1.922,1.937,1.864,3.385l-0.034,0.08h-1.926c0-0.985-0.468-1.786-1.404-2.402
			c-0.937-0.615-2.244-0.924-3.92-0.924c-1.746,0-3.067,0.261-3.964,0.782c-0.896,0.521-1.344,1.17-1.344,1.947
			s0.379,1.39,1.136,1.835c0.758,0.446,2.299,0.895,4.622,1.346c2.475,0.502,4.299,1.078,5.473,1.726
			c1.174,0.648,1.761,1.581,1.761,2.799c0,1.278-0.711,2.279-2.134,3.003c-1.422,0.724-3.342,1.085-5.758,1.085
			c-2.221,0-4.085-0.369-5.594-1.106c-1.51-0.737-2.235-1.901-2.177-3.491l0.034-0.08h1.926c0,1.17,0.566,2.018,1.699,2.541
			c1.134,0.523,2.504,0.785,4.111,0.785c1.804,0,3.223-0.26,4.258-0.78C514.832,116.599,515.349,115.947,515.349,115.163z"/>
	</g>
</g>
<g>
</g>
<g>
</g>
<g>
</g>
<g>
</g>
<g>
</g>
<g>
</g>
<g>
</g>
<g>
</g>
<g>
</g>
<g>
</g>
<g>
</g>
<g>
</g>
<g>
</g>
<g>
</g>
<g>
</g>
</svg>
